<?xml version="1.0" encoding="UTF-8"?>
<svg id="Layer_1" data-name="Layer 1" xmlns="http://www.w3.org/2000/svg" viewBox="0 0 600 500">
  <defs>
    <style>
      .cls-1 {
        fill: #fff;
      }

      .cls-2 {
        fill: #6cb4ee;
      }
    </style>
  </defs>
  <rect class="cls-2" x="50" y="-50" width="500" height="600" transform="translate(50 550) rotate(-90)"/>
  <g>
    <path class="cls-1" d="m193.75,184.38c.53.8.75,1.7.99,2.6,1.31,4.94,2.72,7.54,5.01,11.93,6.03,11.42,26.11,6.59,26.76,26.67.27,7.92-2.62,12.11-7.85,16.19l.68,1.18-.85,1.3h-56.93l-1.06-1.46.8-.99c-5.26-4.09-8.2-8.27-7.94-16.22.64-20.08,20.73-15.26,26.76-26.67,2.28-4.4,3.7-6.99,5.01-11.93.65-2.48,1.82-4.53,4.9-4.47,1.83-.03,3.01.8,3.71,1.86m106.19-62.42c-2.33-.67-4.39-2.45-4.39-4.4.13-3.16,2.13-8.27,4.39-7.94,2.07-.13,4.53,4.91,4.65,8.07,0,1.94-2.24,3.73-4.65,4.27m.13-28.62c.19.58.41.98.64,1.62.19.5.52.76.46,1.29-.08.66-.46,1.16-1.1,1.29-.64-.13-1.02-.64-1.1-1.29-.07-.53.27-.79.46-1.29.23-.64.45-1.03.64-1.62m-.04,39.47c-1-.02-1.81-.92-2.03-1.58-.09-.29-.4-.33-.81-.37v-.52h.85c.22-.99,1.02-1.62,2.03-1.62s1.8.63,2.02,1.62h.84v.52c-.4.03-.71.08-.8.37-.22.66-1.07,1.6-2.1,1.58m-.13-4.49c-1.31-.06-2.02-1.14-2.42-2.35-.17-.52-1.68-.27-2.42-.34v-1.07h2.15c.49-1.26,1.55-1.94,2.89-1.88,1.31.05,2.28.77,2.69,2.02l2.29.03v.94c-.74.07-2.32-.28-2.49.24-.4,1.21-1.28,2.49-2.69,2.42m-25.72,67.9c.55,1.85,4.87,5.15,4.74,10.44-.12,4.98-3.93,8.37-5.04,10.22-1.17-1.85-4.69-4.91-4.82-9.9-.12-5.29,4.63-8.91,5.12-10.75m63.18.22c-.37,1.79-5.01,5.06-4.95,10.23.13,4.8,3.9,8.1,4.76,9.89.8-1.79,4.39-5.38,4.45-10.18.12-5.17-3.89-8.15-4.26-9.94m9.72.49c-.34,1.71-3.79,4.77-3.73,9.78.11,4.59,2.77,7.83,3.56,9.54.73-1.71,3.45-4.95,3.5-9.54.11-5.02-2.99-8.07-3.33-9.78m-61.14,1.18c-2.06,2.46-4.32,4.84-4.24,8.35.05,3.74,2.19,6.33,4.32,9.09,2.27-2.79,4.83-5.31,4.93-9.09.04-4.05-2.39-6.16-4.4-9.12-.18.26-.4.51-.61.77m39.88-1.85c-.55,1.84-6.23,5.42-6.11,10.71.13,4.99,4.7,8.05,5.81,9.9,1.17-1.85,5.05-4.91,5.17-9.9.12-5.29-4.38-8.87-4.87-10.71m-13.54-.18c-.55,1.85-5.94,5.02-5.88,10.31.12,4.86,4.46,8.4,5.57,10.18,1.17-1.79,5.94-5.03,6-9.89.13-5.29-5.2-8.75-5.69-10.6m-13.42-.49c-.62,1.84-6.34,5.16-6.22,10.52.12,4.98,4.62,8.43,5.91,10.27,1.29-1.84,5.78-5.29,5.91-10.27.12-5.35-5.05-8.68-5.6-10.52m-36.29.86c.37,1.79,4.83,5.21,4.76,10.38-.12,4.8-3.72,7.96-4.58,9.74-.8-1.79-3.96-5.38-4.02-10.18-.12-5.17,3.47-8.15,3.84-9.94m37.94-95.78c.18,1.05.55,1.72,1.38,2.43.4.33.66.49,1.14.68h.93l.09.58c-.65.1-1.08.45-1.23.78-.61,1.37-.86,3.96-2.74,3.96s-2.14-2.59-2.75-3.96c-.14-.33-.57-.68-1.22-.78l.09-.58h.92c.48-.19.74-.34,1.14-.68.83-.7,1.26-1.35,1.43-2.39-.5-.16-.86-.6-.98-.95-.07-.17-.27-.2-.54-.23v-.32h.56c.18-.64.69-1.02,1.35-1.02s1.16.39,1.33,1.02h.57v.32c-.27.03-.48.06-.54.23-.11.32-.45.74-.92.91m-.5,143.61h-47.96l-1.35-1.32,1.23-1.08v-9.79h1.22c.86,0,1.51.78,1.46,1.62-.04.74-.6,1.19-1.24,1.43l3.06,5.34v-6.19h1.5v-.25c-5.73-8.36-10.15-15.61-9.8-27.2.75-22.48,10.93-34.24,29.25-43.61,2.01-1.03,6.14-2.94,7.69-4.57,6.1-6.45,9.84-9.71,10.44-19.54.16-2.77,1.72-5.53,4.5-5.53s4.34,2.75,4.49,5.53c.6,9.83,4.32,13.09,10.44,19.54,1.54,1.62,5.67,3.54,7.69,4.57,18.32,9.37,28.5,21.13,29.25,43.61.33,11.59-4.08,18.84-9.82,27.2v.25h1.51v6.19l3.06-5.34c-.64-.24-1.2-.69-1.24-1.43-.05-.84.61-1.62,1.46-1.62h1.22v9.79l1.22,1.08-1.34,1.32h-47.94Zm98.03-2.59c-.65-1.41-1.5-3.03-2.08-4.86-1.45-4.57-2.24-7.43-1.6-12.18.83-6.15,4.63-8.53,7.37-14.1,2.62-5.31,4.71-8.1,6.41-13.78,1.44-4.82,2.04-8.34,2.21-12.82-.32.07-.88.02-1.93,1.06-1.08,1.08-2.81,8.46-5.34,13.2-1.95,3.67-3.49,5.64-6.67,8.31-5.49,4.6-12.17,5.93-14.54,9.94-2.12,3.58-2.91,6.27-2.38,10.38.71,5.45,3.79,8.06,8.02,11.57,1.71,1.42,3.38,2.46,4.96,3.27h5.58Zm15.82-57.31c.52.8.75,1.7.99,2.6,1.31,4.94,2.72,7.54,5.01,11.93,6.02,11.42,26.11,6.59,26.76,26.67.27,7.92-2.62,12.11-7.85,16.19l.69,1.18-.85,1.3h-56.93l-1.06-1.46.8-.99c-5.26-4.09-8.2-8.27-7.93-16.22.64-20.08,20.73-15.26,26.75-26.67,2.29-4.4,3.7-6.99,5.01-11.93.65-2.48,1.82-4.53,4.89-4.47,1.84-.03,3.01.8,3.72,1.86m-252.18,62.73h276.63c2.44,0,2.44,3.65,0,3.65H161.68c-2.43,0-2.43-3.65,0-3.65m79.47-101.63v9.07h.86v-9.07s-.15-.4-.37-.43c-.25-.03-.49.43-.49.43m-4.1,0v9.07h1.68v-9.07c-.22-.33-.51-.46-.9-.43-.35.02-.57.15-.77.43m-1.67,20.17l-1.33.16v42.72h1.34v-42.88Zm-2.31-20.08v8.98h1.67v-8.98c-.21-.3-.48-.43-.85-.43-.36,0-.62.13-.82.43m-5.75,98.69l-1.05-1.31.83-1.18v-9.69h.88c.84,0,1.53.67,1.53,1.51,0,.75-.49,1.34-1.22,1.5l2.15,4.7v-16.32l1.35-1.61v-3.76c0-2.8,2.13-4.06,2.03-5.01-.11-1.32-.82-2.23-1.42-3.34v-44c.56-1.42,1.44-2.66,2.65-3.6v-1.45c-1.81-.41-2.82-1.15-3.56-2.74-.71-1.53-1.96-1.69-3.52-1.46v-1.77h3.51v-9.67h-3.2v-1.59h3.24l.45-1.05h.64c-.19-.64-.32-1.37-.27-2.17.16-2.49,2.08-3.47,3.39-5.21.72-.93,1.08-1.52,1.52-2.45-.51-.09-.98-.44-1.19-1.06-.09-.03-.44-.05-.49-.06v-.88h.56c.22-.57.75-.93,1.38-.93s1.17.36,1.39.93h.57v.88c-.06,0-.41.03-.5.06-.2.62-.67.97-1.19,1.06.45.93.81,1.51,1.53,2.45,1.31,1.75,3.22,2.72,3.38,5.21.05.8-.08,1.53-.27,2.17h.64l.45,1.05h3.24v1.59h-3.19v9.67h3.5v1.77c-1.56-.24-2.81-.07-3.52,1.46-.74,1.59-1.75,2.33-3.56,2.74v1.45c1.21.95,2.09,2.18,2.65,3.6v44c-.6,1.12-1.3,2.03-1.42,3.34-.09.95,2.03,2.21,2.03,5.01v3.76l1.35,1.61v16.32l2.15-4.7c-.73-.16-1.22-.75-1.22-1.5,0-.84.69-1.51,1.53-1.51h.89v9.69l.83,1.18-1.05,1.31h-20.41Zm11-117.3c.16.42.44.61.36,1.15-.08.67-.47,1.13-1.15,1.27-.91-.18-1.43-1.14-1.02-1.95.42-.83.72-1.68,1.02-2.56.24.72.52,1.39.78,2.1m127.73,18.52v9.07h.86v-9.07s-.16-.4-.37-.43c-.25-.03-.49.43-.49.43m-4.1,0v9.07h1.68v-9.07c-.23-.33-.51-.46-.9-.43-.35.02-.57.15-.77.43m-1.67,20.17l-1.33.16v42.72h1.33v-42.88Zm2.35,68.2c0-.79.55-1.45,1.3-1.6,0,0,.2,0,.2-.55,0-.38-.18-.47-.18-.47h-2.79c-.85,0-1.76,1.55-1.76,2.74,0,.6.21,1.24.66,1.57l-2.6,5.91.18.28h3.1l2.61-6s.08-.16.07-.27c-.01-.13-.07-.25-.14-.31-.4-.29-.65-.77-.65-1.3m-4.65-88.28v8.98h1.68v-8.98c-.22-.3-.48-.43-.85-.43-.37,0-.62.13-.83.43m-5.73,98.69l-1.06-1.31.83-1.18v-9.69h.89c.83,0,1.53.67,1.53,1.51,0,.75-.5,1.34-1.22,1.5l2.15,4.7v-16.32l1.35-1.61v-3.76c0-2.8,2.13-4.06,2.04-5.01-.11-1.32-.82-2.23-1.42-3.34v-44c.55-1.42,1.44-2.66,2.65-3.6v-1.45c-1.81-.41-2.81-1.15-3.55-2.74-.72-1.53-1.97-1.69-3.52-1.46v-1.77h3.51v-9.67h-3.21v-1.59h3.25l.45-1.05h.64c-.19-.64-.32-1.37-.27-2.17.16-2.49,2.08-3.47,3.39-5.21.72-.93,1.08-1.52,1.52-2.45-.51-.09-.98-.44-1.18-1.06-.09-.03-.44-.05-.5-.06v-.88h.57c.22-.57.75-.93,1.38-.93s1.17.36,1.38.93h.57v.88c-.06,0-.4.03-.49.06-.21.62-.67.97-1.19,1.06.44.93.8,1.51,1.52,2.45,1.31,1.75,3.23,2.72,3.39,5.21.06.8-.08,1.53-.27,2.17h.64l.46,1.05h3.24v1.59h-3.2v9.67h3.5v1.77c-1.56-.24-2.81-.07-3.52,1.46-.73,1.59-1.75,2.33-3.56,2.74v1.45c1.21.95,2.09,2.18,2.65,3.6v44c-.59,1.12-1.3,2.03-1.41,3.34-.1.95,2.03,2.21,2.03,5.01v3.76l1.35,1.61v16.32l2.16-4.7c-.73-.16-1.23-.75-1.23-1.5,0-.84.69-1.51,1.53-1.51h.89v9.69l.84,1.18-1.05,1.31h-20.4Zm11-117.3c.15.42.43.61.36,1.15-.08.67-.47,1.13-1.15,1.27-.91-.18-1.42-1.14-1.01-1.95.42-.83.72-1.68,1.01-2.56.24.72.52,1.39.79,2.1m48.09,55.2c-.7.07-1.27.09-1.27.09,0,0-.55-.02-1.24-.1-.88-.09-1.73-.23-2.6-.45l-.26-1.46c1.42-1.15,2.41-1.62,4.26-1.58,1.79.05,2.7.53,4.05,1.66l-.31,1.39c-.86.23-1.73.37-2.63.46m-1.22-26.07c.94,0,1.71.77,1.71,1.71s-.77,1.72-1.71,1.72-1.72-.77-1.72-1.72.77-1.71,1.72-1.71m3.59,7.98c-.38,1.16-1.64,2.7-3.52,2.76-1.99.07-3.27-1.6-3.66-2.76-.16-.49-.71-.57-1.41-.64v-.9h1.48c.39-1.72,1.77-2.82,3.53-2.82s3.14,1.11,3.52,2.82h1.48v.9c-.71.06-1.25.15-1.41.64m-2.4-11.23c-.22-.6-.43-.97-.61-1.51l-.58-1.73c-.44,1.31-.84,2.56-1.46,3.79-.6,1.17.16,2.49,1.46,2.75.96-.19,1.53-.81,1.64-1.77.09-.73-.25-.96-.46-1.52m-3.43,19.36c.04-.88.69-5.15,2.28-5.15s2.17,4.09,2.21,5.02c0,3.14-4.49,3.19-4.49.13m5.26,4.37c0,1.37-1.67,2.06-3.02,2.06s-3.02-.68-3.02-2.06,1.67-2.06,3.02-2.06,3.02.68,3.02,2.06m-221.9,5.59c-.71.07-1.27.09-1.27.09,0,0-.56-.02-1.24-.1-.89-.09-1.74-.23-2.61-.45l-.26-1.46c1.42-1.15,2.41-1.62,4.27-1.58,1.79.05,2.7.53,4.06,1.66l-.31,1.39c-.88.23-1.73.37-2.63.46m-1.23-26.07c.95,0,1.72.77,1.72,1.71s-.77,1.72-1.72,1.72-1.72-.77-1.72-1.72.77-1.71,1.72-1.71m3.59,7.98c-.38,1.16-1.64,2.7-3.52,2.76-1.99.07-3.27-1.6-3.65-2.76-.17-.49-.71-.57-1.41-.64v-.9h1.48c.38-1.72,1.77-2.82,3.52-2.82s3.14,1.11,3.52,2.82h1.48v.9c-.71.06-1.24.15-1.41.64m-2.41-11.23c-.22-.6-.42-.97-.6-1.51l-.58-1.73c-.43,1.31-.84,2.56-1.46,3.79-.59,1.17.15,2.49,1.46,2.75.96-.19,1.53-.81,1.65-1.77.09-.73-.26-.96-.47-1.52m-3.43,19.36c.03-.88.69-5.15,2.27-5.15s2.17,4.09,2.21,5.02c0,3.14-4.48,3.19-4.48.13m5.26,4.37c0,1.37-1.66,2.06-3.02,2.06s-3.02-.68-3.02-2.06,1.66-2.06,3.02-2.06,3.02.68,3.02,2.06m-15.11,64.85c-.66-1.41-1.5-2.77-2.08-4.6-1.44-4.57-2.24-7.43-1.6-12.18.83-6.15,4.63-8.53,7.37-14.1,2.62-5.31,4.71-8.1,6.41-13.78,1.44-4.82,2.04-8.34,2.2-12.82-.32.07-.89.02-1.92,1.06-1.08,1.08-2.82,8.46-5.34,13.2-1.95,3.67-3.49,5.64-6.68,8.31-5.49,4.6-12.17,5.93-14.54,9.94-2.12,3.58-2.91,6.27-2.37,10.38.71,5.45,3.79,8.06,8.01,11.57,1.72,1.42,3.49,2.2,5.07,3.01h5.47Zm159.38-7.58c0-.79.56-1.45,1.3-1.6,0,0,.19,0,.19-.55,0-.38-.18-.47-.18-.47h-2.79c-.84,0-1.75,1.55-1.75,2.74,0,.6.22,1.24.66,1.57l-2.6,5.91.19.28h3.09l2.6-6s.09-.16.08-.27c0-.13-.05-.25-.13-.31-.4-.29-.65-.77-.65-1.3m-9.34,0c0-.79.56-1.45,1.3-1.6,0,0,.19,0,.19-.55,0-.38-.17-.47-.17-.47h-2.79c-.85,0-1.75,1.55-1.75,2.74,0,.6.21,1.24.66,1.57l-2.59,5.91.17.28h3.1l2.6-6s.07-.16.07-.27c0-.13-.06-.25-.14-.31-.39-.29-.65-.77-.65-1.3m-9.33,0c0-.79.55-1.45,1.29-1.6,0,0,.2,0,.2-.55,0-.38-.17-.47-.17-.47h-2.79c-.85,0-1.75,1.55-1.75,2.74,0,.6.2,1.24.65,1.57l-2.6,5.91.18.28h3.1l2.6-6s.09-.16.08-.27c-.01-.13-.07-.25-.14-.31-.4-.29-.65-.77-.65-1.3m-9.34,0c0-.79.55-1.45,1.3-1.6,0,0,.19,0,.19-.55,0-.38-.17-.47-.17-.47h-2.79c-.85,0-1.76,1.55-1.76,2.74,0,.6.22,1.24.66,1.57l-2.6,5.91.18.28h3.1l2.6-6s.08-.16.07-.27c0-.13-.06-.25-.13-.31-.39-.29-.65-.77-.65-1.3m-9.34,0c0-.79.55-1.45,1.29-1.6,0,0,.2,0,.2-.55,0-.38-.18-.47-.18-.47h-2.79c-.86,0-1.76,1.55-1.76,2.74,0,.6.21,1.24.66,1.57l-2.6,5.91.18.28h3.1l2.6-6s.08-.16.08-.27c0-.13-.06-.25-.14-.31-.39-.29-.64-.77-.64-1.3m-61.7,0c0-.79.55-1.45,1.3-1.6,0,0,.2,0,.2-.55,0-.38-.17-.47-.17-.47h-2.79c-.85,0-1.75,1.55-1.75,2.74,0,.6.2,1.24.66,1.57l-2.6,5.91.18.28h3.1l2.6-6s.08-.16.08-.27c0-.13-.06-.25-.14-.31-.39-.29-.65-.77-.65-1.3m52.35,0c0-.79.56-1.45,1.29-1.6,0,0,.2,0,.2-.55,0-.38-.17-.47-.17-.47h-2.82c-.68-2.11-1.29-4.27-1.89-6.45-.71-2.61-1.24-4.91-1.62-7.1-2.46-3.69-5.5-6.26-5.57-11.2-.09-3.89,2.25-6.44,4.53-9.16,1.17-1.39.97-1.49,1.51-3.5,0,0,.88-3.32,1.45-5.55,2.24-8.81,6.01-12.95,8.61-21.66,2.17-7.27,3.61-11.43,4.15-18.99.32-4.42.3-7.16-.12-11.19l-.15-.43c-1.87-.09-2.03,1.85-2.11,3.25-.64,10.51-4.58,14.17-11.1,21.07-1.88,1.98-5.91,3.81-8.34,5.05-10.72,5.48-18.5,11.7-23.1,20.65-.8,1.68-1.37,3.85-1.82,6.11-.35,1.72-.51,3.15-.58,4.53-1.04,2.2,3.43,4.74,4.01,9.66.55,4.58-.6,6.7-1.46,8.42.16.29,5.61,9.58,11.23,14.76.93.86,1.84,1.61,2.77,2.28-.46.56-.8,1.42-.8,2.16,0,.6.21,1.24.66,1.57l-2.59,5.91.18.28h3.1l2.6-6s.08-.16.07-.27c0-.13-.06-.25-.13-.31-.4-.29-.66-.77-.66-1.3,0-.7.43-1.28,1.04-1.53.47.27.79.77.79,1.36,0,.21-.04.41-.09.6h4.4c.06.5.27.98.64,1.26l-.53,1.2-2.65,4.93.76.05h3.1l2.6-6s.08-.16.08-.27c0-.13-.06-.25-.14-.31-.39-.29-.65-.77-.65-1.3,0-.73.47-1.35,1.13-1.56.51.26.85.78.85,1.39,0,.22-.04.42-.12.6h4.27c.06.5.27.98.64,1.26l-.52,1.18-2.66,4.95.76.05h3.1l2.6-6s.08-.16.07-.27c0-.13-.06-.25-.13-.31-.4-.29-.65-.77-.65-1.3m-27.43,0c0-.79.55-1.45,1.29-1.6,0,0,.2,0,.2-.55,0-.38-.17-.47-.17-.47h-2.79c-.84,0-1.75,1.55-1.75,2.74,0,.6.21,1.24.66,1.57l-2.6,5.91.18.28h3.1l2.6-6s.08-.16.07-.27c0-.13-.06-.25-.13-.31-.4-.29-.65-.77-.65-1.3"/>
    <path class="cls-1" d="m93.23,276.73c0-2.46.21-4.31-2.2-4.31-.86,0-2.36.31-2.36-1.16,0-.99.86-1.17,1.5-1.42,3.81-1.47,11.05-1.6,15.18-1.6,2.63,0,6.39.37,8.8,1.29,3.16,1.24,5.74,4.31,5.74,8.3,0,6.26-5.36,7.92-9.76,8.29,5.84.31,11.15,2.96,11.15,10.7,0,3.8-1.45,6.82-4.24,8.85-2.79,1.97-5.74,2.09-8.85,2.09-5.15,0-10.19-.24-15.23-.24-1.08,0-2.04.24-3.11.24-.75,0-1.29-.37-1.29-1.29,0-.99.8-1.17,1.45-1.29,3.49-.68,3.22-1.97,3.22-5.96v-22.49Zm8.85,5.77c0,2.64,0,2.52,1.99,2.52,4.13-.05,6.86-2.27,6.86-7.49,0-3.93-2.36-6.95-5.79-6.95-.86,0-2.14.19-2.79.93-.48.55-.27,2.09-.27,2.96v8.04Zm0,16.42c0,3.56.54,6.64,4.08,6.64,4.34,0,6.17-3.94,6.17-8.48,0-3.32-1.24-6.77-3.81-8.43-1.55-1.04-3.22-1.1-4.99-1.1-1.39,0-1.45.86-1.45,2.52v8.85Z"/>
    <path class="cls-1" d="m135.28,283.42c.91,0,3.16-4.67,7.56-4.67,2.25,0,4.56,1.9,4.56,4.67s-2.04,4.98-4.45,4.98c-3.43,0-3.81-3.56-5.41-3.56-2.69,0-2.26,6.39-2.26,8.29v6.08c0,1.41-.16,3.62.22,4.91.27.93,1.93.87,2.89,1.05.59.12,1.29.49,1.29,1.29,0,1.04-.96,1.17-1.66,1.17-2.25,0-4.5-.13-6.76-.13s-4.4.13-6.65.13c-.7,0-1.61-.13-1.61-1.17,0-.8.64-1.17,1.28-1.29.75-.12,2.41-.18,2.68-1.05.37-1.29.37-3.5.37-4.91v-9.03c0-2.59.16-4-2.36-4.36-.75-.07-1.61,0-1.61-1.05,0-1.11,1.72-1.29,2.3-1.48,2.31-.68,5.26-2.15,6.92-4.18.33-.43.81-1.11,1.93-1.11.86,0,.75,1.6.75,2.22v3.19Z"/>
    <path class="cls-1" d="m159.95,299.22c0,1.41-.16,3.62.22,4.91.27.93,1.93.87,2.9,1.05.59.12,1.29.49,1.29,1.29,0,1.05-.97,1.17-1.66,1.17-2.25,0-4.51-.13-6.76-.13s-4.4.13-6.65.13c-.7,0-1.61-.13-1.61-1.17,0-.8.65-1.17,1.29-1.29.75-.13,2.41-.18,2.68-1.05.38-1.29.38-3.5.38-4.91v-9.03c0-2.59.16-4-2.36-4.36-.75-.07-1.61,0-1.61-1.05,0-1.11,1.72-1.29,2.31-1.47,2.31-.68,5.26-2.15,6.92-4.18.32-.43.8-1.1,1.93-1.1.86,0,.75,1.6.75,2.21v18.99Zm-8.8-28.02c0-2.96,2.41-4.73,4.77-4.73s4.72,1.66,4.72,4.66-2.25,5.04-4.83,5.04-4.67-1.9-4.67-4.97"/>
    <path class="cls-1" d="m166.93,303.89c-.38-.43-1.29-1.23-1.29-1.91,0-1.17,1.77-1.66,2.46-1.96l2.15-.98c.16,0,1.55-.56,1.55-.86,0-.13-.59-.43-.7-.43-3.43-1.35-6.01-4.49-6.01-8.61,0-3.32,1.61-5.96,3.97-7.87,2.47-1.9,5.53-2.52,8.48-2.52,2.36,0,4.61.37,6.76,1.41,1.12.55,1.61.8,2.85.8h3.16c1.61-.18,2.15-.18,2.15,1.9,0,1.67-.37,1.3-1.77,1.3h-1.88c-.05.06-.27.06-.27.24,0,0,1.35,1.84,1.35,4.61,0,6.33-5.69,9.83-10.68,9.96l-2.79.06c-.59,0-3.01,0-3.01,1.22,0,.61.91,1.29,1.4,1.48.91.37,2.2.31,3.16.31h4.08c2.09,0,4.61.06,6.54.98,2.47,1.17,4.02,3.69,4.02,6.71,0,3.93-2.57,6.94-5.47,8.78-3.01,1.97-6.6,2.58-10.03,2.58-4.08,0-12.93-1.04-12.93-7.37,0-4.92,6-5.04,6-6.21,0-.37-.91-1.1-1.07-1.29l-2.2-2.34Zm18.77,9.9c0-3.69-4.29-3.26-6.49-3.26-2.36,0-5.42-.68-6.92-1.53-.21,0-.86.37-1.02.55-.58.67-.96,1.72-.96,2.7,0,5.22,4.56,6.58,8.26,6.58,2.62,0,7.13-1.17,7.13-5.04m-3.86-24.03c0-3.38-.48-8.97-4.4-8.97-3.65,0-4.18,3.93-4.18,7.31s.64,8.79,4.56,8.79c3.65,0,4.02-3.93,4.02-7.13"/>
    <path class="cls-1" d="m223.78,299.4c0,1.04-.16,3.63.37,4.49.64,1.04,1.72,1.11,2.68,1.29.64.12,1.29.49,1.29,1.35,0,1.05-.91,1.11-1.61,1.11-2.58,0-5.04-.13-7.62-.13-1.93,0-3.97.13-5.95.13-.65,0-1.29-.19-1.29-1.11,0-.8.48-1.17,1.08-1.35.64-.18,1.61-.37,2.09-1.05.8-1.16.58-3.5.58-4.73v-8.85c0-3.81,0-7.69-4.4-7.69-1.45,0-3.27.73-4.34,1.85-.97,1.04-.86,1.9-.86,3.32v11.37c0,.86-.15,3.32.27,4.25.38.8.96,1.28,1.71,1.53.76.25,1.77.18,1.77,1.35,0,.86-.64,1.11-1.28,1.11-1.08,0-2.04-.13-3.11-.13-3.54,0-6.97.13-10.46.13-.7,0-1.66-.06-1.66-1.11,0-.86.69-1.23,1.28-1.35.8-.18,1.93-.25,2.52-1.05.86-1.16.59-3.43.59-4.73v-25.57c0-3.38.16-4-2.85-4.48-.43-.07-1.07-.25-1.07-.93,0-1.17,1.55-1.29,2.3-1.41,2.47-.37,4.72-1.23,7.08-2.21.54-.24,1.39-.68,1.99-.68,1.18,0,.9,2.1.9,2.95v14.75c0,.31.06.61.33.61.75,0,4.08-3.68,8.74-3.68,2.47,0,5.31,1.04,7.03,3.13,1.88,2.21,1.88,5.34,1.88,8.11v9.4Z"/>
    <path class="cls-1" d="m239.17,295.04c0,2.28-.22,8.3,2.63,8.3,1.77,0,2.96-1.79,3.76-1.79.38,0,.64.37.64.86,0,.8-1.07,2.03-1.5,2.52-1.82,1.97-4.51,3.14-6.97,3.14-1.77,0-3.86-.93-4.93-2.59-1.24-1.9-1.55-4.55-1.55-6.82v-12.84c0-.49-.05-2.1-.16-2.59-.11-.62-.75-.8-1.29-.8-.69,0-2.41.31-2.41-.68,0-.91,1.13-1.41,1.72-1.65,2.9-1.35,5.58-3.57,7.13-6.7.38-.8.91-2.03,1.82-2.03,1.13,0,.91,1.41.91,2.28v4.24c0,1.72.32,1.66,1.72,1.66h2.79c1.12,0,1.93-.31,1.93,1.23,0,1.72-.37,1.66-1.82,1.66h-2.63c-1.77,0-1.77-.06-1.77,2.4v10.2Z"/>
    <path class="cls-1" d="m246.2,293.45c0-8.98,7.78-14.69,15.18-14.69,3.59,0,7.14,1.11,9.98,3.56,2.95,2.52,4.93,6.45,4.93,10.63,0,9.28-7.56,15.12-15.34,15.12s-14.75-5.41-14.75-14.62m21.51.98c0-2.83-.54-6.45-1.66-8.97-.97-2.22-2.84-4.6-5.21-4.6-4.61,0-6,6.81-6,10.94,0,4.55,1.72,14.19,7.08,14.19,4.72,0,5.79-7.5,5.79-11.55"/>
    <path class="cls-1" d="m290.66,282.93c.86,0,3.54-4.17,8.8-4.17,2.42,0,4.82.73,6.75,2.52,2.26,2.09,2.21,4.67,2.21,7.68v10.26c0,1.48-.22,3.75.54,4.91.53.8,1.72.87,2.52,1.05.6.12,1.29.49,1.29,1.35,0,1.05-.97,1.11-1.66,1.11-1.94,0-3.76-.13-5.69-.13-2.46,0-4.93.13-7.4.13-.59,0-1.24-.19-1.24-1.11,0-.8.48-1.17,1.08-1.35.8-.25,1.72-.43,2.25-1.35.54-.91.38-3.44.38-4.61v-9.03c0-1.6-.16-3.93-.91-5.34-.75-1.42-2.2-2.22-3.65-2.22s-2.95.74-4.02,1.79c-1.45,1.42-1.24,2.71-1.24,4.8v10.02c0,1.17-.16,3.69.38,4.61.53.93,1.45,1.1,2.25,1.35.59.18,1.07.55,1.07,1.35,0,.92-.64,1.11-1.23,1.11-2.47,0-4.94-.13-7.4-.13-1.93,0-3.75.13-5.68.13-.7,0-1.66-.06-1.66-1.11,0-.86.7-1.23,1.28-1.35.81-.18,1.99-.25,2.52-1.05.75-1.16.53-3.44.53-4.91v-9.03c0-2.59.16-4-2.36-4.36-.75-.07-1.61,0-1.61-1.05,0-1.11,1.72-1.29,2.3-1.48,2.31-.68,5.26-2.15,6.92-4.18.32-.43.8-1.11,1.93-1.11.86,0,.75,1.6.75,2.22v2.7Z"/>
    <path class="cls-1" d="m361.2,301.37c1.5,2.03,2.36,3.32,4.66,3.75.75.12,1.72.25,1.72,1.35,0,1.23-1.19,1.29-1.99,1.29-1.87,0-3.86-.37-5.79-.37-1.18,0-2.36.06-3.59.13-1.45.07-1.71-.43-2.57-1.66l-1.88-2.58c-.11-.18-.86-1.3-1.13-1.3-.21,0-.43.31-.59.44-3.49,3.81-6.22,6.02-11.21,6.02-5.52,0-10.73-3.81-10.73-10.63,0-6.39,4.77-8.97,9.28-10.95.33-.12,1.08-.43,1.08-.86,0-.8-3.65-4.55-3.65-9.03,0-2.89,1.39-5.11,3.49-6.64,2.19-1.6,5.2-2.09,7.72-2.09,4.23,0,11.05,1.04,11.05,7.5,0,2.65-1.13,4.23-3.12,5.6-1.34.91-3.32,1.77-4.88,2.14-.22.06-.64.24-.64.55,0,.25.69,1.1.8,1.23l5.26,6.89c.16.18.42.55.64.55.49,0,2.47-3.5,2.47-4.61s-1.34-1.23-2.04-1.35c-.7-.13-1.82-.07-1.82-1.24,0-1.28,1.34-1.16,2.14-1.16h9.54c.65,0,1.55.12,1.55,1.1,0,1.11-.96,1.23-1.71,1.3-1.72.31-2.26.43-3.65,1.72-.65.61-4.77,5.65-4.77,6.57,0,.49.7,1.29.91,1.6l3.43,4.73Zm-20.81-12.72c-.17-.24-.27-.43-.54-.43-.43,0-1.5,1.11-1.82,1.48-1.02,1.1-1.61,2.88-1.61,4.55,0,4.61,3.27,8.59,7.34,8.59,1.61,0,2.85-.55,4.19-1.53.27-.24,1.08-.86,1.08-1.35,0-.31-.59-.92-.7-1.1l-7.94-10.21Zm8.26-7.74c1.07-1.17,1.39-2.65,1.39-4.24,0-2.77-1.61-6.27-4.29-6.27-1.82,0-3,1.48-3,3.56,0,2.59,2.03,5.23,3.49,7.19.16.19.47.74.75.74.54,0,1.34-.62,1.66-.99"/>
    <path class="cls-1" d="m407.91,285.82c1.82,0,1.77.06,1.77-2.22v-5.95c0-3.76.32-5.35-3.11-6.03-.64-.12-1.72-.18-1.72-1.23,0-.98.53-1.17,1.29-1.17,2.79,0,5.47.25,8.26.25,2.58,0,5.15-.25,7.67-.25.75,0,1.34.19,1.34,1.17s-.86,1.11-1.5,1.23c-3.65.68-3.37,1.91-3.37,6.03v21.81c0,3.63-.22,5.1,3.16,5.71.7.12,1.72.31,1.72,1.42,0,.91-.59,1.16-1.28,1.16-2.79,0-5.47-.24-8.26-.24-2.57,0-5.15.24-7.73.24-.75,0-1.29-.24-1.29-1.16,0-.99.81-1.3,1.45-1.42,3.54-.68,3.38-1.72,3.38-5.71v-9.4c-.06-1.66-.16-1.48-1.61-1.48h-9.55c-2.25,0-2.1-.24-2.1,2.28v8.61c0,3.63-.21,5.1,3.17,5.71.69.12,1.71.31,1.71,1.42,0,.91-.59,1.16-1.28,1.16-2.79,0-5.47-.24-8.26-.24-2.57,0-5.15.24-7.73.24-.75,0-1.29-.24-1.29-1.16,0-.99.81-1.3,1.45-1.42,3.54-.68,3.38-1.72,3.38-5.71v-21.81c0-3.76.32-5.35-3.11-6.03-.64-.12-1.72-.18-1.72-1.23,0-.98.54-1.17,1.29-1.17,2.79,0,5.48.25,8.26.25,2.57,0,5.15-.25,7.67-.25.75,0,1.34.19,1.34,1.17s-.86,1.11-1.5,1.23c-3.64.68-3.38,1.91-3.38,6.03v5.95c0,2.22.06,2.22,1.93,2.22h9.55Z"/>
    <path class="cls-1" d="m424.81,293.45c0-8.98,7.78-14.69,15.18-14.69,3.59,0,7.13,1.11,9.98,3.56,2.95,2.52,4.94,6.45,4.94,10.63,0,9.28-7.57,15.12-15.35,15.12s-14.76-5.41-14.76-14.62m21.52.98c0-2.83-.53-6.45-1.67-8.97-.96-2.22-2.84-4.6-5.2-4.6-4.61,0-6.01,6.81-6.01,10.94,0,4.55,1.72,14.19,7.08,14.19,4.72,0,5.8-7.5,5.8-11.55"/>
    <path class="cls-1" d="m476.68,288.28c.48-1.23,1.17-3.01,1.17-4.31,0-1.59-1.28-1.96-2.41-2.15-.69-.12-1.77,0-1.77-1.17,0-.86.65-1.22,1.34-1.22,1.61,0,3.18.12,4.78.12s3.17-.12,4.72-.12c.69,0,1.51.12,1.51,1.1,0,.8-.65,1.17-1.24,1.29-2.15.43-2.58.18-3.65,2.77l-8.8,21.02c-.69,1.66-.86,2.46-2.57,2.46-1.55,0-1.61-.87-2.2-2.34l-7.99-19.48c-.33-.68-1.08-2.71-1.55-3.32-.53-.73-1.13-.92-1.88-1.11-.75-.18-1.71-.06-1.71-1.17,0-1.16,1.02-1.22,1.82-1.22,2.03,0,4.19.12,6.33.12,2.36,0,4.73-.12,7.03-.12.69,0,1.71,0,1.71,1.1,0,1.17-1.18,1.23-1.93,1.29-.75.06-1.72.37-1.72,1.41,0,.61.43,1.66.64,2.21l3.7,9.84c.11.31.59,1.79,1.02,1.79.33,0,.75-1.35.8-1.6l2.85-7.19Z"/>
    <path class="cls-1" d="m495.88,290.43c-1.33,0-1.87-.18-1.87,1.54,0,5.96,3.48,11.86,9.27,11.86,4.08,0,5.79-3.19,7.08-3.19.43,0,.81.37.81.92,0,1.23-1.99,2.89-2.8,3.45-2.63,2.02-5.69,3.07-8.9,3.07-7.56,0-14.05-6.33-14.05-15.06s7.24-14.25,14.59-14.25c2.79,0,5.85.91,8.1,2.88,1.83,1.54,3.33,3.81,3.33,6.46,0,2.27-1.18,2.33-3,2.33h-12.55Zm6.06-2.64c1.45-.37,1.98-1.54,1.98-3.08,0-2.27-1.44-3.87-3.49-3.87-1.61,0-3.32.86-4.39,2.21-.7.98-1.5,2.83-1.5,4.12,0,1.11.96.99,1.76.99,1.45,0,4.29,0,5.63-.37"/>
    <path class="cls-1" d="m179.67,357.55c-.1,2.03-.05,2.83-1.72,3.93-3.01,2.09-6.81,2.83-10.29,2.83-4.73,0-10.25-1.23-14.11-4.55-4.08-3.5-6.81-9.34-6.81-15.24s2.68-11.62,6.92-15.24c4.18-3.51,9.93-5.16,15.07-5.16,2.52,0,5.58.49,8.05,1.29,1.45.49,1.45.73,1.72,2.46l.43,3.14c.11.62.21,1.17.21,1.78,0,.68-.43,1.05-1.02,1.05-2.47,0-2.63-7.31-9.87-7.31-3.54,0-6.81,2.27-8.85,5.53-2.09,3.37-2.95,7.87-2.95,11.92s.8,8.42,2.68,11.8c2.04,3.62,5.26,6.15,9.12,6.15,2.09,0,4.02-.87,5.64-2.34,1.61-1.53,2.57-3.56,3.54-5.65.27-.68.64-1.29,1.34-1.29,1.18,0,1.13,1.41,1.08,2.34l-.16,2.58Z"/>
    <path class="cls-1" d="m194.15,355.09c0,1.41-.16,3.63.22,4.92.27.93,1.93.86,2.9,1.04.59.13,1.29.49,1.29,1.3,0,1.05-.97,1.16-1.66,1.16-2.25,0-4.51-.11-6.76-.11s-4.4.11-6.65.11c-.7,0-1.61-.11-1.61-1.16,0-.8.64-1.17,1.29-1.3.75-.12,2.41-.18,2.68-1.04.37-1.29.37-3.5.37-4.92v-9.03c0-2.58.16-3.99-2.35-4.36-.75-.07-1.61,0-1.61-1.04,0-1.11,1.72-1.29,2.31-1.48,2.3-.68,5.25-2.15,6.92-4.18.32-.43.8-1.11,1.93-1.11.86,0,.75,1.6.75,2.21v18.99Zm-8.8-28.02c0-2.95,2.41-4.73,4.77-4.73s4.72,1.66,4.72,4.67-2.25,5.04-4.83,5.04-4.67-1.9-4.67-4.97"/>
    <path class="cls-1" d="m209.54,350.91c0,2.27-.22,8.29,2.63,8.29,1.77,0,2.96-1.78,3.76-1.78.38,0,.65.37.65.87,0,.8-1.07,2.02-1.5,2.52-1.82,1.97-4.51,3.13-6.97,3.13-1.77,0-3.86-.91-4.93-2.58-1.23-1.9-1.55-4.54-1.55-6.82v-12.84c0-.49-.05-2.1-.16-2.58-.11-.62-.75-.8-1.29-.8-.69,0-2.41.31-2.41-.68,0-.92,1.12-1.41,1.72-1.66,2.9-1.35,5.58-3.56,7.13-6.7.37-.8.91-2.03,1.82-2.03,1.12,0,.91,1.42.91,2.28v4.23c0,1.72.33,1.65,1.72,1.65h2.79c1.12,0,1.93-.3,1.93,1.24,0,1.72-.38,1.66-1.83,1.66h-2.63c-1.77,0-1.77-.06-1.77,2.4v10.2Z"/>
    <path class="cls-1" d="m238.61,342.06c.27-.74.64-1.6.64-2.46,0-1.41-1.39-1.84-2.41-1.9-.8-.06-2.04-.12-2.04-1.41,0-.99,1.08-.99,1.72-.99,1.56,0,3.06.12,4.62.12s3.06-.12,4.62-.12c.69,0,1.39,0,1.39.99,0,1.04-.75,1.29-1.5,1.41-1.34.24-1.77.13-2.68,1.42-.92,1.22-1.93,3.86-2.53,5.34l-8.1,19.67-2.9,7.99c-1.08,3.63-.86,4.55-4.4,4.55-2.36,0-4.72-.18-4.72-3.45,0-.99.21-2.21.69-3.01.81-1.23,2.04-1.04,3.16-.98,1.61.06,2.9.43,4.02-1.11.48-.67,1.13-2.02,1.13-2.94,0-.99-.64-2.46-1.02-3.39l-7.93-18.38c-.65-1.35-1.51-3.38-2.37-4.55-.69-.98-1.18-.98-2.2-1.17-.64-.12-1.55-.31-1.55-1.35s1.02-1.04,1.82-1.04c2.36,0,4.83.12,7.18.12,2.04,0,4.19-.12,6.28-.12.69,0,1.93,0,1.93,1.04,0,.92-.75,1.17-1.4,1.35-.69.19-2.09.24-2.09,1.48,0,.74.58,2.09.86,2.71l3.97,9.45c.16.31.69,1.91,1.13,1.91.53,0,1.02-1.54,1.12-1.97l3.54-9.22Z"/>
    <path class="cls-1" d="m294.18,357.55c-.11,2.03-.05,2.83-1.72,3.93-3,2.09-6.81,2.83-10.3,2.83-4.72,0-10.24-1.23-14.11-4.55-4.08-3.5-6.81-9.34-6.81-15.24s2.68-11.62,6.92-15.24c4.18-3.51,9.93-5.16,15.07-5.16,2.52,0,5.58.49,8.05,1.29,1.44.49,1.44.73,1.71,2.46l.43,3.14c.11.62.22,1.17.22,1.78,0,.68-.43,1.05-1.02,1.05-2.47,0-2.63-7.31-9.87-7.31-3.54,0-6.81,2.27-8.85,5.53-2.09,3.37-2.95,7.87-2.95,11.92s.8,8.42,2.68,11.8c2.04,3.62,5.26,6.15,9.12,6.15,2.09,0,4.02-.87,5.63-2.34,1.61-1.53,2.57-3.56,3.54-5.65.27-.68.65-1.29,1.35-1.29,1.18,0,1.13,1.41,1.07,2.34l-.16,2.58Z"/>
    <path class="cls-1" d="m296.22,349.32c0-8.98,7.78-14.69,15.18-14.69,3.59,0,7.13,1.11,9.97,3.57,2.95,2.52,4.93,6.45,4.93,10.63,0,9.28-7.56,15.12-15.33,15.12s-14.75-5.4-14.75-14.62m21.51.98c0-2.82-.54-6.45-1.66-8.97-.97-2.21-2.84-4.61-5.2-4.61-4.62,0-6.01,6.82-6.01,10.95,0,4.54,1.72,14.19,7.08,14.19,4.72,0,5.79-7.5,5.79-11.55"/>
    <path class="cls-1" d="m355.91,357c-.06,1.59.91,1.96,2.41,2.15.53.05,1.02.24,1.02.99,0,1.05-1.82,1.35-2.47,1.48l-5.57,1.84c-.54.18-1.66.74-2.25.74-.96,0-.64-1.6-.64-2.27,0-.37.22-2.22-.48-2.22-.32,0-.8.44-1.01.61-2.42,2.04-4.84,3.63-7.89,3.63-2.15,0-4.67-.99-6.06-2.95-1.5-2.15-1.72-4.98-1.72-7.62v-9.84c0-1.1.11-3.57-.48-4.61-.59-1.05-1.66-1.11-2.68-1.36-.6-.12-1.24-.43-1.24-1.29,0-1.05.91-.99,1.61-.99,1.66,0,3.28.12,4.94.12s3.27-.12,4.93-.12c.69,0,.86.12.86.99v16.53c0,1.41.16,3.57.81,4.8.64,1.23,1.93,1.91,3.16,1.91,1.39,0,3.05-.99,4.02-2.09.97-1.1.81-2.27.81-3.75v-10.08c0-1.16.16-3.63-.43-4.67-.59-.99-1.67-1.17-2.68-1.36-.59-.12-1.23-.43-1.23-1.23,0-1.11.91-1.04,1.6-1.04,1.67,0,3.33.12,5,.12s3.32-.12,4.98-.12c.97,0,.69,1.23.69,2.09v19.61Z"/>
    <path class="cls-1" d="m372.59,338.8c.86,0,3.54-4.18,8.8-4.18,2.41,0,4.82.74,6.75,2.52,2.25,2.09,2.2,4.67,2.2,7.68v10.26c0,1.48-.21,3.75.53,4.92.54.8,1.72.86,2.52,1.04.59.13,1.29.5,1.29,1.35,0,1.05-.96,1.11-1.67,1.11-1.93,0-3.75-.12-5.68-.12-2.47,0-4.93.12-7.4.12-.59,0-1.24-.18-1.24-1.11,0-.8.48-1.17,1.08-1.35.81-.24,1.72-.43,2.26-1.35.53-.91.37-3.43.37-4.6v-9.03c0-1.6-.16-3.93-.91-5.35-.75-1.41-2.2-2.21-3.65-2.21s-2.95.74-4.02,1.79c-1.45,1.41-1.24,2.7-1.24,4.79v10.02c0,1.17-.15,3.69.38,4.6.54.93,1.44,1.11,2.25,1.35.6.19,1.08.56,1.08,1.35,0,.92-.64,1.11-1.23,1.11-2.47,0-4.93-.12-7.4-.12-1.93,0-3.76.12-5.68.12-.7,0-1.67-.06-1.67-1.11,0-.86.7-1.22,1.29-1.35.8-.18,1.98-.24,2.52-1.04.75-1.17.53-3.44.53-4.92v-9.03c0-2.58.16-4-2.36-4.36-.75-.07-1.6,0-1.6-1.04,0-1.11,1.71-1.3,2.3-1.48,2.31-.68,5.26-2.15,6.92-4.18.32-.43.8-1.11,1.94-1.11.85,0,.75,1.6.75,2.21v2.7Z"/>
    <path class="cls-1" d="m410.09,336.9c-1.61,0-3.32,1.41-4.29,2.7-1.55,2.03-2.3,4.98-2.3,7.63,0,6.26,3.81,12.54,9.82,12.54,3.91,0,5.09-2.27,6.11-2.27.37,0,.65.43.65.73,0,1.42-1.55,2.52-2.41,3.2-2.48,1.72-5.37,2.52-8.21,2.52-7.88,0-14.32-5.59-14.32-14.74s8.86-14.57,16.31-14.57c2.09,0,4.72.49,6.54,1.66,1.13.61,1.56,1.22,1.56,2.57,0,1.48-.49,5.6-2.26,5.6s-2.52-2.09-3.21-3.44c-.97-1.84-1.77-4.12-3.97-4.12"/>
    <path class="cls-1" d="m434.17,355.09c0,1.41-.16,3.63.21,4.92.28.93,1.93.86,2.9,1.04.6.13,1.29.49,1.29,1.3,0,1.05-.96,1.16-1.66,1.16-2.24,0-4.51-.11-6.76-.11s-4.4.11-6.65.11c-.69,0-1.61-.11-1.61-1.16,0-.8.64-1.17,1.28-1.3.75-.12,2.42-.18,2.68-1.04.38-1.29.38-3.5.38-4.92v-9.03c0-2.58.16-3.99-2.36-4.36-.75-.07-1.61,0-1.61-1.04,0-1.11,1.72-1.29,2.31-1.48,2.31-.68,5.26-2.15,6.92-4.18.33-.43.81-1.11,1.94-1.11.86,0,.75,1.6.75,2.21v18.99Zm-8.8-28.02c0-2.95,2.41-4.73,4.77-4.73s4.72,1.66,4.72,4.67-2.25,5.04-4.83,5.04-4.67-1.9-4.67-4.97"/>
    <path class="cls-1" d="m451.34,358.35c0,.18,0,2.27,2.94,2.7.7.13,1.72.31,1.72,1.42,0,.93-.54,1.04-1.24,1.04-2.57,0-5.05-.12-7.5-.12-2.58,0-5.16.12-7.73.12-.75,0-1.29-.12-1.29-1.04,0-1.11.8-1.29,1.45-1.42,3.27-.43,3.27-2.52,3.27-2.7v-28.64c0-3.38.16-4-2.85-4.49-.43-.06-1.08-.25-1.08-.92,0-1.17,1.56-1.29,2.31-1.42,2.47-.37,4.72-1.22,7.08-2.21.54-.24,1.39-.68,1.99-.68,1.18,0,.91,2.09.91,2.96v35.4Z"/>
  </g>
</svg>