<?xml version="1.0" encoding="UTF-8"?>
<svg id="layer_1" data-name="layer 1" xmlns="http://www.w3.org/2000/svg" viewBox="0 0 284.86 57.87">
  <defs>
    <style>
      .cls-1 {
        fill: #f3581a;
      }

      .cls-2 {
        fill: #e5e5e5;
      }

      .cls-3 {
        fill: #27968e;
      }

      .cls-4 {
        fill: #de5018;
      }

      .cls-4, .cls-5 {
        fill-rule: evenodd;
      }

      .cls-5 {
        fill: #bd4315;
      }
    </style>
  </defs>
  <rect class="cls-3" x="141.29" y="-5.74" width="1.4" height="62.26" transform="translate(94.36 161.54) rotate(-80.85)"/>
  <rect class="cls-3" x="110.38" y="36.56" width="63.12" height="1.4" transform="translate(-4.72 32.1) rotate(-12.69)"/>
  <polygon class="cls-1" points="220.28 29.63 212.54 23.46 218.7 23.46 233.59 29.64 220.28 29.63"/>
  <polygon class="cls-1" points="189.88 26.03 175.46 0 169.3 0 175.31 28 189.88 26.03"/>
  <path class="cls-2" d="m265.68,29.34c-13.61,0-60.58-.02-60.58-.02l-15.61-4-.22.62-16.54,2.07v5.02s26.06,11.86,31.64,13.12c5.58,1.26,43.97,1.27,56,1.28,12.03,0,24.49-3.22,24.49-7.35,0,0-5.58-10.72-19.19-10.73Z"/>
  <polygon class="cls-1" points="176.27 31.59 169.29 45.76 174.16 45.76 188.91 30.34 176.27 31.59"/>
  <path class="cls-3" d="m280.1,34.5h-8.58s.46,1.88,10.6,1.89c0,0-.52-.62-1.05-1.05-.37-.3-.97-.83-.97-.83Z"/>
  <polygon class="cls-3" points="184.03 38.05 264.04 38.08 267.45 41.09 191.03 41.06 184.03 38.05"/>
  <path class="cls-1" d="m218.7,39.66l-15.76,17.31h8.74s29.8-17.3,29.8-17.3c0,0-12.74-4.13-22.77,0Z"/>
  <g>
    <g>
      <g>
        <g>
          <path class="cls-3" d="m261.43,35.32c0,.59-.38,1.06-.85,1.06h0c-.47,0-.85-.48-.85-1.06v-1.23c0-.59.38-1.06.85-1.06h0c.47,0,.85.48.85,1.06v1.23Z"/>
          <path class="cls-3" d="m257.73,35.32c0,.59-.38,1.06-.85,1.06h0c-.47,0-.85-.48-.85-1.06v-1.23c0-.59.38-1.06.85-1.06h0c.47,0,.85.48.85,1.06v1.23Z"/>
        </g>
        <g>
          <path class="cls-3" d="m254.03,35.31c0,.59-.38,1.06-.85,1.06h0c-.47,0-.85-.48-.85-1.06v-1.23c0-.59.38-1.06.85-1.06h0c.47,0,.85.48.85,1.06v1.23Z"/>
          <path class="cls-3" d="m250.33,35.31c0,.59-.38,1.06-.85,1.06h0c-.47,0-.85-.48-.85-1.06v-1.23c0-.59.38-1.06.85-1.06h0c.47,0,.85.48.85,1.06v1.23Z"/>
        </g>
      </g>
      <g>
        <g>
          <path class="cls-3" d="m246.64,35.31c0,.59-.38,1.06-.85,1.06h0c-.47,0-.85-.48-.85-1.06v-1.23c0-.59.38-1.06.85-1.06h0c.47,0,.85.48.85,1.06v1.23Z"/>
          <path class="cls-3" d="m242.94,35.31c0,.59-.38,1.06-.85,1.06h0c-.47,0-.85-.48-.85-1.06v-1.23c0-.59.38-1.06.85-1.06h0c.47,0,.85.48.85,1.06v1.23Z"/>
        </g>
        <g>
          <path class="cls-3" d="m239.24,35.31c0,.59-.38,1.06-.85,1.06h0c-.47,0-.85-.48-.85-1.06v-1.23c0-.59.38-1.06.85-1.06h0c.47,0,.85.48.85,1.06v1.23Z"/>
          <path class="cls-3" d="m235.55,35.31c0,.59-.38,1.06-.85,1.06h0c-.47,0-.85-.48-.85-1.06v-1.23c0-.59.38-1.06.85-1.06h0c.47,0,.85.48.85,1.06v1.23Z"/>
        </g>
      </g>
    </g>
    <g>
      <g>
        <g>
          <path class="cls-3" d="m231.85,35.31c0,.59-.38,1.06-.85,1.06h0c-.47,0-.85-.48-.85-1.06v-1.23c0-.59.38-1.06.85-1.06h0c.47,0,.85.48.85,1.06v1.23Z"/>
          <path class="cls-3" d="m228.15,35.3c0,.59-.38,1.06-.85,1.06h0c-.47,0-.85-.48-.85-1.06v-1.23c0-.59.38-1.06.85-1.06h0c.47,0,.85.48.85,1.06v1.23Z"/>
        </g>
        <g>
          <path class="cls-3" d="m224.45,35.3c0,.59-.38,1.06-.85,1.06h0c-.47,0-.85-.48-.85-1.06v-1.23c0-.59.38-1.06.85-1.06h0c.47,0,.85.48.85,1.06v1.23Z"/>
          <path class="cls-3" d="m220.76,35.3c0,.59-.38,1.06-.85,1.06h0c-.47,0-.85-.48-.85-1.06v-1.23c0-.59.38-1.06.85-1.06h0c.47,0,.85.48.85,1.06v1.23Z"/>
        </g>
      </g>
      <g>
        <g>
          <path class="cls-3" d="m217.06,35.3c0,.59-.38,1.06-.85,1.06h0c-.47,0-.85-.48-.85-1.06v-1.23c0-.59.38-1.06.85-1.06h0c.47,0,.85.48.85,1.06v1.23Z"/>
          <path class="cls-3" d="m213.36,35.3c0,.59-.38,1.06-.85,1.06h0c-.47,0-.85-.48-.85-1.06v-1.23c0-.59.38-1.06.85-1.06h0c.47,0,.85.48.85,1.06v1.23Z"/>
        </g>
        <g>
          <path class="cls-3" d="m209.67,35.3c0,.59-.38,1.06-.85,1.06h0c-.47,0-.85-.48-.85-1.06v-1.23c0-.59.38-1.06.85-1.06h0c.47,0,.85.48.85,1.06v1.23Z"/>
          <path class="cls-3" d="m205.97,35.29c0,.59-.38,1.06-.85,1.06h0c-.47,0-.85-.48-.85-1.06v-1.23c0-.59.38-1.06.85-1.06h0c.47,0,.85.48.85,1.06v1.23Z"/>
        </g>
      </g>
    </g>
  </g>
  <g>
    <polygon class="cls-4" points="0 32.76 39.33 32.76 39.33 57.87 0 57.87 9.71 44.88 0 32.76"/>
    <polygon class="cls-5" points="22.89 19.77 39.33 32.76 39.33 57.87 22.89 44.88 22.89 19.77"/>
    <rect class="cls-1" x="22.89" y="19.77" width="88.47" height="25.11"/>
  </g>
</svg>