<?xml version="1.0" encoding="utf-8"?>
<!-- Generator: Adobe Illustrator 27.2.0, SVG Export Plug-In . SVG Version: 6.00 Build 0)  -->
<svg version="1.1" id="Layer_1" xmlns="http://www.w3.org/2000/svg" xmlns:xlink="http://www.w3.org/1999/xlink" x="0px" y="0px"
	 viewBox="0 0 270.7 181.4" style="enable-background:new 0 0 270.7 181.4;" xml:space="preserve">
<style type="text/css">
	.st0{fill:#FFFFFF;}
</style>
<g>
	<path class="st0" d="M67.3,58.3c0.3,0.5,0.5,1.1,0.6,1.7c0.8,3.2,1.7,4.8,3.2,7.6c3.9,7.3,16.7,4.2,17.1,17.1
		c0.2,5.1-1.7,7.8-5,10.4l0.4,0.8l-0.5,0.8H46.7l-0.7-0.9l0.5-0.6c-3.4-2.6-5.3-5.3-5.1-10.4c0.4-12.9,13.3-9.8,17.1-17.1
		c1.5-2.8,2.4-4.5,3.2-7.6c0.4-1.6,1.2-2.9,3.1-2.9C66.1,57.1,66.9,57.6,67.3,58.3 M135.3,18.3c-1.5-0.4-2.8-1.6-2.8-2.8
		c0.1-2,1.4-5.3,2.8-5.1c1.3-0.1,2.9,3.1,3,5.2C138.3,16.8,136.9,18,135.3,18.3 M135.4,0c0.1,0.4,0.3,0.6,0.4,1
		c0.1,0.3,0.3,0.5,0.3,0.8c-0.1,0.4-0.3,0.7-0.7,0.8c-0.4-0.1-0.7-0.4-0.7-0.8c0-0.3,0.2-0.5,0.3-0.8C135.2,0.6,135.3,0.4,135.4,0
		 M135.4,25.3c-0.6,0-1.2-0.6-1.3-1c-0.1-0.2-0.3-0.2-0.5-0.2v-0.3h0.5c0.1-0.6,0.7-1,1.3-1c0.6,0,1.2,0.4,1.3,1h0.5V24
		c-0.3,0-0.5,0.1-0.5,0.2C136.6,24.7,136.1,25.3,135.4,25.3 M135.3,22.4c-0.8,0-1.3-0.7-1.6-1.5c-0.1-0.3-1.1-0.2-1.6-0.2V20h1.4
		c0.3-0.8,1-1.2,1.9-1.2c0.8,0,1.5,0.5,1.7,1.3l1.5,0v0.6c-0.5,0-1.5-0.2-1.6,0.2C136.8,21.6,136.2,22.4,135.3,22.4 M118.8,65.9
		c0.4,1.2,3.1,3.3,3,6.7c-0.1,3.2-2.5,5.4-3.2,6.5c-0.7-1.2-3-3.1-3.1-6.3C115.5,69.4,118.5,67.1,118.8,65.9 M159.3,66
		c-0.2,1.1-3.2,3.2-3.2,6.6c0.1,3.1,2.5,5.2,3,6.3c0.5-1.1,2.8-3.4,2.8-6.5C162.1,69.1,159.5,67.2,159.3,66 M165.5,66.3
		c-0.2,1.1-2.4,3.1-2.4,6.3c0.1,2.9,1.8,5,2.3,6.1c0.5-1.1,2.2-3.2,2.2-6.1C167.7,69.4,165.7,67.4,165.5,66.3 M126.4,67.1
		c-1.3,1.6-2.8,3.1-2.7,5.3c0,2.4,1.4,4.1,2.8,5.8c1.5-1.8,3.1-3.4,3.2-5.8c0-2.6-1.5-3.9-2.8-5.8C126.6,66.8,126.5,66.9,126.4,67.1
		 M151.9,65.9c-0.4,1.2-4,3.5-3.9,6.9c0.1,3.2,3,5.2,3.7,6.3c0.7-1.2,3.2-3.1,3.3-6.3C155.1,69.4,152.2,67.1,151.9,65.9 M143.2,65.8
		c-0.4,1.2-3.8,3.2-3.8,6.6c0.1,3.1,2.9,5.4,3.6,6.5c0.7-1.1,3.8-3.2,3.8-6.3C147,69.2,143.5,67,143.2,65.8 M134.6,65.5
		c-0.4,1.2-4.1,3.3-4,6.7c0.1,3.2,3,5.4,3.8,6.6c0.8-1.2,3.7-3.4,3.8-6.6C138.3,68.8,135,66.6,134.6,65.5 M111.4,66
		c0.2,1.1,3.1,3.3,3.1,6.6c-0.1,3.1-2.4,5.1-2.9,6.2c-0.5-1.1-2.5-3.4-2.6-6.5C108.9,69.1,111.2,67.2,111.4,66 M135.7,4.7
		c0.1,0.7,0.4,1.1,0.9,1.6c0.3,0.2,0.4,0.3,0.7,0.4h0.6L138,7c-0.4,0.1-0.7,0.3-0.8,0.5c-0.4,0.9-0.6,2.5-1.8,2.5
		c-1.2,0-1.4-1.7-1.8-2.5c-0.1-0.2-0.4-0.4-0.8-0.5l0.1-0.4h0.6c0.3-0.1,0.5-0.2,0.7-0.4c0.5-0.4,0.8-0.9,0.9-1.5
		c-0.3-0.1-0.6-0.4-0.6-0.6c0-0.1-0.2-0.1-0.3-0.1V3.7h0.4c0.1-0.4,0.4-0.7,0.9-0.7c0.4,0,0.7,0.2,0.9,0.7h0.4V4
		c-0.2,0-0.3,0-0.3,0.1C136.2,4.3,136,4.6,135.7,4.7 M135.4,96.6h-30.7l-0.9-0.8l0.8-0.7v-6.3h0.8c0.5,0,1,0.5,0.9,1
		c0,0.5-0.4,0.8-0.8,0.9l2,3.4v-4h1v-0.2c-3.7-5.4-6.5-10-6.3-17.4c0.5-14.4,7-21.9,18.7-27.9c1.3-0.7,3.9-1.9,4.9-2.9
		c3.9-4.1,6.3-6.2,6.7-12.5c0.1-1.8,1.1-3.5,2.9-3.5c1.8,0,2.8,1.8,2.9,3.5c0.4,6.3,2.8,8.4,6.7,12.5c1,1,3.6,2.3,4.9,2.9
		c11.7,6,18.2,13.5,18.7,27.9c0.2,7.4-2.6,12.1-6.3,17.4v0.2h1v4l2-3.4c-0.4-0.2-0.8-0.4-0.8-0.9c0-0.5,0.4-1,0.9-1h0.8v6.3l0.8,0.7
		l-0.9,0.8H135.4z M198.1,95c-0.4-0.9-1-1.9-1.3-3.1c-0.9-2.9-1.4-4.8-1-7.8c0.5-3.9,3-5.5,4.7-9c1.7-3.4,3-5.2,4.1-8.8
		c0.9-3.1,1.3-5.3,1.4-8.2c-0.2,0-0.6,0-1.2,0.7c-0.7,0.7-1.8,5.4-3.4,8.5c-1.2,2.4-2.2,3.6-4.3,5.3c-3.5,2.9-7.8,3.8-9.3,6.4
		c-1.4,2.3-1.9,4-1.5,6.6c0.5,3.5,2.4,5.2,5.1,7.4c1.1,0.9,2.2,1.6,3.2,2.1H198.1z M208.3,58.3c0.3,0.5,0.5,1.1,0.6,1.7
		c0.8,3.2,1.7,4.8,3.2,7.6c3.9,7.3,16.7,4.2,17.1,17.1c0.2,5.1-1.7,7.8-5,10.4l0.4,0.8l-0.5,0.8h-36.5l-0.7-0.9l0.5-0.6
		c-3.4-2.6-5.3-5.3-5.1-10.4c0.4-12.9,13.3-9.8,17.1-17.1c1.5-2.8,2.4-4.5,3.2-7.6c0.4-1.6,1.2-2.9,3.1-2.9
		C207.1,57.1,207.8,57.6,208.3,58.3 M46.8,98.5h177.1c1.6,0,1.6,2.3,0,2.3H46.8C45.3,100.8,45.3,98.5,46.8,98.5 M97.7,33.4v5.8h0.5
		v-5.8c0,0-0.1-0.3-0.2-0.3C97.8,33.1,97.7,33.4,97.7,33.4 M95.1,33.4v5.8h1.1v-5.8c-0.1-0.2-0.3-0.3-0.6-0.3
		C95.3,33.1,95.2,33.2,95.1,33.4 M94,46.3l-0.9,0.1v27.4H94L94,46.3z M92.5,33.4v5.7h1.1v-5.7c-0.1-0.2-0.3-0.3-0.5-0.3
		C92.8,33.2,92.7,33.3,92.5,33.4 M88.8,96.6l-0.7-0.8l0.5-0.8v-6.2h0.6c0.5,0,1,0.4,1,1c0,0.5-0.3,0.9-0.8,1l1.4,3V83.3l0.9-1v-2.4
		c0-1.8,1.4-2.6,1.3-3.2c-0.1-0.8-0.5-1.4-0.9-2.1V46.4c0.4-0.9,0.9-1.7,1.7-2.3v-0.9c-1.2-0.3-1.8-0.7-2.3-1.8
		c-0.5-1-1.3-1.1-2.3-0.9v-1.1h2.2v-6.2h-2v-1h2.1l0.3-0.7h0.4C92.1,31,92,30.6,92.1,30c0.1-1.6,1.3-2.2,2.2-3.3
		c0.5-0.6,0.7-1,1-1.6c-0.3-0.1-0.6-0.3-0.8-0.7c-0.1,0-0.3,0-0.3,0v-0.6h0.4c0.1-0.4,0.5-0.6,0.9-0.6c0.4,0,0.7,0.2,0.9,0.6h0.4
		v0.6c0,0-0.3,0-0.3,0c-0.1,0.4-0.4,0.6-0.8,0.7c0.3,0.6,0.5,1,1,1.6c0.8,1.1,2.1,1.7,2.2,3.3c0,0.5-0.1,1-0.2,1.4h0.4l0.3,0.7h2.1
		v1h-2v6.2h2.2v1.1c-1-0.2-1.8,0-2.3,0.9c-0.5,1-1.1,1.5-2.3,1.8v0.9c0.8,0.6,1.3,1.4,1.7,2.3v28.2c-0.4,0.7-0.8,1.3-0.9,2.1
		c-0.1,0.6,1.3,1.4,1.3,3.2v2.4l0.9,1v10.5l1.4-3c-0.5-0.1-0.8-0.5-0.8-1c0-0.5,0.4-1,1-1h0.6V95l0.5,0.8l-0.7,0.8H88.8z M95.9,21.5
		c0.1,0.3,0.3,0.4,0.2,0.7c-0.1,0.4-0.3,0.7-0.7,0.8c-0.6-0.1-0.9-0.7-0.7-1.2c0.3-0.5,0.5-1.1,0.7-1.6
		C95.5,20.6,95.7,21.1,95.9,21.5 M177.7,33.4v5.8h0.6v-5.8c0,0-0.1-0.3-0.2-0.3C177.8,33.1,177.7,33.4,177.7,33.4 M175,33.4v5.8h1.1
		v-5.8c-0.1-0.2-0.3-0.3-0.6-0.3C175.3,33.1,175.2,33.2,175,33.4 M174,46.3l-0.8,0.1v27.4h0.9L174,46.3z M175.5,90
		c0-0.5,0.4-0.9,0.8-1c0,0,0.1,0,0.1-0.3c0-0.2-0.1-0.3-0.1-0.3h-1.8c-0.5,0-1.1,1-1.1,1.8c0,0.4,0.1,0.8,0.4,1l-1.7,3.8l0.1,0.2h2
		l1.7-3.8c0,0,0.1-0.1,0-0.2c0-0.1,0-0.2-0.1-0.2C175.6,90.6,175.5,90.3,175.5,90 M172.5,33.4v5.7h1.1v-5.7
		c-0.1-0.2-0.3-0.3-0.5-0.3C172.8,33.2,172.6,33.3,172.5,33.4 M168.8,96.6l-0.7-0.8l0.5-0.8v-6.2h0.6c0.5,0,1,0.4,1,1
		c0,0.5-0.3,0.9-0.8,1l1.4,3V83.3l0.9-1v-2.4c0-1.8,1.4-2.6,1.3-3.2c-0.1-0.8-0.5-1.4-0.9-2.1V46.4c0.4-0.9,0.9-1.7,1.7-2.3v-0.9
		c-1.2-0.3-1.8-0.7-2.3-1.8c-0.5-1-1.3-1.1-2.3-0.9v-1.1h2.2v-6.2h-2.1v-1h2.1l0.3-0.7h0.4c-0.1-0.4-0.2-0.9-0.2-1.4
		c0.1-1.6,1.3-2.2,2.2-3.3c0.5-0.6,0.7-1,1-1.6c-0.3-0.1-0.6-0.3-0.8-0.7c-0.1,0-0.3,0-0.3,0v-0.6h0.4c0.1-0.4,0.5-0.6,0.9-0.6
		c0.4,0,0.7,0.2,0.9,0.6h0.4v0.6c0,0-0.3,0-0.3,0c-0.1,0.4-0.4,0.6-0.8,0.7c0.3,0.6,0.5,1,1,1.6c0.8,1.1,2.1,1.7,2.2,3.3
		c0,0.5-0.1,1-0.2,1.4h0.4l0.3,0.7h2.1v1h-2v6.2h2.2v1.1c-1-0.2-1.8,0-2.3,0.9c-0.5,1-1.1,1.5-2.3,1.8v0.9c0.8,0.6,1.3,1.4,1.7,2.3
		v28.2c-0.4,0.7-0.8,1.3-0.9,2.1c-0.1,0.6,1.3,1.4,1.3,3.2v2.4l0.9,1v10.5l1.4-3c-0.5-0.1-0.8-0.5-0.8-1c0-0.5,0.4-1,1-1h0.6V95
		l0.5,0.8l-0.7,0.8H168.8z M175.9,21.5c0.1,0.3,0.3,0.4,0.2,0.7c-0.1,0.4-0.3,0.7-0.7,0.8c-0.6-0.1-0.9-0.7-0.6-1.2
		c0.3-0.5,0.5-1.1,0.6-1.6C175.5,20.6,175.7,21.1,175.9,21.5 M206.7,56.9c-0.4,0-0.8,0.1-0.8,0.1s-0.4,0-0.8-0.1
		c-0.6-0.1-1.1-0.1-1.7-0.3l-0.2-0.9c0.9-0.7,1.5-1,2.7-1c1.1,0,1.7,0.3,2.6,1.1l-0.2,0.9C207.8,56.7,207.2,56.8,206.7,56.9
		 M205.9,40.2c0.6,0,1.1,0.5,1.1,1.1c0,0.6-0.5,1.1-1.1,1.1c-0.6,0-1.1-0.5-1.1-1.1C204.8,40.7,205.3,40.2,205.9,40.2 M208.2,45.3
		c-0.2,0.7-1,1.7-2.3,1.8c-1.3,0-2.1-1-2.3-1.8c-0.1-0.3-0.5-0.4-0.9-0.4v-0.6h0.9c0.2-1.1,1.1-1.8,2.3-1.8c1.1,0,2,0.7,2.3,1.8h0.9
		v0.6C208.6,44.9,208.3,45,208.2,45.3 M206.6,38.1c-0.1-0.4-0.3-0.6-0.4-1l-0.4-1.1c-0.3,0.8-0.5,1.6-0.9,2.4
		c-0.4,0.7,0.1,1.6,0.9,1.8c0.6-0.1,1-0.5,1.1-1.1C207,38.6,206.8,38.5,206.6,38.1 M204.4,50.5c0-0.6,0.4-3.3,1.5-3.3
		c1,0,1.4,2.6,1.4,3.2C207.3,52.4,204.4,52.5,204.4,50.5 M207.8,53.3c0,0.9-1.1,1.3-1.9,1.3c-0.9,0-1.9-0.4-1.9-1.3
		c0-0.9,1.1-1.3,1.9-1.3C206.7,52,207.8,52.4,207.8,53.3 M65.7,56.9c-0.5,0-0.8,0.1-0.8,0.1s-0.4,0-0.8-0.1
		c-0.6-0.1-1.1-0.1-1.7-0.3l-0.2-0.9c0.9-0.7,1.5-1,2.7-1c1.1,0,1.7,0.3,2.6,1.1l-0.2,0.9C66.9,56.7,66.3,56.8,65.7,56.9 M65,40.2
		c0.6,0,1.1,0.5,1.1,1.1c0,0.6-0.5,1.1-1.1,1.1c-0.6,0-1.1-0.5-1.1-1.1C63.9,40.7,64.3,40.2,65,40.2 M67.3,45.3
		C67,46,66.2,47,65,47.1c-1.3,0-2.1-1-2.3-1.8c-0.1-0.3-0.5-0.4-0.9-0.4v-0.6h0.9c0.2-1.1,1.1-1.8,2.3-1.8c1.1,0,2,0.7,2.3,1.8h0.9
		v0.6C67.7,44.9,67.4,45,67.3,45.3 M65.7,38.1c-0.1-0.4-0.3-0.6-0.4-1L65,36c-0.3,0.8-0.5,1.6-0.9,2.4c-0.4,0.7,0.1,1.6,0.9,1.8
		c0.6-0.1,1-0.5,1.1-1.1C66.1,38.6,65.8,38.5,65.7,38.1 M63.5,50.5c0-0.6,0.4-3.3,1.5-3.3c1,0,1.4,2.6,1.4,3.2
		C66.4,52.4,63.5,52.5,63.5,50.5 M66.9,53.3c0,0.9-1.1,1.3-1.9,1.3c-0.9,0-1.9-0.4-1.9-1.3c0-0.9,1.1-1.3,1.9-1.3
		C65.8,52,66.9,52.4,66.9,53.3 M57.2,94.8c-0.4-0.9-1-1.8-1.3-2.9c-0.9-2.9-1.4-4.8-1-7.8c0.5-3.9,3-5.5,4.7-9
		c1.7-3.4,3-5.2,4.1-8.8c0.9-3.1,1.3-5.3,1.4-8.2c-0.2,0-0.6,0-1.2,0.7c-0.7,0.7-1.8,5.4-3.4,8.5c-1.2,2.4-2.2,3.6-4.3,5.3
		c-3.5,2.9-7.8,3.8-9.3,6.4c-1.4,2.3-1.9,4-1.5,6.6c0.5,3.5,2.4,5.2,5.1,7.4c1.1,0.9,2.2,1.4,3.2,1.9H57.2z M159.3,90
		c0-0.5,0.4-0.9,0.8-1c0,0,0.1,0,0.1-0.3c0-0.2-0.1-0.3-0.1-0.3h-1.8c-0.5,0-1.1,1-1.1,1.8c0,0.4,0.1,0.8,0.4,1l-1.7,3.8l0.1,0.2h2
		l1.7-3.8c0,0,0.1-0.1,0.1-0.2c0-0.1,0-0.2-0.1-0.2C159.4,90.6,159.3,90.3,159.3,90 M153.3,90c0-0.5,0.4-0.9,0.8-1
		c0,0,0.1,0,0.1-0.3c0-0.2-0.1-0.3-0.1-0.3h-1.8c-0.5,0-1.1,1-1.1,1.8c0,0.4,0.1,0.8,0.4,1l-1.7,3.8l0.1,0.2h2l1.7-3.8
		c0,0,0-0.1,0-0.2c0-0.1,0-0.2-0.1-0.2C153.4,90.6,153.3,90.3,153.3,90 M147.3,90c0-0.5,0.4-0.9,0.8-1c0,0,0.1,0,0.1-0.3
		c0-0.2-0.1-0.3-0.1-0.3h-1.8c-0.5,0-1.1,1-1.1,1.8c0,0.4,0.1,0.8,0.4,1l-1.7,3.8l0.1,0.2h2l1.7-3.8c0,0,0.1-0.1,0.1-0.2
		c0-0.1,0-0.2-0.1-0.2C147.5,90.6,147.3,90.3,147.3,90 M141.3,90c0-0.5,0.4-0.9,0.8-1c0,0,0.1,0,0.1-0.3c0-0.2-0.1-0.3-0.1-0.3h-1.8
		c-0.5,0-1.1,1-1.1,1.8c0,0.4,0.1,0.8,0.4,1l-1.7,3.8l0.1,0.2h2l1.7-3.8c0,0,0.1-0.1,0-0.2c0-0.1,0-0.2-0.1-0.2
		C141.5,90.6,141.3,90.3,141.3,90 M135.3,90c0-0.5,0.4-0.9,0.8-1c0,0,0.1,0,0.1-0.3c0-0.2-0.1-0.3-0.1-0.3h-1.8
		c-0.5,0-1.1,1-1.1,1.8c0,0.4,0.1,0.8,0.4,1l-1.7,3.8l0.1,0.2h2l1.7-3.8c0,0,0.1-0.1,0.1-0.2c0-0.1,0-0.2-0.1-0.2
		C135.5,90.6,135.3,90.3,135.3,90 M95.8,90c0-0.5,0.4-0.9,0.8-1c0,0,0.1,0,0.1-0.3c0-0.2-0.1-0.3-0.1-0.3h-1.8c-0.5,0-1.1,1-1.1,1.8
		c0,0.4,0.1,0.8,0.4,1l-1.7,3.8l0.1,0.2h2l1.7-3.8c0,0,0.1-0.1,0.1-0.2c0-0.1,0-0.2-0.1-0.2C96,90.6,95.8,90.3,95.8,90 M129.4,90
		c0-0.5,0.4-0.9,0.8-1c0,0,0.1,0,0.1-0.3c0-0.2-0.1-0.3-0.1-0.3h-1.8c-0.4-1.4-0.8-2.7-1.2-4.1c-0.5-1.7-0.8-3.1-1-4.5
		c-1.6-2.4-3.5-4-3.6-7.2c-0.1-2.5,1.4-4.1,2.9-5.9c0.7-0.9,0.6-1,1-2.2c0,0,0.6-2.1,0.9-3.6c1.4-5.6,3.8-8.3,5.5-13.9
		c1.4-4.7,2.3-7.3,2.7-12.2c0.2-2.8,0.2-4.6-0.1-7.2l-0.1-0.3c-1.2-0.1-1.3,1.2-1.4,2.1c-0.4,6.7-2.9,9.1-7.1,13.5
		c-1.2,1.3-3.8,2.4-5.3,3.2c-6.9,3.5-11.8,7.5-14.8,13.2c-0.5,1.1-0.9,2.5-1.2,3.9c-0.2,1.1-0.3,2-0.4,2.9c-0.7,1.4,2.2,3,2.6,6.2
		c0.3,2.9-0.4,4.3-0.9,5.4c0.1,0.2,3.6,6.1,7.2,9.5c0.6,0.6,1.2,1,1.8,1.5c-0.3,0.4-0.5,0.9-0.5,1.4c0,0.4,0.1,0.8,0.4,1l-1.7,3.8
		l0.1,0.2h2l1.7-3.8c0,0,0.1-0.1,0-0.2c0-0.1,0-0.2-0.1-0.2c-0.3-0.2-0.4-0.5-0.4-0.8c0-0.4,0.3-0.8,0.7-1c0.3,0.2,0.5,0.5,0.5,0.9
		c0,0.1,0,0.3-0.1,0.4h2.8c0,0.3,0.2,0.6,0.4,0.8l-0.3,0.8l-1.7,3.2l0.5,0h2l1.7-3.8c0,0,0.1-0.1,0.1-0.2c0-0.1,0-0.2-0.1-0.2
		c-0.3-0.2-0.4-0.5-0.4-0.8c0-0.5,0.3-0.9,0.7-1c0.3,0.2,0.5,0.5,0.5,0.9c0,0.1,0,0.3-0.1,0.4h2.7c0,0.3,0.2,0.6,0.4,0.8l-0.3,0.8
		l-1.7,3.2l0.5,0h2l1.7-3.8c0,0,0.1-0.1,0-0.2c0-0.1,0-0.2-0.1-0.2C129.5,90.6,129.4,90.3,129.4,90 M111.8,90c0-0.5,0.4-0.9,0.8-1
		c0,0,0.1,0,0.1-0.3c0-0.2-0.1-0.3-0.1-0.3h-1.8c-0.5,0-1.1,1-1.1,1.8c0,0.4,0.1,0.8,0.4,1l-1.7,3.8l0.1,0.2h2l1.7-3.8
		c0,0,0.1-0.1,0-0.2c0-0.1,0-0.2-0.1-0.2C112,90.6,111.8,90.3,111.8,90"/>
	<path class="st0" d="M3,117.4c0-1.6,0.1-2.8-1.4-2.8c-0.6,0-1.5,0.2-1.5-0.7c0-0.6,0.6-0.7,1-0.9c2.4-0.9,7.1-1,9.7-1
		c1.7,0,4.1,0.2,5.6,0.8c2,0.8,3.7,2.8,3.7,5.3c0,4-3.4,5.1-6.2,5.3c3.7,0.2,7.1,1.9,7.1,6.9c0,2.4-0.9,4.4-2.7,5.7
		c-1.8,1.3-3.7,1.3-5.7,1.3c-3.3,0-6.5-0.2-9.8-0.2c-0.7,0-1.3,0.2-2,0.2c-0.5,0-0.8-0.2-0.8-0.8c0-0.6,0.5-0.7,0.9-0.8
		c2.2-0.4,2.1-1.3,2.1-3.8V117.4z M8.7,121.1c0,1.7,0,1.6,1.3,1.6c2.6,0,4.4-1.5,4.4-4.8c0-2.5-1.5-4.5-3.7-4.5
		c-0.6,0-1.4,0.1-1.8,0.6c-0.3,0.4-0.2,1.3-0.2,1.9V121.1z M8.7,131.6c0,2.3,0.3,4.2,2.6,4.2c2.8,0,4-2.5,4-5.4
		c0-2.1-0.8-4.3-2.4-5.4c-1-0.7-2.1-0.7-3.2-0.7c-0.9,0-0.9,0.6-0.9,1.6V131.6z"/>
	<path class="st0" d="M29.9,121.7c0.6,0,2-3,4.8-3c1.4,0,2.9,1.2,2.9,3c0,1.8-1.3,3.2-2.8,3.2c-2.2,0-2.4-2.3-3.5-2.3
		c-1.7,0-1.4,4.1-1.4,5.3v3.9c0,0.9-0.1,2.3,0.1,3.1c0.2,0.6,1.2,0.6,1.9,0.7c0.4,0.1,0.8,0.3,0.8,0.8c0,0.7-0.6,0.8-1.1,0.8
		c-1.4,0-2.9-0.1-4.3-0.1c-1.4,0-2.8,0.1-4.3,0.1c-0.4,0-1-0.1-1-0.8c0-0.5,0.4-0.7,0.8-0.8c0.5-0.1,1.5-0.1,1.7-0.7
		c0.2-0.8,0.2-2.2,0.2-3.1V126c0-1.7,0.1-2.6-1.5-2.8c-0.5,0-1,0-1-0.7c0-0.7,1.1-0.8,1.5-0.9c1.5-0.4,3.4-1.4,4.4-2.7
		c0.2-0.3,0.5-0.7,1.2-0.7c0.6,0,0.5,1,0.5,1.4V121.7z"/>
	<path class="st0" d="M45.7,131.8c0,0.9-0.1,2.3,0.1,3.1c0.2,0.6,1.2,0.6,1.9,0.7c0.4,0.1,0.8,0.3,0.8,0.8c0,0.7-0.6,0.8-1.1,0.8
		c-1.4,0-2.9-0.1-4.3-0.1c-1.4,0-2.8,0.1-4.3,0.1c-0.4,0-1-0.1-1-0.8c0-0.5,0.4-0.7,0.8-0.8c0.5-0.1,1.5-0.1,1.7-0.7
		c0.2-0.8,0.2-2.2,0.2-3.1V126c0-1.7,0.1-2.6-1.5-2.8c-0.5,0-1,0-1-0.7c0-0.7,1.1-0.8,1.5-0.9c1.5-0.4,3.4-1.4,4.4-2.7
		c0.2-0.3,0.5-0.7,1.2-0.7c0.6,0,0.5,1,0.5,1.4V131.8z M40.1,113.9c0-1.9,1.5-3,3.1-3c1.5,0,3,1.1,3,3c0,2-1.4,3.2-3.1,3.2
		C41.4,117.1,40.1,115.8,40.1,113.9"/>
	<path class="st0" d="M50.2,134.8c-0.2-0.3-0.8-0.8-0.8-1.2c0-0.7,1.1-1.1,1.6-1.3l1.4-0.6c0.1,0,1-0.4,1-0.6c0-0.1-0.4-0.3-0.4-0.3
		c-2.2-0.9-3.8-2.9-3.8-5.5c0-2.1,1-3.8,2.5-5c1.6-1.2,3.5-1.6,5.4-1.6c1.5,0,3,0.2,4.3,0.9c0.7,0.4,1,0.5,1.8,0.5h2
		c1-0.1,1.4-0.1,1.4,1.2c0,1.1-0.2,0.8-1.1,0.8h-1.2c0,0-0.2,0-0.2,0.2c0,0,0.9,1.2,0.9,3c0,4.1-3.6,6.3-6.8,6.4l-1.8,0
		c-0.4,0-1.9,0-1.9,0.8c0,0.4,0.6,0.8,0.9,0.9c0.6,0.2,1.4,0.2,2,0.2h2.6c1.3,0,3,0,4.2,0.6c1.6,0.7,2.6,2.4,2.6,4.3
		c0,2.5-1.6,4.4-3.5,5.6c-1.9,1.3-4.2,1.7-6.4,1.7c-2.6,0-8.3-0.7-8.3-4.7c0-3.2,3.8-3.2,3.8-4c0-0.2-0.6-0.7-0.7-0.8L50.2,134.8z
		 M62.2,141.1c0-2.4-2.7-2.1-4.2-2.1c-1.5,0-3.5-0.4-4.4-1c-0.1,0-0.5,0.2-0.7,0.4c-0.4,0.4-0.6,1.1-0.6,1.7c0,3.3,2.9,4.2,5.3,4.2
		C59.3,144.4,62.2,143.6,62.2,141.1 M59.7,125.8c0-2.2-0.3-5.7-2.8-5.7c-2.3,0-2.7,2.5-2.7,4.7c0,2.2,0.4,5.6,2.9,5.6
		C59.5,130.3,59.7,127.8,59.7,125.8"/>
	<path class="st0" d="M86.6,131.9c0,0.7-0.1,2.3,0.2,2.9c0.4,0.7,1.1,0.7,1.7,0.8c0.4,0.1,0.8,0.3,0.8,0.9c0,0.7-0.6,0.7-1,0.7
		c-1.7,0-3.2-0.1-4.9-0.1c-1.2,0-2.5,0.1-3.8,0.1c-0.4,0-0.8-0.1-0.8-0.7c0-0.5,0.3-0.7,0.7-0.9c0.4-0.1,1-0.2,1.3-0.7
		c0.5-0.7,0.4-2.2,0.4-3v-5.7c0-2.4,0-4.9-2.8-4.9c-0.9,0-2.1,0.5-2.8,1.2c-0.6,0.7-0.6,1.2-0.6,2.1v7.3c0,0.6-0.1,2.1,0.2,2.7
		c0.2,0.5,0.6,0.8,1.1,1c0.5,0.2,1.1,0.1,1.1,0.9c0,0.5-0.4,0.7-0.8,0.7c-0.7,0-1.3-0.1-2-0.1c-2.3,0-4.5,0.1-6.7,0.1
		c-0.4,0-1.1,0-1.1-0.7c0-0.6,0.4-0.8,0.8-0.9c0.5-0.1,1.2-0.2,1.6-0.7c0.6-0.7,0.4-2.2,0.4-3v-16.4c0-2.2,0.1-2.6-1.8-2.9
		c-0.3,0-0.7-0.2-0.7-0.6c0-0.7,1-0.8,1.5-0.9c1.6-0.2,3-0.8,4.5-1.4c0.3-0.2,0.9-0.4,1.3-0.4c0.8,0,0.6,1.3,0.6,1.9v9.4
		c0,0.2,0,0.4,0.2,0.4c0.5,0,2.6-2.4,5.6-2.4c1.6,0,3.4,0.7,4.5,2c1.2,1.4,1.2,3.4,1.2,5.2V131.9z"/>
	<path class="st0" d="M96.4,129.1c0,1.5-0.1,5.3,1.7,5.3c1.1,0,1.9-1.1,2.4-1.1c0.2,0,0.4,0.2,0.4,0.6c0,0.5-0.7,1.3-1,1.6
		c-1.2,1.3-2.9,2-4.5,2c-1.1,0-2.5-0.6-3.2-1.7c-0.8-1.2-1-2.9-1-4.4v-8.2c0-0.3,0-1.3-0.1-1.7c-0.1-0.4-0.5-0.5-0.8-0.5
		c-0.4,0-1.5,0.2-1.5-0.4c0-0.6,0.7-0.9,1.1-1.1c1.9-0.9,3.6-2.3,4.6-4.3c0.2-0.5,0.6-1.3,1.2-1.3c0.7,0,0.6,0.9,0.6,1.5v2.7
		c0,1.1,0.2,1.1,1.1,1.1h1.8c0.7,0,1.2-0.2,1.2,0.8c0,1.1-0.2,1.1-1.2,1.1h-1.7c-1.1,0-1.1,0-1.1,1.5V129.1z"/>
	<path class="st0" d="M100.9,128.1c0-5.7,5-9.4,9.7-9.4c2.3,0,4.6,0.7,6.4,2.3c1.9,1.6,3.2,4.1,3.2,6.8c0,5.9-4.8,9.7-9.8,9.7
		C105.4,137.5,100.9,134,100.9,128.1 M114.7,128.8c0-1.8-0.3-4.1-1.1-5.7c-0.6-1.4-1.8-2.9-3.3-2.9c-3,0-3.8,4.4-3.8,7
		c0,2.9,1.1,9.1,4.5,9.1C114,136.1,114.7,131.3,114.7,128.8"/>
	<path class="st0" d="M129.4,121.4c0.6,0,2.3-2.7,5.6-2.7c1.5,0,3.1,0.5,4.3,1.6c1.4,1.3,1.4,3,1.4,4.9v6.6c0,0.9-0.1,2.4,0.3,3.1
		c0.3,0.5,1.1,0.6,1.6,0.7c0.4,0.1,0.8,0.3,0.8,0.9c0,0.7-0.6,0.7-1.1,0.7c-1.2,0-2.4-0.1-3.6-0.1c-1.6,0-3.2,0.1-4.7,0.1
		c-0.4,0-0.8-0.1-0.8-0.7c0-0.5,0.3-0.7,0.7-0.9c0.5-0.2,1.1-0.3,1.4-0.9c0.3-0.6,0.2-2.2,0.2-3V126c0-1-0.1-2.5-0.6-3.4
		c-0.5-0.9-1.4-1.4-2.3-1.4c-0.9,0-1.9,0.5-2.6,1.1c-0.9,0.9-0.8,1.7-0.8,3.1v6.4c0,0.7-0.1,2.4,0.2,3c0.3,0.6,0.9,0.7,1.4,0.9
		c0.4,0.1,0.7,0.4,0.7,0.9c0,0.6-0.4,0.7-0.8,0.7c-1.6,0-3.2-0.1-4.7-0.1c-1.2,0-2.4,0.1-3.6,0.1c-0.4,0-1.1,0-1.1-0.7
		c0-0.6,0.4-0.8,0.8-0.9c0.5-0.1,1.3-0.2,1.6-0.7c0.5-0.7,0.3-2.2,0.3-3.1V126c0-1.7,0.1-2.6-1.5-2.8c-0.5,0-1,0-1-0.7
		c0-0.7,1.1-0.8,1.5-0.9c1.5-0.4,3.4-1.4,4.4-2.7c0.2-0.3,0.5-0.7,1.2-0.7c0.6,0,0.5,1,0.5,1.4V121.4z"/>
	<path class="st0" d="M174.6,133.2c1,1.3,1.5,2.1,3,2.4c0.5,0.1,1.1,0.2,1.1,0.9c0,0.8-0.8,0.8-1.3,0.8c-1.2,0-2.5-0.2-3.7-0.2
		c-0.8,0-1.5,0-2.3,0.1c-0.9,0-1.1-0.3-1.6-1.1l-1.2-1.7c-0.1-0.1-0.6-0.8-0.7-0.8c-0.1,0-0.3,0.2-0.4,0.3c-2.2,2.4-4,3.9-7.2,3.9
		c-3.5,0-6.9-2.4-6.9-6.8c0-4.1,3.1-5.7,5.9-7c0.2-0.1,0.7-0.3,0.7-0.5c0-0.5-2.3-2.9-2.3-5.8c0-1.9,0.9-3.3,2.2-4.3
		c1.4-1,3.3-1.3,4.9-1.3c2.7,0,7.1,0.7,7.1,4.8c0,1.7-0.7,2.7-2,3.6c-0.9,0.6-2.1,1.1-3.1,1.4c-0.1,0-0.4,0.2-0.4,0.4
		c0,0.2,0.4,0.7,0.5,0.8l3.4,4.4c0.1,0.1,0.3,0.4,0.4,0.4c0.3,0,1.6-2.2,1.6-3c0-0.7-0.9-0.8-1.3-0.9c-0.4-0.1-1.2,0-1.2-0.8
		c0-0.8,0.9-0.7,1.4-0.7h6.1c0.4,0,1,0.1,1,0.7c0,0.7-0.6,0.8-1.1,0.8c-1.1,0.2-1.4,0.3-2.3,1.1c-0.4,0.4-3.1,3.6-3.1,4.2
		c0,0.3,0.4,0.8,0.6,1L174.6,133.2z M161.2,125.1c-0.1-0.2-0.2-0.3-0.3-0.3c-0.3,0-1,0.7-1.2,0.9c-0.7,0.7-1,1.8-1,2.9
		c0,3,2.1,5.5,4.7,5.5c1,0,1.8-0.4,2.7-1c0.2-0.2,0.7-0.6,0.7-0.9c0-0.2-0.4-0.6-0.4-0.7L161.2,125.1z M166.5,120.1
		c0.7-0.7,0.9-1.7,0.9-2.7c0-1.8-1-4-2.7-4c-1.2,0-1.9,0.9-1.9,2.3c0,1.7,1.3,3.3,2.2,4.6c0.1,0.1,0.3,0.5,0.5,0.5
		C165.8,120.7,166.3,120.3,166.5,120.1"/>
	<path class="st0" d="M204.5,123.2c1.2,0,1.1,0,1.1-1.4V118c0-2.4,0.2-3.4-2-3.9c-0.4-0.1-1.1-0.1-1.1-0.8c0-0.6,0.3-0.7,0.8-0.7
		c1.8,0,3.5,0.2,5.3,0.2c1.7,0,3.3-0.2,4.9-0.2c0.5,0,0.9,0.1,0.9,0.7c0,0.6-0.5,0.7-1,0.8c-2.3,0.4-2.2,1.2-2.2,3.9v14
		c0,2.3-0.1,3.3,2,3.7c0.4,0.1,1.1,0.2,1.1,0.9c0,0.6-0.4,0.7-0.8,0.7c-1.8,0-3.5-0.2-5.3-0.2c-1.6,0-3.3,0.2-4.9,0.2
		c-0.5,0-0.8-0.2-0.8-0.7c0-0.6,0.5-0.8,0.9-0.9c2.3-0.4,2.2-1.1,2.2-3.7v-6c0-1.1-0.1-0.9-1-0.9h-6.1c-1.4,0-1.3-0.2-1.3,1.5v5.5
		c0,2.3-0.1,3.3,2,3.7c0.4,0.1,1.1,0.2,1.1,0.9c0,0.6-0.4,0.7-0.8,0.7c-1.8,0-3.5-0.2-5.3-0.2c-1.6,0-3.3,0.2-4.9,0.2
		c-0.5,0-0.8-0.2-0.8-0.7c0-0.6,0.5-0.8,0.9-0.9c2.3-0.4,2.2-1.1,2.2-3.7v-14c0-2.4,0.2-3.4-2-3.9c-0.4-0.1-1.1-0.1-1.1-0.8
		c0-0.6,0.3-0.7,0.8-0.7c1.8,0,3.5,0.2,5.3,0.2c1.6,0,3.3-0.2,4.9-0.2c0.5,0,0.9,0.1,0.9,0.7c0,0.6-0.6,0.7-1,0.8
		c-2.3,0.4-2.2,1.2-2.2,3.9v3.8c0,1.4,0,1.4,1.2,1.4H204.5z"/>
	<path class="st0" d="M215.3,128.1c0-5.7,5-9.4,9.7-9.4c2.3,0,4.6,0.7,6.4,2.3c1.9,1.6,3.2,4.1,3.2,6.8c0,5.9-4.8,9.7-9.8,9.7
		C219.8,137.5,215.3,134,215.3,128.1 M229.1,128.8c0-1.8-0.3-4.1-1.1-5.7c-0.6-1.4-1.8-2.9-3.3-2.9c-3,0-3.8,4.4-3.8,7
		c0,2.9,1.1,9.1,4.5,9.1C228.4,136.1,229.1,131.3,229.1,128.8"/>
	<path class="st0" d="M248.5,124.8c0.3-0.8,0.8-1.9,0.8-2.8c0-1-0.8-1.3-1.5-1.4c-0.4-0.1-1.1,0-1.1-0.7c0-0.5,0.4-0.8,0.9-0.8
		c1,0,2,0.1,3.1,0.1c1,0,2-0.1,3-0.1c0.4,0,1,0.1,1,0.7c0,0.5-0.4,0.7-0.8,0.8c-1.4,0.3-1.7,0.1-2.3,1.8l-5.6,13.5
		c-0.4,1.1-0.6,1.6-1.6,1.6c-1,0-1-0.6-1.4-1.5l-5.1-12.5c-0.2-0.4-0.7-1.7-1-2.1c-0.3-0.5-0.7-0.6-1.2-0.7c-0.5-0.1-1.1,0-1.1-0.7
		c0-0.7,0.7-0.8,1.2-0.8c1.3,0,2.7,0.1,4.1,0.1c1.5,0,3-0.1,4.5-0.1c0.4,0,1.1,0,1.1,0.7c0,0.7-0.8,0.8-1.2,0.8
		c-0.5,0-1.1,0.2-1.1,0.9c0,0.4,0.3,1.1,0.4,1.4l2.4,6.3c0.1,0.2,0.4,1.1,0.7,1.1c0.2,0,0.5-0.9,0.5-1L248.5,124.8z"/>
	<path class="st0" d="M260.8,126.2c-0.9,0-1.2-0.1-1.2,1c0,3.8,2.2,7.6,5.9,7.6c2.6,0,3.7-2,4.5-2c0.3,0,0.5,0.2,0.5,0.6
		c0,0.8-1.3,1.9-1.8,2.2c-1.7,1.3-3.6,2-5.7,2c-4.8,0-9-4.1-9-9.6c0-5.6,4.6-9.1,9.3-9.1c1.8,0,3.7,0.6,5.2,1.8
		c1.2,1,2.1,2.4,2.1,4.1c0,1.5-0.8,1.5-1.9,1.5H260.8z M264.7,124.5c0.9-0.2,1.3-1,1.3-2c0-1.5-0.9-2.5-2.2-2.5
		c-1,0-2.1,0.6-2.8,1.4c-0.4,0.6-1,1.8-1,2.6c0,0.7,0.6,0.6,1.1,0.6C262,124.7,263.8,124.7,264.7,124.5"/>
	<path class="st0" d="M58.3,169.2c-0.1,1.3,0,1.8-1.1,2.5c-1.9,1.3-4.4,1.8-6.6,1.8c-3,0-6.6-0.8-9-2.9c-2.6-2.2-4.4-6-4.4-9.8
		c0-3.9,1.7-7.4,4.4-9.8c2.7-2.2,6.4-3.3,9.7-3.3c1.6,0,3.6,0.3,5.2,0.8c0.9,0.3,0.9,0.5,1.1,1.6l0.3,2c0.1,0.4,0.1,0.7,0.1,1.1
		c0,0.4-0.3,0.7-0.7,0.7c-1.6,0-1.7-4.7-6.3-4.7c-2.3,0-4.4,1.5-5.7,3.5c-1.3,2.2-1.9,5-1.9,7.6c0,2.6,0.5,5.4,1.7,7.6
		c1.3,2.3,3.4,3.9,5.8,3.9c1.3,0,2.6-0.6,3.6-1.5c1-1,1.6-2.3,2.3-3.6c0.2-0.4,0.4-0.8,0.9-0.8c0.8,0,0.7,0.9,0.7,1.5L58.3,169.2z"
		/>
	<path class="st0" d="M67.6,167.6c0,0.9-0.1,2.3,0.1,3.1c0.2,0.6,1.2,0.6,1.9,0.7c0.4,0.1,0.8,0.3,0.8,0.8c0,0.7-0.6,0.7-1.1,0.7
		c-1.4,0-2.9-0.1-4.3-0.1c-1.4,0-2.8,0.1-4.3,0.1c-0.4,0-1-0.1-1-0.7c0-0.5,0.4-0.7,0.8-0.8c0.5-0.1,1.5-0.1,1.7-0.7
		c0.2-0.8,0.2-2.2,0.2-3.1v-5.8c0-1.7,0.1-2.6-1.5-2.8c-0.5,0-1,0-1-0.7c0-0.7,1.1-0.8,1.5-0.9c1.5-0.4,3.4-1.4,4.4-2.7
		c0.2-0.3,0.5-0.7,1.2-0.7c0.5,0,0.5,1,0.5,1.4V167.6z M62,149.7c0-1.9,1.5-3,3.1-3c1.5,0,3,1.1,3,3c0,2-1.4,3.2-3.1,3.2
		C63.3,152.8,62,151.6,62,149.7"/>
	<path class="st0" d="M77.5,164.9c0,1.5-0.1,5.3,1.7,5.3c1.1,0,1.9-1.1,2.4-1.1c0.2,0,0.4,0.2,0.4,0.6c0,0.5-0.7,1.3-1,1.6
		c-1.2,1.3-2.9,2-4.5,2c-1.1,0-2.5-0.6-3.2-1.7c-0.8-1.2-1-2.9-1-4.4V159c0-0.3,0-1.3-0.1-1.7c-0.1-0.4-0.5-0.5-0.8-0.5
		c-0.4,0-1.5,0.2-1.5-0.4c0-0.6,0.7-0.9,1.1-1.1c1.9-0.9,3.6-2.3,4.6-4.3c0.2-0.5,0.6-1.3,1.2-1.3c0.7,0,0.6,0.9,0.6,1.5v2.7
		c0,1.1,0.2,1.1,1.1,1.1h1.8c0.7,0,1.2-0.2,1.2,0.8c0,1.1-0.2,1.1-1.2,1.1h-1.7c-1.1,0-1.1,0-1.1,1.5V164.9z"/>
	<path class="st0" d="M96.1,159.3c0.2-0.5,0.4-1,0.4-1.6c0-0.9-0.9-1.2-1.5-1.2c-0.5,0-1.3-0.1-1.3-0.9c0-0.6,0.7-0.6,1.1-0.6
		c1,0,2,0.1,3,0.1c1,0,2-0.1,3-0.1c0.4,0,0.9,0,0.9,0.6c0,0.7-0.5,0.8-1,0.9c-0.9,0.2-1.1,0.1-1.7,0.9c-0.6,0.8-1.2,2.5-1.6,3.4
		l-5.2,12.6l-1.9,5.1c-0.7,2.3-0.6,2.9-2.8,2.9c-1.5,0-3-0.1-3-2.2c0-0.6,0.1-1.4,0.4-1.9c0.5-0.8,1.3-0.7,2-0.6
		c1,0,1.9,0.3,2.6-0.7c0.3-0.4,0.7-1.3,0.7-1.9c0-0.6-0.4-1.6-0.7-2.2l-5.1-11.8c-0.4-0.9-1-2.2-1.5-2.9c-0.4-0.6-0.8-0.6-1.4-0.7
		c-0.4-0.1-1-0.2-1-0.9s0.7-0.7,1.2-0.7c1.5,0,3.1,0.1,4.6,0.1c1.3,0,2.7-0.1,4-0.1c0.4,0,1.2,0,1.2,0.7c0,0.6-0.5,0.7-0.9,0.9
		c-0.4,0.1-1.3,0.2-1.3,0.9c0,0.5,0.4,1.3,0.5,1.7l2.5,6.1c0.1,0.2,0.4,1.2,0.7,1.2c0.3,0,0.7-1,0.7-1.3L96.1,159.3z"/>
	<path class="st0" d="M131.6,169.2c-0.1,1.3,0,1.8-1.1,2.5c-1.9,1.3-4.4,1.8-6.6,1.8c-3,0-6.6-0.8-9-2.9c-2.6-2.2-4.4-6-4.4-9.8
		c0-3.9,1.7-7.4,4.4-9.8c2.7-2.2,6.4-3.3,9.7-3.3c1.6,0,3.6,0.3,5.2,0.8c0.9,0.3,0.9,0.5,1.1,1.6l0.3,2c0.1,0.4,0.1,0.7,0.1,1.1
		c0,0.4-0.3,0.7-0.7,0.7c-1.6,0-1.7-4.7-6.3-4.7c-2.3,0-4.4,1.5-5.7,3.5c-1.3,2.2-1.9,5-1.9,7.6c0,2.6,0.5,5.4,1.7,7.6
		c1.3,2.3,3.4,3.9,5.8,3.9c1.3,0,2.6-0.6,3.6-1.5c1-1,1.6-2.3,2.3-3.6c0.2-0.4,0.4-0.8,0.9-0.8c0.8,0,0.7,0.9,0.7,1.5L131.6,169.2z"
		/>
	<path class="st0" d="M133,163.9c0-5.7,5-9.4,9.7-9.4c2.3,0,4.6,0.7,6.4,2.3c1.9,1.6,3.2,4.1,3.2,6.8c0,5.9-4.8,9.7-9.8,9.7
		C137.4,173.3,133,169.8,133,163.9 M146.7,164.5c0-1.8-0.3-4.1-1.1-5.7c-0.6-1.4-1.8-3-3.3-3c-3,0-3.8,4.4-3.8,7
		c0,2.9,1.1,9.1,4.5,9.1C146,171.9,146.7,167.1,146.7,164.5"/>
	<path class="st0" d="M171.2,168.8c0,1,0.6,1.3,1.5,1.4c0.3,0,0.7,0.2,0.7,0.6c0,0.7-1.2,0.9-1.6,0.9l-3.6,1.2
		c-0.3,0.1-1.1,0.5-1.4,0.5c-0.6,0-0.4-1-0.4-1.5c0-0.2,0.1-1.4-0.3-1.4c-0.2,0-0.5,0.3-0.6,0.4c-1.5,1.3-3.1,2.3-5.1,2.3
		c-1.4,0-3-0.6-3.9-1.9c-1-1.4-1.1-3.2-1.1-4.9v-6.3c0-0.7,0.1-2.3-0.3-3c-0.4-0.7-1.1-0.7-1.7-0.9c-0.4-0.1-0.8-0.3-0.8-0.8
		c0-0.7,0.6-0.6,1-0.6c1.1,0,2.1,0.1,3.2,0.1c1.1,0,2.1-0.1,3.2-0.1c0.4,0,0.5,0.1,0.5,0.6v10.6c0,0.9,0.1,2.3,0.5,3.1
		c0.4,0.8,1.2,1.2,2,1.2c0.9,0,2-0.6,2.6-1.3c0.6-0.7,0.5-1.5,0.5-2.4v-6.5c0-0.7,0.1-2.3-0.3-3c-0.4-0.6-1.1-0.8-1.7-0.9
		c-0.4-0.1-0.8-0.3-0.8-0.8c0-0.7,0.6-0.7,1-0.7c1.1,0,2.1,0.1,3.2,0.1c1.1,0,2.1-0.1,3.2-0.1c0.6,0,0.4,0.8,0.4,1.3V168.8z"/>
	<path class="st0" d="M181.9,157.2c0.6,0,2.3-2.7,5.6-2.7c1.5,0,3.1,0.5,4.3,1.6c1.4,1.3,1.4,3,1.4,4.9v6.6c0,0.9-0.1,2.4,0.3,3.1
		c0.3,0.5,1.1,0.6,1.6,0.7c0.4,0.1,0.8,0.3,0.8,0.9c0,0.7-0.6,0.7-1.1,0.7c-1.2,0-2.4-0.1-3.6-0.1c-1.6,0-3.2,0.1-4.7,0.1
		c-0.4,0-0.8-0.1-0.8-0.7c0-0.5,0.3-0.7,0.7-0.9c0.5-0.2,1.1-0.3,1.4-0.9c0.3-0.6,0.2-2.2,0.2-2.9v-5.8c0-1-0.1-2.5-0.6-3.4
		c-0.5-0.9-1.4-1.4-2.3-1.4c-0.9,0-1.9,0.5-2.6,1.1c-0.9,0.9-0.8,1.7-0.8,3.1v6.4c0,0.7-0.1,2.4,0.2,2.9c0.3,0.6,0.9,0.7,1.4,0.9
		c0.4,0.1,0.7,0.4,0.7,0.9c0,0.6-0.4,0.7-0.8,0.7c-1.6,0-3.2-0.1-4.7-0.1c-1.2,0-2.4,0.1-3.6,0.1c-0.4,0-1.1,0-1.1-0.7
		c0-0.5,0.4-0.8,0.8-0.9c0.5-0.1,1.3-0.2,1.6-0.7c0.5-0.7,0.3-2.2,0.3-3.1v-5.8c0-1.7,0.1-2.6-1.5-2.8c-0.5,0-1,0-1-0.7
		c0-0.7,1.1-0.8,1.5-0.9c1.5-0.4,3.4-1.4,4.4-2.7c0.2-0.3,0.5-0.7,1.2-0.7c0.5,0,0.5,1,0.5,1.4V157.2z"/>
	<path class="st0" d="M205.9,155.9c-1,0-2.1,0.9-2.7,1.7c-1,1.3-1.5,3.2-1.5,4.9c0,4,2.4,8,6.3,8c2.5,0,3.3-1.5,3.9-1.5
		c0.2,0,0.4,0.3,0.4,0.5c0,0.9-1,1.6-1.5,2c-1.6,1.1-3.4,1.6-5.3,1.6c-5,0-9.2-3.6-9.2-9.4c0-6,5.7-9.3,10.4-9.3
		c1.3,0,3,0.3,4.2,1.1c0.7,0.4,1,0.8,1,1.6c0,0.9-0.3,3.6-1.4,3.6c-1.1,0-1.6-1.3-2.1-2.2C207.8,157.4,207.3,155.9,205.9,155.9"/>
	<path class="st0" d="M221.3,167.6c0,0.9-0.1,2.3,0.1,3.1c0.2,0.6,1.2,0.6,1.9,0.7c0.4,0.1,0.8,0.3,0.8,0.8c0,0.7-0.6,0.7-1.1,0.7
		c-1.4,0-2.9-0.1-4.3-0.1c-1.4,0-2.8,0.1-4.3,0.1c-0.4,0-1-0.1-1-0.7c0-0.5,0.4-0.7,0.8-0.8c0.5-0.1,1.5-0.1,1.7-0.7
		c0.2-0.8,0.2-2.2,0.2-3.1v-5.8c0-1.7,0.1-2.6-1.5-2.8c-0.5,0-1,0-1-0.7c0-0.7,1.1-0.8,1.5-0.9c1.5-0.4,3.4-1.4,4.4-2.7
		c0.2-0.3,0.5-0.7,1.2-0.7c0.5,0,0.5,1,0.5,1.4V167.6z M215.6,149.7c0-1.9,1.5-3,3.1-3c1.5,0,3,1.1,3,3c0,2-1.4,3.2-3.1,3.2
		C217,152.8,215.6,151.6,215.6,149.7"/>
	<path class="st0" d="M232.3,169.7c0,0.1,0,1.5,1.9,1.7c0.4,0.1,1.1,0.2,1.1,0.9c0,0.6-0.3,0.7-0.8,0.7c-1.6,0-3.2-0.1-4.8-0.1
		c-1.7,0-3.3,0.1-4.9,0.1c-0.5,0-0.8-0.1-0.8-0.7c0-0.7,0.5-0.8,0.9-0.9c2.1-0.3,2.1-1.6,2.1-1.7v-18.3c0-2.2,0.1-2.6-1.8-2.9
		c-0.3,0-0.7-0.2-0.7-0.6c0-0.8,1-0.8,1.5-0.9c1.6-0.2,3-0.8,4.5-1.4c0.3-0.2,0.9-0.4,1.3-0.4c0.8,0,0.6,1.3,0.6,1.9V169.7z"/>
</g>
</svg>
