<?xml version="1.0" encoding="utf-8"?>
<!-- Generator: Adobe Illustrator 27.2.0, SVG Export Plug-In . SVG Version: 6.00 Build 0)  -->
<svg version="1.1" id="Layer_1" xmlns="http://www.w3.org/2000/svg" xmlns:xlink="http://www.w3.org/1999/xlink" x="0px" y="0px"
	 viewBox="0 0 93.1 39.3" style="enable-background:new 0 0 93.1 39.3;" xml:space="preserve">
<style type="text/css">
	.st0{fill:#93C4EC;}
</style>
<g>
	<path class="st0" d="M1.3,12.9c-0.4-0.3-0.6-0.9-0.6-1.6c0-0.3,0-0.6,0.1-0.8l1.3-6h2.5l-1.3,6c-0.1,0.3-0.1,0.5-0.1,0.6
		c0,0.4,0.2,0.6,0.6,0.6c0.5,0,1-0.3,1.5-1C5.8,10,6.2,9.2,6.5,8.3s0.4-1.8,0.4-2.4c0,0.1-0.1,0.1-0.2,0.1C6.6,6,6.5,6,6.4,6
		C6.2,6,6,5.9,5.9,5.7C5.8,5.5,5.7,5.3,5.7,5.1c0-0.3,0.1-0.5,0.3-0.7c0.2-0.2,0.5-0.3,0.8-0.3c0.4,0,0.7,0.1,0.8,0.4
		c0.2,0.3,0.3,0.7,0.3,1.1c0,1.1-0.2,2.2-0.5,3.4c-0.4,1.2-0.9,2.2-1.7,3.1S4,13.4,2.9,13.4C2.2,13.4,1.7,13.3,1.3,12.9z"/>
	<path class="st0" d="M8.6,12.9c-0.3-0.4-0.5-0.9-0.5-1.6c0-0.3,0-0.7,0.1-1.1l1.2-5.7h2.5l-1.3,6c0,0.2-0.1,0.4-0.1,0.6
		c0,0.2,0.1,0.4,0.2,0.5c0.1,0.1,0.3,0.1,0.6,0.1c0.3,0,0.7-0.1,1-0.4c0.3-0.3,0.5-0.7,0.6-1.1h0.7c-0.4,1.3-1,2.1-1.7,2.6
		c-0.7,0.5-1.4,0.7-2,0.7C9.4,13.4,8.9,13.3,8.6,12.9z M10.2,3.1c-0.3-0.3-0.4-0.6-0.4-1s0.1-0.7,0.4-1c0.3-0.3,0.6-0.4,1-0.4
		s0.7,0.1,1,0.4s0.4,0.6,0.4,1s-0.1,0.7-0.4,1c-0.3,0.3-0.6,0.4-1,0.4S10.4,3.4,10.2,3.1z"/>
	<path class="st0" d="M13.5,13.1c-0.4-0.2-0.7-0.5-0.9-0.8c-0.2-0.3-0.3-0.7-0.3-1.1c0-0.4,0.1-0.7,0.3-1s0.4-0.5,0.7-0.6
		c0.5-0.8,0.9-1.7,1.2-2.5c0.3-0.8,0.7-1.8,1-2.7L18.1,4c0.1,1.5,0.2,3.1,0.3,4.9c0.1,0.7,0.1,1.2,0.1,1.5c0,0.3,0,0.5-0.1,0.7
		c0.6-0.3,1-0.6,1.3-0.9h0.7c-0.8,0.9-1.7,1.6-2.7,2.2c-0.3,0.4-0.8,0.6-1.3,0.8c-0.5,0.2-1,0.3-1.5,0.3
		C14.4,13.4,13.9,13.3,13.5,13.1z M15.5,11.7c0.3-0.3,0.4-0.7,0.4-1.3c0-0.4,0-0.8-0.1-1.5c-0.1-1.3-0.2-2.2-0.2-2.7
		c-0.3,0.9-0.8,2-1.4,3.3c0.3,0.1,0.4,0.3,0.4,0.6c0,0.2-0.1,0.4-0.2,0.6C14.2,11,14,11,13.8,11c-0.2,0-0.4-0.1-0.5-0.2
		c0,0.4,0.1,0.7,0.3,0.9c0.2,0.2,0.4,0.3,0.8,0.3C14.8,12.1,15.2,11.9,15.5,11.7z"/>
	<path class="st0" d="M20,12.9c-0.3-0.4-0.5-0.9-0.5-1.6c0-0.3,0-0.7,0.1-1.1l1.2-5.7h2.5l-1.3,6c0,0.2-0.1,0.4-0.1,0.6
		c0,0.2,0.1,0.4,0.2,0.5c0.1,0.1,0.3,0.1,0.6,0.1c0.3,0,0.7-0.1,1-0.4c0.3-0.3,0.5-0.7,0.6-1.1h0.7c-0.4,1.3-1,2.1-1.7,2.6
		c-0.7,0.5-1.4,0.7-2,0.7C20.8,13.4,20.4,13.3,20,12.9z M21.6,3.1c-0.3-0.3-0.4-0.6-0.4-1s0.1-0.7,0.4-1c0.3-0.3,0.6-0.4,1-0.4
		s0.7,0.1,1,0.4s0.4,0.6,0.4,1s-0.1,0.7-0.4,1c-0.3,0.3-0.6,0.4-1,0.4S21.9,3.4,21.6,3.1z"/>
	<path class="st0" d="M24.7,12.9c-0.3-0.4-0.4-0.8-0.4-1.4c0-0.3,0-0.6,0.1-0.9l1.1-5.3h-0.6l0.1-0.7h0.6l0.5-2.4l2.6-0.4
		c-0.1,0.4-0.2,0.7-0.2,0.8c-0.1,0.3-0.2,1-0.4,2h1.1l-0.1,0.7h-1.1l-1.1,5.3c-0.1,0.3-0.1,0.5-0.1,0.6c0,0.4,0.2,0.6,0.6,0.6
		c0.2,0,0.4,0,0.5-0.1c-0.2,0.7-0.5,1.1-0.8,1.4c-0.3,0.2-0.7,0.4-1,0.4C25.4,13.4,25,13.3,24.7,12.9z"/>
	<path class="st0" d="M33.5,12.9C33.1,12.6,33,12,33,11.3c0-0.3,0-0.7,0.1-1.1l1.1-5h-0.6l0.1-0.7h0.6l0.5-2.4l2.6-0.4l-0.6,2.8h1.1
		l-0.1,0.7h-1.1l-1.1,5.3c0,0.2-0.1,0.4-0.1,0.6c0,0.2,0.1,0.4,0.2,0.5c0.1,0.1,0.3,0.1,0.6,0.1c0.3,0,0.7-0.1,1-0.4
		c0.3-0.3,0.5-0.7,0.6-1.1h0.7c-0.4,1.3-1,2.1-1.7,2.6c-0.7,0.5-1.4,0.7-2,0.7C34.3,13.4,33.8,13.3,33.5,12.9z"/>
	<path class="st0" d="M42.6,12.9c-0.3-0.4-0.5-0.9-0.5-1.4c0-0.2,0-0.5,0.1-0.8c0.1-0.3,0.1-0.6,0.2-0.9c0.1-0.3,0.1-0.5,0.1-0.6
		c0.1-0.4,0.2-0.8,0.3-1.2c0.1-0.4,0.1-0.7,0.1-1c0-0.6-0.2-0.9-0.6-0.9c-0.3,0-0.6,0.1-0.8,0.5c-0.2,0.3-0.4,0.7-0.6,1.2l-1.2,5.7
		h-2.5l2.6-12L42.3,1l-1,4.5c0.6-0.7,1.3-1,2.1-1c0.6,0,1.1,0.2,1.4,0.5c0.4,0.3,0.5,0.8,0.5,1.5c0,0.3,0,0.7-0.1,1.1
		c-0.1,0.4-0.2,0.9-0.4,1.5c-0.1,0.4-0.2,0.7-0.3,1.1c-0.1,0.3-0.1,0.6-0.1,0.8c0,0.2,0.1,0.4,0.2,0.5c0.1,0.1,0.3,0.2,0.5,0.2
		c0.4,0,0.6-0.1,0.8-0.4c0.2-0.3,0.4-0.6,0.6-1.2h0.7c-0.4,1.3-0.9,2.2-1.5,2.6c-0.6,0.4-1.2,0.7-1.8,0.7
		C43.5,13.4,42.9,13.3,42.6,12.9z"/>
	<path class="st0" d="M47.2,12.8c-0.5-0.5-0.7-1.2-0.7-2.1c0-0.8,0.2-1.7,0.5-2.7c0.3-1,0.8-1.8,1.6-2.5c0.7-0.7,1.6-1.1,2.7-1.1
		c1.3,0,1.9,0.6,1.9,1.7c0,0.7-0.2,1.3-0.6,1.8s-0.9,1-1.5,1.3c-0.6,0.3-1.3,0.5-2,0.6c0,0.3,0,0.4,0,0.5c0,1,0.4,1.5,1.1,1.5
		c0.3,0,0.7-0.1,1.1-0.3c0.4-0.2,0.7-0.4,1-0.7c-0.3,1.7-1.3,2.6-3.1,2.6C48.4,13.4,47.7,13.2,47.2,12.8z M50.5,8.5
		c0.4-0.3,0.7-0.6,1-1.1C51.7,7,51.8,6.5,51.8,6c0-0.5-0.1-0.7-0.4-0.7c-0.4,0-0.8,0.4-1.2,1.1c-0.4,0.7-0.7,1.6-0.9,2.5
		C49.7,8.9,50.1,8.8,50.5,8.5z"/>
</g>
<g>
	<path class="st0" d="M22.5,36.7c-0.8-0.7-1.1-1.7-1.1-3c0-0.6,0.1-1.2,0.2-1.8L25,16l4.7-0.6l-1.5,7.1c0.6-0.4,1.1-0.6,1.5-0.7
		s0.8-0.2,1.1-0.2c2.5,0,3.8,1.8,3.8,5.4c0,1.5-0.3,3-0.8,4.7c-0.6,1.7-1.5,3.1-2.8,4.3s-3,1.8-5.1,1.8
		C24.4,37.8,23.3,37.4,22.5,36.7z M29.4,33.5c0.6-0.8,1-1.8,1.4-3c0.3-1.2,0.5-2.4,0.5-3.5c0-0.8-0.1-1.6-0.4-2.2
		c-0.3-0.6-0.7-0.9-1.2-0.9c-0.3,0-0.7,0-1.1,0.1c-0.4,0.1-0.7,0.2-0.8,0.4L26,32.5c-0.1,0.3-0.1,0.5-0.1,0.7c0,1,0.6,1.5,1.7,1.5
		C28.2,34.7,28.8,34.3,29.4,33.5z"/>
	<path class="st0" d="M36.6,36.6c-0.9-0.8-1.3-2.1-1.3-3.8c0-1.5,0.3-3.1,0.9-4.8c0.6-1.8,1.5-3.3,2.8-4.6c1.3-1.3,2.9-1.9,4.9-1.9
		c2.3,0,3.5,1,3.5,3c0,1.2-0.3,2.3-1,3.3c-0.7,1-1.6,1.8-2.7,2.4c-1.1,0.6-2.3,0.9-3.6,1c0,0.6-0.1,1.1-0.1,1.3c0,1,0.2,1.7,0.5,2.1
		c0.4,0.4,0.9,0.6,1.7,0.6c1.1,0,2.1-0.3,2.9-0.8c0.8-0.5,1.7-1.3,2.7-2.4H49c-2.4,3.9-5.3,5.9-8.7,5.9
		C38.7,37.8,37.4,37.4,36.6,36.6z M42.5,28.8c0.7-0.5,1.3-1.2,1.7-1.9c0.4-0.8,0.7-1.6,0.7-2.5c0-0.9-0.3-1.3-0.8-1.3
		c-0.8,0-1.5,0.7-2.2,2c-0.7,1.3-1.3,2.8-1.6,4.5C41.1,29.6,41.8,29.3,42.5,28.8z"/>
	<path class="st0" d="M48.7,36.6c-0.8-0.8-1.2-2.1-1.2-3.9c0-1.6,0.3-3.2,0.9-4.9c0.6-1.7,1.6-3.2,2.8-4.4c1.2-1.2,2.7-1.8,4.4-1.8
		c0.9,0,1.5,0.1,1.9,0.4c0.4,0.3,0.6,0.7,0.6,1.2v0.2l0.3-1.7h4.6l-2.3,10.8c-0.1,0.3-0.1,0.7-0.1,1c0,0.9,0.4,1.4,1.3,1.4
		c0.6,0,1.1-0.3,1.5-0.8c0.4-0.6,0.8-1.3,1-2.2h1.3c-0.8,2.3-1.8,3.8-2.9,4.7c-1.2,0.8-2.3,1.2-3.5,1.2c-0.9,0-1.6-0.2-2.1-0.7
		c-0.5-0.5-0.9-1.2-1-2.2c-0.6,0.9-1.3,1.6-2,2.1c-0.8,0.5-1.6,0.8-2.7,0.8C50.5,37.8,49.5,37.4,48.7,36.6z M55.3,34
		c0.5-0.5,0.9-1.2,1.1-2l1.5-7.2c0-0.3-0.1-0.5-0.3-0.8c-0.2-0.3-0.5-0.4-1-0.4c-0.8,0-1.6,0.5-2.3,1.5c-0.7,1-1.2,2.2-1.6,3.6
		c-0.4,1.4-0.6,2.6-0.6,3.7s0.2,1.7,0.5,2c0.3,0.3,0.7,0.4,1.1,0.4C54.3,34.7,54.8,34.5,55.3,34z"/>
	<path class="st0" d="M65.5,36.6c-0.9-0.8-1.3-2.1-1.3-3.8c0-1.5,0.3-3.1,0.9-4.8c0.6-1.8,1.5-3.3,2.8-4.6c1.3-1.3,2.9-1.9,4.9-1.9
		c1.3,0,2.2,0.3,2.7,0.8s0.8,1.2,0.8,2.1c0,0.7-0.2,1.3-0.5,1.7c-0.3,0.4-0.7,0.6-1.2,0.6c-0.4,0-0.7-0.1-1.1-0.4
		c0.3-0.7,0.4-1.3,0.4-1.9c0-0.4-0.1-0.7-0.2-1c-0.1-0.2-0.4-0.3-0.7-0.3c-0.6,0-1.3,0.5-1.9,1.6c-0.6,1-1.2,2.3-1.6,3.8
		s-0.6,2.8-0.6,4c0,1,0.2,1.7,0.5,2.1c0.4,0.4,0.9,0.6,1.7,0.6c1.1,0,2.1-0.3,2.9-0.8s1.7-1.3,2.7-2.4h1.1c-2.4,3.9-5.3,5.9-8.7,5.9
		C67.6,37.8,66.4,37.4,65.5,36.6z"/>
	<path class="st0" d="M85.2,36.8c-0.5-0.7-0.8-1.5-0.8-2.6c0-0.4,0.1-0.9,0.2-1.5c0.1-0.6,0.2-1.1,0.3-1.6c0.1-0.5,0.2-0.9,0.2-1
		c0.2-0.7,0.3-1.5,0.5-2.2c0.1-0.7,0.2-1.3,0.2-1.7c0-1.1-0.4-1.6-1.1-1.6c-0.5,0-1,0.2-1.4,0.7c-0.4,0.5-0.7,1.1-1,1.8l-2.3,10.6
		h-4.6L80.2,16l4.7-0.6l-1.7,8c1.1-1.2,2.3-1.7,3.7-1.7c1.1,0,1.9,0.3,2.6,0.9c0.6,0.6,1,1.5,1,2.7c0,0.6-0.1,1.3-0.2,2
		C90,28,89.8,28.9,89.5,30c-0.2,0.7-0.3,1.3-0.5,1.9c-0.1,0.6-0.2,1.1-0.2,1.5c0,0.4,0.1,0.8,0.3,1c0.2,0.2,0.5,0.3,1,0.3
		c0.5,0,0.9-0.1,1-0.2c-0.1,1.1-0.5,1.9-1.2,2.4c-0.6,0.6-1.4,0.8-2.3,0.8C86.6,37.8,85.8,37.5,85.2,36.8z"/>
</g>
</svg>
