<?xml version="1.0" encoding="utf-8"?>
<!-- Generator: Adobe Illustrator 27.2.0, SVG Export Plug-In . SVG Version: 6.00 Build 0)  -->
<svg version="1.1" id="Layer_1" xmlns="http://www.w3.org/2000/svg" xmlns:xlink="http://www.w3.org/1999/xlink" x="0px" y="0px"
	 viewBox="0 0 93.1 39.3" style="enable-background:new 0 0 93.1 39.3;" xml:space="preserve">
<style type="text/css">
	.st0{fill-rule:evenodd;clip-rule:evenodd;fill:#6CB4EE;}
	.st1{fill:#6CB4EE;}
</style>
<path class="st0" d="M34.5,15.1C34,15,34,14.8,34.3,14.5C34.8,14,38,10.4,37,7.4c-0.5-1.6-3.2-2.2-5.9,1.3c-2.8,3.6-3.8,9-3.9,13.2
	c-0.1,2.4,1.8,2.4,2.8,2.2c1-0.2,0.8,0,1.3,0c3.4,0.2,6.6-2,6.6-4.9C37.9,16.4,35.1,15.2,34.5,15.1 M29.9,16c0,0,0.6-4.2,2.6-6.5
	c1.9-2.2,2.8-1.6,3-1.1c0.3,0.6,0,3.3-1.7,5c-0.3,0.3-2.1,2.2-3.2,2.4C30.2,15.7,30,15.9,29.9,16C29.9,16,29.9,16,29.9,16
	 M35.9,21.5c-1.3,1.5-3.3,1.7-4.2,1.6c-0.9-0.1-0.8-1.4-1.6-1.9c-0.8-0.4-0.3-4.6-0.3-4.6s0.6,0.7,2.1,0c0.5-0.2,2.1-0.8,3.4,0.2
	C36.6,17.8,37.3,20,35.9,21.5 M43.7,18.1c0.2-0.2,1.5-1.4,1.2,0.8c-0.3,2.1,0.2,3.4,0.3,3.9c0.1,0.5,0.3,0.8,0.7,0.7
	c0.4-0.1,0.5-0.5,0.3-1.1c-0.5-1.6-0.3-4.3,0-5.1c0.2-0.6,0.4-1.2-0.7-1.3c-1.1-0.1-2.8,1.5-3.5,1.9c-0.7,0.4-0.7-0.1-0.7-0.4
	c0-0.3,0.2-1-0.6-1.1c-0.8-0.1-1,0.1-1.3,0.9c-0.2,0.7-0.6,3.9-0.6,4.3c0,0.4,0,1.4,0.9,1.4c0.9,0,0.9-0.3,1.1-1.1
	C41.2,20.3,43.4,18.3,43.7,18.1 M83.9,13.7c-0.1-0.2,0-0.3,0.1-0.6c0.1-0.3,0.1-1-0.2-1.3c-0.5-0.8-2.2-0.5-2.7-0.3
	c-0.4,0.1-0.5,0.3-2.1,0.4c-1.6,0.1-4.7,0.9-5.7,1.2c-1,0.3-1.8,0.2-2.2,0.1c-0.4-0.1-0.5-0.2-0.5-0.6c0-0.3,0.2-1.7,0.3-2.2
	c0.1-0.5,0.3-1.9,1-2.7c0.7-0.8,0.6-1,0.5-1.3c-0.1-0.3-0.3-1.2-0.9-1.5c-0.6-0.3-1,0.3-1.1,0.8c0,0.1-0.5,0.9-0.7,1.7
	c-0.2,0.8-0.6,3.6-0.7,4.2c-0.1,0.6-0.3,2.3-0.4,2.6c0,0.3-0.3,0.4-1,0.6C67,15,67,15.7,67.1,16c0.1,0.4,0.8,0.8,1,1
	s0.2,0.3,0.2,0.7c0,0.4-0.1,2.3-0.2,3c0,0.6-0.1,2.9-0.2,3.5c-0.1,0.6-0.1,1.1,0.5,1.1s0.5-0.7,0.5-1.2c0-0.4,0.1-2.7,0.1-3.1
	c0-0.4,0.4-0.2,0.5,0c0.1,0.2,0.1,2.2,0.1,2.7c0,0.5-0.2,1.5,0.1,1.7c0.6,0.5,1-0.4,0.9-0.6c0-0.2-0.1-0.4,0-1
	c0.1-0.6-0.2-3.1-0.2-3.9c-0.1-0.7-0.1-2.9-0.1-3.9c0-1,1.3-1.4,2.9-1.9c1.6-0.5,4.1-1,4.7-1.1c0.6-0.1,0.3,0.4,0.2,0.8
	s-1.2,2.1-1.6,2.8s-1,2.9-0.2,4.6c0.8,1.7,2.3,2.1,3.6,1.7c1.3-0.4,2.4-1.7,3.3-3c0.9-1.3,0.7-2.2,0.6-2.4c-0.1-0.2-0.1-0.4-0.1-0.5
	C84.4,15.2,84,13.9,83.9,13.7 M83.1,16.8c-0.4,1.1-1.5,3.3-3.3,4c-1.7,0.6-2.5-0.1-2.4-1.5c0.1-0.9,0.3-2,1-3.2
	c0.7-1.2,1.9-2.7,3.6-2.7C83.6,13.3,83.5,15.7,83.1,16.8 M65,20.8c0-0.6,0.2-5,0.2-5.8c0-0.8-0.2-2.2-1.2-2.2c-0.9,0-2,1.1-2.6,1.8
	c-0.5,0.7-1.9,2.7-2.1,2.9c-0.1,0.2-0.4,0.2-0.4-0.1c0-0.3,0-1.8,0.1-3.2c0.1-1.4,0.3-2.3,0.5-3.9s0.8-7.1,1-7.4
	c0.2-0.3,0.3-0.4,0.3-0.8c0-0.7-0.2-1.6-0.9-1.9c-0.7-0.3-0.7,0-1.5,0.2c-0.8,0.2-0.9,0.6-1,1.2c-0.1,0.6-0.8,9.9-0.9,10.9
	c-0.1,1-0.3,4.3-0.4,5.4c-0.1,1.1-0.4,3-0.4,3.6c0,0.6-0.2,2.2,0,2.5c0.3,0.7,1,0.5,1.4,0.1c0.4-0.5,0.3,0.1,1,0
	c0.7-0.2,0.6-0.8,0.7-1.7c0.1-0.8,0.8-2.9,1.5-4.4c0.7-1.5,2-2.9,2.7-3.6c0.7-0.7,0.8,0,0.9,0.7c0.1,0.6,0,4.3,0,5.3
	c0,1,0.2,3.4,0.2,4.2c0,0.8,0.2,0.7,0.6,0.6s0.4-0.7,0.2-1.1C65,23.7,65,21.4,65,20.8 M52.7,15c-0.7,0-3.8,0.7-4.8,4
	c-1,3.3,2.5,3.6,3.8,2c0.3-0.3,0.6-0.5,0.8,0.3c0.1,0.9,1,4.9-0.7,5.9c-0.6,0.4-1.2,1.1-3.5,1c-0.8,0-3.2-0.2-4.6-1
	c-0.4-0.5-0.5-0.7-0.7-0.7c-0.2,0-0.4,0.1-0.3,0.5c0.1,0.3,0.1,0.6,0.5,0.7c0.4,0.2,3.4,1.3,6.3,1.1c2.9-0.2,3.9-2.1,4-3
	c0.1-0.8,0.3-2.8-0.1-4.7c-0.2-0.8,0-2.1,0-2.5c0-0.4,0.2-1.2,0.6-1.6C54.5,16.6,54,15,52.7,15 M52.1,18.5c-0.1,0.3-0.8,1.6-1.6,1.9
	c-0.8,0.3-1.1,0.2-1.1-0.4c0-0.4,0.3-2.1,1.5-2.5c1-0.3,0.9,0.1,1.3,0.2C52.5,17.7,52.2,18.2,52.1,18.5 M93.1,21.6
	c-0.1-0.4-0.3-2.7-0.4-3.3c0-0.6-0.3-2.2-0.2-3.2c0-1-0.3-1.6-1.1-1.6c-0.7,0-1.6,0.5-2.2,0.7c-0.6,0.2-0.6-0.2-0.7-0.4
	c-0.2-0.2-1.2-1.1-2.2-0.6c-0.9,0.6-0.4,1.6-0.4,2.3c0.1,0.7,0.2,3.1,0,4.6c-0.2,1.5,0.6,1.8,0.9,1.8s0.8,0,0.9-1.1
	c0.1-1.1,0.6-2.4,1.2-3.6c0.6-1.2,1.2-2.1,1.9-2.1c0.7,0,0.5,1.9,0.6,2.7c0,0.8,0.4,2.9,0.4,3.6c0,0.7,0.1,1.3,0.8,1.3
	C93.3,22.8,93.2,22,93.1,21.6"/>
<path class="st0" d="M46.5,9.3c0-0.2,0.3-0.3,0.2-0.5c0-0.2-0.2-0.2-0.2-0.3c0-0.1,0-0.3-0.1-0.4c-0.1-0.1-0.1-0.3,0.2-0.3
	c0.2,0,0.2-0.2,0.2-0.3c0-0.1-0.2-0.3,0.1-0.3c0.3,0,0.3-0.2,0.2-0.3c-0.1-0.1-0.1-0.3,0.3-0.3c0.4,0,0.3-0.1,0.3-0.2
	c0-0.1,0-0.2,0.3-0.1c0.3,0,0.1-0.1,0.2-0.2c0.1,0,0.2-0.3,0.4-0.2c0.2,0.1,0.2,0.1,0.3,0c0.1-0.1,0.2,0.1,0.2,0.1
	c0.1,0.1,0.2,0,0.3-0.1c0.1-0.1,0.4-0.3,0.6-0.1c0.2,0.2,0.1,0.2,0.3,0.2c0.2,0,0.1,0.1,0.2,0.1c0.1,0.1,0.3-0.1,0.4,0.1
	c0.1,0.2,0,0.3,0.1,0.3c0.1,0,0.3,0,0.4,0.1s0,0.2,0.1,0.3C51.7,7,51.9,7.1,52,7.2c0,0.1-0.2,0.4,0,0.5c0.1,0.1,0.4,0.4,0.3,0.6
	c-0.1,0.2-0.1,0.2,0,0.3c0.1,0.1,0,0.2,0,0.3c-0.1,0.1,0,0.2-0.1,0.4c0,0.1-0.1,0.2,0,0.3c0.1,0.2-0.1,0.3-0.2,0.4
	c-0.2,0-0.1,0.2-0.1,0.3c0,0.1,0,0.3-0.3,0.3c-0.4,0-0.1,0.1-0.2,0.3c0,0.1,0,0.3-0.3,0.3c-0.3,0-0.3,0-0.4,0.2
	c0,0.1-0.1,0.4-0.4,0.2c-0.3-0.2-0.4-0.1-0.6,0.1c-0.2,0.1-0.4,0.3-0.5,0.1c-0.2-0.2-0.4-0.3-0.6-0.2c-0.2,0.1-0.5,0-0.7-0.2
	c-0.1-0.3-0.2-0.1-0.3-0.2c-0.1,0,0-0.2-0.1-0.2c-0.1-0.1-0.2-0.2-0.2-0.3c-0.1-0.1-0.1,0.2-0.3,0.2c-0.2,0-0.3-0.2-0.3-0.3
	c0-0.1,0-0.2,0.2-0.3s0.3-0.2,0-0.4C46.6,9.5,46.5,9.5,46.5,9.3"/>
<path class="st0" d="M46.6,14.9c-0.1,0-0.1-0.1-0.2-0.1c-0.1,0-0.1,0.1-0.1,0.1c0,0-0.1,0-0.2,0c-0.1,0-0.1,0-0.1-0.1
	c0-0.1-0.1-0.1-0.1-0.1c0,0-0.1,0.1-0.1-0.1c0-0.1-0.1-0.1-0.2-0.1c0,0-0.1,0-0.1-0.1c0-0.2-0.1-0.1-0.1-0.1c0,0-0.1,0-0.1-0.1
	c0-0.1-0.1,0-0.1-0.1c0-0.1-0.2-0.1-0.1-0.2c0.1-0.1,0-0.1,0-0.1c0,0,0-0.1,0.1-0.1c0,0,0-0.1,0-0.1c0,0-0.1-0.2,0-0.3
	c0.1-0.1,0.1,0,0.1-0.1s0,0,0.1-0.1c0-0.1,0-0.1,0-0.2c0.1,0,0.1,0,0.2-0.1c0-0.1,0-0.1,0.1-0.2c0.1,0,0.1,0,0.1,0
	c0,0,0-0.2,0.1-0.2c0.1,0,0.2,0.1,0.2,0c0-0.1,0.2-0.2,0.3-0.1c0.1,0,0.1,0,0.1,0s0.1,0,0.2,0c0,0,0.1,0,0.2,0c0.1,0,0.1,0,0.1,0
	c0.1,0,0.1,0,0.2,0.1c0,0.1,0.1,0.1,0.2,0.1c0.1,0,0.1,0,0.1,0.1c0,0.2,0.1,0.1,0.1,0.1c0,0,0.1,0,0.1,0.2s0,0.1,0.1,0.2
	c0.1,0,0.2,0,0.1,0.2c-0.1,0.1,0,0.2,0,0.3c0.1,0.1,0.1,0.2,0,0.2c-0.1,0.1-0.1,0.2-0.1,0.3c0,0.1,0,0.2-0.1,0.3
	c-0.1,0.1-0.1,0.1-0.1,0.1c0,0.1-0.1,0-0.1,0c0,0.1-0.1,0.1-0.1,0.1s0.1,0,0.1,0.1c0,0.1-0.1,0.1-0.1,0.1c-0.1,0-0.1,0-0.1-0.1
	s-0.1-0.1-0.2,0C46.7,14.8,46.7,14.8,46.6,14.9"/>
<path class="st0" d="M19.6,12.5c-0.1,0-0.1-0.1-0.2-0.1c-0.1,0-0.1,0.1-0.1,0.1c0,0-0.1,0-0.2,0c-0.1,0-0.1,0-0.1-0.1
	c0-0.1-0.1-0.1-0.1-0.1c0,0-0.1,0.1-0.1-0.1c0-0.1-0.1-0.1-0.2-0.1c0,0-0.1,0-0.1-0.1c0-0.2-0.1-0.1-0.1-0.1c0,0-0.1,0-0.1-0.1
	c0-0.1-0.1,0-0.1-0.1c0-0.1-0.2-0.1-0.1-0.2c0.1-0.1,0-0.1,0-0.1c0,0,0-0.1,0.1-0.1c0,0,0-0.1,0-0.1c0,0-0.1-0.2,0-0.3
	c0.1-0.1,0.1,0,0.1-0.1s0,0,0.1-0.1c0-0.1,0-0.1,0-0.2c0.1,0,0.1,0,0.2-0.1c0-0.1,0-0.1,0.1-0.2s0.1,0,0.1,0c0,0,0-0.2,0.1-0.2
	c0.1,0,0.2,0.1,0.2,0c0-0.1,0.2-0.2,0.3-0.1c0.1,0,0.1,0,0.1,0s0.1,0,0.2,0c0,0,0.1,0,0.2,0c0.1,0,0.1,0,0.1,0c0.1,0,0.1,0,0.2,0.1
	c0,0.1,0.1,0.1,0.2,0.1c0.1,0,0.1,0,0.1,0.1c0,0.2,0.1,0.1,0.1,0.1c0,0,0.1,0,0.1,0.2s0,0.1,0.1,0.2c0.1,0,0.2,0,0.1,0.2
	c-0.1,0.1,0,0.2,0,0.3c0.1,0.1,0.1,0.2,0,0.2c-0.1,0.1-0.1,0.2-0.1,0.3c0,0.1,0,0.2-0.1,0.3C20.3,12,20.4,12,20.4,12
	c0,0.1-0.1,0-0.1,0c0,0.1-0.1,0.1-0.1,0.1c0,0,0.1,0,0.1,0.1c0,0.1-0.1,0.1-0.1,0.1c-0.1,0-0.1,0-0.1-0.1s-0.1-0.1-0.2,0
	C19.7,12.5,19.7,12.5,19.6,12.5"/>
<path class="st0" d="M10.2,13c-0.1,0-0.1-0.1-0.2-0.1c-0.1,0-0.1,0.1-0.1,0.1s-0.1,0-0.1,0c0,0-0.1,0-0.1-0.1c0-0.1-0.1-0.1-0.1-0.1
	c0,0-0.1,0.1-0.1,0c0-0.1-0.1-0.1-0.1-0.1c0,0-0.1,0-0.1-0.1c0-0.1,0-0.1-0.1-0.1c0,0-0.1,0,0-0.1c0-0.1,0,0-0.1-0.1
	c0,0-0.1-0.1-0.1-0.1c0-0.1,0-0.1,0-0.1s0-0.1,0-0.1C9,12,9,12,9,12c0,0-0.1-0.1,0-0.2C9,11.7,9,11.7,9,11.7c0-0.1,0,0,0-0.1
	c0,0,0-0.1,0-0.1c0.1,0,0.1,0,0.1,0c0,0,0-0.1,0-0.1c0.1,0,0.1,0,0.1,0s0-0.1,0.1-0.1c0.1,0,0.1,0.1,0.2,0c0,0,0.1-0.1,0.2-0.1
	c0.1,0,0.1,0,0.1,0c0,0,0.1,0,0.1,0c0,0,0.1,0,0.1,0c0,0,0.1,0,0.1,0c0.1,0,0.1,0,0.1,0.1c0,0.1,0.1,0,0.1,0c0,0,0.1,0,0.1,0.1
	c0,0.1,0,0,0.1,0.1c0,0,0.1,0,0.1,0.1c0,0.1,0,0.1,0.1,0.1c0,0,0.1,0,0.1,0.1c-0.1,0.1,0,0.1,0,0.2c0,0.1,0.1,0.1,0,0.2
	c-0.1,0.1-0.1,0.1-0.1,0.2c0,0.1,0,0.2-0.1,0.2c-0.1,0,0,0.1-0.1,0.1c0,0-0.1,0-0.1,0c0,0-0.1,0.1-0.1,0.1c0,0,0.1,0,0.1,0.1
	c0,0.1-0.1,0.1-0.1,0.1c0,0-0.1,0-0.1-0.1c0,0-0.1-0.1-0.1,0C10.2,13,10.2,13,10.2,13"/>
<path class="st0" d="M22.3,8.2L22.3,8.2c-0.5,0.2-0.3,0.7-0.2,1c0.1,0.2,0.1,0.4,0.1,0.6c0,0-0.3,3.2-0.3,4c0,0.4-0.3,0.5-0.7,0.5
	l-0.2,0l-0.2,0c-0.2,0-0.5,0.1-0.6,0.4c-0.1,0.2-0.1,0.4,0,0.5c0.1,0.2,0.4,0.3,0.5,0.3l0.2,0c0.2,0,0.6,0,0.7,0.2
	c0,0,0.1,0.1,0.1,0.2c-0.1,0.9-0.3,5-0.4,6.5l0,0.5c0,0.3,0.1,0.4,0.2,0.5c0.1,0.1,0.3,0.1,0.4,0c0.1-0.1,0.2-0.2,0.2-0.3
	c0,0,0,0,0,0c0-0.2,0-0.5,0-0.8c0-1.2,0.1-2.9,0.2-3.7c0,0.3,0.1,0.9,0.1,1.5c0.1,1,0.2,2.2,0.2,2.6c0,0,0,0,0,0.1
	c0,0.2-0.1,0.3-0.1,0.5c-0.1,0.2-0.1,0.4-0.1,0.5c0,0.1,0,0.2,0.1,0.3c0.1,0.1,0.3,0.2,0.5,0.3c0.2,0,0.4,0,0.5-0.2
	c0.2-0.2,0.1-0.7,0-1.2c0-0.2-0.1-0.4-0.1-0.6c-0.1-0.8-0.3-6.4-0.3-6.7l0-0.1c0-0.2,0-0.3,0.3-0.4l1.1-0.3C25.2,15,25.6,15,26,15
	c0.2,0,0.5,0,0.8,0c0.3,0,0.5-0.1,0.6-0.3c0.1-0.3-0.2-0.8-0.4-1l0,0c-0.3-0.4-0.5-0.4-1.8,0c-0.3,0.1-0.8,0.2-1.3,0.3l-0.3,0
	c-0.3,0-0.4,0-0.4,0c0,0,0-0.2,0-0.4l0-0.1c0-0.5,0.1-3,0.2-3.9c0.1-0.9-0.1-1.3-0.3-1.5C22.8,8,22.5,8,22.3,8.2"/>
<path class="st0" d="M17.7,14.9c-0.3,0.3-0.2,0.8-0.2,1.3c0,0.2,0,0.4,0.1,0.6c0,0.8-0.2,3.2-0.3,4c-0.1,0.6-0.1,0.9,0.1,1.1
	c0.1,0.1,0.3,0.2,0.6,0.2c0.2,0,0.4-0.1,0.5-0.2c0.2-0.2,0.2-0.6,0.2-1.2c-0.1-0.8,0.2-3.5,0.5-4.3c0.3-0.5,0.3-1.1,0.1-1.4
	c-0.2-0.3-0.4-0.4-0.8-0.4C18,14.7,17.8,14.7,17.7,14.9"/>
<path class="st0" d="M12.1,16.5c-0.4,0.4-0.6,0.9-0.6,1.3c0,0.1,0,0.2,0,0.3c0.1,0.4,0.5,0.7,1.1,0.9c0.7,0.2,1.5,0.5,1.6,0.8
	c0,0,0,0,0,0.1c0,0.2-0.2,0.4-0.5,0.7c-1.2,1-1.5,1-1.7,1c-0.2,0-0.6,0.1-0.7,0.4c0,0,0,0.1,0,0.2c0,0.1,0,0.3,0.2,0.4
	c0.4,0.5,0.9,0.1,1.1-0.1l0.2-0.1l0.1,0c1.5-0.9,2.3-1.7,2.3-2.5c0-0.9-0.8-1.1-1.4-1.3c-0.2-0.1-0.4-0.1-0.5-0.2
	c-0.2-0.1-0.2-0.2-0.1-0.3c0.1-0.5,1.2-1.2,2.4-1.3c0.6,0,1-0.3,1.1-0.7c0.1-0.2,0-0.7-0.9-1.2C15,14.4,12.7,15.7,12.1,16.5"/>
<path class="st0" d="M8.5,14.9L8.5,14.9c-0.1,0.3,0,0.5,0,0.7c0.1,0.2,0.1,0.5,0.1,1c-0.1,0.6-0.1,2.3-0.2,3.6l-0.1,1.6
	c0,0.2-0.1,0.5-0.1,0.7c-0.1,0.5-0.2,0.9,0.2,1.3C8.7,24,9.1,24,9.3,23.8c0.3-0.2,0.4-0.6,0.3-0.9c-0.1-0.2-0.2-1.1,0-3.8
	c0.1-1.4,0.5-3.3,0.6-3.6c0.1-0.3,0.1-0.7,0-1c-0.1-0.3-0.4-0.4-0.7-0.5C8.7,14.1,8.6,14.5,8.5,14.9"/>
<path class="st0" d="M5.9,13.7l-0.1,0.4c-0.1,0.7-1.9,5.8-2.1,6.3l0,0.1C3.6,20.9,3.5,21,3.4,21c0,0-0.1,0-0.2-0.4
	c-0.3-1.1-0.7-4.4-0.7-6c0-0.1,0-0.2,0-0.3c0-0.1,0-0.1,0-0.2c0-0.5-0.1-0.9-0.4-1.1c-0.2-0.2-0.5-0.1-0.7-0.1c-0.1,0-0.2,0-0.4,0
	c-0.3,0-0.7,0-1,0.4c-0.2,0.3-0.1,0.9,0.2,1.1c0.3,0.2,0.5,0.9,0.7,1.7l0.1,0.3c0.3,1.1,1.4,6,1.3,6.5c0,0.3,0,0.8,0.3,1
	c0.2,0.2,0.4,0.2,0.7,0.2C4,24.1,4,23.6,4,23.1c0-0.3,0-0.5,0.1-0.8c0.2-0.8,2.1-6.6,2.5-7.6c0.1-0.2,0.2-0.5,0.3-0.7
	c0.2-0.5,0.4-0.8,0.3-1.1c-0.1-0.1-0.2-0.2-0.4-0.2C6.1,12.7,6,13.2,5.9,13.7"/>
<polygon class="st1" points="13.2,37.7 12.4,37.7 11.5,34.7 11.5,34.7 10.5,37.7 9.8,37.7 8.6,34.1 9.3,34.1 10.2,37.1 10.2,37.1 
	11.1,34.1 11.9,34.1 12.8,37.1 12.8,37.1 13.7,34.1 14.4,34.1 "/>
<polygon class="st1" points="19.4,37.7 18.6,37.7 17.6,34.7 17.6,34.7 16.7,37.7 15.9,37.7 14.8,34.1 15.5,34.1 16.3,37.1 
	16.3,37.1 17.3,34.1 18.1,34.1 19,37.1 19,37.1 19.9,34.1 20.6,34.1 "/>
<polygon class="st1" points="25.6,37.7 24.8,37.7 23.8,34.7 23.8,34.7 22.9,37.7 22.1,37.7 20.9,34.1 21.7,34.1 22.5,37.1 
	22.5,37.1 23.5,34.1 24.2,34.1 25.2,37.1 25.2,37.1 26.1,34.1 26.7,34.1 "/>
<rect x="27.1" y="36.9" class="st1" width="0.8" height="0.8"/>
<polygon class="st1" points="30.3,37.7 29.5,37.7 28.2,34.1 28.9,34.1 29.9,37.1 29.9,37.1 30.9,34.1 31.6,34.1 "/>
<path class="st1" d="M33,33.3h-0.8v-0.8H33V33.3z M32.3,34.1h0.7v3.7h-0.7V34.1z"/>
<path class="st1" d="M33.8,37c0.3,0.2,0.6,0.3,0.8,0.3c0.3,0,0.7-0.1,0.7-0.5c0-0.7-1.6-0.6-1.6-1.6c0-0.8,0.6-1.1,1.3-1.1
	c0.3,0,0.6,0.1,0.8,0.1l-0.1,0.6c-0.2-0.1-0.6-0.2-0.7-0.2c-0.3,0-0.6,0.1-0.6,0.4c0,0.7,1.6,0.5,1.6,1.7c0,0.8-0.6,1.1-1.3,1.1
	c-0.3,0-0.7,0-1-0.2L33.8,37"/>
<path class="st1" d="M37.6,33.3h-0.8v-0.8h0.8V33.3z M36.9,34.1h0.7v3.7h-0.7V34.1z"/>
<path class="st1" d="M40.7,34.6h-1v2c0,0.4,0.3,0.7,0.6,0.7c0.2,0,0.4-0.1,0.5-0.1v0.6c-0.2,0-0.4,0.1-0.6,0.1
	c-0.7,0-1.1-0.3-1.1-1.1v-2.1h-0.8v-0.5H39v-0.8l0.7-0.2v1.1h1V34.6"/>
<path class="st1" d="M41.4,32.4h0.7v2.2h0c0.2-0.3,0.6-0.6,1.2-0.6c1.1,0,1.6,0.9,1.6,1.8c0,1-0.5,2-1.6,2c-0.7,0-1.1-0.3-1.2-0.6h0
	v0.5h-0.6V32.4 M43.2,34.5c-0.7,0-1.1,0.7-1.1,1.4c0,0.6,0.3,1.4,1.1,1.4c0.7,0,1-0.8,1-1.4C44.2,35.2,43.9,34.5,43.2,34.5"/>
<path class="st1" d="M45.7,34.1h0.6v0.6h0c0.2-0.4,0.6-0.7,1-0.7c0.2,0,0.3,0,0.4,0v0.6c-0.1,0-0.3-0.1-0.4-0.1c-0.6,0-1,0.6-1,1.5
	v1.7h-0.7V34.1"/>
<path class="st1" d="M49.2,33.3h-0.8v-0.8h0.8V33.3z M48.5,34.1h0.7v3.7h-0.7V34.1z"/>
<path class="st1" d="M53.5,37.6c0,1.1-0.6,1.7-1.9,1.7c-0.4,0-0.7,0-1.3-0.2l0.1-0.6c0.5,0.2,0.8,0.3,1.3,0.3c0.7,0,1.1-0.5,1.1-1.3
	v-0.4h0c-0.3,0.4-0.8,0.6-1.2,0.6c-1,0-1.6-0.9-1.6-1.8c0-0.9,0.5-1.9,1.6-1.9c0.6,0,1,0.2,1.2,0.6h0v-0.5h0.6V37.6 M52.8,36
	c0-0.8-0.4-1.4-1.1-1.4c-0.7,0-1,0.7-1,1.4c0,0.7,0.4,1.3,1,1.3C52.4,37.2,52.8,36.6,52.8,36"/>
<path class="st1" d="M54.6,32.4h0.7v2.2h0c0.2-0.4,0.7-0.6,1.2-0.6c0.9,0,1.4,0.6,1.4,1.6v2.2h-0.7v-1.9c0-0.9-0.2-1.3-0.8-1.3
	c-0.8,0-1.1,0.6-1.1,1.5v1.7h-0.7V32.4"/>
<path class="st1" d="M60.8,34.6h-1v2c0,0.4,0.3,0.7,0.6,0.7c0.2,0,0.4-0.1,0.5-0.1v0.6c-0.2,0-0.4,0.1-0.6,0.1
	c-0.7,0-1.1-0.3-1.1-1.1v-2.1h-0.8v-0.5h0.8v-0.8l0.7-0.2v1.1h1V34.6"/>
<path class="st1" d="M63.1,34c1.1,0,1.9,0.8,1.9,1.9c0,1-0.8,1.9-1.9,1.9c-1.1,0-1.9-0.9-1.9-1.9C61.2,34.8,62,34,63.1,34
	 M63.1,37.3c0.8,0,1.1-0.7,1.1-1.4c0-0.7-0.4-1.4-1.1-1.4c-0.7,0-1.1,0.7-1.1,1.4C62,36.6,62.3,37.3,63.1,37.3"/>
<path class="st1" d="M65.8,34.1h0.7v0.6h0c0.2-0.4,0.7-0.7,1.2-0.7c0.9,0,1.4,0.6,1.4,1.6v2.2h-0.7v-1.9c0-0.9-0.2-1.3-0.8-1.3
	c-0.8,0-1.1,0.6-1.1,1.5v1.7h-0.7V34.1"/>
<rect x="70.1" y="36.9" class="st1" width="0.8" height="0.8"/>
<path class="st1" d="M74.3,34.7c-0.3-0.1-0.5-0.2-0.7-0.2c-0.8,0-1.2,0.7-1.2,1.4c0,0.7,0.4,1.4,1.2,1.4c0.2,0,0.5-0.1,0.7-0.2
	l0.1,0.6c-0.3,0.1-0.6,0.2-0.8,0.2c-1.1,0-1.9-0.9-1.9-1.9c0-1.1,0.7-1.9,1.9-1.9c0.3,0,0.6,0.1,0.8,0.1L74.3,34.7"/>
<path class="st1" d="M76.6,34c1.1,0,1.9,0.8,1.9,1.9c0,1-0.8,1.9-1.9,1.9c-1.1,0-1.9-0.9-1.9-1.9C74.7,34.8,75.5,34,76.6,34
	 M76.6,37.3c0.8,0,1.1-0.7,1.1-1.4c0-0.7-0.4-1.4-1.1-1.4c-0.7,0-1.1,0.7-1.1,1.4C75.5,36.6,75.8,37.3,76.6,37.3"/>
<path class="st1" d="M79.3,34.1h0.6v0.5h0c0.3-0.4,0.6-0.6,1.2-0.6c0.4,0,0.8,0.2,1,0.7c0.3-0.5,0.8-0.7,1.1-0.7
	c0.9,0,1.3,0.6,1.3,1.4v2.3h-0.7v-2.2c0-0.5-0.1-1-0.7-1c-0.7,0-1,0.7-1,1.4v1.8h-0.7v-2.2c0-0.5-0.1-1-0.7-1c-0.7,0-1,0.7-1,1.4
	v1.8h-0.7V34.1"/>
</svg>
