<?xml version="1.0" encoding="utf-8"?>
<!-- Generator: Adobe Illustrator 27.2.0, SVG Export Plug-In . SVG Version: 6.00 Build 0)  -->
<svg version="1.1" id="Layer_1" xmlns="http://www.w3.org/2000/svg" xmlns:xlink="http://www.w3.org/1999/xlink" x="0px" y="0px"
	 viewBox="0 0 300 250" style="enable-background:new 0 0 300 250;" xml:space="preserve">
<style type="text/css">
	.st0{clip-path:url(#SVGID_00000065787363671982125880000006089851874740878525_);}
	.st1{fill:none;}
	.st2{fill:url(#SVGID_00000081624120448116325300000001098348116543470728_);}
	.st3{fill:#FFC068;}
	.st4{fill:#FFFFFF;}
	.st5{fill:#9EB072;}
	.st6{fill:url(#SVGID_00000152975418091144484360000013863826675113819272_);}
	.st7{fill:#3E83B9;}
	.st8{fill:#A46F47;}
	.st9{fill:#CA9642;}
	.st10{fill:#E3BF59;}
	.st11{fill:#8B5C29;}
	.st12{fill:#B57A00;}
	.st13{fill:#D89E40;}
	.st14{fill:#E3BF63;}
	.st15{fill:#D8B567;}
	.st16{fill:#E8DE9E;}
	.st17{fill:#935E3A;}
	.st18{fill:#CA845A;}
	.st19{fill:#E3D159;}
	.st20{fill:#E39E59;}
	.st21{fill:url(#SVGID_00000026871918391964170820000003860983909419768715_);}
	.st22{fill:url(#SVGID_00000144306727545168606730000003831913564566923164_);}
	.st23{fill:#FFFF00;}
	.st24{fill:url(#SVGID_00000150807336829099788480000013521482056220564883_);}
	.st25{fill:url(#SVGID_00000085245805806853642810000003783692295004246691_);}
	.st26{fill:url(#SVGID_00000062186335917449439090000016442376280822974901_);}
	.st27{fill:url(#SVGID_00000023991938631051740710000011491230058409146287_);}
	.st28{fill:url(#SVGID_00000146469572932828918920000017775009001368476809_);}
	.st29{fill:url(#SVGID_00000089545446774894868820000011107314870296797873_);}
	.st30{fill:url(#SVGID_00000021099858836047061550000011020823080225892761_);}
	.st31{fill:url(#SVGID_00000142170505988735262250000003783061515652332222_);}
	.st32{fill:url(#SVGID_00000168836689149080686150000016648712266086340541_);}
	.st33{fill:url(#SVGID_00000146468087975932176840000015656812377828906681_);}
	.st34{fill:url(#SVGID_00000018211089186543484840000007111209063494664855_);}
	.st35{fill:url(#SVGID_00000033344465592055595130000002986874729430397602_);}
	.st36{fill:url(#SVGID_00000018235312260118193560000009213579331926205357_);}
	.st37{fill:url(#SVGID_00000006681313583591359690000014228957786333063324_);}
	.st38{fill:url(#SVGID_00000090997235087252998900000006523411390212398497_);}
	.st39{fill:url(#SVGID_00000180346849729720318670000012342140333287936154_);}
	.st40{fill:url(#SVGID_00000124136540565563844020000017563189635952868025_);}
	.st41{fill:url(#SVGID_00000126301187960869353060000013438444486218582183_);}
	.st42{fill:url(#SVGID_00000161600008009431523110000004648509651856431243_);}
	.st43{fill:url(#SVGID_00000130610235066490239060000006850504275194354305_);}
	.st44{fill:url(#SVGID_00000026863322522447880880000014032926481966041249_);}
	.st45{fill:url(#SVGID_00000159432570773585970030000013128564236269072811_);}
	.st46{fill:#785C35;}
	.st47{fill:#579F9A;}
	.st48{opacity:0.1;}
	.st49{fill:#FFEBBA;}
	.st50{fill:#9CCFB4;}
	.st51{fill:#DE4C53;}
	.st52{fill:#634A2D;}
	.st53{fill:#43837E;}
	.st54{fill:#F8B250;}
	.st55{fill:#EDA045;}
</style>
<g id="Layer_1_00000140004110845316601370000004859630412723269005_">
	<g id="birds">
		<g>
			<g>
				<g>
					<g>
						<defs>
							<rect id="SVGID_1_" width="300" height="250"/>
						</defs>
						<clipPath id="SVGID_00000026163205840460755620000011664730212142867102_">
							<use xlink:href="#SVGID_1_"  style="overflow:visible;"/>
						</clipPath>
						<g style="clip-path:url(#SVGID_00000026163205840460755620000011664730212142867102_);">
							<rect class="st1" width="300" height="250"/>
							
								<linearGradient id="SVGID_00000096776492726097647080000017728360953616366757_" gradientUnits="userSpaceOnUse" x1="148.3" y1="-0.39" x2="148.3" y2="250.18" gradientTransform="matrix(1 0 0 -1 0 250)">
								<stop  offset="0" style="stop-color:#FAAB19"/>
								<stop  offset="0" style="stop-color:#FAAD20"/>
								<stop  offset="8.000000e-02" style="stop-color:#FBC55C"/>
								<stop  offset="0.15" style="stop-color:#FCD88E"/>
								<stop  offset="0.22" style="stop-color:#FDE8B5"/>
								<stop  offset="0.28" style="stop-color:#FEF3D1"/>
								<stop  offset="0.33" style="stop-color:#FEF9E2"/>
								<stop  offset="0.37" style="stop-color:#FFFCE8"/>
								<stop  offset="0.42" style="stop-color:#F6F8E7"/>
								<stop  offset="0.51" style="stop-color:#DEF0E4"/>
								<stop  offset="0.62" style="stop-color:#B8E3DF"/>
								<stop  offset="0.74" style="stop-color:#83D0D9"/>
								<stop  offset="0.88" style="stop-color:#3FB8D2"/>
								<stop  offset="1" style="stop-color:#00A2CB"/>
							</linearGradient>
							
								<rect x="-28.4" style="fill:url(#SVGID_00000096776492726097647080000017728360953616366757_);" width="353.4" height="249.8"/>
							<path class="st3" d="M244.2,13.5c0,5.5-4.5,9.9-9.9,9.9c-5.5,0-9.9-4.5-9.9-9.9s4.5-9.9,9.9-9.9
								C239.8,3.5,244.2,8,244.2,13.5z"/>
							<path class="st4" d="M9.2,7.4c0.2,0,0.5,0.1,0.7,0.1c0-0.1-0.1-0.2,0-0.3c0-0.5,0.6-0.9,1.3-0.8c0.1,0,0.2,0,0.3,0
								c0.4-0.5,1.2-0.9,2.1-0.8c1,0,1.8,0.5,2.1,1.2c0.3-0.1,0.7-0.1,1.1-0.1c1.6,0.1,2.9,1.1,2.8,2.2s-1.4,2-3,1.9
								c-0.3,0-0.5-0.1-0.8-0.1c-0.4,0.4-1.1,0.6-1.9,0.6c-1-0.1-1.9-0.5-2.2-1.2c-0.3,0.1-0.6,0.2-1,0.1c-0.6,0-1.1-0.2-1.4-0.5
								c-0.1,0-0.2,0-0.2,0c-0.9,0-1.6-0.6-1.6-1.2C7.5,7.9,8.3,7.4,9.2,7.4z"/>
							<path class="st4" d="M291.3,12c0-1.7-1.6-3.1-3.6-3.1c-0.5,0-1,0.1-1.4,0.2c-0.4-0.9-1.5-1.6-2.7-1.6c-1.1,0-2.2,0.5-2.7,1.3
								c-0.1,0-0.2,0-0.3,0c0.7-0.9,0.8-2.1,0.4-3c-0.7-1.5-2.8-2-4.6-1.1c-0.4,0.2-0.8,0.5-1.2,0.8c-0.8-0.6-2-0.7-3.2-0.2
								c-1,0.5-1.7,1.4-1.8,2.4c-0.1,0-0.2,0.1-0.3,0.1c-0.8,0.4-1.2,1.2-0.8,1.9c0.1,0.1,0.1,0.2,0.2,0.3c-0.3,0-0.6,0.1-0.9,0.2
								c-0.9,0.4-1.3,1.3-1.2,2c-0.1,0-0.2,0-0.2,0c-0.4,0-0.7,0.1-1,0.3c-0.4-0.7-1.2-1.1-2.2-1c-0.9,0.1-1.6,0.6-1.9,1.2
								c-0.1,0-0.2,0-0.2,0c-0.7,0.1-1.1,0.6-1.1,1.1c0,0.1,0,0.2,0.1,0.3c-0.2-0.1-0.4-0.1-0.7-0.1c-0.8,0.1-1.5,0.7-1.4,1.4
								c0.1,0.7,0.8,1.2,1.7,1.1c0.1,0,0.1,0,0.2,0c0.4,0.3,0.8,0.4,1.4,0.3c0.3,0,0.6-0.1,0.9-0.3c0.4,0.7,1.3,1.1,2.2,1
								c0.7-0.1,1.3-0.4,1.7-0.9c0.2,0,0.5,0,0.8,0c0.9-0.1,1.6-0.5,2.1-1.1c0.2,0,0.3,0.1,0.4,0.1s0.2,0,0.3,0
								c0.4,0.4,1.1,0.7,1.8,0.7c0.4,0,0.9-0.1,1.2-0.2c0.4,0.9,1.5,1.6,2.8,1.6c1,0,1.8-0.3,2.4-0.9c0.3,0.1,0.7,0.1,1,0.1
								c1.4,0,2.6-0.6,3.3-1.6c0.4,0.2,0.9,0.3,1.5,0.3c1,0,1.8-0.3,2.4-0.9c0.3,0.1,0.6,0.1,1,0.1C289.6,15,291.2,13.6,291.3,12
								L291.3,12z"/>
							<path class="st4" d="M213.4,9c-0.2-1.4-1.7-2.2-3.2-1.8c-0.4,0.1-0.8,0.2-1,0.4c-0.5-0.7-1.4-1-2.3-0.9
								c-0.9,0.2-1.5,0.9-1.8,1.6c-0.1,0-0.2,0-0.2,0c0.3-0.9,0.3-1.8-0.2-2.5c-0.9-1.1-2.5-1.2-3.6-0.1c-0.3,0.2-0.6,0.6-0.8,1
								c-0.7-0.3-1.6-0.2-2.4,0.4c-0.7,0.6-1,1.5-1,2.3c-0.1,0-0.2,0.1-0.2,0.2c-0.6,0.4-0.7,1.2-0.3,1.7c0.1,0.1,0.2,0.2,0.2,0.2
								c-0.2,0.1-0.4,0.2-0.6,0.3c-0.6,0.5-0.8,1.3-0.6,1.8c-0.1,0-0.1,0-0.2,0.1c-0.3,0.1-0.6,0.2-0.8,0.4c-0.4-0.4-1-0.7-1.8-0.4
								c-0.6,0.2-1,0.8-1.2,1.4c-0.1,0-0.2,0-0.2,0.1c-0.5,0.2-0.8,0.7-0.6,1.1c0,0.1,0.1,0.2,0.1,0.2c-0.2,0-0.3,0-0.6,0.1
								c-0.6,0.2-1,0.9-0.9,1.4c0.2,0.6,0.9,0.9,1.4,0.6c0.1,0,0.1,0,0.2-0.1c0.3,0.2,0.7,0.2,1,0c0.2-0.1,0.5-0.2,0.6-0.4
								c0.4,0.5,1.1,0.7,1.8,0.4c0.6-0.2,1-0.6,1.1-1c0.2,0,0.4-0.1,0.6-0.1c0.6-0.2,1.1-0.7,1.4-1.3c0.1,0,0.2,0,0.4,0
								c0.1,0,0.2,0,0.2-0.1c0.4,0.2,1,0.3,1.4,0.2c0.3-0.1,0.6-0.2,0.9-0.4c0.5,0.7,1.4,1,2.4,0.9c0.7-0.2,1.3-0.6,1.6-1.2
								c0.2,0,0.6,0,0.8-0.1c1-0.2,1.8-1,2.2-1.9c0.4,0.1,0.8,0.1,1.1,0c0.7-0.2,1.3-0.6,1.6-1.2c0.2,0,0.6,0,0.8-0.1
								C212.7,11.9,213.7,10.4,213.4,9L213.4,9z"/>
							<path class="st4" d="M36.1,14.6c0.4-0.2,0.9-0.2,1.3-0.2c-0.1-0.2-0.2-0.3-0.3-0.5c-0.4-1,0.3-2.2,1.5-2.6
								c0.2-0.1,0.3-0.1,0.5-0.1c0.3-1.4,1.4-2.6,3-3.2c1.7-0.6,3.5-0.3,4.6,0.8c0.5-0.4,1.2-0.8,1.9-1.1c2.8-1,5.8,0,6.6,2.4
								c0.9,2.3-0.7,5.1-3.5,6.1c-0.5,0.2-1,0.3-1.4,0.3c-0.5,1.1-1.5,2-2.8,2.5c-1.8,0.7-3.7,0.3-4.8-0.8c-0.4,0.4-0.9,0.8-1.6,1
								c-1,0.3-2,0.3-2.8,0c-0.1,0.1-0.2,0.1-0.4,0.2c-1.6,0.6-3.2,0-3.7-1.3C33.6,16.7,34.5,15.2,36.1,14.6L36.1,14.6z"/>
							<path class="st4" d="M106.2,10.9c-0.1-1.4-1.5-2.5-3.3-2.4c-0.4,0-0.8,0.1-1.2,0.3c-0.4-0.8-1.3-1.2-2.4-1.1
								c0.1-0.5,0-1-0.3-1.4c-0.7-1.2-2.4-1.6-4-0.8c-0.4,0.2-0.7,0.4-1,0.8c-0.7-0.5-1.7-0.5-2.7-0.1c-0.8,0.4-1.3,1.3-1.4,2
								c-0.1,0.1-0.2,0.1-0.3,0.1C89,8.7,88.7,9.4,89,9.9c0.1,0.1,0.1,0.2,0.2,0.3c-0.3,0.1-0.5,0.1-0.7,0.3
								c-0.3,0.2-0.6,0.4-0.8,0.7c-0.7,0.3-1.1,0.7-1.1,1.2c0,0.1,0.1,0.2,0.1,0.3c-0.3-0.1-0.6-0.1-1,0c-1.3,0.1-2.2,0.9-2.1,1.7
								s1.2,1.3,2.4,1.1c0.1,0,0.2-0.1,0.3-0.1c0.5,0.3,1.3,0.4,2,0.3c0.5-0.1,1-0.2,1.3-0.4c0.6,0.7,1.9,1.1,3.3,1
								c0.3-0.1,0.4-0.1,0.7-0.1c0.6,0.4,1.3,0.7,2.2,0.7c1,0,1.8-0.4,2.4-1c0.3,0.1,0.7,0.1,1,0.1c1.7,0,3.2-1,3.6-2.4
								C105,13.4,106.3,12.2,106.2,10.9L106.2,10.9z"/>
							<path class="st5" d="M324.9,249.5H-28.4v-94.7c0,0,21.5,2.5,50.3-3.5c24.1-5,50.6-12.4,91.5,0.1c17.3,3,23.9-6.7,54.4,0.3
								c31.5,7.2,56.8-10.2,91.9-12c23.6-1.2,65.1,13.8,65.1,13.8L324.9,249.5L324.9,249.5z"/>
							
								<linearGradient id="SVGID_00000152258621736336240760000011808117602051354778_" gradientUnits="userSpaceOnUse" x1="147.9445" y1="0.6096" x2="148.6945" y2="93.0896" gradientTransform="matrix(1 0 0 -1 0 250)">
								<stop  offset="0" style="stop-color:#1C477E"/>
								<stop  offset="0.15" style="stop-color:#285D94"/>
								<stop  offset="0.35" style="stop-color:#3576AC"/>
								<stop  offset="0.53" style="stop-color:#3D85BB"/>
								<stop  offset="0.68" style="stop-color:#408BC1"/>
								<stop  offset="1" style="stop-color:#4CA8D3"/>
							</linearGradient>
							
								<rect x="-28.4" y="161.6" style="fill:url(#SVGID_00000152258621736336240760000011808117602051354778_);" width="353.4" height="87.9"/>
							<g>
								<polygon class="st4" points="20.9,150.6 14,170.1 21.4,172.4 								"/>
								<path class="st3" d="M17,172.8h6.5l-1.5,1.4c0,0-0.5,0.3-1.7,0.3s-1.9-0.3-1.9-0.3L17,172.8z"/>
							</g>
							<g>
								<polygon class="st4" points="278.8,150.6 271.9,170.1 279.3,172.4 								"/>
								<path class="st3" d="M274.9,172.8h6.5l-1.5,1.4c0,0-0.5,0.3-1.7,0.3s-1.9-0.3-1.9-0.3L274.9,172.8z"/>
							</g>
							<g>
								<polygon class="st4" points="35.5,156.2 32,166.2 35.8,167.4 								"/>
								<path class="st3" d="M33.5,167.6h3.3l-0.8,0.7c0,0-0.2,0.1-0.9,0.1s-1-0.1-1-0.1L33.5,167.6L33.5,167.6z"/>
							</g>
							<path class="st7" d="M16.8,55.8c0.6-0.2,1.2-0.4,1.8-0.3c0.3,0,1,0.5,1.2,0.4c0.3-0.1,0.7-0.4,0.9-0.4
								c0.7-0.1,1.5,0.2,2.1,0.5c-0.3-0.2-1.3-0.1-1.6-0.1c-0.5,0-0.9,0.4-1.4,0.4s-0.9-0.3-1.4-0.4C18,55.8,17.4,55.9,16.8,55.8z"
								/>
							<path class="st7" d="M23.4,53.8c1-0.4,2.1-0.7,3.1-0.5c0.5,0.1,1.8,0.8,2.2,0.6c0.5-0.2,1.1-0.7,1.6-0.7
								c1.2-0.2,2.6,0.2,3.7,0.8c-0.5-0.2-2.3-0.1-2.8,0c-0.9,0.1-1.6,0.7-2.4,0.8c-0.9,0.1-1.6-0.5-2.4-0.7
								C25.4,53.7,24.3,53.9,23.4,53.8L23.4,53.8z"/>
							<path class="st7" d="M246.9,17.5c1-0.4,2.1-0.7,3.1-0.5c0.5,0.1,1.8,0.8,2.2,0.6c0.5-0.2,1.1-0.7,1.6-0.7
								c1.2-0.2,2.6,0.2,3.7,0.8c-0.5-0.2-2.3-0.1-2.9,0c-0.9,0.1-1.6,0.7-2.4,0.8c-0.9,0.1-1.6-0.5-2.4-0.7
								C248.8,17.4,247.8,17.5,246.9,17.5L246.9,17.5z"/>
							<path class="st7" d="M267.6,36.3c1-0.4,2.1-0.7,3.1-0.6c0.5,0.1,1.8,0.8,2.2,0.6c0.5-0.2,1.1-0.7,1.6-0.7
								c1.2-0.2,2.6,0.2,3.7,0.8c-0.5-0.2-2.3-0.1-2.9-0.1c-0.9,0.1-1.6,0.7-2.4,0.8c-0.9,0.1-1.6-0.5-2.4-0.7
								C269.6,36.2,268.6,36.4,267.6,36.3L267.6,36.3z"/>
							<path class="st7" d="M147.1,40.9c1-0.4,2.1-0.7,3.1-0.5c0.5,0.1,1.8,0.8,2.2,0.6c0.5-0.2,1.1-0.7,1.6-0.7
								c1.2-0.2,2.6,0.2,3.7,0.8c-0.5-0.2-2.3-0.1-2.9,0c-0.9,0.1-1.6,0.7-2.4,0.8c-0.9,0.1-1.6-0.5-2.4-0.7
								C149,40.8,148,40.9,147.1,40.9L147.1,40.9z"/>
							<path class="st7" d="M16.8,20.2c0.5-0.6,1.1-1.1,1.9-1.3c0.3-0.1,1.4,0,1.6-0.3s0.5-0.8,0.8-1c0.7-0.5,1.8-0.7,2.7-0.7
								c-0.4,0-1.6,0.6-1.9,0.9c-0.5,0.3-0.8,1-1.3,1.3s-1.2,0.2-1.8,0.3C18,19.5,17.4,19.9,16.8,20.2L16.8,20.2z"/>
							<path class="st7" d="M283.8,21.3c0.6-0.2,1.2-0.4,1.8-0.3c0.3,0,1,0.5,1.3,0.4s0.6-0.4,0.9-0.4c0.7-0.1,1.5,0.2,2.1,0.5
								c-0.3-0.2-1.3-0.1-1.6-0.1c-0.5,0.1-0.9,0.4-1.4,0.4s-0.9-0.3-1.4-0.4C284.9,21.3,284.2,21.3,283.8,21.3L283.8,21.3z"/>
							<rect x="0.1" y="-0.3" class="st1" width="300" height="250"/>
						</g>
					</g>
				</g>
			</g>
		</g>
	</g>
	<g id="Layer_1_00000075155145048400377710000014473547081769471922_">
		<g>
			<g>
				<g>
					<polygon class="st8" points="265.3,98.4 266.8,100.2 269.1,101.1 267.7,99.2 					"/>
				</g>
				<g>
					<polygon class="st9" points="267.7,99.2 269.1,101.1 270.2,98.6 269.2,96.9 					"/>
				</g>
				<g>
					<polygon class="st10" points="267.1,96.3 265.3,98.4 267.7,99.2 269.2,96.9 					"/>
				</g>
				<g>
					<path class="st11" d="M270.6,95.8L270.6,95.8c0,0-0.4,1.3-0.4,2.8l0,0l0,0l0,0l0,0C270.1,97.1,270.5,95.8,270.6,95.8
						L270.6,95.8C270.5,95.8,270.5,95.8,270.6,95.8L270.6,95.8L270.6,95.8z"/>
					<path class="st12" d="M270.6,95.8L270.6,95.8L270.6,95.8c-0.1,0.2-0.4,1.4-0.4,2.8l0,0C270.2,97.1,270.5,95.8,270.6,95.8
						L270.6,95.8C270.5,95.8,270.5,95.8,270.6,95.8L270.6,95.8L270.6,95.8L270.6,95.8z"/>
				</g>
				<g>
					<path class="st11" d="M270.3,95.3c0,0-0.5,1.1-1.1,1.7l0,0c0,0,0,0-0.1,0c0,0,0,0,0-0.1l0,0C269.6,96.3,270.2,95.3,270.3,95.3
						L270.3,95.3C270.2,95.2,270.2,95.2,270.3,95.3L270.3,95.3L270.3,95.3z"/>
					<path class="st12" d="M270.2,95.3L270.2,95.3L270.2,95.3c0,0-0.5,1.1-1.1,1.7l0,0l0,0l0,0C269.6,96.4,270.1,95.5,270.2,95.3
						L270.2,95.3L270.2,95.3L270.2,95.3L270.2,95.3z"/>
				</g>
				<g>
					<path class="st11" d="M269.3,95c0,0-0.8,0.9-2.1,1.4l0,0c0,0,0,0-0.1,0c0,0,0,0,0-0.1l0,0C268.4,95.8,269.2,94.9,269.3,95
						L269.3,95C269.2,94.9,269.2,94.9,269.3,95C269.3,94.9,269.3,95,269.3,95L269.3,95z"/>
					<path class="st12" d="M269.2,94.9C269.2,94.9,269.2,95,269.2,94.9L269.2,94.9c0,0-0.8,0.9-2.1,1.4l0,0l0,0
						C268.4,95.8,269.2,95,269.2,94.9L269.2,94.9z"/>
				</g>
				<path class="st13" d="M269.1,97c0,0-1.6-0.5-2.1-0.6c0,0,0-0.1,0.1-0.1c1.8,0.4,1.8,0.5,2.1,0.5C269.2,96.9,269.2,97,269.1,97z"
					/>
				<path class="st14" d="M270.2,98.6c0,0-0.8-1.4-1-1.7c0,0,0,0-0.1,0.1c0,0,0.9,1.4,1,1.7C270.1,98.7,270.2,98.7,270.2,98.6z"/>
				<path class="st15" d="M269.1,101c0,0-1-1.3-1.3-1.9l-0.1,0.1L269.1,101C269.1,101.1,269.1,101,269.1,101z"/>
				<path class="st16" d="M265.3,98.4l2.3,0.8l0.1-0.1L265.3,98.4C265.4,98.3,265.4,98.3,265.3,98.4z"/>
				<polygon class="st17" points="269.1,101.1 267.7,99.2 266.3,98.7 267.7,99.2 269,101 267.8,100.6 				"/>
				<path class="st18" d="M269.1,97c0,0-1.4-0.4-2.1-0.6l-0.8,1l0.9-0.9L269.1,97z"/>
				<path class="st8" d="M270.1,98.7c0,0-0.2-0.4-0.9-1.4L270.1,98.7l-0.7,1.6L270.1,98.7z"/>
				<path class="st8" d="M270.1,98.7c0,0,0.1,0,0.1-0.1c0,0-0.6-1-0.8-1.3C269.4,97.3,270.2,98.6,270.1,98.7
					C270.2,98.6,270.2,98.6,270.1,98.7z"/>
				<polygon class="st17" points="266.8,100.2 265.3,98.4 266.8,100.1 268.3,100.8 				"/>
				<polygon class="st19" points="270.1,98.7 268.3,97.8 266.8,100.2 269.1,101.1 				"/>
				<polygon class="st20" points="267,96.4 268.3,97.8 266.8,100.2 265.4,98.4 				"/>
				<g>
					<path class="st11" d="M270,95.8c0,0-0.9,1.2-1.7,2l0,0h-0.1c0,0,0,0,0-0.1l0,0C269,97,269.9,95.8,270,95.8L270,95.8
						C269.9,95.7,269.9,95.7,270,95.8C270,95.7,270,95.8,270,95.8L270,95.8z"/>
					<path class="st12" d="M269.9,95.8L269.9,95.8c0,0-0.9,1.2-1.7,2l0,0l0,0l0,0C269,97,269.9,95.8,269.9,95.8L269.9,95.8
						L269.9,95.8L269.9,95.8z"/>
				</g>
			</g>
			<g>
				
					<linearGradient id="SVGID_00000078726145654306046050000012669127874496871845_" gradientUnits="userSpaceOnUse" x1="80.581" y1="91.5858" x2="83.2078" y2="90.6007" gradientTransform="matrix(-0.8373 -0.5468 -0.5468 0.8373 396.5775 61.4812)">
					<stop  offset="0" style="stop-color:#FFFF00"/>
					<stop  offset="0.4888" style="stop-color:#FFBF00"/>
					<stop  offset="1" style="stop-color:#FF7F00"/>
				</linearGradient>
				<path style="fill:url(#SVGID_00000078726145654306046050000012669127874496871845_);" d="M271.7,96.1c3-0.8,6.1-1.2,8.5-3
					c2.7-1.9,3-4.2,2.7-6c-0.2-1.9-2.2-3.6-2.2-3.6s0.2,2.4-1.9,4.6s-6.6,6.2-8,8H271.7z"/>
				
					<linearGradient id="SVGID_00000088097609873491687060000014223035247014906003_" gradientUnits="userSpaceOnUse" x1="94.0819" y1="91.3173" x2="91.6426" y2="90.5668" gradientTransform="matrix(-0.8373 -0.5468 -0.5468 0.8373 396.5775 61.4812)">
					<stop  offset="0" style="stop-color:#FFFF6E"/>
					<stop  offset="0.5449" style="stop-color:#FFBF00"/>
					<stop  offset="1" style="stop-color:#F59301"/>
				</linearGradient>
				<path style="fill:url(#SVGID_00000088097609873491687060000014223035247014906003_);" d="M268.9,94.3c-0.2-3.5-1.3-6.1-0.7-9
					c0.7-3.2,2.7-4.4,4.4-4.9c1.9-0.6,4.2,0.6,4.2,0.6s-2.2,0.8-3.4,3.6c-1.2,2.8-3,8.6-4.1,10.5L268.9,94.3z"/>
				<path class="st23" d="M268.4,85.4c-0.5,2.1,0,4,0.3,6.2C268.4,89.5,268,87.6,268.4,85.4c0.8-3,2.7-4.3,4.3-4.9
					C271,81,269.1,82.1,268.4,85.4z M276.9,81L276.9,81C276.9,81,277,81,276.9,81C277,81,277,81,276.9,81z"/>
				
					<linearGradient id="SVGID_00000139252323603226524580000005553591204382346900_" gradientUnits="userSpaceOnUse" x1="80.7953" y1="89.5567" x2="84.4543" y2="89.5567" gradientTransform="matrix(-0.8373 -0.5468 -0.5468 0.8373 396.5775 61.4812)">
					<stop  offset="0" style="stop-color:#FF8BD1"/>
					<stop  offset="0.4888" style="stop-color:#FF218A"/>
					<stop  offset="1" style="stop-color:#E3214E"/>
				</linearGradient>
				<path style="fill:url(#SVGID_00000139252323603226524580000005553591204382346900_);" d="M271.3,96.1c1.4-1,2.8-1.2,6.6-3.1
					c4.7-2.3,5.4-6,4.5-7.8s-3-2.9-3-2.9s-1.2-0.4-1.9,1.6c-0.8,2-5,8.7-6.1,10.3S270.1,95.7,271.3,96.1z"/>
				
					<linearGradient id="SVGID_00000010275728120376872760000003142607458704157373_" gradientUnits="userSpaceOnUse" x1="80.7956" y1="89.8443" x2="87.3634" y2="89.8443" gradientTransform="matrix(-0.8373 -0.5468 -0.5468 0.8373 396.5775 61.4812)">
					<stop  offset="0" style="stop-color:#FFFFFF"/>
					<stop  offset="0.4888" style="stop-color:#FF218A"/>
					<stop  offset="1" style="stop-color:#E3214E"/>
				</linearGradient>
				<path style="fill:url(#SVGID_00000010275728120376872760000003142607458704157373_);" d="M282.6,85.5c0.5,1.9-0.6,5.3-4.8,7.4
					c-3.6,1.8-5.1,2.1-6.4,3h0.1c1.4-1,2.8-1.2,6.6-3.1C282.3,90.8,283.3,87.4,282.6,85.5z"/>
				
					<linearGradient id="SVGID_00000075133106372880105530000008610536835781568661_" gradientUnits="userSpaceOnUse" x1="82.2468" y1="89.5115" x2="86.1867" y2="89.5115" gradientTransform="matrix(-0.8373 -0.5468 -0.5468 0.8373 396.5775 61.4812)">
					<stop  offset="0" style="stop-color:#FFFF00"/>
					<stop  offset="0.5449" style="stop-color:#FFBF00"/>
					<stop  offset="1" style="stop-color:#F59301"/>
				</linearGradient>
				<path style="fill:url(#SVGID_00000075133106372880105530000008610536835781568661_);" d="M271.1,95.9c1.3-1.1,2.4-1.4,5.8-3.6
					c4.1-2.6,5.2-6.2,4.6-7.7c-0.5-1.6-2.1-2.4-2.1-2.4s-0.9-0.3-1.8,1.7s-5.1,8.6-6.2,10.2C270.2,95.8,270.1,95.7,271.1,95.9z"/>
				
					<linearGradient id="SVGID_00000107561222725416667760000016018016962669964467_" gradientUnits="userSpaceOnUse" x1="81.6405" y1="89.7649" x2="87.6446" y2="89.7649" gradientTransform="matrix(-0.8373 -0.5468 -0.5468 0.8373 396.5775 61.4812)">
					<stop  offset="0" style="stop-color:#FFFFFF"/>
					<stop  offset="0.5449" style="stop-color:#FFFF00"/>
					<stop  offset="1" style="stop-color:#F59301"/>
				</linearGradient>
				<path style="fill:url(#SVGID_00000107561222725416667760000016018016962669964467_);" d="M276.7,92.2c4.1-2.7,5.1-6.3,4.6-7.8
					c0-0.1-0.1-0.2-0.1-0.3c0.1,0.2,0.2,0.4,0.3,0.6c0.5,1.6-0.5,5.1-4.6,7.7c-3.4,2.2-4.6,2.5-5.8,3.6l0,0
					C272.2,94.7,273.4,94.4,276.7,92.2z"/>
				
					<linearGradient id="SVGID_00000098198807454609312090000007394018555967381157_" gradientUnits="userSpaceOnUse" x1="93.6948" y1="89.5827" x2="90.1297" y2="89.5827" gradientTransform="matrix(-0.8373 -0.5468 -0.5468 0.8373 396.5775 61.4812)">
					<stop  offset="0" style="stop-color:#FF8BD1"/>
					<stop  offset="0.4888" style="stop-color:#FF218A"/>
					<stop  offset="1" style="stop-color:#E3214E"/>
				</linearGradient>
				<path style="fill:url(#SVGID_00000098198807454609312090000007394018555967381157_);" d="M269.1,94.7c0.4-1.7,0-3,0.1-7.3
					c0.2-5.2,3.3-7.4,5.3-7.3s3.9,1.6,3.9,1.6s0.9,0.9-0.7,2.4c-1.5,1.5-6,8.1-7,9.8C269.8,95.5,270,95.6,269.1,94.7z"/>
				
					<linearGradient id="SVGID_00000115481322425250412150000006855770733110295192_" gradientUnits="userSpaceOnUse" x1="93.5672" y1="89.9101" x2="88.2506" y2="89.9101" gradientTransform="matrix(-0.8373 -0.5468 -0.5468 0.8373 396.5775 61.4812)">
					<stop  offset="0" style="stop-color:#FFFFFF"/>
					<stop  offset="0.4888" style="stop-color:#FF218A"/>
					<stop  offset="1" style="stop-color:#E3214E"/>
				</linearGradient>
				<path style="fill:url(#SVGID_00000115481322425250412150000006855770733110295192_);" d="M274.3,80.1c-2,0.3-4.6,2.6-4.9,7.4
					c-0.2,4.1,0.1,5.5-0.2,7.1c0,0,0,0-0.1-0.1c0.4-1.7,0-3,0.2-7.2C269.6,82.5,272.4,80.3,274.3,80.1z"/>
				
					<linearGradient id="SVGID_00000020356343145814426190000017550647116335097489_" gradientUnits="userSpaceOnUse" x1="91.913" y1="89.5769" x2="88.5356" y2="89.5769" gradientTransform="matrix(-0.8373 -0.5468 -0.5468 0.8373 396.5775 61.4812)">
					<stop  offset="0" style="stop-color:#FFFF00"/>
					<stop  offset="0.5449" style="stop-color:#FFBF00"/>
					<stop  offset="1" style="stop-color:#F59301"/>
				</linearGradient>
				<path style="fill:url(#SVGID_00000020356343145814426190000017550647116335097489_);" d="M269.4,94.9c0.5-1.6,0.3-2.8,1-6.8
					c0.8-4.8,3.6-7.2,5.2-7.3c1.6-0.1,3,1,3,1s0.6,0.7-0.8,2.3c-1.4,1.6-5.8,8.1-6.9,9.8C269.9,95.6,270,95.6,269.4,94.9z"/>
				
					<linearGradient id="SVGID_00000024680167974910182000000017970465457840379566_" gradientUnits="userSpaceOnUse" x1="92.3353" y1="90.292" x2="87.6908" y2="90.292" gradientTransform="matrix(-0.8373 -0.5468 -0.5468 0.8373 396.5775 61.4812)">
					<stop  offset="0" style="stop-color:#FFFFFF"/>
					<stop  offset="0.5449" style="stop-color:#FFFF00"/>
					<stop  offset="1" style="stop-color:#F59301"/>
				</linearGradient>
				<path style="fill:url(#SVGID_00000024680167974910182000000017970465457840379566_);" d="M274.8,81.1c-1.6,1-3.5,3.4-4.2,7.3
					c-0.7,3.8-0.6,5.2-1,6.7c0,0,0,0,0-0.1c0.5-1.6,0.3-2.8,1-6.8C271.1,84.2,273.1,81.8,274.8,81.1z"/>
				
					<linearGradient id="SVGID_00000062893641645799054640000006337312042547267459_" gradientUnits="userSpaceOnUse" x1="84.5945" y1="89.4234" x2="89.6613" y2="89.4234" gradientTransform="matrix(-0.8373 -0.5468 -0.5468 0.8373 396.5775 61.4812)">
					<stop  offset="0" style="stop-color:#FF62B2"/>
					<stop  offset="0.4944" style="stop-color:#FF2176"/>
					<stop  offset="1" style="stop-color:#DF2141"/>
				</linearGradient>
				<path style="fill:url(#SVGID_00000062893641645799054640000006337312042547267459_);" d="M269.6,94.9c0.5-1.1,1.2-2.8,1.8-4.2
					c1-2.4,4.3-10.2,6.9-9.2c0.8,0.4,1.3,0.8,1.3,0.8c2.5,2-3.7,8.3-5.6,10.1c-1.1,1.1-2.5,2.4-3.3,3.3L269.6,94.9z"/>
				
					<linearGradient id="SVGID_00000146494497197328747360000015507133010527669433_" gradientUnits="userSpaceOnUse" x1="85.2524" y1="87.9118" x2="92.3418" y2="87.9118" gradientTransform="matrix(-0.8373 -0.5468 -0.5468 0.8373 396.5775 61.4812)">
					<stop  offset="0" style="stop-color:#FFFFFF"/>
					<stop  offset="0.4944" style="stop-color:#FF218A"/>
					<stop  offset="1" style="stop-color:#F02158"/>
				</linearGradient>
				<path style="fill:url(#SVGID_00000146494497197328747360000015507133010527669433_);" d="M279.9,82.6c1.5,2.6-4.3,8.2-6.1,9.9
					c-0.3,0.3-0.6,0.6-0.9,0.9c0.3-0.3,0.6-0.6,0.9-0.9C275.5,90.7,281,85,279.9,82.6z"/>
				
					<linearGradient id="SVGID_00000140006326757774355680000001496692223586689968_" gradientUnits="userSpaceOnUse" x1="82.7092" y1="88.3757" x2="91.0717" y2="88.3757" gradientTransform="matrix(-0.8373 -0.5468 -0.5468 0.8373 396.5775 61.4812)">
					<stop  offset="0" style="stop-color:#FF218A"/>
					<stop  offset="1" style="stop-color:#B2213C"/>
				</linearGradient>
				<path style="fill:url(#SVGID_00000140006326757774355680000001496692223586689968_);" d="M277.8,81.4c0,0-1.4,0.4-2.9,2.7
					c-1.5,2.4-2.9,5.6-4.2,8.8c0,0,2.4-5.5,4.4-8.6C276.5,82,277.8,81.4,277.8,81.4z"/>
				
					<linearGradient id="SVGID_00000061442772029218112530000018435085947669938074_" gradientUnits="userSpaceOnUse" x1="84.7696" y1="89.221" x2="89.6993" y2="89.221" gradientTransform="matrix(-0.8373 -0.5468 -0.5468 0.8373 396.5775 61.4812)">
					<stop  offset="0" style="stop-color:#FFFFFF"/>
					<stop  offset="0.4944" style="stop-color:#FF2176"/>
					<stop  offset="1" style="stop-color:#DF2152"/>
				</linearGradient>
				<path style="fill:url(#SVGID_00000061442772029218112530000018435085947669938074_);" d="M270.1,94.8c2.8-7.2,6.2-12.9,7.6-13.2
					c1.1-0.2,2.5,0.6,2,2.6s-3.1,5-4.5,6.4s-4.6,4.6-4.6,4.6L270.1,94.8z"/>
				
					<linearGradient id="SVGID_00000038409111542464661690000002502828272524552595_" gradientUnits="userSpaceOnUse" x1="85.5244" y1="97.4806" x2="88.9918" y2="97.4806" gradientTransform="matrix(-0.8373 -0.5468 -0.5468 0.8373 396.5775 61.4812)">
					<stop  offset="0" style="stop-color:#DB5E01"/>
					<stop  offset="0.4888" style="stop-color:#FFB300"/>
					<stop  offset="1" style="stop-color:#DB5E01"/>
				</linearGradient>
				<path style="fill:url(#SVGID_00000038409111542464661690000002502828272524552595_);" d="M270.9,96.5c0,0,0.6-0.2,1.2-0.5h0.1
					c0,0-1.7-0.8-3.3-2.1V94c0,0.2-0.1,0.7,0,1.2C268.9,95.1,269.7,95.8,270.9,96.5z"/>
				
					<linearGradient id="SVGID_00000173139254937450821780000007148479443072680841_" gradientUnits="userSpaceOnUse" x1="85.2385" y1="97.5421" x2="89.2999" y2="97.5421" gradientTransform="matrix(-0.8373 -0.5468 -0.5468 0.8373 396.5775 61.4812)">
					<stop  offset="0" style="stop-color:#DB8001"/>
					<stop  offset="0.2753" style="stop-color:#FFB300"/>
					<stop  offset="0.5337" style="stop-color:#FFF054"/>
					<stop  offset="0.7753" style="stop-color:#FFB300"/>
					<stop  offset="1" style="stop-color:#E07501"/>
				</linearGradient>
				<path style="fill:url(#SVGID_00000173139254937450821780000007148479443072680841_);" d="M270.9,96.5c0,0,0.6-0.2,1.2-0.5
					c0,0-1.6-0.8-3.2-2.1c0,0-0.1,0.7-0.1,1.3C268.9,95.2,269.6,95.9,270.9,96.5z"/>
				
					<linearGradient id="SVGID_00000077297768455016334180000007002686452293889175_" gradientUnits="userSpaceOnUse" x1="82.8724" y1="89.1062" x2="85.4372" y2="89.1062" gradientTransform="matrix(-0.8373 -0.5468 -0.5468 0.8373 396.5775 61.4812)">
					<stop  offset="0" style="stop-color:#FFFF6E"/>
					<stop  offset="0.5449" style="stop-color:#FFBF00"/>
					<stop  offset="1" style="stop-color:#F59301"/>
				</linearGradient>
				<path style="fill:url(#SVGID_00000077297768455016334180000007002686452293889175_);" d="M280.3,83.1c0,0,0.8,1.6-2.5,5.4
					c-3.2,3.8-4,4.1-6.3,6.6c0,0,3-1.7,4.2-2.5s3.5-2.2,4.9-4.9C282,85,280.8,83.8,280.3,83.1z"/>
				
					<linearGradient id="SVGID_00000042737332871485069500000001997296210354881932_" gradientUnits="userSpaceOnUse" x1="92.0539" y1="88.9293" x2="88.7702" y2="88.9293" gradientTransform="matrix(-0.8373 -0.5468 -0.5468 0.8373 396.5775 61.4812)">
					<stop  offset="0" style="stop-color:#FFFF6E"/>
					<stop  offset="0.5449" style="stop-color:#FFBF00"/>
					<stop  offset="1" style="stop-color:#F59301"/>
				</linearGradient>
				<path style="fill:url(#SVGID_00000042737332871485069500000001997296210354881932_);" d="M277.7,81.3c0,0-1.7-0.2-4.1,4.5
					c-2.5,4.7-2.5,5.7-3.6,8c0,0,0.3-2.1,0.5-3.9c0.3-1.8,0.6-5.2,2.7-7.3C274.9,80.8,276.4,80.8,277.7,81.3z"/>
				
					<linearGradient id="SVGID_00000015314491097961638030000010444932950344124560_" gradientUnits="userSpaceOnUse" x1="91.2232" y1="87.9224" x2="90.0673" y2="87.9537" gradientTransform="matrix(-0.8373 -0.5468 -0.5468 0.8373 396.5775 61.4812)">
					<stop  offset="0" style="stop-color:#FFD900"/>
					<stop  offset="1" style="stop-color:#F58701"/>
				</linearGradient>
				<path style="fill:url(#SVGID_00000015314491097961638030000010444932950344124560_);" d="M277,81.4c0,0-1.3,0.3-2.6,2.4
					c-1.3,2.1-2.5,4.9-3.6,7.7c0,0,2.1-4.8,3.8-7.5C275.9,81.9,277,81.4,277,81.4z"/>
				
					<linearGradient id="SVGID_00000183208589901744458460000012513812589213705141_" gradientUnits="userSpaceOnUse" x1="81.5303" y1="88.0152" x2="85.2362" y2="88.0152" gradientTransform="matrix(-0.8373 -0.5468 -0.5468 0.8373 396.5775 61.4812)">
					<stop  offset="0" style="stop-color:#FFD900"/>
					<stop  offset="1" style="stop-color:#F58701"/>
				</linearGradient>
				<path style="fill:url(#SVGID_00000183208589901744458460000012513812589213705141_);" d="M280.3,83.7c0,0,0.2,1.3-1.1,3.3
					c-1.4,2-3.5,4.1-5.7,6.2c0,0,3.7-3.7,5.5-6.3C280.3,84.8,280.3,83.7,280.3,83.7z"/>
				
					<linearGradient id="SVGID_00000149345383453175283080000012434193256385207995_" gradientUnits="userSpaceOnUse" x1="98.1516" y1="88.8097" x2="88.3946" y2="88.8097" gradientTransform="matrix(-0.8373 -0.5468 -0.5468 0.8373 396.5775 61.4812)">
					<stop  offset="0" style="stop-color:#FF8BD1"/>
					<stop  offset="0.4888" style="stop-color:#FF218A"/>
					<stop  offset="1" style="stop-color:#E3213B"/>
				</linearGradient>
				<path style="fill:url(#SVGID_00000149345383453175283080000012434193256385207995_);" d="M276.6,80.8c0,0-2.8-0.8-4.9,3.1
					c-2,3.8-1.5,5.9-2,9.2c0,0,0.2-2.9,0.3-4.5c0.2-1.6,0.9-4.4,2.5-6.3C274.4,80.2,276.6,80.8,276.6,80.8z"/>
				
					<linearGradient id="SVGID_00000057863994132205677790000017806676403954895239_" gradientUnits="userSpaceOnUse" x1="75.3932" y1="88.0895" x2="87.6353" y2="88.9338" gradientTransform="matrix(-0.8373 -0.5468 -0.5468 0.8373 396.5775 61.4812)">
					<stop  offset="0" style="stop-color:#FF8BD1"/>
					<stop  offset="0.4888" style="stop-color:#FF218A"/>
					<stop  offset="1" style="stop-color:#E3213B"/>
				</linearGradient>
				<path style="fill:url(#SVGID_00000057863994132205677790000017806676403954895239_);" d="M281.1,83.7c0,0,1.9,2.3-0.9,5.7
					c-2.7,3.3-4.8,3.8-7.6,5.5c0,0,2.6-1.3,4-2.1c1.4-0.8,3.7-2.6,4.7-4.8C282.5,85.6,281.1,83.7,281.1,83.7z"/>
				
					<linearGradient id="SVGID_00000036951363797598597830000014002695931274573743_" gradientUnits="userSpaceOnUse" x1="95.5201" y1="92.094" x2="91.4574" y2="90.7502" gradientTransform="matrix(-0.8373 -0.5468 -0.5468 0.8373 396.5775 61.4812)">
					<stop  offset="0" style="stop-color:#FFFF6E"/>
					<stop  offset="0.5449" style="stop-color:#FFBF00"/>
					<stop  offset="1" style="stop-color:#E37D01"/>
				</linearGradient>
				<path style="fill:url(#SVGID_00000036951363797598597830000014002695931274573743_);" d="M271.5,81.3c0,0-2,1.5-2.3,4.8
					s0,5.5,0,7.5c0,0-0.2-2.6-0.2-4c0-1.3-0.2-3.3,0.5-5.5C270.2,82,271.5,81.3,271.5,81.3z"/>
				<path class="st23" d="M282.9,87.1c0.1,1.8-0.3,4-2.9,5.9c-1.7,1.3-3.6,1.7-5.7,2.3c2.2-0.6,4.1-0.9,5.8-2.2
					C282.8,91.1,283.1,88.8,282.9,87.1z M280.7,83.4L280.7,83.4C280.7,83.5,280.7,83.4,280.7,83.4L280.7,83.4z"/>
				
					<linearGradient id="SVGID_00000034068054865925022500000006975910460761711500_" gradientUnits="userSpaceOnUse" x1="77.2855" y1="92.7991" x2="83.5275" y2="90.5932" gradientTransform="matrix(-0.8373 -0.5468 -0.5468 0.8373 396.5775 61.4812)">
					<stop  offset="0" style="stop-color:#FFFF6E"/>
					<stop  offset="0.5449" style="stop-color:#FFBF00"/>
					<stop  offset="1" style="stop-color:#E37D01"/>
				</linearGradient>
				<path style="fill:url(#SVGID_00000034068054865925022500000006975910460761711500_);" d="M282.6,88.5c0,0-0.5,2.4-3.5,4
					c-2.9,1.6-5,2.2-6.9,3.1c0,0,2.5-0.9,3.7-1.4s3.1-1.2,4.8-2.7C282.5,90,282.6,88.5,282.6,88.5z"/>
			</g>
		</g>
	</g>
</g>
<g id="_x2014_ÎÓÈ_x5F_1">
	<g id="Air_Balloon">
		<g>
			<g>
				<g>
					<g>
						<path class="st46" d="M25.9,105.6l-0.9-2.9l1.4-3.4L25.9,105.6z M25.1,102.7l0.7,2.2l0.3-4.8L25.1,102.7z"/>
					</g>
				</g>
				<g>
					<g>
						<path class="st46" d="M26.3,105.4l-1.5-4.6l3.6-4L26.3,105.4z M24.9,100.8l1.3,4.1l1.9-7.6L24.9,100.8z"/>
					</g>
				</g>
			</g>
			<g>
				<g>
					<g>
						<path class="st46" d="M25.1,105.9l-4-4.9l3.1,2L25.1,105.9z M21.7,101.5l3.1,3.8L24,103L21.7,101.5z"/>
					</g>
				</g>
				<g>
					<g>
						<path class="st46" d="M24.5,105.9l-6.7-5.8l5.2,1.2L24.5,105.9z M18.4,100.3l5.9,5.2l-1.3-4.1L18.4,100.3z"/>
					</g>
				</g>
			</g>
		</g>
		<g>
			<path class="st47" d="M26.2,104.5l-1,0.3l0,0l-1,0.3c-0.2,0.1-0.2,0.2-0.2,0.4l0.9,2c0.1,0.2,0.2,0.3,0.4,0.2l0.7-0.2l0,0
				l0.7-0.2c0.2-0.1,0.2-0.2,0.2-0.4l-0.4-2.2C26.5,104.6,26.3,104.5,26.2,104.5z"/>
		</g>
		<g class="st48">
			<path class="st46" d="M26.2,104.5l-1,0.3l0,0l-1,0.3c-0.2,0.1-0.2,0.2-0.2,0.4l0.9,2c0,0.1,0.1,0.2,0.2,0.2l1.2-3.3
				C26.3,104.5,26.2,104.5,26.2,104.5z"/>
		</g>
		<g>
			<g>
				<path class="st49" d="M24.2,102.1L24.2,102.1L21,97.2c0,0,0,0-0.1,0c-0.2,0.1-0.3,0-0.4-0.2c0-0.1,0-0.3,0.1-0.4l-3.7-5.5
					c-0.1,0-0.2-0.1-0.2-0.2s0-0.1,0-0.2l-1-1.5c0,0-1.2,0.8-1.7,2.4l0.1,0.1c0.1,0.2,0,0.3-0.2,0.4l0,0c-0.3,1.2-0.2,2.8,1,4.8
					c0.8,1.4,1.9,2.4,3.1,3.2c0-0.1,0.1-0.2,0.2-0.2c0.2-0.1,0.3,0,0.4,0.2c0,0.1,0,0.2-0.1,0.3c1.3,0.7,2.6,1.2,3.6,1.5l0,0
					c-0.1-0.2,0-0.3,0.2-0.4s0.3,0,0.4,0.2c0,0.1,0,0.2-0.1,0.3c0.6,0.1,1.1,0.2,1.4,0.2C24,102.3,24.1,102.1,24.2,102.1z
					 M15.4,97.2c-0.2,0.1-0.3,0-0.4-0.2c-0.1-0.2,0-0.3,0.2-0.4s0.3,0,0.4,0.2C15.7,96.9,15.6,97.1,15.4,97.2z M14.7,94.9
					c-0.2,0.1-0.3,0-0.4-0.2c-0.1-0.2,0-0.3,0.2-0.4s0.3,0,0.4,0.2C14.9,94.6,14.8,94.8,14.7,94.9z M17.6,98.3
					c-0.2,0.1-0.3,0-0.4-0.2s0-0.3,0.2-0.4s0.3,0,0.4,0.2C17.9,98.1,17.8,98.2,17.6,98.3z M16.8,95.6c-0.2,0.1-0.3,0-0.4-0.2
					s0-0.3,0.2-0.4s0.3,0,0.4,0.2C17,95.4,16.9,95.6,16.8,95.6z M16,93.3c-0.2,0.1-0.3,0-0.4-0.2c-0.1-0.2,0-0.3,0.2-0.4
					s0.3,0,0.4,0.2C16.3,93.1,16.2,93.3,16,93.3z M15.2,90.7c-0.2,0.1-0.3,0-0.4-0.2c-0.1-0.2,0-0.3,0.2-0.4s0.3,0,0.4,0.2
					C15.4,90.4,15.4,90.6,15.2,90.7z M20.3,101.1c-0.2,0.1-0.3,0-0.4-0.2s0-0.3,0.2-0.4s0.3,0,0.4,0.2
					C20.5,100.9,20.4,101,20.3,101.1z M19.5,98.8c-0.2,0.1-0.3,0-0.4-0.2s0-0.3,0.2-0.4s0.3,0,0.4,0.2
					C19.8,98.6,19.7,98.7,19.5,98.8z M18.7,96.1c-0.2,0.1-0.3,0-0.4-0.2s0-0.3,0.2-0.4s0.3,0,0.4,0.2C19,95.9,18.9,96.1,18.7,96.1z
					 M18,93.8c-0.2,0.1-0.3,0-0.4-0.2s0-0.3,0.2-0.4s0.3,0,0.4,0.2C18.2,93.6,18.1,93.8,18,93.8z M21.6,99.6c-0.2,0.1-0.3,0-0.4-0.2
					s0-0.3,0.2-0.4s0.3,0,0.4,0.2C21.9,99.3,21.8,99.5,21.6,99.6z"/>
				<path class="st50" d="M24,102.4c0.3,0,0.4,0,0.4,0l-0.2-0.3l0,0C24.1,102.1,24,102.3,24,102.4z"/>
				<path class="st50" d="M22.7,101.8c-0.1-0.2-0.2-0.3-0.4-0.2c-0.2,0.1-0.3,0.2-0.2,0.4l0,0c0.2,0,0.4,0.1,0.5,0.1
					C22.7,102.1,22.7,101.9,22.7,101.8z"/>
				<path class="st50" d="M21.4,98.9c-0.2,0.1-0.3,0.2-0.2,0.4c0.1,0.2,0.2,0.3,0.4,0.2c0.2-0.1,0.3-0.2,0.2-0.4
					C21.8,99,21.6,98.9,21.4,98.9z"/>
				<path class="st50" d="M20.5,97c0.1,0.2,0.2,0.3,0.4,0.2c0,0,0,0,0.1,0l-0.4-0.5C20.5,96.8,20.5,96.9,20.5,97z"/>
				<path class="st50" d="M20.1,100.5c-0.2,0.1-0.3,0.2-0.2,0.4c0.1,0.2,0.2,0.3,0.4,0.2c0.2-0.1,0.3-0.2,0.2-0.4
					C20.4,100.5,20.2,100.4,20.1,100.5z"/>
				<path class="st50" d="M19.3,98.2c-0.2,0.1-0.3,0.2-0.2,0.4c0.1,0.2,0.2,0.3,0.4,0.2c0.2-0.1,0.3-0.2,0.2-0.4
					C19.7,98.2,19.5,98.1,19.3,98.2z"/>
				<path class="st50" d="M18.5,95.5c-0.2,0.1-0.3,0.2-0.2,0.4c0.1,0.2,0.2,0.3,0.4,0.2s0.3-0.2,0.2-0.4
					C18.8,95.6,18.7,95.5,18.5,95.5z"/>
				<path class="st50" d="M17.8,93.2c-0.2,0.1-0.3,0.2-0.2,0.4c0.1,0.2,0.2,0.3,0.4,0.2c0.2-0.1,0.3-0.2,0.2-0.4
					C18.1,93.2,17.9,93.2,17.8,93.2z"/>
				<path class="st50" d="M16.9,91.2l-0.2-0.4c0,0.1,0,0.1,0,0.2C16.7,91.1,16.8,91.1,16.9,91.2z"/>
				<path class="st50" d="M18.6,100.2c-0.1-0.2-0.2-0.3-0.4-0.2c-0.1,0-0.2,0.1-0.2,0.2c0.2,0.1,0.4,0.2,0.5,0.3
					C18.6,100.4,18.6,100.3,18.6,100.2z"/>
				<path class="st50" d="M17.4,97.7c-0.2,0.1-0.3,0.2-0.2,0.4c0.1,0.2,0.2,0.3,0.4,0.2c0.2-0.1,0.3-0.2,0.2-0.4
					C17.8,97.7,17.6,97.6,17.4,97.7z"/>
				<path class="st50" d="M16.6,95c-0.2,0.1-0.3,0.2-0.2,0.4c0.1,0.2,0.2,0.3,0.4,0.2c0.2-0.1,0.3-0.2,0.2-0.4
					C16.9,95.1,16.7,95,16.6,95z"/>
				<path class="st50" d="M15.8,92.7c-0.2,0.1-0.3,0.2-0.2,0.4c0.1,0.2,0.2,0.3,0.4,0.2c0.2-0.1,0.3-0.2,0.2-0.4
					C16.2,92.8,16,92.7,15.8,92.7z"/>
				<path class="st50" d="M15,90.1c-0.2,0.1-0.3,0.2-0.2,0.4c0.1,0.2,0.2,0.3,0.4,0.2c0.2-0.1,0.3-0.2,0.2-0.4
					C15.3,90.1,15.2,90,15,90.1z"/>
				<path class="st50" d="M15.2,96.6c-0.2,0-0.3,0.2-0.2,0.4s0.2,0.3,0.4,0.2c0.2-0.1,0.3-0.2,0.2-0.4
					C15.6,96.6,15.4,96.5,15.2,96.6z"/>
				<path class="st50" d="M14.5,94.3c-0.2,0.1-0.3,0.2-0.2,0.4c0.1,0.2,0.2,0.3,0.4,0.2c0.2-0.1,0.3-0.2,0.2-0.4
					C14.8,94.3,14.6,94.2,14.5,94.3z"/>
				<path class="st50" d="M14,91.8c0,0,0-0.1-0.1-0.1c-0.1,0.2-0.1,0.3-0.1,0.5l0,0C14,92.2,14.1,92,14,91.8z"/>
			</g>
			<g>
				<path class="st51" d="M17.1,88.4c0,0-3.6,1.2-2.5,6c1,4.8,9,8,9.9,8L17.1,88.4z"/>
			</g>
			<g>
				<path class="st49" d="M24,102.2c0-0.1,0.1-0.1,0.2-0.1h0.1l-0.8-2c-0.2,0-0.3,0-0.4-0.2c0-0.2,0-0.3,0.2-0.4l-0.6-1.7
					c-0.1,0-0.2-0.1-0.3-0.2c0-0.1,0-0.2,0.1-0.3L21.7,95c0,0-0.1-0.1-0.1-0.2s0-0.1,0-0.2l-2.7-7.2c0,0-3.6,0.3-3,5.2
					c0.1,0,0.3,0.1,0.3,0.2c0.1,0.2,0,0.3-0.2,0.4c0.1,0.6,0.3,1.2,0.5,1.7c0.2,0,0.3,0,0.4,0.2c0,0.1,0,0.3-0.1,0.4
					c0.6,1.1,1.4,2.1,2.3,3c0-0.2,0.1-0.3,0.2-0.4c0.2-0.1,0.3,0,0.4,0.2s0,0.3-0.2,0.4c-0.1,0-0.1,0-0.2,0
					C21.2,100.5,23.2,101.8,24,102.2z M18.7,96.1c-0.2,0.1-0.3,0-0.4-0.2s0-0.3,0.2-0.4s0.3,0,0.4,0.2C19,95.9,18.9,96.1,18.7,96.1z
					 M18,93.8c-0.2,0.1-0.3,0-0.4-0.2s0-0.3,0.2-0.4s0.3,0,0.4,0.2C18.2,93.6,18.1,93.8,18,93.8z M17.1,91.2c-0.2,0.1-0.3,0-0.4-0.2
					s0-0.3,0.2-0.4s0.3,0,0.4,0.2C17.4,90.9,17.3,91.1,17.1,91.2z M21.6,99.6c-0.2,0.1-0.3,0-0.4-0.2s0-0.3,0.2-0.4s0.3,0,0.4,0.2
					C21.9,99.3,21.8,99.5,21.6,99.6z M20.9,97.2c-0.2,0.1-0.3,0-0.4-0.2s0-0.3,0.2-0.4s0.3,0,0.4,0.2C21.2,97,21.1,97.2,20.9,97.2z
					 M20.1,94.6c-0.2,0.1-0.3,0-0.4-0.2s0-0.3,0.2-0.4s0.3,0,0.4,0.2C20.3,94.4,20.2,94.5,20.1,94.6z M19.3,92.3
					c-0.2,0.1-0.3,0-0.4-0.2s0-0.3,0.2-0.4s0.3,0,0.4,0.2C19.6,92,19.5,92.2,19.3,92.3z M18.5,89.6c-0.2,0.1-0.3,0-0.4-0.2
					s0-0.3,0.2-0.4s0.3,0,0.4,0.2C18.7,89.4,18.6,89.6,18.5,89.6z"/>
				<path class="st50" d="M24,102.2c0.2,0.1,0.4,0.2,0.4,0.2l-0.1-0.3h-0.1C24.1,102.1,24.1,102.2,24,102.2z"/>
				<path class="st50" d="M23.2,99.8c0.1,0.2,0.2,0.3,0.4,0.2l-0.2-0.6C23.2,99.5,23.1,99.7,23.2,99.8z"/>
				<path class="st50" d="M22.4,97.5c0,0.1,0.2,0.2,0.3,0.2l-0.2-0.5C22.4,97.3,22.4,97.4,22.4,97.5z"/>
				<path class="st50" d="M21.7,95l-0.1-0.3c0,0.1,0,0.1,0,0.2C21.6,94.9,21.6,95,21.7,95z"/>
				<path class="st50" d="M21.4,98.9c-0.2,0.1-0.3,0.2-0.2,0.4c0.1,0.2,0.2,0.3,0.4,0.2c0.2-0.1,0.3-0.2,0.2-0.4
					C21.8,99,21.6,98.9,21.4,98.9z"/>
				<path class="st50" d="M20.7,96.6c-0.2,0.1-0.3,0.2-0.2,0.4c0.1,0.2,0.2,0.3,0.4,0.2c0.2-0.1,0.3-0.2,0.2-0.4
					C21.1,96.7,20.9,96.6,20.7,96.6z"/>
				<path class="st50" d="M19.9,94c-0.2,0.1-0.3,0.2-0.2,0.4c0.1,0.2,0.2,0.3,0.4,0.2c0.2-0.1,0.3-0.2,0.2-0.4
					C20.2,94,20,93.9,19.9,94z"/>
				<path class="st50" d="M19.1,91.7c-0.2,0.1-0.3,0.2-0.2,0.4c0.1,0.2,0.2,0.3,0.4,0.2c0.2-0.1,0.3-0.2,0.2-0.4
					C19.5,91.7,19.3,91.6,19.1,91.7z"/>
				<path class="st50" d="M18.3,89c-0.2,0.1-0.3,0.2-0.2,0.4c0.1,0.2,0.2,0.3,0.4,0.2c0.2-0.1,0.3-0.2,0.2-0.4
					C18.6,89,18.4,89,18.3,89z"/>
				<path class="st50" d="M19.7,98.4c-0.1-0.2-0.2-0.3-0.4-0.2c-0.2,0.1-0.3,0.2-0.2,0.4c0.1,0.1,0.2,0.2,0.2,0.2c0.1,0,0.1,0,0.2,0
					C19.7,98.7,19.8,98.6,19.7,98.4z"/>
				<path class="st50" d="M18.5,95.5c-0.2,0.1-0.3,0.2-0.2,0.4c0.1,0.2,0.2,0.3,0.4,0.2s0.3-0.2,0.2-0.4
					C18.8,95.6,18.7,95.5,18.5,95.5z"/>
				<path class="st50" d="M17.8,93.2c-0.2,0.1-0.3,0.2-0.2,0.4c0.1,0.2,0.2,0.3,0.4,0.2c0.2-0.1,0.3-0.2,0.2-0.4
					C18.1,93.2,17.9,93.2,17.8,93.2z"/>
				<path class="st50" d="M16.9,90.6c-0.2,0.1-0.3,0.2-0.2,0.4c0.1,0.2,0.2,0.3,0.4,0.2c0.2-0.1,0.3-0.2,0.2-0.4
					C17.3,90.6,17.1,90.5,16.9,90.6z"/>
				<path class="st50" d="M17,95.2c-0.1-0.2-0.2-0.3-0.4-0.2c0.1,0.2,0.2,0.4,0.3,0.6C17,95.5,17,95.4,17,95.2z"/>
				<path class="st50" d="M16.2,92.9c0-0.1-0.2-0.2-0.3-0.2c0,0.2,0.1,0.4,0.1,0.6l0,0C16.2,93.3,16.3,93.1,16.2,92.9z"/>
			</g>
			<g>
				<path class="st51" d="M19.6,87.1l4.9,15.3c0,0-1.5-1.4-3.2-3.9c-1-1.5-3.6-5.6-3.3-9.8C18.1,87.9,18.6,87.3,19.6,87.1z"/>
			</g>
			<g>
				<path class="st51" d="M24,86.6c0,0,4.7,0,5.2,5.8s-4.7,10-4.7,10L24,86.6z"/>
			</g>
			<g>
				<path class="st49" d="M28.2,92.8c-0.1-0.2,0-0.3,0.2-0.4c0-0.6-0.1-1.3-0.3-1.9c0,0.1-0.1,0.1-0.2,0.2c-0.2,0.1-0.3,0-0.4-0.2
					s0-0.3,0.2-0.4c0.1,0,0.1,0,0.2,0c-0.7-1.7-1.7-2.5-2.6-3c0,0,0,0,0,0.1c0.1,0.2,0,0.3-0.2,0.4s-0.3,0-0.4-0.2s0-0.3,0.2-0.4
					l0,0c-0.7-0.3-1.3-0.3-1.8-0.3c0,0.1-0.1,0.1-0.2,0.2c-0.1,0-0.3,0-0.4-0.1c-0.2,0-0.3,0.1-0.3,0.1l0.8,6.2
					c0.2-0.1,0.3,0,0.4,0.2s0,0.3-0.2,0.4h-0.1l1.1,8.5c0.1,0,0.2,0.1,0.2,0.2c0.2-0.2,0.5-0.6,0.8-1.2l-0.1-0.1
					c-0.1-0.2,0-0.3,0.2-0.4c0.1,0,0.1,0,0.2,0c0.3-0.5,0.6-1,0.8-1.6c-0.1,0-0.1-0.1-0.1-0.2c-0.1-0.2,0-0.3,0.2-0.4
					c0.1,0,0.1,0,0.2,0c0.8-1.6,1.4-3.6,1.5-5.4C28.3,92.9,28.2,92.9,28.2,92.8z M24.9,98.5c-0.2,0.1-0.3,0-0.4-0.2s0-0.3,0.2-0.4
					s0.3,0,0.4,0.2C25.2,98.3,25.1,98.5,24.9,98.5z M24.2,96.2c-0.2,0.1-0.3,0-0.4-0.2s0-0.3,0.2-0.4s0.3,0,0.4,0.2
					C24.5,96,24.4,96.1,24.2,96.2z M26.1,96.7c-0.2,0.1-0.3,0-0.4-0.2s0-0.3,0.2-0.4s0.3,0,0.4,0.2C26.4,96.5,26.3,96.6,26.1,96.7z
					 M25.3,94c-0.2,0.1-0.3,0-0.4-0.2s0-0.3,0.2-0.4s0.3,0,0.4,0.2C25.5,93.8,25.4,94,25.3,94z M24.5,91.7c-0.2,0.1-0.3,0-0.4-0.2
					s0-0.3,0.2-0.4s0.3,0,0.4,0.2C24.8,91.5,24.7,91.7,24.5,91.7z M23.7,89.1c-0.2,0.1-0.3,0-0.4-0.2s0-0.3,0.2-0.4s0.3,0,0.4,0.2
					C24,88.8,23.9,89,23.7,89.1z M27.5,95.1c-0.2,0.1-0.3,0-0.4-0.2s0-0.3,0.2-0.4s0.3,0,0.4,0.2C27.7,94.9,27.7,95.1,27.5,95.1z
					 M26.6,92.5c-0.2,0.1-0.3,0-0.4-0.2s0-0.3,0.2-0.4s0.3,0,0.4,0.2C26.9,92.3,26.8,92.4,26.6,92.5z M25.9,90.2
					c-0.2,0.1-0.3,0-0.4-0.2s0-0.3,0.2-0.4s0.3,0,0.4,0.2C26.2,89.9,26.1,90.1,25.9,90.2z"/>
				<path class="st50" d="M28.2,92.8c0,0.1,0.1,0.2,0.2,0.2c0-0.2,0-0.4,0-0.6C28.2,92.5,28.1,92.6,28.2,92.8z"/>
				<path class="st50" d="M27.4,90.5c0.1,0.2,0.2,0.3,0.4,0.2c0.1,0,0.1-0.1,0.2-0.2c0-0.1-0.1-0.3-0.1-0.4V90c-0.1,0-0.1,0-0.2,0
					C27.5,90.1,27.4,90.3,27.4,90.5z"/>
				<path class="st50" d="M27.3,94.5c-0.2,0.1-0.3,0.2-0.2,0.4c0.1,0.2,0.2,0.3,0.4,0.2c0.2-0.1,0.3-0.2,0.2-0.4
					C27.6,94.6,27.5,94.5,27.3,94.5z"/>
				<path class="st50" d="M26.4,91.9c-0.2,0.1-0.3,0.2-0.2,0.4c0.1,0.2,0.2,0.3,0.4,0.2c0.2-0.1,0.3-0.2,0.2-0.4
					C26.8,91.9,26.6,91.8,26.4,91.9z"/>
				<path class="st50" d="M25.7,89.6c-0.2,0.1-0.3,0.2-0.2,0.4c0.1,0.2,0.2,0.3,0.4,0.2c0.2-0.1,0.3-0.2,0.2-0.4
					C26.1,89.6,25.9,89.5,25.7,89.6z"/>
				<path class="st50" d="M24.7,87.3c0.1,0.2,0.2,0.3,0.4,0.2c0.2-0.1,0.3-0.2,0.2-0.4c0,0,0,0,0-0.1c-0.2,0-0.3,0-0.4-0.1l0,0
					C24.7,87,24.6,87.1,24.7,87.3z"/>
				<path class="st50" d="M26.5,98.8c0,0.1,0.1,0.1,0.1,0.2c0.1-0.2,0.2-0.4,0.3-0.6c-0.1,0-0.1,0-0.2,0
					C26.5,98.4,26.4,98.6,26.5,98.8z"/>
				<path class="st50" d="M25.9,96.1c-0.2,0.1-0.3,0.2-0.2,0.4c0.1,0.2,0.2,0.3,0.4,0.2c0.2-0.1,0.3-0.2,0.2-0.4
					C26.3,96.1,26.1,96,25.9,96.1z"/>
				<ellipse class="st50" cx="25.2" cy="93.7" rx="0.3" ry="0.3"/>
				<path class="st50" d="M24.3,91.1c-0.2,0.1-0.3,0.2-0.2,0.4c0.1,0.2,0.2,0.3,0.4,0.2c0.2-0.1,0.3-0.2,0.2-0.4
					C24.7,91.2,24.5,91.1,24.3,91.1z"/>
				<ellipse class="st50" cx="23.6" cy="88.8" rx="0.3" ry="0.3"/>
				<path class="st50" d="M23,86.8c0.1,0,0.2-0.1,0.2-0.2c-0.2,0-0.4,0-0.5,0.1C22.7,86.8,22.8,86.8,23,86.8z"/>
				<path class="st50" d="M25.4,101c0,0,0,0.1,0.1,0.1c0.1-0.2,0.2-0.3,0.3-0.5c-0.1,0-0.1,0-0.2,0C25.4,100.6,25.3,100.8,25.4,101z
					"/>
				<path class="st50" d="M24.7,97.9c-0.2,0.1-0.3,0.2-0.2,0.4c0.1,0.2,0.2,0.3,0.4,0.2c0.2-0.1,0.3-0.2,0.2-0.4
					C25.1,97.9,24.9,97.8,24.7,97.9z"/>
				<path class="st50" d="M24,95.6c-0.2,0.1-0.3,0.2-0.2,0.4c0.1,0.2,0.2,0.3,0.4,0.2c0.2-0.1,0.3-0.2,0.2-0.4
					C24.3,95.6,24.2,95.5,24,95.6z"/>
				<path class="st50" d="M23.6,93.1c-0.1-0.2-0.2-0.3-0.4-0.2l0.1,0.6h0.1C23.5,93.5,23.6,93.3,23.6,93.1z"/>
				<path class="st50" d="M24.4,102.1v0.3c0,0,0.1-0.1,0.2-0.2C24.6,102.2,24.5,102.1,24.4,102.1z"/>
			</g>
			<g>
				<path class="st51" d="M20.3,87.1c0,0,3.4-2,5.7,3s-1.6,12.3-1.6,12.3L20.3,87.1z"/>
			</g>
			<g>
				<path class="st49" d="M19.6,87.1L19.6,87.1c0.2,0.1,0.3,0.2,0.3,0.3c0,0.1,0,0.3-0.1,0.3l0.6,1.7c0.1,0,0.2,0.1,0.3,0.2
					c0,0.1,0,0.3-0.1,0.3l0.7,2.1c0.1,0,0.2,0.1,0.3,0.2c0,0.1,0,0.3-0.1,0.3l0.6,1.7c0.1,0,0.2,0.1,0.3,0.2c0,0.1,0,0.3-0.1,0.3
					l0.7,2.1c0.1,0,0.2,0.1,0.3,0.2c0,0.1,0,0.3-0.1,0.3l0.6,1.7c0.1,0,0.2,0.1,0.3,0.2c0,0.1,0,0.3-0.1,0.3l0.7,2.1
					c0.1,0,0.1,0,0.2,0.1c0.1-0.5,0.3-1.8,0.3-3.6c-0.1,0-0.2-0.1-0.3-0.2c-0.1-0.2,0-0.3,0.2-0.4c0,0,0,0,0.1,0c0-0.1,0-0.3,0-0.4
					c-0.1-1.8-0.3-6.7-3-9.9C21.2,86.9,20.4,86.7,19.6,87.1z M24.2,96.2c-0.2,0.1-0.3,0-0.4-0.2s0-0.3,0.2-0.4s0.3,0,0.4,0.2
					C24.5,96,24.4,96.1,24.2,96.2z M23.3,93.5c-0.2,0.1-0.3,0-0.4-0.2s0-0.3,0.2-0.4s0.3,0,0.4,0.2C23.6,93.3,23.5,93.5,23.3,93.5z
					 M22.6,91.2c-0.2,0.1-0.3,0-0.4-0.2s0-0.3,0.2-0.4s0.3,0,0.4,0.2C22.9,91,22.8,91.2,22.6,91.2z M21.8,88.6
					c-0.2,0.1-0.3,0-0.4-0.2s0-0.3,0.2-0.4s0.3,0,0.4,0.2C22,88.3,21.9,88.5,21.8,88.6z"/>
				<path class="st50" d="M24.5,98.3c0,0.1,0.2,0.2,0.3,0.2c0-0.2,0-0.4,0-0.6c0,0,0,0-0.1,0C24.6,98,24.5,98.1,24.5,98.3z"/>
				<path class="st50" d="M24,95.6c-0.2,0.1-0.3,0.2-0.2,0.4c0.1,0.2,0.2,0.3,0.4,0.2c0.2-0.1,0.3-0.2,0.2-0.4
					C24.3,95.6,24.2,95.5,24,95.6z"/>
				<path class="st50" d="M23.2,92.9C23,93,22.9,93.1,23,93.3c0.1,0.2,0.2,0.3,0.4,0.2c0.2-0.1,0.3-0.2,0.2-0.4
					C23.5,93,23.3,92.9,23.2,92.9z"/>
				<path class="st50" d="M22.4,90.6c-0.2,0.1-0.3,0.2-0.2,0.4c0.1,0.2,0.2,0.3,0.4,0.2c0.2-0.1,0.3-0.2,0.2-0.4
					C22.8,90.7,22.6,90.6,22.4,90.6z"/>
				<path class="st50" d="M21.6,88c-0.2,0.1-0.3,0.2-0.2,0.4c0.1,0.2,0.2,0.3,0.4,0.2c0.2-0.1,0.3-0.2,0.2-0.4
					C21.9,88,21.7,87.9,21.6,88z"/>
				<path class="st50" d="M24.3,102.1l0.1,0.3c0,0,0-0.1,0.1-0.3C24.4,102.1,24.4,102.1,24.3,102.1z"/>
				<path class="st50" d="M23.8,99.7c0-0.1-0.2-0.2-0.3-0.2l0.2,0.6C23.8,99.9,23.8,99.8,23.8,99.7z"/>
				<path class="st50" d="M23,97.3c0-0.1-0.2-0.2-0.3-0.2l0.2,0.6C23,97.6,23.1,97.5,23,97.3z"/>
				<path class="st50" d="M22.2,94.7c0-0.1-0.2-0.2-0.3-0.2l0.2,0.6C22.2,95,22.2,94.8,22.2,94.7z"/>
				<path class="st50" d="M21.5,92.4c0-0.1-0.2-0.2-0.3-0.2l0.2,0.6C21.4,92.6,21.5,92.5,21.5,92.4z"/>
				<path class="st50" d="M20.6,89.7c0-0.1-0.2-0.2-0.3-0.2l0.2,0.6C20.6,90,20.7,89.8,20.6,89.7z"/>
				<path class="st50" d="M19.9,87.4c0-0.1-0.2-0.2-0.3-0.2l0.2,0.6C19.9,87.7,19.9,87.5,19.9,87.4z"/>
			</g>
		</g>
		<g>
			<path class="st52" d="M26.6,104.9c0,0.1,0,0.2,0,0.3c0,0.1-0.1,0.2-0.2,0.3c-0.1,0-0.2,0-0.3,0c-0.1-0.1-0.1-0.2-0.2-0.2
				c0,0.1,0,0.1,0,0.2s0,0.2-0.1,0.2c-0.1,0.1-0.3,0.2-0.4,0.1c-0.2-0.1-0.2-0.3-0.3-0.2c0,0.1,0,0.2-0.1,0.3c0,0.1-0.1,0.2-0.2,0.2
				s-0.3,0-0.4-0.1c-0.1,0-0.1-0.1-0.1-0.1l-0.1-0.1c0,0.3,0.4,0.4,0.6,0.3s0.3-0.3,0.3-0.5c0.1,0.2,0.3,0.2,0.5,0.2
				c0.2-0.1,0.3-0.2,0.3-0.5c0.1,0.2,0.3,0.3,0.5,0.2C26.5,105.5,26.8,105.2,26.6,104.9L26.6,104.9z"/>
		</g>
		<g>
			<path class="st53" d="M26.8,104.8c0,0.1-0.1,0.2-0.1,0.2l-2.5,0.8c-0.1,0-0.1,0-0.2-0.1l-0.1-0.3c0-0.1,0-0.1,0.1-0.2l2.5-0.8
				c0.1,0,0.2,0,0.2,0.1L26.8,104.8z"/>
		</g>
		<g>
			<g>
				<rect x="25.9" y="105.2" class="st46" width="0" height="0.8"/>
			</g>
		</g>
		<g>
			<path class="st52" d="M24.1,101.5l-1.8,0.6c0,0,0.9,0.6,1.3,1.5c0.1,0,1.9-0.6,2-0.6c-0.2-1,0.2-2,0.2-2L24.1,101.5z"/>
		</g>
		<g>
			<path class="st54" d="M26.2,106.3c-0.1-0.1-0.1-0.2-0.2-0.3c-0.1-0.1-0.1,0-0.1,0c0,0.1,0,0.2,0,0.3c0,0-0.1,0.2,0,0.4
				c0,0.1,0.2,0.2,0.3,0.2c0.1,0,0.2-0.2,0.1-0.3C26.4,106.4,26.3,106.3,26.2,106.3z"/>
		</g>
		<g>
			<path class="st55" d="M26,106.4c0,0.1,0,0.2,0,0.2c0,0.1,0.2,0.2,0.3,0.2c0.1,0,0.1-0.1,0.1-0.1c-0.1,0-0.2,0-0.3-0.1
				C26.2,106.6,26,106.4,26,106.4z"/>
		</g>
	</g>
</g>
</svg>
