<?xml version="1.0" encoding="utf-8"?>
<!-- Generator: Adobe Illustrator 27.2.0, SVG Export Plug-In . SVG Version: 6.00 Build 0)  -->
<svg version="1.1" id="face" xmlns="http://www.w3.org/2000/svg" xmlns:xlink="http://www.w3.org/1999/xlink" x="0px" y="0px"
	 viewBox="0 0 82.6 59.8" style="enable-background:new 0 0 82.6 59.8;" xml:space="preserve">
<style type="text/css">
	.st0{fill-rule:evenodd;clip-rule:evenodd;fill:#FFC068;}
</style>
<path class="st0" d="M67.5,17.4c7.5-3.3,10.1,3.3,10.6,4.3c11.8,6.7-3,18.1-8.3,16.8c3.9,20.1-17.8,17.3-16.2,4.6
	c-0.4,0.6-4.5,2.3-7,2.2C50.3,65,28,63,31.2,49.4c-2.3,1.9-9.4,2.4-12.5,2.2c-2.4,4.5-10.5,7.8-14-3.1c-2.5-7.8-9-18.5-0.3-21
	c2.6-0.8,5.2,0.1,6.7,2.4c0.9-4.3,3.9-7,7.6-6.3c-0.3-1.2-0.5-2.3-0.7-3.5C7.8,19.8,11.3-3.1,33.4,0.3c3.3,0.5,6.7,2,8.1,5.2
	C43.3,5,45,4.8,46.8,5.1c1.3-1.6,3.5-2.5,5.6-2.2c3.5-2.7,10.2-0.6,9.7,4C71.1,4.4,69.2,16.4,67.5,17.4L67.5,17.4z"/>
</svg>
