<?xml version="1.0" encoding="UTF-8"?>
<svg id="Layer_1" data-name="Layer 1" xmlns="http://www.w3.org/2000/svg" xmlns:xlink="http://www.w3.org/1999/xlink" viewBox="0 0 27.02 24.41">
  <defs>
    <style>
      .cls-1 {
        fill: url(#linear-gradient);
      }

      .cls-2 {
        fill: #fff;
      }

      .cls-3 {
        fill: #666;
      }

      .cls-4 {
        fill: #8c8c8c;
      }

      .cls-5 {
        fill: #939393;
      }

      .cls-6 {
        fill: #b2b2b2;
      }

      .cls-7 {
        fill: #d4d4d4;
      }

      .cls-8 {
        fill: #636363;
      }

      .cls-9 {
        fill: url(#radial-gradient-10);
      }

      .cls-10 {
        fill: url(#radial-gradient-11);
      }

      .cls-11 {
        fill: url(#radial-gradient-15);
      }

      .cls-12 {
        fill: url(#radial-gradient-12);
      }

      .cls-13 {
        fill: url(#radial-gradient-14);
      }

      .cls-14 {
        fill: url(#radial-gradient-13);
      }

      .cls-15 {
        fill: url(#radial-gradient-6);
      }

      .cls-16 {
        fill: url(#radial-gradient-5);
      }

      .cls-17 {
        fill: url(#radial-gradient-3);
      }

      .cls-18 {
        fill: url(#radial-gradient-4);
      }

      .cls-19 {
        fill: url(#radial-gradient-9);
      }

      .cls-20 {
        fill: url(#radial-gradient-8);
      }

      .cls-21 {
        fill: url(#radial-gradient-7);
      }

      .cls-22 {
        fill: url(#radial-gradient-2);
      }

      .cls-23 {
        fill: url(#linear-gradient-8);
      }

      .cls-24 {
        fill: url(#linear-gradient-9);
      }

      .cls-25 {
        fill: url(#linear-gradient-3);
      }

      .cls-26 {
        fill: url(#linear-gradient-4);
      }

      .cls-27 {
        fill: url(#linear-gradient-2);
      }

      .cls-28 {
        fill: url(#linear-gradient-6);
      }

      .cls-29 {
        fill: url(#linear-gradient-7);
      }

      .cls-30 {
        fill: url(#linear-gradient-5);
      }

      .cls-31 {
        fill: url(#radial-gradient);
      }

      .cls-32 {
        fill: url(#linear-gradient-14);
      }

      .cls-33 {
        fill: url(#linear-gradient-18);
      }

      .cls-34 {
        fill: url(#linear-gradient-22);
      }

      .cls-35 {
        fill: url(#linear-gradient-20);
      }

      .cls-36 {
        fill: url(#linear-gradient-21);
      }

      .cls-37 {
        fill: url(#linear-gradient-23);
      }

      .cls-38 {
        fill: url(#linear-gradient-15);
      }

      .cls-39 {
        fill: url(#linear-gradient-19);
      }

      .cls-40 {
        fill: url(#linear-gradient-16);
      }

      .cls-41 {
        fill: url(#linear-gradient-17);
      }

      .cls-42 {
        fill: url(#linear-gradient-13);
      }

      .cls-43 {
        fill: url(#linear-gradient-12);
      }

      .cls-44 {
        fill: url(#linear-gradient-10);
      }

      .cls-45 {
        fill: url(#linear-gradient-11);
      }

      .cls-46 {
        fill: url(#linear-gradient-27);
      }

      .cls-47 {
        fill: url(#linear-gradient-24);
      }

      .cls-48 {
        fill: url(#linear-gradient-26);
      }

      .cls-49 {
        fill: url(#linear-gradient-35);
      }

      .cls-50 {
        fill: url(#linear-gradient-34);
      }

      .cls-51 {
        fill: url(#linear-gradient-25);
      }

      .cls-52 {
        fill: url(#linear-gradient-28);
      }

      .cls-53 {
        fill: url(#linear-gradient-29);
      }

      .cls-54 {
        fill: url(#linear-gradient-33);
      }

      .cls-55 {
        fill: url(#linear-gradient-30);
      }

      .cls-56 {
        fill: url(#linear-gradient-32);
      }

      .cls-57 {
        fill: url(#linear-gradient-31);
      }
    </style>
    <linearGradient id="linear-gradient" x1="-2228.09" y1="1531.61" x2="-2228.09" y2="1563.95" gradientTransform="translate(1619.69 -2171.3) rotate(-18.93)" gradientUnits="userSpaceOnUse">
      <stop offset=".19" stop-color="#3f3f3f"/>
      <stop offset="1" stop-color="#000"/>
    </linearGradient>
    <linearGradient id="linear-gradient-2" x1="-2239.6" y1="1542.7" x2="-2240.72" y2="1542.7" gradientTransform="translate(1619.69 -2171.3) rotate(-18.93)" gradientUnits="userSpaceOnUse">
      <stop offset="0" stop-color="#3f3f3f"/>
      <stop offset=".23" stop-color="#373737"/>
      <stop offset=".58" stop-color="#222"/>
      <stop offset="1" stop-color="#000"/>
    </linearGradient>
    <linearGradient id="linear-gradient-3" x1="-2235.35" y1="1535.12" x2="-2235.35" y2="1548.75" xlink:href="#linear-gradient"/>
    <linearGradient id="linear-gradient-4" x1="-2220.23" y1="1548.83" x2="-2220.23" y2="1550.79" xlink:href="#linear-gradient"/>
    <linearGradient id="linear-gradient-5" x1="-2223.42" y1="1538.34" x2="-2225.92" y2="1553.08" xlink:href="#linear-gradient"/>
    <radialGradient id="radial-gradient" cx="-80399.61" cy="54684.38" fx="-80399.61" fy="54684.38" r="385.68" gradientTransform="translate(1635.59 -2164.54) rotate(-19.09) scale(.03)" gradientUnits="userSpaceOnUse">
      <stop offset="0" stop-color="#8c8c8c"/>
      <stop offset="1" stop-color="#3f3f3f"/>
    </radialGradient>
    <radialGradient id="radial-gradient-2" cx="-80412.27" cy="54690.96" fx="-80412.27" fy="54690.96" r="656.11" gradientTransform="translate(1635.59 -2164.54) rotate(-19.09) scale(.03)" gradientUnits="userSpaceOnUse">
      <stop offset="0" stop-color="#595959"/>
      <stop offset="1" stop-color="#000"/>
    </radialGradient>
    <radialGradient id="radial-gradient-3" cx="-80371.49" cy="54669.05" fx="-80371.49" fy="54669.05" r="494.07" xlink:href="#radial-gradient-2"/>
    <radialGradient id="radial-gradient-4" cx="-80444.99" cy="54678.48" fx="-80444.99" fy="54678.48" r="393.24" xlink:href="#radial-gradient-2"/>
    <radialGradient id="radial-gradient-5" cx="-80553.82" cy="54886.96" fx="-80553.82" fy="54886.96" r="368.75" xlink:href="#radial-gradient-2"/>
    <radialGradient id="radial-gradient-6" cx="-80553.4" cy="54903.4" fx="-80553.4" fy="54903.4" r="263.69" xlink:href="#radial-gradient"/>
    <radialGradient id="radial-gradient-7" cx="-80556.49" cy="54900.29" fx="-80556.49" fy="54900.29" r="391.9" xlink:href="#radial-gradient-2"/>
    <radialGradient id="radial-gradient-8" cx="-80547.83" cy="54888.04" fx="-80547.83" fy="54888.04" r="216.82" xlink:href="#radial-gradient"/>
    <radialGradient id="radial-gradient-9" cx="-80555.57" cy="54894.22" fx="-80555.57" fy="54894.22" r="265.62" xlink:href="#radial-gradient-2"/>
    <radialGradient id="radial-gradient-10" cx="-80569.27" cy="54879.72" fx="-80569.27" fy="54879.72" r="214.81" xlink:href="#radial-gradient"/>
    <radialGradient id="radial-gradient-11" cx="-80554.83" cy="54894.19" fx="-80554.83" fy="54894.19" r="288.12" xlink:href="#radial-gradient-2"/>
    <radialGradient id="radial-gradient-12" cx="-80560.33" cy="54920.69" fx="-80560.33" fy="54920.69" r="278.88" xlink:href="#radial-gradient"/>
    <radialGradient id="radial-gradient-13" cx="-2224.57" cy="1545.11" fx="-2224.57" fy="1545.11" r="2.95" gradientTransform="translate(1619.69 -2171.3) rotate(-18.93)" gradientUnits="userSpaceOnUse">
      <stop offset="0" stop-color="#737373"/>
      <stop offset=".26" stop-color="#4d4d4d"/>
      <stop offset=".59" stop-color="#232323"/>
      <stop offset=".85" stop-color="#090909"/>
      <stop offset="1" stop-color="#000"/>
    </radialGradient>
    <radialGradient id="radial-gradient-14" cx="-80550.47" cy="54880.1" fx="-80550.47" fy="54880.1" r="26.11" xlink:href="#radial-gradient-2"/>
    <radialGradient id="radial-gradient-15" cx="-80558.1" cy="54906.5" fx="-80558.1" fy="54906.5" r="32.46" xlink:href="#radial-gradient-2"/>
    <linearGradient id="linear-gradient-6" x1="-2215.08" y1="1546.05" x2="-2216.62" y2="1546.05" xlink:href="#linear-gradient-2"/>
    <linearGradient id="linear-gradient-7" x1="-2240.15" y1="1546.52" x2="-2235.92" y2="1546.52" gradientTransform="translate(1619.69 -2171.3) rotate(-18.93)" gradientUnits="userSpaceOnUse">
      <stop offset="0" stop-color="#000"/>
      <stop offset=".31" stop-color="#0f0f0f"/>
      <stop offset=".9" stop-color="#373737"/>
      <stop offset="1" stop-color="#3f3f3f"/>
    </linearGradient>
    <linearGradient id="linear-gradient-8" x1="-2232.83" y1="1546.31" x2="-2235.3" y2="1546.31" xlink:href="#linear-gradient"/>
    <linearGradient id="linear-gradient-9" x1="-2233.59" y1="1540.47" x2="-2232.47" y2="1538.42" xlink:href="#linear-gradient"/>
    <linearGradient id="linear-gradient-10" x1="-2236.75" y1="1535.99" x2="-2237.23" y2="1539.33" xlink:href="#linear-gradient"/>
    <linearGradient id="linear-gradient-11" x1="-2217.12" y1="1534.77" x2="-2217.66" y2="1538.57" xlink:href="#linear-gradient"/>
    <linearGradient id="linear-gradient-12" x1="-2228.95" y1="1549.02" x2="-2228.95" y2="1550.81" xlink:href="#linear-gradient"/>
    <linearGradient id="linear-gradient-13" x1="-2237.15" y1="1538.17" x2="-2237.39" y2="1541.51" gradientTransform="translate(1619.69 -2171.3) rotate(-18.93)" gradientUnits="userSpaceOnUse">
      <stop offset="0" stop-color="#fff"/>
      <stop offset="1" stop-color="#b2b2b2"/>
    </linearGradient>
    <linearGradient id="linear-gradient-14" x1="-2239.34" y1="1539.31" x2="-2235.13" y2="1539.31" gradientTransform="translate(1619.69 -2171.3) rotate(-18.93)" gradientUnits="userSpaceOnUse">
      <stop offset="0" stop-color="#000"/>
      <stop offset=".07" stop-color="#666"/>
      <stop offset=".13" stop-color="#b2b2b2"/>
      <stop offset=".29" stop-color="#fff"/>
      <stop offset=".37" stop-color="#fdfdfd"/>
      <stop offset=".4" stop-color="#f6f6f6"/>
      <stop offset=".41" stop-color="#f3f3f3"/>
      <stop offset=".7" stop-color="#b2b2b2"/>
      <stop offset=".84" stop-color="#666"/>
      <stop offset=".87" stop-color="#646464"/>
      <stop offset=".88" stop-color="#5d5d5d"/>
      <stop offset=".89" stop-color="#515151"/>
      <stop offset=".89" stop-color="#404040"/>
      <stop offset=".9" stop-color="#2a2a2a"/>
      <stop offset=".9" stop-color="#101010"/>
      <stop offset=".9" stop-color="#000"/>
    </linearGradient>
    <linearGradient id="linear-gradient-15" x1="-2237.31" y1="1538.02" x2="-2237.31" y2="1539.41" gradientTransform="translate(1619.69 -2171.3) rotate(-18.93)" gradientUnits="userSpaceOnUse">
      <stop offset="0" stop-color="#b2b2b2"/>
      <stop offset="1" stop-color="#000"/>
    </linearGradient>
    <linearGradient id="linear-gradient-16" x1="-2238.87" y1="1539.09" x2="-2235.74" y2="1539.09" xlink:href="#linear-gradient-14"/>
    <linearGradient id="linear-gradient-17" x1="-2236.94" y1="1537.91" x2="-2237.44" y2="1539.33" xlink:href="#linear-gradient-15"/>
    <linearGradient id="linear-gradient-18" x1="-2238.4" y1="1538.84" x2="-2236.12" y2="1538.84" xlink:href="#linear-gradient-14"/>
    <linearGradient id="linear-gradient-19" x1="-2232.3" y1="1537.55" x2="-2232.3" y2="1537.94" xlink:href="#linear-gradient"/>
    <linearGradient id="linear-gradient-20" x1="-2233.38" y1="1537.16" x2="-2233.38" y2="1537.91" gradientTransform="translate(2240.78 -1527.78) rotate(.06)" xlink:href="#linear-gradient"/>
    <linearGradient id="linear-gradient-21" x1="-2233.1" y1="1537.16" x2="-2233.1" y2="1537.91" xlink:href="#linear-gradient"/>
    <linearGradient id="linear-gradient-22" x1="-2232.81" y1="1537.16" x2="-2232.81" y2="1537.91" gradientTransform="translate(2234.57 -1536.92) rotate(-.17)" xlink:href="#linear-gradient"/>
    <linearGradient id="linear-gradient-23" x1="-2232.53" y1="1537.16" x2="-2232.53" y2="1537.91" xlink:href="#linear-gradient"/>
    <linearGradient id="linear-gradient-24" x1="-2232.25" y1="1537.16" x2="-2232.25" y2="1537.91" xlink:href="#linear-gradient"/>
    <linearGradient id="linear-gradient-25" x1="-2231.96" y1="1537.16" x2="-2231.96" y2="1537.91" xlink:href="#linear-gradient"/>
    <linearGradient id="linear-gradient-26" x1="-2231.67" y1="1537.16" x2="-2231.67" y2="1537.91" xlink:href="#linear-gradient"/>
    <linearGradient id="linear-gradient-27" x1="-2231.39" y1="1537.16" x2="-2231.39" y2="1537.91" xlink:href="#linear-gradient"/>
    <linearGradient id="linear-gradient-28" x1="-2231.11" y1="1537.16" x2="-2231.11" y2="1537.91" gradientTransform="translate(2239.47 -1530.25) rotate(.01)" xlink:href="#linear-gradient"/>
    <linearGradient id="linear-gradient-29" x1="-2224.58" y1="1533.93" x2="-2224.56" y2="1535.14" xlink:href="#linear-gradient"/>
    <linearGradient id="linear-gradient-30" x1="-2224.56" y1="1536.7" x2="-2224.56" y2="1534.61" gradientTransform="translate(1619.69 -2171.3) rotate(-18.93)" gradientUnits="userSpaceOnUse">
      <stop offset="0" stop-color="#fff"/>
      <stop offset=".24" stop-color="#fcfcfc"/>
      <stop offset=".42" stop-color="#fff"/>
      <stop offset=".81" stop-color="#e1e0df"/>
      <stop offset="1" stop-color="#dedede"/>
    </linearGradient>
    <linearGradient id="linear-gradient-31" x1="-2227.39" y1="1533.9" x2="-2227.39" y2="1536.53" xlink:href="#linear-gradient-30"/>
    <linearGradient id="linear-gradient-32" x1="-2221.86" y1="1533.9" x2="-2221.86" y2="1536.53" xlink:href="#linear-gradient-30"/>
    <linearGradient id="linear-gradient-33" x1="-2224.59" y1="1535.17" x2="-2224.59" y2="1535.7" xlink:href="#linear-gradient-30"/>
    <linearGradient id="linear-gradient-34" x1="-2224.47" y1="1533.31" x2="-2224.47" y2="1534.05" xlink:href="#linear-gradient"/>
    <linearGradient id="linear-gradient-35" x1="-2224.48" y1="1533.97" x2="-2224.48" y2="1533.52" xlink:href="#linear-gradient"/>
  </defs>
  <path class="cls-1" d="m20.47,3.44c-.47.21-.99.31-1.5.22-.64-.11-1.91-2.79-2.3-3.27-.11-.14-.33-.4-.54-.33,0,0-6.68,2.29-6.7,2.3-.41.14.45,3.02.41,3.34-.06.51-.67,1.22-1.17,1.36-3.47,1-7.52,2.91-7.52,2.91-1.85.78-.93,3.46-.93,3.46l3.7,10.89c2.54.59,5.02-1.52,5.02-1.52l17.16-5.88c1.21-.41.86-1.42.86-1.42l-3.51-10.25c-.31-.91-1.32-2.54-2.98-1.8Z"/>
  <path class="cls-27" d="m.43,14.22c-.19.06-.29.27-.22.45l.23.68c.06.19.27.28.45.22.19-.06.28-.27.22-.45l-.23-.67c-.06-.19-.27-.28-.45-.22Zm.53.82c.04.12-.02.26-.15.3-.12.04-.26-.02-.3-.15l-.15-.45c-.04-.12.02-.26.15-.3.12-.04.26.02.3.15l.15.45Z"/>
  <path class="cls-25" d="m.25,12.83c-.32-.95-.06-1.94.78-2.53.68-.48,1.52-.73,2.28-1.04,1.07-.44,2.13-.91,3.24-1.25.42-.13.71-.25,1.94-.67,0,0-1.38,8.49,4.43,12.35l.21.64-4.01,1.39s-2.62,2.58-5.3,1.77c0,0-3.56-10.65-3.57-10.67Z"/>
  <path d="m23.26,4.81S4.96,11.09,4.83,11.13c-.13.04-1.97,1.86-4.77,1.64.04.12.04.11.05.15,2.73.1,4.77-1.64,4.77-1.64l18.43-6.32-.05-.15Z"/>
  <path class="cls-26" d="m23.36,15.56s-.19,1.22-1.78,2.31l2.33-.89s.43-1.21-.55-1.42Z"/>
  <g>
    <path d="m23.67,9.55c1.37,4.01-.73,8.36-4.7,9.73-3.97,1.36-8.31-.79-9.68-4.79-1.37-4.01.73-8.36,4.7-9.72,3.97-1.36,8.3.78,9.68,4.79Z"/>
    <path class="cls-30" d="m23.62,9.57c1.37,3.98-.73,8.3-4.67,9.65-3.94,1.35-8.24-.78-9.61-4.76-1.37-3.98.72-8.3,4.67-9.65,3.94-1.35,8.24.78,9.61,4.76Z"/>
    <path d="m23.28,9.69c1.3,3.79-.69,7.91-4.45,9.2-3.76,1.29-7.86-.74-9.16-4.53-1.3-3.79.69-7.91,4.45-9.2,3.76-1.29,7.86.74,9.16,4.53Z"/>
    <path class="cls-31" d="m23.18,9.72c1.28,3.74-.68,7.79-4.38,9.06-3.7,1.27-7.74-.73-9.02-4.47-1.28-3.73.68-7.79,4.38-9.06,3.7-1.27,7.74.73,9.02,4.47Z"/>
    <path class="cls-22" d="m22.93,9.81c1.23,3.59-.66,7.5-4.21,8.72-3.56,1.22-7.45-.7-8.68-4.3-1.23-3.59.66-7.5,4.22-8.72,3.56-1.22,7.44.7,8.68,4.3Z"/>
    <path class="cls-17" d="m22.82,9.85c1.21,3.53-.64,7.37-4.14,8.57-3.5,1.2-7.32-.69-8.53-4.22-1.21-3.53.64-7.37,4.14-8.57,3.5-1.2,7.32.69,8.53,4.22Z"/>
    <path class="cls-18" d="m21.94,10.15c1.04,3.05-.56,6.35-3.57,7.39-3.01,1.03-6.31-.6-7.35-3.64-1.04-3.04.56-6.35,3.57-7.38,3.01-1.03,6.31.59,7.35,3.64Z"/>
    <path class="cls-16" d="m21.83,10.18c1.02,2.98-.54,6.22-3.5,7.24-2.95,1.01-6.18-.59-7.2-3.57-1.02-2.98.54-6.22,3.5-7.24,2.95-1.01,6.18.58,7.2,3.57Z"/>
    <path class="cls-15" d="m21.56,10.28c.97,2.83-.51,5.91-3.32,6.87-2.81.96-5.87-.55-6.84-3.39-.97-2.83.52-5.91,3.32-6.87,2.81-.96,5.87.55,6.84,3.39Z"/>
    <path class="cls-21" d="m21.48,10.3c.96,2.79-.51,5.82-3.27,6.76-2.76.95-5.78-.55-6.73-3.33-.96-2.79.51-5.82,3.27-6.76,2.76-.95,5.78.54,6.73,3.33Z"/>
    <path class="cls-20" d="m21.32,10.36c.93,2.7-.49,5.63-3.16,6.54-2.67.92-5.59-.53-6.51-3.23-.92-2.7.49-5.63,3.17-6.54,2.67-.92,5.59.53,6.51,3.22Z"/>
    <path class="cls-19" d="m21.24,10.39c.91,2.65-.48,5.53-3.11,6.43-2.63.9-5.5-.52-6.4-3.17-.91-2.65.48-5.53,3.11-6.43,2.63-.9,5.5.52,6.4,3.17Z"/>
    <path class="cls-9" d="m20.94,10.49c.85,2.49-.45,5.19-2.92,6.03-2.46.84-5.15-.49-6-2.97-.85-2.49.45-5.19,2.92-6.03,2.46-.84,5.15.49,6,2.97Z"/>
    <path class="cls-10" d="m20.75,10.55c.82,2.38-.43,4.97-2.79,5.78-2.36.81-4.93-.47-5.75-2.85-.82-2.38.43-4.97,2.79-5.78,2.36-.81,4.93.46,5.75,2.85Z"/>
    <path d="m19.44,11c.57,1.65-.3,3.45-1.94,4.01-1.64.56-3.42-.32-3.99-1.98-.57-1.65.3-3.45,1.94-4.01,1.64-.56,3.42.32,3.99,1.98Z"/>
    <path class="cls-12" d="m19.36,11.03c.55,1.6-.29,3.35-1.88,3.89-1.59.55-3.33-.32-3.87-1.92-.55-1.6.29-3.35,1.88-3.89,1.59-.54,3.32.31,3.87,1.92Z"/>
    <path class="cls-14" d="m19.26,11.07c.53,1.55-.28,3.23-1.82,3.76-1.54.53-3.21-.3-3.75-1.85-.53-1.55.28-3.24,1.82-3.76,1.54-.53,3.21.3,3.74,1.85Z"/>
    <path class="cls-13" d="m17.36,11.72c.17.49-.09,1.03-.58,1.19-.49.17-1.02-.1-1.19-.59-.17-.49.09-1.03.58-1.19.49-.17,1.02.1,1.19.59Z"/>
    <path class="cls-11" d="m16.96,11.85c.09.27-.05.56-.32.65-.27.09-.56-.05-.65-.32-.09-.27.05-.56.32-.65.27-.09.56.05.65.32Z"/>
    <path class="cls-6" d="m15.47,18.88s5.18.77,7.35-4.18c0,0-1.24,4.75-7.35,4.18Z"/>
    <g>
      <path class="cls-7" d="m20.89,7.11l-.04.04-.17-.14-.13.11s.05.02.06.04c.04.04.07.08.07.13,0,.05-.01.1-.05.15-.03.03-.06.05-.09.07-.04.01-.07.02-.11.01-.04,0-.07-.03-.1-.05-.04-.03-.06-.07-.07-.12,0-.04,0-.09.03-.13l.05.04s-.02.04-.02.06c0,.02,0,.04.01.06,0,.02.02.03.04.05.03.03.07.04.11.03.04,0,.08-.02.11-.06.03-.03.04-.07.04-.1,0-.04-.02-.07-.05-.1-.03-.02-.07-.04-.12-.06l.24-.19.2.17Z"/>
      <path class="cls-7" d="m20.77,7.41c.06-.06.11-.1.15-.12.04-.02.09-.02.12-.02.04,0,.07.02.1.05.03.03.05.06.05.1,0,.04,0,.08-.02.13-.02.04-.06.1-.11.15-.06.05-.1.09-.15.11-.04.02-.09.03-.13.02-.04,0-.07-.02-.1-.05-.03-.03-.04-.06-.05-.1,0-.04,0-.08.02-.12.02-.04.06-.1.11-.15Zm.04.04s-.08.09-.1.12c-.02.03-.02.07-.02.1,0,.03.02.05.04.07.02.02.04.03.07.03.03,0,.06,0,.09-.02.04-.02.08-.05.13-.09.04-.04.07-.08.09-.12.02-.04.03-.07.02-.1,0-.03-.02-.06-.03-.07-.02-.02-.04-.03-.07-.04-.03,0-.06,0-.1.02-.03.02-.07.05-.12.1Z"/>
      <path class="cls-7" d="m21.44,7.9l.03.05-.06.05s.06,0,.09.01c.03.01.06.03.08.06.01.02.02.04.03.06,0,.02,0,.04,0,.06,0,.02-.01.04-.03.06.04,0,.08,0,.11.01.03.01.06.03.08.06.02.02.03.05.03.08,0,.03,0,.06-.02.08-.02.03-.05.05-.09.09l-.2.15-.04-.05.2-.15s.07-.05.07-.07c.01-.02.02-.03.02-.06,0-.02,0-.04-.02-.06-.02-.02-.04-.04-.07-.05-.03,0-.06,0-.08,0-.03,0-.07.03-.12.07l-.14.1-.03-.05.19-.14s.07-.06.08-.08c.01-.02.02-.03.02-.06,0-.02,0-.04-.02-.06-.02-.02-.04-.04-.07-.05-.03,0-.05,0-.08,0-.03,0-.07.03-.11.06l-.16.11-.04-.05.37-.27Z"/>
      <path class="cls-7" d="m21.94,8.6l.03.05-.07.04s.06.01.09.02c.03.02.05.04.07.07,0,.02.02.04.02.06,0,.02,0,.04,0,.06,0,.02-.02.04-.04.06.04,0,.08,0,.11.02.03.02.05.04.07.07.01.03.02.06.02.09,0,.03-.01.06-.03.08-.02.02-.05.05-.1.08l-.22.12-.03-.05.22-.12s.07-.04.08-.06c.01-.01.02-.03.02-.05,0-.02,0-.04-.01-.06-.01-.02-.04-.04-.06-.06-.03-.01-.05-.02-.08-.01-.03,0-.07.02-.13.05l-.16.09-.03-.05.21-.11s.08-.05.09-.06c.01-.02.02-.03.02-.05,0-.02,0-.04-.01-.06-.01-.02-.03-.04-.06-.05-.03-.01-.05-.02-.08-.01-.03,0-.07.02-.12.05l-.17.09-.03-.05.4-.22Z"/>
      <path class="cls-7" d="m22.78,10.11l.03.12-.59.17-.02-.06.53-.15-.03-.09.07.02Z"/>
      <path class="cls-7" d="m22.39,10.69s0,.03,0,.04c0,.01-.02.02-.03.02-.01,0-.03,0-.04,0-.01,0-.02-.02-.02-.03,0-.01,0-.03,0-.04,0-.01.02-.02.03-.02.01,0,.03,0,.04,0,.01,0,.02.02.02.03Zm.37-.08s0,.03,0,.04c0,.01-.02.02-.03.02-.01,0-.03,0-.04,0-.01,0-.02-.02-.02-.03,0-.01,0-.03,0-.04,0-.01.02-.02.03-.02.01,0,.03,0,.04,0,.01,0,.02.02.02.03Z"/>
      <path class="cls-7" d="m22.96,10.88l.02.12-.61.09v-.06s.54-.08.54-.08v-.1s.05.03.05.03Z"/>
      <path class="cls-7" d="m11.95,16.55l-.09-.09.44-.43.04.04-.39.39.07.07-.07.02Z"/>
      <path class="cls-7" d="m11.43,15.97l.05-.04.14.17.15-.08s-.04-.03-.05-.05c-.04-.04-.05-.09-.05-.14,0-.05.03-.1.08-.13.03-.02.07-.04.1-.05.04,0,.07,0,.11,0,.03.01.06.04.09.07.03.04.05.08.05.13,0,.04-.02.09-.05.12l-.04-.05s.02-.04.03-.06c0-.02,0-.04,0-.06,0-.02-.01-.04-.03-.05-.03-.03-.06-.05-.1-.05-.04,0-.08.01-.12.04-.03.03-.05.06-.05.09,0,.04,0,.07.04.11.02.03.06.06.11.08l-.27.15-.17-.2Z"/>
      <path class="cls-7" d="m11.34,15.85l-.04-.06.11-.26-.28.02-.04-.06.35-.02.15-.34.04.06-.12.28.3-.02.04.06-.37.02-.14.32Z"/>
    </g>
    <g>
      <path class="cls-5" d="m19.7,7.04c.19-.26.37-.52.56-.78.46.34.87.74,1.21,1.2-.26.19-.51.38-.77.57-.29-.38-.63-.72-1.01-.99Z"/>
      <path class="cls-5" d="m19.09,7.87c.19-.26.37-.52.56-.78.38.27.71.6.99.98-.26.19-.51.38-.77.57-.22-.3-.49-.56-.79-.77Z"/>
      <path class="cls-5" d="m18.35,6.36c.1-.3.19-.61.28-.91.55.17,1.07.42,1.53.75-.18.26-.36.52-.55.79-.39-.27-.82-.48-1.27-.62Z"/>
      <path class="cls-5" d="m18.04,7.34c.09-.3.19-.61.28-.92.45.14.87.35,1.25.61-.18.26-.36.53-.55.79-.3-.21-.64-.37-.99-.48Z"/>
      <path class="cls-8" d="m17.08,11.07c.14-.19.27-.38.41-.57.17.12.31.29.42.5-.17.15-.33.31-.5.46-.08-.16-.2-.29-.33-.39Z"/>
      <path class="cls-8" d="m16.57,10.87c.09-.21.18-.41.27-.62.23.03.43.11.61.23-.13.19-.27.38-.4.57-.14-.09-.3-.16-.48-.18Z"/>
    </g>
  </g>
  <path d="m8.78,22.31l18.21-6.27s-13.54,4.88-18.21,6.27Z"/>
  <path d="m3.87,23.9s2.15.96,4.96-1.63c0,0-1.91,2-4.96,1.63Z"/>
  <path class="cls-4" d="m23.65,5.83c-.04-.1-.15-.15-.26-.12l-.64.22c-.11.04-.17.15-.13.25l2.92,8.53c.04.1.15.15.26.11l.64-.22c.11-.04.17-.15.13-.25l-2.92-8.53Z"/>
  <path class="cls-28" d="m23.69,5.93c-.03-.1-.14-.15-.23-.12l-.57.2c-.1.03-.15.14-.12.24l2.83,8.26c.03.1.14.15.24.12l.57-.2c.1-.03.15-.14.12-.24l-2.83-8.26Z"/>
  <path d="m9.92,21.18c.03.1-.02.2-.12.24l-1.02.35c-.1.03-.35.12-.35.12,0,0-2.15,2.23-4.46,1.53-.19-.19-.2-.02-.24-.12L.28,13.25c-.03-.1-.05-.21.12-.24,2.8,0,4.4-1.51,4.4-1.51l1.44-.49c.1-.03.2.02.24.12l3.45,10.06Z"/>
  <path class="cls-29" d="m.44,13.26l3.12,9.1c.09.28.39.58.67.67,0,0,1.8.6,3.91-1.8l-3.08-8.99c-.1-.28-.34-.34-.55-.15,0,0-1.68,1.6-4.07,1.17Z"/>
  <path class="cls-23" d="m9.44,20.63c.1.28-.04.58-.31.67l-.22.07c-.27.09-.56-.06-.66-.34l-3.02-8.81c-.09-.28.04-.58.31-.67l.22-.07c.27-.09.56.06.66.34l3.02,8.81Z"/>
  <path d="m9.65,6.24l.92.52s2.52-3.28,7.72-2.48l.34-.72-.39.64s-4.56-1.09-7.66,2.39l-.93-.35Z"/>
  <path d="m8.56,7.16s-2.13,8.97,4.2,12.95c0,0-5.75-3.02-4.2-12.95Z"/>
  <path class="cls-3" d="m2.66,9.51c-.16.05-.33.11-.5.17-1.25.51-2.07,1.39-1.84,1.96.23.57,1.44.62,2.69.1,1.2-.49,2-1.32,1.86-1.89.11-.32.73-1.67,3.53-2.49,0,0-2.57.66-5.75,2.14Z"/>
  <path class="cls-3" d="m18.87,3.66c.5.25,1.33-.02,1.8-.23,1.38-.61,2.29,1.04,2.41,1.23-1.03-1.54-2.96-.13-4.21-1Z"/>
  <path d="m5.35,10.11s-1.39,2.83-5.06,2.12c0,0-1-1.53,1.94-2.7,0,0,5.58-2.31,6.17-2.3,0,0-7.6,2.4-8.02,3.77,0,0-.53.77.13,1.19,0,0,2.72.69,4.84-2.1Z"/>
  <path d="m5.52,9.97s1.02-1.41,2.87-1.72c0,0-1.52.27-2.87,1.72Z"/>
  <path class="cls-24" d="m5.02,10.26s.03-2,3.4-2.82l-.1.77s-1.41-.07-3.3,2.05Z"/>
  <path class="cls-44" d="m.36,11.68s.66.95,2.69.06c0,0,1.68-.6,1.93-1.73,0,0,.19,1.62-3.67,2.24,0,0-1-.05-.96-.57Z"/>
  <path class="cls-45" d="m18.94,3.74c.58.42,1.32.3,1.98.2.63-.09,1.34-.09,1.83.38.12.12.23.25.33.4-.06-.13-.21-.23-.32-.31-.3-.24-.63-.39-1.02-.42-.41-.03-.82,0-1.22.1-.54.14-1.2.13-1.58-.34Z"/>
  <path class="cls-6" d="m10.45,7.52s2.98-4.29,8.47-2.69c0,0-4.83-1.56-8.47,2.69Z"/>
  <path d="m4.78,9.75c-.19-.45-1.31-.4-2.5.11-1.19.51-2,1.28-1.81,1.73.19.45,1.31.39,2.5-.11,1.19-.51,2-1.28,1.81-1.73Z"/>
  <path class="cls-43" d="m12.88,19.19s.29,1.39,1.12,1.15l1.91-.64s-2.16.14-3.04-.51Z"/>
  <path class="cls-42" d="m4.68,9.79c-.18-.42-1.25-.38-2.38.11-1.13.49-1.91,1.22-1.72,1.65.18.42,1.25.38,2.38-.11,1.13-.48,1.91-1.22,1.72-1.65Z"/>
  <path d="m4.59,9.82c-.18-.43-1.21-.39-2.3.07-1.09.46-1.82,1.19-1.64,1.61.18.43,1.21.39,2.3-.07,1.09-.46,1.82-1.19,1.64-1.61Z"/>
  <path class="cls-32" d="m4.55,9.81c-.17-.41-1.18-.37-2.25.09-1.07.46-1.79,1.16-1.62,1.57.17.41,1.18.37,2.25-.09,1.07-.46,1.79-1.16,1.62-1.57Z"/>
  <path d="m4.33,9.8c-.16-.37-1.1-.33-2.1.1-1,.43-1.68,1.08-1.52,1.45.16.38,1.1.33,2.1-.1,1-.43,1.68-1.08,1.52-1.46Z"/>
  <path class="cls-38" d="m4.27,9.83c-.16-.36-1.07-.32-2.04.09s-1.63,1.04-1.47,1.41c.15.36,1.07.32,2.04-.09.97-.42,1.63-1.05,1.48-1.41Z"/>
  <path d="m3.96,9.82c-.13-.31-.9-.27-1.72.08-.82.35-1.38.88-1.25,1.19.13.31.9.27,1.72-.08.82-.35,1.38-.88,1.25-1.19Z"/>
  <path class="cls-40" d="m3.92,9.84c-.13-.3-.87-.26-1.67.08-.79.34-1.34.86-1.21,1.15.13.3.87.26,1.67-.08.79-.34,1.34-.86,1.21-1.15Z"/>
  <path d="m3.75,9.76c-.09-.21-.75-.12-1.48.19-.73.31-1.24.73-1.15.94.09.21.75.12,1.48-.19.73-.31,1.24-.73,1.15-.94Z"/>
  <path class="cls-41" d="m3.71,9.76c-.09-.2-.73-.12-1.44.18-.71.3-1.21.71-1.12.91.09.2.73.12,1.44-.18.71-.3,1.21-.71,1.12-.91Z"/>
  <path d="m3.55,9.74c-.07-.16-.62-.08-1.23.18-.61.26-1.05.6-.98.76.07.16.62.08,1.23-.18.61-.26,1.05-.6.98-.77Z"/>
  <path class="cls-33" d="m3.49,9.75c-.06-.15-.59-.08-1.17.17-.58.25-1,.57-.94.73.07.15.59.08,1.17-.17.58-.25,1-.58.93-.73Z"/>
  <g>
    <path class="cls-39" d="m7.89,6.84h0l-.18.06h0s-.09.03-.09.03h0l-.18.06h0s-.09.03-.09.03h0s-.18.06-.18.06h0s-.09.03-.09.03h0l-.18.06h0s-.09.03-.09.03h0s-.18.06-.18.06h0s-.09.03-.09.03h0l-.18.06h0l-.09.03h0s-.18.06-.18.06h0s-.09.03-.09.03h0s-.18.06-.18.06h0s-.09.03-.09.03h0s-.18.06-.18.06h0s-.09.03-.09.03c-.12.04-.18.17-.14.28.04.12.17.18.29.14l2.41-.82c.12-.04.18-.17.14-.29-.04-.11-.16-.17-.27-.14Zm-2.29.9l-.03-.08.18-.06.03.08-.18.06Zm.27-.09l-.03-.08.18-.06.03.08-.18.06Zm.27-.09l-.03-.08.18-.06.03.08-.18.06Zm.27-.09l-.03-.08.18-.06.03.08-.18.06Zm.27-.09l-.03-.08.18-.06.03.08-.18.06Zm.27-.09l-.03-.08.18-.06.03.08-.18.06Zm.27-.09l-.03-.08.18-.06.03.08-.18.06Zm.27-.09l-.03-.08.18-.06.03.08-.18.06Zm.27-.09l-.03-.08.18-.06.03.08-.18.06Z"/>
    <rect class="cls-35" x="5.64" y="7.72" width=".2" height=".31" transform="translate(-2.25 2.29) rotate(-18.98)"/>
    <polygon class="cls-36" points="6.15 7.9 5.97 7.96 5.87 7.67 6.05 7.6 6.15 7.9"/>
    <rect class="cls-34" x="6.18" y="7.53" width=".2" height=".31" transform="translate(-2.14 2.43) rotate(-18.75)"/>
    <polygon class="cls-37" points="6.69 7.71 6.5 7.78 6.4 7.48 6.59 7.42 6.69 7.71"/>
    <polygon class="cls-47" points="6.96 7.62 6.77 7.69 6.67 7.39 6.86 7.33 6.96 7.62"/>
    <polygon class="cls-51" points="7.23 7.53 7.04 7.59 6.94 7.3 7.13 7.23 7.23 7.53"/>
    <polygon class="cls-48" points="7.5 7.44 7.31 7.5 7.21 7.21 7.4 7.14 7.5 7.44"/>
    <polygon class="cls-46" points="7.76 7.35 7.58 7.41 7.48 7.12 7.66 7.05 7.76 7.35"/>
    <rect class="cls-52" x="7.79" y="6.98" width=".2" height=".31" transform="translate(-1.89 2.95) rotate(-18.94)"/>
  </g>
  <path class="cls-6" d="m20.73,5.67c.78-.31,2.45-.84,2.45-.84,0,0-3.22,1.15-2.45.84Z"/>
  <path class="cls-6" d="m23.13,5.06c-.72.21-2.2.75-2.2.75,0,0,2.92-.96,2.2-.75Z"/>
  <path class="cls-6" d="m4.99,9.65s1.19-1.76,3.26-2.02c0,0-1.82.45-3.26,2.02Z"/>
  <path class="cls-53" d="m17,1.67c.23.66.03,1.33-.44,1.49l-5.56,1.91c-.47.16-1.03-.24-1.26-.91h0c-.23-.66-.03-1.33.44-1.49l5.56-1.91c.47-.16,1.03.24,1.26.91h0Z"/>
  <path class="cls-55" d="m16.61,1.75c.19.54,0,1.1-.43,1.25l-5,1.71c-.42.14-.91-.18-1.1-.72h0c-.19-.54,0-1.1.43-1.25l5-1.71c.42-.14.91.18,1.1.72h0Z"/>
  <polygon class="cls-2" points="10.65 3.9 10.69 4.6 10.99 4.64 10.95 3.79 10.65 3.9"/>
  <polygon class="cls-57" points="10.46 2.96 10.86 3.54 10.64 3.76 10.16 3.06 10.46 2.96"/>
  <polygon class="cls-2" points="16 2.07 16.4 2.64 16.18 2.86 15.69 2.17 16 2.07"/>
  <polygon class="cls-56" points="15.57 1.21 15.61 1.91 15.91 1.96 15.87 1.11 15.57 1.21"/>
  <polygon class="cls-54" points="16.06 2.05 10.65 3.9 10.57 3.68 15.98 1.82 16.06 2.05"/>
  <path class="cls-2" d="m11.07,4.8l5.32-1.82s-2.93,1.15-5.32,1.82Z"/>
  <path class="cls-2" d="m10.26,2.73l5.43-1.86s-3.39,1.31-5.43,1.86Z"/>
  <path class="cls-50" d="m15.83.24c.06.19-.04.4-.23.46l-5.2,1.79c-.19.06-.39-.04-.46-.23h0c-.07-.19.04-.4.22-.46L15.37.02c.19-.07.4.03.46.22h0Z"/>
  <path class="cls-49" d="m15.68.3c.03.08-.09.2-.27.26l-4.94,1.7c-.18.06-.35.04-.38-.04h0c-.03-.08.09-.2.27-.26L15.31.26c.18-.06.35-.04.38.04h0Z"/>
</svg>