<?xml version="1.0" encoding="UTF-8"?>
<svg id="Layer_1" data-name="Layer 1" xmlns="http://www.w3.org/2000/svg" viewBox="0 0 91.39 91.39">
  <defs>
    <style>
      .cls-1 {
        fill: #fff;
      }

      .cls-2 {
        fill: #d86363;
      }
    </style>
  </defs>
  <circle class="cls-2" cx="45.7" cy="45.7" r="45.7"/>
  <g>
    <path class="cls-1" d="m20.36,30.96h-6.29v3.39h5.79c.43,0,.74.1.95.29.21.19.31.44.31.76s-.1.57-.31.77c-.21.2-.53.3-.96.3h-5.79v3.92h6.51c.44,0,.77.1.99.31.22.2.33.48.33.81s-.11.59-.33.79-.55.31-.99.31h-7.59c-.61,0-1.05-.13-1.31-.4-.27-.27-.4-.71-.4-1.31v-10.36c0-.4.06-.73.18-.98s.31-.44.56-.56c.25-.12.58-.17.97-.17h7.37c.44,0,.78.1.99.3.22.2.32.46.32.78s-.11.59-.32.79c-.22.2-.55.3-.99.3Z"/>
    <path class="cls-1" d="m29.52,41.76l-1.86-2.74-1.91,2.74c-.28.38-.51.66-.7.82s-.43.24-.73.24c-.33,0-.6-.1-.83-.31-.23-.2-.34-.44-.34-.7s.18-.65.53-1.16l2.32-3.33-2.06-2.77c-.36-.46-.54-.86-.54-1.19,0-.26.11-.49.32-.69.21-.19.49-.29.84-.29.3,0,.55.08.75.25.2.17.43.44.69.8l1.67,2.28,1.62-2.28c.27-.38.5-.65.7-.81.2-.16.44-.24.74-.24.34,0,.62.1.84.29.22.19.33.42.33.69,0,.19-.05.38-.14.56s-.23.39-.42.64l-2.06,2.77,2.32,3.33c.36.52.55.91.55,1.18s-.11.5-.34.7c-.23.19-.5.29-.84.29-.29,0-.54-.08-.75-.25-.2-.17-.44-.44-.7-.81Z"/>
    <path class="cls-1" d="m36.35,33.83v.31c.48-.6.98-1.03,1.5-1.31.52-.28,1.11-.42,1.77-.42.79,0,1.52.2,2.18.61.66.41,1.19,1,1.58,1.79.39.78.58,1.71.58,2.78,0,.79-.11,1.52-.33,2.18s-.53,1.22-.92,1.66c-.39.45-.85.79-1.38,1.03-.53.24-1.1.36-1.71.36-.73,0-1.35-.15-1.85-.44-.5-.29-.97-.73-1.43-1.3v3.86c0,1.13-.41,1.69-1.23,1.69-.48,0-.8-.15-.96-.44-.16-.29-.24-.72-.24-1.27v-11.08c0-.49.11-.85.32-1.1.21-.24.5-.36.88-.36s.66.12.89.37.34.6.34,1.07Zm5.03,3.73c0-.68-.1-1.26-.31-1.74-.21-.49-.49-.86-.86-1.12-.37-.26-.77-.39-1.22-.39-.71,0-1.31.28-1.79.84-.49.56-.73,1.38-.73,2.46,0,1.02.24,1.82.72,2.38s1.08.85,1.8.85c.43,0,.82-.12,1.19-.37.36-.25.66-.62.88-1.11.22-.5.33-1.09.33-1.8Z"/>
    <path class="cls-1" d="m46.02,41.27v-11.14c0-.51.11-.9.34-1.17.23-.26.54-.4.93-.4s.7.13.94.39.36.65.36,1.17v11.14c0,.52-.12.91-.36,1.17s-.55.39-.94.39-.68-.14-.92-.4c-.23-.27-.35-.65-.35-1.16Z"/>
    <path class="cls-1" d="m60.85,37.61c0,.77-.12,1.47-.36,2.12s-.58,1.2-1.03,1.66c-.45.46-.99.82-1.62,1.07s-1.33.37-2.12.37-1.48-.13-2.1-.38c-.62-.25-1.16-.61-1.61-1.08-.45-.47-.8-1.02-1.03-1.66-.23-.64-.35-1.34-.35-2.11s.12-1.49.36-2.14c.24-.65.58-1.2,1.03-1.66.44-.46.98-.81,1.62-1.06s1.33-.37,2.1-.37,1.48.13,2.12.38c.63.25,1.18.61,1.63,1.07.45.46.79,1.02,1.03,1.66.24.64.35,1.34.35,2.12Zm-2.58,0c0-1.05-.23-1.86-.69-2.45-.46-.58-1.08-.88-1.86-.88-.5,0-.94.13-1.33.39-.38.26-.68.64-.88,1.15-.21.51-.31,1.1-.31,1.78s.1,1.26.31,1.76.5.89.87,1.15.83.4,1.34.4c.78,0,1.4-.29,1.86-.88.46-.59.69-1.4.69-2.43Z"/>
    <path class="cls-1" d="m65.43,39.12v2.14c0,.52-.12.91-.37,1.17s-.56.39-.93.39-.67-.13-.91-.4c-.24-.26-.36-.65-.36-1.17v-7.15c0-1.15.42-1.73,1.25-1.73.43,0,.73.13.92.4.19.27.29.67.31,1.19.31-.53.62-.92.95-1.19.32-.27.75-.4,1.29-.4s1.06.13,1.57.4c.51.27.76.63.76,1.07,0,.31-.11.57-.32.78-.22.2-.45.31-.7.31-.09,0-.32-.06-.68-.17-.36-.12-.68-.17-.95-.17-.38,0-.68.1-.92.3-.24.2-.42.49-.55.88-.13.39-.22.85-.27,1.39s-.08,1.19-.08,1.96Z"/>
    <path class="cls-1" d="m78,38.24h-5.02c0,.58.12,1.1.35,1.54.23.45.53.78.91,1.01.38.23.8.34,1.26.34.31,0,.59-.04.84-.11.25-.07.5-.19.74-.34.24-.15.46-.32.66-.49.2-.18.46-.41.78-.71.13-.11.32-.17.56-.17.26,0,.48.07.64.22.16.14.24.35.24.61,0,.23-.09.5-.27.81-.18.31-.46.61-.82.89-.37.29-.83.52-1.38.71-.55.19-1.19.28-1.91.28-1.65,0-2.93-.47-3.85-1.41s-1.37-2.22-1.37-3.83c0-.76.11-1.46.34-2.11s.56-1.21.99-1.67c.43-.46.97-.82,1.6-1.07.63-.25,1.34-.37,2.11-.37,1,0,1.86.21,2.58.63s1.26.97,1.61,1.64.54,1.35.54,2.05c0,.65-.18,1.06-.55,1.26-.37.19-.89.29-1.56.29Zm-5.02-1.46h4.66c-.06-.88-.3-1.53-.71-1.97-.41-.44-.95-.65-1.62-.65s-1.17.22-1.58.66c-.41.44-.66,1.1-.75,1.96Z"/>
    <path class="cls-1" d="m27.98,60.51l-2.21-8.78v9.52c0,.53-.12.92-.35,1.18-.24.26-.55.4-.94.4s-.68-.13-.92-.39c-.24-.26-.36-.66-.36-1.19v-10.91c0-.6.16-1.01.47-1.22.31-.21.74-.32,1.27-.32h.87c.52,0,.9.05,1.13.14.23.09.41.26.52.51.11.24.24.64.39,1.19l2,7.55,2-7.55c.14-.55.27-.95.39-1.19s.29-.41.52-.51c.24-.09.61-.14,1.13-.14h.87c.53,0,.96.11,1.27.32s.47.62.47,1.22v10.91c0,.53-.12.92-.35,1.18-.24.26-.55.4-.95.4-.37,0-.67-.13-.91-.4-.24-.26-.36-.66-.36-1.18v-9.52l-2.21,8.78c-.14.57-.26.99-.35,1.26s-.26.51-.5.73c-.24.22-.58.33-1.02.33-.33,0-.6-.07-.83-.21-.23-.14-.4-.32-.53-.54-.13-.22-.22-.46-.3-.73-.07-.27-.15-.54-.22-.83Z"/>
    <path class="cls-1" d="m48.81,57.61c0,.77-.12,1.47-.36,2.12-.24.65-.58,1.2-1.03,1.67-.45.46-.99.82-1.62,1.07-.63.25-1.33.37-2.12.37s-1.48-.13-2.1-.38c-.62-.25-1.16-.61-1.61-1.08-.45-.47-.8-1.02-1.03-1.66-.23-.64-.35-1.34-.35-2.11s.12-1.49.36-2.13.58-1.2,1.03-1.66c.44-.46.98-.81,1.62-1.06.63-.25,1.33-.37,2.1-.37s1.48.13,2.12.38c.63.25,1.18.61,1.63,1.07.45.46.79,1.02,1.03,1.66.24.64.35,1.35.35,2.12Zm-2.58,0c0-1.05-.23-1.86-.69-2.45s-1.08-.87-1.86-.87c-.5,0-.94.13-1.33.39-.38.26-.68.64-.88,1.15-.21.51-.31,1.1-.31,1.78s.1,1.26.31,1.76c.2.5.5.89.87,1.15s.83.4,1.34.4c.78,0,1.4-.29,1.86-.88.46-.59.69-1.4.69-2.43Z"/>
    <path class="cls-1" d="m53.38,59.12v2.14c0,.52-.12.91-.37,1.17s-.56.39-.93.39-.67-.13-.91-.4c-.24-.26-.36-.65-.36-1.17v-7.15c0-1.15.42-1.73,1.25-1.73.43,0,.73.13.92.4s.29.67.31,1.19c.31-.53.62-.92.95-1.19.32-.27.75-.4,1.29-.4s1.06.13,1.57.4.76.63.76,1.07c0,.31-.11.57-.32.78-.22.2-.45.31-.7.31-.09,0-.32-.06-.68-.17-.36-.12-.68-.17-.95-.17-.38,0-.68.1-.92.3s-.42.49-.55.88-.22.85-.27,1.39-.08,1.19-.08,1.96Z"/>
    <path class="cls-1" d="m65.95,58.24h-5.02c0,.58.12,1.1.35,1.54s.53.78.91,1.01.8.34,1.26.34c.31,0,.59-.04.84-.11s.5-.19.74-.34.46-.32.66-.49c.2-.17.46-.41.78-.71.13-.11.32-.17.56-.17.26,0,.48.07.64.22.16.14.24.35.24.61,0,.23-.09.5-.27.81-.18.31-.46.61-.82.89s-.83.52-1.38.71c-.55.19-1.19.28-1.91.28-1.65,0-2.93-.47-3.85-1.41s-1.37-2.22-1.37-3.83c0-.76.11-1.46.34-2.11.23-.65.56-1.21.99-1.67.43-.46.97-.82,1.6-1.07.63-.25,1.34-.37,2.11-.37,1,0,1.86.21,2.58.63.72.42,1.26.97,1.61,1.64s.54,1.35.54,2.05c0,.65-.19,1.06-.55,1.26-.37.19-.89.29-1.56.29Zm-5.02-1.46h4.66c-.06-.88-.3-1.54-.71-1.97-.41-.44-.95-.65-1.62-.65s-1.17.22-1.58.66c-.41.44-.66,1.1-.75,1.96Z"/>
  </g>
</svg>