<?xml version="1.0" encoding="UTF-8"?>
<svg id="Layer_12" data-name="Layer 12" xmlns="http://www.w3.org/2000/svg" xmlns:xlink="http://www.w3.org/1999/xlink" viewBox="0 0 300 250">
  <defs>
    <style>
      .cls-1 {
        fill: none;
      }

      .cls-2 {
        fill: url(#linear-gradient);
      }

      .cls-3 {
        clip-path: url(#clippath);
      }

      .cls-4 {
        fill: #faab19;
      }

      .cls-5 {
        fill: #fff;
      }

      .cls-6 {
        fill: #ffd17c;
      }

      .cls-7 {
        fill: #8da65e;
      }
    </style>
    <clipPath id="clippath">
      <rect class="cls-1" width="300" height="250"/>
    </clipPath>
    <linearGradient id="linear-gradient" x1="148.24" y1="211.56" x2="148.24" y2="249.02" gradientUnits="userSpaceOnUse">
      <stop offset="0" stop-color="#f1c36b"/>
      <stop offset="1" stop-color="#f0b11d"/>
    </linearGradient>
  </defs>
  <g class="cls-3">
    <path class="cls-7" d="m324.92,249.84H-28.43v-43.52s28.2-8.09,53.98-7.55c34.04.7,59.16,25,133.86,7.55,20.44-2.93,73.06-13.73,116.54-11.37,31.14,1.69,48.97.84,48.97.84v54.05Z"/>
    <g>
      <g>
        <g>
          <rect class="cls-6" x="239.37" y="194.42" width="14.26" height=".33" transform="translate(23.04 415.25) rotate(-82.93)"/>
          <rect class="cls-6" x="236.93" y="198.29" width="29.4" height=".33" transform="translate(23.72 423.75) rotate(-82.93)"/>
          <path class="cls-5" d="m247.94,188.21c-.78.14-1.56-.27-1.75-.93-.19-.65.28-1.3,1.06-1.44.78-.14,1.56.28,1.75.93.19.65-.28,1.3-1.06,1.44Z"/>
          <path class="cls-5" d="m254.66,183.97c-.47.43-1.28.45-1.81.04-.53-.41-.58-1.09-.11-1.52.47-.43,1.28-.45,1.81-.04.53.41.58,1.09.11,1.52Z"/>
          <rect class="cls-6" x="235.45" y="186.71" width=".33" height="50.58" transform="translate(-12.05 14.22) rotate(-3.37)"/>
          <path class="cls-5" d="m235.32,186.52c-.33.55-1.11.79-1.73.55-.62-.24-.86-.88-.53-1.43.33-.55,1.11-.79,1.73-.55.62.24.86.88.53,1.43Z"/>
          <path class="cls-5" d="m251.57,189.71c-.3.28-.82.29-1.16.03-.34-.26-.37-.69-.07-.97.3-.27.82-.29,1.16-.03.34.26.37.69.07.97Z"/>
          <path class="cls-5" d="m241.17,195.57c-.17.15-.45.16-.64.02-.19-.14-.2-.38-.04-.54.17-.15.45-.16.64-.02.19.14.2.38.04.54Z"/>
          <path class="cls-5" d="m239.4,190.22c-.17.15-.45.16-.64.02-.19-.14-.2-.38-.04-.54.17-.15.45-.16.64-.02.19.14.2.38.04.54Z"/>
          <path class="cls-6" d="m251.58,215.06h-.33c0-.21.43-20.48,3.81-27.35l.3.15c-3.35,6.81-3.77,27-3.78,27.2Z"/>
          <path class="cls-5" d="m255.88,187.92c-.34.22-.86.14-1.14-.18-.29-.31-.24-.75.11-.96.34-.22.86-.14,1.14.18.29.32.24.75-.11.97Z"/>
          <rect class="cls-6" x="241.22" y="210.03" width="23.71" height=".33" transform="translate(2.4 423.26) rotate(-80.08)"/>
          <path class="cls-5" d="m255.77,198.64c-.3.28-.82.29-1.16.03-.34-.26-.37-.69-.07-.97.3-.28.82-.29,1.16-.03.34.26.37.69.07.97Z"/>
        </g>
        <g>
          <rect class="cls-6" x="290.13" y="190.31" width="18.33" height=".43" transform="translate(73.51 464.19) rotate(-82.96)"/>
          <path class="cls-5" d="m301.14,182.32c-1,.18-2-.35-2.25-1.19-.25-.84.36-1.67,1.36-1.85,1-.18,2.01.35,2.25,1.19.25.84-.36,1.67-1.36,1.85Z"/>
          <rect class="cls-4" x="287.07" y="181.4" width=".43" height="38.35" transform="translate(-19.39 31.13) rotate(-6)"/>
          <path class="cls-5" d="m286.81,181.2c-.43.7-1.42,1.01-2.22.7-.8-.31-1.1-1.13-.68-1.84.43-.7,1.42-1.02,2.22-.7.8.31,1.1,1.13.68,1.84Z"/>
          <path class="cls-5" d="m296.67,176.72c-.21.2-.58.2-.82.02-.24-.18-.26-.49-.05-.69.21-.2.58-.2.82-.02.24.18.26.49.05.69Z"/>
          <path class="cls-5" d="m289.9,188.85c-.21.2-.58.2-.82.02-.24-.18-.26-.49-.05-.69.21-.2.58-.2.82-.02.24.18.26.49.05.69Z"/>
          <path class="cls-5" d="m290.16,184.9c-.21.2-.58.2-.82.02-.24-.18-.26-.49-.05-.69.21-.2.58-.2.82-.02.24.18.26.49.05.69Z"/>
        </g>
        <g>
          <path class="cls-6" d="m26.27,211.64s0-6.25,3.8-7.85c0,0,.8,4.33-3.8,7.85Z"/>
          <rect class="cls-6" x="22.79" y="212.77" width="6.26" height=".21" transform="translate(-184.39 170.95) rotate(-71.78)"/>
        </g>
        <g>
          <path class="cls-6" d="m25.5,207s-3.57-5.13-1.38-8.61c0,0,3.13,3.09,1.38,8.61Z"/>
          <polygon class="cls-6" points="26.31 219.03 25.26 205.94 25.47 205.93 26.52 219.01 26.31 219.03"/>
        </g>
        <g>
          <path class="cls-6" d="m121.96,216.25s0-6.25,3.8-7.85c0,0,.8,4.33-3.8,7.85Z"/>
          <path class="cls-6" d="m118.74,219.71s-3.83-3.22-2.86-6.37c0,0,3.06,1.74,2.86,6.37Z"/>
          <path class="cls-6" d="m121.2,211.61s-3.57-5.13-1.38-8.61c0,0,3.13,3.09,1.38,8.61Z"/>
          <polygon class="cls-6" points="123.26 223.44 120.74 209.17 120.95 209.14 123.47 223.41 123.26 223.44"/>
          <polygon class="cls-6" points="120.96 224.87 118.3 219.06 118.49 218.97 121.15 224.78 120.96 224.87"/>
        </g>
        <g>
          <path class="cls-6" d="m231.11,196.12s-5.28-3.34-4.61-7.41c0,0,4.09,1.64,4.61,7.41Z"/>
          <path class="cls-6" d="m234.46,207.26c-1.55-9.99-4.31-12.04-4.34-12.06l.19-.27c.12.08,2.91,2.15,4.48,12.28l-.33.05Z"/>
        </g>
        <g>
          <rect class="cls-6" x="232.13" y="188.03" width=".33" height="18.24" transform="translate(-25.29 34.43) rotate(-8.04)"/>
          <path class="cls-6" d="m231.13,189.76s-5.27-9.23-1.02-14.79c0,0,4.83,5.71,1.02,14.79Z"/>
        </g>
        <g>
          <g>
            <rect class="cls-4" x=".02" y="211.21" width="16.55" height=".34" transform="translate(-202.76 196.95) rotate(-83.84)"/>
            <rect class="cls-6" x="-3.14" y="219.04" width="28.83" height=".34" transform="translate(-207.9 207.41) rotate(-83.97)"/>
            <rect class="cls-6" x="-.39" y="213.11" width="28" height=".34" transform="translate(-199.61 198.75) rotate(-82.45)"/>
            <path class="cls-5" d="m9.77,203.88c-.8.15-1.61-.28-1.81-.95-.2-.67.29-1.34,1.09-1.48.8-.15,1.61.28,1.81.96.2.67-.29,1.34-1.09,1.48Z"/>
            <path class="cls-5" d="m16.7,199.51c-.49.44-1.32.46-1.87.04-.55-.42-.6-1.12-.11-1.56.49-.44,1.32-.46,1.87-.04.55.42.6,1.12.11,1.56Z"/>
            <path class="cls-5" d="m13.51,205.43c-.31.28-.84.3-1.19.03-.35-.27-.38-.72-.07-1,.31-.28.84-.3,1.19-.03.35.27.38.71.07,1Z"/>
            <path class="cls-5" d="m16,214.46c-.31.28-.84.3-1.19.03-.35-.27-.38-.72-.07-1,.31-.28.84-.3,1.19-.03.35.27.38.71.07,1Z"/>
            <path class="cls-4" d="m13.27,233.5h-.34c0-.24.69-23.05,4.18-30.14l.31.15c-3.46,7.02-4.14,29.76-4.14,29.98Z"/>
            <path class="cls-5" d="m18.05,203.48c-.31.28-.84.3-1.19.03-.35-.27-.38-.72-.07-1,.31-.28.84-.3,1.19-.03.35.27.38.71.07,1Z"/>
            <rect class="cls-6" x="5.22" y="224.13" width="19.97" height=".34" transform="translate(-207.72 195.27) rotate(-78.7)"/>
            <path class="cls-5" d="m17.84,214.63c-.31.28-.84.3-1.19.03-.35-.27-.38-.72-.07-1,.31-.28.84-.3,1.19-.03.35.27.38.71.07,1Z"/>
          </g>
          <path class="cls-5" d="m.81,213.63c0,.62-.5,1.12-1.12,1.12s-1.12-.5-1.12-1.12.5-1.12,1.12-1.12,1.12.5,1.12,1.12Z"/>
        </g>
        <path class="cls-2" d="m324.92,203.75s-.43,5.86-1.89,8.58c-.43-10.97-3.29-13.45-3.29-13.45,2.29,3.9,1.82,9.22,1.21,12.5-.45.66-.86,1.23-1.2,1.67l-.56-1.54,1.12-10.43-2.25,2.95-2.38-9.23-2.03,7.06c-1.01-4.42-2.96-7.36-2.96-7.36,1.63,2.78,1.86,6.28,1.64,9.25l-2.11-2.55,1.75,5.24-1.31,2.11-2.24-6.19c1.15-4.64.62-8.04.62-8.04.19,2.04-.37,4.26-1.23,6.34l-1.17-3.23.67,4.34c-.22.47-.45.93-.69,1.38-.82-5.38-3.29-9.09-3.29-9.09,1.56,2.66,1.84,5.98,1.66,8.86l-1.49-2.98.4-3.69-.85,2.77-3.14-6.27,2.15,9.49-.41,1.32-2.37-6.56s1.61,6.48,1.47,9.49c-.08,1.74-.35,4.75-.35,4.75l-1.03-12.17-.5,1.09-.66-9.34-.74,9.36c-.63-8.5-3.18-10.52-3.18-10.52,2.15,3.66,1.87,8.57,1.32,11.88l-1.35,2.18-3.68-10.18c.09-1.94-.1-3.14-.1-3.14.08.83-.91,7.25-1.53,8.62l-1.39-3.36-.19,2.05c-1.05-3.64-2.6-5.97-2.6-5.97,2.29,3.9,1.82,9.22,1.21,12.5-.45.66-.86,1.23-1.2,1.67l-.56-1.54,1.12-10.43-2.25,7.31-2.22-6.15-.16-3.08-2.03,7.06c-1.01-4.42-2.96-7.36-2.96-7.36,1.63,2.78,1.86,6.28,1.64,9.25l-2.11-2.55,1.75,5.24-1.31,2.11-2.24-6.19c1.15-4.64.62-8.04.62-8.04.19,2.04-.37,4.26-1.23,6.34l-1.17-3.23.67,4.34c-.22.47-.45.93-.69,1.38-.82-5.38-3.29-13.45-3.29-13.45,1.14,5.91,1.84,10.34,1.67,13.22l-1.49-7.33-.46,3.44-3.14-6.27,2.15,9.49-.41,1.32-2.37-6.56-.41,3.17-.66-4.98-1.13,5.54c-1.04-4.06-2.8-6.7-2.8-6.7,2.15,3.66-.35,15.11-.35,15.11l-3.46-10.02c.89,4.04,2.35,11.96-.9,14.74l-2.02-11.08-.19,2.05c-1.05-3.64-2.6-3.21-2.6-3.21,1.24,2.12,2.87,3.64,1.21,12.5-.45.66-.86,1.23-1.2,1.67l-.56-1.54,1.12-10.43-2.25,7.31-2.22-6.15-.16-3.08-2.03,7.06c-1.01-4.42-2.96-7.36-2.96-7.36,1.63,2.78,1.86,6.28,1.64,9.25l-2.11-7.34.44,12.15-1.62-19.02c.19,2.04-3.64,14.82-3.64,14.82l-2.35-5.74-3.14-6.27,2.15,9.49-.41,1.32-2.37-6.56,1.43,9.64-2.49-11.45-1.13,5.54c-1.31-3.99-2.8-4.67-2.8-4.67,2.15,3.66,1.87,3.78,1.32,7.08l-1.35,6.97-3.78-13.32c.08.83-.15,2.78-.15,2.78-.26,1.43-.76,2.87-1.38,4.25l-1.39-3.36-.19,2.05c-1.05-3.64-2.6-5.97-2.6-5.97,2.29,3.9,1.82,9.22,1.21,12.5-.45.66-.64-10.3-.64-10.3l-2.25,4.55-2.22-3.39-.16-3.08-2.03,7.06c-1.01-4.42-2.96-7.36-2.96-7.36,1.63,2.78,1.86,6.28,1.64,9.25l-2.11-2.55.44,7.35-2.24-6.19c1.15-4.64.62-8.04.62-8.04.19,2.04-.37,4.26-1.23,6.34l-1.17-3.23.67,4.34c-.22.47-.45.93-.69,1.38-.82-5.38-3.29-9.09-3.29-9.09,1.56,2.66,1.84,5.98,1.67,8.86l-1.49-2.98.4-3.69-.85,2.77-3.14-6.27,2.15,9.49-.41,1.32-2.37-6.56-.41,3.17-.66-4.98-1.13,5.54c-1.04-4.06-2.8-6.7-2.8-6.7,2.15,3.66,1.87,8.57,1.32,11.88l-1.35,2.18-3.78-16.08c.08.83-.24,2.21-.24,2.21l-2.87,11.9c-1.05-3.64-2.6-5.97-2.6-5.97,2.29,3.9,1.82,9.22,1.21,12.5-.45.66-.86,1.23-1.2,1.67l-.56-1.54,1.12-10.43-2.25,7.31-2.22-6.15-.16-3.08-2.03,7.06c-1.01-4.42-2.96-7.36-2.96-7.36,1.63,2.78,1.86,6.28,1.64,9.25l-2.11-2.55,1.75,5.24-1.31,2.11-2.24-6.19c1.15-4.64.62-8.04.62-8.04.19,2.04-.37,4.26-1.23,6.34l-1.17-3.23.67,4.34c-.22.47-.45.93-.69,1.38-.82-5.38-3.29-9.09-3.29-9.09,1.56,2.66,1.84,5.98,1.67,8.86l-1.49-2.98.4-3.69-.85,2.77-3.14-6.27,2.15,9.49-.41,1.32-2.37-6.56-.41,3.17-.66-4.98-1.13,5.54c-1.04-4.06-2.8-6.7-2.8-6.7,2.15,3.66,1.87,8.57,1.32,11.88l-1.35,2.18-3.78-13.32c.08.83-.15,2.78-.15,2.78-.26,1.43-.76,2.87-1.38,4.25l-1.39-3.36-.19,2.05c-1.05-3.64-2.6-5.97-2.6-5.97,2.29,3.9,1.82,9.22,1.21,12.5-.45.66-.86,1.23-1.2,1.67l-.56-1.54,1.12-10.43-2.25,7.31-2.22-3.39-.16-3.08-2.03,11.26c-1.01-4.42-2.96-7.36-2.96-7.36,1.63,2.78,1.86,6.28,1.64,9.25l-2.11-2.55.44,7.35-1.62-14.23c.19,2.04-.37,4.26-1.23,6.34l-1.17-3.23s.22,5.27-.02,5.72c-.82-5.38-3.29-4.9-3.29-4.9,1.56,2.66,1.84,5.98,1.67,8.86l-1.09-6.66-.85,2.77-3.14-6.27,2.15,9.49-.41,1.32-2.37-6.56.09,2.08-.5,1.09-.66-4.98-1.13,5.54c-1.04-4.06-2.8-6.7-2.8-6.7,2.15,3.66-.03,14.06-.03,14.06l-3.68-10.18c.09-1.94-.1-3.14-.1-3.14.08.83-.24,2.21-.24,2.21,0,0-.67,3.44-1.29,4.82l-1.39-3.36-.19,2.05c-1.05-3.64-2.6-5.97-2.6-5.97,2.29,3.9-.55,12.63-.55,12.63l1.12-10.43-2.25,7.31-2.22-10.35-2.18,3.98c-1.01-4.42-2.96-7.36-2.96-7.36,1.63,2.78,1.86,6.28,1.64,9.25l-2.11-2.55,1.75,5.24-1.31,2.11-2.24-6.19c1.15-4.64.62-8.04.62-8.04.19,2.04-.37,4.26-1.23,6.34l-1.17-3.23.67,4.34c-.22.47-.45.93-.69,1.38-.82-5.38-3.29-6.33-3.29-6.33,1.56,2.66,1.84,8.81,1.67,11.69l-1.15-3.36-.84-3.88.1,3.99-3.19-9.74,2.15,9.49-.41,1.32-2.37-6.56-.41,3.17-.66-4.98-1.13,5.54c-1.04-4.05-2.8-6.7-2.8-6.7,2.15,3.66,1.87,8.57,1.32,11.88l-5.13-15.34c.08.83-.91,5.65-1.53,7.03l-1.39-3.36-.19,2.05c-1.05-3.64-2.6-5.97-2.6-5.97,2.29,3.9,1.82,9.22,1.21,12.5-.45.66-.87,1.23-1.2,1.67l-.56-1.54,1.12-10.43-2.25,7.31-2.38-9.23-2.03,7.06c-1.01-4.42-2.96-7.36-2.96-7.36,1.63,2.78,1.86,6.28,1.64,9.25l-2.11-2.55,1.75,5.24-1.31,2.11-2.24-6.19c1.15-4.64.62-8.04.62-8.04.19,2.04-.37,4.26-1.23,6.34l-1.17-3.23.67,4.34c-.22.47-.45.93-.69,1.38-.82-5.38-3.29-9.09-3.29-9.09,1.56,2.66,1.84,5.98,1.67,8.86l-1.49-2.98.4-3.69-.85,2.77-3.14-6.27,2.15,9.49-.41,1.32-2.37-6.56-.41,3.17-.66-4.98-1.13,5.54c-1.04-4.05-2.8-6.7-2.8-6.7,2.15,3.66,1.87,8.57,1.32,11.88l-1.35,2.18-3.78-13.32c.08.83-.91,5.65-1.53,7.03l-1.39-3.36-.19,2.05c-1.05-3.64-2.6-5.97-2.6-5.97,2.29,3.9,1.82,9.22,1.21,12.5-.45.66-.86,1.23-1.2,1.67l-.56-1.54,1.12-10.43-2.25,7.31-2.38-9.23-2.03,7.06c-1.01-4.42-2.96-7.36-2.96-7.36,1.63,2.78,1.86,6.28,1.64,9.25l-2.11-2.55,1.75,5.24-1.31,2.11-2.24-6.19c1.15-4.64.62-8.04.62-8.04.19,2.04-.37,4.26-1.23,6.34l-1.17-3.23.67,4.34c-.22.47-.45.93-.69,1.38-.82-5.38-3.29-6.33-3.29-6.33,1.56,2.66,1.84,5.98,1.67,8.86l-1.49-2.98.4-3.69-.85,2.77-3.14-6.27,2.15,9.49-.41,1.32-2.37-6.56-1.07-1.81-1.13,5.54c-1.04-4.06-2.8-6.7-2.8-6.7,2.15,3.66-.03,14.06-.03,14.06l-3.17-8.77c.29-2.76,0-4.55,0-4.55.11,1.17-.04,2.4-.34,3.64l-.52-1.43.33,2.13c-.34,1.16-.8,2.3-1.33,3.39l-3.85-7.98c2.29,3.9-1.68,9.5-1.68,9.5l-2.22-6.15-2.18,3.98c-1.01-4.42-2.96-7.36-2.96-7.36,1.63,2.78,1.86,6.28,1.64,9.25l-3.29-9.42c-.26.8-.37,1.5-1.23,3.58l-1.17-3.23.67,4.34c-.22.47-.45.93-.69,1.38-.82-5.38-3.29-9.09-3.29-9.09,1.56,2.66,1.84,5.98,1.67,8.86l-1.09-6.67-.85,2.77-3.14-6.27,2.15,9.49-.41,1.32-2.37-6.56,1.43,9.64-4.94-4.98-1.51,6.43-4.02-11.11,1.97,12.71-6.51-11.38v34.42h353.35s0-46.1,0-46.1Z"/>
        <path class="cls-4" d="m165.97,211.73s3.21,10.67,1.65,16.57c0,0-.68-6.64-1.65-16.57Z"/>
        <path class="cls-4" d="m233.75,197.57s3.21,10.67,1.65,16.57c0,0-.68-6.64-1.65-16.57Z"/>
        <path class="cls-4" d="m233.75,204.6s3.21,10.67,1.65,16.57c0,0-.68-6.64-1.65-16.57Z"/>
        <path class="cls-4" d="m294.59,198.72s.46,11.13-2.51,16.46c0,0,.99-6.6,2.51-16.46Z"/>
        <path class="cls-4" d="m297.53,192.85s.46,11.13-2.51,16.46c0,0,.99-6.6,2.51-16.46Z"/>
        <path class="cls-4" d="m213.39,207.54s3.21,10.67,1.65,16.57c0,0-.68-6.64-1.65-16.57Z"/>
        <path class="cls-4" d="m210.04,197.67s3.21,10.67,1.65,16.57c0,0-.68-6.64-1.65-16.57Z"/>
        <path class="cls-4" d="m209.01,205.77s5.42,18.04,2.78,28.02c0,0-1.14-11.22-2.78-28.02Z"/>
        <path class="cls-4" d="m201.69,200.28s2.48,18.68-1.71,28.1c0,0,.66-11.26,1.71-28.1Z"/>
        <path class="cls-4" d="m240.9,200.52s5.42,18.04,2.78,28.02c0,0-1.14-11.22-2.78-28.02Z"/>
        <path class="cls-4" d="m243.47,198.23s7.24,17.39,5.65,27.58c0,0-2.29-11.04-5.65-27.58Z"/>
        <path class="cls-4" d="m252.6,194.51s7.24,17.39,5.65,27.58c0,0-2.29-11.04-5.65-27.58Z"/>
        <path class="cls-4" d="m273.57,191.79s-2.49,10.86-6.76,15.21c0,0,2.69-6.1,6.76-15.21Z"/>
        <path class="cls-4" d="m280.14,188.99s-2.49,10.86-6.76,15.21c0,0,2.69-6.1,6.76-15.21Z"/>
        <path class="cls-4" d="m263.94,179.68s4.93,9.99,4.38,16.06c0,0-1.77-6.43-4.38-16.06Z"/>
        <path class="cls-6" d="m198.16,234.62s-4.48-10.16.54-15.48c0,0,4.4,6.46-.54,15.48Z"/>
        <path class="cls-6" d="m188.13,234.69s0-6.25,3.8-7.85c0,0,.8,4.33-3.8,7.85Z"/>
        <path class="cls-6" d="m106.85,219.19s0-6.25,3.8-7.85c0,0,.8,4.33-3.8,7.85Z"/>
        <path class="cls-6" d="m272.35,190.93s0-6.25,3.8-7.85c0,0,.8,4.33-3.8,7.85Z"/>
        <path class="cls-6" d="m23.05,215.09s-3.83-3.22-2.86-6.37c0,0,3.06,1.74,2.86,6.37Z"/>
        <path class="cls-6" d="m182.93,231.56s-4.69-4.13-3.38-8.04c0,0,3.78,2.26,3.38,8.04Z"/>
        <path class="cls-6" d="m188.56,201.04s-7.45,12.38-8.25,20.99c0,0,3.32-8.39,8.25-20.99Z"/>
        <path class="cls-6" d="m193.26,211.13s-6.81,12.75-7.17,21.38c0,0,2.89-8.55,7.17-21.38Z"/>
        <path class="cls-6" d="m230.95,211.53s-7.94,9.47-9.83,16.66c0,0,3.95-6.66,9.83-16.66Z"/>
        <path class="cls-6" d="m229.46,208.02s-6.34,10.62-7.06,18.01c0,0,2.84-7.21,7.06-18.01Z"/>
        <path class="cls-4" d="m258.97,206.39s-5.56,17.21-9.66,27.42c0,0,3.43-16.19,9.66-27.42Z"/>
        <path class="cls-4" d="m260.75,191.6s-5.56,17.21-9.66,27.42c0,0,3.43-16.19,9.66-27.42Z"/>
        <path class="cls-6" d="m311.22,202.38s-9.68,9.67-12.45,17.42c0,0,5-6.96,12.45-17.42Z"/>
        <path class="cls-6" d="m312.27,218.33s-9.68,9.67-12.45,17.42c0,0,5-6.96,12.45-17.42Z"/>
        <path class="cls-6" d="m176,218.61s-9.68,9.67-12.45,17.42c0,0,5-6.96,12.45-17.42Z"/>
        <path class="cls-6" d="m201.95,204.34s-9.68,9.67-12.45,17.42c0,0,5-6.96,12.45-17.42Z"/>
        <g>
          <path class="cls-6" d="m289.98,210.15s-9.68,9.68-12.45,17.42c0,0,5-6.96,12.45-17.42Z"/>
          <path class="cls-6" d="m274.95,216.4s-6.88,11.83-7.58,20.03c0,0,3.05-8.01,7.58-20.03Z"/>
          <path class="cls-4" d="m285.15,190.84c-10.87,14.93-11.03,14.79-15.06,27.2,0,0,6.04-10.88,15.06-27.2Z"/>
          <path class="cls-4" d="m272.28,205.53c-10.87,14.93-11.03,14.79-15.06,27.2,0,0,6.04-10.88,15.06-27.2Z"/>
          <path class="cls-6" d="m296.9,217.73s-9.68,9.68-12.45,17.42c0,0,5-6.96,12.45-17.42Z"/>
          <path class="cls-6" d="m300.05,209.13s-9.68,9.68-12.45,17.42c0,0,5-6.96,12.45-17.42Z"/>
          <path class="cls-6" d="m292.49,196.33s-9.68,9.68-12.45,17.42c0,0,5-6.96,12.45-17.42Z"/>
          <path class="cls-6" d="m287.2,197s-7.72,11.3-9.01,19.43c0,0,3.62-7.77,9.01-19.43Z"/>
          <path class="cls-6" d="m293.96,215.22s-9.68,9.68-12.45,17.42c0,0,5-6.96,12.45-17.42Z"/>
          <path class="cls-6" d="m280.11,217.91s-9.68,9.68-12.45,17.42c0,0,5-6.96,12.45-17.42Z"/>
        </g>
        <g>
          <path class="cls-6" d="m210.2,210.16s-7.14,11.67-8.02,19.85c0,0,3.23-7.94,8.02-19.85Z"/>
          <path class="cls-6" d="m209.93,216.23s-7.14,11.67-8.02,19.85c0,0,3.23-7.94,8.02-19.85Z"/>
          <path class="cls-6" d="m218.71,215.91s-7.14,11.67-8.02,19.85c0,0,3.23-7.94,8.02-19.85Z"/>
          <path class="cls-6" d="m211.16,226.82s-7.14,11.67-8.02,19.85c0,0,3.23-7.94,8.02-19.85Z"/>
          <path class="cls-6" d="m176.74,225.56s-7.14,11.67-8.02,19.85c0,0,3.23-7.94,8.02-19.85Z"/>
          <path class="cls-6" d="m53.81,225.48s3.99,13.09,9.52,19.18c0,0-3.8-7.69-9.52-19.18Z"/>
          <path class="cls-6" d="m219.76,206.81s-7.14,11.67-8.02,19.85c0,0,3.23-7.94,8.02-19.85Z"/>
          <path class="cls-6" d="m215.27,214.15s-7.14,11.67-8.02,19.85c0,0,3.23-7.94,8.02-19.85Z"/>
          <path class="cls-6" d="m206.04,215.26s-7.14,11.67-8.02,19.85c0,0,3.23-7.94,8.02-19.85Z"/>
        </g>
        <g>
          <path class="cls-6" d="m246.73,216.38s-7.09,8.59-7.94,14.63c0,0,3.19-5.85,7.94-14.63Z"/>
          <path class="cls-6" d="m256.27,213.94s-7.09,8.59-7.94,14.63c0,0,3.19-5.85,7.94-14.63Z"/>
          <path class="cls-6" d="m251.81,219.35s-7.09,8.59-7.94,14.63c0,0,3.19-5.85,7.94-14.63Z"/>
          <path class="cls-6" d="m242.59,220.13s-7.09,8.59-7.94,14.63c0,0,3.19-5.85,7.94-14.63Z"/>
        </g>
        <g>
          <path class="cls-6" d="m155.57,213.52s-3.48,10.58-2.08,16.52c0,0,.85-6.61,2.08-16.52Z"/>
          <path class="cls-6" d="m164.24,214.97s-5.88,9.47-5.91,15.56c0,0,2.38-6.23,5.91-15.56Z"/>
          <path class="cls-6" d="m156.12,219.79s-3.48,10.58-2.08,16.52c0,0,.85-6.61,2.08-16.52Z"/>
        </g>
        <path class="cls-6" d="m188.24,218.05s-5.88,9.47-5.91,15.56c0,0,2.38-6.23,5.91-15.56Z"/>
        <g>
          <path class="cls-6" d="m219.82,221.62s-5.88,9.46-5.91,15.56c0,0,2.38-6.23,5.91-15.56Z"/>
          <path class="cls-6" d="m228.95,217.93s-5.88,9.47-5.91,15.56c0,0,2.38-6.23,5.91-15.56Z"/>
        </g>
        <g>
          <path class="cls-6" d="m266.08,196.06s-4.68,10.11-3.98,16.17c0,0,1.61-6.47,3.98-16.17Z"/>
          <path class="cls-6" d="m267.1,215.23s-4.68,10.11-3.98,16.17c0,0,1.61-6.47,3.98-16.17Z"/>
          <path class="cls-6" d="m263.55,213.82s-4.68,10.11-3.98,16.17c0,0,1.61-6.47,3.98-16.17Z"/>
          <path class="cls-6" d="m264.8,203.96s-4.68,10.11-3.98,16.17c0,0,1.61-6.47,3.98-16.17Z"/>
        </g>
        <g>
          <path class="cls-6" d="m48.03,211.86s7.89,11.18,9.31,19.28c0,0-3.74-7.71-9.31-19.28Z"/>
          <path class="cls-6" d="m41.78,211.03s7.89,11.18,9.31,19.28c0,0-3.74-7.71-9.31-19.28Z"/>
          <path class="cls-6" d="m5.07,215.63s5.89,12.35,5.93,20.58c0,0-2.39-8.23-5.93-20.58Z"/>
          <path class="cls-6" d="m8.31,214.86s5.28,12.62,4.91,20.84c0,0-1.98-8.34-4.91-20.84Z"/>
          <path class="cls-6" d="m53.37,210.73s5.16,12.68,4.7,20.89c0,0-1.9-8.36-4.7-20.89Z"/>
        </g>
        <g>
          <path class="cls-6" d="m80.8,216.58s5.34,9.78,5.04,15.87c0,0-2.03-6.35-5.04-15.87Z"/>
          <path class="cls-6" d="m86.25,213.81s2.1,10.94-.05,16.65c0,0,0-6.67.05-16.65Z"/>
          <path class="cls-6" d="m78.95,213.52s.6,11.13-2.3,16.49c0,0,.91-6.61,2.3-16.49Z"/>
        </g>
        <path class="cls-4" d="m49.5,217.02s3.21,10.67,1.65,16.57c0,0-.68-6.64-1.65-16.57Z"/>
        <path class="cls-4" d="m55.51,220.25s3.21,10.67,1.65,16.57c0,0-.68-6.64-1.65-16.57Z"/>
        <path class="cls-4" d="m47.89,219.4s3.21,10.67,1.65,16.57c0,0-.68-6.64-1.65-16.57Z"/>
        <path class="cls-4" d="m33.62,220.69s3.21,10.67,1.65,16.57c0,0-.68-6.64-1.65-16.57Z"/>
        <path class="cls-4" d="m35.3,217.75s3.21,10.67,1.65,16.57c0,0-.68-6.64-1.65-16.57Z"/>
        <path class="cls-4" d="m.46,212.5s3.21,10.67,1.65,16.57c0,0-.68-6.64-1.65-16.57Z"/>
        <path class="cls-4" d="m94.2,216.98s3.21,10.67,1.65,16.57c0,0-.68-6.64-1.65-16.57Z"/>
        <path class="cls-4" d="m120.22,218.38s3.21,10.67,1.65,16.57c0,0-.68-6.64-1.65-16.57Z"/>
        <path class="cls-4" d="m122.11,218.48s-.41,11.13-3.78,16.21c0,0,1.5-6.5,3.78-16.21Z"/>
        <path class="cls-4" d="m92.8,218.38s3.21,10.67,1.65,16.57c0,0-.68-6.64-1.65-16.57Z"/>
        <path class="cls-4" d="m143.58,212.22s3.21,10.67,1.65,16.57c0,0-.68-6.64-1.65-16.57Z"/>
        <path class="cls-4" d="m142.88,215.72s3.21,10.67,1.65,16.57c0,0-.68-6.64-1.65-16.57Z"/>
        <path class="cls-4" d="m172.26,203.97s3.21,10.67,1.65,16.57c0,0-.68-6.64-1.65-16.57Z"/>
        <path class="cls-4" d="m179.68,205.25s-5.84,9.49-5.85,15.59c0,0,2.36-6.24,5.85-15.59Z"/>
        <path class="cls-4" d="m137.71,214.18s3.21,10.67,1.65,16.57c0,0-.68-6.64-1.65-16.57Z"/>
        <path class="cls-4" d="m138.48,212.99s3.21,10.67,1.65,16.57c0,0-.68-6.64-1.65-16.57Z"/>
        <path class="cls-4" d="m155.85,195.68s3.21,10.67,1.65,16.57c0,0-.68-6.64-1.65-16.57Z"/>
        <path class="cls-4" d="m2.63,214.47s1.88,10.98-.39,16.64c0,0,.14-6.67.39-16.64Z"/>
        <path class="cls-4" d="m6.34,204.32s1.88,10.98-.39,16.64c0,0,.14-6.67.39-16.64Z"/>
        <path class="cls-6" d="m256.98,206.41s-8.02,11.09-9.53,19.18c0,0,3.83-7.67,9.53-19.18Z"/>
        <path class="cls-6" d="m4.07,221.71s-7.09,8.59-7.94,14.63c0,0,3.19-5.85,7.94-14.63Z"/>
        <path class="cls-6" d="m7.8,213.52s-7.09,8.59-7.94,14.63c0,0,3.19-5.85,7.94-14.63Z"/>
        <path class="cls-6" d="m1.9,219.57s-5.35,9.77-5.05,15.86c0,0,2.04-6.35,5.05-15.86Z"/>
        <path class="cls-6" d="m12.43,212.15s-8.02,11.09-9.53,19.18c0,0,3.83-7.67,9.53-19.18Z"/>
        <path class="cls-6" d="m34.59,206.29s-8.02,11.09-9.53,19.18c0,0,3.83-7.67,9.53-19.18Z"/>
        <path class="cls-6" d="m109.32,215.44s-8.02,11.09-9.53,19.18c0,0,3.83-7.67,9.53-19.18Z"/>
        <path class="cls-6" d="m134.02,235.02s.02-6.25,3.82-7.84c0,0,.79,4.33-3.82,7.84Z"/>
        <path class="cls-6" d="m126.46,235.72s-4.19-4.64-2.46-8.37c0,0,3.5,2.67,2.46,8.37Z"/>
        <path class="cls-6" d="m32.73,234.33s-4.19-4.64-2.46-8.37c0,0,3.5,2.67,2.46,8.37Z"/>
        <path class="cls-6" d="m41.68,228.93s-2.13-5.88.89-8.68c0,0,2.23,3.8-.89,8.68Z"/>
        <path class="cls-6" d="m230.13,230.61s-2.13-5.88.89-8.68c0,0,2.23,3.8-.89,8.68Z"/>
        <path class="cls-6" d="m293.25,232.7s1.72-8.44,7.29-9.56c0,0-.11,6.07-7.29,9.56Z"/>
        <path class="cls-6" d="m294.61,225.32s-2.27-8.31,2.19-11.82c0,0,2.64,5.46-2.19,11.82Z"/>
      </g>
      <rect class="cls-4" x="-2.75" y="182.63" width=".28" height="54.78" transform="translate(-23 .98) rotate(-6.28)"/>
      <g>
        <path class="cls-4" d="m3.68,192.77s1.64,1.59,1.48,3.64c0,0-1.85-1.07-1.48-3.64Z"/>
        <path class="cls-4" d="m4.95,190.65s.98,2.06.11,3.93c0,0-1.36-1.65-.11-3.93Z"/>
        <path class="cls-4" d="m6.22,192.53s.44,2.24-.87,3.83c0,0-.91-1.93.87-3.83Z"/>
        <path class="cls-4" d="m3.25,194.75s1.59.95,1.88,2.65c0,0-1.65-.48-1.88-2.65Z"/>
        <path class="cls-4" d="m2.96,195.94s1.81,1.06,2.14,2.95c0,0-1.88-.54-2.14-2.95Z"/>
        <path class="cls-4" d="m2.94,197.38s1.81,1.06,2.14,2.95c0,0-1.88-.54-2.14-2.95Z"/>
        <path class="cls-4" d="m3.09,198.9s1.81,1.06,2.14,2.95c0,0-1.88-.54-2.14-2.95Z"/>
        <path class="cls-4" d="m3.18,200.44s1.81,1.06,2.13,2.95c0,0-1.88-.54-2.13-2.95Z"/>
        <path class="cls-4" d="m3.24,202.08s1.81,1.06,2.13,2.95c0,0-1.88-.54-2.13-2.95Z"/>
        <path class="cls-4" d="m3.32,203.5s1.81,1.06,2.14,2.95c0,0-1.88-.54-2.14-2.95Z"/>
        <path class="cls-4" d="m6.64,194.63s-1.52,1.06-1.68,2.78c0,0,1.61-.6,1.68-2.78Z"/>
        <path class="cls-4" d="m7.02,195.8s-1.73,1.19-1.92,3.1c0,0,1.84-.67,1.92-3.1Z"/>
        <path class="cls-4" d="m7.14,197.23s-1.73,1.19-1.92,3.1c0,0,1.84-.67,1.92-3.1Z"/>
        <path class="cls-4" d="m7.1,198.76s-1.73,1.19-1.92,3.1c0,0,1.84-.67,1.92-3.1Z"/>
        <path class="cls-4" d="m7.12,200.3s-1.73,1.19-1.92,3.1c0,0,1.84-.67,1.92-3.1Z"/>
        <path class="cls-4" d="m7.18,201.94s-1.73,1.19-1.92,3.1c0,0,1.84-.67,1.92-3.1Z"/>
        <path class="cls-4" d="m7.2,203.36s-1.73,1.19-1.92,3.1c0,0,1.84-.67,1.92-3.1Z"/>
        <polygon class="cls-4" points="6.41 237.26 4.79 193.1 5.07 193.09 6.69 237.25 6.41 237.26"/>
      </g>
      <path class="cls-6" d="m132.86,229.88s-5.28-3.34-4.61-7.41c0,0,4.09,1.64,4.61,7.41Z"/>
    </g>
  </g>
</svg>