<?xml version="1.0" encoding="UTF-8"?>
<svg id="Layer_1" data-name="Layer 1" xmlns="http://www.w3.org/2000/svg" viewBox="0 0 37.07 107.1">
  <defs>
    <style>
      .cls-1 {
        fill: #f7a342;
      }

      .cls-1, .cls-2, .cls-3, .cls-4, .cls-5, .cls-6, .cls-7 {
        fill-rule: evenodd;
      }

      .cls-2 {
        fill: #295c8c;
      }

      .cls-3 {
        fill: #c6a97f;
      }

      .cls-4 {
        fill: #defcde;
      }

      .cls-5 {
        fill: #ddc8a6;
      }

      .cls-6 {
        fill: #b2d3ab;
      }

      .cls-7 {
        fill: #ffde69;
      }
    </style>
  </defs>
  <path class="cls-3" d="m.22,98.77c-.02.34-.04.86-.04.86l.54.56-.19,4.41,1.92.87,3.29.47,21.39,1.16,2.1-.65.35-7.23.72-.92s-21.77-.41-24.92-1.69l-2.83.8-2.33,1.36Z"/>
  <path class="cls-5" d="m21.25,98.02c-6.38-.25-14.09-.7-15.87-1.42l-2.83.8-2.33,1.36c-.02.34-.04.86-.04.86l.54.56-.19,4.41,1.92.87,3.29.47,12.52.68c-.43-.82-1.73-2.4-1.94-3.65-.25-1.5.07-.33.54-2.85.46-2.44,1.43-1.02,4.4-2.09Z"/>
  <path class="cls-6" d="m36.15,52.46c-.04.41.06-.11.01-.34,0,.1,0,.21-.01.34Zm.5-4.42c-.77-.49-5.16-2.75-5.16-2.75l-.21.82-.59.29-1.49,2.03s.15-.44-.81-.94c-.96-.5-.96,0-1.34-.71-.37-.73-.56-.9-.89-1.91-.33-1.01-.37-2.65-.66-3.81-.29-1.17-.04-1.03-.88-1.49-.84-.46-.66.99-1.24-.74-.58-1.72-.44.46-.69-2.02-.25-2.48-.5-1.85-.1-2.34.41-.49.52-.74.31-1.62-.21-.87-.09-1.73-.09-1.73l.41.05s-.78-1.61-.36-2.2c.42-.58,4.58-.04,4.58-.04l-4.3-1.06.03-.64,4.43-1.36-4.65.71-.59-.93,3.14-2.93-3.85,2.64-1.57-.66.27-3.73-1.16,3.62-1.65.39-2.28-2.2,1.01,2.68-.85.85-2.21-.06,2.01.75-.48.61-1.21.41,1.05.19.29,1.23s.24.94.22,1.16c-.01.22.03.61-.34.91q-.37.3-.5.42c-.14.12-.96,1.16-.75-.3.21-1.46.63-.93.18-2.04-.45-1.11-.7-1.77-.87-2.26-.16-.49-.64.09-.55-1.6.09-1.69-.11-3.37-.17-4.62-.06-1.25-.7-3.53-.36-6.32.34-2.8.61-2.91-.71-4.65l.39-.75s.81-.18.16-1.14c0,0,2.02.43,2.1-.88,0,0-1.04-.82-.09-1.83,0,0-1.42-.3-1.58-.41-.15-.1-.36-.44-.75-.27-.39.17-.33.17-.58.09-.25-.07-.12-.13-.41-.08-.29.05-.19.02-.55.13-.36.11.05.23-.55.1-.6-.13-.51-.6-.92-.15-.41.46-1.21-.19-.91.27.4.63.06,1.09-.07,1.37-.14.28-.31.42-.23.59.09.17.22.32.22.32,0,0,.44.41.67.47.24.06.22-.18.2.28-.02.45-.33-.14-.04.74.29.88-.08,1.36.27,2.1.34.74.29.42.16,1.09-.13.67-.67-.09.49,2.5,0,0-.21-.2-.15.98.05,1.18.02,1.01-.03,1.8-.04.79-.44,3.26-.44,4.08,0,.82-.16,1.19.02,2.62.19,1.43-.04,1.17.23,2.46.27,1.29-.14,1.34-.45,2.14-.3.8-1.55,1.09-1.65,3-.1,1.92-.61,1.05-.22,2.39.38,1.34-.07,1.68.49,2.04.55.37.87-.17.69.5-.18.66-.9,1.05-.27,1.98.62.92.93.48.98,1.42.04.94-.4.7-.16,1.67.23.97.75.23.16,1.4-.59,1.17-.16,1.53.36,2.54.52,1.01-.05.84.56,2.02.61,1.18,1.41.48.64,1.45-.77.97-4.5,6.43-1.75,7.06,0,0,1.47.1,1.58.04.04-.06.05-.04,0,0h0c-.03.06-.08.19-.09.48-.03.57.03-.12-.05,1-.09,1.13-1.93,4.05-1.86,4.56.07.51.01.29.35,1.05.35.76.43.5.34,1.27-.08.76-.23.66.05,1.82.27,1.17.2,2.76.23,3.34.03.58.12,1.32-.02,2.02-.13.7-.41,1.03-.7,2.23-.29,1.2-.21,1.46-.25,2.16-.04.71-.46.14-.66,1.57-.21,1.43-.58,6.56-.83,7.03-.25.47-.29-.08-.34.94-.06,1.02-.65,1.28-.31,2.1.34.82.27-.21-.38,1.16-.65,1.37-.74.15-1.06,1.89-.32,1.74-.38,1.23-1.01,2.19-.63.96-.85.27-1,1.8-.01.16,0,.28.02.36-.03.05-.07.12-.11.27-.09.31-.2,1.43-.21,1.55,0,.12,2.3-.4,2.85-.37.55.03.6-.09,2.13.12,1.52.2,13.24.65,13.24.65l8.37.48,1.89.22-1.42-.77.28-2.46s-.8-.33-1.46-.6c-.16-.16-.35-.53-.44-1.43-.17-1.64-.39.08-.2-3.4.19-3.48-.56-4.42.16-5.79.71-1.37.99-1.8.63-3.97-.36-2.16-.33-2.86-.04-4.1.29-1.23.09-.51.91-1.48.82-.98.12-8.57-.1-11.75,0,0,1.5.66,1.82-3.45l2.13-3.18s2.24-.68,3.13-2.84c.41-.99.55-1.01.58-.82-.02-.46-.19-.58-.16-1.08.04-.6.24-.91.43-1.51.19-.6.98-1,.21-1.49Z"/>
  <path class="cls-4" d="m26.88,97.08c-.38-.47-3.64-.24-4.57-.29-.93-.05-2.68-.22-2.74-.49-.05-.27-.21-.97.04-1.63.21-.56.16-.47-.27-.79-1.08-2.31-4.25-4.77-4.47-6.89-.32-2.99-1.57-2.97-.19-8.84,1.38-5.87.11-2.01-.24-7.88-.35-5.88.29-3.54,2.21-8.81,1.92-5.27-2.08-11.15-1.04-12.64,1.04-1.47,1.07-7.26,1.97-7.98.9-.72.2-.64-.69-3.73-.89-3.09-.77-1.24-1.39-2.21-.62-.97-1.14-2.1-1.51-1.76-.38.34-1.81.29-1.99-.01-.17-.3-.29.15-1.75-1.66-1.46-1.81.44-2.45.57-3.83.12-1.38.17-.95-.55-2.65-.73-1.69-.13-1.16-.37-3.91-.23-2.75.44-4.63.04-6-.41-1.37-.25-1.26-.21-1.79.03-.53-.21-.87-.34-1.65-.13-.77.16-.35.48-.43.32-.08.52-.26.48-.91-.04-.65-.45-.02.02-1.65.47-1.63.16-.28-.11-.58-.27-.31-.65-.9-.3-1.55.32-.59-.25-.63.09-1.57-.07.01-.12.03-.33.09-.36.11.05.23-.55.1-.6-.13-.63-.77-1.03-.31-.41.46-1.09-.03-.8.44.4.63.06,1.09-.07,1.37-.14.28-.31.42-.23.59.09.17.22.32.22.32,0,0,.44.41.67.47.24.06.22-.18.2.28-.02.45-.33-.14-.04.74.29.88-.08,1.36.27,2.1.34.74.29.42.16,1.09-.13.67-.67-.09.49,2.5,0,0-.21-.2-.15.98.05,1.18.02,1.01-.03,1.8-.04.79-.44,3.26-.44,4.08,0,.82-.16,1.19.02,2.62.19,1.43-.04,1.17.23,2.46.27,1.29-.14,1.34-.45,2.14-.3.8-1.55,1.09-1.65,3-.1,1.92-.61,1.05-.22,2.39.38,1.34-.07,1.68.49,2.04.55.37.87-.17.69.5-.18.66-.9,1.05-.27,1.98.62.92.93.48.98,1.42.04.94-.4.7-.16,1.67.23.97.75.23.16,1.4-.59,1.17-.16,1.53.36,2.54.52,1.01-.05.84.56,2.02.61,1.18,1.41.48.64,1.45-.77.97-4.5,6.43-1.75,7.06,0,0,1.47.1,1.58.04.04-.06.05-.04,0,0h0c-.03.06-.08.19-.09.48-.03.57.03-.12-.05,1-.09,1.13-1.93,4.05-1.86,4.56.07.51.01.29.35,1.05.35.76.43.5.34,1.27-.08.76-.23.66.05,1.82.27,1.17.2,2.76.23,3.34.03.58.12,1.32-.02,2.02-.13.7-.41,1.03-.7,2.23-.29,1.2-.21,1.46-.25,2.16-.04.71-.46.14-.66,1.57-.21,1.43-.58,6.56-.83,7.03-.25.47-.29-.08-.34.94-.06,1.02-.65,1.28-.31,2.1.34.82.27-.21-.38,1.16-.65,1.37-.74.15-1.06,1.89-.32,1.74-.38,1.23-1.01,2.19-.63.96-.85.27-1,1.8,0,.09,0,.17,0,.24-.29.21-.54.39-.66.46-.4.22-.32.97-.58,2.15-.26,1.19.85-.12,1.8-.45.96-.33,1.8-.45,3.5-.43,1.7.02,13.96,1.07,17.94,1.17,3.98.09,3.27-.06,3.54-.21.27-.16-.27-.26-.66-.74Z"/>
  <path class="cls-4" d="m15.23,27.01l-.48.61-1.21.41,1.05.19.29,1.23s.24.94.22,1.16c-.01.22.03.61-.34.91-.04.03-.07.06-.11.09.02.18.06.43.15.81.36,1.59.09.13.91.92.82.78,1,1.62,1.85,3.56.86,1.93.37.21.29-.56-.09-.77.31-1.52.55-1.79.24-.27.56-.8.59-1.44.04-.64.03-1.09-.03-1.8-.06-.71.12-.95.65-1.91.53-.97.2-.76-.33-2.16-.53-1.4.2-.66.64-1.73.13-.32.22-.55.28-.74l-.11-.05.25-3.51s-.03-.03-.04-.05l-1.11,3.45-1.65.39-2.28-2.2,1.01,2.68-.85.85h-.54c-.13.11-.33.2-.57.35l.91.34Z"/>
  <path class="cls-1" d="m9.51.44c.04-.57-.24.4-.18.68.06.29.1.37.06.68-.04.31-.21.25-.23.64-.02.38-.03.55,0,.81.03.27.18.64.34.84.15.2,1.66.31,2.04-.04.38-.34,1.46-.73,1-1.65-.46-.91-.7-.78-.68-1.14.02-.36.01-1.1.01-1.1,0,0-1,.25-1.14.7-.14.45-.22.64-.38.36-.16-.27-.92.07-.84-.79Z"/>
  <path class="cls-7" d="m11.42.55c-.34.15-.49.11-.57.13-.06.06-.1.12-.12.2-.14.45-.22.63-.38.37-.22-.04-.47-.24-.6-.08-.08.1.11.2-.05.53-.16.32-.35.34-.37.6-.01.26-.3.61.11.65.41.05,1.28.31,1.37-.14.1-.45-.13-.73.22-1.02.35-.29.47-.23.51-.45.04-.22.51-1.05-.13-.77Z"/>
  <path class="cls-2" d="m10.92.73c.29-.08.57-.17.69-.49.03.08.19.05.2.15-.05.24-.22.42-.4.51-.03.02-.21-.06-.12.08,0-.02,0-.06.03-.07.26-.02.4-.03.55-.27.04.16.06.39.01.51.06.04.01.26.05.42-.17.02-.38.08-.45.14.11.06.26-.03.44-.02.15.17.33.32.5.46-.23.69-.32,1.29-.94,1.61.2-.3.49-.61.5-1.03-.03.15-.24.24-.25.35.06-.03.01-.04.05-.06,0,.03.04.02.04.05-.19.25-.36.78-.81.83-.56-.19-.91-.05-1.5-.04.15.2.38.12.64.11-.04-.02-.11-.01-.14-.05.38-.03,1.03.04,1.49.13.45-.55,1.14-1.1,1.01-2.04-.04-.29-.44-.47-.49-.74-.06-.33.02-.63-.14-.89-.08-.13-.21-.19-.35-.29-.06.39-.42.44-.63.66Zm1.06.79s.04.03.07.03c-.02.02-.03.04,0,.04-.04.07-.14-.04-.07-.07Zm-1.47,2.94c-.05.11-.25.11-.27.31.13-.04.19-.17.35-.19.15.06.23.19.33.29.17-.12.16-.57.13-.82-.17.04-.62-.13-.76.03.26.07.49.03.66.13-.09.07.06.29-.05.44-.11-.09-.25-.14-.41-.19Zm4.27,92.29c0-.11.05-.4,0-.4,0,.11-.05.39,0,.4Zm7,1.71c0-.08.04-.31,0-.28,0,.08-.04.31,0,.28Zm-6-1.43c.25,0,.49.07.6-.04-2.62-.13-6.24-.4-9.3-.53-.39-.01-.84-.06-1.12-.01,3.06.2,6.71.53,9.83.58Zm-9.86-.58s-.02,0-.03.01c.02,0,.04,0,.06-.01,0,0-.02,0-.03,0Zm9.84.35c0-.11.05-.38,0-.37,0,.1-.05.38,0,.37Zm-9.87-3.65c-.98.78-2.14,1.5-3.29,2.05-.16.08-.36.12-.45.28.17-.07.53-.27.59-.22.84-.46,1.82-.98,2.62-1.52.12-.08.36-.29.49-.46.03.75-.08,1.62-.06,2.39-.18.21-.37.39-.48.67.06.08.34.08.44.05-.05-.05-.23-.07-.19,0-.06-.02-.11-.05-.15-.08.18-.19.36-.48.47-.69.28,0,.58.06.69,0-.28-.1-.5.03-.71-.07.03-.69.07-1.48.1-2.27.71.07,1.83.08,2.42.1-.61-.2-1.72-.09-2.48-.22Zm.97,2.47s-.04-.04-.06-.05c-.03.09-.19-.05-.21.08.09-.03.18.02.28-.03ZM12.4,26.05c.78.31,1.71.48,2.54.74.15-.31.36-.56.57-.8.25-.08.38-.29.58-.43.16-.11.35-.16.41-.32-.37.16-.66.42-.91.71-1.04-.09-2.19-.18-3.17-.19-.06.05.05.08.04.16.13.09.47,0,.55.1v.07c-.16.08-.42-.2-.6-.03Zm1,72.36c-.12,2.52-.32,5.24-.39,7.63.12-2.52.31-5.24.39-7.63Zm-8.79-4.07c0,.39-.08.94-.04,1.22,0-.38.08-.95.04-1.22Zm10.12,4.14c-.04,1.05-.15,2.3-.15,3.22.05-1.05.16-2.3.15-3.22Zm-9.41,4.91c-.03.71-.12,1.63-.1,2.23.03-.72.12-1.64.1-2.23Zm11.91-5.02c-3.83-.21-7.88-.48-11.69-.66,1.81.23,3.72.3,5.62.4,5.58.3,11.71.65,16.11.9.01-.05.14-.01.07.03.16-.02-.01-.06.07-.07-1.49-.12-3.68-.28-5.05-.32-1.56-.05-3.06-.17-5.12-.28Zm-2.51,3.41c.11-1.05.13-2.21.2-3.31,0-.02-.02-.03-.05-.02-.05,1.1-.15,2.26-.16,3.33Zm10.54-3.11c0-.06.03-.28-.01-.23,0,.06-.04.28.01.23Zm-3.28-.2c0-.06.04-.28,0-.23,0,.06-.04.28,0,.23Zm-6.8.05c-.04.99-.15,2.17-.14,3.03.04-.99.15-2.17.14-3.03Zm7.77.4c-.12,2.53-.32,5.25-.4,7.65.12-2.53.32-5.25.4-7.65ZM7.43,30.11c-.2.3-.49.63-.47,1.08.34.16.68-.12.95-.11-.06.24-.26.46-.24.7.08-.26.35-.43.3-.77-.3-.15-.6.31-.91.07.18-.79.77-1.26,1.05-1.86-.23.28-.46.58-.67.88Zm1.27-25.39c.1.12.2.29.38.23.06-.14.18-.21.25-.33.13,0,.14.22.2.21.02-.21-.17-.4-.08-.74.06-.02.14,0,.14-.09-.1,0-.15-.02-.23-.03-.06.17-.03.44-.06.64-.21,0-.22.21-.36.28-.05-.12-.11-.24-.26-.27-.07.04,0,.09-.08.09,0,.11.04-.02.09,0Zm.21,21.05c.1.53.1,1.11.14,1.67.09,1.3.15,2.73.21,4.16.03.58-.04,1.17.39,1.4-.1-.22-.21-.3-.24-.57-.04-.27-.03-.55-.05-.83-.02-.28,0-.58-.02-.85-.08-1.22-.15-2.32-.2-3.4-.03-.54-.02-1.11-.12-1.64-.06-.33-.18-.63-.23-.96-.3-2.26-.11-5.19-.03-7.88-.21,2.57-.42,5.56-.06,7.92.05.33.16.65.22.98Zm-2.48,5.76c0,.28-.16.62-.23.84-.17.52-.08,1.15-.08,1.59.04,0,.08,0,.07.05-.03.15.11.39.15.63.01.1-.01.29.06.14.04.25.09.44.15.58,0-.01.01-.05.03-.04-.02.27.2.33.18.54.11.02.2.16.17.24,1.33.51,2.84.09,3.34-.86-.72.68-1.79,1.09-3.25.86-.5-.78-.75-1.76-.85-2.67-.01-.14-.03-.3-.02-.44.15-1.3.78-2.27,1.2-3.3-.18.22-.34.59-.46.8.01-.03.04-.05.07-.06-.25.36-.23.62-.47.99.08,0,.02.15-.05.11ZM1.47,97.28c.19-.52.01-1.14.11-1.65.07-.38.35-.61.49-.87-.27-.46.08-1.02.26-1.32.08-.14.14-.31.21-.45.45-.89,1.25-1.28,1.75-2.1.35-.57.5-1.17.88-1.77.08-.43.24-.9.44-1.27.05-.09.15-.16.16-.27,0-.2-.24-.33-.32-.5-.11-.24-.12-.49-.08-.72.06-.33.36-.49.44-.88.04-.22-.03-.4-.01-.58.02-.23.21-.35.28-.59.05-.17,0-.38.01-.57,0-.47.05-1.01.06-1.45.01-.8,0-1.44.09-2.18.21-1.77,1.12-2.99,1.45-4.53-.22-.25-.34-.75-.26-1.14.07-.34.34-.7.52-1.03.18-.34.43-.73.5-1.08.14-.8.02-1.5-.02-2.17-.04-.62-.03-1.24-.01-1.86.01-.33.07-.71.03-1.02-.02-.24-.16-.5-.21-.75-.2-.87-.24-2.03-.07-2.98-.14-.11-.28-.25-.34-.43-.05-.14-.02-.27-.08-.38-.07-.14-.23-.17-.31-.31-.18-.41.2-.89.39-1.24.34-.64.6-1.05.99-1.68.17-.28.44-.6.49-.87.05-.29.03-.62.05-.89.02-.48.08-.96.03-1.5-.09.4-.1.8-.13,1.19-.03.4.02.82-.07,1.22-.07.31-.4.6-.49.92-.06.02-.04.1-.09.02.02.13-.12.35-.21.36-.23.58-.55.95-.79,1.41-.09.27-.4.6-.27,1.14.26.17.39.45.42.82.14.07.21.19.28.32-.14,1.29-.06,2.5.2,3.4.04.1.09.16.1.26.01.17-.03.35-.03.53,0,.81-.02,1.54.02,2.19.03.41.09.81.1,1.16,0,.69-.13,1.32-.29,1.62-.04.07-.04.15-.08.23-.19.39-.45.75-.61,1.09-.14.31-.16.81-.06,1.1.04.13.18.19.19.33.02.2-.15.45-.16.5-.07.21-.09.43-.17.66-.08.2-.16.4-.24.61-.17.43-.41.87-.53,1.24-.57,1.72-.31,3.75-.5,5.74-.39.32-.13.85-.3,1.3-.07.18-.21.27-.27.4-.17.33-.2.86-.07,1.15.08.17.3.27.3.45,0,.18-.26.46-.33.65-.1.24-.12.54-.2.77-.05.17-.15.35-.24.52-.08.17-.17.37-.3.49-.08.39-.78,1.23-.76,1.32-.12.15-.4.29-.42.4.01-.04-.23.23-.36.37-.13.14-.28.32-.37.47-.15.25-.23.59-.4.85-.04.08-.14.13-.19.22-.15.26-.18.82-.13,1.12-.1.21-.32.42-.41.71-.11.36-.03.95-.05,1.38,0,.15-.1.31.02.42Zm6.97-57.02c-.01-.31-.37-.68-.57-.9-.21-.22-.4-.41-.59-.61,0,.02,0,.05.02.05-.02.14.13.13.2.24,0,.02-.02.08,0,.09.04.05.12.03.16.08.03.04.02.11.04.14.06.06.16.07.2.12.26.37.59.65.38,1.11-.09.19-.18.26-.25.4-.23.42,0,.83.1,1.18-.1.14-.03.34-.07.5-.06.02-.08.1-.12.02-.05.05.02.08-.03.11-.19.13-.29.47-.33.68-.06.01-.07,0-.12.06-.23.56.36.8.49,1.16.06.15.02.3.14.4.07.05.28.16.36.18.21.06.46-.02.7-.12.16-.58.44-1.02.44-1.78-.63.39-.46,1.8-1.47,1.67-.02-.13-.15-.21-.07-.37-.22-.31-.84-.79-.37-1.24.06-.42.34-.6.53-.87-.07-.14-.05-.31.02-.44-.04-.21-.19-.36-.22-.54-.08-.5.48-.89.46-1.31Zm.97,3.35c.14.57-.29.91-.33,1.43-.14.11-.46.22-.67.1.61-.26.67-.99,1-1.54Zm-1.89-14.34c-.04.06-.03.16-.06.2-.04.07-.16.12-.17.2.12.06.16-.11.19-.17.17-.27.33-.45.46-.74.33-.36.54-.73.87-1.1,0-1.1-.17-2.08-.32-3.04-.18-1.22-.18-2.84-.11-4.26-.08.5-.08,1.82-.14,2.48.03.41.18,1.31.19,1.69,0,.06-.08.16.01.11.01.33.06.51.12.77,0-.02.01-.06.02-.02.02.28.15.65.05.9,0,.04.08.02.06.09.04.31-.02.65,0,.94,0,.09.07.19.05.28-.01.08-.09.09-.17.2-.01.02.01.07,0,.09-.06.09-.16.21-.25.33-.03.05-.08.12-.12.18-.06.07-.16.11-.17.13-.02.03.04.06.01.09.02-.02-.09.02-.09.02-.08.07-.02.15-.03.16-.02.03-.1.02-.12.04-.02.03,0,.12-.03.16-.02.02-.08.02-.09.04-.03.05,0,.12-.03.16-.02.02-.09.03-.12.06Zm-.15,7.07c-.02.84-.71,1.29-.51,2.16.1,0,.13-.02.09.07.11-.04.11.07.21-.01-.04-.06-.06-.04-.18-.05-.39-.74.62-1.47.4-2.17Zm-1.57,60.18c.11.04.07,0,.09-.03-.03,0-.06.01-.09.03Zm5.43-48.53c-.09.07-.22.19-.27.26-.31.42-.44,1.06-.64,1.62-.2.57-.59,1.02-.8,1.52-.36.15-.55.5-.91.65-.19.07-.42.06-.56.18-.2.15-.31.51-.41.76-.11.29-.2.6-.28.91.06.04.05-.1.07-.02-.07.62.02,1.06.1,1.52-.1-.06-.2-.22-.34-.18-.08.21.18.31.14.56.25.17.42.43.78.48.41.06.92-.17,1.38-.04.02-.87.24-1.68.39-2.47.12-.68.39-1.34.59-1.95.32-.96.65-1.89.96-2.81.11-.32.27-.64.26-.93-.35.9-.95,1.78-1.29,2.83-.08.27-.15.52-.27.75-.12.22-.27.41-.38.65-.27.59-.45,1.24-.52,1.95-.06.62.17,1.55-.37,1.68-.07-.22.11-.48.04-.71-.11-.05-.27-.04-.32-.13.03-.13.12-.19.11-.36-.21-.07-.39,0-.4.14-.01.16.44.44.08.56-.75-.15-.82-1.01-.92-1.66.12-.27.16-.54.28-.81.03-.09.1-.13.15-.22.07-.14.06-.29.19-.41.05-.04.1.03.07-.04.26-.1.61-.18.87-.39.19-.15.3-.38.55-.4.01-.19.19-.18.16-.36.05.08.02.02.07-.02-.02-.05.07-.3.18-.29-.05-.11.11-.35.23-.43.02-.07-.08-.03-.02-.09.19-.3.25-.61.38-.99.06-.03.08-.11.12-.16.02-.07-.04-.07-.02-.14.19-.39.31-.77.63-1,.22-.16.55-.38.78-.37,0,.41-.37.92-.28,1.42,0-.62.32-1,.33-1.5-.3.06-.65.27-.9.46Zm-2.71,6.97c-.06-.02-.1-.06-.08-.14.05,0,.07-.03.14-.01,0,.07-.07.07-.06.16Zm-1-.29c.1.43.83,1.26,1.1.57.09,0,.09.07.18.06,0,.25-.09.47-.04.69.16.04.21.04.37-.05.27-.28.15-1.3.22-1.86.08-.7.28-1.3.56-1.86.09-.17.21-.31.31-.49.19-.38.27-.81.43-1.2.15-.38.32-.75.5-1.12-.01-.08.04-.03.02.02-.67,1.91-1.5,3.71-1.73,6.06-.03.25-.01.44-.05.6-.38-.08-.83.09-1.2.08-.34-.01-.53-.29-.76-.41,0-.19-.1-.28-.14-.42.07.04.15.06.25.11.15-.23-.05-.49,0-.76Zm-3.11,41.05c-.14.05-.09-.18-.13-.14.01.07-.02.11-.03.16.04.04.13.02.16-.02Zm3.03-3.54c-.29.2-.64.3-.84.55-.58,0-1.12.06-1.25.58-.31.09-.57-.01-.87-.02-.81-.02-1.25.63-1.7,1.01.17-.14.46-.4.35-.28.36-.27.54-.39.82-.6.06.01,0,.02.07.05.08,0-.04-.08.03-.07.36-.08.87.02,1.17.04-.16.1-.46.29-.64.36,0,0,.03,0,.02.02-.19.02-.41.32-.64.29,0,.08-.05.1-.08.13-.38.18-.73.39-1.07.61-.34.22-.84.38-1.03.68,1.25-.75,2.57-1.42,3.79-2.21-.08-.03-.14.09-.19.01.27-.09.49-.37.88-.23,1.1-.43,1.84-1.31,2.5-2.24.65-.93,1.24-2,1.69-3.13-.15.18-.23.4-.33.6-.52,1.08-1.08,2.02-1.77,2.9-.27.35-.57.72-.9.94Zm-1.8.92c-.02-.1.21-.2.38-.23.16-.03.36-.02.55-.02-.21.2-.74.11-.94.25Zm1.29-.51c.04-.05.12-.06.17-.1.02.03-.07.13-.17.1Zm9.83,3.53c.03-.7.12-1.61.1-2.18-.03.7-.12,1.6-.1,2.18Zm-1.61-23.36h-.07s0,.07,0,.07c-.76,2.19-1.65,4.37-2.61,6.45-.96,2.08-1.91,4.14-3.22,5.84.23-.13.36-.39.51-.59,2.43-3.24,4.08-7.3,5.39-11.76Zm-3.2,7.89c.39-.88.86-1.84,1.26-2.76.15-.34.27-.72.45-1.01.08-.13-.03.07-.05.13-.48,1.31-1.09,2.61-1.68,3.81-.09.09,0-.09.03-.16Zm-4.62,15.12c2.8.15,6.64.47,9.69.53-2.76-.22-7.04-.44-9.74-.6,0,.04.01.06.04.07ZM9.59,4.87c.16-.01.18-.18.35-.19.07.06.13.1.21.06-.13-.26-.52-.16-.56.13Zm7.15,92.17c-.3-.04-.22.06,0,0h0ZM9.26.76c-.04-.12.02-.2.04-.32-.03,0-.05-.01-.06-.02-.19.54.28.65.29,1.15.25-.29-.18-.53-.26-.8Zm-.39,3.28c.22-.07.45-.03.56-.18-.06,0-.16-.07-.21,0,.03,0,.02.07,0,.07-.12-.04-.27-.02-.37.03.02.06-.02.07.02.1Zm.34-.26s0-.14.08-.13c.48-.04.84-.16.99-.48.05-.09,0-.23.05-.36.03-.11.25-.36.23-.38-.33.1-.22.57-.44.83-.18.22-.67.35-.87.32-.24-.03-.28-.33-.29-.57.07,0,.01.12.09.12.02-.08.13-.07.19-.11.1-.3.09-.53.09-.78-.04-.06-.13-.07-.2-.1.08-.1,0-.23.04-.3.06.04.11.09.16.08,0,.04-.03.04-.05.07.1.02.21,0,.25.1-.04.21,0,.5.15.65.16-.03.23.06.35-.07-.15,0-.16,0-.28,0-.19-.14-.13-.51-.14-.82.25-.15.58-.33.85-.37-.08-.13-.32.04-.46.02.08-.15.06-.28-.05-.4.03.31-.06.61-.37.46,0,.18-.07.28-.16.36-.06-.15-.24-.21-.42-.25.24.28-.06.51-.11.87-.1.59.05.94.35,1.22Zm0-1.52c.03.21.03.59-.09.73-.26-.08-.2-.81.09-.73Zm.47-1.43c.23.18.43.4.69.5-.22-.4-.82-.46-.84-1.03-.11-.02-.11.09-.17.13.02.24.16.28.33.41Zm.7.27c.06-.7.97-.46,1.1-1.09-.13.06-.15.22-.29.31-.14.08-.33.13-.45.14-.17.14-.35.37-.42.48.06.04-.08.17.06.17Zm-2.17,44.12c0,.06.03.11.06.17.02.04.04.05.04.04,0,0,0,0-.02.03-.02.03.22.2.2.17.02.03-.04.06,0,.09.16.16.43.26.48.44.06.19.03.47.06.67.1.81.37,1.49.67,2.07-.93.96-1.69,2.27-2.28,3.74-.31.79-.67,1.54-.57,2.46,0-.02-.01-.03-.02,0,.03,0,.03.03.07.02-.03.27.24.48.2.63.21.09.31.3.53.33-.06-.04-.1-.1-.2-.1-.46-.39-.59-1.27-.42-1.91.47-1.81,1.61-3.97,2.69-5.02.06-.06.09-.13.19-.13-.52-.73-.82-1.76-.83-2.88-.35-.21-.57-.54-.83-.83Zm15.24,51.6c0,.11-.05.39,0,.39.02-.13,0-.3.05-.39.94.08,1.76.1,2.57.14.27.01.55.1.81,0-1.98-.14-4.04-.26-6.13-.38-.67-.03-1.6-.13-2-.06.26-.03.47.1.67.01,1.27.18,2.57.17,4.04.29Zm-4,.33c-.04.1-.16-.04-.19.06.07,0,.29.04.25,0-.03,0-.07,0-.07-.03.01,0,.03-.01,0-.02Zm-.87-.65c.05-.03.17.01.19-.06-.08,0-.2-.04-.19.06Zm-.47-.25c.04.13.23.08.32.08,2.94.23,5.68.38,8.75.5-2.62-.24-5.37-.35-7.94-.52-.27-.01-.82,0-1.13-.06Zm4.97-2.43c-.15-.03-.32-.12-.52-.07.13.05.43.2.52.07Zm-1.27,3.55c.92.08,1.74.13,2.66.21.97.08,1.95.11,2.83.16.22,0,.54.08.74-.05-1.72-.14-3.52-.23-5.1-.3-1.39-.07-2.41-.19-3.36-.16.86.06,1.34.11,2.16.17,0,.03-.03.12.01.12,0-.07.01-.12.06-.13Zm-2.58-67.89s-.04-.03-.04,0c.17.48-.1,1.35.16,1.76,0-.25-.02-.58-.02-.92,0-.31.03-.66-.09-.83Zm.35,2.85c.26-.1.81.1.98.08-.27-.1-.74-.59-1-.22.12-.02.35-.12.39.04-.27,0-.72-.03-1.01-.05.13-.1.44-.03.55-.02-.31-.3-.72.08-1,.2.28,0,.72-.19,1.09-.03Zm.43.55c.14.16.27.27.25.5-.01.18-.16.25-.18.38.32-.13.29-.82-.07-.88Zm3.42,47.7c-.51.18-.56,1.25-.59,1.99-.03.71.02,1.47-.08,2.28-.08.75-.05,1.53-.15,2.3-.09.71-.17,1.48-.22,2.27-.06,1.14-.46,2.19-.02,2.95.06-.2-.11-.51-.12-.75-.04-.6.15-1.06.2-1.58.04-.41.07-.83.09-1.26.04-.79.2-1.57.22-2.39.02-.83.12-1.65.18-2.48.09-1.29-.15-2.67.48-3.34Zm12.88-31.67c.02.17.22.18.25.33-.25.45-.62.79-.83,1.29-.24-.24-.69-.37-.7-.75-.13-.07-.26-.06-.36-.09-.38.27-.14.96.07,1.22-.1.13-.18.29-.28.42-.13-.1-.37-.13-.47-.19-.04-.82.1-1.74.27-2.43.05-.2.29-.34.33-.54.04-.21-.05-.38-.13-.49-.18-.24-.47-.42-.66-.68-.19-.27-.32-.55-.46-.85.71.5,1.66.91,2.4,1.31.22.12.45.33.72.31-.36-.27-.8-.48-1.23-.71-1.3-.69-2.63-1.38-3.89-2.08-.07.33-.15.64-.21.98-.18-.1-.34-.2-.54-.28-.54.73-1.05,1.5-1.6,2.22-.21-.16-.35-.2-.42-.41-.03-.1.02-.2-.03-.32-.09-.24-.58-.41-.8-.53-.33-.18-.6-.33-.82-.53-.02-.82-.64-1.5-.73-2.25-.05-.37-.02-.74-.06-1.08-.11-1.21-.28-2.37-1.06-3.01-.21-.48-.55-.86-1.29-.87-.36-.31-.3-1-.76-1.22-.05-.8-.18-1.55-.34-2.25-.06-.26-.18-.52-.14-.75.02-.17.21-.24.33-.33.4-.29.2-.53.08-.98-.2-.74-.31-1.41-.41-2.19.23-.05.48-.07.61-.22-.23-.46-.14-1.2-.37-1.66.12-.13.12-.41.24-.54,1.71,0,3.49.02,5.14-.02-1.71-.26-3.37-.56-5.02-.87.07-.19-.01-.52.01-.67.82-.26,1.65-.5,2.48-.76.83-.26,1.66-.52,2.47-.81-1.64.24-3.5.44-5.24.64-.1-.31-.31-.51-.49-.74.89-.79,1.78-1.6,2.64-2.39.29-.27.58-.54.85-.83-1.48.89-3.04,1.68-4.52,2.57-.3-.18-.7-.26-1.08-.36.07-1.46.12-2.89.21-4.36-.16.11-.1.34-.14.5-.08.31-.23.62-.33.93-.32.96-.61,1.9-.94,2.83-.5,0-1.07.12-1.51.26-1.09-1-2.17-2.01-3.25-3.01.71,1.2,1.46,2.36,2.18,3.55.33-.16.69-.53,1.11-.42-.06.04-.15.05-.19.11.8-.39,2.27-.49,3.14-.09-.67-.14-1.47-.26-2.21-.1-.33.07-.62.22-.9.27,0,0-.08,0-.11.02,0,.01,0,.02,0,.03-.02-.01,0-.02,0-.03,0-.02.01-.05-.01-.05-.04,0-.13.05-.17.06-.94.36-1.7,1.25-2.25,1.97,0-.03.1-.1.03-.14-.1.14-.14.36-.21.54.04.24.15.45.2.63.16.16.45.3.4.57-.2-.09-.27-.4-.56-.33-.04.3.47.3.47.64-.13-.04-.21-.24-.38-.18-.08.23.24.27.25.5-.12-.06-.14-.2-.32-.2-.07.11.1.28.05.37-.16-.31-.08-.84-.24-1.14-.13.57.16,1.15.33,1.61-.09.17-.11.42-.1.64-.28.41-.5.88-.89,1.17-.29-.37-.04-.82.04-1.24.17-.87-.5-1.53-.61-2.34.4.06.81.11,1.21.16-.04-.24.02-.55.09-.76-.45.03-.92.05-1.37.09-.25-.37-.56-.7-.89-.99-.15-1.28,0-2.75-.1-4.13-.16-2.19-.79-4.33-.56-6.71.08-.82.32-1.56.41-2.4.15-1.48-.17-2.49-.87-3.18.07-.23.04-.56.07-.83.26-.04.47-.26.46-.53,0-.19-.19-.29-.16-.45.66.01,1.41-.07,1.86-.38,0-.24.23-.41.22-.65,0-.29-.33-.62-.39-.92-.09-.47.2-.67.43-1.04-.1-.08-.32,0-.39-.04.03-.25,0-.43.01-.67-.49-.42-1.43-.63-2.23-.58.02.16.02.38-.03.53.08.04.16-.05.23.06-.01.24.1.32.16.47.03.08.02.15.06.23.1.25.32.39.36.57.05.19-.07.38-.03.57.12-.13.16-.43.12-.61-.03-.15-.19-.24-.28-.39-.09-.15-.09-.29-.16-.4.16-.02.13-.25.29-.26.08.14.1.33.35.32-.09.43-.03,1.02-.12,1.45-1.32-.11-2.6-.19-3.91-.07.06.03.16.02.2.06-.57.01-1.14.16-1.54.29.22-.37.84-.3,1.25-.46-.25-.07-.55.07-.83.07.29-.32.31-1.1-.02-1.36.18,0,.15-.43.18-.68.18-.22.57-.33.87-.39.09-.02.31-.02.26-.08-.14-.08-.44,0-.67.08-.47.15-.67.33-.58,1.01-.12-.07-.26-.1-.41-.07.08.26.2.25.28.45.13.35-.04.84-.2,1.14-.08.16-.23.29-.23.43,0,.15.16.3.26.38.04-.2-.12-.24-.14-.4.95-.38,2.18-.41,3.16-.43.18.14.58.08.89.12.58.06,1.17.14,1.57.32-.02.07.02.2-.03.23-1.23-.19-3.01-.38-4.32-.19-.33.04-1.1.18-1.09.49.01.28.57.36.83.48.08-.46.66-.11.73.13-.15.3-.42.58-.26.88.08.15.25.16.37.3.01.13.05.24.03.4-.07.06-.27,0-.26.14.11.05.22-.07.39-.02-.06-.28.07-.44-.06-.63-.12-.18-.36-.13-.39-.34-.05-.32.21-.39.29-.65.05-.18.03-.35.05-.6.13-.19.48-.28.77-.21.05-.04-.03.36.02.4-.34.02-.59-.06-.75.19.47-.14,1.57-.1,1.88.15-.04.18.07.32-.04.39.15.04.2.29.11.47-.15-.02-.42-.12-.58,0,.24-.01.58.06.75.18-.18.04-.46-.12-.66-.06.11.07.29.08.43.11.02.47-.34.59-.31,1.05-.12-.06-.13-.22-.31-.23.1.12.21.36.08.56-.38.15-.9-.05-1.16-.22-.07.4-.55.17-.75.18.35.44.79-.24,1.19.11-.5-.15-.7.32-1.21.17.06-.05-.06-.1-.08-.17-.1-.29.15-.45.22-.68-.09-.45-.5-.75-.39-1.29.05.16.05.52.2.56-.12-.11-.06-.62-.25-.61.01-.17.03-.59.06-.73-.24.77-.02,1.55.28,2.06-.3.28-.31.88.06.97.31.08.49-.18.82-.21.38-.04.67.12,1.03.08.1.08.24.24.21.36-.3-.17-.82-.37-1.25-.28.6.11,1.15.26,1.58.53,0,.16.13.4-.03.57-.19.1-.4-.03-.57-.1-.19-.08-.38-.13-.52-.24.02-.15.09-.24.13-.36-.22.07-.33.26-.4.51.08,0,.13-.05.17-.1.1.21.52.13.6.35-.55-.23-1.25-.19-1.55-.64-.09,0-.17.12-.21.08.01-.13.16-.35.05-.46-.12,0-.09.41-.08.55.17.12.2.36.2.52.25-.03.52-.19.89-.16.39.04,1.04.25.98.56-.08.38-.75-.02-1.08,0-.22.02-.46.18-.68.22-.12.02-.24-.03-.33.07.2.12.39.27.48.49.05.11.01.24.12.33.02-.18-.02-.51-.03-.73.24-.06.63-.1.92-.02-.06.13-.03.37-.03.5,0,.44-.17,1.13.1,1.14.24,0,.15-.44.33-.56.15.15.14.45.12.76.14.09.28.27.12.45-.09.09-.31-.03-.35.05.21.1.49.06.49.28,0,.22-.24.23-.45.29-.12.2.12.32.16.5.07.27,0,.53-.18.73-.05.05-.22-.04-.23.05.55.09.19.99-.15,1.08-.27-.16-.54-.6-.39-.92-.24.12-.14.52-.04.69.06.09.27.27.35.29.43.11.73-.32.95-.59.25.31.16.67.17,1.16.02.95.31,1.97.38,2.81.06.73.02,1.48.04,2.21.02.63.09,1.24.11,1.85.03.9.06,1.92.08,2.77.01.48.04.93.06,1.5,0,.28.07.59.02.81-.02.07-.09.18-.13.27-.29.65-.84,1.34-1.32,1.82-.03-.35-.18-.66-.27-.98-.27-.98-.24-2.16-.28-3.31-.02-.74-.05-1.47-.11-2.19-.03-.38-.08-.75-.15-1.11-.06-.32-.17-.63-.22-.96-.21-1.25-.09-2.84-.05-4.17.04-1.42,0-2.64-.06-4.01.12.04.21.1.27.2-.13.24.04.66-.03.92.25-.02.45-.09.65-.15-.19-.09-.4,0-.56.04.06-.35-.1-.62-.04-.88.09-.43.67-.4,1.05-.56-.57-.06-1.06-.02-1.43.13.04-.15.18-.22.22-.31-.03-.24.03-.38.1-.57-.32-.73-.79-1.39-.9-2.1-.01-.08-.03-.22,0-.3.02-.11.19-.21.22-.33.04-.14,0-.45-.09-.49.17.37-.15.53-.2.73-.02.08-.02.24-.02.32.04.79.61,1.53.87,2.19-.07.15-.19.35-.08.51-.09.12-.2.2-.21.38,0,.13.09.22.1.33.02.22-.05.45-.03.66.1,1.15.07,2.64.06,3.97,0,.62-.02,1.21-.03,1.8,0,.86.1,1.68.3,2.55.19.89.17,1.83.22,2.71.1,1.84-.02,3.68.69,5.09-.54.57-.8-.29-.9-.77-.09-.43-.08-.89-.09-1.3-.03-.96-.12-1.84-.16-2.61-.33.57-.77,1.02-1.06,1.65.37-.01.45-.57.84-.65.15.36.18.86.14,1.28-.21.25-.44.46-.66.72-.21.25-.37.58-.64.75-.24.16-.59.22-.74.47-.08.13-.1.3-.16.43-.06.12-.16.22-.16.38.21-.12.24-.42.53-.46-.23.43-.44,1.15-.39,1.73.15-.42.26-.74.43-1.11.1-.21.13-.46.22-.63.09-.17.27-.3.4-.46.11-.16.26-.32.35-.51.04-.11.04-.24.08-.34.1-.22.31-.38.47-.53-.26.28-.37.7-.54,1.08-.05.12-.14.23-.18.36-.08.21-.06.46-.1.69-.02.11-.09.24-.11.36-.02.13,0,.27-.02.41-.09.72-.5,1.55.06,1.89-.05-.21-.21-.39-.15-.61.05-.21.27-.19.35-.37-.24-.07-.27-.44-.19-.72.17.14.45.41.72.31-.42-.1-.83-.52-.57-1.02.12-.02.13.05.21.08.04-.32.49-.04.57-.31.06.02.08.14.16.08-.02-.17-.15-.24-.17-.4.26.12.27.52.52.63.04.01.07.02.11.02-.48.34-.7.77.23.51.41-.12.62-.15.73-.14-.21.21-.43.42-.64.6-.19.16-.48.27-.75.31-.11.01-.26-.06-.35.07.31,0,.4.05.67.04.04-.06,0-.09.05-.14.04.05.07-.02.11.03.33-.26.67-.53.99-.81-.03.06-.1.12-.1.12,0,0-.09.27.35.11-.43.38-.89.76-1.38.81,0-.03-.03-.05-.07-.05-.19.09-.44.11-.63.2,1.18.05,1.87-.54,2.53-1.16.28-.14.26-.17.1.14-.01.02-.02.03-.03.05-.1.09-.21.17-.31.26-.12.07-.22.11-.2.15-.09.07-.18.13-.28.19-.7.46-1.61.54-2.55.78.78.09,1.39-.21,2.11-.28.41-.16.8-.35,1.14-.58.29.04.56,0,.78-.05-.37.34-.8.65-1.17.91-.19.14-.42.23-.58.41.78-.33,1.52-.71,2.01-1.36.22-.03.35,0,.37.22-.62.87-1.88,2.51-3.41,3.85,0,0-1.09,1.29.73.14,1.2-.75,2.05-1.33,2.73-2.38-.33,1.41-1.9,5.35-.39,3.53,1.15-1.39,1.77-3.3,2.17-4.1-.22.77-.51,1.5-.82,2.19-.27.57-.62,1.07-.92,1.59-.31.53-.63,1.18-.96,1.56-.38.43-.87.73-1.35,1.12-.3.24-.61.56-.89.67-.16.06-.31.04-.44.09-.22.08-.37.3-.58.45-.17.12-.36.22-.46.39.31.02.57-.16.85-.28.28-.13.61-.16.87-.3.17-.1.27-.27.42-.39.24-.19.47-.4.7-.59.23-.2.49-.45.8-.44-.14.79-.52,1.56-.79,2.22-.1.23-.22.56-.14.78.51-.99.94-2.07,1.33-3.2.3-.12.34-.78.81-.55-.24.49-.42,1-.68,1.5-.12.24-.28.47-.36.72-.09.28-.1.6-.23.88-.06.13-.16.22-.23.36-.19.4-.32.89-.32,1.32.35-.22.46-.67.61-1.05.5-1.21,1.02-2.41,1.42-3.65.06-.03.16-.01.21-.06.52-.53.5-1.48.66-2.32.07-.37.2-.79.34-1.16.14-.37.29-.78.49-.99.06-.06.2-.07.19-.15-.24-.12-.33.15-.41.3-.3.56-.55,1.13-.67,1.76-.14.16-.26.49-.25.75.09-.18.11-.45.21-.61-.17.74-.17,1.8-.58,2.2.04-.41.27-.67.19-.96-.08.31-.23.71-.31,1.07-.14.04-.18.2-.27.31.1-.12.02-.24.02-.39.19-.4.33-.85.51-1.26.02-.06-.03-.11-.02-.03-.23.4-.33.8-.6,1.28-.08,0-.17.02-.28,0-.17.11-.24.46-.37.53.13-.6.56-1.08.87-1.61.31-.52.56-1.11.81-1.68.25-.58.54-1.16.7-1.81.08-.31.16-.62.23-.94.06,0,.11.09.15.25.05.16.1.34.14.53,0,.05-.01.09-.02.14-.01.18.05.35.04.53-.03.8-.22,1.49-.55,2.14-.17.32-.32.6-.42.92-.22.7-.26,1.54-.51,2.21-.13.33-.27.66-.33,1.02-.14.79-.05,1.58-.29,2.45.21-.15.52-.31.58-.57.04-.16-.02-.35-.02-.5.01-.53.14-1.02.22-1.51.09-.51.14-1.01.17-1.51.11-1.62,1.05-2.42,1.32-3.82.02-.14.04-.29.06-.44.1.43.2.77.3.79-.02.47-.04.93-.04,1.36.22-.44.25-.96.64-1.18.25-.14.59-.07.8-.3-.1-.08-.21.02-.33.05-.19.05-.43.06-.58.15-.22.13-.26.4-.4.58-.01-.23-.01-.47,0-.72.04-.07.07-.19.1-.39-.01.2-.03.4-.07.6.22-.27.25-.76.38-1.13.08.02.17.05.25.01.18-.18.21-.68.52-.64,0,.13-.04.3.05.35.09-.08-.03-.32.06-.34.55.34.93.85,1.5,1.17,0,.03.03.07.04.11-.1-.03-.2-.03-.31-.02-.1.32.1.62.26.88-.02.1-.06.22-.09.34-.06.19-.1.35-.13.48-.02-.05-.04-.1-.07-.16-.07-.16-.18-.33-.18-.45,0-.16.09-.32.07-.48-.03-.43-.24-.77-.62-.82-.06.12-.1.31-.24.28-.1-.36,0-.88-.15-1.2-.02.96-.11,1.85.38,2.35-.1-.32-.2-.65-.22-1.05.17-.02.27-.12.32-.28.27.21.47.53.43.9-.01.11-.09.21-.09.32,0,.23.24.5.33.76-.04.2-.06.34-.07.46-.12-.19-.27-.36-.37-.51-.16-.23-.29-.5-.5-.56.11.21.29.47.38.6.12.17.34.4.47.67-.03.2-.1.36-.44.81-.11.14-.35.5-.69,1-.03.01-.05.01-.07.02-.01-.04.03-.12-.02-.12-.02.12-.02.16.02.21-.01.02-.03.03-.04.06-.44.07-.84.31-.93.69.2-.16.42-.4.7-.52.04-.01.09-.03.14-.04-.04.06-.08.13-.13.2-.01,0-.03.02-.04.02-.12.08-.23.25-.34.38-.35.4-.82.69-1.16,1.04-.44.46-.7,1.11-.99,1.7-.22.45-.51.87-.74,1.27-.07.13-.22.24-.19.41.24-.43.56-.81.81-1.25.26-.46.44-.95.72-1.39.28-.45.61-.75.98-1.1.25-.23.46-.48.7-.71-.08.12-.17.25-.26.39-.33.36-.65.72-.91,1.15.1-.07.21-.16.31-.24-2.32,3.55-5.6,8.82-5.17,9.3,0,0,0,0,.01,0-.02.07-.04.15-.06.23.03-.07.07-.14.1-.21.32.09,1.26-1.16,2.39-2.8.34-.15.59-.5.9-.75.32-.27.65-.55.99-.78.47-.04.77-.2,1.15-.35.29-.12.59-.27.81-.41.47-.33,1.01-.78,1.76-.6-.25.64-.57,1.07-.98,1.58-.82,1.01-1.54,1.94-2.09,3.23-.35.84-.71,1.65-1.12,2.45-.41.78-.82,1.58-1.19,2.4-.39.85-.66,1.71-1.06,2.52-.38.78-.84,1.53-1.23,2.35-.19.4-.38.8-.55,1.23-.17.43-.28.9-.42,1.39-.14.46-.32.9-.44,1.36-.23.81-.32,1.74-.28,2.59.1-.58.09-1.12.22-1.64.13-.5.34-.96.52-1.43.71-1.92,1.48-3.67,2.32-5.4.84-1.74,1.68-3.45,2.58-5.11.46-.85.84-1.73,1.27-2.58.85-1.68,1.93-3.2,2.86-4.8.03.18-.08.28-.04.39-.11.05-.05.13-.08.2-.07.16-.16.32-.23.47-.21.42-.41.81-.64,1.21-.38.63-.75,1.28-1.08,1.97-.64,1.37-1.31,2.79-1.89,4.21-.15.37-.27.7-.49.99-.21.27-.47.52-.62.84-.12.26-.17.59-.27.86-.11.3-.24.56-.39.83-.26.31-.5.78-.82.95.02.11-.15.31-.24.28-.03.15-.14.28-.23.4-.27.37-.54.75-.66,1.19.61-1.21,1.71-2,2.29-3.22.2-.41.26-.91.51-1.38.23-.42.59-.71.8-1.11.22-.42.38-.88.58-1.35.38-.89.77-1.79,1.19-2.7.71-1.56,1.62-2.9,2.29-4.44.11-.25.15-.49.25-.75.2-.54.85-.95,1.21-1.41.18-.23.28-.59.42-.92.4-.98.86-1.85,1.17-2.86.29-.95.42-2.17.85-2.93.08.14.11.32.18.47-.76,2.33-1.46,4.71-2.51,6.7.43-.48.8-1.13,1.11-1.73.16-.32.25-.61.41-.81-.34,1-.74,2.06-1.2,3-.15.32-.37.61-.44.95,1.33-2.13,2.24-4.86,2.75-7.83.14.19.22.42.36.62-.38-.18-.46.36-.55.73-.14.62-.12,1.04.08,1.41.09.17.19.42.4.37.2-.22.2-.66.37-.9-.09.47-.23.89-.35,1.34-.28-.38-.62-.69-.69-1.26-.12.21-.17.47-.24.7-.08.25-.14.51-.2.77-.32,1.32-.64,2.62-.95,3.93-.3,1.06-3.64,12.91-4.33,14.66-.72,1.83-1.23,4.06-1.78,5.33-.55,1.26-1.33,1.41-2.19,3.24-.87,1.83.79.52,1.94-1.24,1.15-1.76,1.32-.46,2.15-4.3.25-1.16.58-2.16.93-3.08.14-.37.3-.73.47-1.09.11-.23.19-.48.25-.73.57-1.38,1.09-2.71,1.34-4.34.26-1.65.52-2.61.72-3.15.08.4-.06.87-.08,1.3-.02.4.06.8.03,1.17-.05.62-.29,1.22-.49,1.8-.2.59-.4,1.2-.47,1.84-.05.47-.06.91-.14,1.33-.25,1.22-.8,2.2-1.26,3.27-.33.76-.42,1.57-.61,2.34-.16.64-.39,1.13-.71,1.55-.09.13-.23.25-.28.42.84-.49,1.58-1.22,2.14-2.02.3-.43.56-.88.7-1.41.14-.55.21-1.15.35-1.82.38-1.76.81-3.52,1.21-5.28.13-.6.36-1.27.33-1.85-.01-.25-.17-.32-.22-.52-.08-.3-.02-.73.01-1.1.07-.71.22-1.49.5-1.91.14.67-.07,1.51.18,2.08-.09.18-.18.3-.21.49-.16.9.36,1.51.39,2.26.04.99-.06,1.91-.07,2.9,0,.76.11,1.8-.1,2.25-.17.37-.55.74-.84,1.13-.29.39-.61.79-.85,1.15-.4.6-.9,1.11-1.29,1.7-.13.21-.22.45-.36.65-.27.4-.69.78-1.08,1.12-.4.36-.81.68-1.27.92-.94.51-1.56,1.26-2.22,2.19-.32.46-.6.86-.98,1.21-1.13,1.06-2.56,1.89-4.34,2.19,1.29.1,2.13-.62,3.35-.6.37-.17.74-.33,1.06-.54.33-.21.62-.52,1-.59.12.25.02.56-.04.8-.25.95-.68,1.83-1.15,2.47.28-.23.47-.57.67-.88.2-.32.41-.65.61-.98.38-.67.6-1.48,1.17-1.99.09-.06.15.07.23.01.12-.33.28-.7.47-.99.18-.27.4-.62.82-.6.2.17.15.49.12.72-.1.74-.46,1.65-.75,2.24-.11.23-.29.41-.38.6-.02.05-.06.21-.04.23.77-.93,1.22-2.15,1.75-3.34.18-.4.29-.84.46-1.26.32-.8.78-1.45,1.09-2.32.42-1.13.46-2.71,1.74-2.74-.43,3.56-.89,7.22-1.37,10.44-.09.56-.13,1.15-.3,1.67-.18.53-.42.97-.48,1.52-.06.58-.07,1.11-.18,1.61-.14.63-.37,1.17-.51,1.79.4-.11.8-.21,1.17-.35-.16-.04-.23.08-.44.02,0,.08.07.04,0,.1-.25,0-.42.08-.58.1,0-.23.14-.53.23-.84.09-.31.12-.67.28-.91-.08-.17.03-.33.05-.51.06-.4.02-.83.09-1.21.06-.34.21-.7.33-.95.31-.65.35-1.56.47-2.39.05-.35.12-.7.18-1.05.15-1.09.27-2.17.47-3.22-.03-.15,0-.47.09-.73.2.12.38.26.6.38.02.21-.05.59-.05.92-.02-.01-.05-.02-.06-.05.1.18-.03,1.07-.08,1.57-.06.48-.11.97-.17,1.44-.13.98-.28,1.95-.36,2.79-.03.37,0,.79.13,1.09.09-.27-.03-.55-.02-.83,0-.4.1-.83.16-1.26.05-.42.1-.85.16-1.28.2-1.53.29-3.16.48-4.72.32-2.52.49-5.14.85-7.56.21-1.43.33-3.07.5-4.54.06-.46,0-1.06.1-1.45.06-.22.29-.22.46-.34-.58-.16-.51.5-.57,1.1-.09.89-.14,2-.26,2.68.06-.78.12-1.63.2-2.46.03-.29.11-.7.08-.92-.04-.19-.27-.27-.3-.52-.02-.16,0-.4,0-.55.02-.37.12-.77.15-1.14.29-3.31.71-6.94,1.14-10.31.08-.67.32-1.31.27-1.97-.33.29-.29.99-.6,1.3-.1-.17-.25-.34-.34-.59-.2-.59.05-1.5.42-1.8.16.15.21.44.38.66.12.17.34.26.37.41.05.2-.08.6-.14.89-.13.63-.15,1.13-.22,1.83-.1,1-.29,2-.4,3.04-.08.8.07,1.61-.01,2.44-.08.81-.14,1.59-.22,2.3-.03.27-.08.47-.11.71-.05.48.04,1.06.03,1.52,0,.11.04.24,0,.35-.03.1-.17.17-.27.28-.18.22-.37.51-.31.7.19-.17.26-.44.43-.65.13-.16.25-.17.28-.42.06-.51-.09-1.22-.04-1.75.03-.29.11-.57.14-.87.07-.74.12-1.49.19-2.15.08-.88-.06-1.63.02-2.44.13-1.34.31-2.66.44-3.94.07-.68.33-1.31.29-1.97-.19-.17-.53-.56-.69-.91.18.19.47.15.68.29.6.38.11,1.79-.06,2.46-.58,2.22-.3,4.48-.33,6.76,0,.19.01.4,0,.62-.13,1.29-.39,2.78-.52,4.12-.02.17-.01.34-.03.5-.16,1.6.05,3.15.04,4.79-.03,3.06-.71,6.32-.36,9.08.06.51.22,1.01.24,1.51.03,1.1-.38,2.1-.5,3.25-.07.69-.01,1.39-.02,1.98-.62.42-1.71.59-2.01,1.36-.41,1.04,1.21.51,1.58,1.12.06.1.05.23.1.3.11.18.36.17.43.46.26-.18-.16-.3-.27-.45-.18-.23-.25-.6-.49-.7-.08-.02-.23.02-.28-.04.41-.08.72-.36,1.02-.5.08.51.16,1.03.23,1.55-1.08,1.15-2.59,1.76-4.19,2.49-.73.34-1.51.66-2.31,1-.75.31-1.69.58-2.25,1.08-.46.41-.82.94-1.1,1.51-.61.49-1.43.96-2.1,1.38-.54.33-1.26.55-1.18,1.37.05-.39.22-.56.48-.74.28-.19.45-.36.85-.28.05.44-.22.79-.36,1.16-.07.2-.15.38-.21.59-.07.21-.08.45-.16.69-.09.28-.33.62-.53.89-.61.83-1.33,1.63-2.04,2.24.77.25,1.21-.38,1.73-.07.13-.21.33-.3.47-.5.53-.8.53-1.72.64-2.83.06-.57.18-.87.37-1.36.23-.59.35-1.17.72-1.42-.22.63-.33,1.39-.66,1.9.03.29-.25.58-.28.95-.02.21.07.43.03.65-.06.37-.16.75-.27,1.12-.05.15-.28.46-.06.53.09-.08-.09,0-.06-.1.15-.59.51-1.14.49-1.77,0-.15-.09-.31-.07-.46.06-.37.37-.62.36-.97,0,.04-.02.06-.05.07.29-.57.64-1.19.64-2,.11-.12.22-.22.4-.26-.16.5-.17,1.02-.31,1.5-.08.29-.23.53-.32.79-.09.29-.16.6-.19.95-.11,1.14-.54,1.87-.93,2.67.17-.05.19-.25.25-.38.41-.85.93-1.71,1.2-2.63.05-.16.05-.35.19-.47.11.92-.35,1.6-.58,2.3.36-.49.63-1.09.72-1.83.11-.92-.13-2.07.07-2.95.38-.14.63-.41.91-.67-.1.83-.24,1.72-.48,2.37-.07.19-.17.37-.17.54.39-.81.88-1.92.88-3.08,0-.41.12-.5.34-.79.36-.47.92-.97,1.53-1.05.17-.02.32-.02.41.14-.4,1.66-.72,3.4-1.39,4.76.47-.61.71-1.44.95-2.27.25-.84.5-1.73.65-2.64.46-.29.9-.59,1.43-.8l-.03.55c-.06-.02-.14-.03-.21.01-.12.12-.14.34-.23.49,0-.2-.15-.17-.33-.16-.84.71-.76,2.36-.9,3.85-.13,1.35-.39,2.73-.8,3.64-.11.25-.29.55-.39.83-.07.19-.06.34-.14.47-.08.13-.16.25-.27.38-.15-.07-.5-.05-.62-.08,0-.29.2-.35.35-.46.2-.35.48-.72.71-1.14.22-.39.51-.84.6-1.28.05-.29.08-.59.14-.89.06-.27.17-.58.05-.85-.15-.09-.35.08-.42.16-.33.37-.44,1.09-.62,1.67-.06-.09-.25-.06-.32-.04-.28.08-.52.42-.74.54.07-.23.23-.44.33-.56.34-.59.7-1.3.94-2.07.21-.67.47-1.42.61-2.04.06-.27.08-.53.12-.82.05-.35.19-.73-.01-1.06-.15-.06-.32-.1-.49.02.21.01.42.02.48.17.01,1.17-.31,2.04-.57,2.89-.15.51-.31,1.02-.47,1.47-.34.95-.98,1.69-1.38,2.48.52-.24.81-.88,1.43-.93-.04.38-.41.6-.56.91-.14.3-.14.64-.35.92,1.38-.42.81-3.01,1.97-3.67-.1,1.3-.34,2.09-.85,2.97-.22.4-.46.84-.73,1.11-.19.2-.41.26-.31.65.19-.08.55-.03.83.04.05-.23.25-.33.33-.53.1-.25.12-.52.25-.77.58-1.16.93-2.49,1.04-3.91.09-1.09.07-2.34.36-3.14.12-.34.21-.74.6-.87.12.24,0,.54-.06.8-.19.83-.35,1.74-.58,2.51.15-1.1.44-2.18.61-3.17-.77,2.35-.7,5.76-1.71,7.78,0,0,.02,0,.04.03.43-.8.74-1.97.92-3.04.08-.43.07-.89.17-1.35.11-.53.37-1.09.53-1.65.08-.3.15-.59.21-.89.07-.31.07-.64.14-.94.04-.16.14-.35.28-.44,0,.62-.05,1.44-.11,2.04-.01.1-.1.39,0,.41.06-.35.12-.83.19-1.33.09-.71.07-1.54.57-1.58.13,1.3-.47,2.49-.62,3.7-.17,1.39.27,2.93-.31,3.95-.31.54-1.09.91-1.12,1.51-.27.21-.48.48-.55.9.21,0,.55-.19.83-.12.12-.32.63-.08.66.1-.14-.06-.4-.18-.57-.08.39.37.84.05,1.38.03.68-.03,1.55.45,1.86.1.06-.07.04-.15.08-.21.27-.45,1.48.09,2.01-.07-.02.12.01.31-.04.39-.39-.01-.7-.03-.94,0,.03.14.21.05.34.06.15.02.34.05.53.05.17,0,.38-.05.55-.02.08.01.15.08.22.11.21.06.43-.02.6.08.19-.15.62-.02.66-.33-.32-.35-.78.4-1.08-.01.02-.32.54-.08.62-.34.02-.07-.2-.12-.24-.18-.09-.09-.18-.41-.27-.63-.16-.41-.25-.65-.19-1.19.06-.49.16-1,.22-1.53.19-1.59.21-3.49.38-5.21.09-.91.02-1.75.07-2.51.05-.78.58-1.42,1.23-1.45.24.34.11.93.07,1.37-.14,1.39-.19,2.63-.44,3.89-.19.96-.48,1.9-.57,2.78-.05.54-.06,1.12-.09,1.65-.02.39-.04.79.15,1.09.17-1.25.25-2.44.41-3.69.15-1.14.33-2.26.48-3.34.08-.56.11-1.16.44-1.45.03.78-.14,1.54-.22,2.32-.07.66-.04,1.34-.11,2.04-.09.97-.29,1.81-.45,2.79-.06.37-.16.69-.29,1.04-.13.35-.23.77-.38.95-.19.22-.42.27-.44.53,0,.12.08.23.1.35.52.12,1.28-.12,1.6.22.09.1.07.22.19.34.43.08.89.13,1.19.15-.11-.26-.18-1.05.21-.98.02.35-.13.9.22,1,.1-.35-.06-.93.27-1.07-.1.22-.18.68-.18,1.09-.05.11-.24-.05-.26.05.09.11.18.03.23.11.03.05-.03.13-.01.19-.2-.09-.33-.24-.51-.35-.11.19-.47-.12-.58.04.1-.03.26.08.34.13.12.04.16-.11.23-.03-.08.22-.22.12-.4.11-.11.19.05.37.18.48.6,0,1.12-.09,1.6.15-.66-.13-1.35-.03-2.04-.16.01-.13-.04-.21-.12-.26.1,0,.21.03.26-.04.03-.08.05-.17.06-.27-.19-.14-.41-.14-.68-.18,0-.03.07-.01.05-.09-.05-.04-.2.02-.27-.04-.08-.07-.03-.26-.15-.31-.44-.23-1.11.08-1.48-.24.04.22.32.11.28.36-.04.2-.44.13-.48.34.21-.14.55-.12.6-.43.31.02.44-.08.64,0-.23.04-.25.43-.35.54.21.02.27-.14.25-.38.15.02.26-.13.37-.07-.01.08-.11.26-.12.43-.23.09-.49.15-.62.36.38.06.92-.1,1.09.22-1.15-.08-1.94-.1-3.33-.18-.05-.03.03-.3-.03-.26.1.4-.38.21-.58.2-.57-.03-1.16-.03-1.64-.07-.05-.03.02-.28-.03-.23.04.32-.12.2-.36.19-.76-.05-1.97-.06-2.76-.13.02-.12.02-.29,0-.28-.05.04.05.21-.04.28-.06.05-.1-.07-.21,0,.03-.22-.03-.23-.02,0-1.28-.11-2.56-.11-4.21-.25-.03,0-.05,0-.08,0,.03,0,.06,0,.08,0,.16-.01.25-.18.46-.19.34-.01.8.22,1.12.2.12,0,.34-.06.33-.12-.4.23-1.02-.24-1.56-.15-.17.03-.32.17-.47.18-.12,0-.27-.05-.41-.07-.49-.06-.98-.04-1.33-.09.19.21.69.13,1.02.22-.5.04-1-.1-1.29.02,4.38.28,9.13.52,13.64.77,1.54.08,3.09.25,4.57.25.48,0,.86.11,1.23.3-.02.64-.16,2.33-.11,2.94-.19-.29-.63-.39-.77-.71-.13-.31.02-1.16.02-1.68,0-.26.1-.54-.03-.74-.06.74-.07,1.72-.13,2.46.24.25.52.47.77.71.08.05.07,0,.14-.02-.14.13-.15.41-.28.54-5.64-.28-10.91-.57-16.73-.89-1.83-.1-3.85-.25-5.49-.25.26.02.27-.01.31.13-.02-.06-.17-.03-.32-.01,7.11.49,14.81.78,22.12,1.29-.27.39-.23.74-.27,1.2-.19,2.15-.27,5.05-.46,7.28-1.25-.15-2.68-.2-4.04-.27-.16,0-1.11.01-1.17-.08,0-.01,0-.04,0-.08,0,.05-.02.08-.04.09-.13.09-.33-.09-.55-.03.11-2.58.35-5.27.37-7.77-.16,2.58-.25,5.23-.44,7.77-.72-.02-1.66-.14-2.23-.08.03-1.29.08-2.59.14-3.91-.88-.42-1.7-.99-2.51-1.41.69.59,1.61.96,2.29,1.56-.08,1.23-.07,2.51-.2,3.72-.4-.06-.94-.1-1.24-.04,0-.59.05-1.36.08-1.98.01-.22.1-.5-.04-.56-.12.01-.03.13-.03.18-.05.69-.11,1.92-.2,2.41,2.64.14,5.78.31,8.62.47.43.03.87.1,1.26.07.63-.05,1.34-.4,1.96-.45.15-2.48.31-4.88.47-7.33.14-.21.31-.4.43-.64.06,0,.11,0,.14-.02.03-.21.21-.38.23-.54-.5-.23-1.03-.45-1.5-.7.11-.86.08-1.74.21-2.55-.4-.08-.69-.26-1.07-.36-.22-.31-.26-.79-.71-.89.21-.22.14-.59.12-1.01-.13-2.54-.15-5.07-.09-7.64.47-.08.62-.64.62-1.21,0-1.35-.18-3.16-.15-4.48.21-.39-.09-.82-.02-1.29.82-.2.13-1.83.35-2.63.34-.07.64-.17.66-.61.61-.08.4-.68.34-1.25-.03-.34-.05-.69-.06-.97-.04-.62-.14-1.35-.1-1.96,0-.1.06-.19.06-.3.1-1.31-.08-2.68-.2-4-.12-1.36-.24-2.68-.36-3.89.67-.04.9-.55,1.14-1.11.24-.56.4-1.13.58-1.75.09-.31.12-.65.23-.93.08-.2.3-.41.45-.62.46-.67.89-1.35,1.32-1.95,1.03-.04,1.61-1,2.21-1.61.2-.2.51-.41.67-.61.14-.17.22-.46.38-.65.3-.34.81-.48.88-.92.05-.32-.16-.57-.28-.82-.11-.23-.21-.44-.29-.64.35-.47.67-.96,1-1.44-.16-.08-.22-.35-.44-.3Zm-9.42-23c-.64.27-1.38.44-2.06.67-.09-.04-.08-.32-.19-.33.41-.15,1.45-.19,2.26-.34Zm-1.87-2.98c-.26.37-.75.68-1.1,1.04-.07-.03-.16-.12-.1-.19-.01,0-.02-.01-.02-.02,0,.07-.07.04-.11-.03.33-.2.93-.51,1.33-.8Zm-9.24.83c-.29-.41-.53-.88-.82-1.29.16,0,.32.34.5.51.05.05.1.03.13.08.02.02,0,.07.02.1.08.08.19.09.22.17,0,.03-.06.11.02.12-.04,0-.05.02-.08.09.14-.12-.03.09,0,.23Zm4.4-.43c-.12-.02-.35-.1-.54-.12.25-.87.53-1.55.69-2.52,0,.84-.07,1.8-.14,2.64ZM7.06,5.15c.55.1.47,1.22.01,1.45.27-.36.42-1.19-.01-1.45Zm5.45-.3c-.15.05-.29.12-.41.21.03-.42-.47-.39-.53-.05-.17-.14-.07-.65-.07-.88.65.15,1.37.24,1.79.6-.06.17.04.48-.01.64-.08-.1-.04-.31-.14-.4-.2.03-.35.11-.47.23-.02-.15-.05-.29-.16-.36Zm-3.94,7.18c.13-.15-.05-.27-.04-.44.18.12.27.31.61.29-.18.06-.33.15-.56.15Zm-.02.9c.04-.05.16,0,.21,0,.03.09.07.16.08.26-.12-.06-.15-.21-.29-.27Zm.73-.24c-.21.05-.36.16-.65.13.34-.08.76-.25,1.13-.08-.14.05-.36-.02-.48-.05Zm.93,1.16c-.16.12-.19.37-.3.54-.11-.4.09-1.08-.04-1.46.1-.08.27.08.37,0,.04.26-.02.62-.03.92Zm.54-3.15c-.07.04.06.09.03.16-.37-.28-.43-1.23.25-1.11-.09.17-.33.17-.43.32-.01.43.39.49.46.85-.12-.07-.2-.16-.31-.22Zm.02-.39c-.06-.02-.09-.11-.04-.16.03.04.04.09.04.16Zm.4,1.04c.16.04.24.15.26.31-.09-.11-.24-.15-.26-.31Zm-1.72,4.42c-.11.1-.29.15-.34.33-.08-.05-.19-.08-.25-.15.12-.15.37-.15.58-.18Zm-2.28,16.88c-.13.28-.22.6-.35.88-.04-.27.2-.44.18-.77-.02-.02-.19,0-.25.01.11-.5.68-.49.94-.83.02,0,.02.03.02.04-.15.25-.3.51-.54.66Zm.3,2.23c-.02-.08.03-.09.03-.16.11.05.09.15-.03.16Zm1.59-2.61c.08.3.16.63.3.86-.2-.32-.36-.63-.36-1.03,0-.13.05.14.06.17Zm-.74-2.97c.07-.2.3-.42.43-.64.04.12.05.28.05.44-.11.03-.38.08-.47.2Zm.45-.18c.14.16.07.52.09.79-.02-.26-.09-.58-.09-.79Zm.05,1.55c.02.1-.08.06-.1.11-.03-.01.02-.14.1-.11Zm-.34,2.36c-.08,0-.11.07-.15.13-.25-.1-.32.11-.58.08.07-.97.44-1.6.81-2.24.03,0,.04,0,.04.02-.23.41-.46,1.3-.09,1.7-.06.05-.07.21-.04.3Zm.83.31c-.09,0-.17,0-.26.04-.16-.4-.44-.6-.57-.95-.17-.48.1-.96.21-1.28.04-.1.03-.22.06-.32.02-.06.07-.08.08-.14.03-.16-.02-.32.05-.46.03.58.03,1.2.09,1.76-.04,0-.02-.14-.04-.03-.03.4.12,1.19.58,1.27-.07.03-.13.06-.2.1Zm.16,1.83c.39-.15.73-.36,1.05-.59.04.01.09.02.16.04-.35.25-.73.45-1.21.55Zm3.07,6.37c-.59,1.34-1.1,2.9-1.73,4.21,0-.63.41-1.31.64-1.74.04-.59.29-1.01.57-1.4.14-.42.33-.75.47-1.12.04,0,.05.02.05.05Zm-.74-.48c-.1.44-.33.93-.49,1.38.02.1-.07,0,0,0,.03-.23.14-.35.12-.62-.47-.19-.84.27-1.13.51-.2.16-.28.23-.5.41-.16.13-.3.33-.41.42-.36.23-.75.12-1.11.42.02-.07.09-.12.15-.18.12-.1.25-.22.41-.28.13-.05.29-.02.42-.07.31-.12.51-.41.77-.6.04-.02.08-.07.12-.02.48-.51,1.09-.88,1.53-1.44.48-.89,1.06-1.68,1.52-2.59-.25,1.02-.92,1.79-1.39,2.64Zm1.57,1.19c-.03.71-.31,1.58-.31,2.33,0,.35.01.58-.22.75.09-1.04.07-2.4.54-3.1v-.04c0-.13.06.08,0,.07Zm2.47-16.2c.69-.68,1.89-1.33,3.28-1.34,1.07,0,2.1.38,2.81.94-.43-.18-.99-.57-1.54-.59.01-.02.07-.03.03-.05-1.22-.33-2.58-.12-3.43.37.08-.03.17-.03.26-.06.17-.06.33-.23.54-.25.15-.01.3-.01.46-.05.22-.04.39-.1.7-.07.24.02.51-.05.69-.04.24.02.48.18.71.13-.46.18-.22,1.06-.36,1.5-.18-.05-.09-.34-.08-.56.02-.44.16-1.04-.31-1.01-.52.04-.21,1.09-.36,1.53-.13-.05-.08-.25-.09-.4-.01-.35-.05-1.04-.31-1.1-.22-.05-.34.13-.45.25-.06.45.09.94,0,1.27-.11-.02-.06-.18-.08-.28-.04-.33-.03-.99-.34-1.08-.58-.17-.44.51-.37.88.04.18.15.39.07.56-.11-.02-.08-.18-.1-.29-.05-.23-.18-.81-.44-.85-.17-.03-.32.09-.36.23-.08.37.37.82.24,1.1-.25-.19-.19-1.01-.66-.96-.1,0-.17.07-.19.15-.12.41.47.71.33,1.07-.23-.16-.33-.95-.83-.73-.04.26.1.42.22.59.1.15.32.32.18.49-.21-.23-.29-.59-.63-.7-.07-.28.22-.46.43-.67Zm-.46,1.22c.16.13.31.25.36.48-.16-.12-.26-.3-.36-.48Zm.14.74c0,.08-.07.1-.08.18-.12-.08-.1-.16-.1-.33.1,0,.1.11.18.15Zm.46,6.39c-.61-.04-.08-.57.04-.83.12.15-.03.58-.04.83Zm.27-4.89c-.03-.05.11-.12.13-.2-.43.28-.65.77-.92,1.22-.2.11-.47.02-.57-.15-.01-.17.11-.3.12-.45,0-.08-.05-.14-.04-.21.02-.1.1-.15.15-.25.16-.32.17-.61.26-.89.25-.85,1.32-1.73,2.31-1.88.65-.1,1.49-.1,2.21-.06,1.34.07,2.59.68,2.76,1.81.04.29.07.65,0,.92.19.55.11,1.6-.51,1.7.18-.56.48-1.4.17-1.88-.13-.21-.37-.28-.7-.39-.79-.25-1.43-.82-1.99-1.17.16-.17.18-.57.02-.74-.18.5-.59.74-.93,1.05.33-.22.7-.4.91-.75.12.36-.36.47-.56.59-.52.31-1.01.61-1.57.88-.48.23-.97.41-1.27.83Zm4,8.24c-.09.09-.15.31-.33.21.35-.19.52-.57.91-.71-.14.17-.41.32-.58.5Zm.21.26s-.04.01-.07.01c0-.03.02-.04.07-.01Zm-.11.03c-.13.02-.28.04-.46.04.2-.06.38-.11.46-.06,0,0,.01,0,.02.02h0s-.01-.01-.02-.02v.02Zm.53-2.07c.18.17.34.58.72.36-.11.47.01.89.09,1.25-.3-.08-.41-.34-.83-.32-.04-.38,0-.93.02-1.29Zm-4.16-3.61c-.13-.46-.32-.83-.35-1.22-.02-.3.07-.76.08-1.1,0-.1-.03-.15,0-.23.11-.48.6-.61,1.01-.82.79-.41,1.5-.77,2.19-1.29.16.16.35.34.57.56.16.16.52.38.57.56.01.05-.06.14.02.14-.22,0-.51-.07-.85-.02-.24.03-.23.05-.45.26-.25.12-.54-.02-.78,0-.06.14.02.14.06.24-.44-.18-1-.19-1.48-.02-.12.05-.3.17-.43-.02-.01.43.38.22.8.14.27-.05.49-.13.81-.1.17.02.24.1.41.07.15.31.14.76.12,1.23-.15.25-.49.4-.41.81-.15.11-.23.51-.13.68h.16c-.16-.1-.07-.54.04-.75.32-.1.51.11.73.16.25.05.42-.16.74-.1,0-.1,0-.21.02-.31-.05-.17-.2-.29-.3-.33-.15-.42-.13-1.12.01-1.45.19-.34,1.1-.35,1.38-.04-.31-.1-.69-.05-.91.09.15.02.38-.07.6.01-.15.05-.29-.02-.42.07.03.03.08.03.14.03h0s.08,0,.11,0c0,0,0,0,0,0,.17.02.49.09.54.27,0,0-.17.28-.59.18h0c-.07-.02-.13-.04-.18-.06-.13-.06-.19-.11-.21-.16-.04-.05-.08-.1-.12-.15-.05.25.29.35.53.42-.15.09-.42-.07-.5-.19.03.15.15.22.3.27h0s.46.21.89-.1c.43-.31.17.36-.11.63-.28.27.22.43.27.64.04.2-.32,1.67-1.07,2.3h0c-.24.28-.71.29-1.15.34.18.06.41-.03.6-.04-.2.12-.49.12-.81.09,0-.02.04-.01.05-.04-.39-.02-.74-.08-1.07-.2-.3-.1-.66-.22-.88-.39-.29-.22-.42-.64-.54-1.06Zm4.27-3.2c-.36-.07-.81-.07-1.11.05-.36.39-.32,1.16-.21,1.74.23-.07.44.2.37.46-.22-.09-.37.11-.56.11-.22,0-.41-.28-.69-.13-.13-.26.12-.47.26-.58-.01-.58.16-1.32-.33-1.47v-.07c.43.15.8.08,1-.2.12.03.32-.03.42-.09.34.01.65.04.84.19Zm-2.31,2.27s-.07-.08-.06-.16c.04.04.07.09.06.16Zm-.38,12.08h-.03c.52-.31.94-.51,1.37-.87-.37.45-.75.89-1.13,1.32-.38.89-.9,1.61-1.52,2.22.28-.6.63-1.26,1-1.81.13-.2.4-.43.32-.86Zm-.27-9.53c.38.13.66.14,1.12.2,0,.1,0,.19-.03.25-.45,0-.78-.11-1.1-.24.04-.15.04-.06.01-.21Zm.11,3.12c.11-.8,0-1.6.13-2.46.02-.13-.04-.19.1-.16.03,0,.02-.07.01.09-.02.78-.15,1.71.06,2.28,0-.09.02-.11.15-.15,0,.04-.06.04.06.12.12.28.18.51.23.77.11-.24-.07-.48-.14-.72-.2-.63-.17-1.57.01-2.35.15.02.25,0,.34.02-.11.8-.26,1.88-.07,2.55.05-.74.12-1.67.32-2.56.22-.04.45-.07.67-.1-.06,1.09-.13,2.38-.19,3.54-.12.04-.25.06-.37.1-.09-.01-.19-.03-.28-.05-.4-.27-.75-.57-1.05-.92Zm-.25.75c.11,0,.2.03.29.06.02.14,0,.34-.04.59-.1-.21-.16-.44-.25-.65Zm.19,10.03c-.08-.02-.09-.09-.15-.12-.82-.1-1.36.52-2,.86-.45.23-.9.43-1.35.59.93-.51,1.88-1.02,2.67-1.69.27-.23.43-.51.67-.8.2-.23.48-.39.63-.59.08.85-.12,1.18-.46,1.75Zm2.14-4.17c-.03.14-.19.31-.17.29-.41.97-1.13,1.48-1.83,2.18-.37.38-.73.79-1.1,1.18-.79.83-1.82,1.34-2.7,1.83h-.16c-.36.27-.74.53-1.06.86-.02,0-.02-.03-.02-.04-.19.21-.35.37-.53.55.09-.13.18-.26.27-.4.17-.14.35-.27.49-.42.46-.35.99-.68,1.44-1.05.21-.17.4-.41.62-.52,1.06-1,2.23-1.99,3.32-3.04.19-.19.4-.34.56-.53.02-.03,0-.08.02-.11.1-.15.27-.27.37-.42.08-.12.16-.26.21-.36.05-.11.02-.21.08-.29.02-.02.06.02.07-.02,0-.03-.03-.06.07-.02-.05-.08-.02-.11.06-.27,0,.19.04.41,0,.6Zm-.1-.63c-.18.29-.3.59-.46.85-.5.83-1.19,1.38-1.9,2.02-.9.8-1.84,1.62-2.74,2.43-.56.5-1.23.9-1.83,1.38,1.55-2.29,3.26-4.89,4.2-5.66.29-.19.6-.33.86-.52-.07.43-.31.62-.49.92-.12.2-.22.42-.33.61-.23.38-.55.74-.6,1.23.25,0,.42-.23.55-.38.32-.38.6-.77.85-1.18.13-.22.2-.47.34-.69.09-.16.26-.29.39-.44.13-.15.25-.33.37-.49.26-.31.54-.6.79-.92.51-.67.96-1.34,1.42-1.99.21-.1.37-.38.57-.41-.58,1.18-1.35,2.2-2,3.25Zm-.41,18.94c-.04.27-.13.53-.18.77-.07.38-.07.79-.22,1.14-.03.06.01.05-.04,0-.06,2.06-1.26,3.23-2.44,4.2.18-.46.43-.68.53-1.24.01-.08.05-.12.1-.16,0-.28.1-.59.16-.89.06-.31.07-.64.16-.93.14-.43.37-.84.56-1.24.37-.8.72-1.65.91-2.48.24-1.02.18-2.29.69-3.26h0c-.03-.07,0-.07,0-.18,0,.06,0,.12,0,.18h0c-.08,1.51-.06,2.92-.22,4.09Zm-6.06,12.6c.04-.43.46-1.37.23-1.55-.05-.03-.23-.04-.35-.02-.43.31-.93.65-1.46.89-.22.11-.28.18-.63.2-.27.01-.49.17-.77.21.78-.39,1.48-.79,2.08-1.39.29-.29.55-.63.83-.93.28-.29.51-.66.92-.78-.11,1.19-.31,2.36-.82,3.18.04.09-.01.11-.03.18Zm2.72-1.6c.07-.41.35-.96.4-1.48.04-.37-.06-.81-.56-.63-.29.11-.46.46-.62.7-.16.25-.36.55-.44.83-.73.06-.73,1.04-1.13,1.6.27-.82.81-2.1.84-3.2,0-.2.33-.57.45-.67.3-.26,1.02-.57,1.39-.18.65.7-.11,2.36-.35,3.02Zm1.64-3.92c.02.06.05-.06.09,0-.08.1-.14.34-.23.36,0,.1-.12.44-.24.47-.13.53-.36,1.03-.5,1.63.1-.65.21-1.43.16-2.13-.01-.24-.05-.52.13-.71,0,.03.02.02.02,0,.03.01,0,.03,0,.07.02,0,.04-.03.04,0,.03,0,.02-.04.03-.07-.02-.07-.09.03-.11-.03,0-.06.05-.12.1-.07-.03-.05,0-.12,0-.13.22.14.48.33.69.41-.05.22-.11.09-.19.2Zm3.84-13.07s-.04-.15-.03-.23c.04-.03,0,.18.03.23Zm-.05-.3c.02-.52.1-.91.15-1.44.02.45-.08,1.1-.15,1.44Zm.43-3.71c-.06-.04.04-.13.01-.23.05-.04,0,.2-.01.23Zm-1.24,26.62c.04-.05.18,0,.25-.01-.04.05-.18,0-.25.01Zm-.14-1.21c.17-.14.4-.22.6-.33-.07.16-.34.3-.6.33Zm-11.76,15.45c-.07-.06-.18,0-.28-.02.46-.76.9-1.54,1.26-2.42-.06,1.06-.4,1.92-.98,2.44Zm.99-2.51c-.53.94-1,1.94-1.76,2.62-.19-.05-.46.07-.6,0,.91-.89,1.81-1.79,2.38-3.07v-.04c.06.15-.02.35-.02.5Zm.74-2.93c-.08-.03-.21-.03-.32-.04.12-.17.36-.21.5-.36-.02.09-.14.26-.18.4Zm.75,1.52c-.12.45-.28.86-.44,1.27-.08-1,.44-1.6.58-2.55.04.29.02.82.05,1.2,0,.09-.16.02-.19.08Zm1.37-2.83c0-.1-.12-.35,0-.46.05.11,0,.31,0,.46Zm.2,5.7c.15-.46.38-.84.64-1.18-.04.48-.3,1.03-.64,1.18Zm3.12-6.16c-.03-.25.09-.54.14-.8.06.19-.11.55-.14.8Zm.18-.82c-.06-.06.03-.15.01-.23.06.05,0,.16-.01.23Zm.49,6.8c-.33.12-.58.33-.9.46-.16.47-.41.97-.86,1.03.02-.16.08-.28.11-.43.04-.04.13,0,.17-.04.23-.42.41-.87.78-1.16.27-.2.66-.39.6-.93.17.22.14.73.1,1.07Zm2.1,1.61c-.1.08-.26.15-.42.09-.09-.1-.07-.31-.09-.49.13.03.41.1.61.13.1.05-.16.1-.11.27Zm.32-.42c-.23.06-.58.03-.78-.06-.16-.62.38-.82.81-.6l-.04.66Zm.99-.34c-.06.22.1.42-.14.41.01-.22-.06-.36-.18-.45-.1.02-.26.06-.34-.02-.05-.39.32-.59.6-.38.05.08.06.2.12.26-.18.12-.24-.2-.41-.23,0,.16.19.32.35.41Zm4.16-46.83c.04-.37.21-.79.46-.82-.16.26-.36.61-.38,1.06-.02.46,0,.94-.13,1.17.06-.37,0-.92.05-1.41Zm-.67,3.07c.17-.44.31-.91.49-1.33.02.31-.26.71-.17,1.01.39-.07.61-.33,1.03-.36-.43.25-.9.46-1.35.68Zm3.67,1.54s-.06.14-.06.21c-.07-.08.04-.15.06-.21Zm-.66,18.01l-.28,5.17c-.01.31.02.62-.18.75-.15-.49.02-1.07,0-1.57,0-.14-.08-.29-.09-.42-.04-.49,0-1.02,0-1.52,0-2.23,0-4.45.1-6.84.33.56.44,1.66.59,2.29,0,.02.02.1.02.09.01.63-.09,1.35-.13,2.04Zm-16.41,25.08c-.02-.08.09-.03.14-.04-.02.04-.07.05-.14.04Zm13.72.56c.03-.26.33-.2.54-.25-.2-.2-.9-.09-.87-.44,0-.08.09-.06.08-.18,0,.49.8.33,1.05.65-.14.09-.44,0-.52.16.03.12.27.05.29.18-.12.07-.51,0-.57-.12Zm-18.15,3.21s.07-.02.05-.09c.06,0,.1.01.09.08-.03.02-.08.02-.14.02Zm.18,0s0-.07-.02-.07c.03-.07.08.03.14,0,0,.07-.08.04-.12.06Zm.21.01s-.02-.04-.02-.07c.05-.04.07,0,.11.03-.01.03-.05.04-.1.04Zm20.31-5.62s.04.02.07.02c-.2.34-.1,1.01-.28,1.37.03-.41,0-1.11.21-1.39Zm.42,2.44c0,.11,0,.22-.12.2-.05-.05,0-.09.03-.13-.26-.24-.48-.52-.64-.85.29.23.46.56.74.78Zm2.65-33.87c-.01-.37.03-.89.26-1.07-.03.32-.16.75-.26,1.07Zm5.55-9.7s-.02.01-.02,0c-.03,0-.02.04-.03.07-.05-.04-.03-.08-.11-.14.04-.04.09.08.16.08Zm-1.04,1.41c-.12-.06-.23-.13-.33-.2.14,0,.25.04.33.2Zm-2.62-6.45c.49.28,1.03.53,1.52.81.1.22.19.43.31.64.21.36.53.61.78.9.06.06.18.26.19.33.03.32-.31.46-.37.83-.04.19-.05.35-.08.57-.77-1.38-1.59-2.72-2.36-4.09Zm1.62,6.59c0-.12.27-.19.3-.05-.14-.03-.21.02-.3.05Zm.41,1.77c-.05-.11.09-.15.1-.27h.07c-.03.12-.06.24-.18.27Zm-.15-1.97c-.21-.27.05-.67.4-.55.09.1.07.18.22.15-.07.05.06.07,0,.11-.04,0-.04-.02-.04-.05-.07.13-.04.1-.12.13-.03-.04,0-.1,0-.14-.07.02-.01.05-.05.12-.09-.09-.19-.17-.38-.16,0,.1.09.12.18.13.27.48,1.07.5,1.06,1.23-.31-.41-.71-.76-1.26-.97Zm1.39-.06c-.15-.1-.31-.2-.42-.34.14-.04.19-.19.25-.33.19.1.28.29.32.52-.12-.03-.14.05-.15.15Zm.24.2c-.11.01-.12-.06-.18-.1-.05-.07.1-.1.08-.22.09.05.15.22.1.32Zm.59.22c-.15-.11-.27-.25-.46-.33-.09-.22-.12-.45-.29-.68-.22-.31-.57-.61-.45-1.06.05-.19.24-.24.42-.09-.08.45.33.7.47,1.13.12.37.21.66.31,1.03Zm-16.85-22.37c-.28-.36-1.07-.19-1.45-.08-.09.2-.44.16-.68.13.2.21.52.16.85.11.06.09.28.19.17.24.45.2.95-.04,1.11-.4Zm-1.01.31c.31.05.67-.05.85-.23,0-.03-.07,0-.07-.05-.26.25-.88.31-1.04.03-.05.05-.05.03-.16.04.18-.27.98-.31,1.37-.11-.12.29-.58.54-.94.32Zm-2.79,9.76c.42-.25.46-1.05.85-1.33.35-.26.39.03.46.39.04.19.16.44.2.59.12.47-.3.64-.35.93.14.21.11.65-.05.85.11.43-.15.83-.31,1.11.29-.2.67-.75.41-1.2.22-.13.15-.58.06-.78.06-.22.3-.32.35-.56.05-.23-.13-.56-.2-.91-.05-.26-.01-.57-.24-.59-.78-.08-.7.99-1.18,1.32-.1-.36.06-.96,0-1.36,0,.47-.3,1.22-.01,1.54Zm-5.08-24.47c-.23-.13-.74-.13-.94,0,.31-.02.7.06.94,0Zm-1.97-10.64c-.07.09-.09.22-.16.31-.07-.14-.22-.21-.38-.27-.03.06-.06.09-.04.16.19-.08.24.11.37.16.07-.03.12-.08.12-.01.12-.17.1-.24.29-.26-.11.01-.1-.09-.2-.08Zm1.16,8.26s-.03.03-.02.07l-.05.8c-.01.26-.1.59.05.74.07-.48.08-1.1.08-1.59-.03,0-.05-.01-.07-.03Zm-.41-2.93c.18.06.43.08.58.26.15-.05.35.11.56-.02.04-.06.02-.18.08-.22-.2-.2-.82-.24-1.14-.18.31.1.83.02,1.02.24-.31.34-.71-.28-1.1-.08Zm26.98,39.49c.14-.21.38-.5.34-.72-.15.21-.3.44-.45.67-.15.22-.33.44-.38.69.19-.15.34-.41.5-.64Zm.74-1.71c-.24.27-.57.42-.82.67.21.12.52.14.6.38.27-.16.52-.36.75-.58-.22-.12-.33-.33-.53-.47Zm-16.3-15.17c-.34.14-.58-.16-.87-.14-.19.01-.44.15-.7.05.06.35.48.17.77.2.24.03.7.13.79-.12Zm-5.37,5.47c-.2.93-.67,1.68-.99,2.39.48-.62.9-1.42.99-2.39Zm-1.11,6.32c-.13.21-.42.26-.47.55.49-.5,1.2-.87,1.74-1.42.15-.16.47-.4.51-.57.01-.05-.01-.16-.01-.21.03-.45.15-.96.31-1.37.13.03.21.07.32.01.02-.04.02-.09.05-.11-.03-.11-.12.09-.21.06-.02-.03-.02-.09-.01-.14-.11.02-.3.18-.32.26-.13.52-.47,1.17-.67,1.69-.07.18-.09.41-.26.49.04-.21.23-.56.22-.63,0,0,0,0,0,.02-.14.19-.25.42-.33.67-.39.24-.78.63-1.28.67.08-.49.13-1,.22-1.53.08-.46.3-1.29.14-1.65-.02,1.2-.35,2.25-.41,3.25.16.08.33-.02.47-.04Zm1.7-2.07c.03.36-.09.76-.33.91.03-.3.24-.6.33-.91Zm-5.72-.82c.05-.08.04-.18.09-.28.2-.36.76-.49,1.1-.77.23-.19.55-.63.23-.84-.37.16-.54.61-.88.9-.2.17-.47.28-.6.5-.2.32-.3.6-.55.85-.24.23-.5.34-.72.61.19-.13.44-.26.71-.45.2-.13.51-.32.63-.52Zm.67-.96c.17-.14.25-.39.4-.5,0,0,.03.04.05.02.1-.11.14-.26.29-.3.07.73-.74.74-1.12,1.11.03-.15.23-.18.39-.33Zm3.97,8.76c-.76.56-1.39,1.21-2.04,1.87-.66.67-1.15,1.46-1.73,2.19-.18.23-.39.51-.57.78-.09.14-.22.32-.21.5.68-.99,1.32-1.98,2.07-2.89.75-.9,1.71-1.58,2.49-2.45ZM10.05,15.11c-.4-.09-.8-.16-.97.09.29-.12.76-.12,1.01.07.02-.08-.01-.12-.04-.16Zm3.81,88.37s0,.04.02.05c.03-.17.07-.39,0-.49-.02.15-.05.36-.05.46,0-.01,0-.03.03-.02Zm-13.57-3.85c-.01.09.1.05.04.14.09-.08.14.06.25.08-.06-.11-.14-.19-.29-.22Zm.16-1.19s.01-.02.02-.04c0,.01-.01.03-.02.04Zm0,0s-.08.04-.1.01c-.04.16-.25.19-.31.29-.09.14.03.35,0,.65.17-.08.05-.37.03-.53.12-.12.31-.27.38-.42Zm2.03,6.95s-.08.08-.03.09c.06.01.32-.02.34.04.02-.05.13-.02.16-.06-.04,0-.05-.02-.02-.05-.18.06-.2-.03-.46-.03Zm2.62.49c-.46-.04-.91-.12-1.37-.19-.5-.08-1.02-.06-1.44-.19-.49-.15-.91-.42-1.35-.6.48.09.98.32,1.45.49,0-1.92.3-4.29.32-6.25,0-.42.13-.99.05-1.34-.03-.16-.21-.31-.22-.5.95,0,1.79-.13,2.7-.17.03.2.04.28.09.44-.12.05-.31.02-.46.04-.01-.11.04-.27,0-.35-.06.08,0,.29-.06.37-.41-.02-.69.03-1.15.05,0-.06.03-.26-.01-.21.07.46-.67.07-.78.35.85-.01,1.8-.17,2.56-.09-.61.13-1.53.07-2.06.21.65.04,1.23-.03,1.99-.1-.14,2.6-.25,5.17-.4,7.79-.3-.04-.65-.11-.98-.14-.31-.03-.66-.14-.9,0,.62.04,1.4.21,1.99.27.18-2.62.25-5.46.44-8.11-.12-.39-.24-.78-.23-1.28-.95.03-1.9.06-2.82.12.25.25.87-.08,1.1.13.03-.05,0-.07.08-.09.44.02.99-.04,1.5-.03.02.18.07.3.07.41-.92.06-1.89.07-2.8.15-.04-.17-.03-.37-.01-.57-.18.11-.31.29-.46.46-.37.4-.77.8-1.12,1.18-.06.06-.18.13-.15.22.62-.5,1.02-.98,1.6-1.53.03.09,0,.23.05.3-.52.58-1.07,1.19-1.62,1.78-.13.14-.52.49-.47.57.07.13.24-.08.28-.12.67-.67,1.3-1.38,1.97-1.97,0,.19.11.26.14.42-.16.12-.33.43-.49.41.02.1-.04.11-.05.18-.12.1-.24.19-.32.33-.08-.04-.09.05-.15.15-.34.21-.6.71-.97.96-.06,1.4-.1,3.25-.21,4.76,0,0,0,0-.01,0v.1c.44.2.88.4,1.31.59.2.09.41.23.61.28.34.11.84.13,1.28.19.93.12,2.08.28,3.23.29,2.46.02,4.93.29,7.24.3-2.84-.24-6.09-.22-8.96-.49Zm-2.88-8.43s-.01-.05-.04-.05c.02-.08.16-.06.1-.11,0-.03.04-.02.07-.02,0,.11-.12.08-.13.18Zm.21-.33c.37.11.9-.08,1.08.03-.33.04-.75-.03-.95.13-.08-.02-.12-.08-.13-.17Zm-1.71,3.06s-.02-.14-.01-.19c.04-.17.32-.37.49-.55.51-.55.97-1.03,1.51-1.53-.35.58-.98.97-1.28,1.52.13,0,.02-.12.12-.15.08-.01.05-.01.09.03-.01-.09.05-.09.05-.16.18-.08.36-.31.54-.53.15-.1.25-.26.37-.39-.03,2.24-.23,4.72-.33,6.96-.57-.14-1.07-.45-1.28-.32-.02-.07-.32-.09-.49-.19.06-1.4.19-2.98.22-4.5Zm3.98-2.9s-.08.28,0,.3c0-.09.04-.24,0-.3Zm1.51-9.09c-.15-.14-.17-.3-.34-.46.21.52.61.98,1.28,1.01.63.04,1.22-.28,1.62-.56-.62.33-1.91.61-2.56,0Zm2.64-57.42c0,.62-.31,1.24-.02,1.7-.05-.49.13-1.2.02-1.7Zm-1.91,62.32c-.14,0-.22.02-.3.03h-.14s-.03,0,0,.01c.3.02.52.02.69-.05.03.04.17.04.21.01-.1-.16-.33-.1-.46,0Zm-.33-2.46c-.74-.48-.4-1.95-.85-2.7.22,1.12-.14,2.72,1.21,2.88-.09-.14-.26-.11-.36-.18Zm-.02.73c.1-.05.17-.13.26-.17.25-.09.53-.07.77-.14.41-.13.62-.45.79-.86,0-.02-.02-.03-.05-.02-.24.2-.68.61-.98.71-.69.22-1.41.61-2.22.68.48.02,1.02,0,1.44-.2Zm1.45-.79c.05.08-.24.32-.36.3.02-.12.27-.18.36-.3Zm-.41.34c-.01.05-.1.02-.12.06-.06-.03.08-.12.12-.06Zm-4.87,3.38s-.05.05-.08.07c.01-.01.04-.03.08-.07Zm19.09,11.84c0,.11-.03.24-.03.32.02-.08.02-.19.03-.32Zm.35-6.38c0-.17.03-.96.03-.97-.07.07-.04.71-.05.96-.11,2.05-.21,3.81-.32,5.84,0,.11,0,.34,0,.55,0-.03,0-.06,0-.08.12-2.23.22-4.16.34-6.3Zm-5.66,1.36s.02.01.03.02c0,0-.01-.01-.02-.02,0,0,0,0,0,0Zm.76,2.71c-1.14,0-2.34-.13-3.33-.23.37.18.68.23,1.04.22-.06.77-.06,1.83-.15,2.41-.19-.02-.08-.3-.09-.46l.1-1.8c0-.16-.04.05-.03.12l-.11,2.09c-.23-.02-.4,0-.5-.03.03-.75.11-1.56.1-2.28l-.12,2.3c-.22-.06-.24.03-.41,0,.03-.63.08-1.38.11-2,.01-.2.09-.46-.04-.58-.1.14-.06.37-.08.6-.04.68-.07,1.51-.13,2.04,1.08.06,2.46.13,3.54.19,0-.81.09-1.83.12-2.6Zm-2.64-11.9s-.05.08-.06.12c.02-.04.04-.08.06-.12Zm1.56-64.38c-.43.42-.67,1-.85,1.66.27-.45.33-.92.6-1.28.79-1.07,2.39-1.23,4.21-1.17-1.52-.17-3.1-.05-3.96.8Zm-.13,74.08c.11-.23.31-.14.46-.37-.54.22-1.03.49-1.51.77.14-.02.71-.27.99-.45,0,.03.05.03.07.05Zm-12.33-5.86c.17-.02.32.03.44-.05-.63-.09-1.16.33-1.76.67.53-.09.83-.56,1.32-.62Zm10.58,6.29c-.08-.52.05-1.23.05-1.82l.09-1.74c.02-.05-.03-.11-.02-.02l-.18,3.26c0,.16.02.37-.16.34.03-1.13.2-2.55.15-3.66l-.16,2.97c-.01.28.08.77-.25.79.04-1.26.2-2.62.16-3.79l-.21,3.81s-.13.02-.14.08c-.15,1.22-.09,2.67-.28,3.86,0-.04-.09.02-.16,0,.11-2.57.35-5.25.38-7.75-.2,2.52-.26,5.22-.47,7.74-.12-.05-.23.02-.34-.04.11-2.57.34-5.24.38-7.72-.21,2.52-.26,5.22-.47,7.74-2.77-.14-4.75-.28-7.54-.29.15.04.56.08.62,0,2.27.19,5,.22,7.74.45.07-1.23.15-2.69.21-3.92.19-.07.35-.14.54-.2-.11.15-.38.13-.39.39.13-.01.01-.09.08-.16.87-.4,1.74-.79,2.57-1.24-.04-.02-.07-.04-.1-.05-.63.41-1.38.68-2.11.99Zm2.51,1.63c.57.08,1.39.16,1.89.1-.77-.14-1.51-.13-1.89-.1Zm.84.23c.17.09.34,0,.48,0,0,0,.03.05.07.05.16,0,.34,0,.47-.07-.36-.01-.74-.06-1.02.01Z"/>
</svg>