<?xml version="1.0" encoding="UTF-8"?>
<svg id="Layer_1" data-name="Layer 1" xmlns="http://www.w3.org/2000/svg" xmlns:xlink="http://www.w3.org/1999/xlink" viewBox="0 0 24.11 25.84">
  <defs>
    <style>
      .cls-1 {
        fill: url(#linear-gradient);
      }

      .cls-2 {
        fill: #f7da9a;
      }

      .cls-3 {
        fill: #00426e;
      }

      .cls-4 {
        fill: #ffe6a3;
      }

      .cls-5 {
        fill: #cce7f7;
      }

      .cls-6 {
        fill: #cde8f7;
      }

      .cls-7 {
        fill: #cfeaf8;
      }

      .cls-8 {
        fill: #c8e4f6;
      }

      .cls-9 {
        fill: #d1ebf8;
      }

      .cls-10 {
        fill: #cae5f6;
      }

      .cls-11 {
        fill: #069dd0;
      }

      .cls-12 {
        fill: url(#linear-gradient-3);
      }

      .cls-13 {
        fill: url(#linear-gradient-4);
      }

      .cls-14 {
        fill: url(#linear-gradient-2);
      }

      .cls-15 {
        fill: url(#radial-gradient);
      }
    </style>
    <radialGradient id="radial-gradient" cx="19.63" cy="755.21" fx="19.63" fy="755.21" r="11.18" gradientTransform="translate(-131.4 -728.04) rotate(-9.46)" gradientUnits="userSpaceOnUse">
      <stop offset="0" stop-color="#45b0ff"/>
      <stop offset="1" stop-color="#004285"/>
    </radialGradient>
    <linearGradient id="linear-gradient" x1="-357.24" y1="1368.91" x2="-355.41" y2="1370.26" gradientTransform="translate(-534.02 -1299.04) rotate(-36.88)" gradientUnits="userSpaceOnUse">
      <stop offset="0" stop-color="#f4e6da"/>
      <stop offset=".43" stop-color="#f6dba2"/>
      <stop offset=".51" stop-color="#f7da99"/>
      <stop offset="1" stop-color="#f4e6da"/>
    </linearGradient>
    <linearGradient id="linear-gradient-2" x1="-346.22" y1="1370.38" x2="-344.18" y2="1368.55" xlink:href="#linear-gradient"/>
    <linearGradient id="linear-gradient-3" x1="-3017.98" y1="-622.81" x2="-3016.31" y2="-621.57" gradientTransform="translate(-2765.55 1330.48) rotate(143.12)" xlink:href="#linear-gradient"/>
    <linearGradient id="linear-gradient-4" x1="-3006.97" y1="-621.36" x2="-3005.12" y2="-623.02" gradientTransform="translate(-2765.55 1330.48) rotate(143.12)" xlink:href="#linear-gradient"/>
  </defs>
  <g>
    <g>
      <path class="cls-9" d="m23.95,15.1c.09.12.06.3-.07.4,0,0-2.67,2.42-5.5,4.74-2.02,1.66-3.59,2.94-6.21,4.8-.18.07-.32.08-.41-.04L.54,10.12c-.25-.32-.18-.55-.02-.7,2.43-2.03,4.36-3.42,5.58-4.4C9.12,2.59,12.31.09,12.31.09c.13-.1.32-.08.41.04l11.23,14.96Z"/>
      <path class="cls-11" d="m23.93,15.11c.08.11.05.28-.07.37-.03.03-2.7,2.44-5.5,4.74-1.89,1.55-3.53,2.89-6.21,4.8h0c-.2.07-.31.06-.38-.04,0,0-11.23-14.87-11.23-14.87-.2-.27-.21-.48-.02-.67,1.61-1.35,2.99-2.41,4.11-3.26.57-.44,1.06-.81,1.47-1.14C9.1,2.64,12.3.14,12.33.11c.06-.05.14-.07.21-.06.06,0,.12.04.16.09l11.23,14.96ZM12.74.12c-.05-.06-.12-.1-.2-.12-.09-.01-.18.01-.25.07-.03.03-3.23,2.53-6.22,4.93-.41.33-.9.7-1.47,1.14-1.11.85-2.5,1.91-4.11,3.26-.21.21-.21.45.01.74l11.23,14.87c.11.15.28.11.44.05h0s0,0,0,0c2.68-1.91,4.32-3.25,6.21-4.8,2.8-2.29,5.47-4.71,5.49-4.73.14-.11.18-.3.08-.44L12.74.12Z"/>
    </g>
    <g>
      <path class="cls-7" d="m23.89,15.41c.09.12.06.3-.07.4,0,0-2.61,2.41-5.44,4.64-2,1.57-3.54,2.85-6.19,4.65-.18.07-.31.08-.41-.05L.54,10.12c-.22-.28-.16-.5,0-.64,2.46-1.96,4.09-3.2,5.3-4.14C8.74,3.07,12.21.34,12.21.34c.13-.1.31-.08.4.05l11.28,15.03Z"/>
      <path class="cls-11" d="m23.87,15.42c.04.05.06.12.05.19-.01.07-.05.14-.11.18h0s-2.64,2.44-5.44,4.64l-.94.74c-1.55,1.24-3.02,2.4-5.25,3.91h0c-.19.07-.3.06-.37-.04L.55,10.11c-.23-.29-.13-.49,0-.61,1.9-1.52,3.29-2.59,4.41-3.45l.89-.69C8.73,3.12,12.19.39,12.22.36c.06-.04.13-.06.21-.05.07,0,.12.04.16.09l11.28,15.03ZM12.63.37c-.04-.06-.12-.1-.2-.12-.09-.01-.17.01-.24.06-.04.03-3.5,2.76-6.37,5l-.89.69c-1.12.86-2.51,1.93-4.41,3.46-.12.11-.27.34,0,.68l11.26,14.93c.11.15.28.11.44.05h0s0,0,0,0c2.22-1.5,3.69-2.67,5.25-3.91l.93-.74c2.8-2.2,5.41-4.62,5.44-4.64h0c.07-.05.12-.13.13-.21.01-.08,0-.16-.05-.22L12.63.37Z"/>
    </g>
    <g>
      <path class="cls-6" d="m23.83,15.72c.09.12.06.3-.07.4,0,0-2.54,2.41-5.38,4.54-1.98,1.49-3.48,2.77-6.16,4.49-.18.07-.31.08-.4-.05L.54,10.12c-.19-.24-.13-.45.01-.58,2.49-1.9,3.82-2.98,5.02-3.89C8.37,3.56,12.11.58,12.11.58c.13-.1.31-.08.4.05l11.32,15.09Z"/>
      <path class="cls-11" d="m23.81,15.74c.04.05.06.12.05.18,0,.07-.05.14-.11.18h0s0,0,0,0c-.03.03-2.58,2.43-5.38,4.54-.48.36-.94.72-1.39,1.06-1.41,1.09-2.74,2.13-4.77,3.43h0c-.19.07-.3.06-.37-.04L.55,10.11c-.15-.2-.15-.4,0-.55,1.33-1.01,2.34-1.8,3.15-2.44.73-.57,1.31-1.02,1.87-1.45C8.36,3.6,12.08.63,12.12.6c.06-.04.13-.06.2-.05.06,0,.12.04.16.1l11.32,15.09ZM12.53.62c-.05-.06-.12-.1-.2-.12-.08-.01-.17,0-.24.06-.04.03-3.76,3-6.53,5.07-.56.42-1.14.88-1.87,1.45-.81.64-1.82,1.43-3.15,2.44-.09.08-.27.3-.02.62l11.28,14.98c.11.15.27.12.43.06h0s0,0,0,0c2.03-1.3,3.36-2.34,4.78-3.43.45-.34.9-.7,1.39-1.06,2.81-2.11,5.36-4.52,5.38-4.54h0c.07-.05.11-.12.12-.21.01-.08,0-.16-.05-.22L12.53.62Z"/>
    </g>
    <g>
      <path class="cls-5" d="m23.77,16.03c.09.12.07.3-.06.4,0,0-2.49,2.4-5.33,4.44-1.95,1.41-3.42,2.68-6.14,4.34-.17.06-.3.07-.4-.05L.54,10.12c-.16-.2-.11-.4.03-.52,2.52-1.83,3.55-2.76,4.75-3.63C8,4.03,12,.83,12,.83c.13-.1.31-.07.4.05l11.37,15.15Z"/>
      <path class="cls-11" d="m23.75,16.05c.04.05.06.12.05.19,0,.07-.05.13-.1.17h0s-2.52,2.42-5.32,4.44c-.57.41-1.11.81-1.62,1.21-1.27.96-2.59,1.96-4.51,3.13h0c-.19.07-.3.05-.37-.04L.55,10.11c-.16-.21-.09-.38.02-.48,1.48-1.08,2.45-1.85,3.23-2.46.55-.43,1.02-.81,1.52-1.16C7.98,4.08,11.98.88,12.02.85c.05-.04.12-.06.2-.05.06.01.12.05.16.1l11.37,15.15ZM12.42.87c-.05-.06-.12-.11-.2-.12-.08-.01-.17.01-.24.06-.04.03-4.04,3.23-6.69,5.15-.5.36-.97.73-1.52,1.16-.78.62-1.75,1.39-3.23,2.46-.17.14-.18.36-.03.55l11.31,15.03c.11.15.27.12.43.06h0s0,0,0,0c1.93-1.17,3.25-2.17,4.52-3.13.52-.39,1.06-.8,1.62-1.2,2.81-2.02,5.3-4.42,5.33-4.45h0c.07-.05.11-.12.12-.21.01-.08,0-.16-.06-.23L12.42.87Z"/>
    </g>
    <g>
      <path class="cls-10" d="m23.71,16.34c.09.12.06.3-.06.39,0,0-2.43,2.4-5.27,4.35-1.94,1.33-3.36,2.6-6.11,4.18-.17.06-.3.07-.39-.05L.54,10.12c-.13-.16-.09-.35.04-.45,2.55-1.76,3.27-2.54,4.48-3.37,2.57-1.79,6.84-5.22,6.84-5.22.12-.09.3-.07.4.05l11.42,15.21Z"/>
      <path class="cls-11" d="m23.69,16.36c.04.05.06.12.05.18,0,.07-.05.13-.1.17h0s0,0,0,0c-.02.02-2.46,2.42-5.27,4.34-.62.43-1.17.84-1.76,1.27-1.22.9-2.48,1.83-4.35,2.91h0c-.19.06-.29.05-.37-.05L.55,10.11c-.11-.14-.09-.32.04-.42,1.52-1.05,2.39-1.75,3.1-2.32.48-.38.89-.72,1.38-1.05,2.54-1.77,6.8-5.19,6.84-5.22.06-.04.12-.06.19-.05.06,0,.13.04.17.1l11.41,15.21ZM12.31,1.12c-.05-.07-.12-.11-.2-.12-.08-.01-.16,0-.23.06-.04.04-4.31,3.45-6.84,5.22-.49.34-.9.67-1.38,1.06-.7.57-1.58,1.27-3.1,2.32-.15.13-.17.32-.05.49l11.33,15.09c.11.15.27.12.43.06h0c1.87-1.08,3.13-2.01,4.35-2.92.59-.43,1.14-.84,1.76-1.27,2.81-1.93,5.25-4.33,5.27-4.35h0c.07-.05.11-.12.12-.2,0-.08-.01-.16-.06-.22L12.31,1.12Z"/>
    </g>
    <g>
      <path class="cls-8" d="m23.64,16.65c.09.12.07.3-.06.39,0,0-2.37,2.39-5.21,4.25-1.91,1.25-3.31,2.51-6.09,4.03-.17.06-.3.07-.39-.06L.54,10.12c-.09-.12-.07-.3.06-.39,2.58-1.69,3-2.32,4.2-3.12,2.45-1.63,7-5.29,7-5.29.12-.09.3-.07.39.05l11.46,15.27Z"/>
      <path class="cls-11" d="m23.62,16.67c.04.05.06.12.05.19,0,.07-.04.13-.1.17h0s-2.4,2.41-5.21,4.25c-.65.43-1.24.85-1.85,1.3-1.18.85-2.4,1.74-4.23,2.73h0c-.18.06-.29.05-.36-.05L.55,10.11c-.08-.11-.06-.27.05-.35,1.55-1.02,2.33-1.66,2.95-2.17.42-.34.77-.63,1.25-.95,2.42-1.61,6.96-5.26,7-5.29.05-.04.12-.06.19-.05.07.01.13.05.17.1l11.46,15.27ZM12.21,1.36c-.05-.06-.12-.11-.2-.12-.08-.01-.16,0-.23.06-.04.04-4.58,3.68-7,5.29-.48.32-.84.61-1.25.95-.62.51-1.4,1.15-2.95,2.16-.14.1-.16.3-.06.43l11.36,15.14c.11.15.27.12.42.07h0s0,0,0,0c1.84-1,3.06-1.88,4.24-2.73.62-.45,1.2-.87,1.85-1.29,2.81-1.84,5.19-4.23,5.22-4.25h0c.06-.05.11-.12.12-.2.01-.08,0-.16-.06-.23L12.21,1.36Z"/>
    </g>
  </g>
  <g>
    <g>
      <path class="cls-15" d="m23.58,17.38c.09.12.07.3-.06.39,0,0-2.53,2.17-5.38,4.03-1.91,1.25-3.07,2-5.86,3.51-.17.06-.3.07-.39-.06L.54,10.12c-.09-.12-.07-.3.06-.39,2.58-1.69,2.77-1.8,3.97-2.6,2.45-1.63,7.17-5.07,7.17-5.07.12-.09.3-.07.39.06l11.46,15.27Z"/>
      <path class="cls-3" d="m12.23,25.83c-.29.05-.55-.05-.72-.28L.15,10.41c-.25-.34-.18-.81.15-1.06,1.11-.73,1.78-1.16,2.27-1.48.68-.44,1.03-.67,1.73-1.14,2.41-1.6,7.1-5.03,7.15-5.06.31-.23.82-.17,1.06.15l11.46,15.27c.25.33.18.81-.15,1.06,0,0-2.57,2.2-5.4,4.05-1.99,1.3-3.15,2.04-5.9,3.53l-.07.03c-.07.03-.15.05-.21.06Zm-.15-.88l.07.41-.07-.41ZM1.04,10.01l11.13,14.83c2.63-1.43,3.78-2.17,5.71-3.43,2.43-1.58,4.65-3.42,5.2-3.88L11.85,2.56c-.85.62-4.85,3.52-7.03,4.97-.7.46-1.05.7-1.73,1.14-.46.3-1.08.7-2.05,1.34Z"/>
    </g>
    <g>
      <path class="cls-4" d="m8.15,16.08l.2.31c.04.06.07.1.09.11.02,0,.04.02.06.01.02,0,.06-.02.11-.05l.02.03-.57.37-.02-.03c.05-.03.08-.06.1-.08.01-.02.02-.04.01-.06,0-.02-.02-.06-.06-.12l-.47-.73c-.04-.06-.07-.1-.09-.11-.02-.01-.04-.02-.06-.01-.02,0-.06.02-.11.05l-.02-.03.49-.32c.16-.1.3-.15.4-.14.11.01.19.06.25.15.05.07.07.15.05.23-.01.08-.05.16-.12.23-.04.05-.13.11-.26.2Zm-.35-.55l.31.48s.03-.02.04-.02c.06-.05.11-.1.12-.16.01-.06,0-.14-.07-.22-.05-.09-.11-.13-.17-.15-.06-.01-.13,0-.2.05l-.03.02Z"/>
      <path class="cls-4" d="m9.43,15.51l-.39.25.02.14s.02.08.04.11c.02.03.05.05.08.05.02,0,.06-.02.12-.05l.02.03-.37.24-.02-.03s.06-.07.07-.11c0-.05,0-.12-.01-.23l-.18-1.15h.02s1,.65,1,.65c.1.06.16.1.2.1.03,0,.06,0,.1-.02l.02.03-.54.35-.02-.03h.02s.07-.07.08-.09c0-.02,0-.03,0-.05,0,0-.01-.02-.03-.03,0,0-.02-.02-.06-.05l-.15-.1Zm-.07-.04l-.42-.28.08.5.34-.22Z"/>
      <path class="cls-4" d="m10.21,13.83l.25.37-.04.02c-.08-.08-.16-.13-.26-.15-.1-.02-.19,0-.26.05-.06.04-.09.08-.1.13-.02.05,0,.1.02.14.02.02.04.04.06.05.03.02.07.03.13.03.04,0,.12,0,.25-.02.17-.02.3-.02.38.01.08.03.15.08.2.15.06.09.07.2.04.31-.03.12-.1.21-.21.28-.04.02-.07.04-.11.05-.04.01-.08.03-.14.04-.03,0-.06.02-.07.03-.01.01-.03.03-.04.05,0,.02-.01.05,0,.08l-.03.02-.27-.42.03-.02c.1.1.21.16.32.18.11.02.2,0,.28-.05.06-.04.1-.09.12-.14.02-.06,0-.11-.02-.16-.02-.03-.04-.05-.07-.06-.03-.01-.06-.02-.11-.03-.04,0-.11,0-.21.01-.13.02-.24.02-.3.01-.07,0-.13-.02-.18-.05-.05-.03-.09-.07-.13-.12-.06-.09-.07-.19-.05-.29.03-.1.08-.19.19-.25.04-.02.07-.04.12-.06.03,0,.07-.02.12-.03.05,0,.08-.01.09-.02.01-.01.02-.02.03-.04,0-.02,0-.04-.02-.08l.02-.02Z"/>
      <path class="cls-4" d="m11.15,13.22l.25.37-.04.02c-.07-.08-.17-.13-.26-.15-.1-.02-.19,0-.26.05-.06.04-.09.08-.11.13-.01.05,0,.1.02.13.02.03.04.04.06.06.03.02.08.02.13.03.04,0,.12,0,.24-.02.17-.02.3-.02.39,0,.08.03.14.08.19.15.06.09.08.2.05.32-.03.11-.1.21-.21.28-.04.02-.07.04-.11.05-.04.02-.08.03-.14.04-.03,0-.06.01-.08.03-.02,0-.03.02-.04.05,0,.02-.01.05,0,.08l-.03.02-.27-.42.03-.02c.1.1.21.16.32.18.11.02.21,0,.29-.05.06-.04.1-.09.12-.15.02-.06,0-.11-.02-.15-.02-.03-.04-.05-.07-.06-.03-.02-.06-.03-.11-.03-.04,0-.11,0-.21,0-.14.02-.23.02-.3.02-.07,0-.13-.02-.18-.05-.05-.03-.09-.07-.13-.12-.06-.09-.07-.19-.05-.29.03-.11.09-.19.19-.26.04-.02.08-.04.12-.06.03-.01.07-.02.12-.03.05,0,.08-.01.1-.02.01-.01.02-.02.02-.04,0-.01,0-.04-.02-.08l.02-.02Z"/>
      <path class="cls-4" d="m12.17,13.47l.2.31c.04.06.07.1.09.11.02.01.04.02.06.01.03,0,.06-.02.12-.05l.02.03-.57.37-.02-.03c.05-.03.08-.06.1-.08.01-.02.02-.04.01-.06,0-.02-.02-.06-.06-.12l-.47-.73c-.04-.06-.07-.1-.09-.11-.02-.01-.04-.02-.06-.01-.03,0-.06.02-.11.05l-.02-.03.49-.32c.16-.1.29-.15.4-.14.11.01.19.06.24.15.05.07.07.15.06.23-.01.08-.05.16-.12.23-.04.05-.13.11-.26.2Zm-.36-.55l.32.49s.03-.02.04-.02c.07-.05.11-.1.12-.16.01-.06-.01-.14-.06-.22-.05-.08-.11-.13-.17-.15-.06-.01-.13,0-.2.05l-.04.02Z"/>
      <path class="cls-4" d="m12.99,12.04c.17-.12.35-.16.54-.12.18.04.33.14.44.31.09.14.13.29.12.46-.02.22-.13.39-.33.52-.2.13-.4.17-.6.1-.16-.05-.28-.15-.38-.3-.11-.17-.14-.34-.1-.53.04-.18.15-.33.32-.43Zm.04.05c-.1.07-.15.17-.13.31.01.11.07.25.17.41.13.19.25.31.38.36.09.03.18.02.26-.03.06-.04.1-.08.12-.13.03-.07.03-.15,0-.24-.02-.09-.07-.2-.16-.33-.1-.15-.18-.25-.26-.31-.07-.05-.14-.08-.21-.09-.06,0-.12.02-.18.05Z"/>
      <path class="cls-4" d="m14.51,11.94l.21.32c.04.06.07.1.08.11.02.01.04.02.06.01.03,0,.06-.02.11-.05l.02.03-.57.37-.02-.03c.05-.04.08-.06.1-.08.01-.02.02-.04.01-.06,0-.02-.03-.06-.06-.12l-.47-.73c-.04-.06-.07-.1-.09-.11-.02-.01-.04-.01-.06-.01-.03,0-.06.02-.11.05l-.02-.03.52-.34c.14-.09.24-.14.32-.17.07-.02.15-.02.22,0,.07.02.13.07.17.14.05.08.07.17.04.26-.01.06-.05.12-.11.18l.52.21c.07.03.11.04.14.04.03,0,.07,0,.1-.02l.02.03-.35.23-.69-.28-.07.05Zm-.36-.55l.32.49.05-.03c.08-.05.13-.09.16-.13.03-.04.04-.08.04-.13,0-.05-.02-.1-.06-.16-.06-.09-.12-.13-.18-.15-.06-.02-.14,0-.23.06l-.09.06Z"/>
      <path class="cls-4" d="m15.89,10.17l.2.3-.03.02c-.06-.06-.12-.1-.16-.11-.04-.02-.09-.02-.14-.01-.03,0-.07.02-.12.05l-.08.06.56.86c.04.06.06.09.08.1.02.01.04.02.06.01.03,0,.06-.01.08-.03l.04-.03.02.03-.59.38-.02-.03.04-.02s.06-.05.07-.07c0-.01.01-.04,0-.06,0-.02-.02-.06-.06-.11l-.56-.87-.08.05c-.08.05-.12.1-.13.16-.02.07,0,.16.03.25l-.03.02-.2-.3,1.01-.65Z"/>
    </g>
  </g>
  <g>
    <path class="cls-2" d="m1.24,10.09l10.94,14.56.04.06.06-.03c.08-.04,7.78-4.25,10.64-7.25l.05-.05-.04-.05L11.96,2.69l-.05-.07-.06.05s-3.22,2.57-10.58,7.3l-.07.05.05.07ZM11.83,2.79l10.98,14.64v-.11c-2.83,2.98-10.52,7.17-10.59,7.21l.11.02L1.37,10l-.02.12C8.71,5.38,11.91,2.83,11.94,2.8l-.12-.02Z"/>
    <path class="cls-1" d="m2.88,11.62l-1.11-1.49,1.57-1.04s-1.34,1.11-.46,2.53Z"/>
    <path class="cls-14" d="m12.94,4.71l-1.12-1.49-1.51,1.1s1.51-.85,2.63.39Z"/>
    <path class="cls-12" d="m21.31,15.86l1.11,1.49-1.44,1.36s1.21-1.42.33-2.85Z"/>
    <path class="cls-13" d="m11.25,22.77l1.12,1.49,1.6-.95s-1.48.57-2.72-.54Z"/>
  </g>
</svg>