<?xml version="1.0" encoding="UTF-8"?>
<svg id="Layer_1" data-name="Layer 1" xmlns="http://www.w3.org/2000/svg" viewBox="0 0 98.6 65.11">
  <defs>
    <style>
      .cls-1 {
        fill: #027ebb;
      }

      .cls-2 {
        fill: #006c96;
      }

      .cls-3 {
        fill: #008fcc;
      }

      .cls-4 {
        fill: #69bce9;
      }

      .cls-5 {
        fill: #ebebeb;
      }

      .cls-6 {
        fill: #fff;
      }

      .cls-7 {
        fill: #efefef;
      }

      .cls-8 {
        fill: #b7b7b7;
      }

      .cls-9 {
        fill: #8ed1ef;
      }

      .cls-10 {
        fill: #666;
      }

      .cls-11 {
        fill: #8c8c8c;
      }

      .cls-12 {
        fill: #b0d5f1;
      }

      .cls-13 {
        fill: #b2b2b2;
      }

      .cls-14 {
        fill: #c9c9c9;
      }

      .cls-15 {
        fill: #dbdbdb;
      }

      .cls-16 {
        fill: #cae2f2;
      }

      .cls-17 {
        fill: #e1edf4;
      }

      .cls-18 {
        fill: #3f3f3f;
      }

      .cls-19 {
        fill: #069dd0;
      }

      .cls-20 {
        fill: #47a4dc;
      }
    </style>
  </defs>
  <g>
    <path class="cls-5" d="m90.26,35.9l8.34-12.85-9.66-2.83s-3.34,3.41-7.52,7.8c-4.19,4.39-9.56.75-9.56.75l.15.13L26.74,4.32h0S13.32-2.59,7.44,1.07C4.78.65,1.77,1.64.57,4c-1.04,2.03-.39,4.6.94,6.44,1.7,3.09,5.78,7.52,15.5,12.33l28.67,14.59c23.89,11.15,41.34,9.03,41.34,9.03l3.73-7.3c-2.13-1.34-.49-3.18-.49-3.18Z"/>
    <path class="cls-14" d="m90.26,35.9l8.34-12.85-9.66-2.83s-.06.06-.16.16l8.89,3.06-8.45,12.62s-.54,1.44.79,2.37c-.93-1.21.25-2.53.25-2.53Z"/>
    <path class="cls-14" d="m89.18,42.15c-11.86-1.99-44.2-16.23-44.2-16.23L5.18,5.68c.82-1.91.42-3.82.17-4.65-1,.11-1.97.42-2.79.91l.36,4.03,9.28,4.62,30.22,15.46,8.28,3.98,16.53,7,20.5,5.99.85.3.61-1.17Z"/>
    <path class="cls-15" d="m90.75,39.08c-1.03-.64-1.18-1.4-1.06-2.02l-11.56-7.07c-3.27.82-6.28-1.22-6.28-1.22l.15.13L26.74,4.32h0s-.01-.01-.02-.01h0s-.01,0-.03,0h0s-.02-.01-.03-.02h0s-.02-.01-.03-.02h0s-.03-.01-.04-.02h0s-.03-.02-.04-.02h0s-.04-.01-.05-.03h-.02s-.03-.02-.04-.02c0,0,0,0-.02-.01,0,0-.02-.01-.04-.02h-.01s-.04-.02-.05-.03h-.02s-.04-.03-.06-.03c0,0,0-.01-.02-.01-.01-.01-.02-.02-.03-.02-.07-.03-.13-.06-.21-.1h0c-1.37-.65-4.37-1.98-7.7-2.92l-10.83.06s10.02,9.43,17.24,6.97c0,0,1.28-.53,2.51-1.61,10.4,5.33,58.56,30.04,63.36,33.03l.2-.39Z"/>
    <path class="cls-20" d="m41.93,26.8c.41.21,30.32,14.84,46.47,16.87l.3-.6c-2.17-.62-26.77-7.74-45.08-17.1L4.47,5.93c.8-1.66.87-3.45.3-4.82-1.76.33-3.36,1.29-4.17,2.83h0s-.01.04-.02.05c-.02.04-.05.09-.06.13,0,.01-.01.02-.02.03-.02.04-.03.09-.06.13,0,0,0,.01-.01.02-.01.04-.03.09-.05.13,0,0,0,.02-.01.02-.02.04-.03.09-.05.14,0,0-.01.01-.01.02-.02.05-.04.09-.05.13H.26c-.01.06-.03.11-.04.15,0,.01,0,.02,0,.03-.01.05-.03.1-.03.15,0,0-.01.01-.01.02,0,.04-.02.08-.02.13,0,.01,0,.03,0,.03-.01.05-.02.1-.03.14,0,.01,0,.02,0,.04-.01.04-.02.08-.02.13v.02s-.01.1-.02.14v.04s0,.09,0,.15H.06c0,.06,0,.11,0,.15v.02s0,.1,0,.15c0,.01,0,.02,0,.03,0,.05,0,.1,0,.15H.06c0,.06,0,.12,0,.17v.03s0,.1.01.16H.08s0,.1.01.15c0,.01,0,.03,0,.03.01.05.01.1.02.15,0,0,0,.01,0,.03,0,.04.01.09.02.14,0,0,0,0,0,.02,0,.04.01.1.03.15v.03c.03.1.05.2.07.3,0,.01,0,.02.01.02.01.05.03.1.04.15,0,0,0,.01,0,.01.01.05.02.1.04.15h.01c.01.06.03.11.04.16,0,.01.01.02.01.02.03.1.06.2.1.3,0,0,0,.02.01.02.01.05.04.1.05.16h0s.04.1.06.15v.02c.03.05.05.1.08.15v.02s.05.09.07.14h0c.2.43.44.84.72,1.22,1.7,3.09,5.78,7.52,15.5,12.33l28.67,14.59c23.89,11.15,41.34,9.03,41.34,9.03l1-1.96c-3.66-.49-8.26-1.63-13.67-3.39-4.58-1.49-9.76-3.42-15.4-5.75-9.59-3.96-17.28-7.74-17.35-7.77h-.01S3.18,7.82,3.18,7.82c.18-.19.36-.41.52-.62l38.24,19.61Z"/>
    <path class="cls-14" d="m87.54,33.01l-7.44-3.89c-3.92,2.58-8.25-.35-8.25-.35l.15.13L26.78,4.35l-.05.58,45.69,24.51s14.52,7.6,18.23,9.82l.09-.19c-1.87-1.18-.83-2.74-.55-3.11l-2.66-2.96Z"/>
    <path class="cls-3" d="m26.74,4.32S13.32-2.59,7.44,1.07c0,0,10.46,7.59,15.32,6.72,0,0,2.98-.35,4.42-3.23l-.44-.24h0Z"/>
    <path class="cls-17" d="m7.96.78c2.89,2.49,9.87,5.69,9.87,5.69,5.64,2.53,8.39-1.17,8.96-2.12l-.05-.03h0S14.08-2.2,7.96.78Z"/>
    <path class="cls-16" d="m14.38,4.77l1.57-.77s1.59-1.21,2.5-2.93c-.49-.14-.97-.27-1.47-.39-1.23.47-4.73,1.53-7.85-.34-.41.12-.8.26-1.18.44,1.54,1.33,4.24,2.85,6.42,3.99Z"/>
    <path class="cls-6" d="m88.84,20.9l-7.32,7.58s-2.53,2.61-4.82,2.04c0,0,2.39,1.16,5.63-1.95,0,0,4.72-5.06,6.51-7.66Z"/>
    <path class="cls-12" d="m11.37,3.12c1.01.59,2.06,1.16,3.01,1.65l1.38-.67c.46-.3.93-.71,1.28-1.21,0,0-2.7,1.22-5.68.23Z"/>
    <path class="cls-16" d="m26.74,4.32h0s-.65-.33-1.72-.81c-1.53.83-5.45,2.55-8.81.45l-1.96.74c1.99,1.03,3.58,1.77,3.58,1.77,5.64,2.53,8.39-1.17,8.96-2.12l-.05-.03Z"/>
    <path class="cls-3" d="m18.29,1.02c-.6.99-2.46,3.68-5.12,3.59l.63.32s2.5.27,4.99-3.77c-.17-.05-.33-.09-.5-.14Z"/>
    <path class="cls-20" d="m88.94,20.21s-1.19,1.21-3.01,3.11l10.61,2.91,2.07-3.19-9.66-2.83Zm6.25,8.1l-11.13-3.06c-.82.86-1.71,1.79-2.65,2.76-2.12,2.22-4.55,2.38-6.42,2.01l14.67,7.51c-.07-.89.6-1.63.6-1.63l4.93-7.59Z"/>
    <path class="cls-1" d="m88.94,20.21s-.03.03-.09.09c-.02.02-.04.05-.07.07l8.89,3.06-1.75,2.63.62.17,2.07-3.19-9.66-2.83Zm1.28,15.74s.02-.02.02-.03h0s.01-.02.01-.02h0l4.93-7.59-.66-.18-5.31,7.92s-.22.58-.03,1.24l.47.24c-.06-.75.41-1.4.55-1.58h0Z"/>
    <path class="cls-7" d="m26.81,7.36s-4.69,5.93-17.46-4.17c0,0,10.94,10.96,17.46,4.17Z"/>
    <path class="cls-14" d="m11.41,3.84s9.99,7.63,14.65,2.53c0,0-3.14,6-14.65-2.53Z"/>
    <path class="cls-6" d="m6.27,1.56s.39,2.32-.38,3.86c-.79,1.54-.11.21-.11.21l38.98,19.69s34.93,14.69,43.28,16.14l.97-1.88-11.79-5.77-.89,1.75s-.12,1.08-2.63-.2L33.09,14.85s-.67-.25.01-1.76l.72-1.4-6.26-3.11S19.91,15.42,6.27,1.56Z"/>
    <path class="cls-3" d="m87.02,46.38l.24-.48c-20.54-1.08-39.97-9.67-39.97-9.67l-28.53-14.25C6.42,15.58,1.94,9.14,1.94,9.14-.12,5.46,1.75,2.89,3.17,1.62c-1.09.5-2.02,1.27-2.58,2.33h0s-.01.04-.02.05c-.02.04-.05.09-.06.13,0,.01-.01.02-.02.03-.02.04-.03.09-.06.13,0,0,0,.01-.01.02-.01.04-.03.09-.05.13,0,0,0,.02-.01.02-.02.04-.03.09-.05.14,0,0-.01.01-.01.02-.02.05-.04.09-.05.13H.26c-.01.06-.03.11-.04.15,0,.01,0,.02,0,.03-.01.05-.03.1-.03.15,0,0-.01.01-.01.02,0,.04-.02.08-.02.13,0,.01,0,.03,0,.03-.01.05-.02.1-.03.14,0,.01,0,.02,0,.04-.01.04-.02.08-.02.13v.02s-.01.1-.02.14v.04s0,.09,0,.15H.06c0,.06,0,.11,0,.15v.02s0,.1,0,.15c0,.01,0,.02,0,.03,0,.05,0,.1,0,.15H.06c0,.06,0,.12,0,.17v.03s0,.1.01.16H.08s0,.1.01.15c0,.01,0,.03,0,.03.01.05.01.1.02.15,0,0,0,.01,0,.03,0,.04.01.09.02.14,0,0,0,0,0,.02,0,.04.01.1.03.15v.03c.03.1.05.2.07.3,0,.01,0,.02.01.02.01.05.03.1.04.15,0,0,0,.01,0,.01.01.05.02.1.04.15h.01c.01.06.03.11.04.16,0,.01.01.02.01.02.03.1.06.2.1.3,0,0,0,.02.01.02.01.05.04.1.05.16h0s.04.1.06.15v.02c.03.05.05.1.08.15v.02s.05.09.07.14h0c.2.43.44.84.72,1.22,1.7,3.09,5.78,7.52,15.5,12.33l28.67,14.59c23.89,11.15,41.34,9.03,41.34,9.03Z"/>
    <path class="cls-4" d="m3.11,8.24l38.36,19.72s29.68,14.92,44.74,16.54c0,0-9.85,1.31-45.07-15.39,0,0-28.83-14.39-38.04-20.87Z"/>
    <path class="cls-2" d="m87.02,46.38c-19.32.73-41.05-9.19-41.05-9.19l-24.26-12.42C6.35,17.53,1.95,10.6,1.95,10.6-.71,7.54.35,4.62,1.29,3.09c-.3.32-.54.66-.75,1.06h0s-.01.03-.03.05c-.02.04-.05.09-.07.13,0,0,0,.02-.01.03-.02.05-.03.09-.06.13,0,.01,0,.02,0,.03-.02.04-.03.08-.05.12,0,0,0,.02-.01.02-.01.05-.03.1-.05.14,0,0-.01.02-.01.03-.01.04-.03.09-.05.13H.2c-.01.05-.02.1-.04.15,0,.01,0,.02,0,.03-.01.05-.02.1-.03.15H.12c-.01.06-.02.1-.03.15,0,.01,0,.02,0,.02,0,.05-.02.1-.03.14,0,.01,0,.03,0,.03-.01.04-.01.09-.02.14H.04c0,.06-.01.11-.01.15,0,.02,0,.03,0,.03,0,.05,0,.1,0,.15H0c0,.06,0,.11,0,.15.01,0,0,.02,0,.03,0,.05,0,.1,0,.14v.02c0,.05,0,.1,0,.15H0c0,.06,0,.11,0,.16.01,0,0,.02.01.03,0,.05,0,.1,0,.15H.03c0,.05.01.1.01.15,0,.01,0,.02,0,.03,0,.05,0,.1.02.15v.02c0,.05.01.1.02.15,0,0,0,0,0,.02,0,.05.01.09.03.15,0,0,0,.02,0,.02.02.1.05.21.07.31,0,0,0,.01,0,.02.01.05.03.11.04.15H.24c.01.07.03.11.05.17h0c.01.06.03.11.05.16,0,0,0,.02,0,.02.03.11.06.2.11.3,0,.01,0,.02,0,.02.02.05.04.1.06.15h0c.01.05.04.1.05.15v.02s.05.1.08.15c0,0,0,.02.01.02.01.05.04.1.06.15h0c.2.43.44.84.71,1.21,1.71,3.09,5.8,7.53,15.5,12.34l28.67,14.58c23.89,11.15,41.34,8.96,41.34,8.96l.06-.12Z"/>
    <path class="cls-6" d="m8.51.74s4.08-1.3,8.62.17c0,0-4.28-1.25-8.62-.17Z"/>
    <path class="cls-6" d="m17.88,1.39s-1.69,2.43-3.92,3c0,0,2.42-1,3.92-3Z"/>
    <path class="cls-6" d="m19.06,1.51s5.26,1.73,7.31,2.89c0,0-6.4-2.43-7.31-2.89Z"/>
    <path class="cls-6" d="m25.91,4.96s-2.55,4.13-8.83.87c0,0,5.58,2.83,8.83-.87Z"/>
    <path class="cls-9" d="m86.37,23.45l.39.1c.82-.97,1.56-1.91,2.08-2.65l-2.47,2.55Zm-4.85,5.02s-2.53,2.61-4.82,2.04c0,0,2.39,1.16,5.63-1.95,0,0,1.27-1.36,2.74-3.03l-.55-.15-3,3.1Z"/>
    <path class="cls-2" d="m28.21,21c-.16.33-.57.46-.89.29l-5.25-2.68c-.32-.17-.45-.57-.29-.9l5.23-10.21c.17-.32.57-.45.9-.29l5.24,2.68c.33.17.46.57.29.9l-5.23,10.21Zm5.44-10.1c.23-.44.05-.99-.39-1.21l-5.25-2.69c-.43-.23-.98-.05-1.21.4l-5.23,10.21c-.23.45-.05.99.39,1.21l5.24,2.69c.44.23.99.06,1.22-.39l5.22-10.21Z"/>
    <path class="cls-6" d="m33.73,11.07l-3.94,7.69s2.51-4.05,3.94-7.69Z"/>
    <path class="cls-6" d="m27.13,7.6l-3.84,7.52s2.03-3.19,3.84-7.52Z"/>
    <path class="cls-2" d="m27.18,4.56s-2.14,5.33-9.58,2.27c0,0,5.86,2.72,9.58-2.27Z"/>
    <path class="cls-2" d="m18.79,1.17s-1.43,2.85-4.3,3.72c0,0,2.39-.64,4.3-3.72Z"/>
    <path class="cls-10" d="m87.02,46.38l-1.47.11,4.23-8.45s.21.56.97,1.03l-3.73,7.3Z"/>
    <path class="cls-18" d="m86.28,46.43l.73-.06,3.73-7.3c-.2-.13-.37-.26-.5-.39l-3.96,7.75Z"/>
    <g>
      <g>
        <path class="cls-13" d="m35.96,15.8c-.16.32-.54.44-.86.27l-1.17-.59c-.32-.16-.44-.55-.27-.87l.94-1.85c.16-.31.55-.44.87-.28l1.16.6c.31.16.44.54.28.86l-.95,1.85Z"/>
        <path class="cls-19" d="m35.92,15.7c-.16.31-.54.43-.86.28l-1.17-.6c-.31-.16-.44-.55-.28-.87l.94-1.85c.16-.32.55-.45.87-.28l1.16.6c.32.16.44.54.27.86l-.94,1.85Z"/>
        <path class="cls-17" d="m35.83,15.48c-.14.27-.46.37-.74.24l-1-.52c-.27-.14-.38-.46-.24-.73l.82-1.6c.14-.27.46-.38.75-.24l1,.52c.27.13.37.47.24.74l-.81,1.59Z"/>
        <path class="cls-16" d="m36.61,13.34c-.38.31-1.76,1.34-2.79,1.17-.11.26.01.56.26.69l1,.52c.28.13.6.03.74-.24l.81-1.59c.09-.18.08-.38-.02-.55Z"/>
        <path class="cls-6" d="m35.91,12.98l-1.59.77s1.17-.51,1.59-.77Z"/>
        <path class="cls-6" d="m36.48,13.86l-1.5.91s1.31-.76,1.5-.91Z"/>
        <path class="cls-6" d="m35.38,13.99l-1.35.74s1.13-.58,1.35-.74Z"/>
      </g>
      <g>
        <path class="cls-13" d="m39.8,17.77c-.16.32-.55.44-.87.28l-1.16-.61c-.31-.16-.45-.55-.28-.86l.95-1.85c.16-.32.55-.44.86-.28l1.18.6c.31.16.44.55.27.87l-.94,1.84Z"/>
        <path class="cls-19" d="m39.77,17.66c-.16.32-.55.45-.86.28l-1.17-.6c-.32-.16-.43-.55-.27-.86l.94-1.85c.16-.31.55-.43.87-.28l1.17.6c.31.16.44.54.28.86l-.95,1.84Z"/>
        <path class="cls-17" d="m39.66,17.45c-.13.27-.46.38-.73.24l-1-.52c-.26-.13-.37-.47-.23-.74l.82-1.59c.13-.26.47-.37.74-.24l1,.51c.27.14.38.46.25.73l-.83,1.6Z"/>
        <path class="cls-16" d="m40.45,15.31c-.38.3-1.75,1.34-2.78,1.17-.1.26,0,.56.26.69l1,.52c.27.14.61.03.73-.24l.83-1.6c.09-.17.08-.39-.04-.54Z"/>
        <path class="cls-6" d="m39.76,14.95l-1.59.77s1.16-.51,1.59-.77Z"/>
        <path class="cls-6" d="m40.33,15.83l-1.5.91s1.32-.76,1.5-.91Z"/>
        <path class="cls-6" d="m39.23,15.95l-1.36.75s1.14-.58,1.36-.75Z"/>
      </g>
      <g>
        <path class="cls-13" d="m43.65,19.73c-.16.31-.55.44-.86.28l-1.17-.59c-.31-.16-.44-.55-.27-.86l.95-1.85c.15-.32.54-.44.86-.28l1.16.6c.32.15.45.55.29.86l-.95,1.85Z"/>
        <path class="cls-19" d="m43.61,19.63c-.16.31-.55.44-.87.27l-1.16-.59c-.31-.16-.44-.55-.28-.87l.95-1.84c.16-.32.55-.45.86-.29l1.17.6c.32.16.44.55.28.87l-.95,1.85Z"/>
        <path class="cls-17" d="m43.51,19.42c-.13.27-.47.37-.74.23l-1-.51c-.26-.14-.38-.47-.24-.74l.82-1.59c.14-.27.47-.38.74-.24l1.01.51c.27.14.37.48.23.75l-.82,1.59Z"/>
        <path class="cls-16" d="m44.31,17.28c-.38.3-1.75,1.34-2.79,1.17-.1.26.01.56.26.69l1,.51c.27.14.61.04.74-.23l.82-1.59c.09-.18.08-.39-.02-.55Z"/>
        <path class="cls-6" d="m43.61,16.92l-1.6.77s1.17-.51,1.6-.77Z"/>
        <path class="cls-6" d="m44.18,17.79l-1.5.91s1.32-.76,1.5-.91Z"/>
        <path class="cls-6" d="m43.07,17.92l-1.35.74s1.13-.58,1.35-.74Z"/>
      </g>
      <g>
        <path class="cls-13" d="m47.49,21.7c-.16.32-.54.45-.86.28l-1.16-.6c-.32-.16-.44-.54-.28-.86l.95-1.85c.16-.32.55-.44.86-.28l1.17.6c.32.16.44.54.28.86l-.96,1.85Z"/>
        <path class="cls-19" d="m47.46,21.6c-.16.32-.55.44-.86.28l-1.17-.6c-.32-.16-.44-.55-.27-.86l.94-1.86c.16-.31.55-.44.87-.28l1.16.6c.31.16.44.55.28.86l-.94,1.85Z"/>
        <path class="cls-17" d="m47.37,21.38c-.15.28-.47.38-.75.25l-1-.52c-.27-.14-.37-.47-.24-.74l.82-1.59c.14-.27.46-.38.74-.24l1,.52c.26.13.37.46.24.73l-.81,1.59Z"/>
        <path class="cls-16" d="m48.15,19.25c-.38.3-1.76,1.33-2.79,1.17-.1.26,0,.57.25.69l1,.52c.27.13.6.03.75-.25l.81-1.59c.09-.18.08-.39-.03-.54Z"/>
        <path class="cls-6" d="m47.45,18.89l-1.6.77s1.17-.51,1.6-.77Z"/>
        <path class="cls-6" d="m48.02,19.76l-1.5.92s1.31-.77,1.5-.92Z"/>
        <path class="cls-6" d="m46.92,19.89l-1.36.74s1.13-.58,1.36-.74Z"/>
      </g>
      <g>
        <path class="cls-13" d="m51.34,23.67c-.16.31-.54.44-.86.28l-1.17-.6c-.32-.16-.44-.55-.28-.86l.95-1.86c.16-.31.55-.43.86-.27l1.18.59c.31.16.43.55.27.87l-.94,1.85Z"/>
        <path class="cls-19" d="m51.31,23.56c-.16.31-.54.44-.86.28l-1.16-.59c-.32-.16-.44-.55-.29-.86l.96-1.85c.16-.31.55-.44.85-.28l1.17.6c.31.16.44.55.28.86l-.95,1.85Z"/>
        <path class="cls-17" d="m51.21,23.35c-.14.27-.46.37-.73.23l-1.01-.51c-.27-.14-.38-.47-.24-.74l.81-1.6c.13-.27.48-.37.74-.24l1,.51c.27.14.39.48.25.74l-.82,1.6Z"/>
        <path class="cls-16" d="m51.99,21.22c-.38.3-1.75,1.34-2.78,1.17-.1.26,0,.56.26.69l1.01.51c.27.14.59.04.73-.23l.82-1.6c.09-.18.06-.38-.04-.54Z"/>
        <path class="cls-6" d="m51.29,20.86l-1.58.77s1.16-.51,1.58-.77Z"/>
        <path class="cls-6" d="m51.87,21.73l-1.5.9s1.31-.76,1.5-.9Z"/>
        <path class="cls-6" d="m50.77,21.87l-1.36.74s1.14-.58,1.36-.74Z"/>
      </g>
      <g>
        <path class="cls-13" d="m55.19,25.64c-.16.31-.55.44-.86.28l-1.17-.6c-.32-.16-.44-.55-.27-.87l.94-1.84c.16-.32.55-.44.87-.28l1.16.6c.32.16.44.55.29.86l-.95,1.85Z"/>
        <path class="cls-19" d="m55.15,25.53c-.16.32-.54.44-.85.28l-1.18-.59c-.31-.16-.44-.55-.27-.86l.94-1.85c.16-.32.55-.44.86-.28l1.18.6c.31.16.43.55.27.87l-.95,1.85Z"/>
        <path class="cls-17" d="m55.06,25.33c-.14.26-.47.37-.74.23l-1-.51c-.27-.14-.38-.47-.24-.74l.82-1.59c.14-.27.46-.38.74-.24l1,.51c.28.13.37.46.24.73l-.81,1.6Z"/>
        <path class="cls-16" d="m55.84,23.18c-.38.3-1.75,1.33-2.79,1.17-.1.26.01.55.26.69l1,.51c.27.14.6.03.74-.23l.81-1.6c.1-.18.08-.39-.03-.54Z"/>
        <path class="cls-6" d="m55.15,22.83l-1.6.76s1.17-.51,1.6-.76Z"/>
        <path class="cls-6" d="m55.71,23.7l-1.5.91s1.31-.77,1.5-.91Z"/>
        <path class="cls-6" d="m54.62,23.83l-1.36.74s1.13-.58,1.36-.74Z"/>
      </g>
      <g>
        <path class="cls-13" d="m59.04,27.61c-.16.31-.55.44-.87.27l-1.16-.6c-.32-.16-.44-.55-.29-.86l.95-1.86c.16-.31.55-.44.86-.27l1.18.59c.31.16.43.54.27.86l-.94,1.85Z"/>
        <path class="cls-19" d="m59,27.5c-.16.31-.55.44-.86.28l-1.16-.59c-.32-.16-.44-.55-.28-.87l.94-1.85c.16-.31.55-.44.87-.28l1.16.59c.32.16.44.55.28.86l-.95,1.86Z"/>
        <path class="cls-17" d="m58.9,27.29c-.13.27-.47.37-.74.24l-1-.51c-.26-.14-.37-.47-.24-.74l.82-1.6c.14-.27.47-.37.74-.23l1,.51c.27.14.37.47.25.74l-.82,1.59Z"/>
        <path class="cls-16" d="m59.69,25.15c-.38.3-1.75,1.33-2.79,1.18-.1.26,0,.56.26.69l1,.51c.27.14.61.03.74-.24l.82-1.59c.08-.18.07-.39-.04-.55Z"/>
        <path class="cls-6" d="m58.99,24.79l-1.6.77s1.17-.51,1.6-.77Z"/>
        <path class="cls-6" d="m59.55,25.67l-1.5.9s1.32-.76,1.5-.9Z"/>
        <path class="cls-6" d="m58.45,25.8l-1.35.75s1.13-.58,1.35-.75Z"/>
      </g>
      <g>
        <path class="cls-13" d="m62.88,29.58c-.16.31-.54.43-.86.28l-1.17-.6c-.31-.16-.44-.55-.28-.86l.94-1.85c.16-.32.55-.45.87-.28l1.17.61c.31.16.44.55.28.86l-.95,1.85Z"/>
        <path class="cls-19" d="m62.85,29.47c-.16.32-.55.44-.87.28l-1.16-.6c-.31-.16-.44-.54-.28-.86l.95-1.85c.16-.32.55-.44.87-.28l1.17.6c.31.16.44.55.27.87l-.94,1.84Z"/>
        <path class="cls-17" d="m62.74,29.25c-.13.27-.46.38-.73.24l-1.01-.52c-.27-.13-.38-.46-.23-.73l.81-1.59c.14-.27.48-.38.74-.24l1,.51c.27.14.37.47.24.74l-.82,1.59Z"/>
        <path class="cls-16" d="m63.54,27.12c-.38.3-1.77,1.33-2.79,1.17-.1.26.01.55.26.68l1.01.52c.27.14.6.03.73-.24l.82-1.59c.09-.18.07-.39-.03-.54Z"/>
        <path class="cls-6" d="m62.84,26.76l-1.59.76s1.16-.51,1.59-.76Z"/>
        <path class="cls-6" d="m63.4,27.63l-1.5.9s1.31-.76,1.5-.9Z"/>
        <path class="cls-6" d="m62.31,27.77l-1.35.74s1.13-.58,1.35-.74Z"/>
      </g>
      <g>
        <path class="cls-13" d="m66.72,31.54c-.16.32-.54.45-.86.29l-1.16-.6c-.32-.16-.44-.55-.29-.87l.95-1.85c.16-.31.55-.43.86-.27l1.16.59c.32.16.44.55.28.87l-.95,1.84Z"/>
        <path class="cls-19" d="m66.69,31.44c-.16.31-.55.44-.87.28l-1.17-.6c-.32-.15-.43-.55-.27-.86l.94-1.85c.16-.31.55-.44.86-.28l1.18.59c.31.16.44.55.27.86l-.94,1.85Z"/>
        <path class="cls-17" d="m66.6,31.23c-.15.27-.47.37-.75.23l-1.01-.51c-.26-.14-.37-.47-.23-.74l.82-1.6c.13-.27.46-.37.73-.23l1,.51c.27.14.38.47.24.74l-.81,1.59Z"/>
        <path class="cls-16" d="m67.39,29.08c-.38.3-1.76,1.34-2.79,1.17-.1.27,0,.57.25.7l1.01.51c.28.14.6.04.75-.23l.81-1.59c.09-.18.08-.39-.02-.55Z"/>
        <path class="cls-6" d="m66.69,28.72l-1.6.77s1.17-.5,1.6-.77Z"/>
        <path class="cls-6" d="m67.25,29.6l-1.5.91s1.31-.76,1.5-.91Z"/>
        <path class="cls-6" d="m66.15,29.73l-1.36.74s1.13-.57,1.36-.74Z"/>
      </g>
      <g>
        <path class="cls-13" d="m70.57,33.52c-.16.31-.55.44-.86.27l-1.18-.59c-.31-.16-.44-.55-.27-.87l.94-1.85c.16-.31.55-.44.87-.28l1.17.6c.31.16.43.55.27.86l-.95,1.86Z"/>
        <path class="cls-19" d="m70.54,33.41c-.16.31-.54.44-.86.28l-1.17-.6c-.31-.16-.44-.55-.28-.86l.95-1.85c.16-.32.55-.44.86-.28l1.17.61c.31.16.44.55.28.86l-.95,1.85Z"/>
        <path class="cls-17" d="m70.44,33.19c-.14.27-.47.37-.74.24l-1-.52c-.28-.13-.39-.46-.25-.73l.81-1.6c.14-.27.47-.38.74-.24l1,.52c.27.14.37.47.24.74l-.82,1.59Z"/>
        <path class="cls-16" d="m71.22,31.06c-.38.3-1.76,1.33-2.78,1.17-.11.26,0,.56.26.69l1,.52c.27.13.59.03.74-.24l.82-1.59c.09-.18.07-.39-.04-.54Z"/>
        <path class="cls-6" d="m70.53,30.7l-1.59.76s1.16-.51,1.59-.76Z"/>
        <path class="cls-6" d="m71.1,31.57l-1.51.91s1.33-.76,1.51-.91Z"/>
        <path class="cls-6" d="m69.99,31.7l-1.35.74s1.13-.58,1.35-.74Z"/>
      </g>
      <g>
        <path class="cls-13" d="m74.42,35.48c-.16.32-.55.45-.87.29l-1.16-.6c-.31-.16-.44-.55-.27-.86l.94-1.85c.16-.32.55-.44.87-.28l1.16.6c.32.16.44.55.27.87l-.94,1.84Z"/>
        <path class="cls-19" d="m74.38,35.37c-.15.32-.55.45-.86.29l-1.18-.6c-.31-.16-.44-.55-.27-.86l.94-1.85c.16-.32.55-.44.87-.28l1.17.59c.31.16.45.55.28.86l-.95,1.85Z"/>
        <path class="cls-17" d="m74.29,35.16c-.13.27-.47.38-.74.24l-1.01-.51c-.27-.14-.37-.48-.23-.74l.82-1.59c.14-.27.47-.37.74-.23l1,.51c.27.14.38.47.25.73l-.82,1.6Z"/>
        <path class="cls-16" d="m75.07,33.02c-.37.3-1.75,1.34-2.79,1.17-.1.26.01.56.26.7l1.01.51c.27.14.61.03.74-.24l.82-1.6c.09-.17.07-.39-.04-.54Z"/>
        <path class="cls-6" d="m74.38,32.66l-1.59.76s1.16-.51,1.59-.76Z"/>
        <path class="cls-6" d="m74.94,33.54l-1.5.91s1.32-.76,1.5-.91Z"/>
        <path class="cls-6" d="m73.84,33.67l-1.35.75s1.13-.58,1.35-.75Z"/>
      </g>
    </g>
  </g>
  <g>
    <g>
      <g>
        <path class="cls-15" d="m46.91,38.82c-1.05-1.61-4.87-4.47-5.47-4.91-.03-.02-.05-.04-.08-.06-.61-.36-1.73.64-2.52,2.23-.79,1.6-.94,3.18-.33,3.54,2.79,2.11,6.8,2.45,6.8,2.45.34.21.97-.35,1.41-1.25.45-.9.52-1.79.19-2Z"/>
        <path class="cls-7" d="m39.12,35.53l7.75,4.94c.11-.28.18-.55.22-.8l-6.67-5.65c-.42.29-.89.82-1.3,1.5Z"/>
        <path class="cls-8" d="m46.09,41.74c-2.26-.05-6.56-2.44-7.96-3.25-.03.55.09.96.37,1.13,2.79,2.11,6.8,2.45,6.8,2.45.2.12.5-.01.79-.33Z"/>
        <path class="cls-19" d="m41.67,34.07c-.53.27-2.94,1.67-3.06,5.62.27.2.55.39.85.55.03-1.07.34-4,2.95-5.6-.31-.24-.56-.44-.74-.57Zm5.07,4.52c-.14-.2-.32-.4-.53-.63.3,2.4-1.12,3.59-1.76,3.99.26.04.46.08.61.09,1.68-1.29,1.76-2.78,1.68-3.46Z"/>
        <path class="cls-1" d="m44.96,41.57c-.19.17-.36.29-.51.38h.01c.09.01.17.03.26.04h0s.05.01.07.01h.01s.04.01.06.01h.01s.04,0,.06.01h0s.03,0,.05,0h0s.04,0,.05.01c0,0,0,0,0,0,.16-.12.3-.24.43-.37-.17-.03-.35-.06-.53-.11Zm-6.28-2.78c-.03.29-.06.58-.07.9h0s.06.05.09.06c.01,0,.02.02.03.02.03.02.05.04.08.06.01.01.02.02.04.02.06.04.11.09.17.12h.01s.04.03.06.05c.02,0,.04.02.06.04.02,0,.04.02.06.03.03.02.05.03.07.05.01,0,.03.01.05.03.04.02.09.04.12.07,0-.24.03-.58.08-.97-.32-.17-.61-.33-.86-.47Z"/>
        <path class="cls-4" d="m46.73,39.37l-.49-.42c-.03.36-.11.7-.21,1l.46.29c.13-.31.21-.61.24-.87Zm-7.03-3.48l.86.55c.3-.47.68-.92,1.17-1.32l-.75-.63c-.39.29-.86.74-1.28,1.39Z"/>
      </g>
      <path class="cls-15" d="m43.34,34.45s.11.75-.57.49c0,0,1.64,1.36,2.33,1.95,0,0,.36-.98.93-.77l-2.69-1.66Z"/>
    </g>
    <path class="cls-11" d="m46.21,37.96s-.98-1.02-1.1-1.08c0,0,.26-.72.66-.77l-2.25-1.45s1.33,1.16,1.84,1.41c0,0-.4.53-.35.8,0,0,1.1.9,1.19,1.1l.02-.02Z"/>
  </g>
  <path class="cls-4" d="m4.61,1.5s1.03,2.83-2.17,6.48c0,0,2.71-4.44,2.17-6.48Z"/>
  <g>
    <path class="cls-6" d="m63.39,37.04l-25.42-11.79c-.43-.2-.83-.12-.91.18l-.06.21c-.07.3,14.13,34.41,28.24,39.47.43.21-1.34-26.67-1.26-26.95l.04-.22c.08-.3-.21-.7-.64-.9Z"/>
    <path class="cls-5" d="m64.85,62.83c-12.2-4.38-24.47-30.49-27.52-37.65-.13.04-.24.12-.26.25l-.06.21c-.07.3,14.13,34.41,28.24,39.47.43.21-1.34-26.67-1.26-26.95l.04-.22c.06-.23-.11-.53-.39-.74.29,5.45,1.58,25.8,1.21,25.63Z"/>
    <path class="cls-14" d="m63.8,38.37c.1-.05.16-.12.19-.22l.04-.22c.08-.3-.21-.7-.64-.9l-25.42-11.79c-.38-.17-.74-.14-.87.08.38.04.92.18,1.76.57l23.77,11.14s1.1.46,1.17,1.33Z"/>
    <path class="cls-14" d="m63.91,49.6s1.61-11.05-26.19-24c0,0,17.14,7.91,24.16,11.43.61.3,1.13.65,1.58.93l.45,11.64Z"/>
  </g>
</svg>