<?xml version="1.0" encoding="utf-8"?>
<!-- Generator: Adobe Illustrator 27.2.0, SVG Export Plug-In . SVG Version: 6.00 Build 0)  -->
<svg version="1.1" id="Lower" xmlns="http://www.w3.org/2000/svg" xmlns:xlink="http://www.w3.org/1999/xlink" x="0px" y="0px"
	 viewBox="0 0 300 250" style="enable-background:new 0 0 300 250;" xml:space="preserve">
<style type="text/css">
	.st0{clip-path:url(#SVGID_00000042710544894657378780000016292199984429877926_);}
	.st1{clip-path:url(#SVGID_00000023264297737370730790000015319986100159300229_);}
	.st2{clip-path:url(#SVGID_00000121264701061193706420000010636045349218405767_);}
	.st3{fill:url(#SVGID_00000122704922176068861640000005610115501384656770_);}
	.st4{fill:#FFC068;}
	.st5{fill:#FFFFFF;}
	.st6{fill:#9EB072;}
	.st7{fill:url(#SVGID_00000136408057037183034330000001372408881582612386_);}
	.st8{fill:#3E83B9;}
	.st9{fill:none;}
	.st10{fill:#8DA65E;}
	.st11{fill:#FFD17C;}
	.st12{fill:#FAAB19;}
	.st13{fill:url(#SVGID_00000168815491706168826580000007481977822919225758_);}
	.st14{fill:none;stroke:#FFFFFF;stroke-width:1.44;stroke-miterlimit:10;}
</style>
<g>
	<defs>
		<rect id="SVGID_1_" x="-0.1" y="0" width="300" height="250"/>
	</defs>
	<clipPath id="SVGID_00000054262674345220479070000003199958670087910591_">
		<use xlink:href="#SVGID_1_"  style="overflow:visible;"/>
	</clipPath>
	<g style="clip-path:url(#SVGID_00000054262674345220479070000003199958670087910591_);">
		<defs>
			<rect id="SVGID_00000093156965105047987730000016262863007709012359_" x="-0.1" y="0.3" width="300" height="250"/>
		</defs>
		<clipPath id="SVGID_00000171717685836209457040000000495889463445758597_">
			<use xlink:href="#SVGID_00000093156965105047987730000016262863007709012359_"  style="overflow:visible;"/>
		</clipPath>
		<g style="clip-path:url(#SVGID_00000171717685836209457040000000495889463445758597_);">
			<g>
				<defs>
					<rect id="SVGID_00000151539977854767429670000016671974979853330333_" x="-0.1" y="0.3" width="300" height="250"/>
				</defs>
				<clipPath id="SVGID_00000055700768634996180140000006371944571913310910_">
					<use xlink:href="#SVGID_00000151539977854767429670000016671974979853330333_"  style="overflow:visible;"/>
				</clipPath>
				<g style="clip-path:url(#SVGID_00000055700768634996180140000006371944571913310910_);">
					
						<linearGradient id="SVGID_00000009570032779039499010000012720594950193851787_" gradientUnits="userSpaceOnUse" x1="148.185" y1="0.8501" x2="148.185" y2="448.0401" gradientTransform="matrix(1 0 0 -1 0 448)">
						<stop  offset="0" style="stop-color:#FAAB19"/>
						<stop  offset="0" style="stop-color:#FAAD20"/>
						<stop  offset="8.000000e-02" style="stop-color:#FBC55C"/>
						<stop  offset="0.15" style="stop-color:#FCD88E"/>
						<stop  offset="0.22" style="stop-color:#FDE8B5"/>
						<stop  offset="0.28" style="stop-color:#FEF3D1"/>
						<stop  offset="0.33" style="stop-color:#FEF9E2"/>
						<stop  offset="0.37" style="stop-color:#FFFCE8"/>
						<stop  offset="0.42" style="stop-color:#F6F8E7"/>
						<stop  offset="0.51" style="stop-color:#DEF0E4"/>
						<stop  offset="0.62" style="stop-color:#B8E3DF"/>
						<stop  offset="0.74" style="stop-color:#83D0D9"/>
						<stop  offset="0.88" style="stop-color:#3FB8D2"/>
						<stop  offset="1" style="stop-color:#00A2CB"/>
					</linearGradient>
					
						<rect x="-28.5" y="0.3" style="fill:url(#SVGID_00000009570032779039499010000012720594950193851787_);" width="353.4" height="445.9"/>
					<path class="st4" d="M229.9,27.7c0,7.3-6,13.3-13.3,13.3s-13.3-6-13.3-13.3s6-13.3,13.3-13.3S229.9,20.4,229.9,27.7z"/>
					<g>
						<g>
							<path class="st5" d="M177.5,16.3c0.2-0.1,0.5-0.1,0.7-0.2c-0.1-0.1-0.1-0.1-0.1-0.2c-0.2-0.5,0.2-1.1,0.8-1.3
								c0.1,0,0.2-0.1,0.2-0.1c0.1-0.6,0.7-1.3,1.6-1.7c0.9-0.4,1.9-0.3,2.4,0.1c0.3-0.2,0.6-0.4,1-0.6c1.5-0.6,3-0.3,3.5,0.8
								c0.4,1.1-0.4,2.4-1.9,3.1c-0.2,0.1-0.5,0.2-0.8,0.2c-0.3,0.5-0.8,1-1.5,1.3c-0.9,0.4-1.9,0.3-2.5-0.1
								c-0.2,0.2-0.5,0.4-0.8,0.5c-0.5,0.2-1,0.3-1.5,0.1c-0.1,0-0.1,0.1-0.2,0.1c-0.8,0.4-1.7,0.2-2-0.4
								C176.2,17.5,176.7,16.7,177.5,16.3L177.5,16.3z"/>
							<path class="st5" d="M111.1,28.7c0.2,0,0.5,0,0.7,0c-0.1-0.1-0.1-0.2-0.1-0.2c-0.1-0.5,0.4-1,1.1-1.1c0.1,0,0.2,0,0.3,0
								c0.3-0.6,1-1.1,1.9-1.2c1-0.2,1.9,0.1,2.3,0.7c0.3-0.2,0.7-0.3,1.1-0.3c1.6-0.2,3,0.5,3.2,1.6c0.2,1.1-1,2.3-2.6,2.5
								c-0.3,0-0.5,0.1-0.8,0c-0.4,0.5-1,0.8-1.8,0.9c-1,0.2-1.9-0.1-2.4-0.7c-0.3,0.2-0.6,0.3-0.9,0.3c-0.6,0.1-1.1,0-1.5-0.2
								c-0.1,0-0.1,0-0.2,0c-0.9,0.1-1.7-0.3-1.8-0.9C109.5,29.5,110.2,28.8,111.1,28.7L111.1,28.7z"/>
							<path class="st5" d="M100.2,41.4c0.5-0.1,0.9-0.2,1.3-0.1c-0.1-0.1-0.2-0.3-0.2-0.5c-0.2-0.9,0.6-1.9,1.9-2.2
								c0.2,0,0.3-0.1,0.5-0.1c0.5-1.2,1.7-2.2,3.4-2.7c1.8-0.5,3.6-0.1,4.5,0.9c0.6-0.4,1.3-0.7,2-0.8c2.9-0.8,5.8,0.3,6.3,2.4
								c0.5,2.1-1.4,4.4-4.4,5.2c-0.5,0.1-1,0.2-1.5,0.2c-0.6,0.9-1.8,1.7-3.2,2.1c-1.9,0.5-3.7,0.1-4.7-0.9
								c-0.5,0.3-1.1,0.6-1.7,0.8c-1,0.3-2,0.2-2.8-0.1c-0.1,0-0.3,0.1-0.4,0.1c-1.7,0.4-3.2-0.2-3.6-1.4
								C97.4,43.1,98.5,41.8,100.2,41.4L100.2,41.4z"/>
							<path class="st5" d="M24.9,59.9c0.5,0,0.9,0,1.3,0.1c-0.1-0.2-0.1-0.3-0.1-0.5c-0.1-0.9,1-1.8,2.3-1.8c0.2,0,0.3,0,0.5,0
								c0.7-1.1,2.1-1.9,3.9-2c1.9-0.1,3.5,0.6,4.3,1.8c0.7-0.2,1.4-0.4,2.1-0.4c3-0.2,5.6,1.4,5.7,3.6c0.1,2.2-2.2,4.1-5.2,4.3
								c-0.5,0-1,0-1.5-0.1c-0.8,0.8-2.1,1.3-3.5,1.4c-1.9,0.1-3.6-0.6-4.4-1.8c-0.5,0.3-1.2,0.4-1.8,0.5c-1.1,0.1-2-0.2-2.7-0.7
								c-0.1,0-0.3,0-0.4,0.1c-1.7,0.1-3.2-0.8-3.2-2C21.9,61.1,23.2,60,24.9,59.9L24.9,59.9z"/>
							<path class="st5" d="M71.2,58.5c0.2,0,0.5,0,0.7,0c-0.1-0.1-0.1-0.2-0.1-0.2c-0.1-0.5,0.4-1,1.1-1.1c0.1,0,0.2,0,0.3,0
								c0.3-0.6,1-1.1,1.9-1.2c1-0.2,1.9,0.1,2.3,0.7c0.3-0.2,0.7-0.3,1.1-0.3c1.6-0.2,3,0.5,3.2,1.6s-1,2.3-2.6,2.5
								c-0.3,0-0.5,0.1-0.8,0c-0.4,0.5-1,0.8-1.8,0.9c-1,0.2-1.9-0.1-2.4-0.7c-0.3,0.2-0.6,0.3-0.9,0.3c-0.6,0.1-1.1,0-1.5-0.2
								c-0.1,0-0.1,0-0.2,0c-0.9,0.1-1.7-0.3-1.8-0.9C69.7,59.3,70.3,58.6,71.2,58.5L71.2,58.5z"/>
							<path class="st5" d="M51.8,53.6c0.2,0,0.5,0.1,0.7,0.1c0-0.1-0.1-0.2,0-0.3c0-0.5,0.6-0.9,1.3-0.8c0.1,0,0.2,0,0.3,0
								c0.4-0.5,1.2-0.9,2.1-0.8c1,0,1.8,0.5,2.1,1.2c0.3-0.1,0.7-0.1,1.1-0.1c1.6,0.1,2.9,1.1,2.8,2.2c-0.1,1.2-1.4,2-3,2
								c-0.3,0-0.5,0-0.8-0.1c-0.5,0.4-1.2,0.6-1.9,0.6c-1,0-1.9-0.5-2.2-1.2c-0.3,0.1-0.6,0.2-1,0.1c-0.6,0-1.1-0.2-1.4-0.5
								c-0.1,0-0.2,0-0.2,0c-0.9,0-1.6-0.6-1.6-1.2C50.1,54,50.8,53.6,51.8,53.6z"/>
							<path class="st5" d="M41.6,52.8c0.2,0,0.5,0.1,0.7,0.1c0-0.1-0.1-0.2,0-0.3c0-0.5,0.6-0.9,1.3-0.8c0.1,0,0.2,0,0.3,0
								c0.4-0.5,1.2-0.9,2.1-0.8c1,0,1.8,0.5,2.1,1.2c0.3-0.1,0.7-0.1,1.1-0.1c1.6,0.1,2.9,1.1,2.8,2.2c-0.1,1.2-1.4,2-3,2
								c-0.3,0-0.5,0-0.8-0.1c-0.5,0.4-1.2,0.6-1.9,0.6c-1,0-1.9-0.5-2.2-1.2c-0.3,0.1-0.6,0.2-1,0.1c-0.6,0-1.1-0.2-1.4-0.5
								c-0.1,0-0.2,0-0.2,0c-0.9,0-1.6-0.6-1.6-1.2C40,53.3,40.7,52.8,41.6,52.8L41.6,52.8z"/>
							<path class="st5" d="M261.2,20.2c0.5-0.1,1.1-0.2,1.6-0.2c-0.1-0.2-0.2-0.3-0.3-0.5c-0.3-1.1,0.7-2.3,2.2-2.7
								c0.2,0,0.4-0.1,0.6-0.1c0.5-1.4,2-2.7,4-3.2c2.1-0.6,4.2-0.1,5.3,1c0.7-0.4,1.5-0.8,2.4-1c3.5-0.9,6.8,0.4,7.5,2.8
								s-1.6,5.2-5.1,6.2c-0.6,0.2-1.2,0.2-1.8,0.3c-0.8,1.1-2.1,2-3.7,2.5c-2.2,0.6-4.4,0.1-5.5-1c-0.5,0.4-1.2,0.8-2,1
								c-1.2,0.3-2.4,0.2-3.3-0.1c-0.1,0.1-0.3,0.1-0.5,0.1c-2,0.5-3.8-0.2-4.2-1.6S259.3,20.7,261.2,20.2L261.2,20.2z"/>
							<path class="st5" d="M158.9,22.2c-0.2-1.7-1.9-2.8-3.9-2.6c-0.5,0-1,0.2-1.4,0.4c-0.5-0.9-1.7-1.4-2.9-1.2
								c-1.1,0.1-2.1,0.8-2.5,1.6c-0.1,0-0.2,0-0.3,0c0.5-1,0.6-2.1,0-3c-0.9-1.4-3-1.6-4.7-0.5c-0.4,0.3-0.8,0.6-1.1,1
								c-0.9-0.5-2.1-0.5-3.1,0.2c-1,0.6-1.5,1.6-1.5,2.6c-0.1,0-0.2,0.1-0.3,0.1c-0.7,0.5-1,1.4-0.6,2c0.1,0.1,0.2,0.2,0.3,0.3
								c-0.3,0.1-0.6,0.2-0.8,0.3c-0.8,0.5-1.2,1.4-0.9,2.2c-0.1,0-0.2,0-0.2,0c-0.4,0.1-0.7,0.2-1,0.4c-0.5-0.6-1.4-0.9-2.3-0.7
								c-0.8,0.2-1.5,0.8-1.7,1.4c-0.1,0-0.2,0-0.2,0c-0.6,0.1-1.1,0.7-0.9,1.2c0,0.1,0.1,0.2,0.1,0.3c-0.2,0-0.4,0-0.7,0
								c-0.8,0.2-1.4,0.9-1.2,1.6s0.9,1.1,1.8,0.9c0.1,0,0.1,0,0.2-0.1c0.4,0.2,0.9,0.3,1.4,0.2c0.3-0.1,0.6-0.2,0.9-0.4
								c0.5,0.6,1.4,0.9,2.4,0.7c0.7-0.2,1.3-0.6,1.6-1.1c0.2,0,0.5,0,0.8-0.1c0.9-0.2,1.5-0.7,1.9-1.3c0.1,0,0.3,0,0.5,0
								c0.1,0,0.2,0,0.3,0c0.5,0.3,1.1,0.5,1.8,0.4c0.4,0,0.8-0.2,1.2-0.4c0.6,0.9,1.7,1.4,3,1.3c0.9-0.1,1.8-0.6,2.3-1.2
								c0.3,0,0.7,0,1,0c1.4-0.2,2.6-1,3-2c0.5,0.1,1,0.2,1.5,0.2c0.9-0.1,1.8-0.6,2.3-1.2c0.3,0,0.7,0,1,0
								C157.6,25.4,159.1,23.8,158.9,22.2L158.9,22.2z"/>
							<path class="st5" d="M116.8,62c0-1.7-1.6-3.1-3.6-3.1c-0.5,0-1,0.1-1.4,0.2c-0.4-0.9-1.5-1.6-2.7-1.6c-1.1,0-2.1,0.5-2.6,1.3
								c-0.1,0-0.2,0-0.3,0c0.7-0.9,0.8-2,0.4-3c-0.7-1.5-2.8-2-4.6-1.1c-0.4,0.2-0.9,0.5-1.2,0.8c-0.8-0.6-2-0.7-3.2-0.2
								c-1,0.5-1.7,1.4-1.8,2.4c-0.1,0-0.2,0.1-0.3,0.1c-0.8,0.4-1.2,1.2-0.8,1.9c0.1,0.1,0.1,0.2,0.2,0.3c-0.3,0-0.6,0.1-0.9,0.2
								c-0.9,0.4-1.3,1.3-1.2,2c-0.1,0-0.2,0-0.2,0c-0.4,0-0.7,0.1-1,0.3c-0.4-0.7-1.2-1-2.2-1c-0.9,0.1-1.6,0.6-1.9,1.2
								c-0.1,0-0.2,0-0.2,0c-0.7,0.1-1.1,0.5-1.1,1.1c0,0.1,0,0.2,0.1,0.3C86,64,85.8,64,85.5,64c-0.8,0.1-1.5,0.7-1.4,1.4
								c0.1,0.7,0.8,1.2,1.7,1.1c0.1,0,0.1,0,0.2,0c0.4,0.3,0.8,0.4,1.4,0.3c0.3,0,0.6-0.1,0.9-0.3c0.4,0.7,1.3,1.1,2.2,1
								c0.7-0.1,1.3-0.4,1.7-0.9c0.2,0,0.5,0,0.8,0c0.9-0.1,1.6-0.5,2.1-1.1c0.2,0,0.3,0.1,0.4,0.1c0.1,0,0.2,0,0.3,0
								c0.4,0.4,1.1,0.7,1.8,0.7c0.4,0,0.9-0.1,1.2-0.2c0.4,0.9,1.5,1.6,2.8,1.6c1,0,1.8-0.3,2.4-0.9c0.3,0.1,0.6,0.1,1,0.1
								c1.4,0,2.6-0.6,3.3-1.6c0.4,0.2,0.9,0.3,1.5,0.3c1,0,1.8-0.3,2.4-0.9c0.3,0.1,0.6,0.1,1,0.1C115.1,65,116.7,63.6,116.8,62
								L116.8,62z"/>
							<path class="st5" d="M281.4,41c-0.3-1.6-2.2-2.6-4.2-2.2c-0.5,0.1-1,0.3-1.3,0.5c-0.6-0.8-1.8-1.2-3-1c-1.1,0.2-2,1-2.3,1.8
								c-0.1,0-0.2,0-0.3,0c0.4-1,0.4-2.2-0.3-3c-1-1.3-3.2-1.3-4.7-0.1c-0.4,0.3-0.7,0.7-1,1.1c-0.9-0.4-2.1-0.3-3.1,0.5
								c-0.9,0.7-1.3,1.8-1.2,2.7c-0.1,0-0.2,0.1-0.3,0.2c-0.7,0.5-0.9,1.4-0.4,2c0.1,0.1,0.2,0.2,0.3,0.2c-0.3,0.1-0.5,0.2-0.8,0.4
								c-0.7,0.6-1,1.5-0.7,2.2c-0.1,0-0.1,0-0.2,0.1c-0.4,0.1-0.7,0.3-1,0.5c-0.5-0.5-1.4-0.8-2.3-0.5c-0.8,0.3-1.4,0.9-1.6,1.6
								c-0.1,0-0.2,0-0.2,0c-0.6,0.2-1,0.8-0.8,1.3c0,0.1,0.1,0.2,0.1,0.2c-0.2,0-0.4,0-0.7,0.1c-0.8,0.3-1.3,1-1.1,1.7
								c0.2,0.7,1.1,1,1.9,0.7c0.1,0,0.1,0,0.2-0.1c0.4,0.2,0.9,0.2,1.4,0c0.3-0.1,0.6-0.3,0.8-0.5c0.5,0.5,1.5,0.8,2.4,0.5
								c0.7-0.2,1.2-0.7,1.5-1.2c0.2,0,0.5-0.1,0.7-0.2c0.8-0.3,1.5-0.8,1.8-1.5c0.1,0,0.3,0,0.5,0c0.1,0,0.2,0,0.3-0.1
								c0.5,0.3,1.2,0.4,1.9,0.3c0.4-0.1,0.8-0.3,1.1-0.5c0.6,0.8,1.9,1.2,3.1,1c0.9-0.2,1.7-0.7,2.1-1.4c0.3,0,0.7,0,1-0.1
								c1.4-0.3,2.5-1.2,2.8-2.3c0.5,0.1,1,0.1,1.5,0c0.9-0.2,1.7-0.7,2.1-1.4c0.3,0,0.7,0,1-0.1C280.5,44.3,281.8,42.6,281.4,41
								L281.4,41z"/>
							<path class="st5" d="M215.2,8c-0.3-1.6-2.2-2.6-4.2-2.2c-0.5,0.1-0.9,0.3-1.3,0.5c-0.6-0.8-1.8-1.2-3-1c-1.1,0.2-2,1-2.3,1.8
								c-0.1,0-0.2,0-0.3,0c0.4-1,0.4-2.2-0.3-3c-1.1-1.3-3.2-1.3-4.7-0.1c-0.4,0.3-0.7,0.7-1,1.1c-0.9-0.4-2.1-0.3-3.1,0.5
								c-0.9,0.7-1.3,1.8-1.2,2.7c-0.1,0.1-0.2,0.1-0.3,0.2c-0.7,0.5-0.9,1.4-0.4,2c0.1,0.1,0.2,0.2,0.3,0.2
								c-0.3,0.1-0.5,0.2-0.8,0.4c-0.7,0.6-1,1.5-0.7,2.2c-0.1,0-0.1,0-0.2,0.1c-0.4,0.1-0.7,0.3-1,0.5c-0.5-0.6-1.4-0.8-2.3-0.5
								c-0.8,0.3-1.4,0.9-1.6,1.6c-0.1,0-0.2,0-0.2,0.1c-0.6,0.2-1,0.8-0.8,1.3c0,0.1,0.1,0.2,0.1,0.3c-0.2,0-0.4,0-0.7,0.1
								c-0.8,0.3-1.3,1-1.1,1.7s1.1,1,1.9,0.7c0.1,0,0.1,0,0.2-0.1c0.4,0.2,0.9,0.2,1.4,0c0.3-0.1,0.6-0.3,0.8-0.5
								c0.6,0.6,1.5,0.8,2.4,0.5c0.7-0.2,1.2-0.7,1.5-1.2c0.2,0,0.5-0.1,0.7-0.1c0.8-0.3,1.5-0.8,1.8-1.5c0.1,0,0.3,0,0.4,0
								c0.1,0,0.2,0,0.3-0.1c0.5,0.3,1.2,0.4,1.9,0.3c0.4-0.1,0.8-0.3,1.1-0.5c0.6,0.8,1.9,1.2,3.1,1c0.9-0.2,1.7-0.7,2.1-1.4
								c0.3,0,0.7,0,1-0.1c1.4-0.3,2.4-1.2,2.8-2.3c0.5,0.1,1,0.1,1.5,0c0.9-0.2,1.7-0.7,2.1-1.4c0.3,0,0.7,0,1-0.1
								C214.3,11.3,215.6,9.7,215.2,8L215.2,8z"/>
							<path class="st5" d="M153.9,61.9c0.4-0.2,0.9-0.2,1.3-0.2c-0.1-0.2-0.2-0.3-0.3-0.5c-0.4-1,0.3-2.2,1.5-2.6
								c0.2-0.1,0.3-0.1,0.5-0.1c0.3-1.4,1.4-2.6,3-3.2c1.7-0.6,3.6-0.3,4.6,0.8c0.5-0.4,1.2-0.8,1.9-1.1c2.8-1,5.8,0,6.6,2.4
								c0.9,2.3-0.7,5.1-3.5,6.1c-0.5,0.2-1,0.3-1.4,0.3c-0.5,1.1-1.5,2-2.8,2.5c-1.8,0.7-3.7,0.3-4.8-0.8c-0.4,0.4-0.9,0.8-1.6,1
								c-1,0.3-2,0.3-2.8,0c-0.1,0.1-0.2,0.1-0.4,0.2c-1.6,0.6-3.2,0-3.7-1.3C151.4,64,152.3,62.4,153.9,61.9L153.9,61.9z"/>
							<path class="st5" d="M139.5,57.6c0.3,0,0.6,0,0.8,0.1c-0.1-0.1-0.1-0.2-0.1-0.4c0-0.7,0.6-1.3,1.4-1.3c0.1,0,0.2,0,0.3,0
								c0.4-0.8,1.3-1.4,2.4-1.4c1.2-0.1,2.2,0.5,2.7,1.3c0.4-0.2,0.9-0.3,1.3-0.3c1.9-0.1,3.6,1.1,3.6,2.7c0.1,1.6-1.4,3-3.3,3.1
								c-0.3,0-0.6,0-1,0c-0.5,0.6-1.3,1-2.2,1c-1.2,0.1-2.3-0.5-2.8-1.3c-0.3,0.2-0.7,0.3-1.1,0.3c-0.7,0-1.3-0.2-1.7-0.5
								c-0.1,0-0.2,0-0.3,0c-1.1,0.1-2-0.6-2.1-1.5C137.5,58.5,138.4,57.7,139.5,57.6L139.5,57.6z"/>
						</g>
						<path class="st5" d="M139.2,20.6c1-0.1,2.1-0.4,3.2-0.7c6.2-2,10-7.3,8.5-11.7c-1.4-4.4-7.6-6.3-13.8-4.3
							c-1.6,0.5-2.9,1.2-4.1,2.1c-2.1-2-5.9-2.6-9.8-1.3c-3.5,1.2-6.1,3.6-6.9,6.2c-0.3,0.1-0.7,0.1-1,0.2c-2.3,0.8-3.9,2.6-3.8,4.3
							c-2.1-0.3-4.6-0.1-7,0.7c-1.6,0.5-2.9,1.2-4.1,2.1c-1.6-1.5-4.2-2.2-7.1-1.9c0-0.7-0.1-1.5-0.3-2.2c-1.4-4.4-7.6-6.3-13.8-4.3
							c-1.6,0.5-2.9,1.2-4.2,2.1c-2.1-2-5.9-2.6-9.8-1.3c-3.5,1.2-6.1,3.6-6.9,6.2c-0.3,0.1-0.7,0.1-1,0.2c-2.3,0.8-3.9,2.6-3.8,4.3
							c-2.1-0.3-4.6-0.1-7,0.6c-1.6,0.5-2.9,1.2-4.2,2.1c-2.1-2-5.9-2.6-9.8-1.3c-3.5,1.2-6.1,3.6-6.9,6.2c-0.3,0.1-0.7,0.1-1,0.2
							c-2.7,0.9-4.3,3.1-3.7,5c0.1,0.3,0.3,0.7,0.5,0.9c-0.9,0-1.9,0.1-2.8,0.5c-3.5,1.2-5.6,4.1-4.8,6.6s4.3,3.6,7.8,2.4
							c0.3-0.1,0.6-0.2,0.8-0.3c1.2,0.4,2.6,0.5,4.1,0.3c-0.2,0.7-0.2,1.5,0,2.2c0.8,2.5,4.3,3.6,7.8,2.4c0.3-0.1,0.6-0.2,0.8-0.3
							c1.7,0.6,3.9,0.6,6-0.1c1.4-0.5,2.6-1.1,3.5-2c2.2,2,6.2,2.6,10.1,1.3c2.9-1,5.2-2.8,6.5-4.9c1-0.1,2.1-0.3,3.2-0.7
							c2.5-0.8,4.7-2.2,6.2-3.9c0.3,0.7,1.3,1,2.4,0.7c0.1,0,0.2,0,0.3-0.1c0.5,0.2,1.2,0.3,2,0.1c0.3-0.1,0.6-0.2,0.8-0.3
							c0.2,0,0.5,0,0.7,0c0.7,0.5,1.8,0.7,2.9,0.4c0.7-0.2,1.3-0.5,1.8-0.9c0.9,0.2,2,0.2,3.1,0c-0.2,0.7-0.2,1.5,0,2.2
							c0.8,2.5,4.3,3.6,7.8,2.4c0.3-0.1,0.6-0.2,0.8-0.3c1.7,0.6,3.8,0.6,6-0.1c1.4-0.5,2.5-1.1,3.5-2c2.2,2,6.2,2.6,10.1,1.3
							c2.9-1,5.2-2.8,6.5-4.9c1-0.1,2.1-0.3,3.2-0.7c2.5-0.8,4.7-2.2,6.2-3.9c0.4,0.7,1.3,1,2.4,0.7c0.1,0,0.2,0,0.3-0.1
							c0.5,0.2,1.2,0.3,2,0.1c0.5-0.1,0.9-0.3,1.2-0.5c0.7,0.7,1.9,1,3.3,0.7c1-0.2,1.8-0.8,2.2-1.4c0.3,0,0.7-0.1,1.1-0.2
							c2.1-0.5,3.4-2.1,3.1-3.6s-2.3-2.3-4.4-1.8c-0.5,0.1-1,0.3-1.4,0.6c-0.6-0.7-1.9-1-3.1-0.7c-1.2,0.3-2.1,1-2.4,1.8
							c-0.1,0-0.2,0-0.3,0.1c-0.9,0.2-1.5,0.9-1.3,1.5c0,0.1,0.1,0.2,0.1,0.3c-0.3,0-0.6,0-0.9,0.1c0.8-1.5,1.1-3.1,0.9-4.7
							c0.5-0.1,1-0.2,1.5-0.4C135.7,24.4,138,22.6,139.2,20.6L139.2,20.6z"/>
						<path class="st5" d="M122.8,68.2c-0.1-2.2-2.4-3.9-5.1-3.7c-0.7,0-1.3,0.2-1.9,0.4c-0.6-1.2-2.1-1.9-3.7-1.8
							c0.1-0.8,0-1.5-0.4-2.2c-1.1-1.9-3.8-2.5-6.2-1.2c-0.6,0.3-1.1,0.7-1.5,1.2c-1.1-0.8-2.7-0.8-4.2-0.1c-1.3,0.7-2.1,2-2.2,3.2
							c-0.1,0.1-0.3,0.1-0.4,0.2c-1,0.6-1.4,1.7-1,2.5c0.1,0.2,0.2,0.3,0.3,0.4c-0.4,0.1-0.8,0.2-1.1,0.4c-0.5,0.3-0.9,0.7-1.2,1.1
							c-1.1,0.4-1.8,1.1-1.7,1.9c0,0.2,0.1,0.3,0.2,0.5c-0.5-0.1-1-0.1-1.6,0c-2,0.2-3.4,1.4-3.3,2.7s1.9,2.1,3.8,1.8
							c0.2,0,0.3-0.1,0.5-0.1c0.8,0.4,2,0.6,3.2,0.5c0.8-0.1,1.5-0.3,2.1-0.6c0.9,1.1,3,1.8,5.2,1.5c0.4-0.1,0.7-0.1,1.1-0.2
							c0.9,0.7,2.1,1.1,3.4,1.1c1.6,0,2.9-0.6,3.8-1.6c0.5,0.1,1.1,0.2,1.6,0.2c2.7,0,5-1.6,5.6-3.7
							C120.9,72.2,122.9,70.4,122.8,68.2L122.8,68.2z"/>
					</g>
					<path class="st6" d="M324.9,249.8H-28.5v-94.7c0,0,21.5,2.5,50.3-3.5c24.1-5,50.6-12.4,91.5,0.1c17.3,3,23.9-6.7,54.4,0.3
						c31.5,7.2,56.8-10.2,91.9-12c23.6-1.2,65.1,13.8,65.1,13.8L324.9,249.8L324.9,249.8z"/>
					
						<linearGradient id="SVGID_00000069371269951383342690000003894707497979084217_" gradientUnits="userSpaceOnUse" x1="147.8297" y1="198.3401" x2="148.5797" y2="290.8201" gradientTransform="matrix(1 0 0 -1 0 448)">
						<stop  offset="0" style="stop-color:#1C477E"/>
						<stop  offset="0.15" style="stop-color:#285D94"/>
						<stop  offset="0.35" style="stop-color:#3576AC"/>
						<stop  offset="0.53" style="stop-color:#3D85BB"/>
						<stop  offset="0.68" style="stop-color:#408BC1"/>
						<stop  offset="1" style="stop-color:#4CA8D3"/>
					</linearGradient>
					
						<rect x="-28.5" y="161.9" style="fill:url(#SVGID_00000069371269951383342690000003894707497979084217_);" width="353.4" height="87.9"/>
					<g>
						<polygon class="st5" points="20.8,150.9 13.9,170.3 21.3,172.6 						"/>
						<path class="st4" d="M16.9,173.1h6.5l-1.5,1.4c0,0-0.5,0.3-1.7,0.3s-1.9-0.3-1.9-0.3S16.9,173.1,16.9,173.1z"/>
					</g>
					<g>
						<polygon class="st5" points="278.8,150.9 271.8,170.3 279.2,172.6 						"/>
						<path class="st4" d="M274.8,173.1h6.5l-1.5,1.4c0,0-0.5,0.3-1.7,0.3s-1.9-0.3-1.9-0.3L274.8,173.1z"/>
					</g>
					<g>
						<polygon class="st5" points="35.5,156.5 31.9,166.4 35.7,167.6 						"/>
						<path class="st4" d="M33.4,167.9h3.3l-0.8,0.7c0,0-0.2,0.1-0.9,0.1s-1-0.1-1-0.1L33.4,167.9L33.4,167.9z"/>
					</g>
					<path class="st8" d="M16.8,56.1c0.6-0.2,1.2-0.4,1.8-0.3c0.3,0,1,0.5,1.2,0.4c0.3-0.1,0.7-0.4,0.9-0.4c0.7-0.1,1.5,0.2,2.1,0.5
						c-0.3-0.2-1.3-0.1-1.6-0.1c-0.5,0-0.9,0.4-1.4,0.4c-0.5,0-0.9-0.3-1.4-0.4C17.9,56.1,17.3,56.1,16.8,56.1z"/>
					<path class="st8" d="M23.3,54.1c1-0.4,2.1-0.7,3.1-0.5c0.5,0.1,1.8,0.8,2.2,0.6c0.5-0.2,1.1-0.7,1.6-0.7
						c1.2-0.2,2.6,0.2,3.7,0.8c-0.5-0.2-2.3-0.1-2.9,0c-0.9,0.1-1.6,0.7-2.4,0.8c-0.9,0.1-1.6-0.5-2.4-0.7
						C25.3,54,24.3,54.1,23.3,54.1L23.3,54.1z"/>
					<path class="st8" d="M246.8,17.7c1-0.4,2.1-0.7,3.1-0.5c0.5,0.1,1.8,0.8,2.2,0.6c0.5-0.2,1.1-0.7,1.6-0.7
						c1.2-0.2,2.6,0.2,3.7,0.8c-0.5-0.2-2.3-0.1-2.9,0c-0.9,0.1-1.6,0.7-2.4,0.8c-0.9,0.1-1.6-0.5-2.4-0.7
						C248.8,17.6,247.7,17.8,246.8,17.7L246.8,17.7z"/>
					<path class="st8" d="M281.5,67.6c1-0.4,2.1-0.7,3.1-0.6c0.5,0.1,1.8,0.8,2.2,0.6c0.5-0.2,1.1-0.7,1.6-0.7
						c1.2-0.2,2.6,0.2,3.7,0.8c-0.5-0.2-2.3-0.1-2.9-0.1c-0.9,0.1-1.6,0.7-2.4,0.8c-0.9,0.1-1.6-0.5-2.4-0.7
						C283.4,67.5,282.4,67.6,281.5,67.6L281.5,67.6z"/>
					<path class="st8" d="M149.9,55.5c1-0.4,2.1-0.7,3.1-0.5c0.5,0.1,1.8,0.8,2.2,0.6c0.5-0.2,1.1-0.7,1.6-0.7
						c1.2-0.2,2.6,0.2,3.7,0.8c-0.5-0.2-2.3-0.1-2.9,0c-0.9,0.1-1.6,0.7-2.4,0.8c-0.9,0.1-1.6-0.5-2.4-0.7
						C151.9,55.4,150.9,55.5,149.9,55.5L149.9,55.5z"/>
					<path class="st8" d="M86.1,39.1c0.5-0.6,1.1-1.1,1.9-1.3c0.3-0.1,1.4,0,1.6-0.3c0.2-0.3,0.5-0.8,0.8-1c0.7-0.5,1.8-0.7,2.7-0.7
						c-0.4,0-1.6,0.6-1.9,0.9c-0.5,0.3-0.8,1-1.3,1.3c-0.5,0.3-1.2,0.2-1.8,0.3C87.4,38.4,86.7,38.8,86.1,39.1L86.1,39.1z"/>
					<path class="st8" d="M139.6,58.9c0.6-0.2,1.2-0.4,1.8-0.3c0.3,0,1,0.5,1.3,0.4c0.3-0.1,0.6-0.4,0.9-0.4
						c0.7-0.1,1.5,0.2,2.1,0.5c-0.3-0.2-1.3-0.1-1.6-0.1c-0.5,0.1-0.9,0.4-1.4,0.4c-0.5,0-0.9-0.3-1.4-0.4
						C140.7,58.8,140.1,58.9,139.6,58.9L139.6,58.9z"/>
					<rect y="0" class="st9" width="300" height="250"/>
				</g>
			</g>
			<path class="st10" d="M324.9,250.1H-28.5v-43.5c0,0,28.2-8.1,54-7.6c34,0.7,59.2,25,133.9,7.6c20.4-2.9,73.1-13.7,116.5-11.4
				c31.1,1.7,49,0.8,49,0.8V250.1z"/>
			<g>
				<g>
					<g>
						
							<rect x="239.3" y="194.7" transform="matrix(0.1231 -0.9924 0.9924 0.1231 22.7401 415.4017)" class="st11" width="14.3" height="0.3"/>
						
							<rect x="236.9" y="198.6" transform="matrix(0.1231 -0.9924 0.9924 0.1231 23.3923 423.9304)" class="st11" width="29.4" height="0.3"/>
						<path class="st5" d="M247.9,188.5c-0.8,0.1-1.6-0.3-1.8-0.9c-0.2-0.6,0.3-1.3,1.1-1.4s1.6,0.3,1.8,0.9
							S248.7,188.3,247.9,188.5z"/>
						<path class="st5" d="M254.6,184.2c-0.5,0.4-1.3,0.4-1.8,0s-0.6-1.1-0.1-1.5c0.5-0.4,1.3-0.4,1.8,0S255.1,183.8,254.6,184.2z"
							/>
						
							<rect x="235.4" y="187" transform="matrix(0.9983 -5.878369e-02 5.878369e-02 0.9983 -12.0708 14.2139)" class="st11" width="0.3" height="50.6"/>
						<path class="st5" d="M235.3,186.8c-0.3,0.6-1.1,0.8-1.7,0.6c-0.6-0.2-0.9-0.9-0.5-1.4c0.3-0.6,1.1-0.8,1.7-0.6
							C235.3,185.6,235.6,186.2,235.3,186.8z"/>
						<path class="st5" d="M251.5,190c-0.3,0.3-0.8,0.3-1.2,0s-0.4-0.7-0.1-1c0.3-0.3,0.8-0.3,1.2,0S251.8,189.7,251.5,190z"/>
						<path class="st5" d="M241.1,195.8c-0.2,0.1-0.5,0.2-0.6,0s-0.2-0.4,0-0.5c0.2-0.1,0.5-0.2,0.6,0S241.3,195.7,241.1,195.8z"/>
						<path class="st5" d="M239.3,190.5c-0.2,0.1-0.5,0.2-0.6,0s-0.2-0.4,0-0.5c0.2-0.1,0.5-0.2,0.6,0S239.5,190.3,239.3,190.5z"/>
						<path class="st11" d="M251.5,215.3h-0.3c0-0.2,0.4-20.5,3.8-27.4l0.3,0.1C251.9,194.9,251.5,215.1,251.5,215.3L251.5,215.3z"
							/>
						<path class="st5" d="M255.8,188.2c-0.3,0.2-0.9,0.1-1.1-0.2c-0.3-0.3-0.2-0.8,0.1-1c0.3-0.2,0.9-0.1,1.1,0.2
							C256.2,187.5,256.2,188,255.8,188.2L255.8,188.2z"/>
						
							<rect x="241.1" y="210.3" transform="matrix(0.1723 -0.985 0.985 0.1723 2.1152 423.3994)" class="st11" width="23.7" height="0.3"/>
						<path class="st5" d="M255.7,198.9c-0.3,0.3-0.8,0.3-1.2,0s-0.4-0.7-0.1-1s0.8-0.3,1.2,0S256,198.6,255.7,198.9z"/>
					</g>
					<g>
						
							<rect x="290" y="190.6" transform="matrix(0.1226 -0.9925 0.9925 0.1226 73.2093 464.3463)" class="st11" width="18.3" height="0.4"/>
						
							<rect x="292.6" y="190.1" transform="matrix(0.1551 -0.9879 0.9879 0.1551 70.5968 463.1758)" class="st12" width="26.9" height="0.4"/>
						<path class="st5" d="M301.1,182.6c-1,0.2-2-0.4-2.2-1.2s0.4-1.7,1.4-1.9c1-0.2,2,0.4,2.2,1.2
							C302.7,181.6,302.1,182.4,301.1,182.6z"/>
						<path class="st5" d="M309.7,177.1c-0.6,0.6-1.6,0.6-2.3,0.1s-0.7-1.4-0.1-1.9c0.6-0.6,1.6-0.6,2.3-0.1
							S310.3,176.6,309.7,177.1z"/>
						
							<rect x="287" y="181.7" transform="matrix(0.9945 -0.1045 0.1045 0.9945 -19.4204 31.1239)" class="st12" width="0.4" height="38.3"/>
						<path class="st5" d="M286.8,181.5c-0.4,0.7-1.4,1-2.2,0.7s-1.1-1.1-0.7-1.8c0.4-0.7,1.4-1,2.2-0.7
							C286.9,179.9,287.2,180.8,286.8,181.5z"/>
						<path class="st5" d="M305.8,184.5c-0.4,0.4-1,0.4-1.5,0s-0.5-0.9-0.1-1.2c0.4-0.4,1-0.4,1.5,0S306.1,184.2,305.8,184.5z"/>
						<path class="st5" d="M308.9,195.8c-0.4,0.4-1,0.4-1.5,0c-0.4-0.3-0.5-0.9-0.1-1.2c0.4-0.4,1-0.4,1.5,0
							S309.2,195.4,308.9,195.8z"/>
						<path class="st5" d="M296.6,177c-0.2,0.2-0.6,0.2-0.8,0c-0.2-0.2-0.3-0.5,0-0.7c0.2-0.2,0.6-0.2,0.8,0
							C296.8,176.5,296.8,176.8,296.6,177z"/>
						<path class="st5" d="M289.8,189.1c-0.2,0.2-0.6,0.2-0.8,0c-0.2-0.2-0.3-0.5,0-0.7c0.2-0.2,0.6-0.2,0.8,0
							C290,188.6,290.1,188.9,289.8,189.1z"/>
						<path class="st5" d="M302.2,191.4c-0.2,0.2-0.6,0.2-0.8,0c-0.2-0.2-0.3-0.5,0-0.7c0.2-0.2,0.6-0.2,0.8,0
							C302.4,190.9,302.4,191.2,302.2,191.4z"/>
						<path class="st5" d="M290.1,185.2c-0.2,0.2-0.6,0.2-0.8,0c-0.2-0.2-0.3-0.5,0-0.7c0.2-0.2,0.6-0.2,0.8,0
							C290.3,184.7,290.3,185,290.1,185.2z"/>
						<path class="st11" d="M305.8,217.1h-0.4c0-0.3,0.5-26.3,4.9-35.2l0.4,0.2C306.3,190.9,305.8,216.8,305.8,217.1L305.8,217.1z"
							/>
						<path class="st5" d="M311.3,182.2c-0.4,0.3-1.1,0.2-1.5-0.2c-0.4-0.4-0.3-1,0.1-1.2c0.4-0.3,1.1-0.2,1.5,0.2
							C311.8,181.4,311.7,181.9,311.3,182.2z"/>
						
							<rect x="292.4" y="210.6" transform="matrix(0.1724 -0.985 0.985 0.1724 46.9256 477.5416)" class="st11" width="30.5" height="0.4"/>
						<path class="st5" d="M311.1,196c-0.4,0.4-1,0.4-1.5,0s-0.5-0.9-0.1-1.2c0.4-0.4,1-0.4,1.5,0S311.5,195.6,311.1,196z"/>
					</g>
					<g>
						<path class="st11" d="M26.2,211.9c0,0,0-6.2,3.8-7.9C30,204.1,30.8,208.4,26.2,211.9z"/>
						
							<rect x="22.7" y="213.1" transform="matrix(0.3127 -0.9499 0.9499 0.3127 -184.6953 171.0761)" class="st11" width="6.3" height="0.2"/>
					</g>
					<g>
						<path class="st11" d="M25.4,207.3c0,0-3.6-5.1-1.4-8.6C24.1,198.7,27.2,201.7,25.4,207.3z"/>
						<polygon class="st11" points="26.3,219.3 25.2,206.2 25.4,206.2 26.5,219.3 						"/>
					</g>
					<g>
						<path class="st11" d="M121.9,216.5c0,0,0-6.2,3.8-7.9C125.7,208.7,126.5,213,121.9,216.5z"/>
						<path class="st11" d="M118.7,220c0,0-3.8-3.2-2.9-6.4C115.8,213.6,118.9,215.3,118.7,220z"/>
						<path class="st11" d="M121.1,211.9c0,0-3.6-5.1-1.4-8.6C119.7,203.3,122.9,206.4,121.1,211.9z"/>
						<polygon class="st11" points="123.2,223.7 120.7,209.4 120.9,209.4 123.4,223.7 						"/>
						<polygon class="st11" points="120.9,225.1 118.2,219.3 118.4,219.2 121.1,225 						"/>
					</g>
					<g>
						<path class="st11" d="M231,196.4c0,0-5.3-3.3-4.6-7.4C226.4,189,230.5,190.6,231,196.4z"/>
						<path class="st11" d="M234.4,207.5c-1.5-10-4.3-12-4.3-12.1l0.2-0.3c0.1,0.1,2.9,2.1,4.5,12.3L234.4,207.5L234.4,207.5z"/>
					</g>
					<g>
						
							<rect x="232.1" y="188.3" transform="matrix(0.9902 -0.1399 0.1399 0.9902 -25.3298 34.4218)" class="st11" width="0.3" height="18.2"/>
						<path class="st11" d="M231.1,190c0,0-5.3-9.2-1-14.8C230.1,175.2,234.9,180.9,231.1,190z"/>
					</g>
					<g>
						<g>
							
								<rect x="0" y="211.5" transform="matrix(0.1073 -0.9942 0.9942 0.1073 -203.0804 197.1184)" class="st12" width="16.5" height="0.3"/>
							
								<rect x="-11.6" y="212.9" transform="matrix(0.1222 -0.9925 0.9925 0.1222 -217.0302 180.5704)" class="st11" width="10.3" height="0.2"/>
							
								<rect x="-3.2" y="219.3" transform="matrix(0.105 -0.9945 0.9945 0.105 -208.2381 207.588)" class="st11" width="28.8" height="0.3"/>
							
								<rect x="-0.5" y="213.4" transform="matrix(0.1314 -0.9913 0.9913 0.1314 -199.9387 198.9189)" class="st11" width="28" height="0.3"/>
							<path class="st5" d="M9.7,204.1c-0.8,0.1-1.6-0.3-1.8-0.9s0.3-1.3,1.1-1.5c0.8-0.1,1.6,0.3,1.8,1
								C11,203.3,10.5,204,9.7,204.1L9.7,204.1z"/>
							<path class="st5" d="M16.6,199.8c-0.5,0.4-1.3,0.5-1.9,0c-0.5-0.4-0.6-1.1-0.1-1.6c0.5-0.4,1.3-0.5,1.9,0
								C17.1,198.6,17.1,199.3,16.6,199.8z"/>
							<path class="st5" d="M13.4,205.7c-0.3,0.3-0.8,0.3-1.2,0s-0.4-0.7-0.1-1s0.8-0.3,1.2,0S13.8,205.4,13.4,205.7z"/>
							<path class="st5" d="M15.9,214.7c-0.3,0.3-0.8,0.3-1.2,0s-0.4-0.7-0.1-1s0.8-0.3,1.2,0S16.3,214.4,15.9,214.7z"/>
							<path class="st12" d="M13.2,233.8h-0.3c0-0.2,0.7-23.1,4.2-30.1l0.3,0.1C13.9,210.8,13.2,233.5,13.2,233.8L13.2,233.8z"/>
							<path class="st5" d="M18,203.7c-0.3,0.3-0.8,0.3-1.2,0s-0.4-0.7-0.1-1s0.8-0.3,1.2,0S18.3,203.5,18,203.7z"/>
							
								<rect x="5.2" y="224.4" transform="matrix(0.1959 -0.9806 0.9806 0.1959 -208.0422 195.423)" class="st11" width="20" height="0.3"/>
							<path class="st5" d="M17.8,214.9c-0.3,0.3-0.8,0.3-1.2,0s-0.4-0.7-0.1-1s0.8-0.3,1.2,0S18.1,214.6,17.8,214.9z"/>
						</g>
						<circle class="st5" cx="-5.7" cy="207.5" r="1.1"/>
						
							<rect x="-6.3" y="219.3" transform="matrix(0.1224 -0.9925 0.9925 0.1224 -218.7411 191.4635)" class="st11" width="10.3" height="0.2"/>
						<path class="st5" d="M0.8,213.9c0,0.6-0.5,1.1-1.1,1.1s-1.1-0.5-1.1-1.1s0.5-1.1,1.1-1.1S0.8,213.3,0.8,213.9z"/>
					</g>
					
						<linearGradient id="SVGID_00000021084021748915435540000012569158090495390640_" gradientUnits="userSpaceOnUse" x1="148.2148" y1="236.1701" x2="148.2148" y2="198.7101" gradientTransform="matrix(1 0 0 -1 0 448)">
						<stop  offset="0" style="stop-color:#F1C36B"/>
						<stop  offset="1" style="stop-color:#F0B11D"/>
					</linearGradient>
					<path style="fill:url(#SVGID_00000021084021748915435540000012569158090495390640_);" d="M324.9,204c0,0-0.4,5.9-1.9,8.6
						c-0.4-11-3.3-13.4-3.3-13.4c2.3,3.9,1.8,9.2,1.2,12.5c-0.5,0.7-0.9,1.2-1.2,1.7l-0.6-1.5l1.1-10.4l-2.2,2.9l-2.4-9.2l-2,7.1
						c-1-4.4-3-7.4-3-7.4c1.6,2.8,1.9,6.3,1.6,9.2l-2.1-2.6l1.8,5.2l-1.3,2.1l-2.2-6.2c1.1-4.6,0.6-8,0.6-8c0.2,2-0.4,4.3-1.2,6.3
						l-1.2-3.2l0.7,4.3c-0.2,0.5-0.5,0.9-0.7,1.4c-0.8-5.4-3.3-9.1-3.3-9.1c1.6,2.7,1.8,6,1.7,8.9l-1.5-3l0.4-3.7l-0.9,2.8l-3.1-6.3
						l2.1,9.5l-0.4,1.3l-2.4-6.6c0,0,1.6,6.5,1.5,9.5c-0.1,1.7-0.4,4.8-0.4,4.8l-1-12.2l-0.5,1.1l-0.7-9.3l-0.7,9.4
						c-0.6-8.5-3.2-10.5-3.2-10.5c2.1,3.7,1.9,8.6,1.3,11.9l-1.4,2.2l-3.7-10.2c0.1-1.9-0.1-3.1-0.1-3.1c0.1,0.8-0.9,7.2-1.5,8.6
						l-1.4-3.4l-0.2,2.1c-1-3.6-2.6-6-2.6-6c2.3,3.9,1.8,9.2,1.2,12.5c-0.5,0.7-0.9,1.2-1.2,1.7l-0.6-1.5l1.1-10.4l-2.2,7.3
						l-2.2-6.1l-0.2-3.1l-2,7.1c-1-4.4-3-7.4-3-7.4c1.6,2.8,1.9,6.3,1.6,9.2l-2.1-2.6l1.8,5.2l-1.3,2.1l-2.2-6.2
						c1.1-4.6,0.6-8,0.6-8c0.2,2-0.4,4.3-1.2,6.3l-1.2-3.2l0.7,4.3c-0.2,0.5-0.5,0.9-0.7,1.4c-0.8-5.4-3.3-13.4-3.3-13.4
						c1.1,5.9,1.8,10.3,1.7,13.2l-1.5-7.3l-0.5,3.4l-3.1-6.3l2.1,9.5l-0.4,1.3l-2.4-6.6l-0.4,3.2l-0.7-5l-1.1,5.5
						c-1-4.1-2.8-6.7-2.8-6.7c2.1,3.7-0.4,15.1-0.4,15.1l-3.5-10c0.9,4,2.4,12-0.9,14.7l-2-11.1l-0.2,2.1c-1-3.6-2.6-3.2-2.6-3.2
						c1.2,2.1,2.9,3.6,1.2,12.5c-0.5,0.7-0.9,1.2-1.2,1.7l-0.6-1.5l1.1-10.4l-2.2,7.3l-2.2-6.1l-0.2-3.1l-2,7.1c-1-4.4-3-7.4-3-7.4
						c1.6,2.8,1.9,6.3,1.6,9.2l-2.1-7.3l0.4,12.1l-1.6-19c0.2,2-3.6,14.8-3.6,14.8l-2.4-5.7l-3.1-6.3l2.1,9.5l-0.4,1.3l-2.4-6.6
						l1.4,9.6l-2.5-11.4l-1.1,5.5c-1.3-4-2.8-4.7-2.8-4.7c2.1,3.7,1.9,3.8,1.3,7.1l-1.4,7l-3.8-13.3c0.1,0.8-0.1,2.8-0.1,2.8
						c-0.3,1.4-0.8,2.9-1.4,4.2l-1.4-3.4l-0.2,2.1c-1.1-3.6-2.6-6-2.6-6c2.3,3.9,1.8,9.2,1.2,12.5c-0.4,0.7-0.6-10.3-0.6-10.3
						l-2.2,4.6l-2.2-3.4l-0.2-3.1l-2,7.1c-1-4.4-3-7.4-3-7.4c1.6,2.8,1.9,6.3,1.6,9.2l-2.1-2.6l0.4,7.4l-2.2-6.2
						c1.1-4.6,0.6-8,0.6-8c0.2,2-0.4,4.3-1.2,6.3l-1.2-3.2l0.7,4.3c-0.2,0.5-0.4,0.9-0.7,1.4c-0.8-5.4-3.3-9.1-3.3-9.1
						c1.6,2.7,1.8,6,1.7,8.9l-1.5-3l0.4-3.7l-0.9,2.8l-3.1-6.3l2.1,9.5l-0.4,1.3l-2.4-6.6l-0.4,3.2l-0.7-5l-1.1,5.5
						c-1-4.1-2.8-6.7-2.8-6.7c2.1,3.7,1.9,8.6,1.3,11.9l-1.4,2.2l-3.8-16.1c0.1,0.8-0.2,2.2-0.2,2.2l-2.9,11.9c-1.1-3.6-2.6-6-2.6-6
						c2.3,3.9,1.8,9.2,1.2,12.5c-0.4,0.7-0.9,1.2-1.2,1.7l-0.6-1.5l1.1-10.4l-2.2,7.3l-2.2-6.1l-0.2-3.1l-2,7.1c-1-4.4-3-7.4-3-7.4
						c1.6,2.8,1.9,6.3,1.6,9.2l-2.1-2.6l1.8,5.2l-1.3,2.1l-2.2-6.2c1.1-4.6,0.6-8,0.6-8c0.2,2-0.4,4.3-1.2,6.3l-1.2-3.2l0.7,4.3
						c-0.2,0.5-0.4,0.9-0.7,1.4c-0.8-5.4-3.3-9.1-3.3-9.1c1.6,2.7,1.8,6,1.7,8.9l-1.5-3l0.4-3.7l-0.9,2.8l-3.1-6.3l2.1,9.5l-0.4,1.3
						l-2.4-6.6l-0.4,3.2l-0.7-5l-1.1,5.5c-1-4.1-2.8-6.7-2.8-6.7c2.1,3.7,1.9,8.6,1.3,11.9l-1.4,2.2l-3.8-13.3
						c0.1,0.8-0.1,2.8-0.1,2.8c-0.3,1.4-0.8,2.9-1.4,4.2l-1.4-3.4l-0.2,2.1c-1.1-3.6-2.6-6-2.6-6c2.3,3.9,1.8,9.2,1.2,12.5
						c-0.4,0.7-0.9,1.2-1.2,1.7l-0.6-1.5l1.1-10.4l-2.2,7.3l-2.2-3.4l-0.2-3.1l-2,11.3c-1-4.4-3-7.4-3-7.4c1.6,2.8,1.9,6.3,1.6,9.2
						l-2.1-2.6l0.4,7.4l-1.6-14.2c0.2,2-0.4,4.3-1.2,6.3l-1.2-3.2c0,0,0.2,5.3,0,5.7c-0.8-5.4-3.3-4.9-3.3-4.9
						c1.6,2.7,1.8,6,1.7,8.9l-1.1-6.7l-0.9,2.8l-3.1-6.3l2.1,9.5l-0.4,1.3l-2.4-6.6l0.1,2.1l-0.5,1.1l-0.7-5l-1.1,5.5
						c-1-4.1-2.8-6.7-2.8-6.7c2.1,3.7,0,14.1,0,14.1l-3.7-10.2c0.1-1.9-0.1-3.1-0.1-3.1c0.1,0.8-0.2,2.2-0.2,2.2s-0.7,3.4-1.3,4.8
						l-1.4-3.4l-0.2,2.1c-1.1-3.6-2.6-6-2.6-6c2.3,3.9-0.6,12.6-0.6,12.6l1.1-10.4l-2.2,7.3l-2.2-10.4l-2.2,4c-1-4.4-3-7.4-3-7.4
						c1.6,2.8,1.9,6.3,1.6,9.2l-2.1-2.6l1.8,5.2l-1.3,2.1l-2.2-6.2c1.2-4.6,0.6-8,0.6-8c0.2,2-0.4,4.3-1.2,6.3l-1.2-3.2l0.7,4.3
						c-0.2,0.5-0.4,0.9-0.7,1.4c-0.8-5.4-3.3-6.3-3.3-6.3c1.6,2.7,1.8,8.8,1.7,11.7L94,224l-0.8-3.9l0.1,4l-3.2-9.7l2.2,9.5
						l-0.4,1.3l-2.4-6.6l-0.4,3.2l-0.7-5l-1.1,5.5c-1-4.1-2.8-6.7-2.8-6.7c2.2,3.7,1.9,8.6,1.3,11.9l-5.1-15.3
						c0.1,0.8-0.9,5.6-1.5,7l-1.4-3.4l-0.2,2.1c-1.1-3.6-2.6-6-2.6-6c2.3,3.9,1.8,9.2,1.2,12.5c-0.4,0.7-0.9,1.2-1.2,1.7l-0.6-1.5
						l1.1-10.4l-2.2,7.3l-2.4-9.2l-2,7.1c-1-4.4-3-7.4-3-7.4c1.6,2.8,1.9,6.3,1.6,9.2l-2.1-2.6l1.8,5.2l-1.3,2.1l-2.2-6.2
						c1.2-4.6,0.6-8,0.6-8c0.2,2-0.4,4.3-1.2,6.3l-1.2-3.2l0.7,4.3c-0.2,0.5-0.4,0.9-0.7,1.4c-0.8-5.4-3.3-9.1-3.3-9.1
						c1.6,2.7,1.8,6,1.7,8.9l-1.5-3l0.4-3.7l-0.8,2.8l-3.1-6.3l2.2,9.5l-0.4,1.3l-2.4-6.6l-0.4,3.2l-0.7-5l-1.1,5.5
						c-1-4.1-2.8-6.7-2.8-6.7c2.2,3.7,1.9,8.6,1.3,11.9l-1.3,2.2l-3.8-13.3c0.1,0.8-0.9,5.6-1.5,7l-1.4-3.4l-0.2,2.1
						c-1.1-3.6-2.6-6-2.6-6c2.3,3.9,1.8,9.2,1.2,12.5c-0.4,0.7-0.9,1.2-1.2,1.7l-0.6-1.5l1.1-10.4l-2.2,7.3l-2.4-9.2l-2,7.1
						c-1-4.4-3-7.4-3-7.4c1.6,2.8,1.9,6.3,1.6,9.2l-2.1-2.6l1.8,5.2l-1.3,2.1l-2.2-6.2c1.2-4.6,0.6-8,0.6-8c0.2,2-0.4,4.3-1.2,6.3
						l-1.2-3.2l0.7,4.3c-0.2,0.5-0.5,0.9-0.7,1.4c-0.8-5.4-3.3-6.3-3.3-6.3c1.6,2.7,1.8,6,1.7,8.9l-1.5-3l0.4-3.7l-0.8,2.8l-3.1-6.3
						l2.2,9.5l-0.4,1.3l-2.4-6.6l-1.1-1.8l-1.1,5.5c-1-4.1-2.8-6.7-2.8-6.7c2.2,3.7,0,14.1,0,14.1l-3.2-8.8c0.3-2.8,0-4.6,0-4.6
						c0.1,1.2,0,2.4-0.3,3.6l-0.5-1.4l0.3,2.1c-0.3,1.2-0.8,2.3-1.3,3.4l-3.8-8c2.3,3.9-1.7,9.5-1.7,9.5L1.7,218l-2.2,4
						c-1-4.4-3-7.4-3-7.4c1.6,2.8,1.9,6.3,1.6,9.2l-3.3-9.4c-0.3,0.8-0.4,1.5-1.2,3.6l-1.2-3.2l0.7,4.3c-0.2,0.5-0.5,0.9-0.7,1.4
						c-0.8-5.4-3.3-9.1-3.3-9.1c1.6,2.7,1.8,6,1.7,8.9l-1.1-6.7l-0.9,2.8l-3.1-6.3l2.2,9.5l-0.4,1.3l-2.4-6.6l1.4,9.6l-4.9-5
						l-1.5,6.4l-4-11.1l2,12.7l-6.5-11.4v34.4h353.4L324.9,204L324.9,204z"/>
					<path class="st12" d="M165.9,212c0,0,3.2,10.7,1.6,16.6C167.6,228.6,166.9,221.9,165.9,212z"/>
					<path class="st12" d="M233.7,197.8c0,0,3.2,10.7,1.6,16.6C235.3,214.4,234.7,207.8,233.7,197.8z"/>
					<path class="st12" d="M233.7,204.9c0,0,3.2,10.7,1.6,16.6C235.3,221.4,234.7,214.8,233.7,204.9z"/>
					<path class="st12" d="M294.5,199c0,0,0.5,11.1-2.5,16.5C292,215.4,293,208.8,294.5,199L294.5,199z"/>
					<path class="st12" d="M297.5,193.1c0,0,0.5,11.1-2.5,16.5C295,209.6,295.9,203,297.5,193.1z"/>
					<path class="st12" d="M321.3,204.3c0,0,0.5,11.1-2.5,16.5C318.8,220.8,319.8,214.2,321.3,204.3z"/>
					<path class="st12" d="M318,194c0,0,2.7,15.7,0.9,24C318.9,218.1,318.5,208.4,318,194z"/>
					<path class="st12" d="M316.5,201.8c0,0,2.7,15.7,0.9,24C317.4,225.8,317,216.2,316.5,201.8z"/>
					<path class="st12" d="M213.3,207.8c0,0,3.2,10.7,1.6,16.6C215,224.4,214.3,217.7,213.3,207.8z"/>
					<path class="st12" d="M210,197.9c0,0,3.2,10.7,1.6,16.6C211.6,214.5,210.9,207.9,210,197.9z"/>
					<path class="st12" d="M208.9,206c0,0,5.4,18,2.8,28C211.7,234.1,210.6,222.8,208.9,206z"/>
					<path class="st12" d="M201.6,200.5c0,0,2.5,18.7-1.7,28.1C199.9,228.6,200.6,217.4,201.6,200.5z"/>
					<path class="st12" d="M240.8,200.8c0,0,5.4,18,2.8,28C243.6,228.8,242.5,217.6,240.8,200.8z"/>
					<path class="st12" d="M243.4,198.5c0,0,7.2,17.4,5.6,27.6C249.1,226.1,246.8,215,243.4,198.5z"/>
					<path class="st12" d="M252.5,194.8c0,0,7.2,17.4,5.7,27.6C258.2,222.4,255.9,211.3,252.5,194.8z"/>
					<path class="st12" d="M273.5,192.1c0,0-2.5,10.9-6.8,15.2C266.8,207.3,269.4,201.2,273.5,192.1z"/>
					<path class="st12" d="M280.1,189.3c0,0-2.5,10.9-6.8,15.2C273.3,204.5,276,198.4,280.1,189.3z"/>
					<path class="st12" d="M263.9,179.9c0,0,4.9,10,4.4,16.1C268.3,196,266.5,189.6,263.9,179.9z"/>
					<path class="st11" d="M198.1,234.9c0,0-4.5-10.2,0.5-15.5C198.6,219.4,203,225.9,198.1,234.9z"/>
					<path class="st11" d="M188.1,235c0,0,0-6.2,3.8-7.9C191.9,227.1,192.7,231.4,188.1,235z"/>
					<path class="st11" d="M106.8,219.5c0,0,0-6.2,3.8-7.9C110.6,211.6,111.4,215.9,106.8,219.5z"/>
					<path class="st11" d="M272.3,191.2c0,0,0-6.2,3.8-7.9C276.1,183.3,276.9,187.7,272.3,191.2z"/>
					<path class="st11" d="M23,215.4c0,0-3.8-3.2-2.9-6.4C20.1,209,23.2,210.7,23,215.4z"/>
					<path class="st11" d="M182.9,231.8c0,0-4.7-4.1-3.4-8C179.5,223.8,183.3,226,182.9,231.8z"/>
					<path class="st11" d="M188.5,201.3c0,0-7.4,12.4-8.2,21C180.2,222.3,183.6,213.9,188.5,201.3z"/>
					<path class="st11" d="M193.2,211.4c0,0-6.8,12.8-7.2,21.4C186,232.8,188.9,224.2,193.2,211.4z"/>
					<path class="st11" d="M230.9,211.8c0,0-7.9,9.5-9.8,16.7C221.1,228.5,225,221.8,230.9,211.8z"/>
					<path class="st11" d="M229.4,208.3c0,0-6.3,10.6-7.1,18C222.3,226.3,225.2,219.1,229.4,208.3z"/>
					<path class="st12" d="M258.9,206.7c0,0-5.6,17.2-9.7,27.4C249.2,234.1,252.7,217.9,258.9,206.7z"/>
					<path class="st12" d="M260.7,191.9c0,0-5.6,17.2-9.7,27.4C251,219.3,254.5,203.1,260.7,191.9z"/>
					<path class="st11" d="M314.7,205.2c0,0-9.7,9.7-12.5,17.4C302.3,222.6,307.3,215.6,314.7,205.2z"/>
					<path class="st11" d="M311.2,202.6c0,0-9.7,9.7-12.5,17.4C298.7,220.1,303.7,213.1,311.2,202.6z"/>
					<path class="st11" d="M313.1,212.7c0,0-9.7,9.7-12.5,17.4C300.6,230.1,305.6,223.2,313.1,212.7z"/>
					<path class="st11" d="M312.2,218.6c0,0-9.7,9.7-12.5,17.4C299.8,236,304.8,229.1,312.2,218.6z"/>
					<path class="st11" d="M175.9,218.9c0,0-9.7,9.7-12.4,17.4C163.5,236.3,168.5,229.3,175.9,218.9z"/>
					<path class="st11" d="M201.9,204.6c0,0-9.7,9.7-12.4,17.4C189.4,222,194.4,215.1,201.9,204.6z"/>
					<path class="st11" d="M319.8,215.5c0,0-11.1,8-15,15.2C304.8,230.7,310.8,224.6,319.8,215.5z"/>
					<path class="st11" d="M318.2,216.8c0,0-11.1,8-15,15.2C303.1,232.1,309.2,226,318.2,216.8z"/>
					<g>
						<path class="st11" d="M289.9,210.4c0,0-9.7,9.7-12.5,17.4C277.5,227.8,282.5,220.9,289.9,210.4z"/>
						<path class="st11" d="M274.9,216.7c0,0-6.9,11.8-7.6,20C267.3,236.7,270.4,228.7,274.9,216.7z"/>
						<path class="st12" d="M285.1,191.1c-10.9,14.9-11,14.8-15.1,27.2C270,218.3,276.1,207.4,285.1,191.1z"/>
						<path class="st12" d="M272.2,205.8c-10.9,14.9-11,14.8-15.1,27.2C257.2,233,263.2,222.1,272.2,205.8z"/>
						<path class="st11" d="M296.8,218c0,0-9.7,9.7-12.5,17.4C284.4,235.4,289.4,228.5,296.8,218z"/>
						<path class="st11" d="M300,209.4c0,0-9.7,9.7-12.5,17.4C287.5,226.8,292.5,219.9,300,209.4z"/>
						<path class="st11" d="M292.4,196.6c0,0-9.7,9.7-12.5,17.4C280,214,285,207.1,292.4,196.6z"/>
						<path class="st11" d="M287.1,197.3c0,0-7.7,11.3-9,19.4C278.1,216.7,281.8,208.9,287.1,197.3L287.1,197.3z"/>
						<path class="st11" d="M293.9,215.5c0,0-9.7,9.7-12.5,17.4C281.5,232.9,286.5,225.9,293.9,215.5z"/>
						<path class="st11" d="M280.1,218.2c0,0-9.7,9.7-12.5,17.4C267.6,235.6,272.6,228.6,280.1,218.2z"/>
					</g>
					<g>
						<path class="st11" d="M210.1,210.4c0,0-7.1,11.7-8,19.9C202.1,230.3,205.3,222.3,210.1,210.4z"/>
						<path class="st11" d="M209.9,216.5c0,0-7.1,11.7-8,19.9C201.8,236.3,205.1,228.4,209.9,216.5z"/>
						<path class="st11" d="M218.6,216.2c0,0-7.1,11.7-8,19.9C210.6,236,213.9,228.1,218.6,216.2z"/>
						<path class="st11" d="M211.1,227.1c0,0-7.1,11.7-8,19.9C203.1,246.9,206.3,239,211.1,227.1z"/>
						<path class="st11" d="M176.7,225.8c0,0-7.1,11.7-8,19.9C168.7,245.7,171.9,237.7,176.7,225.8z"/>
						<path class="st11" d="M53.8,225.7c0,0,4,13.1,9.5,19.2C63.3,244.9,59.5,237.2,53.8,225.7z"/>
						<path class="st11" d="M219.7,207.1c0,0-7.1,11.7-8,19.9C211.7,226.9,214.9,219,219.7,207.1z"/>
						<path class="st11" d="M215.2,214.4c0,0-7.1,11.7-8,19.9C207.2,234.3,210.4,226.3,215.2,214.4z"/>
						<path class="st11" d="M206,215.5c0,0-7.1,11.7-8,19.9C198,235.4,201.2,227.4,206,215.5z"/>
					</g>
					<g>
						<path class="st11" d="M246.7,216.6c0,0-7.1,8.6-7.9,14.6C238.7,231.3,241.9,225.4,246.7,216.6z"/>
						<path class="st11" d="M256.2,214.2c0,0-7.1,8.6-7.9,14.6C248.3,228.8,251.5,223,256.2,214.2z"/>
						<path class="st11" d="M251.7,219.6c0,0-7.1,8.6-7.9,14.6C243.8,234.2,247,228.4,251.7,219.6z"/>
						<path class="st11" d="M242.5,220.4c0,0-7.1,8.6-7.9,14.6C234.6,235,237.8,229.2,242.5,220.4z"/>
					</g>
					<g>
						<path class="st11" d="M155.5,213.8c0,0-3.5,10.6-2.1,16.5C153.4,230.3,154.3,223.7,155.5,213.8z"/>
						<path class="st11" d="M164.2,215.2c0,0-5.9,9.5-5.9,15.6C158.3,230.8,160.6,224.6,164.2,215.2z"/>
						<path class="st11" d="M156.1,220.1c0,0-3.5,10.6-2.1,16.5C154,236.6,154.8,230,156.1,220.1z"/>
						<path class="st11" d="M-6.9,213.1c0,0-1.4,11.1,1.1,16.6C-5.8,229.7-6.2,223.1-6.9,213.1z"/>
						<path class="st11" d="M-8.1,208.8c0,0-1.4,11.1,1.1,16.6C-7,225.4-7.4,218.7-8.1,208.8z"/>
						<path class="st11" d="M-9,215.7c0,0-1.4,11.1,1.1,16.6C-7.9,232.4-8.3,225.7-9,215.7z"/>
					</g>
					<path class="st11" d="M188.2,218.3c0,0-5.9,9.5-5.9,15.6C182.3,233.9,184.6,227.6,188.2,218.3z"/>
					<g>
						<path class="st11" d="M219.8,221.9c0,0-5.9,9.5-5.9,15.6C213.8,237.4,216.2,231.2,219.8,221.9z"/>
						<path class="st11" d="M228.9,218.2c0,0-5.9,9.5-5.9,15.6C223,233.8,225.4,227.5,228.9,218.2z"/>
					</g>
					<g>
						<path class="st11" d="M266,196.3c0,0-4.7,10.1-4,16.2C262,212.5,263.6,206,266,196.3z"/>
						<path class="st11" d="M267,215.5c0,0-4.7,10.1-4,16.2C263.1,231.7,264.7,225.2,267,215.5z"/>
						<path class="st11" d="M263.5,214.1c0,0-4.7,10.1-4,16.2C259.5,230.3,261.1,223.8,263.5,214.1z"/>
						<path class="st11" d="M264.7,204.2c0,0-4.7,10.1-4,16.2C260.8,220.4,262.4,213.9,264.7,204.2z"/>
					</g>
					<g>
						<path class="st11" d="M48,212.1c0,0,7.9,11.2,9.3,19.3C57.3,231.4,53.5,223.7,48,212.1z"/>
						<path class="st11" d="M41.7,211.3c0,0,7.9,11.2,9.3,19.3C51,230.6,47.3,222.9,41.7,211.3z"/>
						<path class="st11" d="M5,215.9c0,0,5.9,12.4,5.9,20.6C10.9,236.5,8.6,228.2,5,215.9z"/>
						<path class="st11" d="M8.3,215.1c0,0,5.3,12.6,4.9,20.8C13.2,236,11.2,227.6,8.3,215.1z"/>
						<path class="st11" d="M53.3,211c0,0,5.2,12.7,4.7,20.9C58,231.9,56.1,223.5,53.3,211z"/>
					</g>
					<g>
						<path class="st11" d="M80.7,216.8c0,0,5.3,9.8,5,15.9C85.8,232.7,83.8,226.4,80.7,216.8z"/>
						<path class="st11" d="M86.2,214.1c0,0,2.1,10.9-0.1,16.6C86.1,230.7,86.1,224.1,86.2,214.1z"/>
						<path class="st11" d="M78.9,213.8c0,0,0.6,11.1-2.3,16.5C76.6,230.3,77.5,223.7,78.9,213.8z"/>
					</g>
					<path class="st12" d="M49.4,217.3c0,0,3.2,10.7,1.7,16.6C51.1,233.9,50.4,227.2,49.4,217.3L49.4,217.3z"/>
					<path class="st12" d="M55.5,220.5c0,0,3.2,10.7,1.7,16.6C57.1,237.1,56.4,230.4,55.5,220.5L55.5,220.5z"/>
					<path class="st12" d="M47.8,219.7c0,0,3.2,10.7,1.7,16.6C49.5,236.2,48.8,229.6,47.8,219.7L47.8,219.7z"/>
					<path class="st12" d="M33.6,221c0,0,3.2,10.7,1.7,16.6C35.2,237.5,34.5,230.9,33.6,221L33.6,221z"/>
					<path class="st12" d="M35.2,218c0,0,3.2,10.7,1.7,16.6C36.9,234.6,36.2,227.9,35.2,218L35.2,218z"/>
					<path class="st12" d="M-6.1,219.7c0,0,3.2,10.7,1.6,16.6C-4.5,236.3-5.1,229.6-6.1,219.7L-6.1,219.7z"/>
					<path class="st12" d="M0.4,212.8c0,0,3.2,10.7,1.6,16.6C2,229.3,1.4,222.7,0.4,212.8L0.4,212.8z"/>
					<path class="st12" d="M-7.2,198c0,0,5.2,9.8,4.9,15.9C-2.3,213.9-4.3,207.5-7.2,198z"/>
					<path class="st12" d="M-15,218.1c0,0,3.2,10.7,1.6,16.6C-13.3,234.7-14,228-15,218.1z"/>
					<path class="st12" d="M-15.6,219.8c0,0,3.2,10.7,1.6,16.6C-13.9,236.3-14.6,229.7-15.6,219.8L-15.6,219.8z"/>
					<path class="st12" d="M94.1,217.2c0,0,3.2,10.7,1.7,16.6C95.8,233.8,95.1,227.2,94.1,217.2z"/>
					<path class="st12" d="M120.2,218.6c0,0,3.2,10.7,1.6,16.6C121.8,235.2,121.1,228.6,120.2,218.6z"/>
					<path class="st12" d="M122,218.7c0,0-0.4,11.1-3.8,16.2C118.3,235,119.8,228.5,122,218.7z"/>
					<path class="st12" d="M92.7,218.6c0,0,3.2,10.7,1.7,16.6C94.4,235.2,93.7,228.6,92.7,218.6z"/>
					<path class="st12" d="M143.5,212.5c0,0,3.2,10.7,1.6,16.6C145.2,229.1,144.5,222.4,143.5,212.5L143.5,212.5z"/>
					<path class="st12" d="M142.8,216c0,0,3.2,10.7,1.6,16.6C144.5,232.6,143.8,225.9,142.8,216L142.8,216z"/>
					<path class="st12" d="M172.2,204.2c0,0,3.2,10.7,1.6,16.6C173.8,220.8,173.2,214.2,172.2,204.2L172.2,204.2z"/>
					<path class="st12" d="M179.6,205.5c0,0-5.8,9.5-5.9,15.6C173.8,221.1,176.1,214.9,179.6,205.5z"/>
					<path class="st12" d="M137.6,214.4c0,0,3.2,10.7,1.6,16.6C139.3,231,138.6,224.4,137.6,214.4L137.6,214.4z"/>
					<path class="st12" d="M138.4,213.3c0,0,3.2,10.7,1.6,16.6C140.1,229.8,139.4,223.2,138.4,213.3L138.4,213.3z"/>
					<path class="st12" d="M155.8,195.9c0,0,3.2,10.7,1.6,16.6C157.4,212.5,156.8,205.9,155.8,195.9L155.8,195.9z"/>
					<path class="st12" d="M-19.5,213.9c0,0,3.2,10.7,1.6,16.6C-17.8,230.5-18.5,223.8-19.5,213.9L-19.5,213.9z"/>
					<path class="st12" d="M2.6,214.7c0,0,1.9,11-0.4,16.6C2.2,231.4,2.3,224.7,2.6,214.7z"/>
					<path class="st12" d="M6.3,204.6c0,0,1.9,11-0.4,16.6C5.9,221.2,6,214.6,6.3,204.6z"/>
					<g>
						<path class="st11" d="M317.2,210.4c0,0-3.4,15.6-1.7,25.4C315.5,235.8,316.2,225.6,317.2,210.4z"/>
						<path class="st11" d="M314.2,211c0,0-3.4,15.6-1.7,25.4C312.5,236.5,313.2,226.3,314.2,211z"/>
					</g>
					<path class="st11" d="M256.9,206.7c0,0-8,11.1-9.5,19.2C247.4,225.9,251.2,218.2,256.9,206.7z"/>
					<path class="st11" d="M4,222c0,0-7.1,8.6-7.9,14.6C-3.9,236.6-0.7,230.8,4,222z"/>
					<path class="st11" d="M7.7,213.8c0,0-7.1,8.6-7.9,14.6C-0.2,228.4,3,222.6,7.7,213.8z"/>
					<path class="st11" d="M1.8,219.8c0,0-5.4,9.8-5.1,15.9C-3.2,235.7-1.2,229.3,1.8,219.8z"/>
					<path class="st11" d="M12.4,212.4c0,0-8,11.1-9.5,19.2C2.8,231.6,6.7,223.9,12.4,212.4L12.4,212.4z"/>
					<path class="st11" d="M-12.3,210.9c0,0-8,11.1-9.5,19.2C-21.9,230.1-18,222.4-12.3,210.9L-12.3,210.9z"/>
					<path class="st11" d="M34.5,206.6c0,0-8,11.1-9.5,19.2C25,225.7,28.8,218.1,34.5,206.6z"/>
					<path class="st11" d="M109.3,215.7c0,0-8,11.1-9.5,19.2C99.7,234.9,103.6,227.2,109.3,215.7L109.3,215.7z"/>
					<path class="st11" d="M134,235.3c0,0,0-6.2,3.8-7.8C137.8,227.4,138.6,231.8,134,235.3z"/>
					<path class="st11" d="M126.4,236c0,0-4.2-4.6-2.5-8.4C123.9,227.6,127.4,230.3,126.4,236z"/>
					<path class="st11" d="M32.7,234.6c0,0-4.2-4.6-2.5-8.4C30.2,226.2,33.7,228.9,32.7,234.6z"/>
					<path class="st11" d="M-15.2,233.8c0,0-4.2-4.6-2.5-8.4C-17.6,225.4-14.1,228.1-15.2,233.8z"/>
					<path class="st11" d="M41.6,229.2c0,0-2.1-5.9,0.9-8.7C42.5,220.5,44.7,224.3,41.6,229.2L41.6,229.2z"/>
					<path class="st11" d="M230.1,230.9c0,0-2.1-5.9,0.9-8.7C231,222.2,233.2,226,230.1,230.9z"/>
					<path class="st11" d="M293.2,233c0,0,1.7-8.4,7.3-9.6C300.5,223.4,300.4,229.5,293.2,233z"/>
					<path class="st11" d="M294.6,225.6c0,0-2.3-8.3,2.2-11.8C296.7,213.8,299.4,219.2,294.6,225.6z"/>
				</g>
				<g>
					<path class="st12" d="M-6.9,182.8c0,0,1.8,1.4,1.8,3.5C-5.2,186.4-7.1,185.4-6.9,182.8z"/>
					<path class="st12" d="M-5.8,180.6c0,0,1.1,2,0.4,3.9C-5.4,184.5-6.9,183-5.8,180.6z"/>
					<path class="st12" d="M-4.4,182.4c0,0,0.6,2.2-0.6,3.9C-5,186.3-6,184.4-4.4,182.4z"/>
					<path class="st12" d="M-7.2,184.8c0,0,1.7,0.8,2.1,2.5C-5.1,187.3-6.8,187-7.2,184.8z"/>
					<path class="st12" d="M-7.4,186.1c0,0,1.9,0.9,2.4,2.8C-5,188.8-7,188.4-7.4,186.1z"/>
					<path class="st12" d="M-7.3,187.5c0,0,1.9,0.9,2.4,2.8C-4.9,190.3-6.9,189.9-7.3,187.5z"/>
					<path class="st12" d="M-7,189c0,0,1.9,0.9,2.4,2.8C-4.7,191.8-6.6,191.4-7,189z"/>
					<path class="st12" d="M-6.8,190.5c0,0,1.9,0.9,2.4,2.8C-4.5,193.3-6.4,192.9-6.8,190.5z"/>
					<path class="st12" d="M-6.6,192.2c0,0,1.9,0.9,2.4,2.8C-4.3,194.9-6.2,194.5-6.6,192.2z"/>
					<path class="st12" d="M-6.4,193.6c0,0,1.9,0.9,2.4,2.8C-4.1,196.3-6,195.9-6.4,193.6z"/>
					<path class="st12" d="M-3.8,184.5c0,0-1.4,1.2-1.5,2.9C-5.3,187.4-3.7,186.6-3.8,184.5z"/>
					<path class="st12" d="M-3.4,185.6c0,0-1.6,1.3-1.7,3.2C-5,188.8-3.2,188-3.4,185.6z"/>
					<path class="st12" d="M-3.1,187c0,0-1.6,1.3-1.7,3.2C-4.8,190.3-3,189.4-3.1,187z"/>
					<path class="st12" d="M-3,188.5c0,0-1.6,1.3-1.7,3.2C-4.7,191.8-2.9,191-3,188.5z"/>
					<path class="st12" d="M-2.9,190.1c0,0-1.6,1.3-1.7,3.2C-4.6,193.3-2.8,192.5-2.9,190.1z"/>
					<path class="st12" d="M-2.7,191.7c0,0-1.6,1.3-1.7,3.2C-4.4,194.9-2.6,194.1-2.7,191.7z"/>
					<path class="st12" d="M-2.6,193.1c0,0-1.6,1.3-1.7,3.2C-4.2,196.4-2.5,195.5-2.6,193.1z"/>
					
						<rect x="-2.8" y="182.9" transform="matrix(0.994 -0.1094 0.1094 0.994 -23.0196 0.9686)" class="st12" width="0.3" height="54.8"/>
				</g>
				<g>
					<path class="st12" d="M3.6,193c0,0,1.6,1.6,1.5,3.6C5.1,196.7,3.2,195.6,3.6,193z"/>
					<path class="st12" d="M4.9,190.9c0,0,1,2.1,0.1,3.9C5,194.8,3.6,193.2,4.9,190.9z"/>
					<path class="st12" d="M6.2,192.8c0,0,0.4,2.2-0.9,3.8C5.3,196.6,4.4,194.7,6.2,192.8z"/>
					<path class="st12" d="M3.2,195c0,0,1.6,0.9,1.9,2.6C5.1,197.7,3.4,197.2,3.2,195z"/>
					<path class="st12" d="M2.9,196.2c0,0,1.8,1.1,2.1,2.9C5,199.2,3.2,198.6,2.9,196.2z"/>
					<path class="st12" d="M2.9,197.6c0,0,1.8,1.1,2.1,2.9C5,200.6,3.1,200.1,2.9,197.6z"/>
					<path class="st12" d="M3,199.2c0,0,1.8,1.1,2.1,2.9C5.2,202.1,3.3,201.6,3,199.2z"/>
					<path class="st12" d="M3.1,200.7c0,0,1.8,1.1,2.1,2.9C5.3,203.7,3.4,203.1,3.1,200.7z"/>
					<path class="st12" d="M3.2,202.3c0,0,1.8,1.1,2.1,2.9C5.3,205.3,3.4,204.8,3.2,202.3z"/>
					<path class="st12" d="M3.3,203.8c0,0,1.8,1.1,2.1,2.9C5.4,206.7,3.5,206.2,3.3,203.8z"/>
					<path class="st12" d="M6.6,194.9c0,0-1.5,1.1-1.7,2.8C4.9,197.7,6.5,197.1,6.6,194.9z"/>
					<path class="st12" d="M7,196.1c0,0-1.7,1.2-1.9,3.1C5,199.2,6.9,198.5,7,196.1z"/>
					<path class="st12" d="M7.1,197.5c0,0-1.7,1.2-1.9,3.1C5.2,200.6,7,199.9,7.1,197.5z"/>
					<path class="st12" d="M7,199c0,0-1.7,1.2-1.9,3.1C5.1,202.1,7,201.5,7,199z"/>
					<path class="st12" d="M7.1,200.6c0,0-1.7,1.2-1.9,3.1C5.1,203.7,7,203,7.1,200.6z"/>
					<path class="st12" d="M7.1,202.2c0,0-1.7,1.2-1.9,3.1C5.2,205.3,7,204.6,7.1,202.2z"/>
					<path class="st12" d="M7.1,203.6c0,0-1.7,1.2-1.9,3.1C5.2,206.7,7.1,206.1,7.1,203.6z"/>
					<polygon class="st12" points="6.4,237.5 4.7,193.4 5,193.4 6.6,237.5 					"/>
				</g>
				<path class="st11" d="M132.8,230.1c0,0-5.3-3.3-4.6-7.4C128.2,222.7,132.3,224.4,132.8,230.1z"/>
			</g>
			<g>
				<g>
					<path class="st5" d="M120.1,122.3v-10.3h-3.7V110h9.8v2.1h-3.7v10.3L120.1,122.3L120.1,122.3z"/>
					<path class="st5" d="M127.9,122.3V110h5.2c1.3,0,2.3,0.1,2.9,0.3s1.1,0.6,1.4,1.2s0.5,1.2,0.5,1.9c0,0.9-0.3,1.7-0.8,2.3
						s-1.4,1-2.4,1.1c0.5,0.3,1,0.7,1.3,1s0.8,1.1,1.4,2l1.5,2.4h-3l-1.8-2.7c-0.6-1-1.1-1.6-1.3-1.8s-0.5-0.4-0.8-0.5
						s-0.7-0.1-1.3-0.1h-0.5v5.2L127.9,122.3L127.9,122.3z M130.4,115.2h1.9c1.2,0,1.9-0.1,2.2-0.2s0.5-0.3,0.7-0.5s0.2-0.6,0.2-0.9
						c0-0.4-0.1-0.8-0.3-1s-0.5-0.4-0.9-0.5c-0.2,0-0.8,0-1.8,0h-1.9V115.2L130.4,115.2z"/>
					<path class="st5" d="M151.5,122.3h-2.7l-1.1-2.8h-4.9l-1,2.8h-2.6l4.8-12.4h2.6L151.5,122.3L151.5,122.3z M146.9,117.5
						l-1.7-4.6l-1.7,4.6C143.5,117.5,146.9,117.5,146.9,117.5z"/>
					<path class="st5" d="M154.7,122.3l-4.4-12.4h2.7l3.1,9.2l3-9.2h2.6l-4.4,12.4H154.7L154.7,122.3z"/>
					<path class="st5" d="M163,122.3V110h9.2v2.1h-6.7v2.7h6.2v2.1h-6.2v3.4h6.9v2.1L163,122.3L163,122.3z"/>
					<path class="st5" d="M174.6,122.3v-12.3h2.5v10.2h6.2v2.1L174.6,122.3L174.6,122.3z"/>
					<path class="st5" d="M99.6,140.3V128h2.5v12.4H99.6z"/>
					<path class="st5" d="M104.5,140.3V128h2.4l5.1,8.2V128h2.3v12.4h-2.5l-5-8.1v8.1H104.5L104.5,140.3z"/>
					<path class="st5" d="M116.3,136.3l2.4-0.2c0.1,0.8,0.4,1.4,0.9,1.8s1.1,0.6,1.8,0.6c0.8,0,1.4-0.2,1.8-0.5s0.6-0.7,0.6-1.2
						c0-0.3-0.1-0.5-0.3-0.8s-0.5-0.4-0.9-0.5c-0.3-0.1-1-0.3-2-0.5c-1.3-0.3-2.3-0.7-2.8-1.2c-0.8-0.7-1.1-1.5-1.1-2.5
						c0-0.6,0.2-1.2,0.5-1.8s0.9-1,1.5-1.2s1.5-0.4,2.4-0.4c1.6,0,2.7,0.3,3.5,1s1.2,1.6,1.2,2.7l-2.5,0.1c-0.1-0.6-0.3-1.1-0.7-1.4
						s-0.9-0.4-1.6-0.4s-1.3,0.1-1.7,0.4c-0.3,0.2-0.4,0.4-0.4,0.8c0,0.3,0.1,0.5,0.4,0.8c0.3,0.3,1.1,0.5,2.3,0.8s2.1,0.6,2.7,0.9
						s1,0.7,1.4,1.3s0.5,1.2,0.5,2c0,0.7-0.2,1.4-0.6,2s-0.9,1.1-1.7,1.4s-1.6,0.4-2.7,0.4c-1.6,0-2.8-0.4-3.6-1.1
						S116.5,137.7,116.3,136.3L116.3,136.3z"/>
					<path class="st5" d="M128.5,128h2.5v6.7c0,1.1,0,1.8,0.1,2.1c0.1,0.5,0.4,0.9,0.8,1.2s0.9,0.5,1.6,0.5s1.2-0.1,1.6-0.4
						s0.6-0.6,0.6-1.1s0.1-1.1,0.1-2.1V128h2.5v6.5c0,1.5-0.1,2.5-0.2,3.1s-0.4,1.1-0.8,1.6s-0.9,0.8-1.4,1s-1.4,0.4-2.4,0.4
						c-1.2,0-2.1-0.1-2.7-0.4s-1.1-0.6-1.4-1.1s-0.6-0.9-0.7-1.4c-0.2-0.7-0.2-1.8-0.2-3.1L128.5,128L128.5,128z"/>
					<path class="st5" d="M141,140.3V128h5.2c1.3,0,2.3,0.1,2.9,0.3s1.1,0.6,1.4,1.2s0.5,1.2,0.5,1.9c0,0.9-0.3,1.7-0.8,2.3
						s-1.4,1-2.4,1.1c0.5,0.3,1,0.7,1.3,1s0.8,1.1,1.4,2l1.5,2.4h-3l-1.8-2.7c-0.6-1-1.1-1.6-1.3-1.8s-0.5-0.4-0.8-0.5
						s-0.7-0.1-1.3-0.1h-0.5v5.2L141,140.3L141,140.3z M143.5,133.2h1.9c1.2,0,1.9-0.1,2.2-0.1s0.5-0.3,0.7-0.5s0.2-0.6,0.2-0.9
						c0-0.4-0.1-0.8-0.3-1s-0.5-0.4-0.9-0.5c-0.2,0-0.8,0-1.8,0h-1.9V133.2L143.5,133.2z"/>
					<path class="st5" d="M164.6,140.3h-2.7l-1.1-2.8h-4.9l-1,2.8h-2.6L157,128h2.6L164.6,140.3L164.6,140.3z M160,135.4l-1.7-4.6
						l-1.7,4.6H160z"/>
					<path class="st5" d="M165.9,140.3V128h2.4l5.1,8.2V128h2.3v12.4h-2.5l-5-8.1v8.1H165.9L165.9,140.3z"/>
					<path class="st5" d="M186.3,135.8l2.4,0.8c-0.4,1.4-1,2.4-1.9,3s-2,1-3.3,1c-1.6,0-3-0.6-4.1-1.7s-1.6-2.6-1.6-4.6
						c0-2.1,0.5-3.6,1.6-4.8s2.5-1.7,4.2-1.7c1.5,0,2.7,0.5,3.7,1.3c0.6,0.5,1,1.3,1.3,2.3l-2.5,0.6c-0.1-0.6-0.4-1.1-0.9-1.5
						s-1-0.6-1.7-0.6c-0.9,0-1.7,0.3-2.2,1s-0.9,1.7-0.9,3.2c0,1.6,0.3,2.7,0.8,3.3s1.3,1,2.2,1c0.7,0,1.2-0.2,1.7-0.6
						S186,136.7,186.3,135.8L186.3,135.8z"/>
					<path class="st5" d="M190.8,140.3V128h9.2v2.1h-6.7v2.7h6.2v2.1h-6.2v3.4h6.9v2.1L190.8,140.3L190.8,140.3z"/>
				</g>
				<path class="st14" d="M109.2,123.4c1-21.7,18.8-38.9,40.7-38.9s39.2,16.7,40.7,37.8c0,0.2,0,0.5,0.1,0.8"/>
				<path class="st14" d="M185.8,144.8c-0.3,0.5-0.6,1-0.9,1.5c-7.1,11.8-20.1,19.7-34.9,19.7s-28.6-8.4-35.6-20.9"/>
			</g>
			<rect x="-0.1" y="0.3" class="st9" width="300" height="250"/>
		</g>
	</g>
</g>
</svg>
