<?xml version="1.0" encoding="UTF-8"?>
<svg id="face" xmlns="http://www.w3.org/2000/svg" viewBox="0 0 74.21 34.18">
  <defs>
    <style>
      .cls-1 {
        fill: #2d2e40;
        fill-rule: evenodd;
      }
    </style>
  </defs>
  <path class="cls-1" d="m67.99,12.35c-.76.22-1.51.26-2.21.12v-3.3c2.3,1.83,5.4-2.21,6.43-4l1.99,1.13c-1.3,2.52-3.36,5.24-6.22,6.06h0ZM65.78.05v2.36c.29,0,.61.21.95.7.61.88.72,2.6-.95,3.57v2.19c5.28-3.36,3.58-9.52,0-8.82Zm0,12.41c-.78-.16-1.51-.54-2.13-1.13-2.31,5.53-3.69,2.12-2.59,9.27.63,4.11-1.57,6.54-3.64,6.83v-2.05s.06-.01.09-.02c1.58-.46,1.01-3.59.51-6.83-.22.36-.42.72-.6,1.07V3.65c1.91.95,2.04,8.24,2.35,9.86,4.29-4.52.14-9.26,4.03-12.45.7-.57,1.37-.89,1.98-1.01v2.36c-1.19,0-1.78,3.53-1.03,4.7.4-.12.74-.26,1.03-.43v2.19c-.06.04-.13.08-.19.12.06.06.13.12.19.17v3.3Zm-8.36,14.97c-1.28.18-2.51-.45-3-1.99v-3.47c.28-1.32.86-2.88,1.81-4.71.59-1.14.93-1.71.77-3.09-.67,1.13-1.59,1.86-2.58,2.07v-2.61c.8-.34,1.61-1.5,1.62-2.48.03-1.86-.07-4.11-.58-5.61-.27.02-.65.15-1.05.46v-2.63c1-.18,2.31,0,2.92.25.03.01.05.02.08.04v15.96c-1.64,3.26-1.35,6.05,0,5.77v2.05Zm-3-1.99c-.27-.86-.31-2.02,0-3.47v3.47h0Zm0-9.2c-.9.19-1.87-.05-2.76-.83-1.31,2.24-3.52,3.61-5.43,1.14-.59,1.26-1.79,2.5-3.13,2.94v-2.41c.8-.32,1.48-2.85,1.34-4.09l-.23-4.14c-.43.12-.8.37-1.11.7v-2.87c.05-.02.1-.03.15-.05.81-.23,2.43-.19,2.97.26,1.94,1.62.53,12.02,3.78,6.73,1.47-2.39-.88-8.76,4.11-10.19.1-.03.2-.05.3-.07v2.63c-.89.7-1.82,2.33-1.59,5.7.13,1.85.86,2.24,1.59,1.93v2.61Zm-11.32,3.26c-1.01.34-2.1.21-3.04-.71-4.25,7.24-2.47,1.45-2.17,9.8.12,3.36-1.86,5.33-3.74,5.57v-2.38c.48-.14.95-1.24.99-3.86l-.36-2.67c-.24.3-.46.61-.64.92V9.11c.58-.14,1.16.51,1.44,3.01l.92,8.09c4.18-4.22.82-11.71,6.59-13.52v2.87c-1.37,1.44-1.6,4.51-1.15,6.09.36,1.24.77,1.59,1.15,1.44v2.41Zm-8.95,14.66c-2.63.34-5.06-2.74-1.19-10.17.6-1.15.93-1.74.79-3.12-2.62,4.12-6.11,2.89-6.96-4.54-.45-.19-3.11-1.48-3.22-1.17,3.56,3.89,1.08,10.63-2.44,10.77v-2.71c.22.02.46,0,.72-.08,2.5-.72.93-6.06-.72-7.22v-2.7c1.69-.37,3.64-.08,5.54,1.15.12-3.54,3.25-4.99,3.04-2.39-.67,8.21,3.91,14.33,2.8-.39-.03-.44.81-2.27,1.64-2.48v17.06c-1.72,2.92-.86,5.85,0,5.6v2.38Zm-13.01-8.23c-1,.04-2.08-.45-3.13-1.69-2.22,2.38-6.29,2.47-6.7-1.36-.9,7.08-4.08,11.6-7.48,1.7-.85-2.49-6.63-14.29-2.13-13.74,1.67.2,5.16,13.54,5.82,15.53.59-2.9,2.69-17.68,4.54-18.93,4.91-3.32-.81,13.24.69,15.14,1,1.27,3.15,1.1,4.25-.01-1.98-4.53.48-8.51,4.15-9.33v2.7c-.75-.53-1.52-.19-1.93,1.86-.27,1.38-.05,5.25,1.93,5.44v2.71Z"/>
</svg>