<?xml version="1.0" encoding="utf-8"?>
<!-- Generator: Adobe Illustrator 27.2.0, SVG Export Plug-In . SVG Version: 6.00 Build 0)  -->
<svg version="1.1" id="Layer_1" xmlns="http://www.w3.org/2000/svg" xmlns:xlink="http://www.w3.org/1999/xlink" x="0px" y="0px"
	 viewBox="0 0 165.4 122.1" style="enable-background:new 0 0 165.4 122.1;" xml:space="preserve">
<style type="text/css">
	.st0{fill:url(#SVGID_1_);}
	.st1{fill:url(#SVGID_00000144300708887824546810000016071077778202238349_);}
	.st2{fill:url(#SVGID_00000116919387412473636370000013307763789509889460_);}
	.st3{fill:#BA050A;}
	.st4{fill:#00309A;}
	.st5{clip-path:url(#SVGID_00000076578729946106190060000010837714609062072487_);fill:#00309A;}
</style>
<g id="Layer_1_00000035512178360004915640000011960351923998399367_">
	<g>
		
			<linearGradient id="SVGID_1_" gradientUnits="userSpaceOnUse" x1="82.7" y1="98.0908" x2="82.7" y2="0.8197" gradientTransform="matrix(1 0 0 -1 0 124)">
			<stop  offset="0" style="stop-color:#F9ED61"/>
			<stop  offset="0.8182" style="stop-color:#F7BA22"/>
			<stop  offset="1" style="stop-color:#F7941E"/>
		</linearGradient>
		<path class="st0" d="M165.4,116.3c0,3.2-3,5.7-6.6,5.7H6.6C3,122,0,119.4,0,116.3V40.8c0-3.2,3-5.7,6.6-5.7h66.8l13.1-8.7h67
			c8.2,0,11.9,4.1,11.9,9.6V116.3z"/>
		
			<linearGradient id="SVGID_00000052064983929428401410000002769481151664529295_" gradientUnits="userSpaceOnUse" x1="82.75" y1="95.1096" x2="82.75" y2="-1.0748" gradientTransform="matrix(1 0 0 -1 0 124)">
			<stop  offset="0.1394" style="stop-color:#FFF261"/>
			<stop  offset="0.8182" style="stop-color:#F7BA22"/>
			<stop  offset="1" style="stop-color:#F7941E"/>
		</linearGradient>
		<path style="fill:url(#SVGID_00000052064983929428401410000002769481151664529295_);" d="M153.5,26.4h-67l-13.1,8.7H6.6
			C3,35.1,0,37.7,0,40.8v75.5c0,3.2,3,5.7,6.6,5.7h11.6c19.4-16.7,81.9-44.7,147.3-57.6V36C165.4,30.5,161.7,26.4,153.5,26.4z"/>
		
			<linearGradient id="SVGID_00000110452437146462693550000004340997597410082732_" gradientUnits="userSpaceOnUse" x1="82.7" y1="96.6719" x2="82.7" y2="54.5596" gradientTransform="matrix(1 0 0 -1 0 124)">
			<stop  offset="0" style="stop-color:#FFFFC9"/>
			<stop  offset="1" style="stop-color:#F7D122"/>
		</linearGradient>
		<path style="fill:url(#SVGID_00000110452437146462693550000004340997597410082732_);" d="M153.5,26.4h-67l-13.1,8.7H6.6
			C3,35.1,0,37.7,0,40.8v1.4c0-3.2,3-5.7,6.6-5.7h66.8l13.1-8.7h67c8.2,0,11.9,4.1,11.9,9.6V36C165.4,30.5,161.7,26.4,153.5,26.4z"
			/>
	</g>
	<g>
		<path class="st3" d="M31.8,68.5c0,0.2,0,0.3,0.1,0.5v-0.2L31.8,68.5z"/>
		<path class="st3" d="M31.6,67.2l0.1,0.5l0.1,0.1C31.7,67.6,31.7,67.2,31.6,67.2z"/>
		<path class="st3" d="M29.3,62.4c0.1,0,0.4,0.5,0.1,0C29.3,62.4,28.9,61.8,29.3,62.4z"/>
		<path class="st3" d="M26.5,90.5c0.3-0.5-0.9,0.1-1.1-0.2c-0.3,0.6-1.5,0.6-2.2,1.4c-0.2,0.1,0.1-0.2,0-0.2
			c-0.2,0.2-0.4,0.4-0.9,0.6V92c-1.4,0.7-2.1,0.9-3.8,1.3l0.2,0.1c-0.4,0.1-0.5,0.1-0.6,0.1c-0.4,0.3,1-0.3,0.7,0.1
			c-0.6-0.1-2.6,0.7-3.1,0.4c-0.6,0.1,0.2,0.1-0.4,0.2l-0.2-0.1L15,94.3c-0.4,0-0.6-0.1-0.6-0.1c0.1,0,0.3,0,0.4-0.1
			c-0.5,0-1.2,0.1-1.5,0.1h0.5c-1.6,0.2-3.6,0-5.1-0.1l0.1,0.1c-1.2-0.1-0.9-0.2-2.2-0.5l0,0c-0.3,0-0.6-0.1-1-0.2
			c0.3,0-0.6-0.3-0.1-0.3c-1.3-0.3-0.6-0.1-1.5-0.1L3.8,93c-0.3,0-0.4,0-1-0.2c0.5,0.1-0.3-0.3,0.3-0.2c-1.1-0.8-1.9-0.7-2.3-1.3
			c-0.7,0,0.9,0.8,0.6,0.6c0.2,0.2-0.6,0-0.9-0.3C0.3,91.5,0.2,91.3,0,91v1c0.8,0.7,3.1,1.7,3.4,1.9C4,94,4.6,94.2,5.3,94.5
			c-0.2-0.1-0.2-0.3,0.4-0.1c-0.3,0.3,1,0.5,1.5,0.9c-0.2-0.2,1.9,0.3,1.2-0.1c0.5,0.1,0,0.2,0.4,0.3c1.3,0,2.9,0.4,4.5,0.2
			c0-0.1-0.3-0.1,0.1-0.2c0.3,0.1,0.6,0.1,0.9,0.2c0.3-0.1,0.3-0.3,0.9-0.2c-0.1,0-0.2-0.1,0-0.1c3.2-0.2,6.2-1.7,9.2-3
			c-0.4,0.1-0.2,0,0.1-0.2c-0.2,0.1-0.1-0.1-0.1-0.2c0.4-0.2,0.8-0.4,1.2-0.6c0.1-0.3,1.2-0.9,1.1-1.1L26.5,90.5z"/>
		<path class="st3" d="M15.8,60.5c-0.2,0-0.4-0.1-0.3,0.1c0.4,0.2,0.1-0.1,0.4,0.1C16.1,60.6,15.7,60.5,15.8,60.5z"/>
		<path class="st3" d="M29.5,62.1c0.1,0.1,0.2,0.3,0.2,0.2l-0.3-0.5C29.3,61.7,29.3,61.9,29.5,62.1z"/>
		<path class="st3" d="M24.7,88.2c0.3-0.4-0.8,0.2-0.8-0.1c-0.3,0.5-1.3,0.6-1.9,1.3c-0.2,0.1,0.1-0.1,0-0.1
			c-0.1,0.2-0.4,0.3-0.8,0.5l0,0c-1.3,0.6-1.8,0.8-3.4,1.2l0.1,0.1c-0.3,0.1-0.4,0.1-0.6,0.1c-0.3,0.3,0.9-0.3,0.6,0
			c-0.5,0-2.3,0.6-2.7,0.4c-0.5,0.1,0.2,0.1-0.3,0.2h-0.1l-0.1,0.1c-0.3,0-0.5,0-0.5-0.1h0.3c-0.4,0-1,0.1-1.3,0.1h0.4
			c-1.4,0.2-3.1,0-4.5-0.1l0.1,0.1c-1.1-0.1-0.8-0.2-2-0.4l0,0c-0.2,0-0.5-0.1-0.8-0.2c0.3,0-0.5-0.3-0.1-0.2
			C5.2,90.8,5.7,91,5,90.9l-0.1-0.1c-0.3,0-0.3,0-0.8-0.2c0.5,0.1-0.3-0.3,0.2-0.1c-1-0.6-1.7-0.6-2-1.1C1.6,89,3,89.7,2.7,89.6
			c0.2,0.2-0.5-0.1-0.8-0.3c-0.3-0.2-0.4-0.6-1.2-1.1c0.1,0.1,0.1,0,0.2,0.1C0.6,88,0.3,87.9,0,87.6v0.2l0.1,0.1c0,0-0.1,0-0.1-0.1
			v0.8l0,0c0.3,0.2,0.1,0.2,0.2,0.3c0,0,0,0,0.2,0.1l0.7,0.5l-0.2-0.3c0.3,0.2,0.7,0.4,0.5,0.2C1.9,90,4.2,91,4.5,91.1
			c0.5,0.1,1,0.3,1.7,0.5c-0.2-0.1-0.2-0.2,0.3,0c-0.3,0.2,0.9,0.4,1.4,0.7c-0.2-0.1,1.6,0.3,1,0c0.5,0.1,0,0.1,0.4,0.2
			c1.1,0.1,2.5,0.3,3.9,0.2c0,0-0.2-0.1,0.1-0.2c0.3,0.1,0.5,0.1,0.8,0.1c0.3-0.1,0.2-0.2,0.8-0.2c-0.1,0-0.2,0,0-0.1
			c2.8-0.2,5.5-1.5,8-2.7c-0.4,0.1-0.1,0,0.1-0.2c-0.2,0.1,0-0.1-0.1-0.1c0.4-0.2,0.7-0.4,1.1-0.5c0.1-0.2,1-0.8,1-1L24.7,88.2z
			 M0.4,88.9L0.4,88.9C0.5,88.9,0.4,88.9,0.4,88.9z"/>
		<path class="st3" d="M19.1,83.3c-0.1,0.1,0-0.1-0.1-0.1c0.1-0.1,0.3-0.1,0.4-0.2l-0.7-0.4c-0.2,0.1-0.3,0.2-0.5,0.4
			c-0.1,0,0.1-0.1,0-0.1c-0.1,0.2-0.2,0.2-0.5,0.3l0,0c-0.8,0.4-1.2,0.5-2.1,0.7l0.1,0.1c-0.2,0-0.3,0-0.4,0
			c-0.2,0.2,0.6-0.1,0.4,0.1c-0.3-0.1-1.5,0.4-1.7,0.2c-0.3,0.1,0.1,0.1-0.2,0.2h-0.1l-0.1,0.1c-0.2,0-0.3-0.1-0.3-0.1h0.2
			c-0.3,0-0.7,0.1-0.8,0.1H13c-0.9,0.2-2,0-2.8,0l0.1,0.1c-0.7,0-0.5-0.2-1.2-0.3l0,0c-0.2,0-0.3,0-0.5-0.1c0.2,0-0.3-0.2-0.1-0.2
			c-0.7-0.1-0.4,0-0.9,0L7.5,84c-0.2,0-0.2,0-0.5-0.1c0.3,0.1-0.2-0.2,0.2-0.1c-0.6-0.4-1.1-0.4-1.3-0.7c-0.4,0,0.5,0.4,0.3,0.4
			c0.1,0.1-0.3,0-0.5-0.1S5.5,82.9,5,82.6l0.1,0.1c-0.1-0.2-0.4-0.2-0.6-0.4c-0.2,0-0.3-0.2-0.4-0.1L4.6,82c-0.3-0.2-0.6-0.2-1-0.6
			c0.1,0,0.2,0.1,0.3,0.1c-0.1-0.1-0.3-0.2-0.3-0.3c0.1-0.1,0.5,0.4,0.9,0.5c-0.1-0.2-0.6-0.3-0.3-0.3c-0.3,0-0.4-0.4-0.8-0.6h0.1
			c-0.1,0-0.2-0.1-0.3-0.2l0.2,0.1C3.1,80.5,3,80.2,2.8,80c0.4,0.5,0,0.2,0.1,0.5c-0.6-0.6-0.1-0.5-0.7-1.2c0.1,0.1,0.2,0.4,0.1,0.3
			c-0.1-0.1-0.2-0.4-0.2-0.5c-0.3-0.5,0,0.1-0.2-0.1c0-0.2-0.2-0.2-0.4-0.4l0.1-0.1c-0.3-0.6-0.3-0.1-0.5-0.7L1.3,78l-0.2-0.3h0.1
			C1,77.4,0.9,77.3,0.8,77c0,0.1-0.2,0-0.3-0.3c0-0.2,0.1,0.1,0-0.3c0.1,0.1,0.2,0.1,0.2,0.4l0.1,0.1c0-0.2-0.2-0.5-0.2-0.7v0.2
			c-0.1-0.2-0.2-0.4-0.3-0.6c0-0.1,0.1,0,0.1,0c0-0.1-0.1-0.2-0.2-0.4c0.1,0,0.2,0,0.3,0.2L0.3,75c0,0,0-0.3,0.1-0.2
			c0-0.3-0.3-0.8-0.3-1.2c0,0,0-0.1-0.1-0.2c0-0.4,0-0.8,0-1.3l0.2-0.3c0-0.3-0.1,0.1-0.2,0v5.3c0,0.1,0.1,0.1,0.2,0.1
			c0.1,0.2,0.2,0.3,0.3,0.4c-0.3-0.6,0.2,0,0.1-0.3c0.1,0.2,0.2,0.7,0,0.4v-0.1c-0.2,0,0.3,0.8,0.2,0.8c0.7,1.2,1.5,2.3,2.4,3.2
			v-0.2c0.1,0.1,0.2,0.2,0.3,0.3c0.1,0.1,0,0.2-0.2,0C3.4,81.9,3.8,82,3.8,82c0.4,0.5-0.3,0-0.2,0.1l0.2,0.2v-0.1
			C4,82.3,4,82.3,4.4,82.5c0.2,0.2,0,0.1,0.1,0.2c0,0,0,0,0.1,0.1l0.5,0.3l-0.1,0c0.2,0.1,0.4,0.3,0.3,0c0.2,0.4,1.8,1.1,2,1.2
			c0.3,0.1,0.7,0.2,1.1,0.3c-0.1-0.1-0.1-0.2,0.2-0.1c-0.2,0.2,0.6,0.3,0.8,0.5c-0.1-0.1,1,0.2,0.7-0.1c0.3,0.1,0,0.1,0.2,0.2
			c0.7,0,1.6,0.2,2.5,0.1c0,0-0.1-0.1,0-0.2l0.5,0.2c0.2,0,0.1-0.2,0.5-0.1c0,0-0.1-0.1,0-0.1c1.8-0.1,3.5-1,5.2-1.6
			C18.8,83.5,19,83.4,19.1,83.3z M4.6,82.9L4.6,82.9C4.7,82.9,4.7,82.9,4.6,82.9z"/>
		<path class="st3" d="M36,71.8c-0.1-0.2-0.1-0.3-0.2-0.5l0.1,0.4L36,71.8z"/>
		<path class="st3" d="M34.9,65.4c0.2,0.1-0.5-1.1-0.2-0.2C34.7,65.4,34.9,65.3,34.9,65.4z"/>
		<path class="st3" d="M7.7,59.8C7.2,60,6.9,60,6.6,60.3l0.7,0.4c0.2-0.2,0.5-0.4,1-0.6c-0.2,0.2,0,0.2,0,0.3
			c-0.2-0.1-0.5,0.3-0.9,0.4c0.2-0.1,0.2,0,0.1,0.1l0.6-0.4c0,0.1,0.2,0,0.4,0c-0.2-0.2,0.5-0.3,0.7-0.4c0,0.1,0,0.2-0.4,0.2
			c0.4,0.1,0.4-0.4,0.8-0.3l0,0c0.2-0.1,0.5-0.1,0.4,0H9.9c0.6-0.1,1.7-0.2,1.8-0.4l-0.1,0.3c0.3-0.2,0.7-0.4,1-0.6
			c-0.1,0.1,0.2,0.5-0.2,0.6c0.1,0,0.3,0,0.6,0c-0.1,0-0.2-0.2-0.1-0.2c0.3,0.2,0.2,0.1,0.6,0.3c-0.1,0,0-0.3,0.3-0.2L13.7,60
			c0.2-0.1,0.4-0.1,0.6-0.1c-0.1,0-0.1,0.2,0,0.3c0-0.1,0.5,0.1,0.6,0.1l-0.2-0.1c0.6,0.2,0.7-0.2,1.3,0c-0.1,0-0.3,0.2,0,0.4
			c0.2-0.1,0.8-0.3,1.4-0.2l0.1,0.1c0.1,0,0.3,0.1,0.4,0.1c-0.3,0-1.2,0.1-1.6,0.1c0.2,0.1,0,0.1,0.3,0.2c0.1,0.1-0.2,0-0.3,0
			l0.7,0.4c0-0.2,0.6,0.1,0.6,0c-0.3-0.1-0.6-0.2-0.8-0.2c0-0.1,0.6-0.2,1.1,0.1c0.1,0.1-0.2,0.2-0.2,0.2l0.5,0.2L18,61.5
			c0.2,0.2,0.5,0.1,0.8,0.4c0.1,0.1,0.2,0.4,0.3,0.3c-0.1-0.2,0.2-0.7,0.4-0.7c0,0,0.5,0.5,0.6,0.7s-0.4,0-0.4,0.2h0.2
			c0.1,0.1-0.1,0.1,0.1,0.2c0.1-0.1,0.5,0.4,0.2,0c0.2,0.2,0.2,0.2,0.5,0.5c0-0.1,0.4,0,0.7,0.2v0.1c0.4,0.4,0.5,0.8,0.9,1.2
			c0,0.1,0.1,0.3,0,0.2c0.1,0.1,0.1,0.1,0.2,0.2c0.1,0.4-0.2-0.3-0.2,0c0.1,0,0.3,0.3,0.5,0.5c0.1-0.1-0.3-0.5-0.5-0.7
			c0.1-0.1,0.5,0.2,0.9,0.6c0.3,0.4,0,0.2,0.1,0.3c0.4,0.8,0.7,0.5,0.8,1.3c0,0.3-0.2,0.1-0.3,0.2c-0.2-0.4-0.2-0.6-0.3-0.8l0.1,0.3
			c-0.1-0.1-0.2-0.3-0.3-0.5c0,0.3,0.6,1.4,0.7,2.1c0.1,0.1,0.2,0.3,0.2,0.2l-0.1-0.2c0-0.2,0.2,0.4,0.2,0.1c0.1,0.3,0.4,0.6,0.4,1
			l-0.1,0.1c0,0,0-0.3,0-0.4c0.1,0.2-0.1,0.7,0.1,0.8v-0.3c0.1,0.3,0.3,0.6,0.3,1c0.1-0.2,0-0.1,0.1-0.4c-0.1,0.3-0.2-1-0.3-0.6
			c0.1-0.3,0-0.5,0.1-0.9c0,0,0,0.1-0.1-0.2L25,69l0,0l0,0l0,0v0.2c-0.1-0.1-0.3-0.6-0.4-0.8c0-0.2,0.1,0.1,0.1,0l-0.1-0.2
			c0.1-0.1,0-0.5,0.2-0.1l-0.1-0.4c0-0.2-0.1-0.6-0.2-0.7c-0.1-0.2-0.3-0.4-0.2-0.3L24,66.2l0,0c-0.3-0.6-0.8-1-1-1.7
			c-0.1-0.2-0.3-0.3-0.5-0.6v-0.1c-0.2-0.2-0.5-0.6-0.6-0.7c0-0.4-0.9-0.9-1.3-1.3l-0.1,0.1c-0.2-0.2-0.5-0.4-0.9-0.5v0.1
			c-0.3-0.1-0.7-0.5-1.2-0.8l0.2,0.1c-0.5-0.5-1.3-0.5-1.8-0.8c-0.2,0-0.2-0.1-0.3-0.1l0,0h-0.1l-0.2-0.1l0.2,0.1
			c-0.1,0-0.3-0.1-0.4-0.1v-0.1l0,0c-0.1-0.1-0.1,0-0.1,0.1h-0.2c-0.1-0.2-0.4,0-0.6-0.2c-0.1,0-0.7-0.1-0.9,0
			c-0.2,0-0.4-0.1-0.5-0.1l-0.1-0.1c-0.1,0-0.3,0.1-0.4,0.1c-0.2-0.1-0.3-0.1-0.1-0.2c-0.6,0.1-0.5,0-1,0.2v-0.1
			c-0.2,0-0.5,0.1-0.6,0.1c-0.4-0.2-2,0.2-3,0.4c0.3,0.2-0.5,0-0.5,0.2C7.7,59.9,7.6,59.9,7.7,59.8z"/>
		<path class="st3" d="M17.6,53.5c0.6,0.2,0.2-0.1,0.7,0.1c0.2,0-0.4-0.2-0.3-0.2C17.6,53.4,17.4,53.3,17.6,53.5z"/>
		<path class="st3" d="M12.6,52.3l-0.5,0.3c0.3-0.1,0.5-0.1,0.7-0.1L12.6,52.3z"/>
		<path class="st3" d="M31.1,58l0.1,0.2c0.2,0.2,0.3,0.4,0.5,0.6C31.5,58.5,31.4,58.2,31.1,58z"/>
		<path class="st3" d="M18.6,49.3l0.1,0.2c0.3,0.1,0.5,0.1,0.6,0.2C18.9,49.5,18.6,49.2,18.6,49.3z"/>
		<path class="st3" d="M32,59.5c-0.1-0.3-0.3-0.5-0.4-0.7C31.8,59.2,31.9,59.5,32,59.5z"/>
		<path class="st3" d="M32.7,72.9L32.7,72.9L32.7,72.9c0-0.1,0.1-0.3,0.1-0.6c0-0.3-0.1-0.4-0.1-0.4V72.9z"/>
		<path class="st3" d="M35.7,69.4c-0.2,0.4-0.2-1.7-0.4-1c0.2-0.5,0-0.9,0-1.5c-0.1,0-0.1,0.3-0.2-0.3L35,66.5l0,0l0,0l0,0
			c0,0.1,0,0.3,0,0.3c-0.2-0.2-0.4-1.1-0.6-1.4c-0.1-0.3,0.1,0.1,0.1-0.1l-0.2-0.4c0.1-0.1-0.1-0.9,0.3-0.2L34.4,64
			c-0.1-0.4-0.3-1-0.5-1.3c-0.1-0.3-0.5-0.7-0.3-0.5c-0.2-0.3-0.4-0.7-0.6-1l0,0c-0.5-1-1.3-1.9-1.9-3c-0.2-0.3-0.5-0.6-0.9-1.1
			v-0.2c-0.3-0.3-0.9-1.2-1.1-1.2c-0.1-0.6-1.6-1.7-2.3-2.2l-0.1,0.1c-0.5-0.4-0.9-0.7-1.6-1v0.1c-0.6-0.2-1.3-0.9-2.2-1.4
			c0.1,0,0.3,0.1,0.4,0.2c-0.9-0.9-2.3-0.9-3.2-1.5c-0.3,0-0.4-0.1-0.6-0.2h0.1h-0.1c-0.1-0.1-0.2-0.1-0.3-0.2
			c0.1,0.1,0.2,0.1,0.3,0.2c-0.2-0.1-0.5-0.1-0.8-0.2l-0.1-0.2h-0.1c-0.3-0.1-0.2,0-0.1,0.2c-0.2,0-0.3,0-0.4,0
			c-0.2-0.3-0.8-0.1-1.1-0.4c-0.2,0.1-1.3-0.1-1.7,0c-0.3-0.1-0.6-0.1-0.9-0.1l-0.1-0.2C14,49,13.8,49,13.5,49.1
			c-0.4-0.1-0.6-0.2-0.2-0.3c-1.1,0.2-0.9,0.1-1.8,0.3V49c-0.3,0-0.8,0.2-1,0.1c-0.7-0.2-3.6,0.4-5.4,0.8c0.5,0.2-0.9,0.1-0.9,0.4
			c-0.1,0-0.4,0-0.1-0.2c-0.9,0.4-1.4,0.4-1.9,0.9c-0.1,0,0.1-0.2,0-0.2S2,51,1.8,51c-0.1,0,0.1-0.1,0.2-0.2c-0.9,0.4-0.8,0.7-0.8,1
			c-0.5,0.1-0.7,0.3-0.9,0.6c-0.2,0-0.5,0.1,0-0.2c-0.1,0-0.3,0.1-0.5,0.3v1.1c0.2-0.1,0.4-0.2,0.6-0.2c-0.5,0.1,0-0.4,0.4-0.8
			c-0.2,0-0.4,0.1-0.5,0.1c0.4-0.5,0.7-0.7,1-0.8c0.1,0,0.1,0.1,0,0.2L1.4,52c0.3-0.1,0.2,0.1,0.1,0.3H1.1c-0.1,0.2-0.3,0.4-0.2,0.5
			c0-0.1,0.1-0.1,0.2-0.2v0.1c0,0,0.1-0.1,0.2-0.2l0.3,0.1v-0.1c0.4-0.1,0.8-0.3,1.1-0.4C3.5,51.6,4,51,5.4,50.4
			c-0.3,0.3,0,0.3,0,0.5c-0.4-0.1-1,0.4-1.7,0.7c0.4-0.1,0.3,0,0.2,0.1c0.4-0.2,0.7-0.4,1.1-0.6c0,0.2,0.3,0,0.6,0
			c-0.3-0.2,0.9-0.5,1.3-0.7c0.1,0.1,0,0.2-0.7,0.4c0.7,0.1,0.8-0.6,1.5-0.5c0.4-0.1,0.9-0.1,0.7,0l0,0c1.1-0.2,3-0.3,3.1-0.5
			c0,0-0.1,0.3-0.2,0.4c0.6-0.3,1.2-0.6,1.9-0.9c-0.2,0.2,0.4,0.8-0.4,0.9c0.2,0.1,0.5,0.1,1.1,0.1c-0.2,0-0.4-0.4-0.2-0.4
			c0.6,0.3,0.4,0.2,1.2,0.5c-0.2-0.1,0.1-0.4,0.5-0.3c-0.1,0,0,0.4-0.2,0.4c0.3-0.1,0.6-0.1,1-0.2c-0.2,0,0,0.3,0.1,0.4
			c-0.1-0.1,0.8,0.2,1.1,0.2L17,50.7c1.1,0.3,1.2-0.2,2.3,0.1c-0.2,0-0.5,0.3,0.1,0.5c0.3-0.1,1.4-0.4,2.4-0.1l0.1,0.2
			c0.3,0.1,0.5,0.1,0.7,0.2c-0.6,0-2,0-2.7-0.1c0.4,0.2,0.1,0.2,0.6,0.4c0.2,0.2-0.4,0-0.5-0.1c0.4,0.2,0.9,0.4,1.3,0.6
			c0-0.2,1.1,0.3,1.1,0.1c-0.5-0.2-1-0.3-1.5-0.5c0-0.2,1.1-0.2,2,0.4c0.2,0.2-0.3,0.2-0.4,0.3c0.2,0,0.9,0.4,1,0.4L23.1,53
			c0.4,0.4,0.9,0.2,1.4,0.8c0.2,0.1,0.4,0.6,0.5,0.5c-0.2-0.4,0.2-1.1,0.5-1.1c0.1,0.1,0.9,0.9,1,1.2c0.2,0.4-0.7,0-0.6,0.3l0.3,0.1
			c0.2,0.2-0.2,0.1,0.2,0.4c0.2-0.1,0.8,0.7,0.3,0c0.4,0.3,0.4,0.4,0.8,0.8c-0.1-0.2,0.7,0.1,1.2,0.4v0.2c0.7,0.8,1,1.4,1.6,2.2
			c0,0.1,0.3,0.5,0.1,0.4c0.1,0.1,0.2,0.2,0.4,0.4c0.2,0.6-0.4-0.6-0.3-0.1c0.1,0,0.6,0.6,0.9,0.9c0.1-0.2-0.5-0.9-0.8-1.2
			c0.2-0.1,0.9,0.3,1.6,1.2c0.5,0.7,0,0.4,0.1,0.5c0.7,1.5,1.1,1,1.4,2.4c0,0.6-0.3,0.1-0.4,0.3c-0.3-0.6-0.3-1-0.5-1.5l0.2,0.6
			c-0.1-0.2-0.4-0.6-0.4-0.8c0.1,0.5,1.1,2.5,1.3,3.7c0.1,0.2,0.3,0.5,0.3,0.4l-0.1-0.4c0-0.4,0.4,0.7,0.3,0.2
			c0.2,0.5,0.5,1,0.6,1.8L34.9,68c0.1,0,0-0.5-0.1-0.7c0.1,0.3,0,1.2,0.3,1.5v-0.5c0.2,0.5,0.5,1.2,0.5,1.8
			C35.7,69.7,35.6,69.9,35.7,69.4z M1.7,52.2C1.9,52.1,2,52,2.2,52C2.2,52.1,2,52.2,1.7,52.2z M15.3,49.2
			C15.3,49.2,15.2,49.2,15.3,49.2L15.3,49.2z M34.1,63.5C34,63.1,34,63.2,34.1,63.5L34.1,63.5z"/>
		<path class="st3" d="M34.4,66.5l0.1,0.6l0.1,0.1C34.5,66.9,34.5,66.5,34.4,66.5z"/>
		<path class="st3" d="M34.7,68.6v-0.2L34.6,68C34.6,68.2,34.7,68.4,34.7,68.6z"/>
		<path class="st3" d="M35.4,76.2c0-0.2,0-0.4,0.1-0.6l0,0C35.4,75.9,35.4,76,35.4,76.2z"/>
		<path class="st3" d="M35.5,75.6C35.5,75.6,35.6,75.8,35.5,75.6c0.1-0.3,0.1-0.6,0.1-0.9C35.6,75,35.5,75.3,35.5,75.6z"/>
		<path class="st3" d="M35.7,74.2L35.7,74.2L35.7,74.2L35.7,74.2L35.7,74.2L35.7,74.2C35.7,73.8,35.7,74.1,35.7,74.2L35.7,74.2
			L35.7,74.2c0-0.4,0-0.7,0-1.1C35.7,73.3,35.7,73.6,35.7,74.2c-0.2-0.2-0.2-0.8-0.4-0.5c0,0.6,0.1,0.5,0.1,0.9
			C35.5,73.5,35.5,74.9,35.7,74.2c-0.1,0.2-0.1,0.3-0.1,0.5C35.7,74.5,35.7,74.3,35.7,74.2L35.7,74.2z"/>
		<path class="st3" d="M35.7,71.9c0,0.4,0,0.7,0,1.1v-0.1v0.2c0-0.3,0.1-0.4,0.2-0.8C35.8,72,35.8,71.9,35.7,71.9z"/>
		<path class="st3" d="M35.7,76c0.1,0.2,0.2-0.3,0.2,0c0-0.4,0-0.7,0-1C35.9,75.3,35.8,75.6,35.7,76z"/>
		<path class="st3" d="M35.2,69c-0.1,0.1,0,0.4,0,0.7v-0.1C35.4,69.8,35.3,69.4,35.2,69z"/>
		<path class="st3" d="M35,76c-0.1,0.5,0,0.4,0,0.5c0-0.3,0.1-0.6,0.1-0.9L35,76L35,76z"/>
		<path class="st3" d="M32.4,73.5c0,0.6,0,0.4,0,0.7c0.1-0.9,0,0.3,0.1-0.4c0,0.2,0,0.3,0,0.5l0.1-0.5l0,0l0,0l0,0l0,0l0,0l0,0
			c0-0.3,0,0,0,0l0,0l0,0c0-0.3,0-0.6,0-0.9c0,0.2,0,0.4-0.1,0.9C32.5,73.7,32.5,73.2,32.4,73.5z"/>
		<path class="st3" d="M35.7,71.8c-0.1,0-0.1,0-0.2-0.6c0,0.2-0.1,1.2-0.3,0.7c-0.1-0.7,0-0.6,0.1-0.9c-0.1,0.3-0.3-0.9-0.5-0.7
			c0.1,0.2,0.1,0.4,0.1,0.6c0,0-0.1-0.2-0.1,0c0.1,0,0.3,0.6,0.1,1.2C35.1,72.6,35.5,72.3,35.7,71.8z"/>
		<path class="st3" d="M31.6,61.1c0.1,0,0.4,0.5,0.2,0C31.7,61.1,31.2,60.4,31.6,61.1z"/>
		<path class="st3" d="M12.7,49.6l-0.6,0.5c0.4-0.2,0.6-0.2,0.8-0.1L12.7,49.6z"/>
		<path class="st3" d="M32.6,69.7c-0.1,0.4-0.2-1.5-0.3-0.9c0.1-0.5-0.1-0.7,0-1.3c0,0,0,0.2-0.1-0.3l-0.1-0.1l0,0l0,0l0,0
			c0,0.1,0,0.2,0,0.3c-0.1-0.2-0.4-1-0.5-1.2c-0.1-0.3,0.1,0.1,0.1-0.1l-0.2-0.4c0.1-0.1-0.1-0.8,0.2-0.2L31.5,65
			c-0.1-0.4-0.3-0.8-0.4-1.1c-0.1-0.3-0.4-0.6-0.2-0.4c-0.2-0.3-0.3-0.6-0.5-0.8l0,0c-0.4-0.9-1.1-1.6-1.6-2.6
			c-0.2-0.3-0.4-0.5-0.8-0.9v-0.1c-0.3-0.3-0.8-1-1-1.1c-0.2-0.5-1.4-1.5-2-1.9L24.9,56c-0.4-0.3-0.8-0.6-1.4-0.9v0.1
			C23,55,22.4,54.4,21.6,54c0.1,0,0.3,0.1,0.4,0.2c-0.8-0.7-2-0.8-2.8-1.3c-0.2,0-0.4-0.1-0.5-0.2h0.1h-0.1l-0.3-0.1
			c0.1,0,0.2,0.1,0.2,0.1c-0.2-0.1-0.4-0.1-0.7-0.2l-0.1-0.1h-0.1c-0.2-0.1-0.2,0-0.1,0.1c-0.1,0-0.3,0-0.4,0
			c-0.2-0.2-0.7-0.1-0.9-0.3c-0.2,0-1.2-0.2-1.4,0c-0.3-0.1-0.6-0.1-0.8-0.1L14,51.9L13.4,52c-0.4-0.1-0.5-0.2-0.2-0.2
			c-0.9,0.1-0.8,0-1.5,0.2v-0.1c-0.3,0-0.7,0.1-0.9,0.1c-0.6-0.1-3.1,0.3-4.7,0.7c0.4,0.1-0.8,0.1-0.8,0.3c-0.1,0-0.3,0-0.1-0.1
			c-0.8,0.3-1.2,0.4-1.7,0.8c-0.1,0,0.1-0.2,0-0.1l-0.3,0.2c-0.1,0,0.1-0.1,0.2-0.2c-0.8,0.4-0.8,0.6-0.7,0.8
			c-0.4,0.1-0.6,0.2-0.8,0.5c-0.2,0-0.4,0.1,0-0.2c-0.3,0.1-1.6,0.9-1.5,1c-0.1,0-0.3,0.2-0.4,0.3c0,0-0.1,0-0.1,0.1v0.4l0.2,0.1
			l0,0h0.1c0.6-0.5,0.5-0.5,1-1c0.2-0.1,0.4-0.2,0.6-0.3c-0.4,0.1,0-0.3,0.4-0.6c-0.2,0-0.3,0.1-0.4,0.1c0.2-0.2,0.5-0.3,0.7-0.5
			c0.1,0,0,0.1,0,0.2l0.1-0.1c0.3-0.1,0.2,0,0,0.2l-0.3,0.1C2.2,54.9,2,55,2.1,55.1c0,0,0.1-0.1,0.2-0.2V55c0,0,0.1-0.1,0.2-0.2h0.2
			v-0.1c0.3-0.1,0.7-0.3,1-0.4C4.5,54,5,53.6,6.2,53.1c-0.3,0.2,0,0.2,0,0.3c-0.4,0-0.9,0.3-1.5,0.6C5,53.9,5,54,4.9,54
			c0.3-0.2,0.7-0.3,1-0.5c0,0.1,0.2,0,0.5,0c-0.3-0.1,0.8-0.4,1.2-0.5c0,0.1,0,0.2-0.6,0.3c0.6,0,0.7-0.4,1.3-0.4
			c0.3-0.1,0.8-0.1,0.7,0c0.9-0.1,2.6-0.3,2.7-0.4l-0.2,0.3c0.5-0.2,1.1-0.4,1.6-0.6c-0.1,0.1,0.4,0.5-0.4,0.6
			c0.2,0,0.5,0.1,0.9,0.1c-0.1,0-0.3-0.3-0.1-0.2c0.5,0.2,0.4,0.1,1,0.3c-0.2-0.1,0.1-0.3,0.4-0.2c-0.1,0,0,0.2-0.1,0.2
			c0.3,0,0.6-0.1,0.9-0.1c-0.2,0-0.1,0.2,0.1,0.3c-0.1-0.1,0.7,0.2,1,0.2l-0.3-0.1c0.9,0.3,1-0.1,2,0.2c-0.1,0-0.4,0.2,0.1,0.4
			c0.2,0,1.1-0.2,2,0.1l0.1,0.1c0.2,0.1,0.4,0.1,0.6,0.2c-0.5,0-1.7-0.2-2.3-0.3c0.3,0.2,0.1,0.1,0.6,0.3c0.2,0.1-0.3,0-0.5-0.1
			c0.4,0.2,0.8,0.3,1.1,0.5c0-0.2,0.9,0.3,0.9,0.2c-0.4-0.2-0.9-0.3-1.3-0.5c0-0.1,0.9,0,1.7,0.4c0.2,0.2-0.3,0.1-0.3,0.2
			c0.1,0,0.8,0.3,0.8,0.4l-0.4-0.1c0.4,0.3,0.8,0.3,1.2,0.7c0.2,0.1,0.4,0.5,0.5,0.5c-0.2-0.3,0-0.8,0.3-0.7c0.1,0.1,0.8,0.8,0.9,1
			c0.2,0.3-0.6-0.1-0.4,0.2l0.3,0.1c0.1,0.2-0.1,0,0.2,0.3c0.2-0.1,0.7,0.7,0.2,0.1c0.4,0.3,0.4,0.3,0.8,0.7
			c-0.1-0.2,0.6,0.1,0.9,0.4v0.2c0.6,0.7,0.9,1.2,1.5,1.9c0,0.1,0.2,0.5,0.1,0.3c0.1,0.1,0.2,0.2,0.4,0.4c0.2,0.5-0.4-0.5-0.3-0.1
			c0.1,0,0.5,0.5,0.7,0.8c0.1-0.2-0.5-0.8-0.7-1.1c0.1-0.1,0.7,0.4,1.2,1.2c0.4,0.6,0.1,0.3,0.1,0.4c0.6,1.3,0.8,0.9,1.2,2.1
			c0.1,0.5-0.2,0.1-0.2,0.2c-0.3-0.6-0.3-0.9-0.5-1.3l0.2,0.5c-0.1-0.2-0.3-0.5-0.4-0.7c0.1,0.4,1,2.2,1.1,3.3
			c0.1,0.2,0.2,0.5,0.2,0.3L31,66.7c0-0.3,0.3,0.6,0.2,0.2c0.2,0.4,0.4,0.9,0.5,1.6H32c0,0,0-0.4-0.1-0.6c0.1,0.3,0,1,0.2,1.3v-0.5
			c0.1,0.5,0.4,1,0.4,1.6C32.7,70,32.5,70.2,32.6,69.7z M3,54.6c0.1-0.1,0.3-0.1,0.4-0.2C3.4,54.5,3.2,54.6,3,54.6z M14.9,52.1
			C14.9,52.1,14.8,52.1,14.9,52.1L14.9,52.1z M31.2,64.6C31.1,64.3,31.1,64.4,31.2,64.6L31.2,64.6z"/>
		<path class="st3" d="M18.8,51c-0.4,0-0.6-0.2-0.5,0.1c0.7,0.3,0.2-0.1,0.8,0.1C19.3,51.2,18.6,51,18.8,51z"/>
		<path class="st3" d="M32.1,60.8l-0.4-0.5c-0.1,0,0,0.1,0.1,0.3C32,60.7,32.1,60.9,32.1,60.8z"/>
		<path class="st3" d="M29.5,61.2c-0.1-0.3-0.2-0.5-0.3-0.6C29.3,60.9,29.3,61.1,29.5,61.2z"/>
		<path class="st3" d="M17.7,52.3l0.1,0.1c0.2,0.1,0.4,0.1,0.5,0.2C18,52.4,17.7,52.2,17.7,52.3z"/>
		<path class="st3" d="M28.6,59.9l0.1,0.1c0.1,0.2,0.3,0.3,0.4,0.5C29,60.3,28.8,60.1,28.6,59.9z"/>
		<path class="st3" d="M32.7,71.9c0,0-0.1,0-0.1-0.5c0,0.2-0.1,1-0.2,0.6c0-0.6,0-0.5,0.1-0.8c-0.1,0.3-0.2-0.8-0.3-0.6l0.1,0.5
			c0,0-0.1-0.2-0.1,0c0.1,0,0.2,0.6,0.1,1C32.2,72.6,32.5,72.3,32.7,71.9z"/>
		<path class="st3" d="M32.6,75.5L32.6,75.5L32.6,75.5C32.7,75.5,32.7,75.3,32.6,75.5c0.1-0.3,0.1-0.6,0.1-0.8
			C32.7,74.9,32.7,75.2,32.6,75.5z"/>
		<path class="st3" d="M32.5,75.1c0-0.2,0-0.4,0-0.7l-0.1,0.8C32.5,75.2,32.5,75.3,32.5,75.1z"/>
		<path class="st3" d="M32.3,69.4c-0.1,0,0,0.3,0,0.6v-0.1C32.4,70.1,32.4,69.7,32.3,69.4z"/>
		<polygon class="st3" points="12.6,60 12.6,60 12.6,59.9 		"/>
		<path class="st3" d="M21.5,63.6L21.5,63.6L21.5,63.6z"/>
		<path class="st3" d="M32.7,71.9L32.7,71.9L32.7,71.9z"/>
		<path class="st3" d="M32.5,68.9L32.5,68.9L32.5,68.9z"/>
		<polygon class="st3" points="6.5,60.2 6.5,60.2 6.6,60.2 		"/>
		<path class="st3" d="M25,68.9v-0.2C24.9,68.8,24.9,68.8,25,68.9z"/>
		<path class="st3" d="M34.7,67.2L34.7,67.2L34.7,67.2z"/>
		<path class="st3" d="M26.9,58.6L26.9,58.6L26.9,58.6z"/>
		<path class="st3" d="M32.1,67.1c0-0.1,0-0.2,0-0.3C32,66.9,32.1,67,32.1,67.1z"/>
		<path class="st3" d="M14.5,91.6L14.5,91.6L14.5,91.6z"/>
		<path class="st3" d="M24.4,67.3L24.4,67.3C24.4,67.1,24.4,67.2,24.4,67.3z"/>
		<path class="st3" d="M13.9,59.4L13.9,59.4L13.9,59.4z"/>
		<path class="st3" d="M13.2,91.7L13.2,91.7L13.2,91.7z"/>
		<path class="st3" d="M18.8,51H19C18.9,51,18.8,51,18.8,51z"/>
		<path class="st3" d="M8.4,52.8L8.4,52.8L8.4,52.8z"/>
		<polygon class="st3" points="9.1,52.8 9.1,52.8 9,52.8 		"/>
		<path class="st3" d="M12.9,52.6L12.9,52.6L12.9,52.6z"/>
		<polygon class="st3" points="35.7,71.8 35.7,71.8 35.7,71.9 		"/>
		<path class="st3" d="M35.1,66.4c0-0.1,0-0.2,0-0.3C35,66.1,35,66.2,35.1,66.4z"/>
		<path class="st3" d="M35.4,76.5L35.4,76.5L35.4,76.5z"/>
		<path class="st3" d="M35.4,76.6L35.4,76.6L35.4,76.6z"/>
		<path class="st3" d="M14.8,94.1L14.8,94.1L14.8,94.1z"/>
		<path class="st3" d="M13.3,94.3L13.3,94.3L13.3,94.3z"/>
		<path class="st3" d="M28.9,56.7L28.9,56.7L28.9,56.7z"/>
		<path class="st3" d="M7.9,50.2L7.9,50.2L7.9,50.2z"/>
		<path class="st3" d="M13,50L13,50L13,50z"/>
		<path class="st3" d="M24.8,69.4L24.8,69.4L24.8,69.4z"/>
		<path class="st3" d="M15.8,60.5h0.1H15.8z"/>
		<path class="st3" d="M18,53.5h0.2H18z"/>
		<path class="st3" d="M13.6,84.3L13.6,84.3L13.6,84.3z"/>
		<path class="st3" d="M35.5,77.2L35.5,77.2L35.5,77.2z"/>
		<path class="st3" d="M0.1,73.5L0.1,73.5L0.1,73.5z"/>
		<path class="st3" d="M31.9,67.9L31.9,67.9L31.9,67.9z"/>
		<path class="st3" d="M37.9,91.2c-0.1,0.2,0,0.2,0,0.2C38,91.1,37.8,91.2,37.9,91.2z"/>
		<polygon class="st3" points="39.5,88.2 39.4,88.2 39.6,87.7 		"/>
		<path class="st3" d="M41.1,85.4c-0.3,0.2-0.6,1-0.9,1.5L40.1,87v0.3C40.4,86.6,40.8,85.8,41.1,85.4z"/>
		<path class="st3" d="M42.3,83.9c-0.1,0.1,0.2-0.4-0.2,0.5l0.1-0.1C42.1,84.2,42.2,84.1,42.3,83.9z"/>
		<path class="st3" d="M42.3,82.3c0,0.2,0.1,0.4,0.1,0.6c0.1-0.1,0-0.6,0-0.4C42.3,81.9,42.3,82,42.3,82.3z"/>
		<path class="st3" d="M42,81.9l0.1,0.3C42.1,82.1,42.1,82,42,81.9z"/>
		<path class="st3" d="M42.3,82.7c-0.1-0.2-0.1-0.4-0.2-0.6c0,0.1,0,0.1,0.1,0.3C42.2,82.4,42.2,82.5,42.3,82.7z"/>
		<path class="st3" d="M42.3,83.1C42.3,83.4,42.2,83.8,42.3,83.1C42,84.2,42.2,84.1,42.3,83.1z"/>
		<path class="st3" d="M41.1,85.1l-0.2,0.3l-0.1,0.3C40.8,85.6,41.1,85.2,41.1,85.1z"/>
		<path class="st3" d="M40.2,79.9l0.1,0.2l0.3,0.1C40.5,80.2,40.2,80,40.2,79.9z"/>
		<path class="st3" d="M40.3,80.1l-0.5-0.2C40.2,80.2,40.3,80.2,40.3,80.1z"/>
		<path class="st3" d="M41.8,81.9c0.2,0.3,0.3,0.6,0.4,0.9C42.1,82.4,42,82.1,41.8,81.9L41.8,81.9z"/>
		<polygon class="st3" points="38.6,79 38.8,79.1 38.3,78.9 		"/>
		<path class="st3" d="M37.5,78.3c0.2,0.1-0.2-0.2,0-0.2c-0.3-0.2-0.6-0.3-0.8-0.4C36.9,78,37.2,78.1,37.5,78.3z"/>
		<path class="st3" d="M36.2,77.7c0.1,0.1,0.3,0.1,0.4,0.2C36.5,77.8,36.4,77.7,36.2,77.7z"/>
		<path class="st3" d="M39.1,79.5c0,0-0.1-0.1-0.3-0.3l0.1,0.2L39.1,79.5z"/>
		<path class="st3" d="M38.9,79.4L38.9,79.4c-0.2-0.1-0.3-0.2-0.4-0.2C38.6,79.2,38.7,79.3,38.9,79.4z"/>
		<path class="st3" d="M39.2,79.5L39.2,79.5L39.2,79.5z"/>
		<path class="st3" d="M40.9,80.7c-0.3-0.1-0.8-0.4-0.4,0C40.8,80.7,40.5,80.5,40.9,80.7z"/>
		<path class="st3" d="M39.3,79.7l0.4,0.3c0,0-0.1-0.1,0.1-0.1L39.3,79.7z"/>
		<path class="st3" d="M39.1,79.6l0.2,0.1L39.1,79.6z"/>
		<path class="st3" d="M37,78.2c-0.2-0.1-0.4-0.2-0.7-0.3c0.2,0.2,0.5,0.3,0.8,0.5C37.1,78.3,37.3,78.4,37,78.2z"/>
		<path class="st3" d="M37.9,78.8L37.9,78.8L37.9,78.8z"/>
		<polygon class="st3" points="33.9,76.4 33.9,76.5 34,76.5 		"/>
		<path class="st3" d="M37.1,78.4c0.2,0.1,0.3,0.2,0.4,0.2C37.4,78.5,37.2,78.4,37.1,78.4L37.1,78.4z"/>
		<path class="st3" d="M35.6,77.3c0.1,0.1,0.2,0.2,0.3,0.2C35.8,77.5,35.6,77.3,35.6,77.3z"/>
		<path class="st3" d="M37.8,78.7L37.8,78.7L37.8,78.7z"/>
		<path class="st3" d="M37.8,78.7c-0.1,0-0.2-0.1-0.3-0.1C37.7,78.7,37.8,78.7,37.8,78.7L37.8,78.7z"/>
		<path class="st3" d="M32.9,76.5c0.1,0,0.6,0.2,1,0.5c0.5,0.2,0.3-0.2,0-0.6c0,0,0,0.1-0.5-0.2c0.1,0.1,0.9,0.7,0.5,0.5
			c-0.6-0.3-0.5-0.3-0.7-0.5c0.2,0.2-0.8-0.3-0.8-0.1L32.9,76.5C33,76.5,32.8,76.4,32.9,76.5z"/>
		<path class="st3" d="M34.8,77l0.2,0.1c-0.2-0.1-0.3-0.3-0.6-0.5c-0.3-0.1-0.4-0.2-0.4-0.1L34.8,77L34.8,77z"/>
		<path class="st3" d="M35.8,77.6c-0.2,0-0.7-0.2-0.4,0c0.5,0.3,0.4,0.2,0.8,0.3C35.3,77.4,36.4,78,35.8,77.6
			c0.2,0.1,0.3,0.2,0.5,0.3L35.8,77.6L35.8,77.6L35.8,77.6L35.8,77.6L35.8,77.6L35.8,77.6L35.8,77.6C35.6,77.4,35.8,77.5,35.8,77.6
			L35.8,77.6L35.8,77.6L35,77.1C35.2,77.2,35.4,77.3,35.8,77.6z"/>
		<path class="st3" d="M40,80.6L40,80.6C39.9,80.5,39.9,80.5,40,80.6z"/>
		<path class="st3" d="M39.7,80.3c0.1,0,0.1,0,0.3,0.2c0.2,0.1,0,0,0,0.1c0.1,0.1,0.5,0.2,0.1-0.1H40c-0.3-0.2-0.7-0.6-0.7-0.6
			C39.4,80,39.5,80.1,39.7,80.3z"/>
		<path class="st3" d="M37.7,78.9l-0.8-0.4l0.3,0.3v-0.1C37.7,79,37.6,78.9,37.7,78.9z"/>
		<polygon class="st3" points="33.9,76.4 34,76.3 33.5,76.2 		"/>
		<polygon class="st3" points="32.9,75.8 33,75.8 32.7,75.6 		"/>
		<path class="st3" d="M9.6,62.1C9.3,61.8,9,61.5,9,61.6l0.1,0.1C9.3,61.9,9.5,62,9.6,62.1z"/>
		<path class="st3" d="M23.2,70.1c-0.3-0.2-0.5-0.3-0.6-0.4C22.8,69.9,23,70.1,23.2,70.1z"/>
		<path class="st3" d="M21.7,69.2l0.1,0.1c0.2,0.1,0.4,0.2,0.6,0.4C22.3,69.5,22,69.3,21.7,69.2z"/>
		<path class="st3" d="M26,86.5L26,86.5L26,86.5z"/>
		<path class="st3" d="M29.9,74.4h-0.1H29.9z"/>
		<path class="st3" d="M19.5,68.5L19.5,68.5L19.5,68.5z"/>
		<path class="st3" d="M29.4,73.7c-0.1-0.1-0.2-0.1-0.2-0.2C29.2,73.6,29.3,73.6,29.4,73.7z"/>
		<path class="st3" d="M29.4,73.7l0.2,0.1C29.6,73.8,29.6,73.8,29.4,73.7z"/>
		<path class="st3" d="M28.8,73.4l0.3,0.2l0,0C29,73.5,29,73.4,28.8,73.4z"/>
		<path class="st3" d="M9.4,77L9.4,77C9.7,77.1,9.6,77.1,9.4,77z"/>
		<path class="st3" d="M3.9,59.8L3.9,59.8L3.9,59.8z"/>
		<path class="st3" d="M3.1,59.4c0.4,0.1,0.5,0.2,0.8,0.4l-0.1-0.4H3.1z"/>
		<path class="st3" d="M32.4,75.6c-0.2-0.3-0.1-0.1-0.5-0.4c0.3,0.4-1.4-0.9-1-0.4c-0.3-0.4-0.7-0.5-1.1-0.9c0,0,0.1,0.2-0.3-0.1
			h-0.1l0,0l0,0l0,0c0.1,0.1,0.2,0.2,0.2,0.2c-0.3-0.1-1-0.5-1.3-0.6c-0.3-0.2,0.1,0,0-0.1l-0.4-0.2c0-0.1-0.7-0.6,0-0.2l-0.6-0.4
			c-0.3-0.3-0.8-0.6-1.1-0.7c-0.3-0.2-0.8-0.3-0.5-0.2l-1-0.5l0,0c-0.9-0.5-2-1-2.9-1.7c-0.3-0.2-0.7-0.3-1.2-0.7l-0.1-0.1
			c-0.4-0.2-1.1-0.8-1.4-0.8c-0.3-0.4-1.9-1.2-2.6-1.6l-0.1,0.1c-0.5-0.3-1-0.5-1.6-0.8v0.1c-0.6-0.2-1.3-0.8-2.1-1.3
			c0.1,0,0.3,0.1,0.4,0.2c-0.9-0.8-2.1-1.1-2.9-1.7c-0.2-0.1-0.4-0.2-0.5-0.3h0.1l-0.1-0.1l-0.3-0.2c0.1,0.1,0.2,0.1,0.2,0.2
			c-0.2-0.1-0.4-0.2-0.7-0.4l-0.1-0.2H8.7c-0.2-0.2-0.2-0.1-0.1,0.1c-0.1-0.1-0.3-0.1-0.4-0.1c-0.1-0.3-0.7-0.3-0.9-0.7
			c-0.2,0-1.1-0.6-1.5-0.6C5.5,60.3,5.3,60.1,5,60l-0.1-0.2l-0.7-0.2c-0.3-0.3-0.5-0.4,0-0.3c-1-0.4-0.8-0.4-1.6-0.7h0.1
			c-0.3-0.2-0.8-0.3-0.9-0.5C1.9,57.7,1,57.2,0,56.6v0.7c0.2,0.1,0.2,0.2,0.2,0.2L0,57.4c0.9,0.5,2.7,1.6,3,1.5L2.7,59l1.9,0.4
			c-0.2,0,0.1,0.7-0.6,0.3c0.2,0.1,0.5,0.3,0.9,0.5c-0.1-0.1-0.3-0.4,0-0.3c0.5,0.5,0.3,0.3,0.9,0.8c-0.2-0.2,0.2-0.2,0.5,0
			c-0.1,0-0.1,0.2-0.2,0.2l1,0.3c-0.2-0.1-0.1,0.1,0,0.3c-0.1-0.1,0.7,0.4,1,0.6l-0.3-0.3c0.9,0.6,1.1,0.3,2.1,0.9
			c-0.1,0-0.4,0.1,0,0.4c0.3,0,1.3,0.1,2.2,0.5l0.1,0.2l0.7,0.3c-0.5-0.1-1.8-0.4-2.5-0.7c0.3,0.3,0.1,0.1,0.6,0.4
			c0.2,0.2-0.3-0.1-0.5-0.2l1.2,0.8c0-0.2,1,0.4,1,0.3L11.3,64c0-0.2,1,0.1,1.9,0.7c0.2,0.2-0.3,0.1-0.3,0.2c0.1,0,0.9,0.4,1,0.5
			l-0.4-0.2c0.5,0.3,0.9,0.3,1.4,0.8c0.2,0.1,0.5,0.5,0.6,0.5c-0.3-0.3-0.1-0.8,0.2-0.8c0.1,0.1,1,0.8,1.2,1c0.3,0.3-0.7,0-0.4,0.2
			l0.3,0.1c0.2,0.2-0.1,0,0.3,0.3c0.2-0.1,1,0.6,0.3,0c0.5,0.2,0.5,0.3,1,0.6c-0.1-0.2,0.6,0,1.1,0.3l0.1,0.2
			c0.9,0.6,1.4,0.9,2.3,1.4c0.1,0.1,0.5,0.4,0.3,0.3c0.1,0.1,0.3,0.1,0.6,0.2c0.5,0.4-0.6-0.3-0.3,0c0.1-0.1,0.8,0.3,1.2,0.5
			c-0.1-0.2-0.9-0.5-1.3-0.7c0.1-0.2,0.9,0.1,1.8,0.6c0.8,0.4,0.3,0.3,0.4,0.3c1.4,0.8,1.3,0.4,2.4,1.2c0.4,0.4-0.1,0.2,0,0.3
			c-0.6-0.3-0.9-0.6-1.3-0.8l0.5,0.3c-0.2-0.1-0.6-0.3-0.8-0.4c0.3,0.3,2.3,1.4,3.3,2.1c0.2,0.1,0.6,0.2,0.4,0.1l-0.3-0.2
			c-0.3-0.3,0.7,0.3,0.3,0c0.5,0.2,1,0.4,1.6,0.8l0.1,0.2c0,0-0.4-0.3-0.6-0.4c0.3,0.1,0.9,0.7,1.3,0.7l-0.4-0.3
			C31.2,75,31.9,75.2,32.4,75.6z M6.1,60.4C6.1,60.3,6.1,60.3,6.1,60.4C6.2,60.4,6.2,60.4,6.1,60.4z M26.8,72.3
			C26.5,72.1,26.6,72.1,26.8,72.3L26.8,72.3z"/>
		<path class="st3" d="M0,71.1L0,71.1c0.1,0.1,0.2,0.2,0.3,0.3h0.2C0.4,71.3,0.2,71.2,0,71.1z"/>
		<path class="st3" d="M36.8,92.1c0.4-0.4-0.9,0.1-0.9-0.2c-0.6,0.4-1.3-0.2-2.3-0.6c-0.2-0.2,0.2,0,0.1-0.1c-0.3-0.1-0.5-0.2-1-0.5
			h0.1c-1.4-0.8-2-1.2-3.5-2.2l0.1,0.2c-0.3-0.2-0.4-0.3-0.5-0.4c-0.5-0.1,0.9,0.6,0.5,0.5C29,88.4,27,87.4,26.8,87
			c-0.5-0.3,0.1,0.2-0.4-0.1l-0.1-0.1h-0.2c-0.3-0.2-0.5-0.4-0.5-0.4c0.1,0.1,0.2,0.1,0.3,0.2c-0.4-0.3-1.1-0.7-1.4-0.8l0.4,0.3
			c-1.4-0.8-3.1-1.9-4.6-2.6l0.1,0.1c-1.1-0.5-0.8-0.5-2-1.2l0,0c-0.3-0.1-0.6-0.3-0.9-0.4c0.3,0.1-0.5-0.4-0.1-0.2
			c-1.2-0.6-0.6-0.3-1.4-0.6l0.2-0.2c-0.3-0.1-0.3-0.1-0.9-0.4c0.5,0.2-0.3-0.3,0.3-0.1c-1.1-0.9-1.9-0.9-2.3-1.4
			c-0.7-0.1,1,0.7,0.6,0.6c0.2,0.2-0.5-0.1-0.9-0.4c-0.4-0.2-0.5-0.6-1.5-1.2c0.1,0.1,0.1,0,0.2,0.1c-0.3-0.3-0.7-0.4-1.1-0.7
			c-0.3,0-0.6-0.3-0.7-0.2l0.9,0.5c-0.5-0.3-1.1-0.4-1.9-0.9c0.1,0,0.3,0.1,0.5,0.2c-0.2-0.2-0.5-0.2-0.7-0.4
			c0.2-0.1,1.1,0.6,1.7,0.8C10.2,77.3,9.3,77,9.7,77c-0.5,0-0.9-0.6-1.7-0.8L8.1,76c-0.1,0-0.3-0.1-0.5-0.2H8
			c-0.6-0.2-1-0.7-1.5-0.9c1.1,0.6,0.2,0.2,0.6,0.6c-1.4-0.6-0.6-0.7-2-1.5c0.2,0.1,0.6,0.4,0.3,0.3c-0.3-0.2-0.6-0.4-0.8-0.6
			c-1-0.6,0.1,0.2-0.3,0c-0.3-0.3-0.5-0.2-0.9-0.5v-0.1c-1.1-0.7-0.4,0-1.4-0.6l0.5,0.1L2,72.3h0.2c-0.6-0.3-0.8-0.4-1.3-0.7
			c0.1,0.1-0.2,0.1-0.7-0.2c-0.2,0-0.2,0-0.2,0v1c0.2,0.1,0.3,0.1,0.4,0.1l0.9,0.4c-1-0.6,0.2,0-0.2-0.4c0.4,0.2,1,0.7,0.5,0.4
			l-0.1-0.1c-0.3,0.1,1.3,0.8,1.2,0.9c2.1,1.2,4,2.5,5.9,3.6L8.5,77l0.7,0.4c0.2,0.1,0.2,0.2-0.3,0c0.2,0.2,0.8,0.4,0.9,0.4
			c0.9,0.6-0.5-0.1-0.2,0.1l0.4,0.2L9.9,78c0.3,0.1,0.4,0.1,1,0.4c0.3,0.2,0.1,0.2,0.3,0.3c0,0,0,0,0.2,0.1l0.8,0.5L11.9,79
			c0.4,0.2,0.8,0.5,0.5,0.1c0.5,0.5,3.1,1.9,3.4,2.2c0.6,0.2,1.1,0.5,1.7,0.9c-0.1-0.1-0.2-0.3,0.4,0.1c-0.3,0.1,0.9,0.7,1.3,1.1
			c-0.2-0.2,1.6,0.9,1.1,0.4c0.4,0.3,0,0.1,0.3,0.4c1.2,0.6,2.4,1.5,3.8,2.3c0,0-0.2-0.2,0.2-0.1l0.6,0.6c0.3,0.1,0.4,0,0.8,0.4
			c-0.1-0.1-0.1-0.2,0.1-0.1c2.6,1.7,5.5,3.1,8,5c-0.3-0.3-0.1-0.1,0.2,0c-0.2-0.1,0-0.1,0-0.1c0.4,0.3,0.9,0.4,1.4,0.4
			c0.3,0,1.5-0.5,1.5-0.8C37,91.9,36.9,92,36.8,92.1z M11.2,78.8l-0.1-0.1C11.4,78.9,11.3,78.9,11.2,78.8z"/>
		<path class="st3" d="M16.5,67.2c-0.1-0.1-0.2-0.2-0.2-0.2S16.3,67.1,16.5,67.2z"/>
		<path class="st3" d="M31.2,74.7l-0.4-0.2C31,74.6,31,74.7,31.2,74.7C31.1,74.7,31.1,74.6,31.2,74.7z"/>
		<path class="st3" d="M34.7,77.5l0.2,0.1v-0.1C34.6,77.4,34.4,77.3,34.7,77.5z"/>
		<path class="st3" d="M31.4,75.2c0,0.1,0.3,0.2,0.6,0.4h-0.1C32.1,75.5,31.8,75.4,31.4,75.2z"/>
		<path class="st3" d="M32.1,75.7l0.3,0.2C32.4,75.8,32.3,75.8,32.1,75.7z"/>
		<path class="st3" d="M28.4,73.2c0.1,0.1,0.1,0,0.2,0C28.8,73.2,27.6,72.8,28.4,73.2z"/>
		<polygon class="st3" points="31.5,75.6 31.5,75.5 31.3,75.4 		"/>
		<path class="st3" d="M29.2,74.1l0.5,0.3h0.1C29.5,74.3,29.2,74.1,29.2,74.1z"/>
		<path class="st3" d="M29.8,74.5c0.2,0.1,0.3,0.2,0.4,0.2C30.1,74.7,29.9,74.6,29.8,74.5z"/>
		<polygon class="st3" points="30.9,75.2 30.7,75.1 30.4,74.9 		"/>
		<path class="st3" d="M23.9,71l-0.5-0.3c-0.1,0,0.1,0.1,0.3,0.2C23.8,71,24,71.1,23.9,71z"/>
		<path class="st3" d="M25.4,72.2c-0.1-0.1-0.1-0.1-0.2-0.2l-0.1,0.1L25.4,72.2z"/>
		<path class="st3" d="M23.8,71.3c-0.1,0-0.8-0.4-0.1,0C23.8,71.3,24.3,71.6,23.8,71.3z"/>
		<polygon class="st3" points="15.9,66.4 16,66.5 16.1,66.3 		"/>
		<path class="st3" d="M8.6,62.7c0.6,0.4,0.2,0,0.8,0.4c0.2,0-0.4-0.3-0.3-0.3C8.6,62.6,8.5,62.5,8.6,62.7z"/>
		<path class="st3" d="M9.1,62.8l0.2,0.1C9.1,62.8,9.1,62.8,9.1,62.8z"/>
		<path class="st3" d="M36.6,92.5c0.2-0.1,0.4-0.2,0.5-0.3c-0.1,0.1-0.2,0.1-0.3,0.2L36.6,92.5z"/>
		<path class="st3" d="M37.4,91.7h0.2l0.1-0.3C37.6,91.4,37.5,91.6,37.4,91.7z"/>
		<path class="st3" d="M18.1,82.2c-3.5,2-7.9,2-11.5-0.1c-3.5-2.1-5.7-5.9-5.7-10H0.7c-0.1,4.2,2.2,8.1,5.8,10.2s8.1,2.1,11.7,0.1
			L18.1,82.2z"/>
		<path class="st3" d="M8.1,61.7c3.3-1.3,7-1.1,10.1,0.7c3,1.8,5,4.8,5.5,8.2h0.2c-0.5-3.5-2.6-6.6-5.6-8.4
			c-3.1-1.8-6.9-2.1-10.2-0.8L8.1,61.7z"/>
		<path class="st3" d="M24.7,86.5c-6.1,5.3-14.8,6.1-21.8,2c-1-0.6-2-1.3-2.9-2.1v0.3c0.9,0.7,1.8,1.4,2.8,2c7,4.1,15.9,3.3,22-2
			L24.7,86.5z"/>
		<path class="st3" d="M0.9,57.5c2.9-2.3,6.4-3.6,10.2-3.9c3.8-0.3,7.6,0.6,10.9,2.5c6.4,3.8,10,11.1,9,18.6h0.2
			c1-7.6-2.7-14.9-9.2-18.8c-3.3-2-7.1-2.8-11-2.6c-3.8,0.3-7.3,1.6-10.3,4L0.9,57.5z"/>
		<g>
			<path class="st3" d="M10.1,65.2l-0.2,0.1l-3.8,2.6c-0.7,0.5-1.4,0.9-1.9,1.3c0.3-0.7,0.5-1.3,0.8-2l1.5-3.9l0.1-0.2L5,62.2
				l-0.1,0.4L2,70.7l-0.1,0.2l1.4,0.8l0.2-0.1l7.8-5.1l0.4-0.2L10.1,65.2z"/>
			<polygon class="st3" points="12,66.3 6.4,73.5 7.8,74.3 13.5,67.2 			"/>
			<path class="st3" d="M14.8,72.2c-0.7-0.9-0.8-1.3-0.4-1.8c0.3-0.4,0.9-0.6,1.7-0.1c0.5,0.3,0.9,0.7,1,1l0.2,0.3l0.3-0.2l0.8-0.6
				l0.2-0.1l-0.1-0.2c-0.2-0.5-0.8-1-1.4-1.4c-1.5-0.9-3.3-0.7-4.2,0.5c-0.8,1-0.6,2.1,0.4,3.3c0.7,0.9,0.7,1.4,0.3,1.8
				c-0.4,0.6-1.2,0.6-2,0.2c-0.5-0.3-1-0.8-1.2-1.3l-0.2-0.3l-0.3,0.2l-0.8,0.6l-0.2,0.1L9,74.5c0.2,0.5,0.9,1.2,1.6,1.6
				c1.9,1.1,3.6,0.5,4.5-0.5C16.1,74.3,15.5,73.2,14.8,72.2z"/>
			<path class="st3" d="M20.5,81.3l2.8-8.1l0.1-0.2l-1.5-0.9l-0.2,0.1L14,77.5l-0.4,0.2l1.5,0.9l0.2-0.1l2.2-1.5l2.2,1.3l-0.8,2.4
				l-0.1,0.2l1.5,0.9L20.5,81.3z M18.5,75.9l2-1.4c0.4-0.3,0.8-0.6,1.2-0.9l0,0c-0.2,0.4-0.4,0.8-0.5,1.3L20.5,77L18.5,75.9z"/>
		</g>
		<g>
			<path class="st3" d="M1.4,81.5C1,81,0.4,80.8,0,81v1.9c0.1,0.2,0.1,0.4,0,0.5v0.7c0.1,0,0.2-0.1,0.3-0.2c0.4-0.4,0.3-0.8,0-1.5
				c-0.3-0.6-0.3-0.9,0-1.1c0.2-0.1,0.5-0.2,0.9,0.2c0.2,0.3,0.4,0.5,0.4,0.7C1.7,82.1,1.8,82.1,2,82C1.9,82,1.7,81.8,1.4,81.5z"/>
			<path class="st3" d="M2.9,83.5C2.6,83.2,2.3,83,2,82.7c0.1-0.1,0.2-0.2,0.3-0.3c0.7,0.7,1.4,1.3,2.2,1.8
				c-0.1,0.1-0.1,0.2-0.2,0.3c-0.3-0.2-0.7-0.5-1-0.7c-0.6,0.8-1.2,1.6-1.9,2.4C1.3,86.1,1.1,86,1,85.8C1.6,85.1,2.3,84.3,2.9,83.5z
				"/>
			<path class="st3" d="M4.8,84.5c0.2,0.1,0.6,0.3,0.9,0.4c0.5,0.2,0.7,0.5,0.9,0.8c0.1,0.2,0.1,0.5,0,0.7C6.4,86.8,6,87,5.5,86.9
				l0,0c0.3,0.2,0.3,0.5,0.3,0.9c-0.1,0.5-0.1,0.8,0,1c-0.2-0.1-0.4-0.2-0.6-0.2c0-0.1,0-0.4,0.1-0.9s-0.1-0.7-0.5-1
				c-0.2-0.1-0.3-0.2-0.5-0.3c-0.2,0.4-0.5,0.9-0.7,1.3c-0.2-0.1-0.3-0.2-0.5-0.3C3.6,86.4,4.2,85.4,4.8,84.5z M4.5,86.1
				c0.2,0.1,0.3,0.2,0.5,0.3c0.5,0.3,1,0.2,1.1-0.2c0.2-0.4-0.1-0.7-0.5-1C5.4,85.1,5.2,85,5.1,85C4.9,85.3,4.7,85.7,4.5,86.1z"/>
			<path class="st3" d="M7.5,88.2c-0.3,0.3-0.5,0.6-0.8,0.9C6.5,89,6.3,89,6.1,88.9C7,88,7.9,87.1,8.6,86.1c0.2,0.1,0.4,0.1,0.6,0.2
				c0.1,1.2,0.4,2.5,0.7,3.7c-0.2,0-0.4-0.1-0.6-0.1C9.2,89.4,9.1,89,9,88.6C8.5,88.5,8,88.4,7.5,88.2z M9,88.3
				c-0.1-0.4-0.1-0.7-0.2-1.1c0-0.2,0-0.5,0-0.7l0,0c-0.1,0.2-0.2,0.4-0.4,0.5c-0.2,0.3-0.4,0.6-0.7,0.8C8.1,88,8.6,88.2,9,88.3z"/>
			<path class="st3" d="M11,86.6c0.2,0,0.3,0,0.5,0.1c-0.1,1-0.2,2-0.3,3.1c0.7,0.1,1.3,0.1,2,0.1c0,0.1,0,0.2,0,0.4
				c-0.9,0-1.8,0-2.7-0.1C10.8,88.9,10.9,87.7,11,86.6z"/>
			<path class="st3" d="M14.3,86.7c0.1,1.1,0.2,2.3,0.3,3.4c-0.2,0-0.4,0-0.6,0c-0.1-1.1-0.1-2.3-0.2-3.4
				C14,86.7,14.1,86.7,14.3,86.7z"/>
			<path class="st3" d="M16.3,88.8c-0.1,0.4-0.2,0.8-0.3,1.2c-0.2,0-0.4,0.1-0.7,0.1c0.4-1.2,0.7-2.4,0.9-3.7c0.2,0,0.4-0.1,0.6-0.2
				c0.7,1,1.6,1.9,2.5,2.8c-0.2,0.1-0.4,0.2-0.7,0.2c-0.3-0.3-0.6-0.6-0.8-0.9C17.4,88.5,16.8,88.7,16.3,88.8z M17.7,88.1
				c-0.2-0.3-0.5-0.6-0.7-0.8c-0.1-0.2-0.3-0.4-0.4-0.6l0,0c0,0.2,0,0.4-0.1,0.7c-0.1,0.4-0.1,0.7-0.2,1.1
				C16.8,88.3,17.3,88.2,17.7,88.1z"/>
		</g>
		<g>
			<path class="st3" d="M7.6,57.1c-0.1,0.4-0.3,0.8-0.4,1.3c-0.2,0-0.4,0.1-0.5,0.1c0.4-1.3,0.8-2.7,1.3-4c0.2,0,0.5-0.1,0.7-0.1
				c0.5,1.2,0.9,2.5,1.3,3.7c-0.2,0-0.4,0-0.5,0c-0.1-0.4-0.2-0.8-0.4-1.2C8.6,56.9,8.1,57,7.6,57.1z M9,56.5
				c-0.1-0.4-0.3-0.7-0.4-1.1c-0.1-0.2-0.2-0.5-0.2-0.7l0,0c-0.1,0.2-0.1,0.5-0.2,0.7c-0.1,0.4-0.3,0.8-0.4,1.2
				C8.2,56.6,8.6,56.6,9,56.5z"/>
			<path class="st3" d="M11.4,54.2c-0.1,0.8-0.2,1.5-0.3,2.3c-0.1,0.9,0.2,1.2,0.8,1.3c0.6,0,1-0.3,1.2-1.1s0.3-1.5,0.5-2.3
				c0.2,0,0.4,0,0.6,0.1c-0.2,0.7-0.3,1.5-0.5,2.2c-0.3,1.2-1,1.5-1.8,1.5s-1.3-0.5-1.2-1.7c0.1-0.7,0.1-1.5,0.2-2.3
				C11,54.2,11.2,54.2,11.4,54.2z"/>
			<path class="st3" d="M14.2,57.7c0.2,0.2,0.5,0.4,0.8,0.4c0.5,0.1,0.8,0,1-0.4c0.1-0.3,0-0.6-0.5-0.9c-0.6-0.4-0.9-0.8-0.8-1.3
				c0.2-0.6,0.8-0.9,1.7-0.7c0.4,0.1,0.7,0.3,0.9,0.4c-0.1,0.1-0.2,0.2-0.3,0.3c-0.1-0.1-0.3-0.3-0.7-0.4c-0.6-0.1-0.9,0.1-1,0.4
				c-0.1,0.4,0.1,0.6,0.6,0.9c0.6,0.4,0.8,0.8,0.6,1.4c-0.2,0.6-0.8,0.9-1.6,0.7c-0.3-0.1-0.7-0.3-0.9-0.4
				C14,58,14.1,57.9,14.2,57.7z"/>
			<path class="st3" d="M18.7,56.1c-0.4-0.2-0.8-0.3-1.2-0.4c0.1-0.1,0.1-0.3,0.2-0.4c1,0.3,2,0.8,2.9,1.2c-0.1,0.1-0.1,0.3-0.2,0.4
				c-0.4-0.2-0.8-0.4-1.2-0.6c-0.5,1.1-1,2.1-1.5,3.2c-0.1-0.1-0.3-0.1-0.4-0.2C17.8,58.3,18.3,57.2,18.7,56.1z"/>
			<path class="st3" d="M21,56.8c0.3,0.1,0.6,0.3,1,0.5c0.5,0.3,0.8,0.6,0.9,1c0.1,0.3,0,0.6-0.2,0.8c-0.3,0.4-0.8,0.5-1.2,0.4l0,0
				c0.2,0.3,0.2,0.6,0,1c-0.2,0.5-0.4,0.9-0.4,1.1c-0.1-0.1-0.3-0.2-0.4-0.3c0-0.1,0.1-0.5,0.3-0.9c0.2-0.5,0.1-0.8-0.2-1.1
				c-0.1-0.1-0.3-0.2-0.4-0.2c-0.3,0.5-0.6,1-0.9,1.5c-0.1-0.1-0.3-0.2-0.4-0.2C19.8,59.1,20.4,57.9,21,56.8z M20.6,58.6
				c0.2,0.1,0.3,0.2,0.5,0.3c0.5,0.3,0.9,0.2,1.2-0.1c0.3-0.4,0.1-0.8-0.4-1.1c-0.2-0.1-0.4-0.2-0.5-0.2
				C21.1,57.8,20.8,58.2,20.6,58.6z"/>
			<path class="st3" d="M22.8,61.2c-0.4,0.2-0.7,0.5-1.1,0.7c-0.1-0.1-0.3-0.2-0.4-0.3c1.1-0.8,2.2-1.6,3.4-2.2
				c0.2,0.2,0.3,0.3,0.5,0.5c-0.5,1.3-1.1,2.6-1.7,3.9c-0.1-0.1-0.2-0.3-0.3-0.4c0.2-0.4,0.4-0.8,0.5-1.2
				C23.5,61.8,23.1,61.5,22.8,61.2z M24,61.8c0.2-0.4,0.3-0.8,0.4-1.1s0.2-0.5,0.3-0.7l0,0c-0.2,0.1-0.4,0.3-0.6,0.4
				c-0.3,0.2-0.7,0.4-1,0.6C23.4,61.3,23.7,61.5,24,61.8z"/>
			<path class="st3" d="M26.8,61.4c0.1,0.1,0.2,0.3,0.4,0.4c-0.8,0.8-1.7,1.6-2.5,2.4c0.3,0.4,0.7,0.9,1,1.3
				c-0.1,0.1-0.2,0.2-0.3,0.3c-0.4-0.6-0.8-1.2-1.3-1.7C24.9,63.3,25.8,62.3,26.8,61.4z"/>
			<path class="st3" d="M28.9,64.5c-1,0.8-2.1,1.5-3.1,2.3c-0.1-0.1-0.2-0.3-0.3-0.4c1-0.8,2-1.6,3.1-2.4
				C28.7,64.1,28.8,64.3,28.9,64.5z"/>
			<path class="st3" d="M27.5,67.4c-0.4,0.1-0.8,0.2-1.2,0.3c-0.1-0.2-0.2-0.3-0.2-0.5c1.3-0.3,2.5-0.6,3.8-0.8
				c0.1,0.2,0.2,0.4,0.3,0.7c-0.9,1.1-1.8,2.2-2.8,3.2c-0.1-0.2-0.1-0.4-0.2-0.5c0.3-0.3,0.6-0.6,0.9-1
				C27.9,68.3,27.7,67.9,27.5,67.4z M28.4,68.5c0.3-0.3,0.5-0.6,0.8-0.9c0.2-0.2,0.3-0.4,0.5-0.6l0,0c-0.2,0.1-0.4,0.1-0.7,0.1
				c-0.4,0.1-0.7,0.1-1.1,0.2C28.1,67.7,28.2,68.1,28.4,68.5z"/>
		</g>
	</g>
	<g>
		<path class="st4" d="M154.4,117.8c-1.8,1.3-3.4,2.3-4.8,2.9c-0.2,0.1,1.2-0.7,2-1.3c0.9-0.5,1.7-1.1,2.5-1.6l-0.2,0.2l1-0.6
			l-0.2,0.2c0.2-0.2,0.5-0.3,0.7-0.5C154.6,117.6,153.8,118.2,154.4,117.8z"/>
		<path class="st4" d="M101.6,117.8c-0.5-0.7-0.8-1.1-1.2-2l-0.2,0.1c0.2,0.5,0.7,1.5,0.6,1.4c0.8,1.5,2.4,3.5,4.1,4.7
			c0.1,0,0.1,0.1,0.2,0.1h1.2c-1.2-0.9-2.8-2.4-2.1-1.9c-0.2-0.1-0.3-0.3-0.4-0.4c-0.8-0.7-1.7-1.9-2.2-2.9
			c-0.5-0.5-1.6-3.3-1.3-2.3C100.3,115.1,100.8,116.6,101.6,117.8z"/>
		<path class="st4" d="M105.2,119.4c1.7,1.5,2.9,2.1,4,2.6h0.4c-0.8-0.4-1.6-0.9-2.3-1.4c0.1,0.1,0.2,0.1,0.3,0.2
			c-1.3-0.8-3.1-2.4-3.8-3.4c-1.1-1.3-1.6-2.4-1.3-1.5C103.4,117.4,104,118.2,105.2,119.4z"/>
		<path class="st4" d="M98.9,109.2v0.4c0-0.4-0.1,0.5,0,1.1C98.9,110.3,98.8,109.2,98.9,109.2z"/>
		<path class="st4" d="M158.6,91.5L158.6,91.5c0-0.1-0.1-0.2-0.2-0.4c0.1,0.2,0.1,0.1-0.1-0.4C158.4,91,158.5,91.3,158.6,91.5z"/>
		<path class="st4" d="M108.6,107.2v0.3c0-0.3-0.1,0.3-0.1,0.8C108.5,108,108.6,107.2,108.6,107.2z"/>
		<path class="st4" d="M109.8,106.8L109.8,106.8L109.8,106.8c0,0.1-0.1,0-0.3,0.1L109.8,106.8z"/>
		<path class="st4" d="M151.4,116.6c-1.3,0.8-1.3,0.7-0.8,0.3c0.8-0.5,1.3-0.9,2-1.4c0,0,0,0.1,1-0.6c-0.9,0.6,0.4-0.4,1.1-0.9
			l-0.7,0.5c0.5-0.3,1.1-0.9,1.8-1.4l-0.6,0.5l0.9-0.6C154.8,114.2,153.4,115.3,151.4,116.6z"/>
		<path class="st4" d="M144.1,120.5c-0.4,0.2-0.1,0-0.2,0c0.7-0.4,1.9-0.9,3.1-1.5c-0.6,0.4-1.1,0.5-1.6,0.8l0.6-0.2
			c0.3-0.2,0.9-0.5,1.3-0.7C146.4,119.5,145.2,120.1,144.1,120.5z"/>
		<path class="st4" d="M157.5,79L157.5,79c-0.3-0.1-0.5-0.2-0.7-0.3C157,78.8,157.2,78.9,157.5,79z"/>
		<path class="st4" d="M165.4,83.6c-0.1-0.1-0.2-0.3-0.3-0.4c-0.5-0.5-1.4-1.5-2.1-2.1c0.3,0.2-3.2-2.2-2.2-1.4
			c-1.5-0.9-3.3-1.7-4.8-2.1l0.8,0.3c-1.8-0.6-2.5-0.7-4.5-1.1c-0.6-0.1,0,0.1,0.6,0.2c-0.7-0.1-3.7-0.5-5.1-0.5h0.2
			c0.9,0,2.1,0.2,2.6,0.3c-0.5,0-1.6-0.2-2.2-0.2c0.6,0,2.8,0.3,2.2,0.3c-0.2,0-1.8-0.1-3.1-0.2c0.9,0,1.9,0.1,2.8,0.2
			c1.3,0.2,2.4,0.5,1,0.3c1.1,0.2,2.5,0.4,3.3,0.7c-0.3-0.1-0.5-0.1-0.8-0.2c0.8,0.2,1.6,0.4,2.3,0.7c0.6,0.3-0.8-0.2-1-0.2
			c0.6,0.1,1.3,0.3,1.9,0.5l0.3,0.2c2,0.7,4,1.8,5.6,3.1c0.3,0.2,0.6,0.5,1,0.9c0,0-0.1-0.1,0.2,0.1c0.6,0.6,1.2,1.4,1.3,1.4
			c0,0,0,0,0,0.1V83.6z"/>
		<path class="st4" d="M101.8,99.1l-0.1,0.2c-0.2,0.3,0.7-1.3,0.4-0.8c1.6-2.8,2.5-3.5,4.3-6c1.2-1.3,3.1-3.2,3.7-3.5
			c0.2,0-1.3,1.3-2.4,2.6c-0.6,0.7-1.2,1.3-1.8,2c0.1-0.1-0.3,0.4-0.6,0.7c-0.3,0.3-0.5,0.6-0.7,1c0.4-0.7-1,1.4-1.4,1.9l0.2-0.3
			c-0.2,0.2-1.2,1.9-1.6,2.5c-0.2,0.3-0.3,0.6-0.5,0.9C101.2,100.3,101.6,99.4,101.8,99.1z"/>
		<path class="st4" d="M127.2,79.3c-0.8,0.3,1.4-0.5,0.2-0.1c1.3-0.5,1-0.5,1.9-0.8l-0.2,0.1c2-0.6,1.5-0.7,4.7-1.4
			c1.4-0.4,2.5-0.5,3.8-0.8c1.8-0.2,1.9-0.2,1.1,0.1c-1.2,0.3-0.8,0.1-2.5,0.6c-0.3,0.1-0.6,0.2-0.9,0.2c-0.6,0-1.5,0.4-2.5,0.6
			c-0.9,0.3-1.5,0.5-2.5,0.8c0.3-0.1,0.3-0.1,0.3-0.1c-0.6,0.2-1.4,0.4-1.9,0.6l0.2-0.1l-1.4,0.5c0.3-0.1,0.3-0.1,0.3-0.2
			c-0.3,0.1-0.6,0.2-0.9,0.3C126.3,79.7,128.8,78.8,127.2,79.3z"/>
		<path class="st4" d="M160.4,99.9l-0.1,0.2l0,0C160.5,99.7,160.6,99.5,160.4,99.9z"/>
		<path class="st4" d="M159.8,101c-0.3,0.5,0,0,0.1-0.2l-0.2,0.3c-0.1,0.3-0.3,0.5-0.5,0.8l0.1-0.2l-0.1,0.2c-0.2,0.3,0,0.1-0.1,0.2
			c0.3-0.4,0.7-1,0.9-1.5l0.1-0.2c-0.4,0.8-1.1,1.8-1.9,2.8c-0.2,0.3-0.3,0.3-0.3,0.3c0.7-1,1.5-2.1,2.1-3.2L159.8,101z"/>
		<path class="st4" d="M145.2,109.6c-0.9,0.5-0.9,0.4-0.6,0.2c0.6-0.3,0.9-0.6,1.4-0.9c0,0,0,0.1,0.7-0.4c-0.6,0.4,0.3-0.3,0.8-0.6
			l-0.5,0.3c0.4-0.2,0.8-0.5,1.3-0.9l-0.5,0.4c0.2-0.1,0.4-0.3,0.6-0.4C147.6,108,146.7,108.7,145.2,109.6z"/>
		<path class="st4" d="M147.6,111.2c-1.3,0.8-2.4,1.5-3.4,1.9c-0.2,0,0.8-0.5,1.4-0.9c0.6-0.3,1.2-0.7,1.8-1.1l-0.1,0.1l0.7-0.4
			l-0.1,0.1l0.5-0.3C147.8,111,147.3,111.4,147.6,111.2z"/>
		<path class="st4" d="M140.1,112.2c-0.3,0.1-0.1,0-0.2,0c0.5-0.3,1.3-0.6,2.1-1c-0.4,0.2-0.7,0.4-1.1,0.6l0.4-0.1
			c0.2-0.1,0.6-0.4,0.9-0.5C141.7,111.5,140.9,111.9,140.1,112.2z"/>
		<path class="st4" d="M140.4,115.4l-0.3,0.1c0.3-0.1,0.6-0.3,1-0.4c-0.2,0.1-0.3,0.2-0.2,0.1l0.2-0.1l0.7-0.4
			c0.2,0,0.6-0.3,0.8-0.4l-0.6,0.3l0,0l-0.2,0.1l-0.4,0.2c0.6-0.3,1.3-0.6,1.9-0.9C142.3,114.6,141.4,115,140.4,115.4z"/>
		<path class="st4" d="M146.4,85.7c0.4-0.1-1.1,0-1.5-0.1C145.3,85.6,146.1,85.6,146.4,85.7c-0.3-0.1-1.1-0.1-1.8-0.1h-0.2
			c0.9-0.1,3,0,3.5-0.1c-0.4,0-0.8-0.1-0.4-0.1c1.4,0.1,1.9,0.1,3.1,0.3l-0.6-0.1c1,0.1,2.4,0.5,3.5,0.9c-0.7-0.4,1.8,0.8,1.6,0.7
			c0.5,0.4,1.2,0.9,1.6,1.2c1,0.9,1.5,2.4,1.4,2.4c0.1,0.5-0.1-0.2-0.3-0.2l-0.1-0.2c-0.1-0.1-0.3-0.4-0.1-0.1
			c-0.3-0.5-0.6-0.9-0.8-1c0,0-0.5-0.4-0.9-0.8c-0.2-0.1-0.1-0.1-0.1-0.1c-0.3-0.2-0.5-0.4-0.7-0.5c-1.2-0.7-2.9-1.3-4.4-1.6
			l0.5,0.1l-0.3-0.1c-0.4-0.1-0.9-0.1-1.3-0.2c0.2,0,1.2,0.1,0.7,0s-1.1-0.2-1.6-0.2h0.6c-0.5-0.1-1.5-0.1-2.3-0.2
			c1,0,0.2-0.1-0.7-0.2c-0.6,0-1.3,0-1.9,0C145.2,85.8,146.3,85.7,146.4,85.7z"/>
		<path class="st4" d="M130.7,118.1c0.3-0.1,0.3-0.1,0.3-0.1c-0.4,0-0.9,0.2-1.5,0.2l-0.3,0.1c0.4,0,0.8-0.2,1-0.2
			c-0.4,0.1-1.5,0.3-2.2,0.4c-0.5,0,0.9-0.2,1.6-0.3c0.9-0.2,1.4-0.2,2.1-0.4C131.6,117.8,131.2,118,130.7,118.1z"/>
		<path class="st4" d="M116.7,118.1c-1-0.3-1.9-0.7-1.6-0.6c-0.2-0.1,0.4,0.1,0.4,0.1c-1-0.3-2.1-0.9-1.4-0.7
			c3.1,1.2,6.1,1.5,7.8,1.6c-0.2,0-0.4,0-0.6,0c0.3,0,0.6,0,0.9,0.1C120.7,118.6,118.9,118.6,116.7,118.1z"/>
		<path class="st4" d="M117.3,117.3l0.4,0.1c-0.6-0.1-0.9-0.2-1.4-0.3c0.2,0.1,0.4,0.1,0.8,0.2L117.3,117.3c-0.2,0.1-1.4-0.3-1-0.1
			l0.2,0.1c-1.8-0.6-2.2-0.6-3.7-1.4c-1.3-0.6-2.6-1.9-3.2-3c0.1,0.1-0.3-0.6-0.4-1l0.2-0.1c0.3,0.6,0.5,0.9,0.9,1.3
			c-0.6-0.8-1-1.9-1-2.2c-0.1-0.7,0.5,1.2,1,1.5c0.4,0.7,1.1,1.4,1.7,1.8l0.3,0.2c-0.7-0.3,1.3,1,2.2,1.3l0.5,0.2
			c-0.3-0.1-0.9-0.4-0.9-0.3c0.4,0.2,0.9,0.4,1.3,0.5c-0.2-0.1-0.5-0.2-0.8-0.3l0.4,0.2c-0.3-0.1-0.4-0.1-0.5-0.2
			c-0.1,0,0.2,0.1,0.4,0.2l-0.6-0.2c0.4,0.2,1,0.5,0.7,0.4c0.6,0.2,1.3,0.5,1.9,0.6c-0.2,0-0.4-0.1-0.6-0.1c0.2,0.1,0.6,0.2,1,0.3
			h0.2l-0.4-0.1c0.5,0.1,0.9,0.2,1.4,0.3C118.2,117.5,116.2,117,117.3,117.3z"/>
		<path class="st4" d="M116.4,115l0.4,0.1c-1-0.3-2-0.4-3.6-1.5c-0.9-0.7-1.3-1.1-1.8-2c-0.1-0.5,0.2,0.1,0.9,0.8
			c0.5,0.6,1.7,1.4,2.7,1.8l0.2,0.1c-0.2,0-0.3-0.1-0.5-0.2c0.7,0.4,1.4,0.7,2.2,0.9C116.5,114.9,116.7,115,116.4,115z"/>
		<path class="st4" d="M111.6,100.6L111.6,100.6c-0.3,0.3,0.5-0.7,0.2-0.4c1.3-1.8,2-2.2,3.5-3.8c0.9-0.8,2.3-2,2.8-2.2
			c0.1,0-0.9,0.9-1.8,1.7c-0.5,0.4-0.9,0.9-1.3,1.3c0-0.1-0.3,0.2-0.4,0.4c-0.2,0.2-0.4,0.4-0.6,0.6c0.3-0.5-0.8,0.9-1.1,1.2
			l0.2-0.2c-0.2,0.1-1,1.2-1.3,1.6c-0.1,0.2-0.3,0.4-0.4,0.6C111.1,101.4,111.5,100.8,111.6,100.6z"/>
		<path class="st4" d="M130.3,88.1c-0.6,0.2,0.9-0.4,0.1-0.1c0.9-0.3,0.7-0.3,1.3-0.6h-0.2c1.4-0.4,1-0.5,3.2-1.1
			c1-0.4,1.7-0.4,2.6-0.6c1.2-0.2,1.3-0.1,0.8,0.1c-0.8,0.3-0.6,0.1-1.7,0.5l-0.6,0.2c-0.4,0-1,0.4-1.7,0.5c-0.6,0.2-1,0.4-1.7,0.6
			c0.2-0.1,0.2-0.1,0.2-0.1c-0.4,0.1-1,0.3-1.3,0.5l0.1-0.1l-0.9,0.3c0.2-0.1,0.2-0.1,0.2-0.1l-0.6,0.2
			C129.7,88.3,131.4,87.7,130.3,88.1z"/>
		<path class="st4" d="M111.3,102.5L111.3,102.5L111.3,102.5C111.2,102.6,111.1,102.6,111.3,102.5z"/>
		<path class="st4" d="M111.7,102.4C111.9,102.3,111.7,102.4,111.7,102.4L111.7,102.4l0.4-0.1H112h0.1c0.1-0.1,0,0,0-0.1
			c-0.2,0.1-0.4,0.2-0.5,0.3h-0.1c0.3-0.2,0.6-0.3,1.1-0.5c0.1,0,0.2,0,0.2,0c-0.4,0.2-0.8,0.4-1.2,0.5L111.7,102.4z"/>
		<path class="st4" d="M118.8,103.4c0.4-0.1,0.4-0.1,0.3,0c-0.2,0.1-0.4,0.2-0.6,0.3c0,0,0-0.1-0.3,0.1c0.3-0.1-0.1,0.1-0.3,0.2
			l0.2-0.1c-0.2,0-0.4,0.1-0.6,0.2l0.2-0.1l-0.3,0.1C117.8,103.9,118.2,103.6,118.8,103.4z"/>
		<path class="st4" d="M117.4,101.1c0.5-0.2,1-0.5,1.3-0.5c0.1,0-0.3,0.2-0.5,0.3l-0.7,0.3h0.1l-0.3,0.1h0.1l-0.2,0.1
			C117.3,101.2,117.5,101.1,117.4,101.1L117.4,101.1z"/>
		<g>
			<g>
				<defs>
					<polygon id="SVGID_00000109012602265395003910000004851306581464104639_" points="117.9,101.1 118,100.9 118,101 118,101 
						118,100.9 118,100.9 118.1,100.8 					"/>
				</defs>
				<clipPath id="SVGID_00000126303740166809126960000006514175597362531989_">
					<use xlink:href="#SVGID_00000109012602265395003910000004851306581464104639_"  style="overflow:visible;"/>
				</clipPath>
				
					<rect x="117.8" y="100.9" transform="matrix(0.7753 -0.6316 0.6316 0.7753 -37.2582 97.1988)" style="clip-path:url(#SVGID_00000126303740166809126960000006514175597362531989_);fill:#00309A;" width="0.3" height="0.1"/>
			</g>
		</g>
		<path class="st4" d="M120.9,102.5C121,102.5,121,102.6,120.9,102.5c-0.1,0.2-0.4,0.3-0.8,0.4c0.2-0.1,0.3-0.1,0.4-0.2h-0.2
			l-0.3,0.2C120.3,102.8,120.6,102.6,120.9,102.5z"/>
		<path class="st4" d="M120.1,99.5L120.1,99.5l-0.2,0.2l0.1-0.1h-0.1l-0.2,0.2l-0.3,0.1l0.2-0.1l0,0h0.1l0.1-0.1L119,100
			C119.4,99.8,119.7,99.7,120.1,99.5z"/>
		<path class="st4" d="M150.7,89.8c0.1-0.1-0.4,0.1-0.6,0.2C150.3,89.9,150.6,89.8,150.7,89.8c-0.2-0.1-0.5,0-0.7,0.2h-0.1
			c0.3-0.2,1.1-0.5,1.2-0.6c-0.2,0.1-0.3,0.1-0.2,0c0.5-0.2,0.6-0.4,1.1-0.6l-0.2,0.1c0.4-0.2,0.9-0.4,1.3-0.6
			c-0.4,0.1,0.7-0.3,0.6-0.4c0.3,0,0.6-0.2,0.8-0.3c0.5-0.2,1.2-0.4,1.3-0.3c0.2,0-0.1,0.1-0.1,0.2h-0.1c0,0-0.2,0.1,0,0.1
			c-0.2,0.1-0.5,0.2-0.5,0.3c0,0-0.2,0.2-0.5,0.3v0.1c-0.1,0.1-0.3,0.1-0.3,0.2c-0.6,0.3-1.3,0.6-1.8,0.9l0.2-0.1h-0.1l-0.5,0.3
			c0-0.1,0.4-0.3,0.2-0.2c-0.2,0.1-0.4,0.2-0.6,0.3l0.2-0.1c-0.2,0.1-0.6,0.3-0.9,0.4c0.3-0.2,0-0.1-0.3,0l-0.7,0.3
			C150.3,90.1,150.7,89.9,150.7,89.8z"/>
		<path class="st4" d="M123.6,98.5L123.6,98.5c0.1,0.1,0.3,0,0.4-0.1l0.1-0.1C123.9,98.3,123.8,98.4,123.6,98.5
			c0.2-0.2,0.6-0.3,0.9-0.4c0.2,0-0.3,0.2-0.5,0.3c-0.3,0.2-0.5,0.2-0.7,0.3C123.3,98.6,123.4,98.5,123.6,98.5z"/>
		<path class="st4" d="M128.5,96.6c0.4-0.1,0.7-0.2,0.6-0.1l-0.1,0.1c0.4-0.1,0.8-0.3,0.6-0.1c-1.1,0.6-2.2,0.8-2.7,1l0.2-0.1
			l-0.3,0.1C127.1,97.2,127.7,96.9,128.5,96.6z"/>
		<path class="st4" d="M128.6,97.5l-0.1,0.1c0.2-0.1,0.3-0.2,0.5-0.3c-0.1,0-0.2,0-0.3,0.1L128.6,97.5c0-0.1,0.5-0.3,0.3-0.3h-0.1
			c0.7-0.3,0.7-0.4,1.3-0.6c0.4-0.3,1.1-0.4,1.5-0.6c0,0.1,0.3,0,0.4-0.1l0.1,0.2c-0.2,0.1-0.3,0.2-0.5,0.3c0.4-0.1,0.8-0.2,0.9-0.2
			c0.3,0-0.4,0.3-0.6,0.5c-0.3,0.1-0.7,0.3-0.9,0.4l-0.1,0.1c0.2-0.2-0.6,0.2-0.9,0.3l-0.2,0.1c0.1-0.1,0.3-0.2,0.3-0.2l-0.5,0.2
			l0.3-0.1h-0.2c0.1,0,0.1-0.1,0.2-0.1h-0.2l0.2-0.1c-0.2,0-0.4,0.1-0.3,0l-0.7,0.3l0.2-0.1c-0.1,0-0.2,0.1-0.4,0.1h-0.1l0.1-0.1
			l-0.5,0.2C128.4,97.7,129.1,97.3,128.6,97.5z"/>
		<path class="st4" d="M130,99.1h-0.2c0.4-0.2,0.7-0.5,1.5-0.8c0.5-0.2,0.8-0.3,1.2-0.4c0.3,0,0,0.2-0.4,0.5c-0.4,0.1-1,0.5-1.4,0.6
			l-0.1,0.1l0.2-0.1l-1,0.4C130,99.2,129.9,99.2,130,99.1z"/>
		<path class="st4" d="M133.7,95.2L133.7,95.2c0,0-0.2,0.1-0.4,0.1L133.7,95.2z"/>
		<path class="st4" d="M136.3,94.2L136.3,94.2c-0.2,0,0.3-0.2,0.1-0.1c0.7-0.4,1.1-0.3,1.8-0.7c0.4-0.1,1.1-0.4,1.3-0.4
			c0.1,0.1-0.4,0.3-0.8,0.5l-0.6,0.3l-0.2,0.1l-0.3,0.1c0.2-0.2-0.4,0.2-0.6,0.2h0.1c-0.1,0-0.5,0.2-0.7,0.2l-0.2,0.1L136.3,94.2z"
			/>
		<path class="st4" d="M144.5,91.5C144.3,91.6,144.9,91.3,144.5,91.5c0.4-0.2,0.3-0.2,0.5-0.4h-0.1c0.5-0.2,0.3-0.3,1.2-0.5
			c0.3-0.2,0.6-0.2,1-0.4c0.5-0.1,0.5-0.1,0.4,0.1c-0.3,0.2-0.2,0.1-0.6,0.4l-0.2,0.1c-0.2,0-0.3,0.2-0.6,0.3
			c-0.2,0.1-0.4,0.2-0.6,0.3l0.1-0.1c-0.2,0-0.4,0.1-0.5,0.2v-0.1l-0.4,0.1l0.1-0.1L144.5,91.5C144.3,91.6,145,91.4,144.5,91.5z"/>
		<path class="st4" d="M158.9,95.2L158.9,95.2l0.1-0.1c-0.1,0,0,0.1,0.2,0L158.9,95.2z"/>
		<path class="st4" d="M157.4,99.4L157.4,99.4L157.4,99.4C157.4,99.4,157.5,99.4,157.4,99.4z"/>
		<path class="st4" d="M157,99.6C156.8,99.7,157,99.6,157,99.6L157,99.6l-0.4,0.2h0.1h-0.1c-0.1,0.1,0,0,0,0.1
			c0.2-0.1,0.4-0.2,0.5-0.3h0.1c-0.3,0.2-0.6,0.3-1.1,0.5c-0.1,0-0.2,0-0.2,0c0.4-0.2,0.8-0.4,1.2-0.5L157,99.6z"/>
		<path class="st4" d="M149.8,98.6c-0.4,0.1-0.4,0.1-0.3,0c0.2-0.1,0.4-0.2,0.6-0.3c0,0,0,0.1,0.3-0.1c-0.3,0.1,0.1-0.1,0.3-0.2
			l-0.2,0.1c0.2,0,0.4-0.1,0.6-0.2L151,98l0.3-0.1C150.8,98.1,150.4,98.4,149.8,98.6z"/>
		<path class="st4" d="M151.3,100.9c-0.5,0.2-1,0.5-1.4,0.5c-0.1,0,0.3-0.2,0.5-0.3l0.7-0.3H151l0.3-0.1h-0.1l0.2-0.1
			C151.3,100.8,151.1,100.9,151.3,100.9L151.3,100.9z"/>
		<polygon class="st4" points="150.6,101.1 150.6,101.1 150.5,101.1 150.8,101 150.7,101 150.8,101 150.8,101 		"/>
		<path class="st4" d="M147.7,99.5C147.6,99.5,147.7,99.4,147.7,99.5c0.1-0.2,0.4-0.3,0.8-0.4c-0.2,0.1-0.3,0.1-0.4,0.2h0.2l0.4-0.2
			C148.3,99.2,148,99.4,147.7,99.5z"/>
		<path class="st4" d="M148.6,102.5h-0.1l0.3-0.2L148.6,102.5l0.2-0.1l0.2-0.2l0.3-0.1l-0.2,0.1l0,0H149l-0.1,0.1l0.7-0.3
			C149.3,102.2,148.9,102.3,148.6,102.5z"/>
		<path class="st4" d="M117.8,112.3c-0.1,0.1,0.4-0.1,0.6-0.2C118.2,112.2,117.9,112.2,117.8,112.3c0.2,0.1,0.5,0,0.7-0.2h0.1
			c-0.3,0.2-1.1,0.5-1.2,0.6c0.2-0.1,0.3-0.1,0.2,0c-0.5,0.2-0.7,0.4-1.1,0.6l0.2-0.1c-0.4,0.2-0.9,0.4-1.3,0.6
			c0.4-0.1-0.7,0.3-0.6,0.4c-0.3,0-0.6,0.2-0.8,0.3c-0.5,0.2-1.2,0.4-1.3,0.3c-0.2,0,0.1-0.1,0.1-0.2h0.1c0,0,0.2-0.1,0-0.1
			c0.2-0.1,0.5-0.2,0.5-0.3c0,0,0.2-0.2,0.5-0.3v-0.1c0.1-0.1,0.3-0.1,0.3-0.2c0.6-0.3,1.3-0.6,1.8-0.9l-0.2,0.1h0.1l0.5-0.3
			c0,0.1-0.4,0.3-0.2,0.2c0.2-0.1,0.4-0.2,0.6-0.3l-0.2,0.1c0.2-0.1,0.6-0.3,0.9-0.4c-0.3,0.2,0,0.1,0.3,0l0.7-0.3
			C118.2,112,117.8,112.2,117.8,112.3z"/>
		<path class="st4" d="M145,103.5L145,103.5c-0.1-0.1-0.3,0-0.4,0.1l-0.1,0.1c0.2,0,0.3-0.1,0.4-0.1c-0.1,0.1-0.5,0.2-0.8,0.3
			c-0.2,0,0.3-0.2,0.5-0.3c0.3-0.2,0.5-0.2,0.7-0.3C145.3,103.4,145.2,103.5,145,103.5z"/>
		<path class="st4" d="M140.1,105.4c-0.4,0.1-0.7,0.2-0.6,0.1l0.1-0.1c-0.4,0.1-0.8,0.3-0.6,0.1c1.1-0.6,2.2-0.9,2.7-1l-0.2,0.1
			l0.3-0.1C141.5,104.8,140.9,105.1,140.1,105.4z"/>
		<path class="st4" d="M140,104.6l0.1-0.1c-0.2,0.1-0.3,0.2-0.5,0.3c0.1,0,0.2,0,0.3-0.1L140,104.6c0,0.1-0.5,0.3-0.3,0.3h0.1
			c-0.7,0.3-0.7,0.4-1.3,0.6c-0.4,0.3-1.1,0.4-1.5,0.6c0-0.1-0.3,0-0.4,0.1l-0.1-0.2c0.2-0.1,0.3-0.2,0.5-0.3
			c-0.4,0.1-0.8,0.2-0.9,0.2c-0.3,0,0.4-0.3,0.6-0.5c0.3-0.1,0.7-0.3,0.9-0.4l0.1-0.1c-0.2,0.2,0.6-0.2,1-0.3l0.2-0.1
			c-0.1,0.1-0.3,0.2-0.3,0.2l0.5-0.2l-0.3,0.2h0.2c-0.1,0-0.1,0.1-0.2,0.1h0.2l-0.2,0.1c0.2,0,0.4-0.1,0.3,0l0.7-0.3l-0.2,0.1
			C139.7,104.7,139.8,104.6,140,104.6l0.1,0L140,104.6l0.5-0.1C140.2,104.4,139.5,104.7,140,104.6z"/>
		<path class="st4" d="M138.6,102.9h0.2c-0.4,0.2-0.7,0.5-1.5,0.8c-0.5,0.2-0.8,0.3-1.2,0.4c-0.3,0,0-0.2,0.5-0.5
			c0.4-0.1,1-0.5,1.4-0.6l0.1-0.1l-0.2,0.1l1-0.4C138.6,102.8,138.7,102.8,138.6,102.9z"/>
		<path class="st4" d="M134.8,106.8L134.8,106.8c0,0,0.2-0.1,0.4-0.1L134.8,106.8z"/>
		<path class="st4" d="M132.3,107.8L132.3,107.8c0.2,0-0.3,0.2-0.1,0.1c-0.7,0.4-1.1,0.3-1.8,0.7c-0.4,0.1-1.1,0.4-1.3,0.4
			c-0.1-0.1,0.4-0.3,0.8-0.5l0.6-0.3l0.2-0.1l0.3-0.1c-0.2,0.2,0.4-0.2,0.6-0.2h-0.1c0.1,0,0.5-0.2,0.8-0.2l0.2-0.1L132.3,107.8z"/>
		<path class="st4" d="M124,110.5C124.2,110.5,123.6,110.7,124,110.5c-0.4,0.2-0.3,0.2-0.5,0.4h0.1c-0.5,0.2-0.3,0.3-1.2,0.6
			c-0.3,0.2-0.6,0.2-1,0.4c-0.5,0.1-0.5,0.1-0.4-0.1c0.3-0.2,0.2-0.1,0.6-0.4l0.2-0.1c0.2,0,0.4-0.2,0.6-0.3
			c0.2-0.1,0.4-0.2,0.6-0.3l-0.1,0.1c0.2,0,0.4-0.1,0.5-0.2v0.1l0.4-0.1l-0.1,0.1l0.2-0.1C124.2,110.4,123.5,110.7,124,110.5z"/>
		<path class="st4" d="M146.7,121.4c2.2-1.1,4.3-2.3,6.2-3.7c0.6-0.3,1.4-0.9,1.9-1.3c0.7-0.6,0.9-0.7,1.3-1.1
			c0.2-0.2,0.4-0.3,0.5-0.4c0.9-0.7,1.7-1.3,2.3-1.9h0.1c0.6-0.6,1.5-1.5,2.2-2.2c0.2-0.2,0.8-0.9,0.5-0.7c0.3-0.3,0.2-0.1,0.5-0.5
			l-0.2,0.3c1.4-1.5,2.4-2.9,3.5-4.5v-0.6c-0.2,0.3-0.4,0.7-0.7,1l0.2-0.1c-0.1,0.1-0.2,0.3-0.3,0.4s-0.2,0-0.6,0.6
			c0-0.2,0.7-1,0.5-0.8c0.1-0.2,0.6-1,0.9-1.4l0,0c-0.1,0.1-0.1,0.1-0.1,0.1c-0.3,0.5-0.4,0.7-0.9,1.5c0,0,0.2-0.2,0,0.1
			c-0.4,0.7-0.6,0.8-0.8,0.9c0.1-0.1,0.2-0.2,0.2-0.3c-0.3,0.4-0.4,0.6-0.8,1c-0.2,0.1,0.5-0.7,0.6-0.9l-0.3,0.3
			c-0.5,0.7-0.1,0.2-0.7,0.9V108l-0.3,0.4c0,0,0.1,0,0.4-0.4c-0.1,0.3-0.3,0.3-0.8,0.9c-0.1,0.2,0.2-0.2,0.3-0.2s-0.3,0.4-0.5,0.7
			c-0.4,0.5-0.3,0.2-0.5,0.4c0.1-0.1,0.4-0.4,0.4-0.4c0.5-0.6-0.3,0.2,0-0.2c-0.4,0.4-0.4,0.4-0.5,0.7c0.1-0.1,0,0.1,0.1,0
			c-0.6,0.8-0.5,0.4-1.2,1.1c0.2-0.1-0.8,1-0.3,0.6c-0.2,0.2-0.4,0.4-0.5,0.6c0.2-0.2-0.4,0.3-0.1-0.1l-0.3,0.2l0.3-0.4
			c-0.3,0.2-0.8,0.7-1,0.8c-0.4,0.4,0.2-0.1-0.3,0.3c0.1-0.2-0.2,0.1-0.4,0.2c0.4-0.3,0.1,0.1-0.2,0.3c-0.4,0.4-0.8,0.6-0.7,0.5
			l0.2-0.2c-0.1,0.1-0.1,0-0.3,0.2c-0.1,0.1-0.2,0.3-0.3,0.4c-0.3,0.2-0.5,0.3-0.5,0.4l0.4-0.4c-0.5,0.4-0.2,0-0.7,0.5l-0.1,0.1
			c-0.1,0.1-0.2,0.1-0.1,0.1c-0.1,0.1-0.4,0.3-0.5,0.4h-0.1c-0.2,0.2-0.5,0.5-0.8,0.6c0.3-0.1,0.3-0.2,0.7-0.5
			c0.3-0.2-0.4,0.3-0.5,0.4c0-0.1-0.6,0.4-0.9,0.6c-0.2,0.1-0.3,0.2-0.5,0.2l-0.1,0.1c-0.2,0-0.6,0.4-1,0.6c0.2-0.1,0.1-0.2-0.1,0
			c0.4-0.1-0.5,0.4-0.4,0.4c-0.6,0.4,0.1-0.2-0.1-0.1c-0.3,0.2-0.7,0.4-0.9,0.6c0.5-0.3,0,0.1-0.1,0.2c-0.6,0.3,0.1-0.1-0.3,0.1
			c-0.2,0.1-0.5,0.4-0.1,0.2c-0.3,0.2-0.7,0.5-1.1,0.6c-0.2,0,0.7-0.4,0.5-0.3c-0.8,0.4-0.3,0.3-1.1,0.8c0.3-0.1,0.1,0.1-0.3,0.3
			c-0.9,0.4,0.4-0.2,0-0.1l-0.3,0.2c-0.5,0.2,0.9-0.6,0.5-0.5l-0.4,0.2c0.1-0.1,0.2-0.2,0-0.1c-0.1,0.1-0.8,0.5-0.9,0.5l0.3-0.1
			c-0.4,0.2-0.5,0.4-1.2,0.6c0.3-0.2-0.2,0,0-0.1c-0.3,0.1-0.1,0.1-0.5,0.3l0,0c-0.5,0.2-0.9,0.4-1.5,0.6h1.5
			c0.5-0.2,0.9-0.4,1.3-0.7L146.7,121.4z"/>
		<path class="st4" d="M100.6,116.8c0.1,0.3,0.4,0.8,0.7,1.2c0,0-0.2-0.2-0.2-0.3c0.6,1,1.3,1.8,2.1,2.7c0.6,0.6,1.3,1.3,1.9,1.7
			h0.9c0,0,0,0-0.1,0c0.1,0-0.6-0.4-0.8-0.7l0.1,0.2c-0.6-0.5-1-0.7-1.3-1.1c-0.3-0.3,0.1,0.1,0.3,0.2c-0.4-0.4-1.1-1.1-1.4-1.5
			c-0.1,0,0,0.1-0.3-0.2c-0.3-0.3-0.7-1-0.6-1c-0.2-0.3-0.3-0.3-0.4-0.7c0,0,0.1,0.2,0.2,0.2c-0.3-0.5-0.6-0.9-0.8-1.3
			c-0.1-0.3-0.5-1.2-0.7-1.9c-0.2-0.3-0.3-1.1-0.4-1.1v-0.1c-0.1-0.2-0.2-0.4-0.2-0.7l0.1,0.1l-0.1-1c0,0.3,0-0.4-0.1-0.4l-0.1-0.4
			c0-0.6,0-0.1-0.1-0.8c0-0.4,0.1-0.1,0.1,0c0-0.4,0-0.7,0-1.1c0-0.2,0-0.6,0.1-0.8v0.1c0-0.3,0-1,0-1c0.2-1.1,0.6-3,0.7-3.5
			c-0.1,0.3-0.1,0.4,0,0.2c0.1-0.3,0.2-0.7,0.2-0.7c0.1-0.3,0.1-0.3,0.3-0.8l0,0c0.4-0.8,0.7-1.8,1.2-2.7c0,0.1-0.1,0.2-0.1,0.3
			c0.4-0.7,0.7-1.4,1.1-2.1c0,0.1,0,0.1-0.1,0.2c0.2-0.4,0.5-0.8,0.6-1.1l0,0c-0.3,0.3,0.1-0.3,0.3-0.6l0,0c0.3-0.5,0.3-0.5,0.6-1
			c0.2-0.3-0.2,0.2-0.1,0.2c0.1-0.1,0.8-1,0.9-1.1s0.2-0.3,0.2-0.3c0.3-0.4,0.2-0.1,0.3-0.4c0.2-0.3,0.5-0.7,0.7-1
			c0,0,0.3-0.3,0.1,0c0.6-0.7,0.9-1.1,1.3-1.6c0.2-0.2,0.8-0.8,1-1.1c0.1-0.1-0.2,0.2-0.2,0.3l0.4-0.3c-0.4,0.4,0.1,0-0.1,0.2
			c0.3-0.4,1.2-1.1,1.8-1.6c-0.4,0.3,0.7-0.7,0.7-0.7c0.7-0.6,0.4-0.2,0.6-0.4c0.7-0.6,1.4-1.1,2-1.6l0,0c0.6-0.5,1.6-1.2,2.2-1.6
			c0,0,0,0-0.1,0.1c0.7-0.4,0.1-0.2,0.9-0.6l-0.2,0.1c0.5-0.4,1-0.6,1.5-1L118,83c0.5-0.3,1.1-0.7,1.5-1c0.1,0,0,0-0.2,0.2
			c0.5-0.3,0.5-0.4,1-0.6c0.1-0.1,0.3-0.2,0.3-0.1c0.2-0.2,1-0.5,1.2-0.7c0.1,0,0.3-0.1,0.6-0.2c2.7-1.3,5.6-2.5,8.4-3.4
			c0.5-0.1-0.7,0.2-0.3,0.2c0-0.1,0.5-0.2,1.3-0.4l0,0c0.4-0.1,0.6-0.1,1-0.3l0,0c0.4-0.2,1-0.2,1.2-0.3h0.3
			c0.4-0.2,0.7-0.1,1.2-0.3h-0.1c0.7-0.1,1.5-0.4,1.7-0.4c0.6-0.1,1.3-0.2,1.4-0.3c0.1,0,0.1,0,0,0.1c2.3-0.4,4.9-0.6,6.9-0.6h-0.1
			c1.3-0.1,2.6,0.1,3.6,0.1h0.3c0.3,0.1,0.3,0.1,0.5,0.1c0.3,0,1.2,0.1,1.3,0.1s-0.1,0-0.1,0c0.6,0.1,1.3,0.1,1.8,0.3h-0.2
			c2.9,0.6,6.5,2,8.6,3.1c0.6,0.3,0.2,0.2,0.5,0.4c1.3,0.7,2.5,1.8,3.6,2.9v-0.4c-1.5-1.6-3.4-2.9-5.4-4c-1.3-0.6-3.1-1.3-4.4-1.6
			c-5.4-1.5-11.2-1.7-16.8-0.8c0.3,0,0,0.1-0.3,0.1h-0.1l-0.4,0.1c-0.4,0.1-0.3,0,0.1-0.1c-2.2,0.4-4.2,0.8-6.4,1.4
			c-0.1,0.1-1.1,0.3-1.2,0.4l0,0c-1.4,0.5-1.6,0.5-2.9,0.9c-5.6,2-10.7,4.8-15.4,8.4c-4.6,3.7-8.7,8.1-11.4,13.7
			c-0.3,0.9-0.8,2.1-1.1,3.1V103c-0.2,0.9-0.4,1.1-0.7,2.3c0,0-0.1,0.5,0,0.3c0,0.4-0.2,0.7-0.3,1.3v0.1c-0.1,1.6,0-0.3-0.2,1.7
			C98.6,111.6,99.3,114.4,100.6,116.8C100.5,116.6,100.5,116.6,100.6,116.8z M99.2,108.4c0,0.1,0,0.2,0,0.3
			C99.2,108.6,99.2,108.5,99.2,108.4L99.2,108.4z"/>
		<path class="st4" d="M99.3,107.7c0,0.1,0,0.2,0,0.3C99.3,107.9,99.3,107.8,99.3,107.7z"/>
		<path class="st4" d="M99.2,108.9C99.2,109,99.2,109,99.2,108.9L99.2,108.9z"/>
		<path class="st4" d="M164.4,106.1c-0.2,0.2-0.1,0.1,0.1-0.2L164.4,106.1z"/>
		<path class="st4" d="M164.3,106.3c-0.2,0.2-0.2,0.3-0.3,0.4L164.3,106.3z"/>
		<path class="st4" d="M159.8,111.4c-0.1,0.1-0.3,0.4-0.5,0.5C159.5,111.7,159.9,111.3,159.8,111.4z"/>
		<path class="st4" d="M157.5,113.5c-0.1,0.1-0.1,0.1-0.2,0.2C157.2,113.8,157.3,113.7,157.5,113.5L157.5,113.5z"/>
		<polygon class="st4" points="104.6,121 104.9,121.3 104.9,121.2 		"/>
		<path class="st4" d="M102.5,98.3c0.2-0.3,0.1-0.2,0.2-0.2C102.6,98.3,102.7,98,102.5,98.3z"/>
		<path class="st4" d="M111.2,88L111.2,88L111.2,88z"/>
		<path class="st4" d="M159.6,90.6c-0.2-0.5,0,0.3-0.1-0.3C159.5,90.4,159.6,90.5,159.6,90.6z"/>
		<path class="st4" d="M158.7,88.9c-1-1.2-2.6-2.6-4.3-3.2c-0.2-0.1,0.1-0.1-0.3-0.2c-1.6-0.6-4.1-1.2-6.2-1.4h0.1
			c-0.4,0-0.9,0-1.3,0l0,0c-0.1,0-0.7,0-0.9,0s-0.1-0.1-0.4-0.1l-0.2,0.1c-0.7,0.1-1.6,0.1-2.5,0.2h0.1c-1.4,0.2-3.2,0.4-4.8,0.8V85
			c-0.1,0.1-0.5,0.2-1,0.3c-0.2,0-0.7,0.2-1.2,0.3l0,0c-0.3,0.2-0.5,0.1-0.8,0.3h-0.2c-0.1,0.1-0.5,0.1-0.8,0.2l0,0
			c-0.3,0.1-0.4,0.1-0.7,0.2l0,0c-0.6,0.2-1,0.3-0.9,0.3c-0.2,0,0.6-0.2,0.2-0.2c-1.9,0.7-3.9,1.5-5.8,2.4c-0.2,0.1-0.4,0.1-0.4,0.1
			c-0.2,0.1-0.7,0.4-0.9,0.5c0.1,0-0.1,0-0.2,0.1c-0.3,0.1-0.3,0.2-0.7,0.4c0.1-0.1,0.2-0.1,0.1-0.1c-0.3,0.2-0.7,0.4-1.1,0.6
			l0.1-0.1c-0.4,0.3-0.7,0.4-1.1,0.6l0.1-0.1c-0.6,0.3-0.1,0.2-0.6,0.4c0.1-0.1,0.1-0.1,0.1-0.1c-0.4,0.3-1.1,0.8-1.6,1.1l0,0
			c-0.5,0.3-1,0.6-1.5,1c-0.2,0.1,0-0.1-0.5,0.3c0.1,0-0.8,0.6-0.5,0.5c-0.4,0.3-1.1,0.8-1.3,1c0.2-0.2-0.2,0.1,0.1-0.2l-0.3,0.2
			c0-0.1,0.3-0.2,0.2-0.2c-0.2,0.1-0.6,0.6-0.8,0.7c-0.3,0.3-0.5,0.6-0.9,1c0.2-0.2-0.2,0.1,0-0.1c-0.2,0.2-0.4,0.5-0.5,0.7
			s-0.1,0-0.3,0.2l-0.1,0.2l-0.7,0.7c-0.1,0.1,0.2-0.3,0-0.1c-0.3,0.3-0.3,0.3-0.5,0.6l0,0c-0.2,0.2-0.5,0.6-0.3,0.4
			c0.1-0.1-0.1,0,0.1-0.2c-0.1,0.2-0.4,0.5-0.6,0.8c0.1-0.1,0-0.1,0.1-0.2c-0.3,0.4-0.6,0.9-0.9,1.4l0.1-0.3
			c-0.5,0.6-0.8,1.3-1.2,1.8h0.1c-0.2,0.3-0.2,0.3-0.3,0.5c0,0-0.1,0.3-0.2,0.5c0,0.1,0,0,0-0.1c-0.1,0.3-0.6,1.6-0.9,2.3
			c0,0,0,0.5-0.1,0.6v-0.1c-0.1,0.2-0.1,0.6-0.2,0.6c0,0.4,0.3-1.4,0.2-0.9c-0.1,0.1-0.1,0.7-0.1,0.6c-0.1,0.4-0.1,0.7-0.1,1
			c0-0.1,0-0.3-0.1,0c0,0.5,0,0.1,0,0.6v0.3c0,0,0,0.5,0,0.3v0.7l-0.1-0.1c0,0.2,0.1,0.3,0.2,0.5v0.1c0.1,0,0.1,0.5,0.2,0.7
			c0.1,0.4,0.4,1.1,0.5,1.3c0.2,0.3,0.4,0.6,0.6,0.9l-0.2-0.2c0.1,0.2,0.2,0.3,0.3,0.4c-0.1,0,0.3,0.4,0.5,0.6
			c0.3,0.2,0.2,0.1,0.3,0.1c0.2,0.3,0.8,0.6,1.1,0.9c-0.1,0-0.4-0.3-0.2-0.1c0.2,0.3,0.6,0.3,1,0.6l-0.1-0.1
			c0.2,0.2,0.7,0.3,0.6,0.4c0.2,0.1,0.5,0.3,0.5,0.2c0.7,0.4,1.9,0.7,2.4,1l0.4,0.1c-0.2-0.1-0.3,0-0.4-0.1h0.1
			c0.3,0.1,0.5,0.1,0.2,0.1c0.6,0.2,0.6,0,1.4,0.2c0,0,0,0,0.2,0.1h0.4c0.5,0.1,0.3,0.1,0.3,0.2c0.3,0,0.6,0.1,0.7,0l0.3,0.1
			c-0.2-0.1,0.2,0,0.3,0H120c0,0,0.3,0,0.5,0c0,0-0.3-0.1-0.5-0.1c0.1,0,0.3,0,0.5,0c-0.1,0,0.4,0.1,0.6,0.1s0.3,0,0.3,0
			s0.4,0,0.2,0c-0.1,0-0.2,0-0.3,0c0.2,0,0.1,0.1,0.5,0c0.2,0-0.1-0.1,0.4-0.1H122h0.4l0,0l0,0c0.1,0,0.7,0,0.8-0.1
			c0.2,0,0.5,0,0.7,0l0,0c0.3,0,0.6,0,0.8-0.1l0,0c0.1,0,0.5,0,0.6-0.1c0.4,0,0.1,0.2,0.5,0.1c0.4,0,0.6-0.1,0.4-0.2
			c0.7,0,1.4-0.2,2-0.2c0.1,0,0,0,0.2-0.1c0.9-0.1,2-0.4,2.7-0.5c-0.3,0.1,0,0,0,0.1c0.2-0.1,0.3,0,0.3-0.1c0,0,0-0.1-0.3,0
			c0.6-0.1,1.4-0.4,1.7-0.4c-0.2,0,0,0,0.1-0.1c0,0.1,0.4,0,0.7-0.1l0,0h0.2c0.1,0,0.1-0.1,0.4-0.2h0.1c0.3-0.1,0.7-0.3,1.1-0.4h0.3
			c0.1-0.1,0.4-0.2,0.1-0.1c0.6-0.2,1-0.3,1.2-0.3c0.9-0.5,2.3-1.1,3.5-1.5l0,0c0.3-0.1,0.1-0.1,0.3-0.2c-0.1,0.1,0.3-0.1,0,0.1
			c0.4-0.2,0.5-0.3,0.8-0.4l-0.2,0.1l0.6-0.3c0.1,0,0.1,0,0,0.1l0.2-0.2c0.3-0.1-0.7,0.5-0.3,0.4l0.2-0.1c0.3-0.1-0.6,0.4,0,0.1
			c0.2-0.2,0.4-0.3,0.2-0.2c0.5-0.3,0.2-0.2,0.8-0.5c0.2-0.1-0.4,0.2-0.3,0.2c0.3-0.1,0.5-0.3,0.8-0.4c-0.3,0.1-0.1,0,0.1-0.2
			c0.3-0.1-0.2,0.1,0.3-0.1c0.1-0.1,0.4-0.3,0.1-0.1c0.1-0.1,0.4-0.2,0.6-0.4c0.2,0-0.4,0.3,0.1,0.1c-0.1,0,0.5-0.4,0.2-0.3
			c0.2-0.1,0.2-0.1,0.1,0c0.3-0.1,0.5-0.4,0.7-0.4l0.1-0.1c0.1,0,0.2-0.1,0.3-0.1c0.2-0.1,0.6-0.5,0.7-0.4c0.1-0.1,0.5-0.4,0.3-0.3
			c-0.3,0.2-0.3,0.3-0.5,0.3c0.2-0.1,0.4-0.3,0.6-0.4l0,0c0.1-0.1,0.3-0.2,0.4-0.3h0.1l0.1-0.1c0.4-0.3,0.1,0,0.5-0.3l-0.3,0.2
			c0.1-0.1,0.2-0.1,0.4-0.3l0.2-0.3c0.2-0.2,0.1,0,0.3-0.2l-0.3,0.2c0,0,0.2-0.1,0.5-0.3c0.2-0.1,0.4-0.4,0.1-0.2
			c0.1-0.1,0.4-0.2,0.3-0.1c0.3-0.3-0.1,0,0.2-0.2c0.1-0.1,0.5-0.3,0.8-0.5l-0.2,0.3l0.2-0.2c-0.2,0.2,0.2-0.1,0.1,0.1
			c0.1-0.1,0.3-0.2,0.4-0.4c-0.4,0.2,0.3-0.5,0.2-0.4c0.5-0.5,0.5-0.1,0.9-0.7c-0.1,0.1,0.1-0.2-0.2,0.1c0.3-0.3,0.2-0.3,0.5-0.6
			c-0.2,0.3,0.3-0.2,0,0.2l-0.3,0.2c0.2-0.1,0,0.1,0.4-0.2c0.2-0.2,0.5-0.4,0.4-0.4c0,0-0.3,0.3-0.2,0.1c0.4-0.4,0.5-0.4,0.6-0.6
			c-0.2,0.2-0.3,0.3-0.3,0.2l0.3-0.3v0.1c0.5-0.4,0.1-0.2,0.5-0.6l0.2-0.2c0,0.1-0.6,0.6-0.5,0.6c0.3-0.3,0.3-0.4,0.6-0.6l-0.2,0.2
			c0.1-0.1,0.3-0.1,0.6-0.6c0.2-0.2,0-0.1,0-0.1c0.4-0.5,0.5-0.6,0.8-0.9c0,0.1,0.4-0.6,0.2-0.2c-0.1,0.1-0.7,0.8-0.8,1
			c0.2-0.1-0.3,0.4-0.4,0.5c0.3-0.4,0.4-0.3,0.5-0.3c0.1-0.1,0.2-0.2,0.2-0.3h-0.2c0.4-0.4,0.7-0.8,0.9-1.1c0.1-0.1,0.1-0.1,0,0.1
			c0.4-0.5,0.8-1.1,1.2-1.6c-0.3,0.3,0.4-0.6,0.2-0.4c-0.2,0.3-0.4,0.5-0.3,0.3c0.1-0.2,0,0,0.1,0c0.1-0.2,0.3-0.3,0.4-0.6
			c-0.3,0.5,0,0.2,0,0.3c0.2-0.4,0,0,0.3-0.3c0.2-0.4,0.4-0.9,0.6-1.3c0.3-0.5,0.6-1.4,0.8-1.9c0.1-0.3,0.1-0.1,0.2-0.3
			c0.1-0.4-0.1,0.2,0-0.3V96c0-0.2,0.3-1,0.2-1.1v0.2v-0.3c0,0,0.1-0.1,0.1,0.1c0.1-0.3,0.1-0.7,0.1-1.1l-0.1,0.2c0-0.6,0-1-0.1-1.6
			l0,0l-0.1-0.3c0.1,0.1,0-0.3,0-0.4c0.1,0.3,0.2,0.6,0.3,0.9c0,0.3-0.1-0.3-0.1-0.1c0,0.1,0,0.7,0.1,0.8c0-0.2,0-0.2,0-0.4
			c0.1-0.1,0.1,0.2,0.1,0.4V93c0.1,0.2,0.1,0.4,0,0.8c0-0.3,0,0.1-0.1,0c0.1,0,0.1,0.4,0,0.8c-0.1,0.3-0.1,0.9-0.2,1.4
			c0-0.2,0-0.5,0.1-0.8c-0.1,0.3-0.1,0.4-0.2,0.7c0,0.2,0,0.3-0.1,0.7l0,0c-0.1,0.4,0,0.4-0.2,0.9c-0.3,0.8-0.7,1.6-1.1,2.1l0,0
			c-0.1,0.4-0.6,1-0.8,1.5c-0.5,0.7-1,1.5-1.4,1.8c-0.9,1.1-1.8,2.1-2.9,3.1l0.1-0.2c-0.2,0.2-0.1,0.1-0.3,0.3
			c0.3-0.2-0.2,0.3-0.4,0.4c-0.5,0.4-1.2,1-1.6,1.4l0,0c-0.4,0.4-1,0.8-1.7,1.2c-0.1,0-0.2,0.1-0.4,0.2c-0.3,0.3-0.5,0.4-1,0.8
			c-0.4,0.2-1,0.6-1.4,0.8c-1.4,0.9-2.9,1.7-4.4,2.5h-0.1c-1.5,0.8-3.4,1.5-4.7,2l0.1-0.1c-0.4,0.1-0.9,0.4-0.8,0.4
			c-0.4,0.1-1,0.4-1.3,0.4c-0.4,0.1-0.5,0.2-0.9,0.3c-0.9,0.2-1.2,0.3-2,0.5h0.2c0.1,0,0.1-0.1-0.1,0c-0.3,0.1-1.2,0.2-0.8,0.3
			c-0.9,0.2-2.1,0.5-3,0.6l-0.2,0.1c-0.8,0.1-1.6,0.2-2.3,0.3c-0.1,0,0.2-0.1-0.1,0c-0.2,0,0,0-0.2,0.1c-1.3,0.2-2.6,0.1-3.8,0.1
			c-2.1,0-4.3-0.3-6.3-0.9l0,0c-0.7-0.1-1.5-0.6-2-0.8c-0.1-0.1-0.6-0.3-0.4-0.3c-0.5-0.2-1.3-0.8-1.9-1.3l0.2,0.1
			c-0.6-0.5-1.2-1-1.6-1.7l0.2,0.2c-0.2-0.3-0.5-0.6-0.5-0.8c-0.1-0.2-0.1-0.1,0,0c-0.9-1.6-1.3-3.7-1-5.6c0.3-1.3,0.2-0.1,0.3-1.1
			v-0.1c0.1-0.4,0.3-0.6,0.3-0.9c-0.1,0.1,0-0.2,0-0.2c0.3-0.8,0.5-0.9,0.7-1.5v0.1c0.3-0.7,0.8-1.5,1-2.1c2.4-3.6,5.4-6.3,8.8-8.7
			c3.4-2.3,6.9-4.2,10.8-5.6c0.9-0.3,1-0.3,2-0.7l0,0c0-0.1,0.7-0.2,0.8-0.3c1.5-0.4,2.8-0.8,4.4-1.2c-0.2,0.1-0.4,0.1-0.1,0.1
			l0.3-0.1h0.1c0.2,0,0.4-0.1,0.2-0.1c3.9-0.8,7.8-1,11.7-0.5c0.9,0.2,2.2,0.4,3.2,0.7c2.8,1,5.3,2.6,6.6,5.5
			C159.6,90.3,159.4,89.9,158.7,88.9z"/>
		<path class="st4" d="M159.8,91.2c0,0.1,0.1,0.4,0,0.2V91.2z"/>
		<path class="st4" d="M157.7,99.8l-0.1,0.1c0.1-0.1,0.1-0.2,0.1-0.3C157.7,99.8,157.7,99.8,157.7,99.8z"/>
		<path class="st4" d="M156.4,101.7c0,0,0.3-0.5,0.4-0.7L156.4,101.7z"/>
		<path class="st4" d="M154.9,103.3C154.8,103.4,154.8,103.4,154.9,103.3L154.9,103.3z"/>
		<path class="st4" d="M154.9,103.5c-0.1,0.1-0.2,0.2-0.3,0.2L154.9,103.5z"/>
		<path class="st4" d="M151.4,106.6c-0.1,0.1-0.3,0.2-0.4,0.3C151.2,106.9,151.5,106.5,151.4,106.6z"/>
		<path class="st4" d="M149.8,108l-0.1,0.1C149.5,108.2,149.6,108.1,149.8,108L149.8,108z"/>
		<polygon class="st4" points="112.6,115.2 112.8,115.3 112.8,115.3 		"/>
		<path class="st4" d="M112.3,100.2c0.1-0.2,0.1-0.1,0.2-0.1C112.3,100.2,112.4,100,112.3,100.2z"/>
		<path class="st4" d="M118.9,93.6L118.9,93.6L118.9,93.6z"/>
		<path class="st4" d="M109.1,105.7C108.9,105.8,109.2,105.7,109.1,105.7L109.1,105.7z"/>
		<path class="st4" d="M154.8,86.4c-0.5,0.4-1.3,0.5-1.8,0.9c-0.1,0,0-0.1-0.2,0c-0.5,0.4-1.5,0.7-2.2,0.9l0,0
			c-0.1,0-0.3,0.2-0.4,0.2l0,0l-0.3,0.2h-0.2l-0.1,0.1c-0.2,0.2-0.6,0.2-0.8,0.4l0,0c-0.5,0.3-1.1,0.5-1.6,0.8v-0.1
			c0,0.1-0.2,0.1-0.3,0.2c-0.1,0-0.2,0.2-0.4,0.2l0,0c-0.1,0.1-0.2,0-0.3,0.2h-0.1c0,0.1-0.2,0-0.3,0.1l0,0c-0.1,0.1-0.2,0-0.3,0.1
			l0,0c-0.2,0.1-0.4,0.1-0.3,0.2c-0.1,0,0.2-0.1,0.1-0.1c-0.7,0.4-1.4,0.7-2.2,1h-0.2l-0.3,0.2h-0.1c-0.1,0-0.1,0.1-0.3,0.2V92
			c-0.1,0.1-0.3,0.2-0.4,0.2v-0.1c-0.1,0.1-0.3,0.1-0.4,0.2v-0.1c-0.2,0.1,0,0.1-0.2,0.2v-0.1c-0.2,0.1-0.5,0.2-0.6,0.3l0,0
			c-0.2,0.1-0.4,0.2-0.6,0.3c-0.1,0,0-0.1-0.2,0c0,0.1-0.3,0.2-0.2,0.2c-0.2,0.1-0.5,0.2-0.6,0.2c0.1-0.1-0.1,0,0-0.1h-0.1l0.1-0.1
			l-0.4,0.2c-0.1,0.1-0.2,0.2-0.4,0.3c0.1-0.1-0.1,0,0-0.1l-0.3,0.3c-0.1,0,0,0-0.1,0l-0.1,0.1l-0.4,0.1v-0.1
			c-0.1,0.1-0.1,0.1-0.3,0.1l0,0l-0.1,0.1L137,94c0,0.1-0.2,0.1-0.3,0.2v-0.1c-0.2,0.1-0.3,0.2-0.5,0.3l0.1-0.1
			c-0.3,0.1-0.5,0.3-0.8,0.3l0,0c-0.1,0.1-0.1,0-0.2,0.1l-0.2,0.1l0,0c-0.1,0.1-0.6,0.3-0.9,0.4l-0.2,0.2v-0.1l-0.2,0.1
			c-0.1,0.1,0.5-0.3,0.3-0.1l-0.2,0.1c-0.1,0.1-0.2,0.2-0.4,0.2c0,0,0.1-0.1,0-0.1c-0.2,0.1,0,0-0.2,0.1l-0.1,0.1l-0.1,0.1l-0.3,0.1
			v-0.1l-0.2,0.2l0,0c0,0.1-0.2,0.1-0.3,0.2c-0.2,0-0.4,0.2-0.5,0.2c-0.1,0.1-0.2,0.2-0.4,0.2l0.1-0.1l-0.2,0.1H131
			c-0.1,0.1-0.1,0.1-0.1,0.1c-0.1,0-0.3,0.2-0.5,0.2l0.1-0.1c-0.1,0-0.2,0.2-0.4,0.2h0.1l-0.3,0.1l-0.2,0.1c-0.3,0.1-0.7,0.3-1,0.3
			l-0.1,0.1l0.1-0.1l0,0c-0.1,0-0.2,0.1-0.1,0c-0.2,0-0.2,0.2-0.4,0.3h-0.1l-0.1,0.1c-0.2,0.1-0.1,0-0.1-0.1l-0.2,0.1h-0.1l-0.1,0.1
			l0,0l-0.2,0.1h0.2l-0.2,0.1l-0.2,0.1l-0.1,0.1h-0.1h0.1c-0.1,0-0.1,0-0.2,0c-0.1,0.1,0.1,0.1-0.1,0.1l0.1-0.1h-0.2l0,0l0,0
			l-0.2,0.2l-0.3,0.1l0,0l-0.3,0.1l0,0l-0.2,0.1c-0.1,0-0.1-0.1-0.2,0s-0.2,0.2-0.1,0.2c-0.2,0.1-0.5,0.2-0.7,0.3l-0.1,0.1
			c-0.3,0.1-0.7,0.3-1,0.4c0.1-0.1,0,0,0-0.1l-0.1,0.1h0.1c-0.2,0.1-0.5,0.2-0.6,0.2v0.1c0-0.1-0.2,0-0.3,0.1l0,0h-0.1
			c0,0,0,0.1-0.1,0.1l0,0c-0.1,0.1-0.2,0.2-0.4,0.2h-0.1v0.1c-0.2,0.1-0.4,0.1-0.5,0.1c-0.3,0.3-0.9,0.5-1.3,0.7l0,0
			c-0.1,0,0,0.1-0.1,0.1c0,0-0.1,0,0-0.1c-0.2,0-0.2,0.1-0.3,0.2h0.1l-0.2,0.1v-0.1l-0.1,0.1c-0.1,0,0.2-0.2,0.1-0.3h-0.1
			c-0.1,0,0.2-0.2,0-0.1c-0.1,0.1-0.1,0.2,0,0.2c-0.2,0.1,0,0.2-0.3,0.3l0.1-0.1l-0.3,0.1c0.1,0,0,0.1,0,0.1c-0.1,0,0.1-0.1-0.1,0
			c0,0-0.2,0.1,0,0.1c0,0.1-0.2,0.1-0.2,0.1c-0.1,0,0.1-0.2-0.1-0.1l-0.1,0.2l-0.1-0.1c-0.1,0-0.2,0.2-0.3,0.1v0.1H118l-0.3,0.1
			l-0.1,0.1c0.1,0,0.1-0.1,0.2-0.1l-0.2,0.1l0,0l-0.2,0.1l0,0v0.1c-0.2,0.1-0.1-0.1-0.2,0l0.1-0.1l-0.2,0.1L117,103
			c-0.1,0.1-0.1,0-0.1,0.1l0.1-0.1c0,0-0.1,0-0.2,0s-0.2,0.2,0,0.1h-0.1c-0.1,0.1,0,0-0.1,0.1h-0.4l0.1-0.1h-0.1
			c0.1-0.1-0.1,0,0-0.1l-0.2,0.1c0.2,0-0.1,0.2-0.1,0.3c-0.2,0.1-0.2-0.1-0.4,0.1c0.1,0,0,0.1,0.1,0c-0.2,0.1-0.1,0.1-0.3,0.2
			c0.1-0.1-0.2,0,0-0.2h0.1c-0.1,0,0-0.1-0.2,0l-0.2,0.1h0.1c-0.2,0.1-0.2,0-0.3,0.2c0.1-0.1,0.2,0,0.2,0l-0.1,0.1l0,0
			c-0.2,0.1,0,0.1-0.3,0.2h-0.1l0.2-0.2c-0.1,0.1-0.2,0.1-0.3,0.1l0.1-0.1c-0.1,0-0.1-0.1-0.3,0.1c-0.1,0.1,0,0,0,0.1
			c-0.2,0.1-0.3,0.2-0.4,0.2c0-0.1-0.3,0.1-0.1,0l0.5-0.2l0.2-0.2c-0.2,0.1-0.2,0-0.2,0l-0.1,0.1l0.1,0.1c-0.2,0.1-0.4,0.2-0.5,0.3
			v-0.1c-0.2,0.1-0.5,0.2-0.7,0.3c0.2,0-0.2,0.1-0.1,0.1s0.3,0,0.2,0l0,0c-0.1,0.1-0.2,0-0.2,0.1c0.2-0.1,0-0.1,0-0.2
			c-0.1,0.1,0,0-0.2,0c-0.1,0.1-0.3,0.2-0.5,0.3c-0.2,0-0.5,0.2-0.7,0.3c-0.1,0-0.1-0.1-0.2,0s0.1,0-0.1,0.1l0,0l-0.4,0.2v-0.1
			l-0.1,0.1v-0.1c-0.1,0-0.2,0.1-0.4,0.2h0.1c-0.2,0.1-0.4,0.1-0.6,0.2l0,0l-0.1,0.1h-0.2l0.3-0.2v0.1l0.3-0.1l-0.1,0.1l0.1-0.2H110
			c0.1-0.1,0.1-0.1,0.3-0.2l0,0c0-0.1,0.1-0.1,0.3-0.2c0.1,0,0.3-0.2,0.5-0.2c-0.1,0.1-0.1,0.2-0.2,0.2c0.1,0,0.1-0.1,0.3-0.1
			c0-0.1,0.1-0.1,0.2-0.2l0,0c0.1-0.1,0.1-0.1,0.3-0.2c0.3-0.1,0.6-0.2,0.8-0.3l0,0c0.1-0.1,0.4-0.2,0.6-0.3
			c0.3-0.1,0.6-0.3,0.8-0.3c0.5-0.2,0.9-0.5,1.5-0.7l-0.1,0.1c0.1-0.1,0.1,0,0.2,0l0.2-0.2c0.2-0.1,0.5-0.2,0.7-0.4l0,0
			c0.2-0.2,0.5-0.2,0.7-0.3h0.2c0.1-0.1,0.2-0.1,0.4-0.3c0.2-0.1,0.4-0.2,0.6-0.2c0.5-0.3,1.1-0.5,1.7-0.8h0.1
			c0.5-0.3,1.3-0.6,1.7-0.8v0.1c0.2,0,0.3-0.2,0.3-0.2c0.2,0,0.4-0.2,0.5-0.2c0.2-0.1,0.2-0.1,0.3-0.2c0.3-0.1,0.4-0.2,0.7-0.3h-0.1
			h0.1c0.1-0.1,0.4-0.2,0.3-0.2c0.3-0.1,0.7-0.4,1.1-0.4l0.1-0.1c0.3-0.1,0.6-0.2,0.8-0.3c0,0-0.1,0.1,0.1,0l0.1-0.1
			c0.4-0.2,0.9-0.3,1.3-0.5c0.7-0.4,1.5-0.7,2.2-1l0,0c0.2-0.2,0.6-0.2,0.7-0.3h0.2c0.2-0.1,0.5-0.2,0.8-0.4h-0.1
			c0.3-0.1,0.5-0.2,0.8-0.3l-0.1,0.1c0.1,0,0.2-0.2,0.3-0.1l0,0c0.6-0.2,1.3-0.6,1.9-0.9c0.5-0.1,0.1,0.1,0.4-0.1l0,0
			c0.1-0.1,0.3,0,0.3-0.1v-0.1c0.3-0.1,0.4-0.1,0.6-0.2l0,0c0.2-0.2,0.6-0.3,0.7-0.5c1.5-0.6,2.8-1.3,4.3-1.9
			c1.4-0.6,2.8-1.2,4.2-1.8c0.4-0.1,0.4-0.1,0.7-0.3l0,0l0.3-0.2c0.5-0.2,1-0.4,1.6-0.7c-0.1,0-0.1,0.1,0,0.1l0.1-0.1l0,0l0.1-0.1
			c1.3-0.6,2.7-1.1,4.1-1.7c0.3-0.1,0.8-0.3,1.1-0.5c1.1-0.4,2-0.7,3-1.2C155.3,85.9,155.2,86.2,154.8,86.4z"/>
		<path class="st4" d="M109.3,105.6C109.4,105.6,109.5,105.6,109.3,105.6L109.3,105.6z"/>
		<path class="st4" d="M112.6,104.6L112.6,104.6L112.6,104.6z"/>
		<path class="st4" d="M113.5,104.2c0,0-0.2,0.1-0.3,0.2L113.5,104.2z"/>
		<path class="st4" d="M114.3,104L114.3,104L114.3,104z"/>
		<path class="st4" d="M114.3,103.9L114.3,103.9L114.3,103.9z"/>
		<path class="st4" d="M116,103.3l0.2-0.1L116,103.3z"/>
		<polygon class="st4" points="116.7,103 116.8,102.9 116.8,103 		"/>
		<polygon class="st4" points="130.6,97 130.5,97 130.5,97 		"/>
		<path class="st4" d="M136.7,94.4L136.7,94.4C136.7,94.4,136.8,94.3,136.7,94.4z"/>
		<polygon class="st4" points="139.9,92.9 139.9,92.9 139.9,92.8 		"/>
		<path class="st4" d="M159.6,96.3c0.2-0.1-0.1,0,0.1-0.1L159.6,96.3z"/>
		<path class="st4" d="M113.6,115.7c0.5-0.4,1.3-0.5,1.8-0.9c0.1,0,0,0.1,0.2,0c0.5-0.4,1.5-0.7,2.2-0.9l0,0c0.1,0,0.3-0.2,0.4-0.2
			l0,0l0.3-0.2h0.2l0.1-0.1c0.2-0.2,0.6-0.2,0.8-0.4l0,0c0.5-0.3,1.1-0.5,1.7-0.8v0.1c0-0.1,0.2-0.2,0.3-0.2c0.1,0,0.2-0.2,0.4-0.2
			l0,0c0.1-0.1,0.2,0,0.3-0.2h0.1c0-0.1,0.2,0,0.3-0.1l0,0c0.1-0.1,0.2,0,0.3-0.1l0,0c0.2-0.1,0.4-0.1,0.3-0.2
			c0.1,0-0.2,0.1-0.1,0.1c0.7-0.4,1.5-0.7,2.2-1h0.2l0.3-0.2h0.1c0.1,0,0.1-0.1,0.3-0.2v0.1c0.1-0.1,0.3-0.2,0.4-0.2v0.1
			c0.1-0.1,0.3-0.1,0.4-0.2v0.1c0.2-0.1,0-0.1,0.2-0.2v0.1c0.2-0.1,0.5-0.2,0.6-0.3l0,0c0.2-0.1,0.4-0.2,0.6-0.3c0.1,0,0,0.1,0.2,0
			c0-0.1,0.3-0.2,0.2-0.2c0.2-0.1,0.5-0.2,0.6-0.2c-0.1,0.1,0.1,0,0,0.1h0.1l-0.1,0.1l0.4-0.2c0.1-0.1,0.2-0.2,0.4-0.3
			c-0.1,0.1,0.1,0.1,0,0.1l0.3-0.3c0.1,0,0,0,0.1,0l0.1-0.1l0.4-0.1v0.1c0.1-0.1,0.1-0.1,0.3-0.1l0,0l0.1-0.1h-0.1
			c0-0.1,0.2-0.1,0.3-0.2v0.1c0.2-0.1,0.4-0.2,0.5-0.3l-0.1,0.1c0.3-0.1,0.5-0.3,0.8-0.3l0,0c0.1,0,0.1,0,0.2-0.1l0.2-0.1l0,0
			c0.1-0.1,0.6-0.3,0.9-0.4l0.2-0.2v0.1l0.2-0.1c0.1-0.1-0.5,0.3-0.3,0.1l0.2-0.1c0.1-0.1,0.2-0.2,0.4-0.2c0,0-0.1,0.1,0,0.1
			c0.2-0.1,0,0,0.2-0.1l0.1-0.1l0.1-0.1l0.3-0.1v0.1l0.2-0.2l0,0c0-0.1,0.2-0.1,0.3-0.2c0.2,0,0.4-0.2,0.5-0.2
			c0.1-0.1,0.2-0.2,0.4-0.2l-0.1,0.1l0.2-0.1h0.3c0.1-0.1,0.1-0.1,0.1-0.1c0.1,0,0.3-0.2,0.5-0.2c0,0-0.2,0.1-0.1,0.1
			c0.1,0,0.2-0.2,0.4-0.2h-0.1l0.3-0.1l0.2-0.1c0.3-0.1,0.7-0.3,1-0.3l0.1-0.1l-0.1,0.1l0,0c0.1,0,0.2-0.1,0.1,0
			c0.2,0,0.2-0.2,0.4-0.3h0.1l0.1-0.1c0.2-0.1,0.1,0,0.1,0.1l0.2-0.1h0.1l0.1-0.1l0,0l0.2-0.1H141l0.2-0.1l0.2-0.1l0.1-0.1h0.1h-0.1
			c0.1,0,0.1,0,0.2,0c0.1-0.1-0.1-0.1,0.1-0.1l-0.1,0.1h0.2l0,0l0,0l0.2-0.2l0.3-0.1l0,0l0.3-0.1l0,0l0.2-0.1c0.1,0,0.1,0.1,0.2,0
			c0.1-0.1,0.2-0.2,0.1-0.2c0.2-0.1,0.5-0.2,0.7-0.3l0.1-0.1c0.3-0.1,0.7-0.3,1-0.4c-0.1,0.1,0,0,0,0.1l0.1-0.1H145
			c0.2-0.1,0.5-0.2,0.6-0.2v-0.1c0,0.1,0.2,0,0.3-0.1l0,0h0.1c0,0,0-0.1,0.1-0.1l0,0c0.1-0.1,0.2-0.2,0.4-0.2h0.1v-0.1
			c0.2-0.1,0.4-0.1,0.5-0.1c0.3-0.3,0.9-0.5,1.3-0.7l0,0c0.1,0,0-0.1,0.1-0.1c0,0,0.1,0,0,0.1c0.2,0,0.2-0.1,0.3-0.2h-0.1l0.2-0.1
			v0.1l0.1-0.1c0.1,0-0.2,0.2-0.1,0.3h0.1c0.1,0-0.2,0.2,0,0.1c0.1-0.1,0.1-0.2,0-0.2c0.2-0.1,0-0.2,0.3-0.3l-0.1,0.1l0.3-0.1V100
			c0.1,0-0.1,0.1,0.1,0c0,0,0.2-0.1,0-0.1c0-0.1,0.2-0.1,0.2-0.1c0.1,0-0.1,0.2,0.1,0.1l0.1-0.2l0.1,0.1c0.1,0,0.2-0.2,0.3-0.1v-0.1
			h0.1l0.3-0.1l0.1-0.1c-0.1,0-0.1,0.1-0.2,0.1l0.2-0.1l0,0l0.2-0.1l0,0v-0.1c0.2-0.1,0.1,0.1,0.2,0l-0.1,0.1l0.2-0.1l0.1-0.2
			c0.1-0.1,0.1,0,0.1-0.1l-0.1,0.1c0,0,0.1,0,0.2,0c0.1,0,0.2-0.2,0-0.1h0.1c0.1-0.1,0,0,0.1-0.1h0.4l-0.1,0.1h0.1
			c-0.1,0.1,0.1,0,0,0.1l0.2-0.1c-0.2,0,0.1-0.2,0.1-0.3c0.2-0.1,0.2,0.1,0.4-0.1c0,0,0-0.1-0.1,0c0.2-0.1,0.1-0.1,0.3-0.2
			c-0.1,0.1,0.2,0,0,0.2h-0.1c0.1,0,0,0.1,0.2,0l0.2-0.1h-0.1c0.2-0.1,0.2,0,0.3-0.2c-0.1,0.1-0.2,0-0.2,0l0.1-0.1l0,0
			c0.2-0.1,0-0.1,0.3-0.2h0.1l-0.2,0.2c0.1-0.1,0.2-0.1,0.3-0.1l-0.1,0.1c0.1,0,0.1,0.1,0.3-0.1c0.1-0.1,0,0,0-0.1
			c0.2-0.1,0.3-0.2,0.4-0.2c0,0.1,0.3-0.1,0.1,0l-0.5,0.2l-0.2,0.2c0.2-0.1,0.2,0,0.2,0l0.1-0.1l-0.1-0.1c0.2-0.1,0.4-0.2,0.5-0.3
			v0.1c0.2-0.1,0.5-0.2,0.7-0.3c-0.2,0,0.2-0.1,0.1-0.1c-0.1,0-0.3,0-0.2,0l0,0c0.1-0.1,0.2,0,0.2-0.1c-0.2,0.1,0,0.1,0,0.2
			c0.1-0.1,0,0,0.2,0c0.1-0.1,0.3-0.2,0.5-0.3c0.2,0,0.5-0.2,0.7-0.3c0.1,0,0.1,0.1,0.2,0c0.1-0.1-0.1,0,0.1-0.1l0,0l0.4-0.2v0.1
			l0.1-0.1v0.1c0.1,0,0.2-0.1,0.4-0.2h-0.1c0.2-0.1,0.4-0.1,0.6-0.2l0,0l0.1-0.1h0.2l-0.3,0.2v-0.1l-0.3,0.1l0.1-0.1l-0.1,0.2h0.1
			c-0.1,0.1-0.1,0.1-0.3,0.2l0,0c0,0.1-0.1,0.1-0.3,0.2c-0.1,0-0.3,0.2-0.5,0.2c0.1-0.1,0.1-0.2,0.2-0.2c-0.1,0-0.1,0.1-0.3,0.1
			c0,0.1-0.1,0.1-0.2,0.2l0,0c-0.1,0.1-0.1,0.1-0.3,0.2c-0.3,0.1-0.6,0.2-0.8,0.3l0,0c-0.1,0.1-0.4,0.2-0.6,0.3
			c-0.3,0.1-0.6,0.3-0.8,0.3c-0.5,0.2-0.9,0.5-1.5,0.7l0.1-0.1c-0.1,0.1-0.1,0-0.2,0l-0.2,0.2c-0.3,0.1-0.5,0.2-0.7,0.4l0,0
			c-0.2,0.2-0.5,0.2-0.7,0.3h-0.2c-0.1,0.1-0.2,0.1-0.4,0.3c-0.2,0.1-0.4,0.2-0.6,0.2c-0.5,0.3-1.1,0.5-1.7,0.8h-0.1
			c-0.5,0.3-1.3,0.6-1.8,0.8v-0.1c-0.2,0-0.3,0.2-0.3,0.2c-0.2,0-0.4,0.2-0.5,0.2c-0.2,0.1-0.2,0.1-0.3,0.2
			c-0.3,0.1-0.4,0.2-0.7,0.3h0.1h-0.1c-0.1,0.1-0.4,0.2-0.3,0.2c-0.3,0.1-0.7,0.4-1.1,0.4l-0.1,0.1c-0.3,0.1-0.6,0.2-0.8,0.3
			c0,0,0.1-0.1-0.1,0l-0.1,0.1c-0.4,0.2-0.9,0.3-1.3,0.5c-0.7,0.4-1.5,0.7-2.2,1l0,0c-0.2,0.2-0.6,0.2-0.7,0.3h-0.2
			c-0.2,0.1-0.5,0.2-0.8,0.3h0.1c-0.3,0.1-0.5,0.2-0.8,0.3l0.1-0.1c-0.1,0-0.2,0.2-0.3,0.1l0,0c-0.6,0.2-1.3,0.6-1.9,0.9
			c-0.5,0.1-0.1-0.1-0.4,0.1l0,0c-0.1,0.1-0.3,0-0.3,0.1v0.1c-0.3,0.1-0.4,0.1-0.6,0.2l0,0c-0.2,0.2-0.6,0.3-0.7,0.5
			c-1.5,0.6-2.9,1.3-4.3,1.9c-1.4,0.6-2.8,1.2-4.3,1.8c-0.4,0.1-0.4,0.1-0.7,0.3l0,0l-0.3,0.2c-0.5,0.2-1,0.4-1.6,0.7
			c0.1,0,0.1-0.1,0-0.1l-0.1,0.1l0,0v0.1c-1.4,0.6-2.8,1.1-4.1,1.7c-0.3,0.1-0.8,0.3-1.1,0.5c-1.1,0.4-2,0.7-3,1.2
			C113.2,116.1,113.2,115.9,113.6,115.7z"/>
		<path class="st4" d="M159.4,96.4C159.3,96.4,159.2,96.4,159.4,96.4L159.4,96.4z"/>
		<polygon class="st4" points="156,97.4 156,97.4 156.1,97.4 		"/>
		<path class="st4" d="M155.2,97.7c0,0,0.2-0.1,0.3-0.2L155.2,97.7z"/>
		<path class="st4" d="M154.4,98L154.4,98L154.4,98z"/>
		<path class="st4" d="M154.4,98h-0.1H154.4z"/>
		<path class="st4" d="M152.7,98.7l-0.2,0.1L152.7,98.7z"/>
		<path class="st4" d="M151.9,99L151.9,99L151.9,99z"/>
		<polygon class="st4" points="138,105 138.1,105 138.1,105 		"/>
		<path class="st4" d="M131.9,107.6L131.9,107.6C131.9,107.6,131.8,107.7,131.9,107.6z"/>
		<polygon class="st4" points="128.6,109.2 128.7,109.2 128.7,109.2 		"/>
		<g>
			<path class="st4" d="M165.4,90l-1.4,0.2c-0.5,0.1-1.2,0-1.3-0.7c-0.1-0.5,0.3-0.9,1.1-0.9l1.6-0.2v-0.8l-1.7,0.2
				c-1.6,0.2-1.8,1.2-1.7,1.8c0.1,1.1,0.9,1.6,2,1.5l1.3-0.1L165.4,90L165.4,90z"/>
			<path class="st4" d="M165.4,91.3c-0.5,0.1-0.9,0.5-1.1,1.3c-0.2,0.6-0.3,0.7-0.6,0.8c-0.4,0-0.6-0.2-0.6-0.7c0-0.3,0-0.6,0.2-0.9
				l0.1-0.1h-0.2l-0.5-0.1h-0.1v0.1c-0.1,0.3-0.2,0.7-0.2,1.1c0.1,1.1,0.9,1.5,1.5,1.4s1-0.4,1.2-1.2c0.1-0.4,0.2-0.6,0.4-0.7
				L165.4,91.3L165.4,91.3z"/>
			<path class="st4" d="M165.4,96.2c-0.2,0.1-0.5,0.2-0.6,0.3l-0.1-0.9l0.7,0.2V95l-2.6-0.6h-0.2l0.1,0.8h0.1l1.2,0.3l0.1,1.3
				l-1.1,0.5h-0.1l0.1,0.8l0.2-0.1l2.2-1L165.4,96.2L165.4,96.2z"/>
		</g>
		<g>
			<path class="st4" d="M127.1,99.3v0.2l-0.2,4.5c0,0.9-0.1,1.6-0.1,2.3c-0.4-0.6-0.7-1.2-1.1-1.8l-2.3-3.5l-0.1-0.2l-1.6,0.7
				l0.2,0.3l4.7,7l0.1,0.2l1.5-0.6v-0.2l0.6-9.2v-0.4L127.1,99.3z"/>
			<polygon class="st4" points="129.2,98.4 131.5,107.1 133,106.4 130.7,97.8 			"/>
			<path class="st4" d="M135.5,99.7c-1.1,0-1.5-0.2-1.7-0.7c-0.1-0.4,0.1-1.1,0.9-1.4c0.6-0.2,1.1-0.3,1.4-0.2l0.3,0.1v-0.4v-1v-0.2
				h-0.2c-0.5-0.1-1.2,0-1.9,0.3c-1.6,0.7-2.5,2.2-2.1,3.6c0.3,1.2,1.3,1.7,2.9,1.6c1.2,0,1.5,0.3,1.6,0.8c0.2,0.7-0.2,1.3-1,1.7
				c-0.6,0.2-1.2,0.3-1.7,0.2l-0.4-0.1v0.4v1v0.2h0.2c0.6,0.1,1.5,0,2.2-0.3c2-0.9,2.6-2.6,2.2-3.9
				C137.9,99.9,136.6,99.7,135.5,99.7z"/>
			<path class="st4" d="M146,100.5l-4.8-7l-0.1-0.2l-1.6,0.7v0.2l-0.4,9.2v0.4l1.6-0.7v-0.2l0.1-2.7l2.3-1l1.4,2l0.1,0.2l1.6-0.7
				L146,100.5z M140.6,99l0.1-2.4c0-0.5,0-1,0-1.4l0,0c0.2,0.4,0.4,0.8,0.7,1.2l1.2,1.8L140.6,99z"/>
		</g>
		<g>
			<path class="st4" d="M127.8,80.8l0.8,2.4c0.2,0.5,0.2,1.1-0.4,1.4c-0.5,0.2-0.9-0.1-1.1-0.8l-0.8-2.4l-0.7,0.2l0.8,2.4
				c0.5,1.5,1.5,1.4,2.1,1.2c1-0.3,1.3-1.2,1-2.3l-0.8-2.3L127.8,80.8z"/>
			<path class="st4" d="M131.1,81.6c-0.6,0-0.8-0.1-0.9-0.4c-0.1-0.2,0-0.5,0.4-0.7c0.3-0.1,0.6-0.1,0.7-0.1h0.2v-0.2v-0.4v-0.1
				h-0.1c-0.3-0.1-0.6,0-1,0.1c-0.8,0.3-1.2,0.9-1,1.6c0.2,0.5,0.7,0.8,1.5,0.8c0.6,0,0.8,0.2,0.9,0.4c0.1,0.3-0.1,0.6-0.5,0.8
				c-0.3,0.1-0.6,0.1-0.9,0h-0.2v0.2v0.5v0.1h0.1c0.3,0.1,0.8,0,1.1-0.1c1.1-0.4,1.2-1.2,1-1.7C132.3,81.9,131.9,81.6,131.1,81.6z"
				/>
			<path class="st4" d="M136.5,82.2l-2.6-3.4l-0.1-0.1L133,79v0.1v4.3v0.2l0.8-0.3v-0.1V82l1.2-0.4l0.8,1l0.1,0.1l0.8-0.3
				L136.5,82.2z M133.8,80.2c0-0.1,0-0.2,0-0.3c0.1,0.1,0.1,0.2,0.2,0.3c0,0,0.4,0.6,0.7,0.8l-0.8,0.3L133.8,80.2z"/>
		</g>
		<g>
			<path class="st4" d="M110.1,92.1l1.6,1.8c0.3,0.4,0.6,0.9,0.1,1.4c-0.4,0.3-0.9,0.2-1.4-0.3l-1.6-1.8l-0.6,0.5l1.6,1.8
				c1.1,1.2,1.9,0.7,2.4,0.3c0.8-0.7,0.8-1.6,0-2.4l-1.6-1.8L110.1,92.1z"/>
			<path class="st4" d="M113.3,91.6c-0.5,0.2-0.8,0.2-1,0c-0.1-0.2-0.2-0.5,0.2-0.8c0.2-0.2,0.5-0.3,0.6-0.3h0.2l-0.1-0.1L113,90
				v-0.1h-0.1c-0.3,0.1-0.6,0.2-0.8,0.5c-0.6,0.5-0.7,1.3-0.2,1.8c0.4,0.4,0.9,0.5,1.7,0.2c0.6-0.2,0.8-0.1,0.9,0.1
				c0.2,0.3,0.2,0.6-0.2,0.9c-0.2,0.2-0.5,0.3-0.8,0.4h-0.2l0.1,0.1l0.2,0.4v0.1h0.1c0.3,0,0.7-0.3,1-0.5c0.8-0.7,0.7-1.5,0.3-1.9
				C114.5,91.3,114,91.3,113.3,91.6z"/>
			<path class="st4" d="M118.4,90.1l-3.6-2.1h-0.1l-0.6,0.5v0.1l1.6,3.8l0.1,0.2l0.6-0.5V92l-0.5-1.1l0.9-0.8l1.1,0.6h0.1l0.6-0.5
				L118.4,90.1z M115.2,89.3c0-0.1-0.1-0.2-0.1-0.3c0.1,0.1,0.2,0.1,0.3,0.2c0,0,0.6,0.3,0.9,0.5l-0.6,0.6L115.2,89.3z"/>
		</g>
		<g>
			<path class="st4" d="M102,112l2.6-0.1c0.5,0,1.2,0.1,1.2,0.9c0,0.5-0.4,0.9-1.2,0.9l-2.6,0.1v0.8l2.6-0.1
				c1.7-0.1,1.9-1.1,1.9-1.7c0-1.1-0.8-1.7-2-1.6l-2.6,0.1L102,112z"/>
			<path class="st4" d="M103.7,109.1c-0.2,0.6-0.4,0.8-0.7,0.8c-0.2,0-0.5-0.2-0.5-0.6c0-0.3,0.1-0.6,0.2-0.7l0.1-0.1h-0.2l-0.4-0.1
				h-0.1v0.1c-0.1,0.2-0.2,0.6-0.2,1c0,0.9,0.6,1.5,1.3,1.4c0.6,0,1-0.4,1.3-1.2c0.2-0.6,0.4-0.7,0.7-0.7c0.4,0,0.6,0.3,0.6,0.7
				c0,0.3-0.1,0.6-0.2,0.9l-0.1,0.1h0.2l0.5,0.1h0.1v-0.1c0.2-0.3,0.3-0.7,0.3-1.1c0-1.2-0.8-1.6-1.4-1.5
				C104.4,107.9,104,108.2,103.7,109.1z"/>
			<path class="st4" d="M106,103.9l-4.1,1.6h-0.1v0.8h0.1l4.2,1.3l0.2,0.1v-0.8h-0.1l-1.2-0.4v-1.3l1.2-0.5h0.1v-0.8L106,103.9z
				 M103.2,106c-0.1,0-0.2-0.1-0.3-0.1c0.1,0,0.2-0.1,0.3-0.1c0,0,0.7-0.3,1-0.4v0.9L103.2,106z"/>
		</g>
		<g>
			<path class="st4" d="M120.8,122.1c0.1-0.4,0.4-0.7,0.9-0.7c0.3,0.1,0.5,0.3,0.6,0.7h0.7c-0.1-0.9-0.8-1.2-1.2-1.3
				c-0.9-0.1-1.5,0.3-1.7,1.3H120.8z"/>
			<path class="st4" d="M118.4,122.1c-0.5-0.3-0.5-0.5-0.5-0.7c0.1-0.3,0.3-0.5,0.7-0.4c0.3,0,0.6,0.2,0.8,0.3l0.1,0.1l0.1-0.1
				l0.2-0.4v-0.1l-0.1-0.1c-0.2-0.2-0.6-0.4-1-0.4c-1-0.2-1.5,0.4-1.6,1c0,0.3,0,0.5,0.1,0.8C117.2,122.1,118.4,122.1,118.4,122.1z"
				/>
			<path class="st4" d="M114.3,122.1h0.7c0-0.2-0.1-0.4-0.1-0.5l0.8,0.1l-0.2,0.4h0.7l0.9-1.8l0.1-0.1l-0.7-0.1v0.1l-0.5,1l-1.2-0.2
				l-0.2-1.1v-0.1l-0.7-0.1v0.2L114.3,122.1z"/>
		</g>
		<g>
			<path class="st4" d="M141,121.2l-0.8-2.5c-0.2-0.5-0.2-1.2,0.5-1.4c0.5-0.2,0.9,0.1,1.2,0.9l0.8,2.5l0.8-0.3l-0.8-2.5
				c-0.5-1.6-1.6-1.5-2.2-1.3c-1,0.3-1.4,1.2-1,2.4l0.8,2.4L141,121.2z"/>
			<path class="st4" d="M137.7,120.4c0.6,0,0.8,0.1,0.9,0.4c0.1,0.2,0,0.5-0.5,0.7c-0.3,0.1-0.6,0.1-0.7,0.1h-0.2v0.2v0.4h1.4
				c0.6-0.3,0.9-0.9,0.7-1.6c-0.2-0.6-0.7-0.8-1.5-0.9c-0.6,0-0.8-0.2-0.9-0.4c-0.1-0.3,0.1-0.6,0.5-0.8c0.3-0.1,0.6-0.1,0.9,0h0.2
				v-0.2v-0.5v-0.1h-0.1c-0.3-0.1-0.8,0-1.2,0.1c-1.1,0.4-1.3,1.2-1.1,1.8C136.4,120.1,136.8,120.4,137.7,120.4z"/>
			<path class="st4" d="M133.9,122.1h1c0-0.1-0.1-0.1-0.1-0.2c0,0-0.5-0.6-0.7-0.9l0.9-0.3v1.1c0,0.1,0,0.2,0,0.3h0.7v-3.5v-0.2
				l-0.8,0.3v0.1v1.3l-1.2,0.4l-0.8-1l-0.1-0.1l-0.8,0.3l0.1,0.1L133.9,122.1z"/>
		</g>
		<g>
			<path class="st4" d="M158.7,110.1l-1.8-2c-0.4-0.4-0.7-1-0.2-1.5c0.4-0.4,0.9-0.3,1.5,0.3l1.8,2l0.6-0.5l-1.8-1.9
				c-1.1-1.2-2.1-0.7-2.5-0.3c-0.8,0.7-0.8,1.7,0,2.6l1.8,1.9L158.7,110.1z"/>
			<path class="st4" d="M155.3,110.7c0.6-0.2,0.8-0.2,1,0s0.2,0.5-0.2,0.8c-0.2,0.2-0.5,0.3-0.7,0.4h-0.2l0.1,0.1l0.2,0.4v0.1h0.1
				c0.3-0.1,0.6-0.2,0.9-0.5c0.7-0.6,0.8-1.4,0.2-2c-0.4-0.4-1-0.5-1.8-0.2c-0.6,0.2-0.8,0.2-1,0c-0.3-0.3-0.2-0.6,0.2-1
				c0.2-0.2,0.5-0.4,0.8-0.4h0.2l-0.1-0.2l-0.2-0.4v-0.1h-0.1c-0.3,0-0.7,0.3-1.1,0.6c-0.9,0.8-0.7,1.6-0.3,2.1
				C154,111,154.5,111,155.3,110.7z"/>
			<path class="st4" d="M149.8,112.3l3.9,2.1h0.1l0.6-0.6v-0.1l-1.8-4.1l-0.1-0.2l-0.6,0.6v0.1l0.5,1.2l-1,0.9l-1.2-0.6h-0.1
				l-0.6,0.6L149.8,112.3z M153.3,113.1c0,0.1,0.1,0.2,0.2,0.3c-0.1-0.1-0.2-0.1-0.3-0.2c0,0-0.7-0.4-1-0.5l0.7-0.6L153.3,113.1z"/>
		</g>
		<g>
			<path class="st4" d="M149.3,78.1l-0.5,2.4c-0.1,0.5-0.4,1.1-1.1,0.9c-0.5-0.1-0.7-0.6-0.6-1.3l0.5-2.4l-0.7-0.2l-0.5,2.4
				c-0.3,1.6,0.6,2,1.1,2.1c1,0.2,1.7-0.3,2-1.5l0.5-2.4H149.3z"/>
			<path class="st4" d="M151.6,80.3c-0.5-0.3-0.6-0.5-0.6-0.8c0-0.2,0.3-0.4,0.7-0.3c0.3,0.1,0.5,0.2,0.6,0.3l0.1,0.1l0.1-0.1
				l0.2-0.4V79l-0.1-0.1c-0.2-0.2-0.5-0.3-0.9-0.4c-0.8-0.2-1.5,0.2-1.6,0.9c-0.1,0.6,0.2,1,0.9,1.5c0.5,0.3,0.6,0.5,0.5,0.8
				s-0.4,0.5-0.8,0.4c-0.3-0.1-0.6-0.2-0.8-0.4l-0.1-0.1l-0.1,0.1l-0.2,0.4v0.1l0.1,0.1c0.2,0.2,0.6,0.4,1,0.5
				c1.1,0.2,1.6-0.4,1.7-0.9C152.6,81.2,152.3,80.8,151.6,80.3z"/>
			<path class="st4" d="M155.9,83.6l-0.5-4.2v-0.1l-0.8-0.2v0.1l-2.1,3.6l-0.1,0.1l0.8,0.2V83l0.6-1.1l1.2,0.3l0.2,1.2v0.1
				L155.9,83.6L155.9,83.6z M154.6,80.5c0.1-0.1,0.1-0.2,0.2-0.3c0,0.1,0,0.2,0,0.3c0,0,0.1,0.7,0.1,1l-0.8-0.2L154.6,80.5z"/>
		</g>
	</g>
</g>
</svg>
