<?xml version="1.0" encoding="UTF-8"?>
<svg xmlns="http://www.w3.org/2000/svg" width="300" height="249.83" xmlns:xlink="http://www.w3.org/1999/xlink" viewBox="0 0 300 249.83">
  <defs>
    <linearGradient id="linear-gradient" x1="149.97" y1="4.97" x2="149.97" y2="293.33" gradientUnits="userSpaceOnUse">
      <stop offset="0" stop-color="#ffc93f"/>
      <stop offset="1" stop-color="#eb5d00"/>
    </linearGradient>
    <linearGradient id="linear-gradient-2" x1="149.97" y1="-128.93" x2="149.97" y2="256.27" gradientUnits="userSpaceOnUse">
      <stop offset="0" stop-color="#ffc93f"/>
      <stop offset="1" stop-color="#dc5d00"/>
    </linearGradient>
    <linearGradient id="linear-gradient-3" x1="252.32" y1="28.32" x2="199.43" y2="194.66" gradientUnits="userSpaceOnUse">
      <stop offset="0" stop-color="#ffe872"/>
      <stop offset="1" stop-color="#eb5d00"/>
    </linearGradient>
    <linearGradient id="linear-gradient-4" x1="171.12" y1="-49.99" x2="43.89" y2="350.13" xlink:href="#linear-gradient-3"/>
    <radialGradient id="radial-gradient" cx="124.41" cy="78.93" fx="124.41" fy="78.93" r="108.64" gradientTransform="translate(.03 .18)" gradientUnits="userSpaceOnUse">
      <stop offset=".01" stop-color="#ffffcf"/>
      <stop offset=".72" stop-color="#fbe28c"/>
      <stop offset="1" stop-color="#fad772"/>
    </radialGradient>
    <radialGradient id="radial-gradient-2" cx="232.12" cy="-72.1" fx="232.12" fy="-72.1" r="224.28" xlink:href="#radial-gradient"/>
    <radialGradient id="radial-gradient-3" cx="71.06" cy="103.68" fx="71.06" fy="103.68" r="55.44" xlink:href="#radial-gradient"/>
    <linearGradient id="linear-gradient-5" x1="-190.87" y1="-67.36" x2="-185.13" y2="-63.08" gradientTransform="translate(208.75 43.76) rotate(-16.56) scale(.84 1) skewX(3.49)" gradientUnits="userSpaceOnUse">
      <stop offset="0" stop-color="#fed01f"/>
      <stop offset="1" stop-color="#f15d22"/>
    </linearGradient>
    <linearGradient id="linear-gradient-6" x1="-490.91" y1="-67.87" x2="-484.83" y2="-63.34" gradientTransform="translate(-357.67 212.6) rotate(163.44) scale(.88 -1) skewX(-3.32)" xlink:href="#linear-gradient-5"/>
    <linearGradient id="linear-gradient-7" x1="294.3" y1="-281.79" x2="298.07" y2="-278.98" gradientTransform="translate(184.23 388.89) rotate(-70.84)" xlink:href="#linear-gradient-5"/>
    <linearGradient id="linear-gradient-8" x1="-954.12" y1="-281.53" x2="-950.21" y2="-278.61" gradientTransform="translate(-48 1056.21) rotate(109.16) scale(1.05 -1)" xlink:href="#linear-gradient-5"/>
    <linearGradient id="linear-gradient-9" x1="-109.14" y1="83.21" x2="-107.32" y2="84.57" gradientTransform="translate(141.73 -38.91) rotate(.6)" xlink:href="#linear-gradient-5"/>
    <linearGradient id="linear-gradient-10" x1="-567.21" y1="83.24" x2="-565.32" y2="84.66" gradientTransform="translate(-562.6 -46.29) rotate(-179.41) scale(1.05 -1)" xlink:href="#linear-gradient-5"/>
  </defs>
  <g id="background">
    <rect width="299.93" height="249.83" style="fill: url(#linear-gradient);"/>
  </g>
  <g id="could2">
    <path d="m299.89,89.23c-1.65-.95-6.8-8.58-6.89-8.59-9.11-1.33-20.1-5.55-29.05-1.39-5.91,2.75-7.92,6.88-14.19,7.17-11.16.52-22.73-.58-34.21.47-14.37,1.33-40.39-5.63-52.89,8.12,11.81,6.92,28.5,4.02,40.92,5.7,11.79,1.6,34.09,14.53,44.95,6.49-3.31-1.45-6.57-3.79-9.68-6.2,16.28-6.92,36.06-8.2,52.23-1.37-2.72,3.64-7.28,4.46-10.58,6.71,4.35.51,8.67,2,12.75,4.6-1.79,4.21-5.7,6.15-7.8,8.64,1.92.41,2.69,1.45,4.19,2.2-6.03,4.92-21.39,7.24-25.86,2.26-10.2,7.32-28.22,9.16-40.32,7.86-36.82-3.94-73.13-7.74-109.83-5.21-13.93.96-40.78-12.56-52.21,5.98,21.38,14.93,51.22,14.97,73.71,17.8-6.97,9.08-22.98,9.33-32.22,7.79-12.28-2.05-21.61-.2-33.94,3.17-22.17,6.04-68.96,5.91-68.96,5.91v82.5h299.93" style="fill: url(#linear-gradient-2);"/>
  </g>
  <g id="cloud1">
    <path d="m300,47.24c-13.28-.03-27.36-2.74-39.5,2.46,5.43,1.66,11.23,2.71,16.3,5.85-5.25,2.28-17.42.64-19.02,7.43-26.52,8.91-58.61-.12-84.64,12,27.62,2.63,56.11,1.67,83.51-4.11-3.18-.49-6.7-.17-9.87-.66,6.21-2.49,16.69-4.84,21.4,1.76-1.44,1.22-2.42,3.46-3.53,4.53,8.32,4.8,25.69,3.08,35.35,4.17v-33.44Z" style="fill: url(#linear-gradient-3);"/>
    <path d="m299.86,0H.07l.11,68.45c44.54-2.13,73.7.42,118.28,2.06,13.24.49,28.9,4.25,41.96-.25-4.85-5.85-21.12-3.5-27.68-4.39,6.06-3.53,13.65-1.57,19.17-5.97-15.24-4.59-36.04,8.43-49.69.47,2.76-3.43,7.13-3.32,11.07-5.6-3.76-1.96-8.13-2.76-12.25-3.54,2.08-2.1,5.14-3.76,8.09-4.43-2.11-1.11-5.04-3.83-7.84-4.43,16.88-10.26,38.85,2.63,56.66-5.14-6.34-1.24-16.75-1.79-21.73-6.17,5.67-4.49,15.45-3.25,19.39-8.85-1.02-.88-1.98-2.12-3-2.96,24.49.03,49.43-6.01,73.87-3.24,11.55,1.31,21.92,3.21,33.68,2.18,11.94-1.04,24.16-2.83,35.68,2.55-3.02,2.08-6.64,3.18-9.95,4.05,1.9.4,3.9,1.76,5.86,2.16-2.7,1.38-5.81,2.7-8.68,3.7,4.6,2.8,11.07,3.07,16.61,2.99L299.86,0Z" style="fill: url(#linear-gradient-4);"/>
  </g>
  <g id="Moon">
    <g>
      <path d="m228.22,125.2c0-43.15-35.04-78.12-78.26-78.12s-78.26,34.98-78.26,78.12,35.04,78.12,78.26,78.12,78.26-34.98,78.26-78.12Z" style="fill: url(#radial-gradient);"/>
      <path d="m220.38,93.55c-8.1-12.68-12.75-24.79-25.82-33.71-12.33-8.42-29.63-13.33-44.59-13.33-16.76,0-44.65,6.45-53.8,22.7,2.99-2.06,9.93-6.46,13.75-4.72,2.55,1.16,2.6,4.24,4.26,6.37-5.52,2.8-2.33,2.1-3.11,6.88-.23,1.39-1.87,1.23-2.06,2.74-.25,1.94.08,4.09-.08,6.07-2.27.45-3.79,2.01-4.31,4.3-.83-.43-2.49-.81-3.2-1.39,3.78,3.14,4.81,7.71.24,10.72-4.48,2.95-11.15-.57-5.68-4.89-5.19,2.41-3.52-5.06-2.64-7.62,3.92.44,1.8-2.56,2.26-4.38.58-2.28,2.4-3.85,4.67-4.32-2.5.06-6.2-.83-7.92,1.35,1.06.57.65.89,1.35,1.56-2.5,1.51-6.89,1.63-9.86,1.38,2.28,1.12,5.91.74,8.5,1.1-1.07.5-2.89.7-4.28.94,1.21.37,2.46.87,3.58,1.44-2.22,1.01-4.43,2.27-6.41,3.65,1.88-.32,4.01-1.42,6.01-1.3-4.11-.24.38,8.11,1.36,8.98-3.04,2.82-4.38,8.08-5.46,12.04,2.04-1.27,4.07-4.22,6.67-4.35-.29.01,3.07,3.48,3.62,3.79.24-1.67,1.31-3.32,1.72-4.91,3.89,2.12,5.01,9.01,9.84,9.9-1.13-4.07-7.49-14.71.72-15.14.99-.05-1.77-6.39-1.89-6.8,4.02-.2,6.85-.5,10.79,1.17-1.48-2.73-3.17-7.05-.9-9.42,1.74-1.81,4.05.46,4.37-3.86,3.26-.64,8.74,2.37,5.67,6.12,3.74-1.63,7.06-2.02,10.65.36.64-5.7,3.85-9.56,7.4-13.84,4-4.82,6.46-4.89,12.59-3.89,3.91.63,8.4-1,11.92,0,3.17.89,7.32,5.62,5,8.86,5.06-1.51,2.8-8.37,7-9.12,5.18-.91,5.78,8.72-.31,8.56,1.3,1.77,3.11,3.36,5,4.33,1.58-6.62,7.55-8.32,12.87-4.88,7.83,5.07,1.06,8.64-3.97,12.08-2.2,1.5-7.7,2.77-9.24,4.48-1.66,1.84.2,5.51-2.42,7.24-3.16,2.09-5.23-.58-4.96-4.03-2.88,1.66-6.82,5.4-8.43,8.27,2.54-.93,5.07-2.13,7.17-3.79.89,2.85,1.44,6.58,4.49,8.09.25-1.95.87-3.14-.17-5.26,2.18,1.2,4.26,2.86,6.31,4.04.63-3-1.68-5.45-2.68-7.71,1.5.24,3.03-.74,4.21-.79-.91-.69-2.14-2.46-3.56-2.74,5.23-1.37,12.99.09,17.51-2.26,4.28-2.23,4.05-7.32,10.27-5.03-1.21-.56-1.76-1.43-2.58-2.06,4.72-1.22,6.48,2.77,8.58,6.05Z" style="fill: url(#radial-gradient-2);"/>
      <path d="m157.19,201.14c40.24-.96,71.04-38.62,71.04-77.16,0-8.72-.61-21.75-7.02-28.58,2.1,3.67-.66,15.39-.25,20.35-2.67.34-5.67.21-8.5.46,3.8,6.6,12.51,24.79,9.58,32.14-.58,1.44-4.62,1.75-5.87,3.54-1.92,2.76-1.67,6.99-3.69,10.01-5.55-6.99-6.9,2.08-8.86,6.69-9.97-.43,15.6-26.38,5.1-32.4.57,1.27.67,2.41-.16,3.51-.5-.1-6.53-4.43-4.68-5.12-3.71,1.39-6.99-1-10.23-2.87,3.39,3.8,2.82,9.24-1.32,12.29-.81-1.65-1.89-1.15-2.09-3.79-.77,2.59-2.4,3.26-3.92,5.22-1.57-2.02-2.56-4.63-2.82-7.31-3.33,4.7-4.72,10.92-11.25,12.04-6.78,1.17-16.46-5.67-16.3-12.79-.06.66-.14,1.68-.05,2.32.92-1.91,2.67-2.88,3.95-4.49,1.37,2.05,2.28,5.4,3.59,7.7.33-3.99,1.91-8.61.53-12.48,5.86,2.08,11.94,4,17.86,5.72-.81-4.68-4.78-8-8.59-10.57,2.02-2.33,5.39-2.73,7.86-4.74-1.19-.44-3.42-2.48-4.82-2.85,1.82-.84,3.98-2.13,6.09-2.48-4.03,1.54-8.42,1.78-12.78,1.46,7.55,6.33-16.21,16.69-16.37,1.14.73.03,1.72-.09,2.49-.12-2.25.32-4.17-.62-6.29-1.12-.87-3.04-.25-5.99,2.44-7.61-4.45,3.11-4.03,11.55-10.86,10.77,1.29,2.78,9.97,9.27,9.55,11.76-.85,4.99-12.96,2.19-16.4,1.38,1.45,4.24-2.98,10.01-8.52,10.66,9.7-2.49,5.96,15.28-1.88,4.61.16.36,1.03,1.67,1.25,1.93-3.37-1.98-11.1-4.79-12.01-8.15.79.38,1.73,1.03,2.55,1.32-3.48-3.99-8.78-7.55-13.16-10.26,1.43,3.68,6.03,6.99,5.17,10.54,2.06.36,4.37,1.45,6.84,1.27-2.16,3.91-7.24,4.68-9.12,8.31,6.94,3.47,10.3.19,16.26.81,4.51.47,6.54,3.04,9.21,8.41-.67.13-.62-.58-1.45-.58,3.08,5.76,12.34,10.02,18.65,11.52,8.66,2.06,22.4-1.86,25.61,10.22,2.33,8.76-8.31,17.16-16.35,17.35Z" style="fill: url(#radial-gradient-3);"/>
    </g>
  </g>
  <g id="bats">
    <g>
      <g>
        <path d="m23.71,27.14c1.11-.15,2.12-.56,2.91-1.41,1.33.93,2.69,2.8,4.64,2.23,1.77-.51.82-1.86.49-3.16.33.32,1.15,1.23,1.54,1.22.87,0,.99-1.67,1.07-2.33.18.48.7,1.98,1.05,2.21.61.39,1.08.41,1.74.05,1.57-.86,1.26-2.85,1.25-4.3,2.99.15,6.83-4.47,6.07-7.4.12.48.22.96.31,1.45.16.83.3,1.66.53,2.47.12.42.26.83.45,1.21.12.23.24.49.41.69.17.21.47.38.69.54-.2.02-.33.14-.48.26-.33.27-.68.55-.9.93-.54.92-.21,2.44.5,3.2-.51.06-.98.07-1.45.32-.47.25-.94.65-1.27,1.07-.5.64-.83,1.44-.91,2.25-.03.28-.07.66.11.9-.7,0-1.35-.15-2.03.1-.53.19-1.12.67-1.13,1.28-1.13-.95-1.87-1.18-2.41.44-.34,1.03-.29,2.11.03,3.13-.16-.52-.7-1.14-1.13-1.46-.53-.39-1.74-1.57-2.2-1.1-.27.28-.72.99-.53,1.41-.52-.49-1.61-.58-2.28-.47-.5.08-1.32.48-1.45,1.04-.16-.14-.27-.31-.42-.45-.39-.37-.94-.46-1.46-.48-.83-.02-1.69.16-2.47.44-.29.1-.75.23-.87.56-.15-.84-.61-1.75-1.38-2.16-.65-.35-1.83-.33-2.22.41-.02-.3,0-.58-.07-.88-.15-.63-.46-1.18-.8-1.72-.48-.79-1.09-1.43-1.73-2.1-.54-.57-1.3-1.23-2.11-1.34,2.31.29,5.37,1.3,7.9.95Z" style="fill-rule: evenodd;"/>
        <path d="m34.77,26.44c.25.42-.03.78-.44.73.03-.09.47-.67.44-.73Z" style="fill: url(#linear-gradient-5); fill-rule: evenodd;"/>
        <path d="m32.8,26.98c.06.43.59.57.94.34-.1-.05-.93-.28-.94-.34Z" style="fill: url(#linear-gradient-6); fill-rule: evenodd;"/>
      </g>
      <g>
        <path d="m11.98,23.36c.34-.62.53-1.29.44-2.01.91-.34,2.25-.36,2.71-1.56.11-.28.2-.47.06-.75-.23-.42-.69-.53-1.05-.67.3-.05.76-.2.93-.48.09-.15.08-.29,0-.44-.05-.12-.32-.49-.45-.51.37.05.81.24,1.18.1.37-.14.54-.64.6-1,.19-1.12-.82-1.68-1.47-2.21,1.17-1.48.51-5.12-1.09-5.8.6.25,1.1.61,1.67.92.37.2.74.41,1.15.53.27.08.54.2.83.22.14,0,.28-.02.42.01-.47.26-.5.94-.18,1.32.44.54,1.26.63,1.9.69-.59.44-.87,1.4-.59,2.09.24.58.82.55,1.35.57-.63.49-1.52,1.29-1.13,2.18-.1-.19-.42-.11-.59-.09-.62.07-.94.75-.77,1.28.22.68.85,1.07,1.49,1.3-.53-.19-1.72.18-2.16.67-.22.25-.39.75-.31,1.08.1.41.49.7.8.95-.27-.03-.59-.06-.81.11-.67.51-.76,1.76-.38,2.45-1.22-.33-2.53.66-2.4,1.92-.33-.4-.88-.66-1.4-.56-.36.07-1.41.67-1.22,1.18-.84-.82-2.1-.47-2.9.2.98-1.08,2.57-2.28,3.34-3.7Z" style="fill-rule: evenodd;"/>
        <path d="m15.62,17.41c.21.01.44.23.12.51-.02-.05-.09-.51-.12-.51Z" style="fill: url(#linear-gradient-7); fill-rule: evenodd;"/>
        <path d="m15.21,18.52c.12.2.46.06.4-.34-.05.03-.37.35-.4.34Z" style="fill: url(#linear-gradient-8); fill-rule: evenodd;"/>
      </g>
      <g>
        <path d="m27.9,42.24c.46.1.91.07,1.34-.15.41.57.7,1.51,1.55,1.57.77.05.57-.64.6-1.21-.01.16.19.63.35.69.35.12.55-.34.67-.6-.07.15.18.74.29.88.19.25.38.32.68.27.73-.12.86-.97,1.05-1.56,1.16.49,3.28-.83,3.35-2.12-.06,1-.36,1.89.02,2.92-1.32-.75-1.23,1.44-1.16,1.45-.36-.05-.78-.15-1.14-.08-.75.15-.76.84-.93,1.43-.3-.16-.55-.39-.87-.54-1.18-.55-1.54.42-1.55,1.33,0-.42-.48-1.18-.88-1.38-.62-.31-1.04.27-1.17.8-.3-1.13-1.82-1.59-2.52-.83.24-.66-.66-1.71-1.35-1.82.04-.37-.18-.96-.37-1.32-.23-.44-.55-.94-.97-1.24.88.45,1.96,1.29,3,1.52Z" style="fill-rule: evenodd;"/>
        <path d="m32.35,43.44c.04.16-.11.24-.25.18.02-.03.25-.16.25-.18Z" style="fill: url(#linear-gradient-9); fill-rule: evenodd;"/>
        <path d="m31.58,43.41c-.03.14.14.24.29.2-.03-.03-.3-.18-.29-.2Z" style="fill: url(#linear-gradient-10); fill-rule: evenodd;"/>
      </g>
    </g>
  </g>
  <g id="halloween">
    <g>
      <g>
        <path d="m70.55,75.08c3.63-1.07,5.72-.41,6.29,1.99.2.87.25,1.58.15,2.15-.1.56-.15,1.18-.15,1.84v2.3c0,2.1-.08,3.56-.23,4.41-.15.84-.18,1.83-.08,2.95.1,1.12.06,2.2-.12,3.22-.18,1.02-.17,1.71.04,2.07.2.36.46.64.77.84.41.31.95.46,1.61.46,1.12,0,1.86-.51,2.22-1.53.15-.46.17-1.24.04-2.34-.13-1.1-.14-2.18-.04-3.26.1-1.07.09-2.06-.04-2.95-.13-.89-.23-1.85-.31-2.87-.08-1.02-.12-2.07-.12-3.14,0-2.5.28-4.09.84-4.75.56-.66,1.44-1.16,2.64-1.49,1.2-.33,2.49-.5,3.87-.5,3.22,0,5.34.72,6.36,2.15.46.61.69,1.23.69,1.84s-.03,1.09-.08,1.42c-.05.33-.05.73,0,1.19.15,1.23.08,2.45-.23,3.68-.31,1.23-.52,2.43-.65,3.6-.13,1.18-.22,2.45-.27,3.83-.15,2.3-.23,4.75-.23,7.36,0,4.65-.18,7.59-.54,8.81-.87,2.61-1.02,4.57-.46,5.9.15.36.22.78.19,1.26-.03.49-.05,1-.08,1.53-.03.54-.04,1.06-.04,1.57s.13,1.1.38,1.76c.46,1.38.03,2.84-1.3,4.37-.46.51-.67,1.39-.61,2.64.05,1.25.08,2.17.08,2.76s-.14,1.02-.42,1.3c-.28.28-.87.57-1.76.88-.89.31-1.88.51-2.95.61-2.71.25-4.42-.28-5.14-1.61-.61-1.12-.75-3.36-.42-6.71.33-3.35.56-5.86.69-7.55.13-1.69.09-2.86-.11-3.53-.2-.66-.54-1.07-1-1.23-.46-.15-.95-.2-1.46-.15-1.12.1-1.89.43-2.3,1,.05,1.18.08,2.8.08,4.87s-.03,4.15-.08,6.25c-.15,5.16-.35,7.91-.57,8.24-.23.33-.65.58-1.26.73-.61.15-1.28.23-1.99.23-1.64.1-2.71-.17-3.22-.8-.51-.64-.92-1.14-1.23-1.49-.31-.36-.73-.62-1.26-.8-.54-.18-.86-.47-.96-.88-.1-.41-.2-.92-.31-1.53-.26-1.43-.26-2.34,0-2.72.26-.38.4-.91.42-1.57.02-.66-.06-1.08-.27-1.26-.2-.18-.4-.91-.57-2.18-.18-1.28-.32-2.71-.42-4.29-.1-1.58-.15-3.1-.15-4.56s.15-2.54.46-3.26c.72-1.63.78-3.22.19-4.75-.59-1.53-.93-2.75-1.03-3.64-.1-.89-.18-1.7-.23-2.41-.05-1.89-.15-3.09-.31-3.6-.15-.51-.26-1.21-.31-2.11-.05-.89-.08-1.85-.08-2.87s.01-2.07.04-3.14c.02-1.07,0-2.27-.08-3.6-.08-1.33-.05-2.66.08-3.99.13-1.33.59-2.35,1.38-3.07.79-.71,1.76-1.15,2.91-1.3,1.15-.15,2.16.33,3.03,1.46Z"/>
        <path d="m104.43,133.02c-.51.15-1.09.11-1.72-.12-.64-.23-1.09-.67-1.34-1.3-.26-.64-.42-1.38-.5-2.22-.08-.84-.09-1.75-.04-2.72.05-.97.08-1.92.08-2.84,0-2.04-.33-3.35-1-3.91-1.38-1.02-1.94-3.63-1.69-7.82.25-2.4.54-4.32.84-5.75.51-2.35.75-4.34.73-5.98-.03-1.63.03-2.91.15-3.83.13-.92.28-1.69.46-2.3.18-.61.4-1.25.65-1.92.26-.66.49-1.76.69-3.3.51-3.83.97-6.21,1.38-7.13.56-1.28,1.24-2.59,2.03-3.95.79-1.35,1.44-2.26,1.96-2.72,1.17-.87,2.86-.94,5.06-.23,1.63.56,3.15.74,4.56.54,1.4-.2,2.48-.29,3.22-.27.74.03,1.57.31,2.49.84s1.63,1.18,2.15,1.92c.51.74.87,1.55,1.07,2.41.36,1.48.38,3.36.08,5.63-.31,2.27-.42,4.11-.35,5.52.08,1.41.38,2.73.92,3.99.54,1.25.89,2.25,1.07,2.99.18.74.33,1.48.46,2.22.13.74.23,1.53.31,2.38.08.84.23,1.8.46,2.87.23,1.07.36,1.93.38,2.57.03.64.01,1.16-.04,1.57-.05.41-.12.78-.19,1.11-.08.33-.05.84.08,1.53.13.69.13,1.44,0,2.26-.13.82-.27,1.61-.42,2.38-.56,2.35-.79,4.01-.69,4.98.2,1.74.2,2.98,0,3.72-.21.74-.4,1.34-.57,1.8-.18.46-.38,1.1-.61,1.92-.23.82-.7,1.56-1.42,2.22-.72.66-1.39.87-2.03.61-.64-.26-1.05-.63-1.23-1.11-.18-.49-.33-.98-.46-1.5-.13-.51-.28-.97-.46-1.38-.18-.41-.5-.64-.96-.69-.82-.1-1.25-.58-1.3-1.42-.05-.84-.04-1.58.04-2.22.08-.64.04-1.29-.12-1.95-.15-.66-.41-1.3-.77-1.92-.92-1.58-1.99-2.45-3.22-2.61-1.84-.26-3.12.64-3.83,2.68-.15.51-.27,1.19-.34,2.03-.08.84-.28,1.6-.61,2.26-.33.66-.69,1.23-1.07,1.69-.38.46-.74.88-1.07,1.26-.33.38-.55.86-.65,1.42-.41,2.2-1.28,3.45-2.6,3.76Zm6.82-32.11c-1.02,2.76-1.15,4.96-.38,6.59.51.92,1.17,1.41,1.99,1.46,1.48.15,2.36.04,2.64-.34.28-.38.61-.79,1-1.23.38-.43.52-1.1.42-1.99-.1-.89-.18-1.69-.23-2.38-.05-.69-.29-1.47-.73-2.34-.43-.87-.73-1.8-.88-2.8-.15-1-.26-1.95-.31-2.87-.21-2.04-.66-3.07-1.38-3.07-.51,0-.83.27-.96.8-.13.54-.22,1.24-.27,2.11-.05,2.66-.36,4.68-.92,6.06Z"/>
        <path d="m141.14,133.25c-.72-.05-1.44-.82-2.18-2.3-.74-1.48-1.25-3.37-1.53-5.67-.28-2.3-.47-3.86-.57-4.68-.1-.82-.21-1.43-.31-1.84-.15-.77-.45-1.44-.88-2.03-.43-.59-.7-1.03-.8-1.34-.1-.46-.13-1.61-.08-3.45.1-3.93-.08-6.54-.54-7.82-.2-.56-.28-1.02-.23-1.38.05-.36.06-.74.04-1.15-.03-.41-.17-.84-.42-1.3s-.51-1-.77-1.61c-.82-1.63-1.23-2.76-1.23-3.37,0-.77.25-1.63.77-2.61,1.12-1.89,1.77-3.21,1.95-3.95.18-.74.25-1.69.23-2.84-.03-1.15-.04-2.31-.04-3.49-.1-3.01.15-4.91.77-5.67.41-.41.89-.69,1.46-.84.56-.15,1.28-.38,2.15-.69,1.74-.61,3.05-.92,3.95-.92s1.61.24,2.15.73c.54.49,1.16.77,1.88.84.71.08,1.21.08,1.5,0,.28-.08.52-.14.73-.19.61-.26,1.12-.38,1.53-.38.66,0,1.15.26,1.46.77.31.51.59.93.84,1.26.25.33.68.42,1.26.27.59-.15,1.03-.23,1.34-.23h.77c.77.1,1.43.08,1.99-.08,1.12-.36,1.99-.18,2.61.54.15.36.51.61,1.07.77.56.15,1.05.36,1.46.61.97.51,1.63,1.41,1.99,2.68.71,2.35.82,4.78.31,7.28-.2.87-.37,1.56-.5,2.07-.13.51-.23.96-.31,1.34-.08.38-.13.75-.15,1.11-.03.36-.05.79-.08,1.3-.03.51-.04,1.07-.04,1.69v2.07c0,1.58.05,2.84.15,3.76.31,2.56-.84,4.4-3.45,5.52-.87.36-1.48.69-1.84,1s-.66.77-.92,1.38-.73,1.38-1.42,2.3c-.69.92-1.74,1.65-3.14,2.18-1.41.54-2.62.98-3.64,1.34-1.02.36-1.66.79-1.92,1.3-.36.66-.45,2.24-.27,4.71.18,2.48.24,4.05.19,4.71-.05.67-.13,1.21-.23,1.65-.1.43-.36.78-.77,1.03-.41.26-.77.38-1.07.38s-.63.15-.96.46c-.33.31-.63.61-.88.92-.26.31-.54.59-.84.84-.72.66-1.56,1-2.53,1Zm5.21-42.92c-.31.31-.61,1.2-.92,2.68-.31,1.48-.46,2.66-.46,3.53s.18,1.65.54,2.34c.36.69.52,1.25.5,1.69-.03.44-.08.89-.15,1.38-.08.49-.12.98-.12,1.49-.1,1.23,0,1.99.31,2.3s.65.42,1.03.34c.38-.08.78-.22,1.19-.42.41-.2.78-.42,1.11-.65.33-.23.66-.4,1-.5.33-.1.58-.33.73-.69.15-.36.38-.66.69-.92.36-.26.6-.6.73-1.03.13-.43.25-.89.38-1.38.13-.48.12-.94-.04-1.38-.15-.43-.43-1.08-.84-1.95-.31-.87-.41-1.56-.31-2.07.41-2.15.15-3.63-.77-4.45-1.18-.71-2.16-1.02-2.95-.92-.79.1-1.34.31-1.65.61Z"/>
        <path d="m177.47,133.25c-.72-.05-1.44-.82-2.18-2.3-.74-1.48-1.25-3.37-1.53-5.67-.28-2.3-.47-3.86-.57-4.68-.1-.82-.21-1.43-.31-1.84-.15-.77-.45-1.44-.88-2.03-.43-.59-.7-1.03-.8-1.34-.1-.46-.13-1.61-.08-3.45.1-3.93-.08-6.54-.54-7.82-.2-.56-.28-1.02-.23-1.38.05-.36.06-.74.04-1.15-.03-.41-.17-.84-.42-1.3s-.51-1-.77-1.61c-.82-1.63-1.23-2.76-1.23-3.37,0-.77.25-1.63.77-2.61,1.12-1.89,1.77-3.21,1.95-3.95.18-.74.25-1.69.23-2.84-.03-1.15-.04-2.31-.04-3.49-.1-3.01.15-4.91.77-5.67.41-.41.89-.69,1.46-.84.56-.15,1.28-.38,2.15-.69,1.74-.61,3.05-.92,3.95-.92s1.61.24,2.15.73c.54.49,1.16.77,1.88.84.71.08,1.21.08,1.5,0,.28-.08.52-.14.73-.19.61-.26,1.12-.38,1.53-.38.66,0,1.15.26,1.46.77.31.51.59.93.84,1.26.25.33.68.42,1.26.27.59-.15,1.03-.23,1.34-.23h.77c.77.1,1.43.08,1.99-.08,1.12-.36,1.99-.18,2.61.54.15.36.51.61,1.07.77.56.15,1.05.36,1.46.61.97.51,1.63,1.41,1.99,2.68.71,2.35.82,4.78.31,7.28-.2.87-.37,1.56-.5,2.07-.13.51-.23.96-.31,1.34-.08.38-.13.75-.15,1.11-.03.36-.05.79-.08,1.3-.03.51-.04,1.07-.04,1.69v2.07c0,1.58.05,2.84.15,3.76.31,2.56-.84,4.4-3.45,5.52-.87.36-1.48.69-1.84,1s-.66.77-.92,1.38-.73,1.38-1.42,2.3c-.69.92-1.74,1.65-3.14,2.18-1.41.54-2.62.98-3.64,1.34-1.02.36-1.66.79-1.92,1.3-.36.66-.45,2.24-.27,4.71.18,2.48.24,4.05.19,4.71-.05.67-.13,1.21-.23,1.65-.1.43-.36.78-.77,1.03-.41.26-.77.38-1.07.38s-.63.15-.96.46c-.33.31-.63.61-.88.92-.26.31-.54.59-.84.84-.72.66-1.56,1-2.53,1Zm5.21-42.92c-.31.31-.61,1.2-.92,2.68-.31,1.48-.46,2.66-.46,3.53s.18,1.65.54,2.34c.36.69.52,1.25.5,1.69-.03.44-.08.89-.15,1.38-.08.49-.12.98-.12,1.49-.1,1.23,0,1.99.31,2.3s.65.42,1.03.34c.38-.08.78-.22,1.19-.42.41-.2.78-.42,1.11-.65.33-.23.66-.4,1-.5.33-.1.58-.33.73-.69.15-.36.38-.66.69-.92.36-.26.6-.6.73-1.03.13-.43.25-.89.38-1.38.13-.48.12-.94-.04-1.38-.15-.43-.43-1.08-.84-1.95-.31-.87-.41-1.56-.31-2.07.41-2.15.15-3.63-.77-4.45-1.18-.71-2.16-1.02-2.95-.92-.79.1-1.34.31-1.65.61Z"/>
        <path d="m236.87,75.38c.66,0,1.43.54,2.3,1.61.41.61.61,1.35.61,2.22,0,1.69-.59,3.16-1.76,4.41-1.18,1.25-1.97,2.29-2.38,3.1s-.63,1.64-.65,2.45c-.03.82-.12,1.51-.27,2.07-.15.56-.38,1.1-.69,1.61-.67,1.18-1.61,1.92-2.84,2.22-.26,1.18-.73,2.2-1.42,3.07-.69.87-1.12,1.48-1.3,1.84-.18.36-.32.69-.42,1-.26.66-.56,1.25-.92,1.76-.31,6.18-.41,10.6-.31,13.26.1,4.19-.64,7.18-2.22,8.97-.56.77-.95,1.98-1.15,3.64-.21,1.66-.41,2.81-.61,3.45-.21.64-.61,1-1.23,1.07-.61.08-1.14-.01-1.57-.27-.43-.26-.79-.59-1.07-1-.28-.41-.54-.84-.77-1.3-.23-.46-.61-.95-1.15-1.46-.54-.51-.79-1.33-.77-2.45.02-1.12.08-2.15.15-3.07.08-.92,0-1.66-.23-2.22-.23-.56-.5-1.1-.8-1.61-.31-.51-.61-1-.92-1.46-.61-.97-.86-2.03-.73-3.18.13-1.15.24-2.13.34-2.95.36-2.09.51-3.45.46-4.06-.21-1.43-.15-3.01.15-4.75-.41-.72-.72-1.46-.92-2.22-.36-1.33-.92-2.12-1.69-2.38-1.53-.46-2.61-1.71-3.22-3.76-.46-1.58-.58-2.61-.34-3.07.23-.46.37-.77.42-.92.15-.41-.69-1.4-2.53-2.99-.92-.77-1.57-1.71-1.95-2.84-.38-1.12-.79-2.06-1.23-2.8-.43-.74-.85-1.44-1.26-2.11-.82-1.43-1.02-2.66-.61-3.68.41-.71,1.18-1.16,2.3-1.34,1.12-.18,2.25-.08,3.37.31,1.12.38,2.07.6,2.84.65.77.05,1.5.06,2.18.04.69-.02,1.3-.05,1.84-.08.54-.02.96-.01,1.26.04.2.46.52.89.96,1.3.43.41.74.97.92,1.69.18.72.28,1.66.31,2.84.03,1.18.28,2.17.77,2.99.49.82.79,1.56.92,2.22.13.66.23,1.3.31,1.92.08.61.17,1.14.27,1.57.1.44.33.68.69.73.36.1.61-.1.77-.61.15-.51.31-1.15.46-1.92.46-2.3.97-3.83,1.53-4.6.66-.87,1.11-2.04,1.34-3.53.23-1.48.42-2.55.58-3.22.15-.66.48-1.21,1-1.65.51-.43,1.3-.57,2.38-.42s2.25.32,3.53.5c1.28.18,2.33.12,3.14-.19.82-.31,1.43-.46,1.84-.46Z"/>
      </g>
      <g>
        <path d="m72.63,170.68l.04-3.28v-1.08c0-.86-.09-1.41-.26-1.64-.26-.4-.66-.6-1.21-.58-.55.01-.94.18-1.19.5-.24.32-.39.71-.43,1.17-.04.46-.07.96-.09,1.51-.01.55-.02,1.14-.02,1.77-.06,1.27-.05,2.25.02,2.94.07.69.07,1.13,0,1.32-.07.19-.22.37-.45.56-.23.19-.42.43-.56.73-.14.3-.27.61-.39.93-.35.75-.71,1.14-1.08,1.17-1.12.11-2.09-.49-2.89-1.81-.17-.32-.4-.62-.69-.91-.6-.66-.72-1.73-.35-3.2.14-.69.22-1.4.22-2.14s-.03-1.26-.09-1.58c-.06-.32-.06-.67,0-1.06.06-.39.01-.73-.13-1.04-.14-.3-.19-.7-.15-1.19.04-.49.01-.91-.09-1.27-.1-.36-.12-.68-.06-.97.06-.29.02-.52-.11-.69s-.17-.42-.13-.76c.04-.33.08-.68.11-1.06.09-1.04-.04-1.83-.39-2.38-.35-.55-.64-1.18-.89-1.9-.24-.72-.21-1.58.11-2.59.49-1.53.63-3.21.43-5.05-.06-.46.04-.99.3-1.6.37-.95,1.6-1.48,3.67-1.6.66-.03,1.26-.11,1.79-.26.53-.14,1.06-.15,1.6-.02.53.13.84.47.93,1.01s.17.92.24,1.12c.07.2.12.4.15.6.06.37,0,.97-.17,1.79-.17.82-.27,1.51-.3,2.07-.03.56-.04,1.1-.04,1.62.06,1.27,0,2.17-.15,2.7s-.21.94-.15,1.21c.06.27.17.5.35.67.58.52,1.37.46,2.38-.17.14-.09.27-.23.39-.43-.14-.81-.23-1.8-.26-2.98-.03-1.76-.09-3.13-.17-4.12-.09-.99-.07-1.82.04-2.48.11-.66.42-1.28.91-1.86.49-.58.94-.83,1.36-.76.42.07.76.25,1.04.52.27.27.52.4.76.37.23-.03.55-.17.95-.43,1.06-.63,2.06-.24,2.98,1.17-.29.29-.37.81-.24,1.58s.15,1.31.06,1.64c-.09.33-.14.79-.17,1.38-.03.59-.05,1.16-.06,1.71-.01.55-.09,1.27-.24,2.16-.2,1.24-.22,2.66-.04,4.28.17,1.61.2,3.07.09,4.36-.12,1.3-.14,2.38-.09,3.24.06.86.04,1.44-.06,1.73-.1.29-.21.58-.32.86-.43.84-.68,1.68-.73,2.55-.06.72-.1,1.43-.13,2.14-.03.71-.1,1.33-.22,1.88-.26,1.24-.85,1.86-1.77,1.86-1.04,0-1.63-.79-1.77-2.37-.66-.2-1.2-.55-1.62-1.04-.42-.49-.6-1.32-.54-2.5Z"/>
        <path d="m85.8,176.64c-.29.09-.61.06-.97-.07-.36-.13-.61-.37-.76-.73-.14-.36-.24-.78-.28-1.25-.04-.47-.05-.99-.02-1.53s.04-1.08.04-1.6c0-1.15-.19-1.88-.56-2.2-.78-.58-1.09-2.04-.95-4.4.14-1.35.3-2.43.48-3.24.29-1.32.42-2.45.41-3.37-.02-.92.01-1.64.09-2.16.07-.52.16-.95.26-1.29.1-.35.22-.71.37-1.08.14-.37.27-.99.39-1.86.29-2.16.55-3.5.78-4.02.32-.72.7-1.46,1.14-2.22.45-.76.81-1.27,1.1-1.53.66-.49,1.61-.53,2.85-.13.92.32,1.78.42,2.57.3.79-.11,1.4-.17,1.81-.15.42.02.89.17,1.4.48.52.3.92.66,1.21,1.08.29.42.49.87.6,1.36.2.83.22,1.89.04,3.17s-.24,2.32-.19,3.11c.04.79.22,1.54.52,2.25s.5,1.27.6,1.68c.1.42.19.83.26,1.25.07.42.13.86.17,1.34.04.47.13,1.01.26,1.62.13.6.2,1.09.22,1.45.01.36,0,.66-.02.89-.03.23-.06.44-.11.63-.04.19-.03.47.04.86.07.39.07.81,0,1.27-.07.46-.15.91-.24,1.34-.32,1.32-.45,2.26-.39,2.81.11.98.11,1.68,0,2.09-.12.42-.22.76-.32,1.01-.1.26-.22.62-.35,1.08-.13.46-.4.88-.8,1.25-.4.37-.78.49-1.14.35-.36-.14-.59-.35-.69-.63-.1-.27-.19-.55-.26-.84-.07-.29-.16-.55-.26-.78-.1-.23-.28-.36-.54-.39-.46-.06-.71-.32-.73-.8-.03-.48-.02-.89.02-1.25.04-.36.02-.73-.06-1.1s-.23-.73-.43-1.08c-.52-.89-1.12-1.38-1.81-1.47-1.04-.14-1.76.36-2.16,1.51-.09.29-.15.67-.19,1.14-.04.48-.16.9-.35,1.27-.19.37-.39.69-.6.95-.22.26-.42.5-.6.71-.19.22-.31.48-.37.8-.23,1.24-.72,1.94-1.47,2.12Zm3.84-18.09c-.58,1.55-.65,2.79-.22,3.71.29.52.66.79,1.12.82.83.09,1.33.02,1.49-.19.16-.22.35-.45.56-.69.22-.24.29-.62.24-1.12-.06-.5-.1-.95-.13-1.34s-.17-.83-.41-1.32-.41-1.01-.5-1.58c-.09-.56-.14-1.1-.17-1.62-.12-1.15-.37-1.73-.78-1.73-.29,0-.47.15-.54.45-.07.3-.12.7-.15,1.19-.03,1.5-.2,2.63-.52,3.41Z"/>
        <path d="m115.27,169.58c.13.22.19.48.17.78-.01.3-.04.61-.09.93-.04.32-.04.67.02,1.06s.11.76.15,1.12c.04.36.06.7.06,1.01s-.09.58-.28.8c-.19.22-.47.4-.84.54-.38.14-.79.25-1.25.3-1.07.09-1.99-.07-2.76-.47-.72-.37-1.4-.49-2.05-.35-.65.14-1.15.28-1.51.41-.36.13-.78.25-1.25.37-.48.11-.94.17-1.4.15-.46-.02-.85-.27-1.17-.78-.32-.5-.49-1.09-.52-1.75s.07-1.34.3-2.03c.23-.69.32-1.47.26-2.35-.06-.88-.12-1.63-.17-2.25s-.06-1.16,0-1.62c.14-1.09.01-1.86-.39-2.29-.32-.37-.47-.81-.47-1.32s.01-.91.04-1.23c.03-.32.13-.59.3-.82s.28-.42.32-.58c.04-.16.04-.44-.02-.84-.23-1.64-.31-2.91-.24-3.8.07-.89.06-1.66-.04-2.31-.1-.65-.12-1.18-.06-1.6.06-.42.03-.77-.09-1.06-.12-.29-.15-.5-.11-.63.04-.13.04-.32-.02-.56-.06-.24-.12-.51-.17-.8-.17-.86-.22-1.45-.15-1.77.07-.32.22-.68.43-1.1s.48-.67.8-.76c.32-.09.5-.16.56-.22.06-.06.2-.13.43-.22.6-.17,1.05-.19,1.34-.04.29.14.55.22.78.24s.47.01.71,0c.24-.01.48-.05.71-.11l.52-.09c.6-.17,1.06-.14,1.38.09.2.2.35.36.43.47.09.12.1.29.04.52s-.03.42.09.56c.11.14.16.35.13.63s-.04.47-.02.6.04.27.07.41c.06.29.03.63-.09,1.04-.12.4-.19.67-.22.8-.03.13-.04.25-.04.37,0,.37-.05.73-.15,1.06-.1.33-.16.6-.17.82s-.02.47-.02.76v.95c0,.35-.02.78-.06,1.3-.04.52-.09,1.13-.13,1.83s-.08,1.42-.11,2.14c-.12,1.9-.26,3.11-.43,3.63-.46.26-.53.86-.22,1.81l.3.91c.29.86.43,1.71.43,2.55s-.07,1.64-.22,2.42c.83.46,1.42.71,1.77.73.83.12,1.59,0,2.27-.34.68-.35,1.17-.49,1.47-.43.3.06.52.19.65.41Z"/>
        <path d="m129.3,169.58c.13.22.19.48.17.78-.01.3-.04.61-.09.93-.04.32-.04.67.02,1.06s.11.76.15,1.12c.04.36.06.7.06,1.01s-.09.58-.28.8c-.19.22-.47.4-.84.54-.38.14-.79.25-1.25.3-1.07.09-1.99-.07-2.76-.47-.72-.37-1.4-.49-2.05-.35-.65.14-1.15.28-1.51.41-.36.13-.78.25-1.25.37-.48.11-.94.17-1.4.15-.46-.02-.85-.27-1.17-.78-.32-.5-.49-1.09-.52-1.75s.07-1.34.3-2.03c.23-.69.32-1.47.26-2.35-.06-.88-.12-1.63-.17-2.25s-.06-1.16,0-1.62c.14-1.09.01-1.86-.39-2.29-.32-.37-.47-.81-.47-1.32s.01-.91.04-1.23c.03-.32.13-.59.3-.82.17-.23.28-.42.32-.58s.04-.44-.02-.84c-.23-1.64-.31-2.91-.24-3.8.07-.89.06-1.66-.04-2.31-.1-.65-.12-1.18-.07-1.6.06-.42.03-.77-.09-1.06-.12-.29-.15-.5-.11-.63.04-.13.04-.32-.02-.56-.06-.24-.12-.51-.17-.8-.17-.86-.22-1.45-.15-1.77.07-.32.22-.68.43-1.1s.48-.67.8-.76c.32-.09.5-.16.56-.22.06-.06.2-.13.43-.22.6-.17,1.05-.19,1.34-.04.29.14.55.22.78.24s.47.01.71,0c.24-.01.48-.05.71-.11l.52-.09c.6-.17,1.06-.14,1.38.09.2.2.35.36.43.47.09.12.1.29.04.52s-.03.42.09.56c.11.14.16.35.13.63s-.04.47-.02.6.04.27.07.41c.06.29.03.63-.09,1.04-.12.4-.19.67-.22.8-.03.13-.04.25-.04.37,0,.37-.05.73-.15,1.06-.1.33-.16.6-.17.82s-.02.47-.02.76v.95c0,.35-.02.78-.06,1.3-.04.52-.09,1.13-.13,1.83s-.08,1.42-.11,2.14c-.12,1.9-.26,3.11-.43,3.63-.46.26-.53.86-.22,1.81l.3.91c.29.86.43,1.71.43,2.55s-.07,1.64-.22,2.42c.83.46,1.42.71,1.77.73.83.12,1.59,0,2.27-.34.68-.35,1.17-.49,1.47-.43.3.06.52.19.65.41Z"/>
        <path d="m133.73,146.33c.32-.29.59-.6.82-.93.23-.33.53-.64.91-.93,1.01-.83,2.01-1.08,3.02-.73,1.24.46,2.38.75,3.41.86,1.04.12,1.79.37,2.27.78.47.4.88.83,1.23,1.29.83,1.09,1.34,2.29,1.51,3.58.03.49.12.83.26,1.04.37.63.5,1.48.37,2.55-.13,1.07-.17,1.81-.13,2.22.04.42.11.73.22.93.1.2.19.4.28.6.23.55.35,1.09.35,1.64,0,.69-.23,1.38-.69,2.07-.2.26-.27.76-.22,1.51.06.75.1,1.5.13,2.25.03,1.87-.07,3.03-.3,3.48-.23.45-.4.71-.5.8-.1.09-.19.16-.28.22-.43.2-.81.8-1.14,1.79s-.77,1.8-1.32,2.42c-.55.62-1.12,1.12-1.71,1.51s-1.05.69-1.38.91-.57.42-.71.63c-.14.2-.29.4-.43.6-.37.46-.85.69-1.42.69-.98,0-1.7-.23-2.16-.69-.2-.26-.42-.63-.65-1.12-.43-.78-1.01-1.41-1.73-1.9-.81-.55-1.3-1.37-1.47-2.46-.09-.37-.11-.75-.06-1.12s.02-.85-.06-1.43c-.06-.58-.17-1.09-.35-1.55-.17-.46-.27-.89-.3-1.3-.14-1.21-.55-1.86-1.21-1.94-.49-.06-.78-.79-.86-2.2-.03-.72,0-1.4.09-2.05.09-.65.2-1.2.34-1.66.23-.83.3-1.81.22-2.91-.09-1.11-.09-2.09,0-2.96.14-1.61.49-2.92,1.04-3.93.26-.43.64-.86,1.14-1.29s1-.85,1.49-1.25Zm2.74,12.35c.07.4.22.73.43.97.22.25.37.63.47,1.14.1.52.14,1.09.11,1.71-.03.62-.04,1.21-.04,1.77s.03,1.07.09,1.51c.06.45.14.86.26,1.23.32.89.76,1.34,1.34,1.34.89,0,1.51-1.73,1.86-5.18.11-.95.17-2.17.17-3.65s-.23-2.76-.69-3.84c-.46-1.08-1.02-1.62-1.68-1.62s-1.21.71-1.73,2.12c-.46,1.27-.65,2.1-.58,2.5Z"/>
        <path d="m167.4,158.38l-.04-2.89c.03-.69.1-1.19.22-1.51.11-.32.19-.64.24-.97.04-.33.09-.68.13-1.04.04-.36.09-.71.15-1.06.14-.81.34-1.24.6-1.29.26-.06.42-.37.47-.95.14-.95.11-1.71-.09-2.29-.23-.69-.22-1.22.04-1.6.49-.75,1.29-.86,2.42-.35.81.35,1.38.52,1.73.52s.66-.04.93-.11c.27-.07.66-.17,1.17-.3.5-.13.91.06,1.21.56.3.5.43,1,.39,1.49s-.09.94-.15,1.36c-.06.42-.12.86-.17,1.32-.2,1.15-.37,1.91-.5,2.27-.13.36-.22.73-.28,1.12s-.12.8-.17,1.23c-.12,1.27-.24,2.17-.39,2.72-.75,2.82-1.12,4.53-1.12,5.14s-.03.98-.09,1.12c-.06.14-.13.29-.22.43-.09.14-.2.32-.34.54-.14.22-.3.55-.48,1.01-.23.6-.33,1.15-.3,1.64.06,1.01-.01,1.79-.22,2.33-.2.55-.41,1.1-.63,1.66s-.43,1.12-.63,1.66c-.49,1.21-.79,2.16-.91,2.85-.12.69-.34,1.22-.67,1.58-.33.36-.68.47-1.04.32-.36-.14-.59-.32-.69-.52-.1-.2-.19-.4-.28-.6-.26-.58-.58-.92-.95-1.04-.58-.23-1-.64-1.27-1.23-.27-.59-.43-1.3-.48-2.14-.04-.83-.09-1.58-.15-2.25-.06-.66-.13-1.27-.22-1.81-.26-1.35-.53-2.03-.82-2.03-.17,0-.3.15-.39.45-.09.3-.17.68-.26,1.14-.26,1.29-.54,2.19-.84,2.68-.3.49-.5.92-.58,1.3s-.15.73-.19,1.08-.08.68-.11,1.01c-.03.33-.11.67-.24,1.01-.13.35-.28.7-.45,1.06-.17.36-.39.67-.65.93-.6.55-1.3.58-2.07.09-.49-.32-1.04-.57-1.64-.76s-1.01-.35-1.21-.48c-.2-.13-.38-.37-.54-.71-.16-.35-.27-.83-.35-1.45-.07-.62-.17-1.33-.28-2.14-.35-2.3-.75-4.16-1.21-5.57-.37-1.15-.75-2.73-1.12-4.73-.38-2-.63-3.31-.76-3.93-.13-.62-.25-.94-.37-.97-.2-.03-.37-.32-.52-.86-.2-.95-.26-1.67-.17-2.16.09-.49.11-.94.06-1.36-.04-.42-.11-.84-.19-1.27-.09-.43-.18-.85-.28-1.25-.1-.4-.19-.83-.28-1.3-.26-1.09-.03-1.88.69-2.38,1.04-.63,1.9-.69,2.59-.17.32-.23.75-.2,1.29.09.32-.32.71-.58,1.19-.78.47-.2.9-.24,1.27-.11.37.13.66.34.86.65.2.3.36.67.47,1.1.17.6.31,1.42.41,2.44.1,1.02.15,1.75.15,2.18v1.3c0,1.04.09,2.16.28,3.37s.27,2.15.26,2.83c-.02.68,0,1.15.06,1.42s.11.51.17.71c.06.2.13.39.22.56.2.32.45.43.73.35.17-.09.26-.22.26-.41s-.02-.42-.07-.71c-.04-.29-.09-.6-.15-.95-.06-.35-.07-.7-.04-1.06.03-.36.06-.8.11-1.34.04-.53.08-1.09.11-1.66.14-1.64.27-2.81.39-3.52.11-.71.2-1.25.26-1.64.06-.39.13-.81.22-1.27.49-.37.86-.89,1.12-1.55-.12-.14-.17-.27-.17-.39l.3-1.25c.03-.32.17-.6.43-.84.26-.24.5-.34.73-.28s.4.13.52.22c.11.09.23.25.34.47.17.43.28,1.14.32,2.12s.09,1.67.13,2.07c.04.4.08.76.11,1.06.03.3.06.59.09.86s.04.69.04,1.25-.02,1.12-.04,1.66c-.03.55.09,1.09.35,1.64s.4.91.43,1.1c.03.19.03.37,0,.56s-.06.4-.11.65c-.04.25-.07.61-.07,1.1,0,.89.22,1.54.65,1.94.66.6,1.06.38,1.21-.69.06-.43.09-.91.09-1.42Z"/>
        <path d="m179.32,168.01l-.04-2.2c0-.4.01-.78.04-1.12.03-.37,0-.83-.09-1.38-.14-.95-.21-1.65-.19-2.09s.01-.81,0-1.08c-.01-.27-.05-.52-.11-.75-.09-.35-.3-.89-.63-1.64-.33-.75-.5-1.55-.5-2.42s.19-1.55.56-2.07c.35-.52.47-1.05.39-1.6s-.15-1.13-.19-1.75c-.04-.62-.05-1.25-.02-1.9.03-.65.17-1.27.43-1.88.63-1.47,1.9-2.17,3.8-2.12,1.18.03,2.2.14,3.07.35.86.2,1.5.29,1.9.26.4-.03,1.02-.17,1.86-.43,1.21-.46,2.17-.43,2.89.09.2.14.4.25.58.32s.35.18.5.32c.49.55.63,1.74.43,3.58-.06.55-.12,1.09-.17,1.64-.14,1.3-.14,2.26,0,2.89.14.63.22,1.19.24,1.66.01.48,0,.9-.06,1.27-.17.83-.5,1.25-.99,1.25-.43-.03-.74-.17-.93-.41-.19-.24-.34-.52-.45-.82-.12-.3-.24-.58-.37-.82-.13-.24-.41-.37-.84-.37-1.27,0-2.11-.14-2.53-.41s-.78-.43-1.1-.48c-.32-.04-.62,0-.91.11-.6.26-.96.73-1.06,1.42s-.17,1.29-.19,1.81c-.03.52-.03.99,0,1.42.06,1.01.25,1.58.58,1.71.33.13.61.14.84.04s.46-.22.69-.37c.69-.46,1.4-.68,2.14-.67.73.01,1.28.31,1.64.88.36.58.51,1.13.45,1.66-.06.53-.11,1.06-.15,1.58-.04.52-.11,1.01-.19,1.47-.4,1.79-1.24,2.13-2.5,1.04-1.64-.12-2.66.09-3.07.6-.09.14-.17.45-.26.91-.09.46-.1.95-.04,1.47.14,1.35.79,2.07,1.94,2.16.75.06,1.43-.04,2.05-.3.62-.26,1.03-.55,1.23-.86.17-.34.39-.54.65-.58.26-.04.49-.09.69-.13.2-.04.4-.06.6-.06s.4.03.6.09c.52.17.83.58.93,1.21.1.63.04,1.21-.19,1.73-.23.52-.38.99-.45,1.4-.07.42-.14.73-.19.93-.06.2-.22.45-.5.76-.27.3-.49.55-.65.76s-.41.16-.76-.13c-.63-.49-1.4-.2-2.29.86-.23.32-.47.55-.73.69-.26.14-.66.2-1.21.17-.55-.03-.98-.17-1.29-.43-.32-.26-.6-.52-.86-.78-.43-.55-1.18-.75-2.25-.6-.63.09-1.15-.19-1.55-.82-.09-.09-.15-.24-.19-.48-.04-.23-.09-.49-.15-.78-.2-.75-.38-1.23-.54-1.45s-.24-.5-.26-.84-.05-.71-.11-1.1c-.06-.39-.1-.68-.13-.86-.03-.19,0-.41.06-.67.07-.26.11-.55.11-.86Z"/>
        <path d="m197.15,168.01l-.04-2.2c0-.4.01-.78.04-1.12.03-.37,0-.83-.09-1.38-.14-.95-.21-1.65-.19-2.09s.01-.81,0-1.08c-.01-.27-.05-.52-.11-.75-.09-.35-.3-.89-.63-1.64-.33-.75-.5-1.55-.5-2.42s.19-1.55.56-2.07c.35-.52.47-1.05.39-1.6s-.15-1.13-.19-1.75c-.04-.62-.05-1.25-.02-1.9.03-.65.17-1.27.43-1.88.63-1.47,1.9-2.17,3.8-2.12,1.18.03,2.2.14,3.07.35.86.2,1.5.29,1.9.26.4-.03,1.02-.17,1.86-.43,1.21-.46,2.17-.43,2.89.09.2.14.4.25.58.32s.35.18.5.32c.49.55.63,1.74.43,3.58-.06.55-.12,1.09-.17,1.64-.14,1.3-.14,2.26,0,2.89.14.63.22,1.19.24,1.66.01.48,0,.9-.06,1.27-.17.83-.5,1.25-.99,1.25-.43-.03-.74-.17-.93-.41-.19-.24-.34-.52-.45-.82-.12-.3-.24-.58-.37-.82-.13-.24-.41-.37-.84-.37-1.27,0-2.11-.14-2.53-.41s-.78-.43-1.1-.48c-.32-.04-.62,0-.91.11-.6.26-.96.73-1.06,1.42s-.17,1.29-.19,1.81c-.03.52-.03.99,0,1.42.06,1.01.25,1.58.58,1.71.33.13.61.14.84.04s.46-.22.69-.37c.69-.46,1.4-.68,2.14-.67.73.01,1.28.31,1.64.88.36.58.51,1.13.45,1.66-.06.53-.11,1.06-.15,1.58-.04.52-.11,1.01-.19,1.47-.4,1.79-1.24,2.13-2.5,1.04-1.64-.12-2.66.09-3.07.6-.09.14-.17.45-.26.91-.09.46-.1.95-.04,1.47.14,1.35.79,2.07,1.94,2.16.75.06,1.43-.04,2.05-.3.62-.26,1.03-.55,1.23-.86.17-.34.39-.54.65-.58.26-.04.49-.09.69-.13.2-.04.4-.06.6-.06s.4.03.6.09c.52.17.83.58.93,1.21.1.63.04,1.21-.19,1.73-.23.52-.38.99-.45,1.4-.07.42-.14.73-.19.93-.06.2-.22.45-.5.76-.27.3-.49.55-.65.76s-.41.16-.76-.13c-.63-.49-1.4-.2-2.29.86-.23.32-.47.55-.73.69-.26.14-.66.2-1.21.17-.55-.03-.98-.17-1.29-.43-.32-.26-.6-.52-.86-.78-.43-.55-1.18-.75-2.25-.6-.63.09-1.15-.19-1.55-.82-.09-.09-.15-.24-.19-.48-.04-.23-.09-.49-.15-.78-.2-.75-.38-1.23-.54-1.45s-.24-.5-.26-.84-.05-.71-.11-1.1c-.06-.39-.1-.68-.13-.86-.03-.19,0-.41.06-.67.07-.26.11-.55.11-.86Z"/>
        <path d="m218.05,144.6c1.44-.58,2.22-.63,2.33-.17.72-.17,1.25.04,1.6.65.11.2.34.62.67,1.25.33.63.69,1.31,1.08,2.03s.76,1.4,1.1,2.03c.34.63.58,1.06.69,1.27s.26.34.43.37c.17.03.35-.01.52-.13.37-.29.48-.72.32-1.29-.16-.58-.23-1.03-.22-1.36s.05-.64.11-.93c.17-.81.2-1.45.09-1.94s-.17-.95-.17-1.38c0-.86.71-1.3,2.12-1.3.29,0,.62,0,.99.02.37.02.94-.01,1.68-.09.75-.07,1.4.13,1.96.6s.74,1.32.54,2.53c-.26,1.64-.38,2.74-.35,3.3.03.56.04,1.09.04,1.58,0,.52-.09,1.28-.26,2.29-.32,1.79-.4,3.05-.26,3.8.11.66.17,1.15.17,1.47v.69c0,.09.03.27.09.56.06.29.04.58-.04.88-.09.3-.1.63-.04.97.06.35-.02.74-.22,1.19-.2.45-.3.94-.28,1.47.01.53-.02,1.01-.11,1.45-.09.43-.04.94.13,1.51.26.89.04,2.46-.65,4.71-.12.55-.3.9-.54,1.06s-.42.28-.54.37c-.12.09-.2.27-.26.56-.14.58-.45.84-.91.78-.6-.09-1.09-.69-1.47-1.81-.52-1.55-.94-2.46-1.25-2.72-.32-.26-.55-.62-.71-1.08-.16-.46-.3-.93-.41-1.42-.23-1.21-.46-1.91-.69-2.09-.23-.19-.42-.55-.56-1.1-.14-.55-.29-.93-.43-1.17-.14-.23-.28-.49-.41-.78-.13-.29-.27-.58-.41-.86-.37-.72-.73-1.04-1.08-.95-.2.06-.34.31-.41.75-.07.45-.14.99-.19,1.62-.17,1.84-.46,3.17-.86,3.97.26.75.45,1.43.58,2.05.13.62.1,1.35-.09,2.2-.19.85-.34,1.53-.45,2.05-.12.52-.24.97-.37,1.36-.13.39-.28.68-.45.89s-.39.28-.65.24c-.26-.04-.43-.12-.52-.24-.09-.12-.17-.23-.26-.35-.2-.37-.55-.65-1.04-.82-.49-.17-.84-.39-1.04-.65s-.33-.56-.39-.91c-.06-.34-.09-.72-.11-1.12-.01-.4-.12-.84-.3-1.32-.19-.47-.28-.87-.28-1.19s.03-.6.09-.84c.06-.24.12-.49.17-.73.06-.24,0-.63-.17-1.14-.34-1.06-.24-1.94.3-2.63.4-.58.58-1.07.52-1.47-.17-.83-.5-1.38-.99-1.64-.23-.14-.35-.32-.35-.52,0-.43-.07-.76-.19-.97-.13-.22-.14-.5-.02-.84.11-.35.1-.63-.04-.86,0-.03-.04-.32-.11-.88-.07-.56-.14-1.28-.22-2.16-.07-.88-.15-1.83-.24-2.85-.09-1.02-.14-2.01-.17-2.96-.12-2.19-.09-3.47.06-3.84s.4-.65.73-.82c.33-.17.68-.29,1.06-.35.81-.09,1.47-.03,1.99.17Z"/>
      </g>
    </g>
  </g>
  <g id="Layer_1" data-name="Layer 1">
    <path d="m271.73,222.91c-.72-2.22-.77-5.36-.09-7.57.23-.74.62-1.41.65-2.24-.22-.5-.74-.33-1.24-.38-.75-.09-1.58-.34-2.36-.56-4.54-1.3-7.77-3.82-8.46-9.05-.11-.85-.26-1.93-.12-2.8.06-.35.3-.59.41-.94,3.22.2,5.55-.42,6.63-2.39.55-1.01,1.09-1.91,1.97-2.59.81-.63,1.98-1.23,3.33-1.33,1.85-.14,3.21.49,4.12,1.39,1.23,1.2,1.94,3.26,1.59,5.78-.08.57-.27,1.11-.27,1.74,0,.76.28,1.39.59,1.95.3.53.66,1.08,1.03,1.47.53.56,1.32,1.02,1.92,1.65.19.2.49.49.47.71-.01.23-.54.58-.77.77-.6.5-1.05.91-1.68,1.38-.52.39-.92.78-.88,1.68.04.91.51,1.71,1,2.36.5.66,1.14,1.24,1.77,1.59.57.89,1.29,1.97,1.97,2.98.19.27.61.71.62,1,.01.3-.23.63-.5.77-.65.04-1.07-.23-1.53-.41-.46-.18-.91-.36-1.44-.47-2.5-.52-3.88,1.17-5.01,2.53-.75.9-2.33,1.81-3.74,1Zm-3.95-24.02c.3.56,1.05.93,1.94.85,1.48-.13,2.31-1.42,2.09-3.12,0-.02,0-.03-.03-.03-1.11.99-2.37,1.84-4.01,2.3Zm6.04-2.27s-.07.03-.09.06c-.65.64-1.27,1.55-1.15,2.83.12,1.33,1.08,2.57,2.56,2.33-.77-1.41-1.15-3.21-1.33-5.22Z" style="fill-rule: evenodd;"/>
    <path d="m253.75,201.13c2.48-.18,4.28.98,5.3,2.39.57.78.82,1.73,1.24,2.62.39.84.88,1.65,1.47,2.36,1.14,1.37,2.79,2.42,4.36,3.33,1.14.66,2.51,1.3,4.01,1.74.53.16,1.2.24,1.33.59.2.57-.31,1.29-.47,1.62-.71,1.4-.84,3.55-.68,5.6.21,2.52.74,4.77,1.53,7.07.34.98.8,2.03,1.24,3.06.43,1.02.76,2.29.5,3.62-.22,1.14-.83,2.07-1.77,2.53-1.02.51-2.47.29-3.33-.38-.29-.22-.47-.55-.71-.8-.63-.66-1.68-1.58-3.09-1.06-1.41.52-2.05,1.84-3.01,2.95-4.02,4.65-6.27-1.55-10.79-.49-2.96.69-2.01.93-2.79-1.66-.77-2.56-.44-2.55-2.88-1.42-1.86.86-2.16,2.06-4.54.7-3.23-1.84-2.72-14.09-6.71-12.2,8.08-2.19,11.88-8.7,13.68-16.34.55-2.33,1.68-4.21,3.71-5.22.66-.33,1.51-.55,2.39-.62Zm4.04,9.72c.89-.01,1.31-.62,1.71-1.24-1.79-.93-3.03-2.41-4.21-3.95-.57,2.11.57,5.21,2.5,5.19Zm-8.31-.26c.47.41.95.95,1.8.85,1.74-.2,1.97-3.19,1.15-4.63,0-.02,0-.04-.03-.03-.73,1.51-1.63,2.85-2.92,3.8Z" style="fill-rule: evenodd;"/>
  </g>
</svg>