<?xml version="1.0" encoding="UTF-8"?>
<svg xmlns="http://www.w3.org/2000/svg" viewBox="0 0 300 250">
  <defs>
    <style>
      .cls-1 {
        fill: #1a3e33;
      }

      .cls-2 {
        font-family: FjallaOne-Regular, 'Fjalla One';
        font-size: 20px;
      }

      .cls-2, .cls-3 {
        fill: #fff;
      }

      .cls-3 {
        fill-rule: evenodd;
      }
    </style>
  </defs>
  <g id="Layer_1" data-name="Layer 1">
    <rect class="cls-1" width="300" height="250"/>
  </g>
  <g id="Building">
    <g>
      <polygon class="cls-3" points="70.2 160.79 70.2 155.1 229.8 155.1 229.8 160.79 70.2 160.79 70.2 160.79"/>
      <path class="cls-3" d="m143,155.73l-1.16-57.43h1.01l-1.01-49.66h1.39l3.36,81.96.03.89h15.95l.03-.89,3.36-81.96h1.39l-1.01,49.66h1.01l-1.16,57.43h-23.21,0Zm1.98-109.67h19.24l-3.43,83.58h-12.38l-3.43-83.58h0Zm8.78-.87v-6.5h1.49v6.5h-1.49Z"/>
      <polygon class="cls-3" points="111.18 155.55 107.53 155.55 107.53 108.31 106.6 108.31 106.6 155.55 104 155.55 104 108.31 103.07 108.31 103.07 155.55 100.46 155.55 100.46 108.31 99.54 108.31 99.54 155.55 95.89 155.55 95.89 106.85 102.98 98.67 104.09 98.67 111.18 106.85 111.18 106.85 111.18 155.55 111.18 155.55"/>
      <path class="cls-3" d="m79.9,115.87h.84v-.82h.87v-.59h4.6v.59h4.24v.82h.84v39.68h-11.38v-39.68h0Zm4.62-4.89h.83v3h-.83v-3h0Z"/>
      <path class="cls-3" d="m122.48,71.36h1.06v3.82h-1.06v-3.82h0Zm12.22,84.19h-18.39v-24.28l1.66-.21v-2.08l16.74-2.09v2.08l1.73-.22v26.8h-1.73Zm-18.39-27.77v-13.86l1.66-.21v-2.19l16.74-2.09v2.19l1.73-.22v13.86l-20.12,2.52h0Zm0-17.45v-13.74l1.66-.21v-2.21l16.74-2.09v2.21l1.73-.22v13.74l-20.12,2.52h0Zm0-17.37v-16.23h3.81v-.98h5.91v-1.46h5.53v1.46h1.05v.98h3.81v13.73l-20.12,2.52h0v-.02Z"/>
      <path class="cls-3" d="m199.17,107.52h2.57v-.72h2.84v-1.11h6.2v1.11h6.7v.72h2.57v4.39l-3.08.75v42.37h-14.73v-42.37l-3.08-.75v-4.39h0Zm10.17-3.99v-3.28h.93v3.28h.36v1.76h-1.65v-1.76h.36Zm10.71,9.35v42.15h-1.88v-41.65l1.88-.5h0Zm-19,42.15h-1.88v-42.15l1.88.5v41.65h0Z"/>
      <path class="cls-3" d="m170.52,67.02l24.16,11.61v30.17l-15.41,8.77v38.16h-7.9v-40.19l-.86-.63v-47.89h0Zm21.82,45.25v43.46h-11.2v-37.08l11.2-6.38h0Z"/>
    </g>
  </g>
  <g id="Layer_3" data-name="Layer 3">
    <text class="cls-2" transform="translate(73.22 195.15)"><tspan x="0" y="0">Building of the Year</tspan></text>
  </g>
</svg>