<?xml version="1.0" encoding="UTF-8"?>
<svg id="Layer_1" data-name="Layer 1" xmlns="http://www.w3.org/2000/svg" viewBox="0 0 178.74 77.61">
  <defs>
    <style>
      .cls-1 {
        fill: #e2051a;
      }
    </style>
  </defs>
  <path class="cls-1" d="m58.7,76.15l-10.61-38.76-.18-.43h10.69c2.21,0,3.47,1.34,3.47,1.34,0,0,25.66,27.61,32.57,33.07,5.55,4.39,8.96,4.7,11.58,4.7,1.73,0,4.31,0,4.31,0L78.46,1.16h-19.98l-31.84,74.99h32.06Z"/>
  <rect class="cls-1" y="1.17" width="20.83" height="74.97"/>
  <path class="cls-1" d="m105.72,39.02v-.21C105.72,17.06,122.77,0,145.9,0c13.11,0,22.39,4.05,30.27,10.87l-12.15,14.6c-5.33-4.47-10.66-7.03-18.01-7.03-10.77,0-19.09,9.06-19.09,20.47v.21c0,12.05,8.43,20.68,20.26,20.68,5.01,0,8.84-1.07,11.94-3.09v-9.06h-14.71v-15.14h34.33v33.58c-7.89,6.5-18.87,11.51-32.41,11.51-23.24,0-40.61-15.99-40.61-38.59"/>
</svg>