<?xml version="1.0" encoding="UTF-8"?>
<svg id="_Layer_" data-name="&amp;lt;Layer&amp;gt;" xmlns="http://www.w3.org/2000/svg" viewBox="0 0 94.35 32.6">
  <defs>
    <style>
      .cls-1 {
        fill: none;
      }

      .cls-2 {
        fill: #fff;
      }

      .cls-3 {
        fill: #1c3f8d;
      }
    </style>
  </defs>
  <rect class="cls-3" y=".08" width="94.2" height="32.34"/>
  <path class="cls-2" d="m66.37,12.64c-.16-.16-.24-.36-.24-.58s.08-.42.24-.58c.16-.16.36-.24.58-.24s.42.08.58.24c.16.16.24.36.24.58s-.08.42-.24.58c-.16.16-.36.24-.58.24s-.42-.08-.58-.24m.56,1.54h.08c.17,0,.29,0,.37.02.08.01.13.03.14.05.01.02.02.05.02.09v6.61s0,.06-.02.09c-.01.02-.06.04-.14.05-.08.01-.21.02-.37.02h-.08c-.25,0-.4-.01-.47-.03-.07-.02-.1-.06-.1-.12v-6.61c0-.06.03-.1.1-.12.07-.02.22-.03.47-.03"/>
  <path class="cls-2" d="m70.15,11.14h.08c.2,0,.34.01.41.03s.11.07.13.14c.05.3.08,1.59.08,3.88v4.36c0,.25.03.43.09.52.06.09.2.14.41.14h.13c.05,0,.08.12.08.35v.04c0,.26-.03.4-.08.42-.19.07-.4.1-.62.1-.45,0-.77-.15-.97-.45-.15-.22-.22-.68-.22-1.38v-4.4c0-1.99-.03-3.18-.08-3.6,0-.06.03-.1.1-.13.08-.03.23-.04.46-.04"/>
  <path class="cls-2" d="m73.27,12.64c-.16-.16-.24-.36-.24-.58s.08-.42.24-.58c.16-.16.36-.24.58-.24s.42.08.58.24c.16.16.24.36.24.58s-.08.42-.24.58c-.16.16-.36.24-.58.24s-.42-.08-.58-.24m.56,1.54h.08c.17,0,.29,0,.37.02.08.01.13.03.14.05.01.02.02.05.02.09v6.61s0,.06-.02.09c-.01.02-.06.04-.14.05-.08.01-.21.02-.37.02h-.08c-.25,0-.4-.01-.47-.03s-.1-.06-.1-.12v-6.61c0-.06.03-.1.1-.12s.22-.03.47-.03"/>
  <path class="cls-2" d="m77.21,12.24h.08c.17,0,.29,0,.37.02.08.01.13.03.14.05.01.02.02.05.02.09v1.78h1.65c.08,0,.12.14.12.41v.1c0,.28-.04.42-.12.42h-1.65v3.87c0,.52.07.86.21,1.01.15.16.37.24.67.24.22,0,.52-.06.89-.17.06-.02.11,0,.14.03.03.04.06.11.1.24l.04.17c.05.23.04.37-.04.42-.34.22-.8.33-1.38.33s-1.01-.14-1.31-.43c-.33-.31-.5-.88-.5-1.73v-3.96h-.83c-.08,0-.12-.14-.12-.42v-.1c0-.27.04-.41.12-.41h.83v-1.78c0-.06.03-.1.1-.12s.22-.03.47-.03"/>
  <path class="cls-2" d="m81.94,14.33l1.23,3.27c.32.83.56,1.58.72,2.24.1-.4.32-1.12.67-2.15l1.17-3.36c.03-.1.23-.14.59-.14.25,0,.42.01.51.04.09.03.12.07.09.14l-2.48,6.9c-.35.98-.72,1.68-1.11,2.1-.5.53-1.15.8-1.96.8-.4,0-.75-.08-1.05-.24-.1-.05-.12-.19-.04-.42l.05-.16c.05-.16.1-.26.13-.29.03-.04.09-.05.16-.03.28.08.52.12.71.12.44,0,.8-.14,1.09-.43.29-.29.57-.79.84-1.53l-2.61-6.82c-.04-.08,0-.13.08-.15.09-.02.27-.03.54-.03.41,0,.63.05.67.14"/>
  <path class="cls-2" d="m30.39,11.67h.07c.44,0,.68.07.72.2l2.44,6.12,2.38-6.12c.04-.13.27-.2.68-.2h.09c.45,0,.68.07.68.2l.37,9.11c0,.1-.17.14-.51.14h-.14c-.36,0-.54-.05-.54-.14l-.24-7.28-2.16,5.65c-.03.09-.23.13-.59.13h-.1c-.36,0-.56-.05-.59-.15l-2.19-5.46-.26,7.1c0,.1-.18.14-.54.14h-.13c-.34,0-.51-.05-.51-.14l.43-9.11c0-.09.05-.14.12-.16.08-.02.25-.03.53-.03"/>
  <path class="cls-2" d="m42.41,14.05c.82,0,1.48.22,1.97.66.69.61,1.04,1.54,1.04,2.78s-.29,2.15-.88,2.79c-.59.64-1.38.96-2.39.96-.82,0-1.48-.22-1.97-.66-.69-.61-1.04-1.54-1.04-2.78s.29-2.14.88-2.79c.59-.64,1.38-.96,2.39-.96m-.05,1.05c-.58,0-1.05.21-1.42.64s-.56,1.09-.56,1.97c0,.44.05.83.14,1.18.1.35.29.65.58.91.29.26.66.39,1.1.39.58,0,1.05-.21,1.42-.64.37-.43.56-1.08.56-1.97,0-.44-.05-.83-.14-1.18-.1-.35-.29-.65-.58-.91-.29-.26-.66-.39-1.1-.39"/>
  <path class="cls-2" d="m47.71,12.24h.08c.17,0,.29,0,.37.02.08.01.13.03.14.05.01.02.02.05.02.09v1.78h1.65c.08,0,.12.14.12.41v.1c0,.28-.04.42-.12.42h-1.65v3.87c0,.52.07.86.21,1.01.15.16.37.24.67.24.22,0,.52-.06.89-.17.06-.02.11,0,.14.03.03.04.06.11.1.24l.04.17c.05.23.04.37-.04.42-.34.22-.8.33-1.38.33s-1.01-.14-1.31-.43c-.33-.31-.5-.88-.5-1.73v-3.96h-.83c-.08,0-.12-.14-.12-.42v-.1c0-.27.04-.41.12-.41h.83v-1.78c0-.06.03-.1.1-.12.07-.02.22-.03.47-.03"/>
  <path class="cls-2" d="m56.71,14.18h.03c.23,0,.37.01.43.03.06.02.08.06.08.12s0,.33-.01.8c0,.47-.01.87-.01,1.19v1.84c0,.74.03,1.66.09,2.78,0,.1-.16.16-.47.16h-.05c-.32,0-.49-.05-.5-.16l-.08-.6c-.22.26-.51.48-.87.64-.36.17-.74.25-1.15.25-.91,0-1.61-.33-2.09-.98-.48-.66-.72-1.49-.72-2.49,0-1.11.28-2.01.85-2.69.57-.68,1.29-1.02,2.16-1.02.74,0,1.33.28,1.77.84l.07-.55c0-.08.04-.12.08-.14.05-.01.18-.02.39-.02m-.67,3.69v-1.86c-.16-.25-.37-.47-.65-.64-.28-.17-.56-.26-.86-.26-.6,0-1.06.23-1.4.7-.34.46-.51,1.09-.51,1.89,0,.71.14,1.3.43,1.78.28.48.74.72,1.36.72.56,0,1-.17,1.31-.51.13-.15.22-.34.26-.58.04-.24.07-.65.07-1.23"/>
  <path class="cls-2" d="m59.65,11.14h.08c.17,0,.29,0,.37.02s.13.03.14.05.02.05.02.08v3.53c.19-.23.47-.41.83-.56.36-.14.74-.22,1.12-.22,1.05,0,1.8.48,2.26,1.44.26.57.39,1.23.39,1.97,0,1.18-.29,2.11-.86,2.78-.57.67-1.41,1-2.5,1-.92,0-1.71-.15-2.39-.46-.03,0-.04-.05-.04-.13v-9.36c0-.06.03-.1.1-.12.06-.02.22-.03.46-.03m.62,7.23v1.63c.38.15.76.22,1.14.22.73,0,1.28-.24,1.66-.72.38-.48.57-1.13.57-1.94,0-1.59-.56-2.39-1.68-2.39-.54,0-.98.16-1.3.49-.19.19-.31.51-.35.94-.03.37-.04.96-.04,1.77"/>
  <path class="cls-2" d="m15.41,8.18c0-1.07,1.5-1.47,1.99,0,.49,1.5-1.62,6.44-1.62,6.44.28-5.09-.37-5.51-.37-6.44m1.02,6.42s3.84-3.76,3.96-5.33c.12-1.55-1.42-1.75-1.84-.76-.36.86.08,1.5-2.12,6.09m.61.22s4.98-2,5.7-3.41c.7-1.39-.64-2.16-1.4-1.41-.66.65-.49,1.41-4.29,4.82m.48.44s5.37.06,6.57-.97c1.18-1.01.23-2.24-.76-1.84-.86.35-1,1.12-5.81,2.81m.28.59s4.94,2.11,6.44,1.62c1.48-.49,1.07-1.98,0-1.99-.93,0-1.35.65-6.44.37m.03.65s3.75,3.84,5.33,3.96c1.55.12,1.75-1.42.76-1.83-.86-.36-1.49.08-6.09-2.12m-.22.61s2,4.98,3.41,5.7c1.39.7,2.16-.64,1.41-1.4-.65-.66-1.41-.49-4.82-4.29m-.44.48s-.06,5.37.97,6.57c1.01,1.18,2.24.23,1.84-.76-.35-.86-1.12-1-2.81-5.81m-.59.28s-2.11,4.94-1.62,6.44c.49,1.48,1.98,1.07,1.99,0,0-.93-.65-1.35-.37-6.44m-.65.03s-3.84,3.75-3.96,5.33c-.12,1.55,1.42,1.75,1.83.76.36-.86-.08-1.49,2.12-6.09m-.61-.22s-4.98,2-5.7,3.41c-.7,1.39.65,2.16,1.4,1.41.66-.65.49-1.41,4.29-4.82m-.48-.44s-5.37-.06-6.57.97c-1.18,1.01-.23,2.24.76,1.84.86-.35,1-1.12,5.81-2.81m-.27-.59s-4.94-2.11-6.44-1.62c-1.48.49-1.07,1.98,0,1.99.93,0,1.35-.65,6.44-.37m-.03-.65s-3.75-3.84-5.33-3.96c-1.55-.12-1.75,1.42-.76,1.83.86.36,1.5-.08,6.09,2.12m.22-.61s-2-4.98-3.41-5.7c-1.39-.7-2.16.64-1.41,1.4.65.66,1.41.5,4.82,4.29m.44-.48s.06-5.37-.97-6.57c-1.01-1.18-2.24-.23-1.84.76.35.86,1.12,1,2.81,5.81"/>
  <rect class="cls-1" width="94.35" height="32.6"/>
</svg>