<?xml version="1.0" encoding="utf-8"?>
<!-- Generator: Adobe Illustrator 27.2.0, SVG Export Plug-In . SVG Version: 6.00 Build 0)  -->
<svg version="1.1" xmlns="http://www.w3.org/2000/svg" xmlns:xlink="http://www.w3.org/1999/xlink" x="0px" y="0px"
	 viewBox="0 0 281 46.5" style="enable-background:new 0 0 281 46.5;" xml:space="preserve">
<g id="Layer_1">
</g>
<g id="_x3C_Layer_x3E_">
	<path d="M76.7,46.5c5.9,0,10.7-2.1,14.4-6.7l-6.5-7c-2,2.1-4.2,3.7-7.5,3.7c-4.9,0-7.5-3.1-7.5-9.2c0-5.5,2.7-8.4,7.2-8.5
		c2.9-0.1,5.6,1.2,7,3l6.3-7.6c-3.1-3.2-8.2-5.3-13.3-5.3c-10.7,0-18.5,7.7-18.5,18.4C58.3,39,65.5,46.5,76.7,46.5 M94.5,46h11V9.7
		h-11V46z M118.7,46h11V19.5h9.2V9.7h-29.5v9.8h9.2V46z M142.9,46h10.9V34.1h1.9c3.1,3.6,5.6,7.3,7,11.9h11.2
		c-1.4-5.8-4.3-10.5-8.8-15c3.9-2.1,5.8-5.3,5.8-9.2c0-7.9-5-12.1-14.1-12.1h-14V46z M153.8,25.4v-7.1h3.2c1.9,0,3.1,1.2,3.1,3.4
		c0,2.2-1.2,3.7-3.1,3.7H153.8z M192.8,46.5c11.1,0,18.4-7.6,18.4-19.1c0-10.8-7.6-18.3-18.4-18.3c-10.7,0-18.3,7.6-18.3,18.3
		C174.5,39,181.7,46.5,192.8,46.5 M192.8,36.6c-4.2,0-7-3.6-7-9.3c0-5.3,2.5-8.4,7-8.4c4.3,0,7.1,3.3,7.1,8.4
		C199.8,33.4,197.4,36.6,192.8,36.6 M222.3,8.1c2.2,0,4.1-1.9,4.1-4.1c0-2.3-1.9-4-4.1-4c-2.3,0-4.2,1.8-4.2,4
		C218.1,6.3,220,8.1,222.3,8.1 M232.8,8.1c2.2,0,4.1-1.9,4.1-4.1c0-2.3-1.9-4-4.1-4c-2.3,0-4.2,1.8-4.2,4
		C228.6,6.3,230.5,8.1,232.8,8.1 M215.7,46h24.6v-9.6h-13.6v-4.1h10.7v-9.2h-10.7v-3.8h12.6V9.7h-23.6V46z M245.4,46h11V26.5
		c6.4,6,11.5,11.9,15.3,19.4h9.3V9.6h-11v15.3c-5-5.6-12.1-11.6-18.7-15.9h-5.9V46z"/>
	<path d="M45.7,37.8c-0.7-0.7-16.4-17.7-22-17.7c-5.7,0-21.4,17-22,17.7C1.5,37.9,0,39.6,0,41.6c0,1.6,0.1,3.1,0.1,3.1
		c0,0.1,0,0.7,0.4,0.9c0.1,0,0.1,0,0.2,0c0.1,0,0.3-0.1,0.5-0.2c0,0,0,0,0,0c0.4-0.4,16.2-14,22.5-14c6.2,0,22,13.6,22.4,14
		c0,0,0,0,0,0c0.2,0.1,0.3,0.2,0.5,0.2c0.1,0,0.1,0,0.2,0c0.4-0.2,0.4-0.8,0.4-0.9c0,0,0.1-1.6,0.1-3.1
		C47.3,39.6,45.7,37.9,45.7,37.8"/>
	<path d="M45.9,20.6C45.2,19.9,28.7,3.7,23,4C17.4,4.2,2.5,21.9,1.8,22.7c-0.1,0.1-1.5,1.9-1.4,3.9c0.1,1.6,0.3,3.1,0.3,3.1
		c0,0.1,0.1,0.7,0.5,0.9c0.1,0,0.1,0,0.2,0c0.1,0,0.3-0.1,0.4-0.2c0,0,0,0,0,0c0.4-0.4,15.5-14.7,21.8-15
		c6.2-0.3,22.6,12.6,23.1,12.9c0,0,0,0,0,0c0.2,0.1,0.3,0.2,0.5,0.2c0.1,0,0.1,0,0.2-0.1c0.4-0.2,0.4-0.9,0.4-0.9c0,0,0-1.6,0-3.1
		C47.6,22.3,46,20.7,45.9,20.6"/>
</g>
</svg>
