<?xml version="1.0" encoding="UTF-8"?>
<svg id="Layer_1" data-name="Layer 1" xmlns="http://www.w3.org/2000/svg" viewBox="0 0 172.94 47.91">
  <defs>
    <style>
      .cls-1 {
        font-family: RigidSquare-Bold, 'Rigid Square';
        font-size: 12px;
        font-weight: 700;
      }

      .cls-2 {
        fill: #076400;
      }

      .cls-3 {
        letter-spacing: 0em;
      }

      .cls-4 {
        letter-spacing: 0em;
      }
    </style>
  </defs>
  <g>
    <path class="cls-2" d="m13.21,30.36c-5.24,0-9.76-3.49-11.9-8.54-.84,2.39-1.31,5.07-1.31,7.91,0,10.04,5.92,18.19,13.21,18.19s13.21-8.14,13.21-18.19c0-2.83-.47-5.52-1.31-7.91-2.14,5.05-6.66,8.54-11.9,8.54Z"/>
    <path class="cls-2" d="m16.3,12.05v10.47c0,.28-.79.46-1.81.54v4.9c4.27-.51,7.85-3.93,9.47-8.8-1.82-3.5-4.52-6.07-7.66-7.1Z"/>
    <path class="cls-2" d="m12.16,27.94v-4.87c-1.12-.07-2.04-.26-2.04-.56v-10.47c-3.02,1-5.63,3.41-7.44,6.71,1.54,5.04,5.15,8.62,9.48,9.18Z"/>
    <path class="cls-2" d="m14.84,20.64v-5.9c0-.42-3.25-.42-3.25,0v5.9c0,.42,3.25.42,3.25,0Z"/>
    <path class="cls-2" d="m31.41,9.44c-.81,1.18-1.93,2.05-3.8,2.06-.03,0-.05,0-.08,0-.65-.02-1.16-.11-1.59-.28-.52-.2-.93-.5-1.29-.89-.09-.1-.18-.2-.26-.31-.71-.93-1.19-2.37-1.64-4.05-.52-1.89-1.4-3.39-2.57-4.41C19,.53,17.54,0,16.02,0c-.13,0-.26,0-.4.01-1.69.09-3.11.91-4.06,2.05-.95,1.14-1.47,2.6-1.47,4.07,0,.43.05.86.14,1.28.32,1.47.83,2.64,1.33,3.54.04.07.08.13.12.2.56-.02,1.37-.02,2.14-.02-.06-.08-.12-.16-.18-.25-.55-.78-1.25-2.05-1.64-3.85-.07-.29-.1-.59-.1-.9,0-1.05.38-2.12,1.06-2.92.68-.8,1.6-1.34,2.78-1.41.1,0,.19,0,.29,0,1.12,0,2.11.37,2.97,1.11.86.75,1.58,1.91,2.02,3.53.47,1.72.97,3.35,1.94,4.66.48.67,1.12,1.22,1.91,1.61.43.21.91.38,1.44.48.38.07.79.11,1.21.11.04,0,.07,0,.1,0h.04c2.48,0,4.25-1.32,5.25-2.86,1.03-1.56,1.42-3.32,1.42-4.61h-1.79c0,.92-.33,2.44-1.12,3.62Z"/>
    <path class="cls-2" d="m13.26,13.2l.05-.06s-.07,0-.11,0c.03.03.06.05.06.06Z"/>
  </g>
  <text class="cls-1" transform="translate(38.08 27.52)"><tspan class="cls-4" x="0" y="0">C</tspan><tspan x="8.09" y="0">OMPUTER </tspan><tspan class="cls-3" x="72.67" y="0">A</tspan><tspan x="81.55" y="0">CADEMY</tspan></text>
</svg>