<?xml version="1.0" encoding="UTF-8"?>
<svg id="Layer_1" data-name="Layer 1" xmlns="http://www.w3.org/2000/svg" width="106.94" height="76.68" xmlns:xlink="http://www.w3.org/1999/xlink" viewBox="0 0 106.94 76.68">
  <defs>
    <radialGradient id="radial-gradient" cx="331.97" cy="554.32" fx="331.97" fy="554.32" r="15.27" gradientTransform="translate(90.48 -612.26) rotate(32.88)" gradientUnits="userSpaceOnUse">
      <stop offset=".05" stop-color="#446d79"/>
      <stop offset=".51" stop-color="#1e3137"/>
      <stop offset=".87" stop-color="#000"/>
    </radialGradient>
    <radialGradient id="radial-gradient-2" cx="314.15" cy="574.59" fx="314.15" fy="574.59" r="12.94" xlink:href="#radial-gradient"/>
    <radialGradient id="radial-gradient-3" cx="-643.06" cy="-44.21" fx="-643.06" fy="-44.21" r="11.99" gradientTransform="translate(-29.34 -601.67) rotate(-102.55)" gradientUnits="userSpaceOnUse">
      <stop offset="0" stop-color="#ff8600"/>
      <stop offset=".47" stop-color="red"/>
      <stop offset=".99" stop-color="#1f0900"/>
    </radialGradient>
  </defs>
  <path d="m45.74,36.48c-2.38.78-3.54,3.76-2.6,6.66.95,2.9,3.64,4.62,6.02,3.85,2.38-.78,3.54-3.76,2.6-6.66-.95-2.9-3.64-4.62-6.02-3.85Z"/>
  <path d="m.69,39.59c3.31-1.97,6.53-4.02,9.67-6.23,2.18-1.53,4.73-5.69,7.5-5.76,2.31-.05,17.32-2.8,17.26-4.17.34,7.76,13.16,9.93,19.01,10.69.93.12,1.2-1.28.26-1.43-4.75-.78-19.08-2.92-17.54-10.23.12-.59-.47-1.03-1.01-.86-3.38,1.1-6.81,2.09-10.25,3-2.94.78-7.16.45-9.95,1.46-1.48.53-5.13,5.21-6.12,6.08-2.88,2.56-6.09,4.65-9.33,6.72-.48.31.01,1.02.5.73h0Z"/>
  <path d="m57.48,26.28c-2.18-2.32-9.86-3.93-9.78-6.99.15-5.59.26-12.11-1.82-17.39-.26-.66-1.16-.3-1.01.36,1.48,6.23.95,12.18,1.57,18.46.07.73,1.1,1.02,1.62,1.28,2.85,1.44,6.51,2.78,8.76,5.04.47.47,1.11-.3.67-.77h0Z"/>
  <path d="m60.07,24.4c-.43-1.39-2.83-5.25-1.02-6.57,2.1-1.53,4.02-3.3,5.92-5.07,3.59-3.34,6.45-7.3,7.85-12.02.2-.69-.94-1.06-1.2-.4-2.93,7.73-8.7,12.44-14.78,17.7-.23.21-.32.5-.14.78,1.21,1.9,1.92,3.75,2.67,5.82.16.45.84.2.7-.25h0Z"/>
  <path d="m99.83,10.06c-6.24-.07-12.09-.36-18.3.46-1.31.17-1.96,1.53-2.61,2.51-2.2,3.29-4.96,6.22-7.02,9.58-.42.69.55,1.47,1.17,1.01,2.07-1.58,3.6-3.58,5.16-5.66,1.13-1.5,2.54-5.21,4.49-5.47,5.7-.74,11.51-.75,17.18-1.6.54-.08.47-.83-.07-.83h0Z"/>
  <path d="m10.95,70.87c4.57-.17,9.03-.09,13.55.53,1.54.21,5.36,1.9,6.73,1.41,2.97-1.07,5.84-3.57,8.84-4.86,3.26-1.4,6.67-2.54,10.04-3.64.57-.19.63-.91.24-1.29-5.69-5.59,3.96-16.18,7.66-20.26.64-.7-.45-1.62-1.1-.95-3.8,3.92-12.98,14.3-9.1,20.48,1.34,2.14-2.31,1.87-4.25,2.54-3.43,1.19-6.71,2.65-9.89,4.38-3.81,2.08-6.92.82-11.02.47-3.88-.33-7.9.05-11.77.32-.57.04-.49.9.07.87h0Z"/>
  <path d="m63.44,46.51c-.52,3.62-2.63,6.86-3.95,10.22-.22.57-.79,1.3-.38,1.94,3.69,5.83,7.59,11.22,10.19,17.67.26.64,1.19.3,1-.36-1.67-5.94-5.52-10.84-8.78-15.98-1.52-2.39-.94-2.63.05-5.4,1.01-2.82,2.51-4.87,2.86-7.91.07-.64-.91-.84-1-.19h0Z"/>
  <path d="m66.97,47.07c.68,2.3,1.27,4.56,1.46,6.95.02.25.22.5.48.53,8.23.88,15.88,1.75,22.78,6.76.66.48,1.47-.43.83-.96-3.82-3.17-8.15-4.77-12.95-5.82-2.75-.61-5.67-.91-8.49-1.04-2.47-.11-2.89-5.12-3.42-6.67-.16-.46-.84-.21-.7.25h0Z"/>
  <path d="m106.29,34.42c-4.31,2.33-11.48,10.21-16.69,8.49-3.91-1.29-6.85-3.22-11.08-3.35-.8-.02-.98,1.22-.28,1.51,2.42,1.03,4.97,1.45,7.41,2.49,2.03.87,3.81,1.88,6.06,1.73,5.56-.38,10.96-7,15.06-10.18.44-.34,0-.95-.47-.69h0Z"/>
  <path d="m61.33,23.06c-9,2.93-9.03,8.88-6.87,15.5,2.16,6.62,5.68,11.41,14.68,8.47,9-2.93,19.62-13.84,17.91-19.09-1.63-4.99-16.73-7.81-25.73-4.88Z" style="fill: url(#radial-gradient);"/>
  <path d="m50.92,33.19c-2.97.97-4.43,4.69-3.25,8.32,1.18,3.62,4.55,5.78,7.53,4.81,2.98-.97,4.43-4.7,3.25-8.32-1.18-3.63-4.55-5.78-7.53-4.81Z" style="fill: url(#radial-gradient-2);"/>
  <path d="m66.06,37.93c1.51,1,.76,4.78.33,6.15,2.57-.35,4.71-2.89,7.32-3.49-5.11-2.96-.44-7.16,3.83-5.48-1.05-1.24-1.53-2.84-1.72-4.41-.06-.48-.79-3.5-.75-3.6-.9,1.87-3.04,4.13-5.32,3.33-1.96-.69-2.73-3.92-1.68-5.67-2.27,1.59-5.1,2.11-7.69,2.93,1.75.54,6.26,2.45,4.2,4.97-1.36,1.67-4.59.71-6.11-.18,2.24,1.3,2.4,6.96,2.94,9.14.57-1.31,2.68-5.01,4.66-3.69Z" style="fill: url(#radial-gradient-3);"/>
</svg>