<?xml version="1.0" encoding="UTF-8"?>
<svg id="Layer_1" data-name="Layer 1" xmlns="http://www.w3.org/2000/svg" width="300" height="250" viewBox="0 0 300 250">
  <rect width="300" height="250" style="fill: none;"/>
  <g>
    <path d="m109.46,80.64l-.62.23c-.61.22-1.28-.09-1.5-.7l-11.62-31.93c-.22-.61.09-1.28.7-1.5l.62-.23c.61-.22,1.28.09,1.5.7l11.62,31.93c.22.61-.09,1.28-.7,1.5Z" style="fill: #fff;"/>
    <path d="m86.92,24.97l-1.27-5.48c-.16-.56.16-1.18.71-1.38h0c.55-.2,1.19.07,1.43.6l2.54,5.01-3.41,1.24Z" style="fill: #fff;"/>
    <g>
      <g>
        <path d="m80.6,31.15c-6.32,5.21-9.48,12.58-7.66,19.23.17.62.84.93,1.45.71l4.65-1.69c.61-.22.97-.91.83-1.54-1.03-4.64-1.14-9.22-.29-13.26.26-1.23.6-2.38,1.02-3.45Z" style="fill: #fff;"/>
        <path d="m83.41,46.58c.13.63.75.96,1.35.74l7.93-2.89c.61-.22.92-.89.7-1.5l-5.61-15.41c-2.2,1.5-3.79,4.22-4.55,7.85-.71,3.4-.64,7.25.18,11.2Z" style="fill: #fff;"/>
      </g>
      <g>
        <path d="m110.44,36.74c.3.57,1.01.86,1.62.64l4.65-1.69c.61-.22.92-.89.65-1.48-2.88-6.27-10.03-9.88-18.23-9.81,1.01.55,2.01,1.21,3,1.99,3.25,2.55,6.11,6.13,8.3,10.35Z" style="fill: #fff;"/>
        <path d="m91.3,26.24l5.61,15.41c.22.61.89.92,1.5.7l7.93-2.89c.61-.22.87-.87.56-1.44-1.91-3.55-4.34-6.55-7.07-8.7-2.92-2.29-5.89-3.35-8.53-3.09Z" style="fill: #fff;"/>
      </g>
    </g>
  </g>
  <g>
    <path d="m138.51,36.05c-1.19.04-2.1.49-2.73,1.36-.63.87-.95,2.36-.95,4.49,0,.7.07,1.18.2,1.46.13.27.2.43.2.47-1.02,0-1.78-.21-2.27-.64-.5-.42-.75-1.12-.75-2.1,0-1.34.33-2.56.99-3.66.66-1.1,1.71-1.99,3.15-2.67,1.44-.68,3.27-1.02,5.49-1.02.45,0,1.05.05,1.81.14,1.36.13,2.32.2,2.88.2,1,0,1.85-.11,2.54-.34-.06.17-.16.54-.31,1.12-.15.57-.42,1.06-.81,1.47-.39.41-.91.67-1.57.81-1.11,0-2.43-.18-3.95-.54l-1.19,5.62h4.12l-.45,2.09h-4.12l-2.29,10.62h-4.07l4.07-18.87Z" style="fill: #fff;"/>
    <path d="m145.53,54.24c-.56-.57-.83-1.41-.83-2.54,0-.47.08-1.08.23-1.84l3.02-14.15,4.18-.57-3.25,15.25c-.08.28-.11.58-.11.9,0,.38.09.65.27.81.18.16.48.24.89.24.55,0,1.05-.23,1.52-.69.47-.46.81-1.06,1.02-1.79h1.19c-.7,2.03-1.59,3.41-2.68,4.14-1.09.73-2.18,1.09-3.25,1.09-.9,0-1.63-.28-2.19-.85Z" style="fill: #fff;"/>
    <path d="m154.61,61.27c-.6-.47-.9-1.15-.9-2.03,0-1.07.43-1.94,1.3-2.58s1.97-1.19,3.31-1.62l.34-1.53c-.55.6-1.1,1.02-1.67,1.24-.56.23-1.14.34-1.72.34-.9,0-1.63-.28-2.19-.85-.56-.57-.83-1.41-.83-2.54,0-.47.08-1.08.23-1.84l1.92-9.07h4.07l-2.03,9.6c-.06.23-.08.46-.08.71,0,.83.28,1.24.85,1.24.49,0,.92-.21,1.3-.64.38-.42.68-.98.9-1.68l1.98-9.24h4.07l-2.8,13.11c.9-.3,1.63-.75,2.17-1.36.55-.6,1.01-1.5,1.38-2.68h1.19c-.51,1.68-1.2,2.91-2.06,3.69-.87.78-1.85,1.31-2.94,1.6l-.42,2.03c-.38,1.83-1.03,3.08-1.95,3.77-.92.69-1.97,1.03-3.13,1.03-.9,0-1.66-.24-2.26-.71Zm2.54-2.15c.3-.43.54-1.05.71-1.86l.17-.82c-1.85.68-2.77,1.48-2.77,2.4,0,.24.08.46.25.65.17.19.41.28.71.28.32,0,.63-.22.93-.65Z" style="fill: #fff;"/>
    <path d="m166.9,53.99c-.71-.73-1.07-1.88-1.07-3.45,0-1.39.28-2.86.83-4.39.56-1.53,1.38-2.83,2.49-3.9s2.42-1.6,3.94-1.6c.77,0,1.35.13,1.72.4.38.26.56.61.56,1.04v.2l.31-1.5h4.07l-2.03,9.6c-.08.28-.11.58-.11.9,0,.81.39,1.21,1.16,1.21.53,0,.98-.24,1.37-.73.39-.49.69-1.13.92-1.92h1.19c-.7,2.03-1.56,3.41-2.58,4.14-1.03.73-2.06,1.09-3.09,1.09-.79,0-1.43-.22-1.91-.66-.48-.44-.77-1.09-.86-1.94-.55.77-1.15,1.4-1.82,1.88-.67.48-1.46.72-2.39.72-1.07,0-1.97-.37-2.68-1.1Zm5.92-2.3c.46-.44.78-1.05.95-1.82l1.36-6.38c0-.24-.09-.48-.28-.72-.19-.24-.48-.35-.88-.35-.75,0-1.43.44-2.03,1.31-.6.88-1.07,1.93-1.41,3.16s-.51,2.32-.51,3.26.14,1.54.41,1.81c.27.26.61.4,1,.4.47,0,.94-.22,1.4-.66Z" style="fill: #fff;"/>
    <path d="m181.66,54.24c-.56-.57-.83-1.41-.83-2.54,0-.47.08-1.08.23-1.84l1.92-9.07h4.07l-2.03,9.6c-.06.23-.08.46-.08.71,0,.83.28,1.24.85,1.24.53,0,.98-.22,1.36-.66s.68-1.05.9-1.82l1.92-9.07h4.07l-2.03,9.6c-.09.47-.14.81-.14,1.02,0,.62.32.93.96.93.87,0,1.67-.55,2.42-1.64.74-1.09,1.34-2.39,1.79-3.9.45-1.51.68-2.81.68-3.9-.04.09-.16.17-.37.21-.21.05-.39.07-.54.07-.32,0-.57-.15-.75-.45-.18-.3-.27-.63-.27-.99,0-.45.15-.82.44-1.1.29-.28.73-.42,1.31-.42.62,0,1.07.23,1.36.69s.42,1.05.42,1.77c0,1.7-.29,3.51-.88,5.44-.58,1.93-1.48,3.57-2.68,4.93s-2.7,2.03-4.49,2.03c-.92,0-1.68-.2-2.26-.59s-.96-.99-1.13-1.78c-1.05,1.58-2.39,2.37-4.01,2.37-.9,0-1.63-.28-2.19-.85Z" style="fill: #fff;"/>
    <path d="m200.43,53.99c-.71-.73-1.07-1.88-1.07-3.45,0-1.39.28-2.86.83-4.39.56-1.53,1.38-2.83,2.49-3.9s2.42-1.6,3.94-1.6c.77,0,1.35.13,1.72.4.38.26.56.61.56,1.04v.2l.31-1.5h4.07l-2.03,9.6c-.08.28-.11.58-.11.9,0,.81.39,1.21,1.16,1.21.53,0,.98-.24,1.37-.73.39-.49.69-1.13.92-1.92h1.19c-.7,2.03-1.56,3.41-2.58,4.14-1.03.73-2.06,1.09-3.09,1.09-.79,0-1.43-.22-1.91-.66-.48-.44-.77-1.09-.86-1.94-.55.77-1.15,1.4-1.82,1.88-.67.48-1.46.72-2.39.72-1.07,0-1.97-.37-2.68-1.1Zm5.92-2.3c.46-.44.78-1.05.95-1.82l1.36-6.38c0-.24-.09-.48-.28-.72-.19-.24-.48-.35-.88-.35-.75,0-1.43.44-2.03,1.31-.6.88-1.07,1.93-1.41,3.16s-.51,2.32-.51,3.26.14,1.54.41,1.81c.27.26.61.4,1,.4.47,0,.94-.22,1.4-.66Z" style="fill: #fff;"/>
    <path d="m216.66,61.12c-.67-.57-1-1.3-1-2.19,0-.83.21-1.51.62-2.03.41-.53.95-.94,1.61-1.24s1.54-.62,2.66-.96l.28-1.24c-.96,1.09-2.11,1.64-3.45,1.64-.9,0-1.63-.28-2.19-.85-.56-.57-.83-1.41-.83-2.54,0-.47.08-1.08.23-1.84l1.92-9.07h4.07l-2.03,9.6c-.06.23-.08.46-.08.71,0,.83.28,1.24.85,1.24.53,0,.98-.22,1.36-.66s.68-1.05.9-1.82l1.92-9.07h4.1l-3.45,16.38c-.38,1.81-1.04,3.06-1.99,3.76-.95.7-2,1.04-3.15,1.04-.89,0-1.66-.29-2.33-.86Zm2.64-2.18c.3-.35.54-.91.71-1.68l.34-1.67c-1,.34-1.77.73-2.32,1.19-.55.45-.82,1.04-.82,1.75,0,.23.11.44.34.64.23.2.49.3.79.3.34,0,.66-.17.96-.52Z" style="fill: #fff;"/>
  </g>
</svg>