<?xml version="1.0" encoding="UTF-8"?>
<svg id="Layer_1" data-name="Layer 1" xmlns="http://www.w3.org/2000/svg" width="300" height="250" viewBox="0 0 300 250">
  <rect width="300" height="250" style="fill: none;"/>
  <g>
    <path d="m188.24,207.04l-1.64.6c-1.6.58-3.36-.24-3.94-1.84l-30.62-84.12c-.58-1.6.24-3.36,1.84-3.94l1.64-.6c1.59-.58,3.36.24,3.94,1.84l30.62,84.12c.58,1.6-.24,3.36-1.84,3.94Z" style="fill: #fff;"/>
    <path d="m128.86,60.4l-3.35-14.43c-.41-1.48.43-3.1,1.86-3.62h0c1.44-.52,3.12.18,3.76,1.58l6.7,13.21-8.97,3.26Z" style="fill: #fff;"/>
    <g>
      <g>
        <path d="m112.21,76.68c-16.66,13.72-24.98,33.13-20.18,50.65.45,1.64,2.23,2.46,3.82,1.88l12.26-4.46c1.6-.58,2.55-2.38,2.18-4.04-2.71-12.21-3.01-24.27-.77-34.93.68-3.24,1.58-6.28,2.69-9.09Z" style="fill: #fff;"/>
        <path d="m119.62,117.31c.35,1.66,1.97,2.53,3.57,1.95l20.89-7.61c1.6-.58,2.42-2.35,1.84-3.94l-14.78-40.59c-5.79,3.95-9.98,11.11-11.99,20.68-1.88,8.95-1.7,19.11.47,29.51Z" style="fill: #fff;"/>
      </g>
      <g>
        <path d="m190.82,91.39c.79,1.51,2.67,2.28,4.27,1.7l12.26-4.46c1.6-.58,2.43-2.35,1.72-3.9-7.58-16.51-26.43-26.02-48.01-25.83,2.65,1.45,5.29,3.19,7.9,5.24,8.56,6.72,16.09,16.15,21.86,27.25Z" style="fill: #fff;"/>
        <path d="m140.39,63.75l14.78,40.59c.58,1.6,2.35,2.42,3.94,1.84l20.89-7.6c1.6-.58,2.28-2.29,1.48-3.79-5.03-9.36-11.42-17.27-18.61-22.91-7.7-6.04-15.5-8.83-22.48-8.13Z" style="fill: #fff;"/>
      </g>
    </g>
  </g>
</svg>