<?xml version="1.0" encoding="UTF-8"?>
<svg id="Egg1" xmlns="http://www.w3.org/2000/svg" viewBox="0 0 2055.33 250">
  <defs>
    <style>
      .cls-1 {
        fill: #ff6621;
      }

      .cls-2 {
        fill: purple;
      }
    </style>
  </defs>
  <path class="cls-1" d="m699.01,48.43c-51.85,1.35-99.53,158.25,4.14,155.45,103.63-2.74,47.65-156.86-4.14-155.45h0Zm0,0"/>
  <path class="cls-2" d="m700.36,153.59c.23,8.01-6.12,14.7-14.17,14.95-8.06.2-14.71-6.12-14.95-14.17-.2-8.06,6.12-14.76,14.17-14.95,8.05-.25,14.75,6.12,14.95,14.17h0Zm0,0"/>
  <path class="cls-2" d="m736,112.07c.19,7.33-5.59,13.46-12.92,13.64-7.33.2-13.45-5.59-13.65-12.92-.19-7.37,5.59-13.44,12.92-13.69,7.38-.2,13.46,5.64,13.65,12.97h0Zm0,0"/>
  <path class="cls-2" d="m754.9,154.65c.15,5.26-4,9.59-9.26,9.74-5.26.15-9.59-4-9.74-9.21-.15-5.26,4-9.64,9.26-9.79,5.26-.15,9.59,4,9.74,9.26h0Zm0,0"/>
  <path class="cls-2" d="m685.03,101.37c.19,6.31-4.78,11.57-11.1,11.71-6.26.19-11.52-4.78-11.71-11.1-.15-6.26,4.83-11.52,11.1-11.71,6.31-.15,11.57,4.83,11.71,11.1h0Zm0,0"/>
  <path class="cls-2" d="m711.98,65.83c.1,4.53-3.47,8.33-8.05,8.43-4.53.15-8.3-3.47-8.44-8-.09-4.53,3.48-8.34,8.01-8.44,4.58-.14,8.34,3.43,8.48,8.01h0Zm0,0"/>
  <path class="cls-2" d="m735.37,182.42c.15,4.88-3.77,8.97-8.63,9.11-4.93.1-8.97-3.75-9.12-8.63-.14-4.91,3.77-8.96,8.64-9.11,4.91-.15,8.96,3.72,9.11,8.63h0Zm0,0"/>
  <path class="cls-2" d="m668.15,181.69c.09,3.48-2.65,6.42-6.13,6.47-3.52.1-6.41-2.65-6.51-6.12-.1-3.52,2.65-6.42,6.17-6.52,3.47-.09,6.42,2.65,6.47,6.17h0Zm0,0"/>
</svg>