<?xml version="1.0" encoding="UTF-8"?>
<svg id="Eight" xmlns="http://www.w3.org/2000/svg" viewBox="0 0 75.31 227.78">
  <defs>
    <style>
      .cls-1 {
        fill: #ecc0a4;
      }

      .cls-2 {
        fill: #874d27;
      }

      .cls-3 {
        fill: #b3b3b3;
      }

      .cls-4 {
        fill: #271100;
      }
    </style>
  </defs>
  <path class="cls-2" d="m19.75,212.21c-23.79-19.38-1.97-54.01-3.12-78.72-1.42-11.46,1.43-17.34,3.01-25.92.75-4.21,1.98-9.24.87-16.2-6.52-14.33,6.05-22.63,3.36-29.71C17.9,45.93-15.28,24.11,8.45.69c24.75-2.45,11.44,39.75,27.32,59.67,1.8-.82,3.93-.8,5.68-.09,14.7-21.16-.16-62.62,24.74-59.71,25.22,24.89-9.46,43.5-13.33,60.48-2.09,9.11,11.48,16.17,5.31,30.11-.88,6.78,1.12,11.74,2.67,16.41,2.54,8.15,5.9,15.65,5.35,26.27-.52,23.94,21.14,57.6-1.63,77.73,1.74,5.11,6.86,14.04-.12,16.01-5.97,1.68-13.44-7-13.96-14.05-6.18,1.45-10.53,1.13-17.02.24-.97,6.92-9.16,15.63-14.43,13.54-7.05-2.79-.93-10.46.72-15.09h0Zm0,0"/>
  <path class="cls-4" d="m1.3,10.96c3.02-4.45,13.12-5.94,20.46-3.5-.92-3.2-7.24-9.06-13.53-6.98C6.3,3.48,1.8,6.82,1.3,10.96h0Zm0,0"/>
  <path class="cls-4" d="m72.72,9.04c-1.01-2.07-4.48-7.3-6.57-8.98-7.8-.67-12.1,4.54-12.76,6.36,6.24-2.55,16.05,0,19.32,2.62h0Zm0,0"/>
  <path class="cls-1" d="m64.55,211.62c-8.4-17.04,2.67-88.02-23.1-88.3-25.77-.27-14.14,72.96-21.84,89.07-3.38,4.96-5.9,11.38-1.35,14.65,4.32,3.11,14.88-5.99,14.88-13.5,5.89,1.31,11.3,1.04,17.08-.2,1.13,8.86,9.16,16.95,15.73,13.26,4.79-2.69-.24-11.01-1.41-14.99h0Zm0,0"/>
  <path class="cls-2" d="m30.1,127.73c3.99,4.23,8.3,18.06,10.82,25.88,1.57,4.92,1.96,14.8-2.55,15.56-7.34,1.23-7.28-12.33-8.61-14.73-3.05-5.49-7.61-11.41-8.87-15.19,1.11-4.7,4.05-10.83,9.22-11.52h0Zm0,0"/>
  <path class="cls-2" d="m54.05,127.45c-3.99,4.24-8.3,18.07-10.82,25.89-1.59,4.92-1.97,14.79,2.55,15.56,7.32,1.21,7.28-12.33,8.61-14.73,3.04-5.5,7.61-11.41,8.87-15.19,1.11-4.26-5.56-12.41-9.22-11.53h0Zm0,0"/>
  <path class="cls-1" d="m23.81,67.89c-2.53,1.61.03,10.67,4.45,8.74,4.33-1.87.5-11.9-4.45-8.74h0Zm0,0"/>
  <path class="cls-1" d="m53.73,68c2.44,1.7.79,10.53-4.22,8.42-4.35-1.84-.49-11.71,4.22-8.42h0Zm0,0"/>
  <path class="cls-3" d="m30.02,127.29c-.31.05-.45.5-.24.73,1.89,2,3.99,6.52,5.87,11.47,1.88,4.94,3.6,10.34,4.86,14.25.76,2.39,1.25,6.07.99,9.18-.13,1.55-.46,2.96-.99,4-.54,1.02-1.24,1.67-2.21,1.84-1.72.29-2.9-.27-3.87-1.34-.98-1.06-1.69-2.63-2.22-4.37-.52-1.74-.84-3.62-1.14-5.21-.3-1.6-.52-2.85-.94-3.6-3.07-5.54-7.62-11.53-8.83-15.14-.07-.21-.33-.34-.55-.27-.22.07-.35.34-.29.55,1.32,3.94,5.89,9.82,8.92,15.26.25.45.52,1.77.82,3.36.3,1.59.66,3.49,1.2,5.29.55,1.8,1.27,3.5,2.39,4.72,1.13,1.21,2.69,1.91,4.64,1.58,1.27-.21,2.22-1.08,2.84-2.27.61-1.18.93-2.69,1.06-4.32.27-3.25-.23-6.97-1.04-9.49-1.26-3.91-2.97-9.35-4.86-14.33-1.89-4.98-3.92-9.52-6.03-11.75-.1-.11-.26-.16-.41-.13h0Zm0,0"/>
  <path class="cls-3" d="m53.96,127.03c-.08.02-.16.07-.21.13-2.11,2.23-4.17,6.75-6.06,11.75-1.89,4.98-3.6,10.39-4.85,14.29-.82,2.54-1.3,6.28-1.02,9.53.14,1.62.46,3.11,1.07,4.29.62,1.19,1.55,2.08,2.82,2.3,1.97.34,3.52-.36,4.65-1.57,1.12-1.22,1.86-2.92,2.41-4.73.55-1.8.88-3.69,1.17-5.28.3-1.59.58-2.91.83-3.36,3.02-5.46,7.6-11.32,8.91-15.27.11-.21-.01-.51-.25-.59-.23-.08-.51.09-.55.33-1.2,3.61-5.76,9.57-8.84,15.1-.42.75-.63,2.04-.93,3.63-.3,1.58-.64,3.43-1.18,5.17-.52,1.74-1.24,3.35-2.21,4.41-.97,1.05-2.16,1.59-3.86,1.3-.98-.16-1.68-.77-2.21-1.81-.54-1.03-.86-2.44-.99-4-.26-3.11.25-6.79,1.01-9.17,1.26-3.92,2.94-9.32,4.82-14.28,1.9-4.95,3.99-9.45,5.87-11.45.27-.26-.04-.81-.39-.72h0Zm0,0"/>
  <path d="m28.94,72.09c-.07,1.83-1.29,3.26-2.7,3.2-1.41-.06-2.5-1.6-2.42-3.42.09-1.83,1.3-3.26,2.7-3.2,1.42.06,2.5,1.59,2.42,3.42h0Zm0,0"/>
  <path d="m48.89,71.95c.16,1.82,1.43,3.2,2.85,3.07,1.41-.12,2.42-1.7,2.26-3.53-.17-1.82-1.44-3.19-2.85-3.07-1.42.13-2.43,1.7-2.26,3.52h0Zm0,0"/>
  <path class="cls-3" d="m41.68,80.1c-.23.01-.42.23-.39.45.01,1.16-.3,1.97-.73,2.48-.43.51-.97.75-1.52.75-1.11-.01-2.36-.99-2.45-3.18-.01-.23-.23-.42-.45-.39-.22.01-.41.23-.39.45.11,2.51,1.66,3.97,3.27,3.97.81.01,1.64-.36,2.22-1.06.58-.7.93-1.74.9-3.05,0-.23-.21-.44-.45-.41h0Zm0,0"/>
  <path class="cls-3" d="m38.98,83.89c-.2.04-.36.24-.34.45l.02,3.34c0,.23.2.43.43.43s.43-.2.43-.43l-.02-3.37c0-.25-.26-.47-.51-.42h0Zm0,0"/>
  <path class="cls-3" d="m39.01,87.25c-.16.04-.29.17-.32.32-.19.98-.83,1.56-1.4,1.7-.29.07-.56.04-.75-.08-.19-.12-.34-.31-.43-.71-.04-.23-.29-.39-.5-.35-.23.04-.39.29-.36.5.12.59.41,1.03.83,1.28s.92.3,1.38.19c.7-.18,1.26-.79,1.66-1.55.42.76,1.01,1.34,1.72,1.49.46.11.95.05,1.36-.21s.7-.71.8-1.31c.08-.23-.09-.52-.34-.56-.25-.05-.5.18-.49.43-.07.41-.24.6-.43.73-.19.12-.43.16-.73.11-.57-.13-1.26-.68-1.49-1.66-.05-.21-.3-.37-.51-.32h0Zm0,0"/>
  <path class="cls-1" d="m40.27,152.58c2.54,5.6,1.73,16.15-2.19,16.69-5.53.75-7.27-9.78-7.77-13.84,2.62-2.91,7.16-3.4,9.96-2.85h0Zm0,0"/>
  <path class="cls-1" d="m43.49,152.65c-2.54,5.6-1.73,16.16,2.19,16.7,5.53.75,7.27-9.78,7.77-13.84-2.62-2.91-7.16-3.39-9.96-2.86h0Zm0,0"/>
</svg>