<?xml version="1.0" encoding="UTF-8"?>
<svg id="eleven" xmlns="http://www.w3.org/2000/svg" viewBox="0 0 64.32 143.35">
  <defs>
    <style>
      .cls-1 {
        fill: #999;
      }

      .cls-2 {
        fill: #666;
      }

      .cls-3 {
        fill: #c6c6c6;
      }
    </style>
  </defs>
  <path class="cls-1" d="m56.59,132.29c11.25-15.21,8.5-25.45,2.62-47.81.38-7.9-3.63-14.04-6.21-19.74,1.92-15.68-6.49-22.8-6.78-27.04,8.77-6.73,18.64-23.48,9.22-37.71-15.33,4.43-16.41,21.6-19.15,30.68-2-1.73-7.02-1.49-9.18-.26C25.86,21.81,21.34,3.41,5.37.64c-6.13,18.27,4.05,31.68,11.24,36.81-.25,5.85-7.88,11.73-6.29,26.97-2.51,4.32-6.46,12.82-4.88,22.48-5.87,22.13-9.02,30.26,1.3,44.62-5.69,17.83,8.57,12.39,12.15,2.06,5.61.66,19.46,1.32,25.07-.56,3.9,11.19,18.34,16.45,12.63-.72h0Zm0,0"/>
  <path class="cls-3" d="m19.66,38.19c-3.94-.16-5.21,7.12-1.03,7.78,5.01.8,5.73-7.6,1.03-7.78h0Zm0,0"/>
  <path class="cls-3" d="m43,38.83c3.94-.14,5.21,7.12,1.04,7.79-5.03.8-5.74-7.61-1.04-7.79h0Zm0,0"/>
  <path class="cls-3" d="m14.67,64.56c3.44,3.31,9.02,5.4,13.82,5.4-6.07,2.99-13.08-.96-13.82-5.4h0Zm0,0"/>
  <path class="cls-3" d="m48.77,64.65c-3.43,3.31-9.02,5.39-13.8,5.39,6.06,3,13.07-.95,13.8-5.39h0Zm0,0"/>
  <path d="m21.83,42.74c-.4,1.69-1.82,2.8-3.16,2.47-1.33-.32-2.09-1.95-1.68-3.63.4-1.69,1.82-2.8,3.16-2.48,1.33.32,2.08,1.95,1.68,3.64h0Zm0,0"/>
  <path d="m40.94,43.26c.41,1.69,1.82,2.8,3.16,2.47,1.34-.32,2.09-1.95,1.68-3.63-.41-1.69-1.82-2.8-3.16-2.48-1.34.32-2.09,1.95-1.68,3.64h0Zm0,0"/>
  <path class="cls-2" d="m34.22,48.41c-.17.03-.3.18-.32.34-.18,1.11-.52,1.93-.9,2.43-.38.5-.8.69-1.18.69s-.8-.23-1.19-.73c-.41-.49-.76-1.29-.96-2.37-.05-.23-.29-.39-.51-.35-.21.04-.38.29-.34.51.23,1.18.63,2.1,1.16,2.74.51.64,1.18,1.04,1.86,1.05.69,0,1.34-.39,1.84-1.05.5-.64.87-1.56,1.06-2.77.06-.27-.23-.56-.5-.5h0Zm0,0"/>
  <path class="cls-2" d="m31.71,51.87c-.2.04-.36.25-.35.45l.13,2.48c.02.23.24.42.47.41.21-.01.41-.23.39-.45l-.13-2.48c-.01-.25-.26-.45-.51-.41h0Zm0,0"/>
  <path class="cls-2" d="m31.85,54.37c-.14.03-.27.14-.32.27-.25.57-1.26,1.27-2.04,1.47-.38.09-.66.06-.74,0-.05-.02-.06-.06-.08-.16-.02-.11-.02-.26.05-.51.13-.23,0-.54-.25-.61-.24-.07-.52.12-.55.37-.1.33-.13.63-.07.91.05.27.18.54.39.69.43.31.95.3,1.46.17.86-.21,1.68-.83,2.22-1.57.61.72,1.55,1.29,2.49,1.49.55.12,1.11.13,1.55-.22.22-.16.35-.43.39-.71.05-.3.02-.62-.08-.99-.06-.21-.31-.36-.52-.3-.23.06-.36.32-.3.54.09.29.1.46.09.58-.02.12-.06.18-.11.22-.11.08-.43.14-.86.06-.84-.19-1.96-.94-2.26-1.48-.09-.16-.29-.24-.45-.21h0Zm0,0"/>
  <path class="cls-2" d="m43.19,75.33c-.07.01-.14.03-.19.08-.82.56-2.16,1.87-3.63,3.64-1.48,1.79-3.08,4.02-4.37,6.36-1.29,2.34-2.24,4.79-2.41,7.04-.16,2.25.52,4.35,2.54,5.71,1.3.88,2.55,1.11,3.66.88,1.11-.23,2.09-.88,2.93-1.68,1.71-1.59,3.09-3.81,4.19-4.67,3.04-2.35,4.72-5.55,8.65-6.86.21-.07.34-.33.26-.56-.07-.21-.34-.33-.56-.26-4.25,1.42-6.03,4.81-8.89,7.02-1.37,1.06-2.66,3.25-4.24,4.73-.79.74-1.62,1.29-2.5,1.46-.89.18-1.87.01-3.02-.77-1.76-1.2-2.32-2.9-2.18-4.95.14-2.04,1.07-4.38,2.32-6.67,1.25-2.27,2.85-4.47,4.29-6.21,1.45-1.75,2.8-3.09,3.44-3.52.31-.22.08-.82-.29-.77h0Zm0,0"/>
  <path class="cls-2" d="m19.54,75.86c-.37.06-.41.72-.06.82,5.25,1.99,10.27,6.4,11.21,10.28.36,1.43,1.16,3.43,1.31,5.25.09.91-.02,1.74-.34,2.43-.32.68-.88,1.25-1.89,1.62-1.38.51-2.55.18-3.85-.61-1.29-.79-2.64-2.06-4.18-3.4-3.36-2.91-6.26-2.94-9.16-4.43-.19-.13-.5-.06-.62.16-.12.21,0,.51.23.59,3.09,1.59,5.82,1.57,9,4.32,1.51,1.32,2.87,2.63,4.29,3.49,1.42.87,2.94,1.27,4.59.67,1.19-.43,1.96-1.17,2.38-2.05s.49-1.88.39-2.88c-.17-2-.98-4.07-1.3-5.38-1.07-4.4-6.29-8.79-11.74-10.86-.07-.03-.16-.05-.24-.02h0Zm0,0"/>
  <path class="cls-3" d="m19.04,133.49c-2.46-12.83.39-31.93,12.94-32.1,12.53-.17,14.26,19.56,12.02,31.73-8.59,1.69-16.38,1.61-24.96.37h0Zm0,0"/>
</svg>