<?xml version="1.0" encoding="utf-8"?>
<!-- Generator: Adobe Illustrator 27.2.0, SVG Export Plug-In . SVG Version: 6.00 Build 0)  -->
<svg version="1.1" id="Layer_1" xmlns="http://www.w3.org/2000/svg" xmlns:xlink="http://www.w3.org/1999/xlink" x="0px" y="0px"
	 viewBox="0 0 48.9 38.6" style="enable-background:new 0 0 48.9 38.6;" xml:space="preserve">
<style type="text/css">
	.st0{fill-rule:evenodd;clip-rule:evenodd;fill:#FBE407;}
</style>
<path class="st0" d="M47,10.1c2.9-4.5,2.4-8.3-0.9-9.5s-6.9-0.4-10.3,3.9c-1.2,1.5-5.3,9.1-7.3,17c-1.1,4.1-1.6,8.2-1.7,11.3
	c-0.5,0-1.1-0.1-1.6-0.1c-1.1,0-2.1,0.1-3.1,0.2c-0.1-3.1-0.6-7.3-1.7-11.5c-2-7.8-6.1-15.4-7.3-17c-3.4-4.3-7-5.2-10.3-3.9
	C-0.5,1.7-1,5.5,1.9,10c1,1.5,5.9,7.3,9.9,14.5c2,3.6,3.8,7.1,5.3,9.7c-2.4,1-4.6,2.5-6.3,4.3c4.1-1.7,9-2.7,14.3-2.7
	s10.6,1,14.7,2.8c-2.2-2.2-4.8-3.8-7.8-4.9c1.5-2.5,3.2-5.9,5-9.2C41.1,17.4,46,11.6,47,10.1L47,10.1z"/>
</svg>
