<?xml version="1.0" encoding="UTF-8"?>
<svg xmlns="http://www.w3.org/2000/svg" viewBox="0 0 1493.06 250">
  <defs>
    <style>
      .cls-1 {
        fill: none;
      }

      .cls-2 {
        fill: #a4d342;
      }
    </style>
  </defs>
  <g id="Layer_3" data-name="Layer 3">
    <rect class="cls-1" x="1.16" width="1490" height="250"/>
  </g>
  <g id="grass">
    <path class="cls-2" d="m864.02,250c0-7.64,1.22-33.42,8.04-39.65-9.56,2.77-15.42,16.57-14.92,21.72-1.76-8.26-5.49-17.93-11.78-21.72,3.99,6.23,6.26,11.93,6.26,20.15-6.69-4.08-5.95-8.84-14.51-10.26,3.85,2.49,6.74,6,7.02,10.56-1.33-1.37-3.71-3.59-7.41-5.83,1.03,2.43,3.99,4.84,3.6,6.83-3.01-1.07-6.54-.17-8.49-.49-1.14-5.48,2.68-11.53,5.67-17-4.1,4.23-9.4,10.92-10.46,17.25-2.53-5-5.87-10.25-14.29-18.44,5.71,8.01,8.54,14.21,9.97,18.54-3.24-3.01-6.74-5.41-12.72-7.48,3.66,3.81,5.37,5.66,6.89,7.58-8.81.2-11.33-3.59-13.57-10.35-.69,3.29.22,7.38,1.62,9.72-7.04-1.93-4.46-11.23-.45-14.46-5.33,2.35-7.71,8.89-5.79,14.71-2.02-1.07-3.84.03-5.94-.32-.64-6.01,5.02-16.16,8.59-16.75-6.49,2-9.81,10-11.78,15.96-2.91-3.13-5.59-7.21-15.71-10.84,7.69,4.53,13.25,24.92,15.12,30.57h75.02Zm0,0"/>
    <path class="cls-2" d="m937.9,250c0-7.64,1.22-33.42,8.04-39.65-9.56,2.77-15.42,16.57-14.92,21.72-1.76-8.26-5.49-17.93-11.78-21.72,3.99,6.23,6.26,11.93,6.26,20.15-6.69-4.08-5.95-8.84-14.51-10.26,3.85,2.49,6.74,6,7.02,10.56-1.33-1.37-3.71-3.59-7.41-5.83,1.03,2.43,3.99,4.84,3.6,6.83-3.01-1.07-6.54-.17-8.49-.49-1.14-5.48,2.68-11.53,5.67-17-4.1,4.23-9.4,10.92-10.46,17.25-2.53-5-5.87-10.25-14.29-18.44,5.71,8.01,8.54,14.21,9.97,18.54-3.24-3.01-6.74-5.41-12.72-7.48,3.66,3.81,5.37,5.66,6.89,7.58-8.81.2-11.33-3.59-13.57-10.35-.69,3.29.22,7.38,1.62,9.72-7.04-1.93-4.46-11.23-.45-14.46-5.33,2.35-7.71,8.89-5.79,14.71-2.02-1.07-3.84.03-5.94-.32-.64-6.01,5.02-16.16,8.59-16.75-6.49,2-9.81,10-11.78,15.96-2.91-3.13-5.59-7.21-15.71-10.84,7.69,4.53,13.25,24.92,15.12,30.57h75.02Zm0,0"/>
    <path class="cls-2" d="m1023.31,250c0-7.64,1.41-33.42,9.3-39.65-11.07,2.77-17.84,16.57-17.27,21.72-2.03-8.26-6.36-17.93-13.64-21.72,4.62,6.23,7.25,11.93,7.25,20.15-7.74-4.08-6.89-8.84-16.79-10.26,4.46,2.49,7.8,6,8.12,10.56-1.54-1.37-4.29-3.59-8.57-5.83,1.19,2.43,4.62,4.84,4.17,6.83-3.49-1.07-7.57-.17-9.83-.49-1.32-5.48,3.11-11.53,6.57-17-4.75,4.23-10.88,10.92-12.1,17.25-2.93-5-6.79-10.25-16.53-18.44,6.61,8.01,9.88,14.21,11.54,18.54-3.75-3.01-7.8-5.41-14.72-7.48,4.24,3.81,6.21,5.66,7.98,7.58-10.2.2-13.12-3.59-15.7-10.35-.8,3.29.26,7.38,1.88,9.72-8.14-1.93-5.16-11.23-.52-14.46-6.17,2.35-8.93,8.89-6.7,14.71-2.34-1.07-4.44.03-6.88-.32-.74-6.01,5.81-16.16,9.94-16.75-7.51,2-11.35,10-13.64,15.96-3.37-3.13-6.47-7.21-18.18-10.84,8.9,4.53,15.33,24.92,17.49,30.57h86.83Zm0,0"/>
    <path class="cls-2" d="m1105.77,250c0-7.64,1.41-33.42,9.3-39.65-11.07,2.77-17.84,16.57-17.27,21.72-2.03-8.26-6.36-17.93-13.64-21.72,4.62,6.23,7.25,11.93,7.25,20.15-7.74-4.08-6.89-8.84-16.79-10.26,4.46,2.49,7.8,6,8.12,10.56-1.54-1.37-4.29-3.59-8.57-5.83,1.19,2.43,4.62,4.84,4.17,6.83-3.49-1.07-7.57-.17-9.83-.49-1.32-5.48,3.11-11.53,6.57-17-4.75,4.23-10.88,10.92-12.1,17.25-2.93-5-6.79-10.25-16.53-18.44,6.61,8.01,9.88,14.21,11.54,18.54-3.75-3.01-7.8-5.41-14.72-7.48,4.24,3.81,6.21,5.66,7.98,7.58-10.2.2-13.12-3.59-15.7-10.35-.8,3.29.26,7.38,1.88,9.72-8.14-1.93-5.16-11.23-.52-14.46-6.17,2.35-8.93,8.89-6.7,14.71-2.34-1.07-4.44.03-6.88-.32-.74-6.01,5.81-16.16,9.94-16.75-7.51,2-11.35,10-13.64,15.96-3.37-3.13-6.47-7.21-18.18-10.84,8.9,4.53,15.33,24.92,17.49,30.57h86.83Zm0,0"/>
    <path class="cls-2" d="m1180.74,250c0-7.64,1.41-33.42,9.3-39.65-11.07,2.77-17.84,16.57-17.27,21.72-2.03-8.26-6.36-17.93-13.64-21.72,4.62,6.23,7.25,11.93,7.25,20.15-7.74-4.08-6.89-8.84-16.79-10.26,4.46,2.49,7.8,6,8.12,10.56-1.54-1.37-4.29-3.59-8.57-5.83,1.19,2.43,4.62,4.84,4.17,6.83-3.49-1.07-7.57-.17-9.83-.49-1.32-5.48,3.11-11.53,6.57-17-4.75,4.23-10.88,10.92-12.1,17.25-2.93-5-6.79-10.25-16.53-18.44,6.61,8.01,9.88,14.21,11.54,18.54-3.75-3.01-7.8-5.41-14.72-7.48,4.24,3.81,6.21,5.66,7.98,7.58-10.2.2-13.12-3.59-15.7-10.35-.8,3.29.26,7.38,1.88,9.72-8.14-1.93-5.16-11.23-.52-14.46-6.17,2.35-8.93,8.89-6.7,14.71-2.34-1.07-4.44.03-6.88-.32-.74-6.01,5.81-16.16,9.94-16.75-7.51,2-11.35,10-13.64,15.96-3.37-3.13-6.47-7.21-18.18-10.84,8.9,4.53,15.33,24.92,17.49,30.57h86.83Zm0,0"/>
    <path class="cls-2" d="m1258.21,250c0-7.64,1.41-33.42,9.3-39.65-11.07,2.77-17.84,16.57-17.27,21.72-2.03-8.26-6.36-17.93-13.64-21.72,4.62,6.23,7.25,11.93,7.25,20.15-7.74-4.08-6.89-8.84-16.79-10.26,4.46,2.49,7.8,6,8.12,10.56-1.54-1.37-4.29-3.59-8.57-5.83,1.19,2.43,4.62,4.84,4.17,6.83-3.49-1.07-7.57-.17-9.83-.49-1.32-5.48,3.11-11.53,6.57-17-4.75,4.23-10.88,10.92-12.1,17.25-2.93-5-6.79-10.25-16.53-18.44,6.61,8.01,9.88,14.21,11.54,18.54-3.75-3.01-7.8-5.41-14.72-7.48,4.24,3.81,6.21,5.66,7.98,7.58-10.2.2-13.12-3.59-15.7-10.35-.8,3.29.26,7.38,1.88,9.72-8.14-1.93-5.16-11.23-.52-14.46-6.17,2.35-8.93,8.89-6.7,14.71-2.34-1.07-4.44.03-6.88-.32-.74-6.01,5.81-16.16,9.94-16.75-7.51,2-11.35,10-13.64,15.96-3.37-3.13-6.47-7.21-18.18-10.84,8.9,4.53,15.33,24.92,17.49,30.57h86.83Zm0,0"/>
    <path class="cls-2" d="m1280.7,250c0-7.64,1.41-33.42,9.3-39.65-11.07,2.77-17.84,16.57-17.27,21.72-2.03-8.26-6.36-17.93-13.64-21.72,4.62,6.23,7.25,11.93,7.25,20.15-7.74-4.08-6.89-8.84-16.79-10.26,4.46,2.49,7.8,6,8.12,10.56-1.54-1.37-4.29-3.59-8.57-5.83,1.19,2.43,4.62,4.84,4.17,6.83-3.49-1.07-7.57-.17-9.83-.49-1.32-5.48,3.11-11.53,6.57-17-4.75,4.23-10.88,10.92-12.1,17.25-2.93-5-6.79-10.25-16.53-18.44,6.61,8.01,9.88,14.21,11.54,18.54-3.75-3.01-7.8-5.41-14.72-7.48,4.24,3.81,6.21,5.66,7.98,7.58-10.2.2-13.12-3.59-15.7-10.35-.8,3.29.26,7.38,1.88,9.72-8.14-1.93-5.16-11.23-.52-14.46-6.17,2.35-8.93,8.89-6.7,14.71-2.34-1.07-4.44.03-6.88-.32-.74-6.01,5.81-16.16,9.94-16.75-7.51,2-11.35,10-13.64,15.96-3.37-3.13-6.47-7.21-18.18-10.84,8.9,4.53,15.33,24.92,17.49,30.57h86.83Zm0,0"/>
    <path class="cls-2" d="m1308.83,250c0-7.64,1.41-33.42,9.3-39.65-11.07,2.77-17.84,16.57-17.27,21.72-2.03-8.26-6.36-17.93-13.64-21.72,4.62,6.23,7.25,11.93,7.25,20.15-7.74-4.08-6.89-8.84-16.79-10.26,4.46,2.49,7.8,6,8.12,10.56-1.54-1.37-4.29-3.59-8.57-5.83,1.19,2.43,4.62,4.84,4.17,6.83-3.49-1.07-7.57-.17-9.83-.49-1.32-5.48,3.11-11.53,6.57-17-4.75,4.23-10.88,10.92-12.1,17.25-2.93-5-6.79-10.25-16.53-18.44,6.61,8.01,9.88,14.21,11.54,18.54-3.75-3.01-7.8-5.41-14.72-7.48,4.24,3.81,6.21,5.66,7.98,7.58-10.2.2-13.12-3.59-15.7-10.35-.8,3.29.26,7.38,1.88,9.72-8.14-1.93-5.16-11.23-.52-14.46-6.17,2.35-8.93,8.89-6.7,14.71-2.34-1.07-4.44.03-6.88-.32-.74-6.01,5.81-16.16,9.94-16.75-7.51,2-11.35,10-13.64,15.96-3.37-3.13-6.47-7.21-18.18-10.84,8.9,4.53,15.33,24.92,17.49,30.57h86.83Zm0,0"/>
    <path class="cls-2" d="m1404.28,250c0-7.64,1.69-33.42,11.13-39.65-13.24,2.77-21.34,16.57-20.66,21.72-2.43-8.26-7.61-17.93-16.31-21.72,5.53,6.23,8.67,11.93,8.67,20.15-9.26-4.08-8.24-8.84-20.09-10.26,5.33,2.49,9.33,6,9.72,10.56-1.84-1.37-5.13-3.59-10.26-5.83,1.43,2.43,5.53,4.84,4.99,6.83-4.17-1.07-9.06-.17-11.76-.49-1.58-5.48,3.72-11.53,7.86-17-5.68,4.23-13.02,10.92-14.48,17.25-3.51-5-8.12-10.25-19.78-18.44,7.91,8.01,11.82,14.21,13.81,18.54-4.49-3.01-9.34-5.41-17.61-7.48,5.07,3.81,7.43,5.66,9.54,7.58-12.2.2-15.69-3.59-18.78-10.35-.95,3.29.31,7.38,2.24,9.72-9.74-1.93-6.17-11.23-.62-14.46-7.38,2.35-10.68,8.89-8.01,14.71-2.8-1.07-5.31.03-8.23-.32-.89-6.01,6.95-16.16,11.89-16.75-8.98,2-13.58,10-16.31,15.96-4.03-3.13-7.74-7.21-21.75-10.84,10.64,4.53,18.34,24.92,20.93,30.57h103.87Zm0,0"/>
    <path class="cls-2" d="m1483.76,250c0-7.64,1.41-33.42,9.3-39.65-11.07,2.77-17.84,16.57-17.27,21.72-2.03-8.26-6.36-17.93-13.64-21.72,4.62,6.23,7.25,11.93,7.25,20.15-7.74-4.08-6.89-8.84-16.79-10.26,4.46,2.49,7.8,6,8.12,10.56-1.54-1.37-4.29-3.59-8.57-5.83,1.19,2.43,4.62,4.84,4.17,6.83-3.49-1.07-7.57-.17-9.83-.49-1.32-5.48,3.11-11.53,6.57-17-4.75,4.23-10.88,10.92-12.1,17.25-2.93-5-6.79-10.25-16.53-18.44,6.61,8.01,9.88,14.21,11.54,18.54-3.75-3.01-7.8-5.41-14.72-7.48,4.24,3.81,6.21,5.66,7.98,7.58-10.2.2-13.12-3.59-15.7-10.35-.8,3.29.26,7.38,1.88,9.72-8.14-1.93-5.16-11.23-.52-14.46-6.17,2.35-8.93,8.89-6.7,14.71-2.34-1.07-4.44.03-6.88-.32-.74-6.01,5.81-16.16,9.94-16.75-7.51,2-11.35,10-13.64,15.96-3.37-3.13-6.47-7.21-18.18-10.84,8.9,4.53,15.33,24.92,17.49,30.57h86.83Zm0,0"/>
    <path class="cls-2" d="m141.8,250c0-7.64,1.41-33.42,9.3-39.65-11.07,2.77-17.84,16.57-17.27,21.72-2.03-8.26-6.36-17.93-13.64-21.72,4.62,6.23,7.25,11.93,7.25,20.15-7.74-4.08-6.89-8.84-16.79-10.26,4.46,2.49,7.8,6,8.12,10.56-1.54-1.37-4.29-3.59-8.57-5.83,1.19,2.43,4.62,4.84,4.17,6.83-3.49-1.07-7.57-.17-9.83-.49-1.32-5.48,3.11-11.53,6.57-17-4.75,4.23-10.88,10.92-12.1,17.25-2.93-5-6.79-10.25-16.53-18.44,6.61,8.01,9.88,14.21,11.54,18.54-3.75-3.01-7.8-5.41-14.72-7.48,4.24,3.81,6.21,5.66,7.98,7.58-10.2.2-13.12-3.59-15.7-10.35-.8,3.29.26,7.38,1.88,9.72-8.14-1.93-5.16-11.23-.52-14.46-6.17,2.35-8.93,8.89-6.7,14.71-2.34-1.07-4.44.03-6.88-.32-.74-6.01,5.81-16.16,9.94-16.75-7.51,2-11.35,10-13.64,15.96-3.37-3.13-6.47-7.21-18.18-10.84,8.9,4.53,15.33,24.92,17.49,30.57h86.83Zm0,0"/>
    <path class="cls-2" d="m104.32,250c0-7.64,1.41-33.42,9.3-39.65-11.07,2.77-17.84,16.57-17.27,21.72-2.03-8.26-6.36-17.93-13.64-21.72,4.62,6.23,7.25,11.93,7.25,20.15-7.74-4.08-6.89-8.84-16.79-10.26,4.46,2.49,7.8,6,8.12,10.56-1.54-1.37-4.29-3.59-8.57-5.83,1.19,2.43,4.62,4.84,4.17,6.83-3.49-1.07-7.57-.17-9.83-.49-1.32-5.48,3.11-11.53,6.57-17-4.75,4.23-10.88,10.92-12.1,17.25-2.93-5-6.79-10.25-16.53-18.44,6.61,8.01,9.88,14.21,11.54,18.54-3.75-3.01-7.8-5.41-14.72-7.48,4.24,3.81,6.21,5.66,7.98,7.58-10.2.2-13.12-3.59-15.7-10.35-.8,3.29.26,7.38,1.88,9.72-8.14-1.93-5.16-11.23-.52-14.46-6.17,2.35-8.93,8.89-6.7,14.71-2.34-1.07-4.44.03-6.88-.32-.74-6.01,5.81-16.16,9.94-16.75-7.51,2-11.35,10-13.64,15.96-3.37-3.13-6.47-7.21-18.18-10.84,8.9,4.53,15.33,24.92,17.49,30.57h86.83Zm0,0"/>
    <path class="cls-2" d="m229.94,250c0-7.64,1.41-33.42,9.3-39.65-11.07,2.77-17.84,16.57-17.27,21.72-2.03-8.26-6.36-17.93-13.64-21.72,4.62,6.23,7.25,11.93,7.25,20.15-7.74-4.08-6.89-8.84-16.79-10.26,4.46,2.49,7.8,6,8.12,10.56-1.54-1.37-4.29-3.59-8.57-5.83,1.19,2.43,4.62,4.84,4.17,6.83-3.49-1.07-7.57-.17-9.83-.49-1.32-5.48,3.11-11.53,6.57-17-4.75,4.23-10.88,10.92-12.1,17.25-2.93-5-6.79-10.25-16.53-18.44,6.61,8.01,9.88,14.21,11.54,18.54-3.75-3.01-7.8-5.41-14.72-7.48,4.24,3.81,6.21,5.66,7.98,7.58-10.2.2-13.12-3.59-15.7-10.35-.8,3.29.26,7.38,1.88,9.72-8.14-1.93-5.16-11.23-.52-14.46-6.17,2.35-8.93,8.89-6.7,14.71-2.34-1.07-4.44.03-6.88-.32-.74-6.01,5.81-16.16,9.94-16.75-7.51,2-11.35,10-13.64,15.96-3.37-3.13-6.47-7.21-18.18-10.84,8.9,4.53,15.33,24.92,17.49,30.57h86.83Zm0,0"/>
    <path class="cls-2" d="m711.3,250c0-7.64-5.62-33.42-12.43-39.65,9.56,2.77,15.41,16.57,14.92,21.72,1.76-8.26,5.49-17.93,11.78-21.72-3.99,6.23-6.27,11.93-6.27,20.15,6.69-4.08,5.95-8.84,14.51-10.26-3.85,2.49-6.73,6-7.02,10.56,1.33-1.37,3.72-3.59,7.41-5.83-1.03,2.43-3.99,4.84-3.6,6.83,3.01-1.07,6.54-.17,8.49-.49,1.15-5.48-2.68-11.53-5.67-17,4.11,4.23,9.41,10.92,10.46,17.25,2.53-5,5.87-10.25,14.29-18.44-5.7,8.01-8.54,14.21-9.97,18.54,3.24-3.01,6.74-5.41,12.71-7.48-3.66,3.81-5.36,5.66-6.89,7.58,8.82.2,11.33-3.59,13.57-10.35.69,3.29-.22,7.38-1.62,9.72,7.04-1.93,4.46-11.23.44-14.46,5.33,2.35,7.72,8.89,5.79,14.71,2.03-1.07,3.84.03,5.94-.32.64-6.01-5.02-16.16-8.59-16.75,6.5,2,9.81,10,11.78,15.96,2.91-3.13,5.59-7.21,15.71-10.84-7.69,4.53-14.2,24.92-16.07,30.57h-69.67Zm0,0"/>
    <path class="cls-2" d="m628.24,250c0-7.64-2.94-33.42-9.75-39.65,9.56,2.77,15.41,16.57,14.92,21.72,1.76-8.26,5.49-17.93,11.78-21.72-3.99,6.23-6.27,11.93-6.27,20.15,6.69-4.08,5.95-8.84,14.51-10.26-3.85,2.49-6.73,6-7.02,10.56,1.33-1.37,3.72-3.59,7.41-5.83-1.03,2.43-3.99,4.84-3.6,6.83,3.01-1.07,6.54-.17,8.49-.49,1.15-5.48-2.68-11.53-5.67-17,4.11,4.23,9.41,10.92,10.46,17.25,2.53-5,5.87-10.25,14.29-18.44-5.7,8.01-8.54,14.21-9.97,18.54,3.24-3.01,6.74-5.41,12.71-7.48-3.66,3.81-5.36,5.66-6.89,7.58,8.82.2,11.33-3.59,13.57-10.35.69,3.29-.22,7.38-1.62,9.72,7.04-1.93,4.46-11.23.44-14.46,5.33,2.35,7.72,8.89,5.79,14.71,2.03-1.07,3.84.03,5.94-.32.64-6.01-5.02-16.16-8.59-16.75,6.5,2,9.81,10,11.78,15.96,2.91-3.13,5.59-7.21,15.71-10.84-7.69,4.53-11.53,24.92-13.4,30.57h-75.02Zm0,0"/>
    <path class="cls-2" d="m620.2,250c0-7.64,3.89-33.42,10.71-39.65-9.56,2.77-15.42,16.57-14.92,21.72-1.76-8.26-5.49-17.93-11.78-21.72,3.99,6.23,6.26,11.93,6.26,20.15-6.69-4.08-5.95-8.84-14.51-10.26,3.85,2.49,6.74,6,7.02,10.56-1.33-1.37-3.71-3.59-7.41-5.83,1.03,2.43,3.99,4.84,3.6,6.83-3.01-1.07-6.54-.17-8.49-.49-1.14-5.48,2.69-11.53,5.67-17-4.1,4.23-9.4,10.92-10.46,17.25-2.53-5-5.87-10.25-14.29-18.44,5.71,8.01,8.54,14.21,9.97,18.54-3.24-3.01-6.74-5.41-12.72-7.48,3.66,3.81,5.37,5.66,6.89,7.58-8.81.2-11.33-3.59-13.57-10.35-.69,3.29.22,7.38,1.62,9.72-7.04-1.93-4.46-11.23-.45-14.46-5.33,2.35-7.71,8.89-5.79,14.71-2.02-1.07-3.84.03-5.94-.32-.64-6.01,5.02-16.16,8.59-16.75-6.49,2-9.81,10-11.78,15.96-2.91-3.13-5.59-7.21-15.71-10.84,7.69,4.53,13.25,24.92,15.12,30.57h72.34Zm0,0"/>
    <path class="cls-2" d="m470.15,250c0-7.64-5.62-33.42-12.43-39.65,9.56,2.77,15.41,16.57,14.92,21.72,1.76-8.26,5.49-17.93,11.78-21.72-3.99,6.23-6.27,11.93-6.27,20.15,6.69-4.08,5.95-8.84,14.51-10.26-3.85,2.49-6.73,6-7.02,10.56,1.33-1.37,3.72-3.59,7.41-5.83-1.03,2.43-3.99,4.84-3.6,6.83,3.01-1.07,6.54-.17,8.49-.49,1.15-5.48-2.68-11.53-5.67-17,4.11,4.23,9.41,10.92,10.46,17.25,2.53-5,5.87-10.25,14.29-18.44-5.7,8.01-8.54,14.21-9.97,18.54,3.24-3.01,6.74-5.41,12.71-7.48-3.66,3.81-5.36,5.66-6.89,7.58,8.82.2,11.33-3.59,13.57-10.35.69,3.29-.22,7.38-1.62,9.72,7.04-1.93,4.46-11.23.44-14.46,5.33,2.35,7.72,8.89,5.79,14.71,2.03-1.07,3.84.03,5.94-.32.64-6.01-5.02-16.16-8.59-16.75,6.5,2,9.81,10,11.78,15.96,2.91-3.13,5.59-7.21,15.71-10.84-7.69,4.53-14.2,24.92-16.07,30.57h-69.67Zm0,0"/>
    <path class="cls-2" d="m386.08,250c0-7.64-2.97-33.42-9.87-39.65,9.67,2.77,15.59,16.57,15.09,21.72,1.78-8.26,5.56-17.93,11.92-21.72-4.04,6.23-6.34,11.93-6.34,20.15,6.77-4.08,6.02-8.84,14.68-10.26-3.89,2.49-6.81,6-7.1,10.56,1.35-1.37,3.76-3.59,7.5-5.83-1.05,2.43-4.04,4.84-3.65,6.83,3.05-1.07,6.62-.17,8.59-.49,1.17-5.48-2.71-11.53-5.74-17,4.15,4.23,9.52,10.92,10.58,17.25,2.56-5,5.94-10.25,14.45-18.44-5.77,8.01-8.64,14.21-10.08,18.54,3.27-3.01,6.82-5.41,12.86-7.48-3.71,3.81-5.42,5.66-6.97,7.58,8.92.2,11.46-3.59,13.73-10.35.69,3.29-.23,7.38-1.63,9.72,7.12-1.93,4.51-11.23.45-14.46,5.39,2.35,7.81,8.89,5.85,14.71,2.06-1.07,3.88.03,6.01-.32.65-6.01-5.08-16.16-8.69-16.75,6.57,2,9.92,10,11.92,15.96,2.94-3.13,5.65-7.21,15.89-10.84-7.77,4.53-11.66,24.92-13.55,30.57h-75.89Zm0,0"/>
    <path class="cls-2" d="m382.7,250c0-7.64,2.94-33.42,9.76-39.65-9.56,2.77-15.42,16.57-14.92,21.72-1.76-8.26-5.5-17.93-11.78-21.72,3.99,6.23,6.26,11.93,6.26,20.15-6.69-4.08-5.94-8.84-14.5-10.26,3.85,2.49,6.73,6,7.02,10.56-1.33-1.37-3.71-3.59-7.42-5.83,1.03,2.43,4,4.84,3.61,6.83-3.02-1.07-6.55-.17-8.49-.49-1.15-5.48,2.68-11.53,5.67-17-4.11,4.23-9.41,10.92-10.45,17.25-2.54-5-5.88-10.25-14.29-18.44,5.7,8.01,8.53,14.21,9.97,18.54-3.25-3.01-6.74-5.41-12.72-7.48,3.67,3.81,5.37,5.66,6.9,7.58-8.82.2-11.34-3.59-13.58-10.35-.69,3.29.22,7.38,1.62,9.72-7.04-1.93-4.46-11.23-.44-14.46-5.33,2.35-7.72,8.89-5.79,14.71-2.03-1.07-3.83.03-5.94-.32-.64-6.01,5.01-16.16,8.59-16.75-6.5,2-9.81,10-11.78,15.96-2.91-3.13-5.6-7.21-15.71-10.84,7.69,4.53,11.53,24.92,13.4,30.57h75.03Zm0,0"/>
    <path class="cls-2" d="m296.39,250c0-7.64,2.94-33.42,9.76-39.65-9.56,2.77-15.42,16.57-14.92,21.72-1.76-8.26-5.5-17.93-11.78-21.72,3.99,6.23,6.26,11.93,6.26,20.15-6.69-4.08-5.94-8.84-14.5-10.26,3.85,2.49,6.73,6,7.02,10.56-1.33-1.37-3.71-3.59-7.42-5.83,1.03,2.43,4,4.84,3.61,6.83-3.02-1.07-6.55-.17-8.49-.49-1.15-5.48,2.68-11.53,5.67-17-4.11,4.23-9.41,10.92-10.45,17.25-2.54-5-5.88-10.25-14.29-18.44,5.7,8.01,8.53,14.21,9.97,18.54-3.25-3.01-6.74-5.41-12.72-7.48,3.67,3.81,5.37,5.66,6.9,7.58-8.82.2-11.34-3.59-13.58-10.35-.69,3.29.22,7.38,1.62,9.72-7.04-1.93-4.46-11.23-.44-14.46-5.33,2.35-7.72,8.89-5.79,14.71-2.03-1.07-3.83.03-5.94-.32-.64-6.01,5.01-16.16,8.59-16.75-6.5,2-9.81,10-11.78,15.96-2.91-3.13-5.6-7.21-15.71-10.84,7.69,4.53,11.53,24.92,13.4,30.57h75.03Zm0,0"/>
    <rect class="cls-2" x="778.28" y="231.13" width="13.4" height="18.87"/>
    <rect class="cls-2" x="700.58" y="231.13" width="13.4" height="18.87"/>
    <path class="cls-2" d="m617.52,250h13.4v-18.87c-4.09-2.88-11.29-1.02-13.4,0v18.87Zm0,0"/>
    <path class="cls-2" d="m537.14,250h13.4v-18.87c-2.19.47-12.7,1.39-13.4,0v18.87Zm0,0"/>
    <path class="cls-2" d="m459.44,250h13.4v-16.18c-1.06-4.81-12.41-1.19-13.4-2.69v18.87Zm0,0"/>
    <path class="cls-2" d="m381.74,250h8.04c2.4-7.75-8.9-24.82-8.04-16.18v16.18Zm0,0"/>
    <path class="cls-2" d="m296,250h13.4v-16.18c-3.04-2.42-10.38-4.35-13.4-2.69v18.87Zm0,0"/>
  </g>
</svg>