<?xml version="1.0" encoding="UTF-8"?>
<svg id="Layer_1" data-name="Layer 1" xmlns="http://www.w3.org/2000/svg" viewBox="0 0 232.83 62.56">
  <defs>
    <style>
      .cls-1 {
        fill: #fff;
      }
    </style>
  </defs>
  <path class="cls-1" d="m27.46,53.03c.38,0,.7.31.7.7v7.92c0,.38-.31.7-.7.7h-3.21c-.38,0-1.01-.03-1.39-.07,0,0-5.55-.54-8.41-1.76s-5.37-2.91-7.54-5.08c-2.16-2.16-3.86-4.67-5.08-7.54-1.22-2.86-1.83-5.9-1.83-9.11V3.48c0-.38.3-.79.66-.91L8.65.03c.36-.12.66.1.66.49v23.56c0,.38.31.7.7.7h17.45c.38,0,.7.31.7.7v7.92c0,.38-.31.7-.7.7H10.01c-.38,0-.7.31-.7.7v3.32c0,.38.03,1.01.07,1.39,0,0,.3,3.11,1.03,4.85.73,1.74,1.75,3.26,3.04,4.55,1.29,1.29,2.81,2.3,4.55,3.03,1.74.73,3.59,1.1,5.55,1.1h3.91Z"/>
  <path class="cls-1" d="m67.87,46.3c.27-.27.71-.27.98,0l5.61,5.61c.27.27.27.71,0,.99l-2.26,2.26c-.27.27-.73.69-1.03.94,0,0-4.24,3.5-7.11,4.68-2.86,1.19-5.86,1.78-9,1.78s-6.14-.59-9-1.78c-2.86-1.18-5.41-2.9-7.64-5.13-2.3-2.3-4.01-4.9-5.13-7.8s-1.67-5.84-1.67-8.85.56-5.93,1.67-8.79c1.12-2.86,2.83-5.44,5.13-7.75,2.3-2.3,4.9-4.03,7.8-5.18,2.9-1.15,5.85-1.73,8.85-1.73s5.95.58,8.85,1.73c2.89,1.15,5.5,2.88,7.8,5.18l2.75,2.75c.27.27.27.72,0,.99l-25.08,25.08c-.27.27-.19.59.17.71,0,0,4.8,1.55,7.76,1.09,2.97-.45,5.57-1.8,7.8-4.03l2.75-2.75Zm-22.85-17.35c-2.79,2.79-4.19,6.14-4.19,10.05,0,2.16.49,4.22,1.47,6.18.84-.84,2.11-2.11,3.82-3.82,1.71-1.71,3.52-3.52,5.44-5.45,1.92-1.92,3.77-3.75,5.55-5.5,1.78-1.74,3.16-3.1,4.13-4.08-2.65-1.33-5.46-1.78-8.43-1.36-2.96.42-5.57,1.74-7.8,3.98"/>
  <path class="cls-1" d="m79.94,29.75c1.22-2.82,2.9-5.3,5.03-7.43,2.13-2.13,4.63-3.8,7.49-5.02,2.86-1.22,5.9-1.83,9.12-1.83s6.34.61,9.17,1.83c2.83,1.22,5.33,2.9,7.49,5.02,2.16,2.13,3.86,4.61,5.08,7.43,1.22,2.83,1.83,5.88,1.83,9.16v22.85c0,.38-.31.7-.7.7h-7.92c-.38,0-.7-.32-.7-.7v-22.15c0-.38-.03-1.01-.07-1.39,0,0-.3-3.09-1.03-4.8-.73-1.71-1.75-3.21-3.04-4.5-1.29-1.29-2.81-2.3-4.56-3.03-1.75-.73-3.6-1.1-5.56-1.1s-3.79.37-5.51,1.1c-1.71.73-3.21,1.74-4.51,3.03-1.29,1.29-2.31,2.79-3.04,4.5-.73,1.71-1.1,3.54-1.1,5.5v22.85c0,.38-.31.7-.7.7h-7.92c-.38,0-.7-.32-.7-.7v-22.85c0-3.28.61-6.33,1.83-9.16"/>
  <path class="cls-1" d="m176.31,39.01c0-3.28.61-6.33,1.83-9.16,1.22-2.83,2.9-5.3,5.03-7.43s4.63-3.8,7.49-5.02c2.86-1.22,5.9-1.83,9.12-1.83s6.34.61,9.17,1.83c2.83,1.22,5.33,2.9,7.49,5.02,2.17,2.13,3.86,4.6,5.08,7.43s1.83,5.88,1.83,9.16-.61,6.25-1.83,9.11-2.92,5.37-5.08,7.54c-2.16,2.16-4.66,3.86-7.49,5.08-2.83,1.22-5.88,1.83-9.17,1.83s-6.25-.61-9.12-1.83c-2.86-1.22-5.36-2.91-7.49-5.08-2.13-2.16-3.81-4.68-5.03-7.54-1.22-2.86-1.83-5.9-1.83-9.11m9.21,0c0,1.95.37,3.8,1.1,5.55.73,1.74,1.75,3.26,3.04,4.55,1.29,1.29,2.81,2.3,4.56,3.04,1.75.73,3.6,1.1,5.56,1.1s3.81-.37,5.56-1.1c1.75-.73,3.27-1.74,4.56-3.04,1.29-1.29,2.31-2.81,3.04-4.55.73-1.74,1.1-3.59,1.1-5.55s-.37-3.78-1.1-5.49c-.73-1.71-1.75-3.21-3.04-4.5-1.29-1.29-2.81-2.3-4.56-3.03-1.75-.73-3.6-1.1-5.56-1.1s-3.81.37-5.56,1.1c-1.75.73-3.27,1.74-4.56,3.03-1.29,1.29-2.3,2.79-3.04,4.5-.73,1.71-1.1,3.54-1.1,5.49"/>
  <path class="cls-1" d="m172.66,16.48c.42,0,.55.28.3.61,0,0-7.09,9.48-10.5,14.22-1.46,2.03-2.96,4.08-4.49,6.15-1.53,2.07-2.99,4.06-4.38,5.99-1.39,1.93-2.71,3.72-3.96,5.38-1.25,1.66-2.77,3.65-3.6,4.8h26.64c.42,0,.76.34.76.76v6.93c0,.42-.34.76-.76.76h-43.56c-.42,0-.56-.28-.31-.61,0,0,7.02-9.48,10.5-14.21,1.46-2.03,2.97-4.08,4.54-6.15,1.57-2.06,3.04-4.06,4.43-5.99,1.39-1.93,2.71-3.72,3.96-5.38,1.25-1.66,2.3-3.81,3.13-4.96h-26.33c-.42,0-.76-.34-.76-.76v-6.77c0-.42.34-.76.76-.76h43.62Z"/>
  <path class="cls-1" d="m227.85,23.21h-.05c-2.74-.03-4.95-2.28-4.92-5.03.03-2.71,2.26-4.92,4.97-4.92h.05c2.74.03,4.95,2.28,4.92,5.03-.03,2.71-2.26,4.92-4.97,4.92m.05-9.42c-2.48,0-4.47,1.97-4.5,4.4-.03,2.45,1.95,4.47,4.4,4.5l.05.26v-.26c2.43,0,4.42-1.97,4.45-4.4.03-2.45-1.95-4.47-4.4-4.5h0Z"/>
  <path class="cls-1" d="m230.08,16.98c0,.38-.12.71-.33.97-.22.27-.55.46-.99.59v.02l1.62,2.29h-1.21s-1.48-2.17-1.48-2.17h-.69s-.02,2.13-.02,2.13h-1.01s.06-5.53.06-5.53l1.68.02c.28,0,.54.02.78.06.24.03.44.08.61.15.32.13.57.31.74.56.17.25.26.55.26.92m-2.59.85c.23,0,.43,0,.59-.02.16-.02.29-.05.41-.09.2-.08.35-.18.43-.31.08-.13.12-.29.12-.46,0-.15-.03-.28-.09-.39-.06-.11-.17-.21-.31-.27-.1-.05-.22-.08-.36-.1-.15-.02-.33-.04-.54-.04h-.72s-.02,1.69-.02,1.69h.5Z"/>
</svg>