<?xml version="1.0" encoding="UTF-8"?>
<svg id="nine" xmlns="http://www.w3.org/2000/svg" viewBox="0 0 70.91 124.39">
  <defs>
    <style>
      .cls-1 {
        fill: #fff4eb;
      }

      .cls-2 {
        fill: #856754;
      }

      .cls-3 {
        fill: #666;
      }
    </style>
  </defs>
  <path class="cls-2" d="m3.71,47.92C-.43,42.76.82,33.86,1.63,27.47c.99-7.79,7.89-21.7,17.85-23.66C21.63,3.39,25.33-.06,34.98,0c9.65.05,13.07,3.04,15.39,3.43,10.35,1.74,16.12,14.07,19.81,25.19,1.19,3.6,1.29,16.27-2.44,18.98-3.36-.88-6.78-7.05-8.97-14.39.06,2.16-.18,4.25-.87,5.94,3.01,4.55,6.3,10,6.11,19.15-.88,8.74,14.89,33.98,1,52.47,1.82,3.68,7.17,11.8-2.42,13.48-7.32,1.29-8.06-8.41-10.8-11.84-6.97,2.05-23.89,1.27-31.34-.12-1.37,4.32-5.91,12.66-11.82,11.42-8.84-1.84-4.54-10.77-3.49-13.92-13.16-19.59,3.17-43.14,2.59-51.93-.61-8.47,2.84-12.98,5.43-18.37-1.16-1.84-1.42-4.57-1.16-7.24-.96,5.04-3.11,12.09-8.29,15.65h0Zm0,0"/>
  <path class="cls-1" d="m44.12,52.73c-4.79,5.14-8.66,11.48-9.21,18.01-.54,2.13-.25,4.29,1.11,5.18,3.2,2.11,7.46-.51,8.97-3.96,4.09-4.43,6.39-7.32,9.72-11.38,1.27-5.59-6.62-12.23-10.59-7.85h0Zm0,0"/>
  <path class="cls-1" d="m25.14,53.03c4.79,5.14,8.66,11.47,9.2,18,.55,2.14.26,4.3-1.1,5.19-3.2,2.1-7.46-.51-8.97-3.98-4.09-4.42-6.4-7.3-9.72-11.36-.34-.77-.89-1.17-1.19-1.79-2.36-4.72,6.89-9.02,8.15-7.77.66.67,2.49,1.49,3.63,1.7h0Zm0,0"/>
  <path class="cls-1" d="m34.87.96c-2.01.05-7.07,14.57-5.99,21.11-11.37,12.55-4.82,26.23,7.42,26.68,12.25.45,18.34-17.3,5.97-27.13.71-6.71-5.39-20.7-7.4-20.66h0Zm0,0"/>
  <path class="cls-1" d="m57.97,39.25c-11.98,10.25-33.77,7.22-44.81.17-3.97,4.81-7.87,13.39-5.51,20.53,12.3-1.66,18.81,10.89,27.05,10.79,8.25-.11,17.46-14.12,29.34-10.03,1.7-7.29-.56-15.62-6.06-21.46h0Zm0,0"/>
  <path class="cls-3" d="m17.65,13.23c-.11.02-.2.09-.26.19-.68.89-1.27,2.56-1.76,4.37-.48,1.76-.77,3.57-.8,4.88-1.63,2.87-2.8,6.3-3.18,9.5-.02.23.16.45.38.48.21.02.45-.14.48-.37.37-3.1,1.51-6.47,3.1-9.23.04-.07.05-.14.05-.22,0-1.17.33-3.07.81-4.84.47-1.75,1.13-3.42,1.62-4.07.24-.27-.07-.78-.43-.7h0Zm35.14.11c-.32.07-.43.59-.15.77.2.17.51.66.8,1.37.29.7.56,1.6.77,2.56.43,1.92.64,4.11.51,5.57-.01.11.02.23.11.32,1.86,2.14,3.12,5.62,3.41,8.99-.03.25.22.5.47.48.26-.02.45-.32.37-.56-.3-3.45-1.54-6.97-3.5-9.31.12-1.61-.09-3.75-.52-5.68-.23-1-.5-1.93-.81-2.69-.3-.77-.61-1.36-1.06-1.72-.09-.08-.25-.13-.38-.11h0Zm0,0"/>
  <path d="m25.19,18.48c0,1.59-1.11,2.88-2.47,2.88s-2.48-1.29-2.48-2.88,1.11-2.88,2.48-2.88,2.47,1.29,2.47,2.88h0Zm0,0"/>
  <path d="m51.08,18.26c0,1.6-1.11,2.9-2.48,2.9s-2.46-1.3-2.46-2.9,1.11-2.88,2.46-2.88,2.48,1.29,2.48,2.88h0Zm0,0"/>
  <path class="cls-3" d="m33.53,25.84c-.23.03-.39.27-.34.5.33,2.21,1.64,3.45,3.07,3.44,1.42,0,2.75-1.24,3.15-3.38.03-.23-.12-.46-.35-.51-.23-.03-.46.13-.51.35-.34,1.89-1.37,2.69-2.29,2.7-.93,0-1.95-.79-2.25-2.73-.02-.23-.25-.41-.48-.37h0Zm0,0"/>
  <path class="cls-3" d="m36.11,29.39c-.18.05-.32.23-.31.41l-.06,3.77c0,.23.19.44.42.44.23.01.43-.19.44-.4l.05-3.8c.01-.26-.27-.49-.53-.41h0Zm0,0"/>
  <path class="cls-3" d="m32.67,31.97c-.16.02-.3.14-.35.3-.4,1.01-.45,1.81-.15,2.42.3.62.93.93,1.55.96.99.06,2.07-.48,2.61-1.44.63.93,1.64,1.49,2.62,1.36.61-.07,1.2-.38,1.49-.99.3-.59.28-1.39-.11-2.35-.08-.2-.34-.32-.56-.24-.2.09-.32.36-.24.56.33.81.28,1.34.13,1.66-.16.31-.43.49-.82.54-.8.09-1.89-.43-2.19-1.47-.11-.37-.74-.34-.82.02-.18.94-1.26,1.55-2.06,1.49-.39-.02-.68-.17-.82-.48-.16-.31-.18-.87.19-1.76.11-.27-.17-.63-.46-.59h0Zm0,0"/>
  <path class="cls-3" d="m44.04,52.3c-.09.01-.18.06-.24.13-4.82,5.17-8.71,11.55-9.29,18.2h-.02s0,.05,0,.07c-.27,1.09-.34,2.2-.16,3.18.19,1,.64,1.87,1.44,2.41,1.75,1.13,3.8,1,5.55.13,1.71-.86,3.17-2.42,3.98-4.19.02-.02.04-.04.05-.05.01-.02.02-.04.04-.06,4.01-4.36,6.36-7.24,9.66-11.25.28-.36-.38-.92-.67-.56-3.34,4.05-5.62,6.96-9.7,11.36-.02.04-.06.07-.07.11-.72,1.63-2.11,3.1-3.66,3.87-1.56.77-3.24.87-4.69-.09-.56-.37-.91-1-1.07-1.84-.16-.84-.12-1.86.13-2.87.01-.03.02-.06.02-.08.53-6.39,4.35-12.65,9.1-17.75.27-.26-.04-.81-.39-.72h0Zm0,0"/>
  <path class="cls-3" d="m25.07,52.59c-.31.05-.45.5-.24.73,4.75,5.1,8.57,11.36,9.1,17.74v.08c.25,1.02.31,2.05.15,2.88-.15.85-.53,1.48-1.09,1.85-1.45.95-3.13.84-4.69.07-1.55-.77-2.92-2.23-3.63-3.86-.01-.05-.05-.09-.07-.11-4.07-4.42-6.39-7.32-9.72-11.38-.29-.34-.95.21-.67.56,3.3,4.03,5.64,6.89,9.66,11.27.04.04.05.06.08.11.81,1.77,2.26,3.34,3.98,4.18,1.75.88,3.8,1.01,5.55-.13.8-.52,1.25-1.41,1.44-2.39.18-.98.11-2.08-.17-3.18v-.08h-.02c-.58-6.64-4.46-13.03-9.29-18.19-.09-.11-.24-.16-.37-.14h0Zm0,0"/>
  <path class="cls-1" d="m20.45,112.35c-.18-13.69,2.27-30.67,15.14-30.91,12.85-.25,16.02,16.43,16.27,31.21-10.48,1.6-20.07,1.29-31.41-.3h0Zm0,0"/>
</svg>