<?xml version="1.0" encoding="UTF-8"?>
<svg id="Icon" xmlns="http://www.w3.org/2000/svg" viewBox="0 0 50.59 45.34">
  <defs>
    <style>
      .cls-1 {
        fill: #fff;
      }

      .cls-2 {
        fill: #ff8080;
      }
    </style>
  </defs>
  <path class="cls-1" d="m18.16,39.64l-.77-.18-.63.47c-3.72,2.78-7.76,4.81-10.68,5.42,2.14-2.14,3.44-4.61,4.04-7.66l.22-1.12-.96-.62C3.42,32.07,0,26.34,0,20.24,0,9.08,11.35,0,25.3,0s25.3,9.08,25.3,20.24-11.35,20.24-25.3,20.24c-2.38,0-4.78-.28-7.14-.84Z"/>
  <g>
    <path class="cls-2" d="m13.42,9.38c-.54.22-.95.55-1.24.99-.29.44-.44.99-.44,1.63,0,.3.03.5.08.62.06.12.08.18.08.2-.43,0-.75-.09-.97-.27-.21-.18-.32-.48-.32-.89,0-.51.21-1.01.63-1.49s.96-.88,1.61-1.18,1.31-.45,1.97-.45c.11,0,.27,0,.48.02l-1.91,8.98h-1.73l1.74-8.15Z"/>
    <path class="cls-2" d="m16.2,11.19c.17-.18.3-.34.4-.49.1-.15.14-.28.14-.37,0-.06-.02-.11-.05-.16-.04-.05-.09-.1-.16-.16-.11-.09-.2-.18-.26-.28-.06-.1-.1-.22-.1-.38,0-.25.08-.45.23-.61.15-.16.34-.23.58-.23.25,0,.45.08.61.23.16.16.23.36.23.61,0,.31-.13.65-.39,1.03-.26.37-.61.7-1.04.99l-.18-.18Z"/>
    <path class="cls-2" d="m24.07,17.22c-.19-.26-.29-.58-.29-.97,0-.17.02-.36.06-.57s.08-.42.13-.62.07-.33.09-.38c.06-.28.12-.56.18-.83.06-.27.08-.49.08-.66,0-.41-.14-.61-.43-.61-.21,0-.39.1-.55.31-.16.2-.29.47-.38.8l-.82,3.85h-1.73l.88-4.14c.02-.1.04-.2.04-.3,0-.35-.12-.53-.36-.53-.22,0-.42.1-.58.31s-.29.47-.39.81l-.82,3.85h-1.73l1.27-6h1.73l-.13.62c.41-.46.9-.68,1.46-.68.7,0,1.12.34,1.24,1.03.44-.68,1-1.02,1.67-1.02.41,0,.73.11.97.34.24.22.36.56.36,1.02,0,.23-.03.49-.08.77-.06.28-.14.63-.24,1.04-.06.25-.12.49-.17.73-.05.24-.08.42-.08.56,0,.16.04.28.11.37.07.09.2.13.37.13.19,0,.32-.02.4-.07-.05.41-.19.72-.44.92-.24.21-.54.31-.88.31-.42,0-.73-.13-.92-.38Z"/>
    <path class="cls-2" d="m29.32,17.38c-.26-.15-.46-.34-.59-.58-.13-.24-.19-.48-.19-.74s.06-.49.19-.69c.12-.2.27-.34.45-.43.31-.56.58-1.13.82-1.7.23-.57.45-1.19.66-1.85l1.78-.24c.04,1.02.11,2.13.2,3.32.04.48.06.83.06,1.04,0,.18-.02.34-.05.46.38-.22.66-.42.86-.6h.5c-.51.59-1.12,1.09-1.84,1.5-.23.25-.52.43-.86.55-.34.12-.68.17-1.03.17-.38,0-.71-.07-.97-.22Zm1.33-.99c.2-.18.3-.46.3-.85,0-.24-.02-.58-.07-1.01-.08-.91-.13-1.52-.16-1.84-.19.63-.52,1.39-.97,2.27.18.1.28.24.28.42,0,.15-.05.29-.15.41-.1.12-.23.18-.38.18-.17,0-.28-.05-.32-.16,0,.29.06.5.17.64.12.14.3.2.56.2.3,0,.54-.09.74-.26Z"/>
    <path class="cls-2" d="m33.85,17.13c-.34-.3-.52-.78-.52-1.44,0-.55.11-1.16.32-1.82.22-.66.57-1.23,1.06-1.72s1.11-.73,1.87-.73c.94,0,1.45.54,1.52,1.62.18-.04.33-.14.47-.29.14-.16.26-.33.38-.53h.38c-.22.43-.41.77-.58,1.01s-.39.44-.66.59c-.05.75-.2,1.41-.46,1.98-.26.57-.6,1.01-1.01,1.31-.42.31-.88.46-1.38.46-.59,0-1.06-.15-1.4-.46Zm2.71-1.34c.26-.48.43-1.07.53-1.78-.19-.07-.29-.25-.29-.54,0-.31.11-.52.34-.62-.02-.26-.06-.43-.13-.53-.07-.1-.18-.15-.33-.15-.26,0-.52.19-.76.57-.24.38-.43.84-.58,1.38s-.22,1.01-.22,1.42c0,.38.04.64.13.77.09.13.25.2.48.2.3,0,.57-.24.83-.72Z"/>
    <path class="cls-2" d="m7.06,29.14c-.39-.31-.59-.81-.59-1.49,0-.53.11-1.12.32-1.78.22-.66.57-1.23,1.06-1.72.49-.49,1.11-.73,1.86-.73.88,0,1.32.38,1.32,1.15,0,.45-.13.86-.38,1.24-.26.38-.6.68-1.02.91-.42.23-.88.36-1.37.39,0,.07-.01.18-.01.32,0,.79.4,1.19,1.2,1.19.46,0,.94-.12,1.46-.36.52-.24.97-.58,1.36-1.01l-.68-3.72h1.69l.47,2.59c.36-.38.64-.74.84-1.08.2-.34.3-.61.3-.83,0-.07,0-.12-.01-.14-.11.02-.18.02-.22.02-.19,0-.33-.06-.42-.18s-.13-.27-.13-.44c0-.2.06-.35.18-.46.12-.1.28-.16.47-.16.27,0,.48.1.62.29.14.2.22.45.22.75,0,.38-.13.8-.4,1.24-.26.44-.7.99-1.32,1.66l.11.59s.03.17.08.38.12.38.22.5c.1.12.24.18.41.18.23,0,.45-.1.65-.29s.34-.45.43-.76h.5c-.3.86-.67,1.45-1.12,1.76-.45.31-.89.46-1.32.46-.4,0-.7-.12-.91-.37s-.38-.68-.53-1.3c-.48.5-1.07.91-1.76,1.21-.69.3-1.37.46-2.03.46s-1.16-.16-1.55-.47Zm2.15-2.9c.27-.19.48-.44.65-.74s.25-.61.25-.94-.1-.49-.3-.49c-.28,0-.56.26-.84.77-.28.52-.48,1.08-.61,1.7.3,0,.59-.11.86-.3Z"/>
    <path class="cls-2" d="m16.11,29.14c-.33-.31-.49-.79-.49-1.45,0-.55.11-1.16.33-1.82.22-.66.57-1.24,1.06-1.72s1.1-.73,1.84-.73c.48,0,.82.1,1.03.31.2.21.31.47.31.79,0,.28-.06.5-.18.65-.12.15-.27.23-.46.23-.14,0-.28-.05-.42-.14.1-.26.14-.5.14-.71,0-.15-.03-.27-.08-.36-.06-.09-.14-.13-.25-.13-.24,0-.48.2-.72.59-.24.39-.44.87-.59,1.43-.15.56-.23,1.06-.23,1.51,0,.39.07.66.2.8.14.14.36.21.66.21.43,0,.8-.1,1.11-.3.31-.2.65-.5,1.01-.91h.41c-.89,1.48-1.99,2.22-3.3,2.22-.59,0-1.05-.15-1.38-.46Z"/>
    <path class="cls-2" d="m20.64,29.24c-.24-.24-.35-.6-.35-1.08,0-.2.03-.46.1-.78l.82-3.85h1.73l-.86,4.08c-.03.12-.05.25-.05.38,0,.16.04.27.11.34.08.07.2.1.38.1.23,0,.45-.1.65-.29.2-.2.34-.45.43-.76h.5c-.3.86-.68,1.45-1.14,1.76-.46.31-.92.46-1.38.46-.38,0-.69-.12-.93-.36Zm1.07-6.64c-.18-.18-.28-.41-.28-.67s.09-.49.28-.68c.18-.19.41-.28.67-.28s.49.09.68.28c.19.19.28.41.28.68s-.09.49-.28.67c-.19.18-.41.28-.68.28s-.49-.09-.67-.28Z"/>
    <path class="cls-2" d="m23.84,29.24c-.24-.24-.35-.6-.35-1.08,0-.2.03-.46.1-.78l.72-3.37h-.4l.1-.48h.4l.36-1.66,1.78-.24-.41,1.9h.72l-.1.48h-.72l-.77,3.6c-.03.12-.05.25-.05.38,0,.16.04.27.11.34.08.07.2.1.38.1.23,0,.45-.1.65-.29.2-.2.34-.45.43-.76h.5c-.3.86-.68,1.45-1.14,1.76-.46.31-.92.46-1.38.46-.38,0-.69-.12-.93-.36Z"/>
    <path class="cls-2" d="m27.12,29.14c-.33-.31-.49-.79-.49-1.45,0-.55.11-1.16.32-1.82s.57-1.24,1.06-1.72c.49-.48,1.11-.73,1.86-.73.88,0,1.32.38,1.32,1.15,0,.45-.13.86-.38,1.24-.26.38-.6.68-1.02.91-.42.23-.88.36-1.36.39-.02.24-.02.4-.02.48,0,.39.07.66.2.8.14.14.36.21.66.21.43,0,.8-.1,1.11-.3.31-.2.65-.5,1.01-.91h.41c-.89,1.48-1.99,2.22-3.3,2.22-.59,0-1.05-.15-1.38-.46Zm2.25-2.92c.27-.19.48-.44.65-.73s.25-.61.25-.94-.1-.49-.3-.49c-.29,0-.57.25-.85.76s-.47,1.08-.59,1.72c.3-.02.58-.12.85-.31Z"/>
    <path class="cls-2" d="m31.69,29.14c-.3-.31-.46-.8-.46-1.46,0-.59.12-1.21.35-1.87.24-.65.59-1.2,1.06-1.66.47-.45,1.03-.68,1.67-.68.33,0,.57.06.73.17.16.11.24.26.24.44v.05l.59-2.76,1.78-.24-1.38,6.48c-.03.12-.05.24-.05.35,0,.32.16.48.49.48.14,0,.27-.02.38-.07-.03.4-.17.71-.43.92s-.55.32-.89.32c-.32,0-.59-.08-.81-.25-.22-.16-.37-.41-.44-.75-.48.66-1.05,1-1.7,1-.46,0-.84-.16-1.14-.47Zm2.45-.92c.18-.15.31-.36.4-.64l.05-.19.59-2.75c-.07-.28-.24-.42-.49-.42-.32,0-.61.19-.86.56-.26.37-.46.82-.6,1.34-.14.52-.22.99-.22,1.39s.06.66.17.77c.12.11.26.17.43.17s.35-.08.53-.23Z"/>
    <path class="cls-2" d="m37.77,29.32c-.19-.19-.28-.41-.28-.68s.09-.49.28-.67c.19-.18.41-.28.68-.28s.49.09.67.28c.18.18.28.41.28.67s-.09.49-.28.68c-.18.19-.41.28-.67.28s-.49-.09-.68-.28Zm1.42-8.56l1.85-.25-1.74,6.25h-1.02l.91-6Z"/>
    <path class="cls-2" d="m40.86,29.32c-.19-.19-.28-.41-.28-.68s.09-.49.28-.67c.19-.18.41-.28.68-.28s.49.09.67.28c.18.18.28.41.28.67s-.09.49-.28.68c-.18.19-.41.28-.67.28s-.49-.09-.68-.28Zm1.42-8.56l1.85-.25-1.74,6.25h-1.02l.91-6Z"/>
  </g>
</svg>