<?xml version="1.0" encoding="UTF-8"?>
<svg id="six" xmlns="http://www.w3.org/2000/svg" viewBox="0 0 45.6 98.65">
  <defs>
    <style>
      .cls-1 {
        fill: #666;
      }

      .cls-2 {
        fill: #e2d7ce;
      }

      .cls-3 {
        fill: gray;
      }

      .cls-4 {
        fill: #615144;
      }
    </style>
  </defs>
  <path class="cls-2" d="m42,54.36c-1.59-4.79-.63-5.62-3.41-12.41,3.77-7.44-2.87-13.34-2.74-16.37,7.82-4.91,11.21-8.67,6.48-25.55-8.82,4.25-13.1,13.09-15.34,20.18-2.01-.87-5.79-.82-7.82-.01C16.85,13.07,11.79,4.94,2.77.47c-3.59,16.17-.01,19.63,7.99,24.17.06,2.92-7.03,9.93-3.14,16.77-1.64,7.22-3.35,7.98-4.95,13.38-3.69,12.43-5,29.65,5.93,35.51-3.05,3.91-2.25,6.31-.01,7.48,4.18,2.19,8.66-4.75,9.88-6.77,3.61.14,6.47.25,10.4-.42.99,3.16,4.06,9.15,9.3,7.18,2.96-1.11,3.06-4.43.09-7.43,10.07-6.25,8.22-22.56,3.75-35.97h0Zm0,0"/>
  <path class="cls-4" d="m13.12,51.68c2.92,1.27,7.55,5.33,9.69,9.36.99,1.88.5,5.12-.99,5.74-3.2,1.33-5.03-.31-6.41-1.63-2.07-2.01-4.79-3.34-6.9-4.6-2.44-3.74.77-8.52,4.6-8.88h0Zm0,0"/>
  <path class="cls-4" d="m33.5,51.93c-2.92,1.27-7.55,5.33-9.69,9.36-.99,1.88-.5,5.12.99,5.74,3.2,1.33,5.03-.31,6.41-1.64,2.07-2,4.79-3.34,6.9-4.6,1.82-4.73-.12-7.15-4.6-8.86h0Zm0,0"/>
  <path class="cls-4" d="m10.65,25.03c1.68-2.46,5.06-4.64,8.53-5.03C17.92,10.92,8.78,3.1,2.59.38c-4.24,13.43-.12,20.96,8.06,24.64h0Zm0,0"/>
  <path class="cls-4" d="m35.98,25.54c-1.68-2.48-5.47-5.13-8.95-5.51C28.31,10.95,36.54,1.18,42.52,0c4.24,13.43,3.18,21.63-6.54,25.54h0Zm0,0"/>
  <path class="cls-4" d="m22.68,31.8c-6.29.08-11.93,12.07.22,11.8,12.15-.26,6.07-11.89-.22-11.8h0Zm0,0"/>
  <path class="cls-4" d="m8.47,90.19c2.94,1.48,7.72,1.54,10.02.77-.86,3.82-6.55,9.2-10.02,7.29-4.85-2.68-.57-6.78,0-8.07h0Zm0,0"/>
  <path class="cls-4" d="m28.81,90.61c.91,4.48,5.06,9.46,10.05,7.21,3.99-1.8,1.12-6.23-.57-7.59-2.87.8-5.31.69-9.48.38h0Zm0,0"/>
  <path d="m13.52,28.07c0,1.26-.86,2.3-1.9,2.3s-1.91-1.04-1.91-2.3.86-2.31,1.91-2.31,1.9,1.04,1.9,2.31h0Zm0,0"/>
  <path class="cls-3" d="m24.17,34.65c-.14,0-.27.08-.35.21-.33.52-.63.87-.99,1.27-.45-.43-.89-.85-1.14-1.17-.29-.36-.95.18-.67.52.39.54.91.98,1.55,1.58.17.17.49.16.64-.03.48-.61.85-.98,1.34-1.73.18-.26-.06-.69-.38-.66h0Zm0,0"/>
  <path class="cls-3" d="m22.77,36.3c-.2.05-.35.25-.32.45l.07,3.12c.01.23.23.42.44.41.23,0,.43-.21.42-.43l-.08-3.13c.01-.26-.27-.49-.52-.42h0Zm0,0"/>
  <path class="cls-3" d="m20.1,38.72c-.23.05-.39.29-.36.51.21.98.9,1.55,1.63,1.6.61.05,1.17-.25,1.63-.67.51.41,1.09.69,1.7.67.73-.02,1.44-.5,1.68-1.36.06-.22-.08-.47-.31-.52-.22-.05-.47.09-.51.31-.16.56-.45.7-.88.73-.43,0-1.01-.2-1.42-.62-.17-.15-.47-.14-.61.02-.32.39-.82.62-1.2.6-.38-.02-.7-.2-.86-.91-.04-.23-.29-.39-.5-.36h0Zm0,0"/>
  <path class="cls-1" d="m13,51.27c-.34.09-.37.66-.06.8,2.76,1.22,7.43,5.27,9.5,9.18.43.84.54,2.02.37,3.07-.16,1.04-.63,1.86-1.14,2.07-1.51.63-2.64.56-3.57.19-.94-.37-1.69-1.07-2.38-1.74-2.13-2.06-4.88-3.42-6.96-4.67-.2-.12-.49-.05-.61.15-.12.19-.05.48.14.6,2.13,1.27,4.84,2.59,6.84,4.54.69.67,1.51,1.44,2.64,1.89,1.12.45,2.52.54,4.22-.16.96-.41,1.48-1.55,1.68-2.75.19-1.2.07-2.55-.49-3.61-2.19-4.16-6.82-8.21-9.9-9.55-.08-.04-.19-.05-.28-.02h0Zm0,0"/>
  <path class="cls-1" d="m33.38,51.5s-.04.02-.05.04c-3.07,1.33-7.71,5.38-9.9,9.55-.56,1.05-.68,2.42-.49,3.62.2,1.2.72,2.32,1.68,2.73,1.69.7,3.1.63,4.22.18,1.13-.44,1.95-1.25,2.64-1.92,2-1.94,4.7-3.26,6.82-4.54.2-.12.27-.41.16-.59-.12-.2-.41-.26-.61-.14-2.07,1.24-4.82,2.59-6.96,4.67-.69.66-1.44,1.36-2.38,1.73-.93.37-2.06.45-3.57-.19-.51-.22-.98-1.04-1.14-2.07-.17-1.05-.06-2.24.37-3.07,2.07-3.92,6.74-7.97,9.5-9.17.39-.18.12-.93-.3-.81h0Zm0,0"/>
  <path d="m36.39,28.57c0,1.26-.86,2.3-1.9,2.3s-1.91-1.04-1.91-2.3.86-2.31,1.91-2.31,1.9,1.03,1.9,2.31h0Zm0,0"/>
</svg>