<?xml version="1.0" encoding="UTF-8"?>
<svg id="two" xmlns="http://www.w3.org/2000/svg" viewBox="0 0 108.76 242.84">
  <defs>
    <style>
      .cls-1 {
        fill: #fff4eb;
      }

      .cls-2 {
        fill: #666;
      }

      .cls-3 {
        fill: #b2805c;
      }
    </style>
  </defs>
  <path class="cls-3" d="m13.06,217.34c-21.58-12.07-12.5-66.71-.73-84.99,1.04-10.64,5.58-17.52,8.18-24.62-9.28-15.47,7.86-34.78,5.98-39.15C13.54,40.54,25.43,14.02,44.75,0c7.41,12.35,5.07,36.21,4.84,55.55,2.21-.68,5.35-.38,7.07.36-1.95-20.16-2.13-44.09,6.72-55.91,17.24,13.89,30.53,40.41,17.9,68.97-.81,5.27,16.32,25.02,7.07,40.26,3.12,6.67,6.33,10.47,8.95,21.63,12.62,19.42,19.49,77.68-4.87,87.6,4.76,6.95,8.85,19.93,1.49,22.74-10.72,4.11-21.37-9.33-23.86-20.13-9.74,2.56-24.46,1.9-33.92.73-4.69,9.66-17.47,25.2-24.98,19.78-8.24-5.98-3.39-15.08,1.88-24.24h0Zm0,0"/>
  <path class="cls-1" d="m22.24,136.76c.05,6.49,3.75,22.84,11.53,27.51,5.3,4.49,19.17,9.89,21.2,2.23,2.82-10.8-8.92-17.37-8.92-29.01-7.81-8.49-15.14-6.32-23.81-.73h0Zm0,0"/>
  <path class="cls-1" d="m89,137.07c-.05,6.49-3.73,22.84-11.51,27.51-5.3,4.49-19.17,9.89-21.2,2.23-2.84-10.8,8.92-17.37,8.92-29.01,5.02-10.93,15.95-8.67,23.78-.73h0Zm0,0"/>
  <path class="cls-1" d="m18.38,102.58c10.22,5.4,21.84-9.76,35.4-9.91,13.59-.16,20.89,15.01,36.56,12.4-.45,1.62-1.21,3.45-1.77,4.47,4.64,7.28,7.48,13.21,8.87,21.24-2.86,12.5-30.98,30.98-41.83,30.98-12.83-.51-42.16-21.88-43.66-29.36,1.67-8.54,4.77-17.54,8.34-25.07-1.34-1.37-1.93-3.22-1.9-4.74h0Zm0,0"/>
  <path class="cls-1" d="m54.01,176.29c-19.04,0-39.02,8.7-41.1,41.3-5.2,6.82-10.73,20.54-1.78,24.31,12.4,5.2,22.06-12.7,25.07-19.86,4.69,1.88,28.78.94,33.42-.73,3.65,13.21,14.47,25.23,25.15,19.55,5.93-3.17,3.17-13.74-2.18-22.41-3.35-34.18-19.52-42.14-38.59-42.16h0Zm0,0"/>
  <path d="m31.24,76.67c0,2.56-1.75,4.64-3.91,4.64s-3.9-2.08-3.9-4.64,1.75-4.67,3.9-4.67,3.91,2.11,3.91,4.67h0Zm0,0"/>
  <path d="m84.31,77.96c0,2.59-1.75,4.67-3.93,4.67s-3.9-2.08-3.9-4.67,1.75-4.64,3.9-4.64,3.93,2.08,3.93,4.64h0Zm0,0"/>
  <path class="cls-2" d="m49.27,86.38c-.38.1-.68.45-.68.84-.21,3.83,2.33,6.19,4.94,6.21,1.3,0,2.62-.58,3.51-1.65.91-1.09,1.41-2.66,1.21-4.61-.08-.48-.56-.84-1.04-.79-.48.05-.84.53-.79,1.01.15,1.58-.21,2.59-.74,3.25-.55.66-1.32.97-2.1.97-1.6-.03-3.34-1.22-3.19-4.26.08-.58-.56-1.12-1.12-.97h0Zm0,0"/>
  <path class="cls-2" d="m53.4,91.94c-.43.1-.76.53-.73.96l.1,5.91c.03.48.48.92.94.89.48,0,.91-.45.88-.94l-.1-5.91c0-.53-.56-1.01-1.09-.91h0Zm0,0"/>
  <path class="cls-2" d="m53.52,97.15c-.3.1-.51.36-.58.64-.49,1.98-1.75,3.3-2.89,3.75-.56.23-1.01.25-1.41.1-.41-.13-.77-.43-1.02-1.06-.1-.49-.66-.81-1.12-.64-.45.15-.68.79-.43,1.19.4,1.01,1.09,1.75,1.93,2.05.86.31,1.8.23,2.69-.13,1.24-.48,2.28-1.67,3.07-3.12.68,1.45,1.62,2.69,2.84,3.25.84.4,1.73.51,2.61.23.86-.28,1.65-.99,2.03-2,.33-.81-1.27-1.45-1.57-.61-.25.63-.56.89-.91,1.01-.38.13-.93.1-1.49-.18-1.12-.51-2.28-1.93-2.67-3.86-.07-.45-.63-.76-1.06-.64h0Zm0,0"/>
  <path class="cls-2" d="m22.06,135.85c-.43.08-.76.48-.73.92.02,3.39,1.01,9.13,2.94,14.7,1.93,5.53,4.74,10.96,8.93,13.52.03.02.07.02.1.05,2.82,2.39,7.58,4.82,12.1,5.81,2.28.48,4.54.64,6.41.05,1.9-.58,3.47-1.95,4.03-4.16,1.52-5.73-.92-10.4-3.5-14.86-2.62-4.49-5.4-8.87-5.4-14.38,0-.48-.43-.91-.92-.91s-.91.43-.91.91c0,6.11,3.12,10.85,5.68,15.27,2.56,4.43,4.61,8.46,3.29,13.54-.43,1.62-1.34,2.41-2.78,2.84-1.42.43-3.4.38-5.5-.08-4.21-.91-8.93-3.39-11.41-5.5-.05-.03-.07-.05-.12-.05-3.52-2.13-6.42-7.22-8.3-12.6-1.88-5.4-2.81-11.08-2.84-14.15.03-.53-.53-1.01-1.06-.92h0Zm0,0"/>
  <path class="cls-2" d="m88.85,136.13c-.43.08-.76.48-.73.92-.03,3.06-.99,8.74-2.84,14.15-1.88,5.37-4.69,10.47-8.24,12.6-.05.03-.08.08-.13.1-2.46,2.13-7.25,4.54-11.46,5.47-2.1.46-4,.53-5.45.1-1.45-.43-2.41-1.24-2.84-2.89-1.32-5.08.79-9.11,3.35-13.51,2.56-4.44,5.63-9.16,5.63-15.29,0-.48-.43-.92-.92-.92s-.91.44-.91.92c0,5.5-2.79,9.89-5.4,14.38-2.59,4.46-5.02,9.13-3.5,14.88.55,2.18,2.17,3.58,4.08,4.13,1.9.58,4.08.45,6.37-.05,4.51-.99,9.28-3.43,12.09-5.81.03,0,.08-.03.1-.05,4.18-2.56,7.05-7.91,8.98-13.46,1.95-5.58,2.86-11.33,2.89-14.75.03-.53-.53-1.01-1.06-.92h0Zm0,0"/>
</svg>