<?xml version="1.0" encoding="UTF-8"?>
<svg id="face" xmlns="http://www.w3.org/2000/svg" viewBox="0 0 47.45 22.95">
  <defs>
    <style>
      .cls-1 {
        fill: #bf0f30;
        fill-rule: evenodd;
      }
    </style>
  </defs>
  <path class="cls-1" d="m33.32,8.57c-1.24-.77-3.52-2.03-4.04-1.6,4.14,4.53.99,10.06-2.44,10.5v-2.44c.22.02.46,0,.72-.08,2.5-.72.93-6.06-.72-7.22v-2.53c1.95-.35,4.21.08,6.21,1.44-.5-4.62,2.21-5.54,2.85-.75l.32,2.03c.87-.25.64-8.94,3.84-6.32,2.16,1.77-.19,12.31,4.77,6.66.52-.59,1.14-1.31,1.85-2.16l.76,2.69c-4.73,6.3-7.44,5.63-8.52-2.26l-.19.06c-.14.73-1.39,11.36-3.79,7.91-1.35-1.94-1.16-3.62-1.63-5.93Zm-6.48,8.91c-1.76.23-3.59-.89-4.54-4.17-1.31-4.55,1.16-7.49,4.54-8.1v2.53c-.75-.53-1.52-.19-1.93,1.86-.27,1.38-.05,5.25,1.93,5.44v2.44h0ZM2.8,7.33c.37-1,1.37-1.81,2.34-2.4,11-6.67,16.85,1.58,8.1,4.1-5.56,1.6-1.74,3.03-.25,3,10.12-.16,4.22,9.78-2.37,8.41-1.55-.32-2.59-11.88-1.75-14.18-5.43-5.08-3.93,16.71-.6,16.68,18.73-.17,13.57-14.74,6.44-12.69C23.25,7.61,22.06-.02,12.91,0-5.45.04.44,17.77,2.8,7.33Z"/>
</svg>