<?xml version="1.0" encoding="UTF-8"?>
<svg id="Layer_1" data-name="Layer 1" xmlns="http://www.w3.org/2000/svg" viewBox="0 0 69.92 57.68">
  <defs>
    <style>
      .cls-1 {
        fill: #fff;
      }

      .cls-2 {
        fill: none;
        stroke: #fff;
        stroke-miterlimit: 10;
      }
    </style>
  </defs>
  <g>
    <path class="cls-1" d="m14.21,26.81v-7.14h-2.55v-1.45h6.83v1.45h-2.54v7.14h-1.73Z"/>
    <path class="cls-1" d="m19.61,26.81v-8.59h3.65c.92,0,1.58.08,2,.23s.75.43,1,.82.38.85.38,1.35c0,.64-.19,1.18-.57,1.6s-.95.68-1.7.79c.38.22.68.46.93.72s.57.73.99,1.39l1.05,1.68h-2.07l-1.25-1.87c-.45-.67-.75-1.09-.91-1.26s-.34-.29-.52-.36-.47-.1-.87-.1h-.35v3.59h-1.73Zm1.73-4.96h1.28c.83,0,1.35-.04,1.56-.11s.37-.19.49-.36.18-.39.18-.64c0-.29-.08-.52-.23-.7s-.37-.29-.65-.34c-.14-.02-.56-.03-1.27-.03h-1.35v2.18Z"/>
    <path class="cls-1" d="m36.02,26.81h-1.89l-.75-1.95h-3.43l-.71,1.95h-1.84l3.35-8.59h1.83l3.44,8.59Zm-3.19-3.4l-1.18-3.19-1.16,3.19h2.34Z"/>
    <path class="cls-1" d="m38.24,26.81l-3.07-8.59h1.88l2.17,6.36,2.1-6.36h1.84l-3.08,8.59h-1.85Z"/>
    <path class="cls-1" d="m44.05,26.81v-8.59h6.37v1.45h-4.63v1.9h4.31v1.45h-4.31v2.34h4.8v1.45h-6.53Z"/>
    <path class="cls-1" d="m52.1,26.81v-8.52h1.73v7.07h4.31v1.45h-6.05Z"/>
    <path class="cls-1" d="m0,39.31v-8.59h1.73v8.59H0Z"/>
    <path class="cls-1" d="m3.4,39.31v-8.59h1.69l3.52,5.74v-5.74h1.61v8.59h-1.74l-3.46-5.6v5.6h-1.61Z"/>
    <path class="cls-1" d="m11.61,36.51l1.69-.16c.1.57.31.98.62,1.25s.73.4,1.26.4c.56,0,.98-.12,1.26-.35s.42-.51.42-.83c0-.2-.06-.38-.18-.52s-.33-.27-.62-.37c-.2-.07-.67-.2-1.39-.38-.93-.23-1.58-.51-1.96-.85-.53-.47-.79-1.05-.79-1.73,0-.44.12-.85.37-1.23s.61-.67,1.07-.87,1.03-.3,1.69-.3c1.08,0,1.89.24,2.43.71s.83,1.1.86,1.89l-1.73.08c-.07-.44-.23-.76-.48-.95s-.61-.29-1.1-.29-.9.1-1.18.31c-.18.13-.28.31-.28.53,0,.2.09.38.26.52.22.18.75.38,1.59.57s1.47.41,1.87.62.72.5.95.87.34.83.34,1.37c0,.49-.14.95-.41,1.38s-.66.75-1.16.96-1.12.31-1.87.31c-1.09,0-1.92-.25-2.5-.75s-.93-1.23-1.04-2.19Z"/>
    <path class="cls-1" d="m20.04,30.72h1.73v4.65c0,.74.02,1.22.06,1.44.07.35.25.63.53.85s.66.32,1.15.32.86-.1,1.11-.3.4-.45.45-.74.08-.78.08-1.46v-4.75h1.73v4.51c0,1.03-.05,1.76-.14,2.19s-.27.79-.52,1.08-.59.53-1.01.7-.97.26-1.65.26c-.82,0-1.44-.09-1.87-.28s-.76-.44-1-.74-.41-.62-.49-.95c-.11-.49-.17-1.22-.17-2.18v-4.58Z"/>
    <path class="cls-1" d="m28.73,39.31v-8.59h3.65c.92,0,1.58.08,2,.23s.75.43,1,.82.38.85.38,1.35c0,.64-.19,1.18-.57,1.6s-.95.68-1.7.79c.38.22.68.46.93.72s.57.73.99,1.39l1.05,1.68h-2.07l-1.25-1.87c-.45-.67-.75-1.09-.91-1.26s-.34-.29-.52-.36-.47-.1-.87-.1h-.35v3.59h-1.73Zm1.73-4.96h1.28c.83,0,1.35-.04,1.56-.11s.37-.19.49-.36.18-.39.18-.64c0-.29-.08-.52-.23-.7s-.37-.29-.65-.34c-.14-.02-.56-.03-1.27-.03h-1.35v2.18Z"/>
    <path class="cls-1" d="m45.13,39.31h-1.89l-.75-1.95h-3.43l-.71,1.95h-1.84l3.35-8.59h1.83l3.44,8.59Zm-3.19-3.4l-1.18-3.19-1.16,3.19h2.34Z"/>
    <path class="cls-1" d="m46.07,39.31v-8.59h1.69l3.52,5.74v-5.74h1.61v8.59h-1.74l-3.46-5.6v5.6h-1.61Z"/>
    <path class="cls-1" d="m60.22,36.15l1.68.53c-.26.94-.69,1.63-1.29,2.09s-1.36.68-2.28.68c-1.14,0-2.08-.39-2.81-1.17s-1.1-1.84-1.1-3.2c0-1.43.37-2.54,1.11-3.33s1.71-1.19,2.91-1.19c1.05,0,1.9.31,2.56.93.39.37.68.89.88,1.58l-1.72.41c-.1-.45-.31-.8-.64-1.05s-.71-.39-1.17-.39c-.64,0-1.15.23-1.55.69s-.59,1.2-.59,2.22c0,1.09.2,1.86.59,2.32s.9.69,1.52.69c.46,0,.86-.15,1.19-.44s.57-.75.71-1.38Z"/>
    <path class="cls-1" d="m63.39,39.31v-8.59h6.37v1.45h-4.63v1.9h4.31v1.45h-4.31v2.34h4.8v1.45h-6.53Z"/>
  </g>
  <path class="cls-2" d="m6.65,27.56C7.32,12.5,19.74.5,34.96.5s27.23,11.6,28.27,26.31c.01.18.02.35.03.53"/>
  <path class="cls-2" d="m59.85,42.39c-.2.36-.4.72-.61,1.07-4.96,8.22-13.98,13.72-24.28,13.72s-19.89-5.85-24.74-14.51"/>
</svg>