<?xml version="1.0" encoding="UTF-8"?>
<svg id="Layer_1" data-name="Layer 1" xmlns="http://www.w3.org/2000/svg" xmlns:xlink="http://www.w3.org/1999/xlink" viewBox="0 0 97.64 98.61">
  <defs>
    <style>
      .cls-1 {
        fill: none;
      }

      .cls-2 {
        clip-path: url(#clippath);
      }

      .cls-3 {
        fill: #fff;
      }
    </style>
    <clipPath id="clippath">
      <rect class="cls-1" width="97.64" height="98.61"/>
    </clipPath>
  </defs>
  <g class="cls-2">
    <path class="cls-3" d="m80.51,74.63c-.75.89-.65,2.2.19,2.91.87.74,2.21.64,2.95-.25.7-.83.58-2.16-.29-2.9-.85-.72-2.15-.59-2.86.24m9.94-23.77l4.45,4.86-5.04-.73.59-4.13Zm-1.2-1.73l-.8,5.59-2.23-.32c-.17-.03-.35.11-.37.28l-.15,1.01c-.02.17.11.35.28.37l2.27.31-.2,1.39c-.03.19.11.35.28.37l.72.1c.17.03.33-.09.36-.28l.2-1.39,7.58,1.09c.19.03.35-.11.37-.28l.09-.63c0-.07-.02-.21-.07-.27l-6.92-7.47-1.03-.15c-.17-.03-.35.09-.37.28m-2.96-11.31c-.38.45-1.28,1.64-.92,3.76.4,2.36,2.06,3.62,3.92,3.3,1.47-.25,2.28-1.69,2.48-2.55h.05c.49.7,1.67,1.52,2.98,1.29,1.91-.33,2.85-2.12,2.52-4.1-.32-1.86-2.04-2.9-2.04-2.9-.14-.1-.35-.08-.44.08l-.46.73c-.11.18-.04.36.11.44.43.28,1.12.79,1.29,1.82.17,1.01-.39,2.07-1.53,2.26-1.01.17-1.96-.49-2.24-2.1l-.16-.96c-.04-.24-.16-.33-.42-.28l-.73.13c-.24.04-.34.2-.3.38l.16.96c.31,1.83-.51,2.86-1.54,3.04-1.14.2-2.02-.71-2.21-1.82-.22-1.26.54-2.38.66-2.5.13-.16.12-.32-.05-.47l-.73-.56c-.12-.1-.31-.07-.41.05m.62-9.04c-.57-1.15-.09-2.53,1.09-3.12,1.15-.58,2.6-.16,3.16.97.85,1.69-.64,3.17-2.01,3.68-.32.06-1.62-.29-2.24-1.53m-5.63.13l-.52.59c-.14.15-.15.33,0,.48,1.27,1.15,4.94,3.94,9.26,1.77,2.4-1.21,3.76-3.36,2.52-5.82-.95-1.89-3.34-2.67-5.29-1.69-2.14,1.07-2.56,3.28-1.73,4.94.51,1.02,1.44,1.68,1.59,1.78-2.15.44-4.67-1.39-5.26-1.99-.24-.25-.44-.22-.59-.05m-4.9-5.53c-.13.11-.16.32-.03.46l.7.8c.11.13.32.13.45.02l8.38-7.32c.13-.11.16-.32.04-.45l-.56-.64-3.3-.38c-.1,0-.23.06-.3.19l-.32.55c-.08.14,0,.3.16.37l1.41.61-6.63,5.79Zm-15.6-10.04c-.07.16-.01.36.16.44l6.3,2.89c.17.08.37,0,.44-.16l.4-.87c.07-.16.01-.36-.16-.44l-4.97-2.29,1.56-3.38,4.2,1.93c.16.07.36.01.44-.16l.4-.88c.07-.16,0-.36-.16-.44l-4.2-1.93,1.48-3.21,4.97,2.29c.17.08.37,0,.44-.16l.4-.88c.07-.16.01-.36-.16-.44l-6.3-2.89c-.17-.08-.36,0-.44.16l-4.79,10.42Zm-14.65-7.53c-.25,3.46,2.34,6.4,5.79,6.65,1.54.11,3.06-.32,4.32-1.38.13-.11.18-.33.05-.47l-.74-.83c-.1-.09-.25-.12-.42-.01-.88.58-1.79,1.02-3.05.93-2.47-.18-4.21-2.37-4.04-4.79.17-2.42,2.19-4.36,4.66-4.18,1.07.08,2.15.61,2.91,1.37.14.17.3.18.43.03l.82-.72c.15-.13.16-.34.02-.49-1.1-1.1-2.32-1.78-4.07-1.9-3.46-.25-6.44,2.34-6.68,5.79m-14.6,10.14c.06.16.26.26.42.2l1.03-.37c.18-.06.26-.26.2-.42l-2.82-7.95h.02s10.07,5.91,10.07,5.91l.42-.15c.16-.06.26-.24.21-.4l-3.89-10.99c-.06-.16-.26-.26-.42-.2l-1.05.37c-.18.06-.26.26-.2.42l2.74,7.72h-.02s-9.99-5.68-9.99-5.68l-.41.14c-.16.06-.26.24-.21.4l3.89,10.99Zm-5.91,4.51c.1.14.32.17.46.07l.92-.69c.14-.1.17-.32.07-.46l-6.87-9.19c-.1-.14-.32-.17-.46-.07l-.92.69c-.14.1-.17.32-.07.46l6.87,9.19Zm-8.79,8.46c.38-.05,2.08-.4,3.4-2.05,1.41-1.76,1.27-3.93-.13-5.06-1.65-1.33-3.47-.58-5.36.47-1.36.75-2.31.97-3.08.35-.5-.4-.9-1.37.01-2.5.63-.78,2.01-1.23,2.14-1.28.27-.09.33-.33.25-.58-.08-.24-.17-.51-.24-.75-.09-.3-.37-.34-.53-.29-.2.06-1.72.51-2.8,1.86-1.73,2.15-.93,4.12.12,4.97,1.57,1.26,3.15.75,4.84-.16,1.63-.89,2.7-1.18,3.52-.53.69.55.78,1.6.03,2.54-.83,1.04-2.53,1.39-2.67,1.41-.24.05-.34.28-.26.55.08.26.19.53.27.8.12.32.29.3.5.27m-5.07,20.2c.17.03.35-.1.38-.27l.18-1.08c.03-.19-.1-.35-.27-.38l-8.32-1.4v-.02s10.07-5.93,10.07-5.93l.07-.44c.03-.17-.08-.35-.25-.38l-11.5-1.93c-.17-.03-.35.1-.38.27l-.19,1.09c-.03.19.1.35.27.38l8.08,1.36v.02S.08,46.38.08,46.38l-.07.43c-.03.17.08.35.25.38l11.5,1.93Zm2.37,12.3c.17-.04.29-.21.25-.39l-1.5-6.77c-.04-.19-.22-.29-.39-.25l-.93.21c-.17.04-.29.21-.25.39l1.18,5.35-3.64.8-1-4.52c-.04-.17-.21-.29-.39-.25l-.95.21c-.17.04-.29.22-.25.39l1,4.52-3.45.76-1.18-5.35c-.04-.19-.22-.29-.39-.25l-.95.21c-.17.04-.29.21-.25.39l1.5,6.77c.04.19.22.29.39.25l11.2-2.48Zm5.55,12.29l-7.34,4.92-1.27-1.9c-1.42-2.11-.91-4.69,1.2-6.11,2.13-1.43,4.72-.93,6.14,1.18l1.27,1.9Zm2.08.73c.14-.1.19-.3.1-.44l-2.22-3.31c-1.86-2.78-5.65-3.53-8.44-1.66-2.76,1.85-3.49,5.64-1.63,8.42l2.22,3.31c.1.14.3.17.45.08l9.52-6.39Zm9.97,7.51c.1-.14.07-.35-.08-.46l-5.71-3.93c-.16-.11-.36-.06-.46.08l-.54.79c-.1.14-.07.35.08.46l4.51,3.1-2.11,3.07-3.81-2.62c-.14-.1-.35-.07-.46.09l-.55.8c-.1.14-.06.36.09.46l3.81,2.62-2,2.91-4.51-3.1c-.16-.11-.36-.06-.46.08l-.55.8c-.1.14-.07.35.08.46l5.71,3.93c.16.11.36.06.46-.08l6.5-9.45Zm14.96,4.24c0-.14-.12-.27-.25-.3l-.27-.06c-.12-.03-.27.03-.33.12l-4.76,7.78-.08-.02-1.15-9.06c-.01-.11-.13-.22-.25-.25l-.27-.06c-.14-.03-.29.04-.36.17l-5.68,10.68c-.12.22-.02.42.22.47l1.14.25c.13.03.3-.06.36-.17l3.71-7.33.07.02,1.05,8.6c.01.11.11.22.25.25l.31.07c.13.03.27-.03.33-.12l4.5-7.39h.07s.36,8.23.36,8.23c0,.12.12.27.25.3l1.14.25c.24.05.41-.09.39-.34l-.72-12.07Zm14.4-.69c-.32-.2-1.84-1.03-3.92-.63-2.21.43-3.51,2.19-3.16,3.96.41,2.07,2.27,2.68,4.4,3.09,1.52.3,2.39.75,2.58,1.72.12.63-.19,1.62-1.62,1.91-.99.19-2.33-.36-2.46-.4-.27-.11-.47.04-.56.29-.1.23-.2.5-.3.73-.12.29.06.5.22.56.19.09,1.64.72,3.34.39,2.7-.53,3.37-2.55,3.11-3.87-.39-1.97-1.92-2.61-3.8-3-1.82-.37-2.83-.84-3.03-1.86-.17-.87.44-1.73,1.61-1.96,1.31-.26,2.83.58,2.95.64.22.12.44,0,.55-.25.11-.25.2-.53.31-.78.11-.32-.03-.42-.21-.52"/>
  </g>
</svg>