<?xml version="1.0" encoding="UTF-8"?>
<svg id="Layer_1" data-name="Layer 1" xmlns="http://www.w3.org/2000/svg" viewBox="0 0 272.6 298.39">
  <defs>
    <style>
      .cls-1 {
        fill: none;
      }

      .cls-2 {
        fill: #d8d3bf;
      }

      .cls-3 {
        fill: #2b2a28;
      }
    </style>
  </defs>
  <g>
    <g>
      <g>
        <rect class="cls-2" x="37.59" y="53.75" width="59.16" height=".75"/>
        <rect class="cls-2" x="37.59" y="69.73" width="59.16" height=".75"/>
      </g>
      <g>
        <rect class="cls-2" x="37.59" y="86.71" width="59.16" height=".75"/>
        <rect class="cls-2" x="37.59" y="102.69" width="59.16" height=".75"/>
      </g>
    </g>
    <g>
      <g>
        <rect class="cls-2" x="211.4" y="53.75" width="59.16" height=".75"/>
        <rect class="cls-2" x="211.4" y="69.73" width="59.16" height=".75"/>
      </g>
      <g>
        <rect class="cls-2" x="211.4" y="86.71" width="59.16" height=".75"/>
        <rect class="cls-2" x="211.4" y="102.69" width="59.16" height=".75"/>
      </g>
    </g>
  </g>
  <g>
    <path class="cls-2" d="m44.61,156.25c0,.88-.47,1.83-1.76,1.83s-1.71-.95-1.71-1.83.47-1.86,1.71-1.86,1.76.95,1.76,1.86Z"/>
    <path class="cls-2" d="m54.92,156.25c0,.88-.47,1.83-1.76,1.83s-1.71-.95-1.71-1.83.48-1.86,1.71-1.86,1.76.95,1.76,1.86Z"/>
    <path class="cls-2" d="m65.22,156.25c0,.88-.48,1.83-1.76,1.83s-1.71-.95-1.71-1.83.48-1.86,1.71-1.86,1.76.95,1.76,1.86Z"/>
    <path class="cls-2" d="m75.53,156.25c0,.88-.48,1.83-1.76,1.83s-1.71-.95-1.71-1.83.48-1.86,1.71-1.86,1.76.95,1.76,1.86Z"/>
    <path class="cls-2" d="m85.83,156.25c0,.88-.48,1.83-1.76,1.83s-1.71-.95-1.71-1.83.47-1.86,1.71-1.86,1.76.95,1.76,1.86Z"/>
    <path class="cls-2" d="m96.13,156.25c0,.88-.47,1.83-1.76,1.83s-1.71-.95-1.71-1.83.48-1.86,1.71-1.86,1.76.95,1.76,1.86Z"/>
    <path class="cls-2" d="m106.44,156.25c0,.88-.47,1.83-1.76,1.83s-1.71-.95-1.71-1.83.47-1.86,1.71-1.86,1.76.95,1.76,1.86Z"/>
    <path class="cls-2" d="m116.74,156.25c0,.88-.48,1.83-1.76,1.83s-1.71-.95-1.71-1.83.47-1.86,1.71-1.86,1.76.95,1.76,1.86Z"/>
    <path class="cls-2" d="m127.05,156.25c0,.88-.48,1.83-1.75,1.83s-1.71-.95-1.71-1.83.48-1.86,1.71-1.86,1.75.95,1.75,1.86Z"/>
    <path class="cls-2" d="m137.35,156.25c0,.88-.47,1.83-1.76,1.83s-1.71-.95-1.71-1.83.48-1.86,1.71-1.86,1.76.95,1.76,1.86Z"/>
    <path class="cls-2" d="m147.66,156.25c0,.88-.48,1.83-1.76,1.83s-1.71-.95-1.71-1.83.47-1.86,1.71-1.86,1.76.95,1.76,1.86Z"/>
    <path class="cls-2" d="m157.96,156.25c0,.88-.47,1.83-1.76,1.83s-1.71-.95-1.71-1.83.47-1.86,1.71-1.86,1.76.95,1.76,1.86Z"/>
    <path class="cls-2" d="m168.27,156.25c0,.88-.48,1.83-1.76,1.83s-1.71-.95-1.71-1.83.47-1.86,1.71-1.86,1.76.95,1.76,1.86Z"/>
    <path class="cls-2" d="m178.57,156.25c0,.88-.47,1.83-1.76,1.83s-1.71-.95-1.71-1.83.48-1.86,1.71-1.86,1.76.95,1.76,1.86Z"/>
    <path class="cls-2" d="m188.87,156.25c0,.88-.47,1.83-1.75,1.83s-1.71-.95-1.71-1.83.48-1.86,1.71-1.86,1.75.95,1.75,1.86Z"/>
    <path class="cls-2" d="m199.18,156.25c0,.88-.47,1.83-1.76,1.83s-1.71-.95-1.71-1.83.47-1.86,1.71-1.86,1.76.95,1.76,1.86Z"/>
    <path class="cls-2" d="m209.48,156.25c0,.88-.48,1.83-1.76,1.83s-1.71-.95-1.71-1.83.47-1.86,1.71-1.86,1.76.95,1.76,1.86Z"/>
    <path class="cls-2" d="m219.79,156.25c0,.88-.48,1.83-1.76,1.83s-1.71-.95-1.71-1.83.48-1.86,1.71-1.86,1.76.95,1.76,1.86Z"/>
    <path class="cls-2" d="m230.09,156.25c0,.88-.48,1.83-1.76,1.83s-1.71-.95-1.71-1.83.48-1.86,1.71-1.86,1.76.95,1.76,1.86Z"/>
    <path class="cls-2" d="m240.39,156.25c0,.88-.47,1.83-1.75,1.83s-1.71-.95-1.71-1.83.48-1.86,1.71-1.86,1.75.95,1.75,1.86Z"/>
    <path class="cls-2" d="m250.7,156.25c0,.88-.48,1.83-1.76,1.83s-1.71-.95-1.71-1.83.47-1.86,1.71-1.86,1.76.95,1.76,1.86Z"/>
    <path class="cls-2" d="m261,156.25c0,.88-.47,1.83-1.75,1.83s-1.71-.95-1.71-1.83.47-1.86,1.71-1.86,1.75.95,1.75,1.86Z"/>
    <path class="cls-2" d="m271.31,156.25c0,.88-.47,1.83-1.76,1.83s-1.71-.95-1.71-1.83.47-1.86,1.71-1.86,1.76.95,1.76,1.86Z"/>
  </g>
  <g>
    <path class="cls-2" d="m53.75,142.93h-7.97l-1.63,4.43h2.33c.29,0,.5.06.62.17.13.11.19.25.19.44,0,.17-.06.32-.19.43-.12.11-.34.17-.62.17h-4.54c-.29,0-.49-.06-.62-.17-.13-.12-.19-.26-.19-.43,0-.19.06-.33.19-.44.12-.11.33-.17.62-.17h.94l5.36-14.48h-3.58c-.29,0-.5-.06-.62-.17-.13-.11-.19-.26-.19-.44s.06-.33.19-.44c.13-.11.33-.17.62-.17h6.11l5.92,15.69h.94c.29,0,.5.06.62.17.12.11.18.25.18.44,0,.17-.06.32-.18.43-.13.11-.33.17-.62.17h-4.52c-.3,0-.51-.06-.64-.17-.12-.12-.19-.26-.19-.43,0-.19.07-.33.19-.44.13-.11.34-.17.64-.17h2.31l-1.66-4.43Zm-.46-1.21l-3.35-8.83h-.45l-3.25,8.83h7.05Z"/>
    <path class="cls-2" d="m90.6,148.58h-1.91l-3.44-12-3.37,12h-1.91l-1.79-15.69h-.45c-.29,0-.5-.06-.62-.17-.13-.11-.19-.26-.19-.44s.06-.33.19-.44c.12-.11.33-.17.62-.17h4.51c.3,0,.51.06.63.17.12.11.19.26.19.44s-.06.33-.19.44c-.12.11-.34.17-.63.17h-2.83l1.6,14.3,3.28-11.78h1.86l3.37,11.78,1.57-14.3h-2.85c-.29,0-.5-.06-.62-.17-.12-.11-.19-.26-.19-.44s.06-.33.19-.44c.13-.11.33-.17.62-.17h4.48c.3,0,.51.06.64.17.12.11.19.26.19.44s-.06.33-.19.44c-.13.11-.34.17-.64.17h-.45l-1.69,15.69Z"/>
    <path class="cls-2" d="m116.84,140.42v6.95h9.33v-3.58c0-.29.06-.5.16-.62.11-.13.26-.19.44-.19s.33.06.44.19c.11.13.17.33.17.62v4.8h-13.39c-.29,0-.5-.06-.62-.17-.13-.12-.19-.26-.19-.43,0-.19.06-.33.19-.44.12-.11.33-.17.62-.17h1.63v-14.48h-1.63c-.29,0-.5-.06-.62-.17-.13-.11-.19-.26-.19-.44s.06-.33.19-.44c.12-.11.33-.17.62-.17h12.76v4.18c0,.29-.05.5-.17.62-.11.12-.26.19-.44.19s-.33-.06-.44-.19c-.11-.13-.17-.33-.17-.62v-2.96h-8.69v6.31h4.35v-1.37c0-.29.06-.5.18-.62.11-.13.26-.19.44-.19s.32.06.44.19c.11.12.17.33.17.62v3.96c0,.29-.05.49-.17.62-.12.12-.26.18-.44.18s-.33-.06-.44-.18c-.12-.13-.18-.34-.18-.62v-1.37h-4.35Z"/>
    <path class="cls-2" d="m160.64,132.89v-.41c0-.29.05-.5.17-.62.11-.13.26-.19.44-.19s.33.06.44.19c.11.12.17.33.17.62v3.09c0,.29-.06.5-.17.62-.11.13-.26.19-.44.19s-.32-.06-.42-.17c-.11-.12-.17-.3-.18-.56-.05-.81-.46-1.54-1.25-2.18-.78-.65-1.81-.97-3.08-.97-1.34,0-2.4.35-3.19,1.04-.79.69-1.18,1.5-1.18,2.43,0,.48.11.92.33,1.32.22.39.52.71.88.96.37.25.78.44,1.24.59.47.15,1.18.31,2.17.47,1.65.27,2.78.55,3.41.83.84.37,1.47.9,1.9,1.56.43.67.64,1.45.64,2.35,0,1.39-.55,2.57-1.66,3.55-1.11.98-2.6,1.47-4.48,1.47-2.11,0-3.8-.66-5.06-1.98v.69c0,.29-.05.5-.16.62-.11.13-.26.19-.44.19-.17,0-.32-.06-.43-.19-.11-.12-.17-.33-.17-.62v-3.35c0-.3.06-.51.17-.64.11-.13.26-.19.44-.19s.32.06.43.18c.11.12.17.3.18.57.05.88.53,1.69,1.43,2.42.9.72,2.11,1.09,3.63,1.09s2.73-.38,3.6-1.14c.88-.76,1.32-1.66,1.32-2.7,0-.64-.17-1.2-.5-1.69-.34-.5-.84-.89-1.5-1.18-.46-.2-1.43-.43-2.89-.68-2.01-.34-3.46-.85-4.35-1.54-.89-.7-1.33-1.68-1.33-2.96s.51-2.37,1.52-3.28c1.02-.91,2.36-1.37,4.02-1.37s3.15.54,4.38,1.61Z"/>
    <path class="cls-2" d="m199.23,140.18c0,1.61-.33,3.12-.98,4.5-.65,1.38-1.55,2.46-2.71,3.23-1.15.77-2.39,1.15-3.71,1.15-1.95,0-3.68-.83-5.16-2.49-1.49-1.66-2.23-3.79-2.23-6.39s.74-4.75,2.23-6.4c1.49-1.66,3.21-2.49,5.16-2.49,1.32,0,2.56.39,3.7,1.16,1.14.77,2.05,1.84,2.71,3.22.66,1.38.99,2.88.99,4.51Zm-1.23,0c0-1.98-.57-3.75-1.72-5.32-1.14-1.57-2.63-2.36-4.45-2.36-1.7,0-3.16.75-4.37,2.25-1.2,1.5-1.81,3.31-1.81,5.43,0,2.25.63,4.09,1.9,5.52,1.27,1.43,2.69,2.15,4.28,2.15,1.82,0,3.31-.79,4.45-2.35,1.15-1.57,1.72-3.34,1.72-5.32Z"/>
    <path class="cls-2" d="m228.13,143.51h-1.39l-4.67-10.62h-.23v14.48h2.24c.29,0,.5.06.62.17.12.11.19.25.19.44,0,.17-.06.32-.19.43-.13.11-.33.17-.62.17h-4.48c-.29,0-.5-.06-.62-.17-.13-.12-.19-.26-.19-.43,0-.19.06-.33.19-.44.12-.11.33-.17.62-.17h1.03v-14.48h-.76c-.29,0-.5-.06-.62-.17-.12-.11-.19-.26-.19-.44s.07-.33.19-.44c.12-.11.33-.17.62-.17h2.97l4.6,10.46,4.52-10.46h2.98c.3,0,.51.06.64.17.12.11.19.26.19.44s-.06.33-.19.44c-.13.11-.34.17-.64.17h-.75v14.48h1.01c.3,0,.51.06.64.17.13.11.19.25.19.44,0,.17-.06.32-.19.43-.12.11-.34.17-.64.17h-4.46c-.29,0-.5-.06-.63-.17-.13-.12-.19-.26-.19-.43,0-.19.06-.33.19-.44.13-.11.34-.17.64-.17h2.24v-14.48h-.26l-4.58,10.62Z"/>
    <path class="cls-2" d="m258.89,140.42v6.95h9.33v-3.58c0-.29.06-.5.17-.62.11-.13.26-.19.44-.19s.33.06.44.19c.11.13.17.33.17.62v4.8h-13.39c-.29,0-.5-.06-.62-.17-.12-.12-.19-.26-.19-.43,0-.19.06-.33.19-.44.12-.11.33-.17.62-.17h1.63v-14.48h-1.63c-.29,0-.5-.06-.62-.17-.12-.11-.19-.26-.19-.44s.06-.33.19-.44c.12-.11.33-.17.62-.17h12.76v4.18c0,.29-.05.5-.17.62-.11.12-.26.19-.44.19s-.33-.06-.44-.19c-.11-.13-.16-.33-.16-.62v-2.96h-8.7v6.31h4.35v-1.37c0-.29.06-.5.17-.62.11-.13.26-.19.45-.19s.32.06.43.19c.11.12.17.33.17.62v3.96c0,.29-.06.49-.17.62-.12.12-.26.18-.43.18s-.33-.06-.45-.18c-.12-.13-.17-.34-.17-.62v-1.37h-4.35Z"/>
  </g>
  <g>
    <path class="cls-2" d="m208,60.12c0,29.82-24.17,53.99-53.99,53.99s-53.98-24.17-53.98-53.99S124.2,6.13,154.01,6.13s53.99,24.17,53.99,53.99Z"/>
    <path class="cls-3" d="m154.01,103.68c-11.63,0-22.57-4.53-30.8-12.76-8.22-8.23-12.76-19.17-12.76-30.8s4.53-22.58,12.76-30.8c8.23-8.23,19.17-12.76,30.8-12.76s22.57,4.53,30.8,12.76c8.23,8.23,12.76,19.17,12.76,30.8s-4.53,22.57-12.76,30.8c-8.23,8.23-19.16,12.76-30.8,12.76Zm0-85.45c-23.09,0-41.88,18.79-41.88,41.89s18.79,41.89,41.88,41.89,41.89-18.79,41.89-41.89-18.79-41.89-41.89-41.89Z"/>
    <path class="cls-3" d="m154.4,97.43c-20.69,0-37.53-16.84-37.53-37.53s16.84-37.53,37.53-37.53,37.54,16.84,37.54,37.53-16.84,37.53-37.54,37.53Zm0-74.07c-20.14,0-36.54,16.39-36.54,36.54s16.39,36.54,36.54,36.54,36.54-16.39,36.54-36.54-16.39-36.54-36.54-36.54Z"/>
  </g>
  <g>
    <g>
      <path class="cls-3" d="m207.59,11.09h0c-.64-.53-1.45.42-1.45.42l-21.23,25.31s-1.54.32-.77-1.07c.68-1.22,16.02-21.43,19.62-26.18.11-.15.76-1.01.27-1.42h0c-.49-.41-1.24.39-1.25.41l-21.04,24.92s-.57.69-1.49.06c-.79-.79-.23-1.48-.23-1.48l20.47-25.24h0l.39-.48c.15-.26.22-.59-.07-.84h0c-.52-.46-1.19.2-1.35.37-3.84,4.27-21.05,23.35-22.13,24.26-1.22,1.02-1.2-.55-1.2-.55l20.91-25.61h0c.45-.55.5-1.17,0-1.59-.5-.41-1.28.43-1.29.44-3.64,4.07-19.18,21.43-24.48,27.37-6.03,6.76-3.46,9.96-3.49,13.42-.03,3.45-5.14,8.58-5.14,8.58,0,0-30.95,32.66-46.88,47.02-14.6,13.15-7.89,19.36-6.66,20.31,1.16,1.03,8.52,6.45,18.7-10.34,11.12-18.34,37.42-54.85,37.42-54.85,0,0,4.08-5.97,7.46-6.65s7.02,1.24,12.53-5.94c4.78-6.23,18.58-24.29,22.16-28.96h0s.86-1.12.22-1.66Z"/>
      <path class="cls-2" d="m113.63,121.53h0c-2.6,0-4.31-1.34-4.77-1.75-.59-.45-2.6-2.25-2.73-5.55-.16-4.4,2.99-9.56,9.38-15.32,15.74-14.18,46.55-46.67,46.86-47,.05-.06,5-5.06,5.03-8.32,0-.74-.11-1.47-.24-2.25-.45-2.83-.97-6.03,3.83-11.4,5.3-5.95,20.83-23.31,24.48-27.38.16-.17.68-.68,1.25-.68.21,0,.4.07.56.2.64.53.66,1.36.05,2.11l-20.82,25.5c.02.19.07.37.12.4.03,0,.16-.01.45-.26.84-.7,12.42-13.49,22.09-24.22.18-.2.67-.66,1.23-.66.24,0,.47.09.65.25.38.33.43.81.15,1.31l-.43.54-20.47,25.24c-.06.07-.32.46.2.97.14.09.33.16.5.16.28,0,.44-.18.44-.19l21.04-24.92c.11-.12.64-.65,1.22-.65.21,0,.4.07.56.2.49.41.41,1.11-.21,1.93-9.13,12.03-19.08,25.21-19.59,26.14-.21.37-.17.5-.17.5,0,.01.09.05.27.05.05,0,.1,0,.14,0l21.14-25.2s.6-.72,1.31-.72c.24,0,.47.09.67.25.72.6.24,1.65-.17,2.18-3.57,4.67-17.37,22.73-22.16,28.97-4.38,5.72-7.62,5.81-10.48,5.89-.79.02-1.54.04-2.27.19-3.19.64-7.18,6.44-7.23,6.5-.27.37-26.42,36.71-37.4,54.83-6.1,10.07-11.25,12.18-14.5,12.18ZM196.76,2.65c-.26,0-.55.21-.73.41-3.64,4.06-19.17,21.42-24.47,27.37-4.56,5.11-4.07,8.13-3.65,10.79.13.81.26,1.58.25,2.38-.03,3.56-5.04,8.63-5.25,8.84-.3.32-31.13,32.83-46.9,47.03-6.13,5.52-9.29,10.62-9.14,14.73.11,2.97,1.91,4.58,2.45,5,.43.38,1.96,1.57,4.3,1.57h0c3.06,0,7.94-2.05,13.86-11.82,11-18.14,37.17-54.5,37.43-54.87.16-.24,4.2-6.1,7.69-6.8.79-.16,1.56-.18,2.39-.2,2.69-.08,5.74-.16,9.92-5.6,4.78-6.23,18.58-24.29,22.15-28.97.13-.18.57-.89.28-1.14-.29-.24-.77.19-.93.38l-21.31,25.41-.13.02s-.2.04-.41.04c-.55,0-.8-.23-.91-.42-.19-.31-.13-.72.16-1.24.66-1.18,13.96-18.74,19.65-26.23.31-.41.45-.8.33-.9-.27-.04-.59.21-.74.38l-21.03,24.9s-.39.45-1.02.45c-.32,0-.65-.11-.98-.33-.87-.86-.58-1.7-.3-2.03l20.86-25.72c.11-.21.03-.28-.03-.33-.07-.06-.12-.07-.16-.07-.2,0-.48.21-.67.41-3.5,3.89-21.05,23.36-22.16,24.3-.61.5-1.13.55-1.47.2-.33-.34-.34-.94-.34-1.05v-.13s20.99-25.71,20.99-25.71c.2-.25.48-.71.05-1.06-.02,0-.03,0-.05,0Z"/>
    </g>
    <g>
      <path class="cls-3" d="m112.74.53l41.62,54.12.99-.76,1.86,2.42-1.42,1.1s15.18,20.46,32.49,39.3c17.3,18.84,14.79,23.79,12.02,25.91,0,0-5.24,5.68-14.96-9.1-9.71-14.78-19.62-31.61-35.68-51.41l-1.47,1.13-1.86-2.42,1.38-1.06s-3.15-4.45-7.29-1.26l-17.79-23.14S102.64,8.29,112.74.53Z"/>
      <path class="cls-2" d="m197.39,124.07c-2.54,0-6.75-1.79-12.36-10.34-2.03-3.08-4.03-6.21-6.16-9.52-7.83-12.21-16.7-26.03-29.27-41.57l-1.48,1.13-2.31-3.01,1.37-1.06c-.52-.6-1.9-1.97-3.72-1.97-.94,0-1.88.36-2.8,1.07l-.29.23-18.02-23.43c-.83-1.12-20.1-27.47-9.83-35.36l.3-.23,41.62,54.13.99-.76,2.31,3.01-1.43,1.1c1.93,2.58,16.27,21.59,32.24,38.97,9.87,10.75,14.47,18.19,14.07,22.76-.17,2.01-1.28,3.08-2.1,3.71,0,0-1.08,1.15-3.14,1.15Zm-47.67-62.47l.23.28c12.72,15.69,21.66,29.63,29.55,41.92,2.12,3.31,4.13,6.44,6.15,9.52,9.39,14.29,14.29,9.14,14.37,9.05.75-.58,1.7-1.5,1.85-3.22.37-4.29-4.3-11.75-13.88-22.19-17.12-18.64-32.36-39.13-32.51-39.33l-.22-.29,1.42-1.09-1.4-1.83-.99.76L112.68,1.06c-9,7.76,10.07,33.81,10.26,34.08l17.56,22.84c.96-.67,1.95-1,2.95-1,2.71,0,4.49,2.46,4.57,2.57l.21.29-1.37,1.06,1.4,1.82,1.46-1.12Z"/>
    </g>
  </g>
  <g>
    <g>
      <g>
        <path class="cls-3" d="m36.58,239.72c.35.06.7.16,1.06.27-.36-.12-.72-.21-1.06-.27h0Z"/>
        <path class="cls-3" d="m38.42,240.28c-.13-.05-.25-.1-.37-.15.13.05.25.1.37.15Z"/>
        <path class="cls-2" d="m38.05,240.13c-.13-.05-.27-.09-.4-.14.13.04.27.09.4.14Z"/>
        <path class="cls-2" d="m36.09,239.65c-.23-.03-.47-.05-.69-.05.23,0,.46.03.69.05Z"/>
        <path class="cls-2" d="m47.42,240.16c.12-.2.22-.42.3-.66,0,.01,0,.02-.02.03-.08.23-.17.44-.28.63Z"/>
        <path class="cls-2" d="m39.29,240.67c-.29-.15-.58-.28-.87-.39.28.12.57.24.87.39Z"/>
        <path class="cls-3" d="m36.09,239.65c.17.02.33.04.49.08h0c-.16-.03-.33-.05-.49-.08Z"/>
        <path class="cls-3" d="m47.54,236.09c-.8-2.18-2.68-3.24-5.77-3.24-3.5,0-7.64,1.4-9.89,2.16-2.57.87-10.41,3.53-19.28,3.53-3.17,0-6.19-.34-9-1.02.71,2.6,3.36,8.69,13.07,11.51l1.08.32-.59.87c-.14.2-3.39,4.88-13.76,11.03,1.84.77,5.64,2,11.05,2,4.83,0,9.92-.96,15.26-2.89l.57-.13-.13-13.93c0-.13,0-.29,0-.48h0s0-1.01,0-1.01c.08-1.75.69-2.75.87-3,.78-1.02,2.16-2.19,4.4-2.19h0c.23,0,.46.02.69.05.17.02.33.04.49.08.35.06.7.15,1.06.27.13.04.27.09.4.14.13.05.25.1.37.15.28.11.57.24.87.39,0,0,5.25,2.37,7.58.21.04-.04.07-.08.11-.12.09-.1.17-.2.25-.31.07-.09.13-.18.19-.28.11-.19.21-.4.28-.63,0-.02.01-.02.02-.03,0-.02.01-.04.02-.06.09-.27.15-.58.19-.92.06-.74-.07-1.56-.39-2.43Z"/>
        <path class="cls-2" d="m30.14,246.29v-.48s0,0,0,0c.01.19.01.35,0,.48Z"/>
      </g>
      <path class="cls-2" d="m49.24,235.59c-.72-1.99-2.61-4.35-7.46-4.35-3.83,0-8.16,1.46-10.48,2.25-2.54.86-10.15,3.44-18.69,3.44-3.52,0-6.84-.44-9.86-1.3l-1.27-.37.11,1.2c.04.4,1.05,9.63,13.38,13.75-1.45,1.65-5.45,5.65-13.81,10.44l-1.16.66,1.14.69c.2.11,4.91,2.86,13.3,2.86,5.06,0,10.38-1,15.82-2.98l1.81-.41-.08-7.86,15.8,1.03,1.05-13.48c.76-1.15,1.33-2.96.38-5.56Zm-19.1,10.22v.48s.14,13.93.14,13.93l-.57.13c-5.34,1.93-10.44,2.89-15.26,2.89-5.41,0-9.21-1.23-11.05-2,10.37-6.15,13.62-10.83,13.76-11.03l.59-.87-1.08-.32c-9.7-2.82-12.36-8.91-13.07-11.51,2.81.68,5.83,1.02,9,1.02,8.87,0,16.71-2.66,19.28-3.53,2.25-.76,6.39-2.16,9.89-2.16,3.08,0,4.97,1.06,5.77,3.24.32.87.44,1.69.39,2.43-.04.34-.1.65-.19.92,0,.03-.01.04-.02.06-.08.25-.18.46-.3.66-.05.08-.11.16-.16.24-.61.71-1.81,1.23-3.88.27-4.18-1.87-7.24-1.61-9.25-.92-1.22.28-2.12.91-2.74,1.58t-.02.02c-.14.15-.26.3-.37.44-.18.26-.79,1.25-.87,3v1.01Z"/>
    </g>
    <g>
      <polygon class="cls-3" points="106.62 168.82 109.62 172.14 119.26 172.14 126.36 240.32 130.24 244.21 122.37 168.82 106.62 168.82"/>
      <polygon class="cls-3" points="147.54 231.79 140.77 168.82 132.68 168.82 138 173.25 145.1 236.89 151.97 236.89 149.53 231.79 147.54 231.79"/>
      <path class="cls-3" d="m191.66,168.82h-14.31c-1.77,0-3.21.66-4.43,1.89l2.55,2.21c.45-.44,1.44-.78,3-.78h12.3c1.88,0,3.44,1.55,3.44,3.44v61.76c0,1.88-.67,2.44-.89,2.66l2.55,2.56c.89-.89,1.66-2.22,1.66-4.1v-63.75c0-3.32-2.44-5.87-5.87-5.87Z"/>
      <path class="cls-3" d="m179.14,236.45v-59.87l-2.66-2.66c-.22.22-.67.89-.67,2.33v60.2c0,1.77,1.55,3.32,3.33,3.32h11.31c.78,0,1.22-.34,1.77-.89l-2.44-2.44h-10.64Z"/>
      <polygon class="cls-3" points="152.97 238.77 155.41 243.88 164.39 168.82 156.3 168.82 160.4 173.25 152.97 238.77"/>
      <polygon class="cls-3" points="49.19 176.58 45.87 173.36 45.87 203.52 55.18 203.52 59.73 207.95 59.73 200.19 49.19 200.19 49.19 176.58"/>
      <polygon class="cls-3" points="59.62 172.14 64.16 176.58 64.16 168.82 41.43 168.82 45.09 172.14 59.62 172.14"/>
      <polygon class="cls-3" points="80.79 168.82 73.03 168.82 77.46 173.25 77.46 239.77 88.11 239.77 92.55 244.21 92.55 236.45 80.79 236.45 80.79 168.82"/>
      <polygon class="cls-3" points="103.52 241.32 106.4 244.21 107.95 229.02 105.07 226.14 103.52 241.32"/>
      <polygon class="cls-3" points="108.95 221.26 113.61 176.58 110.61 173.25 105.29 224.58 123.81 224.58 120.37 221.26 108.95 221.26"/>
      <path class="cls-3" d="m230.58,207.73h-5.21c3.99,0,6.1,2.21,6.1,5.65v27.5l3.33,3.33v-30.82c0-3.21-2.11-5.32-4.21-5.65Z"/>
      <path class="cls-3" d="m253.09,176.58l-2.22-2.22c-.44.45-1.11,1.45-1.11,2.22v24.84c0,1.55,1.78,3.33,3.33,3.33h11.64c1.89,0,3.44,1.55,3.44,3.44v29.16c0,1.88-.67,2.44-.89,2.66l2.55,2.56c.89-.89,1.66-2.22,1.66-4.1v-31.16c0-3.32-2.44-5.87-5.87-5.87h-12.53v-24.84Z"/>
      <path class="cls-3" d="m265.62,168.82h-14.3c-1.77,0-3.21.66-4.44,1.89l2.55,2.21c.44-.44,1.44-.78,2.99-.78h12.31c1.89,0,3.44,1.55,3.44,3.44v10.53l3.32,3.33v-14.75c0-3.32-2.44-5.87-5.87-5.87Z"/>
      <path class="cls-3" d="m253.09,236.45v-13.42h-7.76l4.43,4.44v8.98c0,1.66,1.55,3.32,3.33,3.32h11.31c.78,0,1.22-.34,1.78-.89l-2.44-2.44h-10.64Z"/>
      <path class="cls-3" d="m227.7,204.41l-1.66-1.11s-.56.22-1.33.22h-8.32v-26.94l-3.32-3.21v33.48h9.31c1.77,0,4.1-.78,5.32-2.44Z"/>
      <path class="cls-3" d="m230.25,175.91v24.28c0,2.99-1.77,4.77-1.77,4.77l1.66,1.11c2.22-.55,3.44-2.65,3.44-4.98v-26.39c0-3.1-2.11-5.87-5.87-5.87h-19.07l3.66,3.32h14.3c1.89,0,3.66,1.67,3.66,3.77Z"/>
      <polygon class="cls-3" points="213.06 240.88 216.39 244.21 216.39 212.39 213.06 209.17 213.06 240.88"/>
      <path class="cls-2" d="m81.9,167.71h-9.98v77.61h21.73v-9.98h-11.75v-67.63Zm10.65,68.74v7.76l-4.44-4.44h-10.65v-66.52l-4.43-4.44h7.76v67.63h11.76Z"/>
      <path class="cls-2" d="m105.74,167.71l-8.2,77.61h9.98l1.55-15.19h11.09l1.55,15.19h9.76l-7.98-77.61h-17.74Zm.67,76.5l-2.88-2.89,1.55-15.19,2.88,2.88-1.55,15.19Zm-1.11-19.63l5.32-51.33,3,3.32-4.66,44.68h11.42l3.44,3.33h-18.52Zm9.32-46.9l4.43,42.46h-8.87l4.44-42.46Zm11.75,62.64l-7.1-68.18h-9.65l-2.99-3.32h15.74l7.87,75.39-3.88-3.88Z"/>
      <path class="cls-2" d="m148.54,229.79l-6.65-62.08h-10.31l9.42,77.61h15.08l9.43-77.61h-10.31l-6.65,62.08Zm-3.44,7.1l-7.1-63.64-5.32-4.44h8.09l6.76,62.97h2l2.44,5.1h-6.87Zm19.29-68.07l-8.98,75.06-2.44-5.1,7.43-65.52-4.1-4.44h8.09Z"/>
      <path class="cls-2" d="m192,167.71h-15.08c-3.55,0-6.65,3.1-6.65,6.65v64.42c0,3.55,3.11,6.54,6.65,6.54h15.08c3.66,0,6.65-2.99,6.65-6.54v-64.42c0-3.55-2.88-6.65-6.65-6.65Zm-1.55,72.06h-11.31c-1.78,0-3.33-1.55-3.33-3.32v-60.2c0-1.44.45-2.11.67-2.33l2.66,2.66v59.87h10.64l2.44,2.44c-.55.55-.99.89-1.77.89Zm-10.2-4.43v-57.65h8.43v57.65h-8.43Zm17.29,3.11c0,1.88-.78,3.21-1.66,4.1l-2.55-2.56c.22-.22.89-.77.89-2.66v-61.76c0-1.89-1.55-3.44-3.44-3.44h-12.3c-1.55,0-2.55.34-3,.78l-2.55-2.21c1.22-1.22,2.66-1.89,4.43-1.89h14.31c3.44,0,5.87,2.55,5.87,5.87v63.75Z"/>
      <path class="cls-2" d="m231.25,206.84c1.99-.56,3.44-2.66,3.44-5.43v-27.06c0-3.55-2.88-6.65-6.65-6.65h-20.51v77.61h9.98v-32.93h8.43v32.93h9.98v-31.93c0-2.77-1.67-5.87-4.66-6.54Zm-22.62-38.03h19.07c3.77,0,5.87,2.77,5.87,5.87v26.39c0,2.33-1.22,4.43-3.44,4.98l-1.66-1.11s1.77-1.77,1.77-4.77v-24.28c0-2.1-1.77-3.77-3.66-3.77h-14.3l-3.66-3.32Zm16.08,8.87v24.73h-7.21v-24.73h7.21Zm-8.32,66.52l-3.32-3.33v-31.71l3.32,3.22v31.82Zm-3.32-37.37v-33.48l3.32,3.21v26.94h8.32c.77,0,1.33-.22,1.33-.22l1.66,1.11c-1.22,1.66-3.55,2.44-5.32,2.44h-9.31Zm21.73,37.37l-3.33-3.33v-27.5c0-3.44-2.11-5.65-6.1-5.65h5.21c2.11.33,4.21,2.44,4.21,5.65v30.82Z"/>
      <path class="cls-2" d="m265.95,167.71h-15.08c-3.99,0-6.65,2.77-6.65,6.65v29.38c0,3.33,2.77,6.54,6.65,6.54h11.75v25.06h-8.43v-13.42h-9.98v16.85c0,3.55,3.1,6.54,6.65,6.54h15.08c3.66,0,6.65-2.99,6.65-6.54v-31.82c0-3.54-2.88-6.65-6.65-6.65h-11.75v-22.62h8.43v12.86h9.98v-16.3c0-3.77-2.88-6.54-6.65-6.54Zm-1.55,72.06h-11.31c-1.77,0-3.33-1.67-3.33-3.32v-8.98l-4.43-4.44h7.76v13.42h10.64l2.44,2.44c-.55.55-1,.89-1.78.89Zm1.22-38.36c3.44,0,5.87,2.55,5.87,5.87v31.16c0,1.88-.78,3.21-1.66,4.1l-2.55-2.56c.22-.22.89-.77.89-2.66v-29.16c0-1.89-1.55-3.44-3.44-3.44h-11.64c-1.55,0-3.33-1.78-3.33-3.33v-24.84c0-.77.67-1.77,1.11-2.22l2.22,2.22v24.84h12.53Zm5.87-11.97l-3.32-3.33v-10.53c0-1.89-1.55-3.44-3.44-3.44h-12.31c-1.55,0-2.55.34-2.99.78l-2.55-2.21c1.22-1.22,2.66-1.89,4.44-1.89h14.3c3.44,0,5.87,2.55,5.87,5.87v14.75Z"/>
    </g>
    <g>
      <polygon class="cls-3" points="45.87 205.85 45.87 228.67 45.87 240.88 45.87 259.16 45.87 290.1 45.87 298.39 49.19 298.39 49.19 290.1 49.19 259.16 49.19 244.21 49.19 228.67 49.19 209.06 45.87 205.85"/>
      <path class="cls-2" d="m65.27,177.69v-9.98h-24.95v130.68h9.98v-89.33h10.53v-9.98h-10.53v-21.4h14.97Zm-16.08,66.52l-.07-.07v1.17h.07v43.66h0s0,1.12,0,1.12h0v7.16l-3.33-3.37v-1.98h-.02v-8.62h.02v-34.93h0v-8.24h0v-34.28l3.33,3.21v35.15Zm10.53-44.02v7.76l-4.55-4.43h-9.31v-30.15l3.33,3.21v23.62h10.53Zm-14.63-28.05l-3.66-3.32h22.72v7.76l-4.54-4.44h-14.52Z"/>
    </g>
    <g>
      <path class="cls-1" d="m91.83,270.4l.37-.6c1.56-2.48-.92-2.98-2.42-.61l-1.68,2.68c.9.36,2.48.47,3.73-1.47Z"/>
      <path class="cls-1" d="m64.12,267.28l-4.06,5.52c-.67.89-.41,1.3.13,1.36,1,.11,2.58-.82,4.31-2.96l2.27-3.1c1.44-2.06-1.08-2.94-2.65-.82Z"/>
    </g>
    <g>
      <g>
        <path class="cls-3" d="m140.26,270.71l12.34-18.22.11-.06v-.55c-9.47.37-19.56.63-29.99.69,0,0,0,0,0,0-.81,0-51.18.44-72.02-1.78-13.05-1.38-17.47-5.14-18.95-7.75-.2.27-.44.51-.69.73l.31,27.49c.11.85.38,1.91.91,3.02.81,1.46,3,4.06,8.95,6.47,3.59,1.34,8.69,2.67,15.89,3.63,4.62.55,10.22,1,16.91,1.2,0,0,.03,0,.03,0,4.33.21,9.11.34,14.43.39,16.92.73,38.36.91,64.57-.12l-12.79-15.15Z"/>
        <path class="cls-2" d="m141.34,270.66l11.91-17.59.25-.13.11-.52v-1.38s-.93.03-.93.03c-10.21.4-20.29.63-29.95.69h-.69c-1.47.02-5.14.04-10.16.04-16.46,0-46.28-.24-61.07-1.81-13.7-1.45-17.47-5.55-18.51-7.84-.44.92-1.15,1.71-2.12,2.2l.3,26.92c.11.85.36,2.03.98,3.33,1.02,1.83,3.45,4.47,9.4,6.89,4.27,1.59,9.68,2.83,16.12,3.69,5.25.62,10.93,1.03,16.9,1.21h.17c4.39.22,9.26.35,14.42.39,19.42.83,41.42.79,64.62-.11l1.7-.07-13.46-15.93Zm-23.37,15.11c-10.25,0-20.15-.2-29.45-.6-5.18-.05-10.02-.18-14.43-.39-5.99-.18-11.66-.59-16.87-1.21-6.28-.83-11.55-2.04-15.66-3.57-5.74-2.33-7.79-4.82-8.49-6.1-.52-1.08-.73-2.1-.82-2.75l-.29-26.37c2.29,2.6,7.37,5.6,18.64,6.79,14.87,1.58,44.78,1.82,61.28,1.82,5.39,0,9.23-.03,10.45-.03h.81c9.13-.07,18.63-.29,28.26-.65l-12.21,18.03,12.13,14.36c-11.48.43-22.69.66-33.34.66Z"/>
      </g>
      <g>
        <path class="cls-2" d="m107.92,265.16c.8.01,1.44-.59,1.45-1.39,0-.8-.61-1.44-1.42-1.45-.8,0-1.42.61-1.43,1.41,0,.8.59,1.42,1.39,1.43Z"/>
        <path class="cls-2" d="m113.25,273.06l-.17.19c-1.77,2.03-3.5,3.65-4.58,3.64-.54,0-.84-.38-.28-1.34l5.28-9.12h2s.71-1.16.71-1.16h-2.02s2.32-4,2.32-4h-2.44s-2.32,3.98-2.32,3.98h-2.21s-.71,1.16-.71,1.16h2.23s-3.98,6.83-3.98,6.83c-1.78,2.01-3.51,3.6-4.58,3.58-.54,0-.84-.39-.26-1.34l5.36-9.07-2.44-.03-5.02,8.44c-1.06,1.8-.35,3.48,1.62,3.5,1.23.02,2.57-.77,3.91-1.9-.03,1.13.72,1.97,2.11,1.97,2.02,0,4.36-2.14,6.39-4.48-.16-.33-.59-.71-.91-.85Z"/>
        <polygon class="cls-2" points="122.64 261.22 115.02 274.6 117.48 274.59 125.09 261.21 122.64 261.22"/>
        <path class="cls-2" d="m114.9,275.57c-.8,0-1.41.64-1.4,1.44,0,.8.62,1.41,1.42,1.41.8,0,1.43-.62,1.43-1.42,0-.8-.64-1.43-1.44-1.43Z"/>
        <path class="cls-2" d="m94.29,272.8l-.17.18c-1.84,1.97-4.16,3.51-5.88,3.44-1.5-.06-2.36-1.03-1.15-2.96l.25-.41c1.55.72,4.52.53,6.47-2.57l.38-.6c1.41-2.2.2-3.94-1.79-4.02-1.97-.08-3.59.89-4.69,2.64l-2.72,4.27c-1.82,1.87-3.56,3.31-4.6,3.25-.54-.03-.83-.42-.21-1.35l5.74-8.84,1.99.11.77-1.14-2.02-.11,2.52-3.86-2.44-.14-2.52,3.86-2.21-.12-.77,1.13,2.23.13-3.23,4.93c-.75,1.14-1.94,2.29-2.07,2.42-.76.66-1.57,1.23-2.31,1.66.95-2.26,1.06-5.84,2.8-8.84l-1.75-1.12c-.97,1.13-2.93,3.55-5,5.74l-1.14,1.02h0l-.12.11-1,.89c-1.63,1.41-3.11,2.4-4.01,2.29-.54-.06-.8-.47-.13-1.36l4.71-6.42-1.38-.16c.21-1.02-.68-2.56-2.27-2.74-1.31-.15-3.25.67-4.47,2.33l-4.08,5.49c-1.23,1.68-.7,3.42,1.27,3.64.98.11,2.27-.38,3.54-1.2.01.94.68,1.68,1.92,1.82,1.63.19,3.61-1.02,5.52-2.61h0s.11-.09.28-.23c.1-.09.2-.17.3-.26.17-.14.36-.31.55-.48l2.36-2.31h0c.71-.79,1.34-1.53,1.85-2.11-1.15,2.46-.99,7.04-3.31,6.87-.82-.06-1.08-.98-1.08-.98l-1.58.68s.29,2,2.52,2.17c.23.02.45,0,.68,0,.02,0,.05-.02.07-.02,1.59-.09,3.21-.83,4.69-1.87-.28,1.28.43,2.33,1.96,2.42,1.43.08,3.08-.93,4.68-2.31.07,1.51,1.26,2.65,3.2,2.73,2.77.11,5.6-1.94,7.72-4.21-.15-.34-.56-.73-.88-.88Zm-4.52-3.61c1.5-2.37,3.98-1.87,2.42.61l-.37.6c-1.25,1.95-2.83,1.84-3.73,1.47l1.68-2.68Zm-25.28,2.02c-1.74,2.15-3.31,3.07-4.31,2.96-.54-.06-.8-.47-.13-1.36l4.06-5.52c1.57-2.11,4.09-1.24,2.65.82l-2.27,3.1Z"/>
        <path class="cls-2" d="m68.78,257.89l-.59-1.3c-1.81.95-3.51,1.49-4.95,1.79h0s-.04,0-.1.02c-1.67.34-2.93.36-3.52.34-.43-.02-.87-.07-1.32-.16-.53-.1-1.88-.41-2.39-.51-3.48-.71-6.29.73-6.83,3.38-.25,1.22.13,2.55,1.28,3.5l1.47-1.23c-.73-.63-.92-1.36-.77-2.1.26-1.27,1.92-2.23,3.97-1.8.55.11,1.98.5,2.61.63,1.29.26,2.69.22,3.89-.14l-9.25,10.5c-1.56,1.77-3.21,2.9-4.94,2.54-2.23-.46-2.59-2.55-.62-3.87l-1.03-1.51c-3.65,2.11-2.62,6.47.99,7.21,2.37.48,4.88-.4,7.62-3.48l8.16-9.2c2.7-3.04,6.32-4.61,6.32-4.61Z"/>
      </g>
    </g>
  </g>
</svg>