<?xml version="1.0" encoding="UTF-8"?>
<svg id="_Layer_" data-name="&amp;lt;Layer&amp;gt;" xmlns="http://www.w3.org/2000/svg" viewBox="0 0 83.55 69.46">
  <defs>
    <style>
      .cls-1 {
        fill: #047f3a;
      }

      .cls-2 {
        fill: #fffef7;
      }
    </style>
  </defs>
  <path class="cls-1" d="m83.55.34c0-.32-.32-.53-.65-.06-5,7.18-21.94,8.9-39.32,8.9-13.95,0-24.21,2.38-32.04,7.02C3.72,20.83,0,26.66,0,36.73v32.4c0,.32.29.5.65.06,5.73-6.97,23.38-12.06,41.55-12.06,13.52,0,22.91-1.55,29.41-5.43,8.53-5.09,11.94-13.97,11.94-26.18V.34Z"/>
  <path class="cls-2" d="m48.11,38.02c-1.1,2.65-2.3,3.84-3.25,3.86-.97.02-1.3-1.07-.31-3.67.85-2.23,2.31-3.99,3.4-4.02.86-.02,1.4.83.16,3.83m25.97-.6c-.27-.19-.61-.07-.99.46-1.62,2.23-2.93,3.07-3.9,3.07-.76,0-1.12-.61-.77-1.68.24-.75.77-1.66,1.25-2.91.47-1.21.26-2.16-.54-2.73-.6-.43-1.69-.72-2.35-1.07.52-1.2-.13-2.43-1.49-2.43-1.27,0-2.11,1.04-2.11,2.13,0,.83.47,1.5,1.39,1.85-2.3,4.61-4.66,6.89-6.16,6.89-.83,0-1.04-.75-.64-1.84.34-.95,1.44-2.79,1.71-3.7.25-.89.09-1.7-.75-2.21-.47-.29-1.15-.5-1.59-.72.39-1.04-.03-2.46-1.51-2.46-1.23,0-2.11.99-2.09,2.17.02.88.51,1.5,1.35,1.79-.54.71-1.37,1.05-2.01,1.1-.37.02-.66,0-.88-.12-.21-.11-.39-.27-.63-.76-.61-1.23-1.52-1.88-3.07-1.88-1.11,0-2.26.36-3.49,1.2-.92.63-1.72,1.42-2.67,2.67-.94,1.24-1.56,2.04-2.27,2.77-1.07,1.1-2,1.73-2.77,1.92-.43.11-.78.03-.96-.23-.18-.26-.14-.67.06-1.18.47-1.18,1.91-3.31,2.27-4.68.35-1.32-.19-2.42-1.65-2.42s-3.1.74-4.73,2.19c.28-1.2-.13-1.99-.94-2.19-1.47-.36-3.25.63-4.92,2.47-1.22,1.35-2.68,3.18-3.93,4.33-1.27,1.16-2.19,1.44-3.1,1.34-2.07-.24-2.75-3.91-4.68-5.15,2.47,0,5.3-.66,7.32-1.84,2.35-1.37,2.95-2.21,5.03-4.24,1.8-1.76,3.37-2.77,5.4-3.11.48-.08.71-.2.73-.52.02-.26-.16-.47-.57-.53-1.96-.24-4.48.25-6.66,1.53-2.37,1.39-3.88,3.07-6.47,5.09-.97.76-1.77,1.31-2.87,1.74-.86.34-1.9.56-2.7.54.84-1.67,1.77-3.55,2.49-4.93,2.24.01,3.61-1.48,3.61-2.71,0-.96-.83-1.63-1.94-1.63-1.42,0-2.61.72-3.55,1.96-5.09-.46-8.72,1.54-9.97,4.97-.14.38-.21.63-.19.81.01.16.08.27.2.33.12.06.27.07.41.01.15-.06.25-.19.42-.44,1.57-2.43,3.97-3.63,7.82-3.32-.37.51-1.39,2.36-2.59,4.68-.98-.2-2-.05-2.28.88-.21.71.23,1.43,1.1,1.45-1.61,2.93-3.09,5.82-3.49,6.62-.39.75-.21,1.22.47,1.17.76-.04,2.12-.45,2.73-.83.49-.31.67-.55,1.06-1.37.76-1.58,1.71-3.49,2.56-5.27.78.56,1.06,2.73,1.64,4.24.84,2.2,2.06,3.08,3.73,3.08,1.79,0,3.05-.65,4.67-2.56,2.69-3.18,4.11-5.32,5.44-6.29.41-.3.66-.37.81-.3.25.12.16.44-.04.86-.99,2.08-3.43,6.56-3.71,7.18-.34.75-.17,1.16.43,1.12.48-.03.68-.08,1.29-.26.6-.18,1.28-.41,1.65-1,.33-.52.43-.84.63-1.26.5-1.07.71-1.58,1.57-2.97,1.54-2.49,3.4-3.73,4.2-3.52.24.06.35.3.25.69-.06.23-.19.48-.41.88-.96,1.76-2.12,3.33-2.4,4.91-.27,1.5.57,2.54,2.01,2.54,1.97,0,4.23-1.54,6.6-4.23-.48,2.46.84,4.21,3.38,4.21,1.59,0,3.18-.6,4.65-2,1.37-1.3,2.36-3.17,2.65-5.17,1.11.33,2.94-.43,4.23-2,.61.37.68.72.43,1.37-.33.87-.65,1.4-1.32,2.61-.67,1.21-.97,2.17-.87,3.16.11,1.17.96,2.03,2.36,2.03,3.13,0,6.05-2.84,9.23-9.15,1.02.41,1.21.91,1.06,1.66-.16.75-.54,1.38-1.1,2.47-.55,1.07-.83,1.75-.83,2.69,0,1.33.85,2.34,2.5,2.34,2.17,0,4.69-2.03,6.52-4.97.47-.75.52-1.17.24-1.38"/>
  <path class="cls-2" d="m75.89,34.41c-2.23,0-3.72-1.53-3.72-3.8s1.5-3.79,3.72-3.79,3.72,1.52,3.72,3.79-1.5,3.8-3.72,3.8m0-8.44c-3.14,0-4.57,2.41-4.57,4.64s1.43,4.64,4.57,4.64,4.59-2.33,4.59-4.64-1.58-4.64-4.59-4.64m-.88,4.54v-1.43h1.23c.49,0,.72.35.72.7,0,.19-.07.37-.19.5-.13.15-.33.23-.57.23h-1.18Zm1.03.45h0s-.01-.02-.01-.02h.02v.02Zm.58.18c.7-.17,1.07-.78,1.06-1.37,0-.69-.5-1.38-1.45-1.38h-1.74c-.11,0-.2.09-.2.2v3.98c0,.11.09.2.2.2h.32c.11,0,.2-.09.2-.2v-1.36h.75l1.3,1.49s.09.07.15.07h.4c.11,0,.2-.09.2-.2v-.04s-.02-.1-.05-.13l-1.14-1.25Z"/>
</svg>