<?xml version="1.0" encoding="UTF-8"?>
<svg id="Layer_1" data-name="Layer 1" xmlns="http://www.w3.org/2000/svg" width="15.06cm" height="3.95cm" xmlns:xlink="http://www.w3.org/1999/xlink" viewBox="0 0 426.93 112.05">
  <defs>
    <linearGradient id="linear-gradient" x1="102.51" y1="112.05" x2="102.51" y2="0" gradientUnits="userSpaceOnUse">
      <stop offset="0" stop-color="#1f2655"/>
      <stop offset=".09" stop-color="#202b5d"/>
      <stop offset=".25" stop-color="#213266"/>
      <stop offset=".49" stop-color="#223469"/>
      <stop offset=".73" stop-color="#213165"/>
      <stop offset=".92" stop-color="#202a5b"/>
      <stop offset="1" stop-color="#1f2655"/>
    </linearGradient>
    <linearGradient id="linear-gradient-2" x1="315.97" y1="112.05" x2="315.97" y2="0" gradientUnits="userSpaceOnUse">
      <stop offset="0" stop-color="#a81f23"/>
      <stop offset="0" stop-color="#a81f23"/>
      <stop offset=".1" stop-color="#be212a"/>
      <stop offset=".2" stop-color="#cd232f"/>
      <stop offset=".32" stop-color="#d62432"/>
      <stop offset=".49" stop-color="#d92533"/>
      <stop offset=".66" stop-color="#d52431"/>
      <stop offset=".79" stop-color="#cb232e"/>
      <stop offset=".91" stop-color="#bb2129"/>
      <stop offset="1" stop-color="#a81f23"/>
    </linearGradient>
    <linearGradient id="linear-gradient-3" x1="213.46" y1="98.46" x2="213.46" y2=".75" gradientUnits="userSpaceOnUse">
      <stop offset="0" stop-color="#fff" stop-opacity=".2"/>
      <stop offset="1" stop-color="#fff" stop-opacity=".3"/>
    </linearGradient>
  </defs>
  <path d="m205.02,0H10.24C4.63,0,0,4.63,0,10.24v91.58c0,5.61,4.63,10.24,10.24,10.24h194.78V0Z" style="fill: url(#linear-gradient);"/>
  <path d="m416.69,0h-211.67v112.05h211.67c5.61,0,10.24-4.63,10.24-10.24V10.24c0-5.61-4.63-10.24-10.24-10.24Z" style="fill: url(#linear-gradient-2);"/>
  <path d="m132.34,105.32c1.4.7,4.07,1.54,7.57,1.54,5.89.14,9.12-2.1,11.5-7.43l31.69-70.68c-1.26-.7-4.21-1.54-6.59-1.54-4.07-.14-9.54.7-13.04,9.12l-10.24,24.26-20.19-32.68c-1.26-.42-4.49-.98-6.73-.98-7.15,0-11.08,2.66-15.15,7.15l-19.63,21.32,15.71,24.82c2.94,4.49,6.73,6.87,12.9,6.87,4.07,0,7.43-.98,8.98-1.68l-18.79-28.75,13.46-14.31,22.02,34.64-13.46,28.33h0Zm-41.65-26.65c0,5.19-2.1,8.27-12.2,8.27-1.4,0-2.52-.14-3.65-.28V17.39c0-5.19,1.82-10.8,12.06-10.8,1.26,0,2.67.14,3.79.42v71.66Zm-19.55-12.03c0,9.53-6.17,16.58-18.78,17.96-9.19.97-22.35-.14-28.66-.83-.27-.97-.41-2.35-.41-3.32,0-8.29,4.52-10.22,8.64-10.22,4.39,0,11.24.83,16.32.83,5.62,0,7.4-1.93,7.4-3.73,0-2.35-2.19-3.31-6.58-4.28l-11.93-2.35c-10.01-1.93-15.22-8.84-15.22-16.16,0-8.98,6.31-16.44,18.65-17.82,9.32-.97,20.7.14,27.01.83.27,1.1.27,2.07.27,3.18,0,8.29-4.39,10.08-8.64,10.08-3.29,0-8.23-.55-13.99-.55s-8.23,1.66-8.23,3.59c0,2.07,2.33,2.9,5.9,3.59l11.38,2.07c11.79,2.21,16.86,8.84,16.86,17.13h0Z" style="fill: #fff;"/>
  <g>
    <path d="m331.86,36.85c4.82-.14,7.51-2.48,7.51-10.4,0-1.93-.24-3.86-.48-5.05h-34.44c-9.54,0-11.33,5.6-11.33,11.21v46.48c0,5.6,1.79,11.21,11.33,11.21h27.41c4.82-.14,7.51-2.48,7.51-10.4,0-1.93-.24-3.86-.48-5.05h-28.67v-12.08h18.66c4.56-.13,7.1-2.22,7.1-9.31,0-1.73-.23-3.46-.45-4.53h-25.31v-12.08h21.64Z" style="fill: #fff;"/>
    <path d="m400.86,21.25h-49.54c-4.17,0-8.47,2.21-8.47,11.95,0,1.18.13,2.51.25,3.69h8.66s11.97,0,11.97,0v52.9c1.22.29,2.71.29,4.19.29,10.41,0,12.85-3.25,12.85-9.15v-.8s.02,0,.02,0v-43.38h11.85c4.17,0,8.47-2.21,8.47-11.95,0-1.18-.13-2.51-.25-3.54Z" style="fill: #fff;"/>
    <path d="m271.51,54.3l-.47-.15.5-.2c3.49-1.38,6.12-3.28,8.04-5.81,1.93-2.71,2.83-5.55,2.83-8.96,0-2.44-.44-4.73-1.34-7.01-.86-2.17-2.35-4.1-4.42-5.72-1.95-1.53-4.61-2.76-8.12-3.77-3.13-.9-7.14-1.34-12.26-1.34h-16.06c-2.16,0-3.64.17-4.78.55-1.26.47-2.21,1.04-2.81,1.7-.69.77-1.13,1.6-1.41,2.69-.25,1.13-.37,2.2-.37,3.41v51.91c0,1.2.12,2.28.37,3.39.23,1.02.69,1.91,1.41,2.7.67.74,1.59,1.3,2.81,1.7,1.32.44,3.06.68,4.9.68h16.65c9.46,0,16.51-1.76,20.97-5.23,4.68-3.54,6.95-8.4,6.95-14.84,0-3.56-1.03-6.71-3.07-9.36-2.13-2.77-5.6-4.91-10.33-6.35Zm-24.67-19.55h8.24c3.81,0,6.53.58,8.32,1.77,1.68,1.24,2.54,3.11,2.54,5.56,0,1.1-.14,1.94-.45,2.74-.31.91-.8,1.64-1.66,2.46-1.06.87-2.07,1.41-3.27,1.75-.98.29-2.65.64-5.11.64h-8.6v-14.92Zm17.75,40.55c-1.89,1.17-4.97,1.77-9.16,1.77h-8.6v-15.71h8.95c2.01,0,4.28.08,5.92.64,1.58.54,2.78,1.04,3.53,1.75h.01s.01.02.01.02c.84.7,1.42,1.54,1.77,2.57.31.8.45,1.63.45,2.62,0,2.96-.97,5.1-2.89,6.35Z" style="fill: #fff;"/>
  </g>
  <path d="m415.39.75s0,0-1.94,0-3.97,2.54-7.53,2.54H21c-3.56,0-5.58-2.54-7.53-2.54s-1.94,0-1.94,0C5.74.75.97,5.19.97,10.58v87.88s12.76-58.46,212.5-58.46c199.74,0,212.5,58.46,212.5,58.46V10.58c0-5.39-4.78-9.84-10.57-9.84Z" style="fill: url(#linear-gradient-3);"/>
</svg>