<?xml version="1.0" encoding="UTF-8"?>
<svg id="Egg2" xmlns="http://www.w3.org/2000/svg" viewBox="0 0 64.19 80.29">
  <defs>
    <style>
      .cls-1 {
        fill: aqua;
      }

      .cls-2 {
        fill: blue;
      }

      .cls-3 {
        fill: #ff0;
      }
    </style>
  </defs>
  <path class="cls-3" d="m46.23.61C20.31-7.2-29.09,62.73,22.76,78.39,74.6,94.02,72.13,8.44,46.23.61h0Zm0,0"/>
  <path class="cls-1" d="m42.12,2.29C19.46,9.75,6.54,29.87,5.11,46.23c-.93,10.53.7,13.58,10.57,26.22-7.9-13.05-7.35-23.19-3.24-30.92,3.27-6.17,4.4-11.91,8.63-18.89,4.56-7.48,12.14-8.71,21.05-20.34h0Zm0,0"/>
  <path class="cls-1" d="m49.15,5.99c1.69,3.4,3.83,7.23,3.32,11.31-1.1,9.06,2.87,14.78,2.22,22.23-.68,7.58-1.39,11.49-3.8,22.23-1.89,8.44-5.26,10.86-15.76,16.67,13.78-1.61,22.79-12.59,23.14-24.5.58-18.91,5.44-18.18,1.46-26.27-3.85-7.83-4.4-17.32-10.57-21.68h0Zm0,0"/>
  <path class="cls-1" d="m31.54,22.34c-4.28,12.02-10.48,13.2-10.82,20.5-.71,14.43-5.54,19.51,3.29,33.62.15-9.22-1.08-14.25-.45-23.04.93-13.4,6.27-16.14,9.22-21.03,3.4-5.59,6.24-18.91,12.01-28.33-3.05,4.03-11.06,12.22-13.25,18.28h0Zm0,0"/>
  <path class="cls-1" d="m46.4,25.49c-6,11.25,1.44,16.77-2.31,23.06-7.38,12.41-1.36,22.13-16.52,28.98,4.96-7.73,3.95-14.1,8.31-21.73,6.63-11.69,3.68-16.95,3.93-22.64.28-6.55,7-18.23,7.43-29.26.33,5.03,2.57,15.18-.83,21.58h0Zm0,0"/>
  <path class="cls-2" d="m24.19,24.91c.07-1.06-4.16.17-2.04-2.8,1.57-2.19,1.86,3.13,2.52,1.86.5-.98-1.66-4.13,1.11-4.91,1.76-.5-.3,3.98-.08,4.86.35,1.41,3.98-3.12,3.83-.57-.23,4.25-3.5,1.01-4.13,2.14-.45.83,1.56,3.17-.15,3.52-2.37.48.08-1.96-.86-2.64-.93-.68-1.89,3.68-3.05,1.26-1.28-2.67,2.72-1.49,2.85-2.72h0Zm0,0"/>
  <path class="cls-2" d="m31.37,48.5c1.06-.28-1.44-4.86,2.04-3.47,2.57,1.03-2.39,3.4-.98,3.7,1.06.23,3.4-3.53,5.01-.53,1.01,1.89-3.9,1.13-4.65,1.74-1.24.95,4.18,3.55,1.73,4.35-4.13,1.31-2.04-3.78-3.32-4.1-.91-.25-2.52,3.04-3.4,1.15-1.18-2.64,1.91-.68,2.27-2.04s-4.11-.86-2.14-3.17c2.14-2.52,2.24,2.72,3.45,2.37h0Zm0,0"/>
  <path class="cls-2" d="m43.63,64.17c.83.28,1.49-4.86,3.02-1.97,1.16,2.14-3.2,1.71-2.44,2.67.55.7,3.93-1.33,3.47,2.01-.3,2.12-3.07-.95-3.85-.81-1.26.21.93,5.09-1.01,4.56-3.32-.9.53-4.23-.12-5.13-.46-.66-3.13,1.36-2.75-.68.55-2.82,1.56.35,2.44-.61.91-1.01-2.19-2.77.2-3.75,2.62-1.11.1,3.4,1.03,3.71h0Zm0,0"/>
</svg>