<?xml version="1.0" encoding="UTF-8"?>
<svg id="Egg3" xmlns="http://www.w3.org/2000/svg" viewBox="0 0 81.05 103.35">
  <defs>
    <style>
      .cls-1 {
        fill: blue;
      }

      .cls-2 {
        fill: #f55;
      }

      .cls-3 {
        fill: #fff;
      }

      .cls-4 {
        fill: #ff0;
      }
    </style>
  </defs>
  <path class="cls-1" d="m27.48.39C-6.42,7.54-18.85,116.35,48.93,102.05,116.71,87.75,61.36-6.76,27.48.39h0Zm0,0"/>
  <path class="cls-3" d="m63.71,26.06c-.29.13-.58.29-.77.54-4.61,4.64-11.76,11.28-26.45,15.24-14.63,3.93-25.94,1.64-31.48.07-1.03-.29-2.22.39-2.48,1.42-.29,1.03.39,2.22,1.39,2.51,5.96,1.68,18.11,4,33.61-.16,15.46-4.19,23.48-11.44,28.21-16.2.74-.61.94-1.77.45-2.57-.51-.81-1.61-1.2-2.48-.84h0Zm0,0"/>
  <path class="cls-3" d="m70.64,42.52c-.09.03-.16.07-.26.13-1.96,1.1-4.99,3.64-10.12,6.63-5.09,2.97-11.95,6.28-20.55,8.38-17.2,4.22-29.93.26-34.14-.96-1.03-.29-2.23.39-2.52,1.42-.29,1.03.39,2.22,1.42,2.51,4.06,1.16,17.94,5.45,36.15,1.01,9.05-2.23,16.36-5.74,21.71-8.87,5.35-3.13,9.06-6.02,9.99-6.54.97-.45,1.45-1.71,1.03-2.7-.45-.96-1.74-1.45-2.7-1h0Zm0,0"/>
  <path class="cls-4" d="m3.31,48.77c-.8.32-.83,1.71,0,2.06,10.63,4.54,23.61,4.7,35.66,2,12.02-2.74,23.2-8.31,30.28-15.46.84-.87-.83-2.45-1.64-1.58-6.67,6.73-17.43,12.17-29.09,14.85-11.69,2.64-24.26,2.44-34.34-1.84-.26-.13-.59-.16-.87-.03h0Zm0,0"/>
  <path class="cls-2" d="m29.73,20c1.84-1.94-9.15-8.51-.06-9.92,6.73-1.03-.84,10.18,2.54,9.05,2.55-.83,2.77-11.73,9.92-7.41,4.58,2.74-6.8,7.31-7.66,9.53-1.36,3.55,13.34,2.25,9.18,6.99-7.09,7.98-9.09-5.42-12.21-4.51-2.22.64-1.48,9.63-5.7,6.7-5.83-4.09,3.16-3.77,2.22-7.08-.96-3.38-9.72,3.28-8.5-4.02,1.39-8.02,8.16,2.86,10.28.64v.03Zm0,0"/>
  <path class="cls-2" d="m19.84,79.34c1.29-2.32-10.95-6-2.52-9.57,6.28-2.67,1.71,10.05,4.71,8.15,2.25-1.45-.2-12.08,7.79-9.63,5.09,1.55-4.8,8.77-5.09,11.12-.45,3.77,13.5-1.06,10.6,4.54-4.93,9.5-10.12-3.03-12.91-1.39-2,1.19.9,9.72-3.9,7.89-6.64-2.52,2.13-4.44.42-7.41-1.74-3.03-8.63,5.54-9.21-1.83-.65-8.09,8.59.8,10.11-1.87h0Zm0,0"/>
  <path class="cls-2" d="m61.65,72.48c.87,3.19,14.79-4.29,10.54,6.22-3.16,7.79-10.28-7.31-11.22-3.03-.71,3.22,10.66,10.37,1.55,15.2-5.8,3.09-3.41-11.82-5.22-14.13-2.89-3.74-10.89,12.66-13.2,5.24-4-12.59,11.46-6.19,12.46-10.04.74-2.77-9.24-7.7-3.45-10.31,7.99-3.58,2,5.76,6.09,6.86,4.18,1.12,2.7-12.4,9.66-6.45,7.6,6.54-8.21,6.8-7.22,10.44h0Zm0,0"/>
</svg>