<?xml version="1.0" encoding="UTF-8"?>
<svg id="five" xmlns="http://www.w3.org/2000/svg" viewBox="0 0 68.03 155.26">
  <defs>
    <style>
      .cls-1 {
        fill: #ffdcc5;
      }

      .cls-2 {
        fill: #fc9451;
      }

      .cls-3 {
        fill: #666;
      }
    </style>
  </defs>
  <path class="cls-2" d="m68.03,63.68c0-16.01-13.87-33.95-30.25-33.42-3.48-2.01-10.64-1.79-13.32-.48C24.14,19.17,13.73,6.86,4.99,0c-2.66,20.45,1.32,26.97,12.55,33.82-2.1,4.12-3.61,6.4-4.27,10.3-3.5,4.73-4.09,15.25-.48,18.14-1.25,8.33-5.97,13.66-6.52,26.59.98,4.19-16.4,29.95,2.78,54.96-.51,4.12-4,10.5,1.05,10.8,7.04.43,8.84-5.17,9.84-9.46,6.5,2.07,14.1,1.64,19.94.19.91,5.07,4.34,10.75,9.22,9.68,5.36-1.19,1.55-7.31.84-11.61,20.23-23.74,1.88-49.31,2.59-54.29-.71-12.92-4.82-18.88-5.97-26.13,2.74-2.14,3.5-9.96.41-16.21,4.47,7.47,9.34,16.86,21.06,16.9h0Zm0,0"/>
  <path class="cls-1" d="m49.81,143.39c2.24,4.78,2.73,10.16.91,11.17-4.68,2.6-10.79-2.41-10.66-9.11-7.25,1.57-14.82,1.88-20.11-.18.12,6.84-6.57,11.26-11.25,9.18-3.69-1.64-.61-7.84.26-10.46.05-26.99,11.07-60.41,21.08-60.44,10.01-.01,20.86,44.02,19.76,59.83h0Zm0,0"/>
  <path class="cls-2" d="m10.96,92.93c3.48,6.79,6.32,14.15,12.12,17.64,1.89,1.55,2.27,2.59,4.41,1.64,4.25-1.84.82-7.9-.55-10.18-1.73-4.05-3.68-8.32-4.41-12.67-.89-1.84-2.02-3.55-3.54-4.45-4.44.86-6.06,4.67-8.04,8.03h0Zm0,0"/>
  <path class="cls-2" d="m48.08,92.9c-3.48,6.79-6.32,14.15-12.12,17.63-1.89,1.55-2.27,2.58-4.41,1.66-4.25-1.86-.82-7.9.55-10.2,1.73-4.04,3.68-8.33,4.41-12.67.44-14.93,15.12-5.31,11.57,3.58h0Zm0,0"/>
  <path class="cls-1" d="m29.14,52.66c-5.84.01-4.28,9.52-15.58,9.5.09,2.37,10.16,3.41,16,3.39,5.82,0,16.87-.63,16.7-2.69-11.08-.73-11.28-10.23-17.12-10.21h0Zm0,0"/>
  <path class="cls-3" d="m22.46,88.92c-.23.03-.39.28-.34.51.74,4.42,2.7,8.74,4.43,12.78,0,.01.01.01.02.02.68,1.13,1.87,3.2,2.34,5.14.24.98.27,1.92.06,2.67-.23.76-.69,1.37-1.66,1.79-1.01.44-1.43.39-1.93.11-.49-.27-1.07-.9-2.05-1.7-.02-.01-.04-.02-.06-.02-5.62-3.38-8.46-10.66-11.95-17.47-.09-.23-.39-.35-.6-.23-.21.11-.28.43-.15.62,3.45,6.74,6.28,14.18,12.22,17.77.02,0,.04,0,.06.02.88.74,1.44,1.38,2.13,1.77.7.39,1.54.41,2.67-.09,1.16-.5,1.85-1.34,2.13-2.32.29-.96.2-2.02-.06-3.08-.51-2.1-1.7-4.18-2.39-5.34v-.04s-.02-.01-.02-.02c-1.73-4.03-3.67-8.27-4.38-12.5-.02-.23-.25-.41-.48-.38h0Zm0,0"/>
  <path class="cls-3" d="m36.41,88.89c-.16.04-.29.18-.31.34-.72,4.25-2.63,8.5-4.36,12.54,0,.01-.01.04-.02.05-.69,1.17-1.91,3.22-2.43,5.31-.25,1.06-.33,2.12-.05,3.1.28.96.98,1.81,2.13,2.32,1.13.49,1.96.5,2.67.11.68-.38,1.25-1.04,2.13-1.76.02-.02.04-.04.06-.06,5.93-3.6,8.77-11.03,12.22-17.76.16-.2.09-.54-.14-.66-.23-.11-.55.04-.61.27-3.49,6.81-6.32,14.08-11.96,17.45-.01.01-.04.02-.05.02-.98.8-1.56,1.47-2.05,1.74-.5.27-.92.31-1.93-.13-.96-.43-1.43-1.04-1.66-1.79-.21-.76-.18-1.67.06-2.64.48-1.94,1.67-4.02,2.34-5.15.01-.02.02-.04.02-.06,1.72-4.03,3.69-8.35,4.43-12.78.04-.26-.24-.54-.51-.48h0Zm0,0"/>
  <path class="cls-3" d="m30.98,48.07c-.25,0-.46.24-.43.48.07,1.02-.15,1.72-.45,2.13-.31.43-.68.61-1.07.59-.8-.04-1.75-.84-1.66-2.67.01-.23-.18-.44-.39-.46-.23-.01-.44.18-.46.4-.11,2.16,1.11,3.53,2.47,3.57.67.02,1.36-.31,1.81-.93.45-.63.7-1.55.61-2.73-.01-.21-.2-.39-.42-.39h0Zm0,0"/>
  <path class="cls-3" d="m29.02,51.43c-.2.03-.36.25-.34.45l.08,3.39c0,.23.2.43.42.43.23,0,.44-.2.43-.43l-.07-3.42c0-.25-.26-.48-.51-.43h0Zm0,0"/>
  <path class="cls-3" d="m25.82,54.23c-.23,0-.43.2-.43.43-.06.87.61,1.62,1.48,1.89.74.24,1.64-.09,2.37-.96.75.82,1.63,1.17,2.37.96.86-.23,1.5-.99,1.44-1.83-.01-.23-.24-.42-.47-.39-.23.02-.4.24-.38.46.02.37-.31.8-.81.94-.49.13-1.14.02-1.81-.94-.17-.24-.57-.21-.71.02-.62,1.01-1.25,1.09-1.77.94-.51-.17-.88-.68-.86-1.04.04-.25-.18-.49-.43-.49h0Zm0,0"/>
  <path d="m17.72,41.93c0,1.18-.93,2.15-2.07,2.15s-2.07-.97-2.07-2.15.93-2.16,2.07-2.16,2.07.97,2.07,2.16h0Zm0,0"/>
  <path d="m45.83,42.58c0,1.18-.92,2.14-2.06,2.14s-2.07-.96-2.07-2.14.91-2.16,2.07-2.16,2.06.97,2.06,2.16h0Zm0,0"/>
</svg>