<?xml version="1.0" encoding="UTF-8"?>
<svg id="four" xmlns="http://www.w3.org/2000/svg" viewBox="0 0 85.75 138.5">
  <defs>
    <style>
      .cls-1 {
        fill: #fff;
      }

      .cls-2 {
        fill: #ececec;
      }

      .cls-3 {
        fill: #666;
      }

      .cls-4 {
        fill: #1a1a1a;
      }
    </style>
  </defs>
  <path class="cls-2" d="m17.69,80.97c-4.86,15.69-7.59,36.7,7.05,45.7-2.54,3.44-4.18,10.27,1.68,11.66,5.85,1.38,8.72-6.54,10.02-10.42,4.17.47,10.54.69,14.58-.14-.81,3.97,3.24,12.15,9.66,10.05,5.1-1.64,3.29-6.68,1.14-11.27,16.96-10.17,10.58-31.98,5.87-45.04,1.94.62,5.97,2.17,8.68,4.48,2.22,1.88,3.18,4.67,6.95,4.11,4.51-.68,1.64-7.02.13-10.07-3.49-7.03-14.37-11.33-20.32-11.85-.87-1.58-1.79-3.08-2.32-4.53,3.68-9.73-5.9-23.14-3.89-25.23,6.96-13.08,4.25-25.67-9.17-38.21-3.82,8.16-4.5,23.49-2.64,33.45-2.11-.36-4.43-.41-7.15,0,1.04-10.42.17-25.39-4.13-33.54-11.85,12.71-13.54,26.32-6.09,36.57,1.8,2.93-7.96,15.47-4.54,26.01-.06,1.01-.54,2.38-1.23,3.97-4.37-.89-9.59-7.24-12.6-13.26-1.31-3.13-5.37-5.04-7-3.8-3.3,2.48-2.64,8.43-1.02,11.14,3.55,9.02,7.93,16.26,16.77,17.56-.17.75-.32,1.69-.42,2.66h0Zm0,0"/>
  <path class="cls-4" d="m27.74,39.18c1.63-.25,3.06.11,3.14,2.96,2.6,2.52-1,6.98-2.96,5.41-1.2-.14-2.49-.61-2.67-1.72.39-2.42,1.54-4.5,2.49-6.66h0Zm0,0"/>
  <path class="cls-4" d="m56.66,40.23c-3.13-1.44-6.03,2.2-3.99,5.6.48,1.81,1.79,2.95,3.87,2.61,1.36.55,2.39-.01,2.62-1.39-.58-2-1.88-5.84-2.5-6.82h0Zm0,0"/>
  <path class="cls-4" d="m34.58,52.05c-2.32,3.95,1.05,6,2.35,7.2,1.06,2.89,8.92,2.26,9.8-.54,2.58-1.67,2.07-9.16-.81-10.98-.59-1.88-2.71-3.84-5.09-3.64-4.92.01-5.87,5.87-6.25,7.97h0Zm0,0"/>
  <path class="cls-4" d="m37.97,33.37c2.64-5.39-1.2-31.6-4.15-33.37-11.89,13.11-14,26.55-5.93,37.29,2.06-2.84,7.19-2.19,10.08-3.92h0Zm0,0"/>
  <path class="cls-4" d="m44.99,33.7c-2.55-5.81-.5-30.45,2.85-33.45,13.36,11.78,16.66,25.99,8.92,38.59-2.07-2.86-8.89-3.42-11.77-5.14h0Zm0,0"/>
  <path class="cls-4" d="m38.28,36.3c-.81-.67-2.46,2.55,0,2.55,1.31,1.39,2.56.05,2.16-1.14.18-1.87-.88-2.18-2.16-1.41h0Zm0,0"/>
  <path class="cls-4" d="m44.26,39.48c-.61-.12-2.07.7-.89,2.17-.84,1.8,1.17,2.05,1.79,1.01,1.81-.86.95-1.99.5-2.54.41-1.52-.39-1.24-1.39-.64h0Zm0,0"/>
  <path class="cls-4" d="m20.54,89.18c-2.27-1.36.01-3.76.82-3.92,2.24-3.67,3.53,1.14,1.66,2.26,1.06,2.89-1.66,4.14-2.48,1.66h0Zm0,0"/>
  <path class="cls-4" d="m13.97,99.16c1.86.74,2.57,4.35-.16,5.99-.07-2.41-.05-4.44.16-5.99h0Zm0,0"/>
  <path class="cls-4" d="m21.98,115.43c-3.04.51-2.13-3.79-1.44-4.95,1.93-2.49,2.84.99,2.27,2.68.93,1.49,1.01,2.27-.83,2.27h0Zm0,0"/>
  <path class="cls-4" d="m67.76,81.64c-2.77.29-2.94,3.4-.51,4.86-.16,2.59,2.05,2.42,3.1,3.1-.64-3.29-1.93-7-2.59-7.96h0Zm0,0"/>
  <path class="cls-4" d="m65.59,101.58c-2.76-1.64.25-4.67,1.24-3.71,2.32-3.81,3.07,1.46,1.03,3.1,2.27,2.92-.48,2.43-2.27.62h0Zm0,0"/>
  <path class="cls-4" d="m72.82,108.67c-1.16-.27-3.96.91-2.68,3.05-.43,1.62.87,2.17,1.7,2.01.45-1.37.98-3.38.98-5.06h0Zm0,0"/>
  <path class="cls-4" d="m58.77,113.99c-3.09-.5-2.74,3.49-.82,4.13,3.9,0,4.55-4.85.82-4.13h0Zm0,0"/>
  <path class="cls-4" d="m73.28,83.91c2.13-2.23,4.54,1.66,3.42,2.37-.88-.86-2.38-1.68-3.42-2.37h0Zm0,0"/>
  <path class="cls-1" d="m28.1,40.62c-1.26,0-2.24,1.24-2.24,2.72s.98,2.73,2.24,2.73,2.24-1.25,2.24-2.73-.98-2.72-2.24-2.72h0Zm0,.42c.98,0,1.81,1,1.81,2.3s-.83,2.3-1.81,2.3-1.81-1-1.81-2.3.83-2.3,1.81-2.3h0Zm0,0"/>
  <path class="cls-1" d="m55.83,41.38c-1.26,0-2.24,1.25-2.24,2.73s.98,2.71,2.24,2.71,2.24-1.24,2.24-2.71-.98-2.73-2.24-2.73h0Zm0,.43c.98,0,1.81,1,1.81,2.3s-.84,2.3-1.81,2.3-1.81-1-1.81-2.3.84-2.3,1.81-2.3h0Zm0,0"/>
  <path class="cls-3" d="m39.24,46.71c-.29.01-.49.38-.35.63.23.42.57.89.94,1.34.36.45.71.82,1.09,1.05.12.07.27.08.39.02.44-.21.76-.59,1.1-1.03.33-.44.62-.93.82-1.31.14-.2.07-.51-.14-.62-.21-.12-.51,0-.59.21-.19.34-.45.79-.75,1.18-.23.3-.44.48-.61.61-.2-.16-.42-.33-.67-.63-.33-.41-.63-.88-.81-1.2-.07-.15-.25-.26-.43-.24h0Zm0,0"/>
  <path class="cls-3" d="m40.97,49.04c-.19.05-.32.23-.32.42l.08,2.86c.01.23.21.42.44.42.23-.01.42-.21.42-.44l-.08-2.86c-.01-.25-.29-.46-.54-.39h0Zm0,0"/>
  <path class="cls-3" d="m41.19,51.81c-.2-.01-.4.17-.43.37-.31,1.69-1.27,2.16-1.87,2.11-.3-.02-.48-.16-.58-.41-.09-.24-.11-.64.21-1.23.11-.19.04-.48-.15-.58-.2-.11-.48-.04-.6.16-.41.74-.49,1.44-.26,1.98.23.55.74.88,1.31.94.88.07,1.87-.51,2.42-1.74.7,1.27,1.77,1.84,2.7,1.74.57-.07,1.11-.44,1.27-1.02.16-.57-.01-1.24-.59-1.92-.27-.34-.94.19-.66.54.45.55.51.94.45,1.14-.06.21-.26.37-.58.41-.66.08-1.77-.41-2.24-2.17-.05-.17-.23-.31-.41-.31h0Zm0,0"/>
  <path class="cls-4" d="m15.99,63.97c.51,1.14,1.48,1.05,2.2.81-1.06-.83-2.33-2.06-3.08-2.87-.67.7-.09,1.91.88,2.06h0Zm0,0"/>
</svg>