<?xml version="1.0" encoding="UTF-8"?>
<svg id="one" xmlns="http://www.w3.org/2000/svg" viewBox="0 0 116.27 246.17">
  <defs>
    <style>
      .cls-1 {
        fill: #f2f2f2;
      }

      .cls-2 {
        fill: #666;
      }

      .cls-3 {
        fill: #1a1a1a;
      }
    </style>
  </defs>
  <path class="cls-3" d="m108.03,157.4c9.23-17.71-6.99-52.52-15.66-60.94,6.06-10.8-2.79-24.46-5.11-27.56,0-7.56-5.56-11.46-6.31-17.02,11.78-4.65,2.64-40.47,1.95-51.34-10.64,5.29-20.42,18.49-23.8,38.73-1.72-1-5.02-1.12-6.63,0C48.45,19.15,40.37,7.28,29.25,0c.07,12.25-8.31,47.49,1.18,51.37-.02,4.56-4.65,8.75-4.43,16.85-2.13,2.25-11.88,16.99-5.06,28.56-8.85,7.49-22.07,41.09-14.11,60.62-10.28,29.02-9.6,41.52,6.35,64.28-5.08,6.44-7.42,20.3,1.27,23.55,12.59,4.7,20.98-10.7,24.18-20.37,9.33,2.72,27.36,2.56,42.02-.64,3.61,11.44,10.23,24.68,22.91,21.01,9.77-2.83,6.96-15.5.63-24.82,15.68-20.96,15.11-32.35,3.82-63h0Zm0,0"/>
  <path class="cls-1" d="m58.18,139.82c14.41.25,49.44,41.7,45.92,80.49,8.21,11.3,7.76,22.12-.39,24.89-8.82,2.99-18.83-3.32-23.09-20.92-14.57,3.43-28.38,3.86-42.13.84-2.47,7.87-9.48,25.16-24.21,20.14-10.82-3.69-3.93-20.87-.95-23.32-5.45-38.64,30.47-82.38,44.85-82.13h0Zm0,0"/>
  <path class="cls-3" d="m20.84,150.39c2.81,5.78,11.7,21.87,19.1,29.27,5.13,5.18,9.35,8.85,14.63,5.11,6.15-4.38,2.07-12.52.64-17.83-1.82-6.76-4.08-11.77-5.11-17.81-4.61-16.29-24.21-9.17-29.27,1.27h0Zm0,0"/>
  <path class="cls-3" d="m95.36,149.62c-2.82,5.78-11.73,21.87-19.1,29.28-5.13,5.15-9.35,8.83-14.64,5.08-6.17-4.36-2.06-12.52-.63-17.81,1.81-6.76,4.08-11.8,5.08-17.83,5.49-24.96,23.08-13.64,29.29,1.27h0Zm0,0"/>
  <path class="cls-1" d="m29.12,56.08c-1.61,1.91-3.5,8.39-3.29,12.23,12.57,7.07,12.32-12.84,3.29-12.23h0Zm0,0"/>
  <path class="cls-1" d="m83.11,57.21c-11.12-.48-6.71,20.67,4.2,11.78-.23-4.58-1.86-8.51-4.2-11.78h0Zm0,0"/>
  <path class="cls-1" d="m55.64,71.17c-15.32,1.04-.93,29.1-30.81,26.29,23.62,11.59,43.88,12.34,64.03.23-27.77,1.59-17.88-27.54-33.22-26.52h0Zm0,0"/>
  <path d="m34.26,63.09c0,2.54-1.81,4.61-4.06,4.61s-4.04-2.06-4.04-4.61,1.81-4.61,4.04-4.61,4.06,2.07,4.06,4.61h0Zm0,0"/>
  <path d="m86.54,64.11c0,2.54-1.81,4.61-4.04,4.61s-4.06-2.07-4.06-4.61,1.81-4.63,4.06-4.63,4.04,2.06,4.04,4.63h0Zm0,0"/>
  <path class="cls-2" d="m60.38,74.98c-.2,0-.41.09-.56.25l-3.77,3.81-3.49-3.65c-.27-.36-.89-.41-1.2-.09-.34.31-.32.91.02,1.2l4.08,4.22c.3.32.86.32,1.16,0l4.38-4.31c.5-.45.07-1.5-.62-1.43h0Zm0,0"/>
  <path class="cls-2" d="m56,79.81c-.44.02-.8.43-.75.86l.09,5.29c0,.43.39.81.82.81s.81-.38.81-.81l-.11-5.35c0-.44-.41-.84-.86-.8h0Zm0,0"/>
  <path class="cls-2" d="m55.96,85.49c-.19.04-.34.13-.45.27-.73.84-2.86,2.59-4.68,3.29-.91.36-1.7.45-2.13.32-.45-.16-.75-.46-.87-1.59-.06-.41-.5-.75-.93-.7s-.75.48-.7.91c.16,1.5.93,2.54,1.97,2.9,1.06.37,2.15.14,3.26-.31,1.89-.73,3.61-2.07,4.72-3.2,1.11,1.11,2.81,2.43,4.68,3.15,1.09.43,2.2.73,3.24.36,1.07-.36,1.84-1.45,2-2.95.05-.43-.3-.86-.73-.91-.41-.07-.87.27-.91.7-.12,1.12-.44,1.43-.87,1.57-.45.16-1.23.07-2.13-.3-1.82-.73-3.97-2.4-4.68-3.25-.2-.23-.52-.34-.81-.27h0Zm0,0"/>
  <path class="cls-2" d="m49.9,148.31c-.41.09-.68.57-.62.98,1.05,6.15,3.33,11.19,5.15,17.88.73,2.75,2.06,6.06,2.47,9.14.43,3.11-.02,5.78-2.84,7.78-2.45,1.75-4.37,1.72-6.55.7-2.16-1-4.45-3.11-7.01-5.67-7.2-7.24-16.18-23.37-18.97-29.09-.12-.45-.7-.73-1.13-.52-.44.23-.59.86-.27,1.25,2.83,5.85,11.64,21.87,19.19,29.47,2.59,2.58,4.99,4.86,7.53,6.03,2.54,1.2,5.36,1.16,8.19-.86,3.34-2.36,3.95-5.9,3.5-9.3-.45-3.38-1.84-6.83-2.54-9.39-1.84-6.83-4.09-11.82-5.09-17.74-.06-.45-.56-.77-1.02-.66h0Zm0,0"/>
  <path class="cls-2" d="m65.87,147.56c-.32.07-.57.34-.62.66-1,5.9-3.2,10.89-5.04,17.72-.68,2.57-2.13,6.01-2.58,9.41-.45,3.4.16,6.92,3.49,9.3,2.84,2,5.65,2.04,8.19.86,2.54-1.18,4.95-3.45,7.53-6.06,7.56-7.6,16.41-23.62,19.26-29.47.18-.38,0-.91-.39-1.09-.38-.19-.91,0-1.09.38-2.79,5.69-11.78,21.83-18.97,29.06-2.56,2.56-4.86,4.69-7.01,5.69-2.15,1-4.11,1.02-6.56-.73-2.81-1.99-3.26-4.67-2.83-7.76.41-3.11,1.79-6.42,2.54-9.14,1.79-6.71,4.04-11.73,5.08-17.9.12-.55-.48-1.11-1.02-.95h0Zm0,0"/>
</svg>