<?xml version="1.0" encoding="UTF-8"?>
<svg id="Icon" xmlns="http://www.w3.org/2000/svg" viewBox="0 0 50.59 45.34">
  <defs>
    <style>
      .cls-1 {
        fill: #fff;
      }

      .cls-2 {
        fill: #d40000;
      }
    </style>
  </defs>
  <path class="cls-1" d="m18.16,39.64l-.77-.18-.63.47c-3.72,2.78-7.76,4.81-10.68,5.42,2.14-2.14,3.44-4.61,4.04-7.66l.22-1.12-.96-.62C3.42,32.07,0,26.34,0,20.24,0,9.08,11.35,0,25.3,0s25.3,9.08,25.3,20.24-11.35,20.24-25.3,20.24c-2.38,0-4.78-.28-7.14-.84Z"/>
  <g>
    <path class="cls-2" d="m13.34,9.72c-.54.22-.95.55-1.24.99-.29.44-.44.99-.44,1.63,0,.3.03.5.08.62.06.12.08.18.08.2-.43,0-.75-.09-.97-.27-.21-.18-.32-.48-.32-.89,0-.51.21-1.01.63-1.49s.96-.88,1.61-1.18,1.31-.45,1.97-.45c.11,0,.27,0,.48.02l-1.91,8.98h-1.73l1.74-8.15Z"/>
    <path class="cls-2" d="m17.92,17.48c-.33-.31-.49-.79-.49-1.45,0-.55.11-1.16.33-1.82.22-.66.57-1.24,1.06-1.72s1.1-.73,1.84-.73c.48,0,.82.1,1.03.31.2.21.31.47.31.79,0,.28-.06.5-.18.65-.12.15-.27.23-.46.23-.14,0-.28-.05-.42-.14.1-.26.14-.5.14-.71,0-.15-.03-.27-.08-.36-.06-.09-.14-.13-.25-.13-.24,0-.48.2-.72.59-.24.39-.44.87-.59,1.43-.15.56-.23,1.06-.23,1.51,0,.39.07.66.2.8.14.14.36.21.66.21.43,0,.8-.1,1.11-.3.31-.2.65-.5,1.01-.91h.41c-.89,1.48-1.99,2.22-3.3,2.22-.59,0-1.05-.15-1.38-.46Z"/>
    <path class="cls-2" d="m22.49,17.47c-.3-.31-.46-.8-.46-1.46,0-.59.12-1.21.35-1.87.24-.65.59-1.2,1.06-1.66.47-.45,1.03-.68,1.67-.68.33,0,.57.06.73.17.16.11.24.26.24.44v.08l.13-.64h1.73l-.86,4.08c-.03.12-.05.25-.05.38,0,.34.16.52.49.52.22,0,.42-.1.58-.31s.29-.48.39-.82h.5c-.3.86-.66,1.45-1.1,1.76-.44.31-.87.46-1.31.46-.34,0-.61-.09-.81-.28-.2-.19-.33-.46-.37-.82-.23.33-.49.59-.77.8-.28.2-.62.31-1.01.31-.46,0-.84-.16-1.14-.47Zm2.51-.98c.2-.19.33-.45.4-.77l.58-2.71c0-.1-.04-.21-.12-.31-.08-.1-.2-.15-.37-.15-.32,0-.61.19-.86.56-.26.37-.46.82-.6,1.34-.14.52-.22.99-.22,1.39s.06.66.17.77c.12.11.26.17.43.17.2,0,.4-.09.59-.28Z"/>
    <path class="cls-2" d="m31.7,17.56c-.19-.26-.29-.58-.29-.97,0-.17.02-.36.06-.57s.08-.42.13-.62.07-.33.09-.38c.06-.28.12-.56.18-.83.06-.27.08-.49.08-.66,0-.41-.14-.61-.43-.61-.21,0-.39.1-.55.31-.16.2-.29.47-.38.8l-.82,3.85h-1.73l1.27-6h1.73l-.13.62c.4-.45.87-.67,1.4-.67.41,0,.73.11.97.34.24.22.36.56.36,1.02,0,.23-.03.49-.08.77s-.14.63-.24,1.04c-.06.25-.12.49-.17.73-.05.24-.08.42-.08.56,0,.16.04.28.11.37.07.09.2.13.37.13.19,0,.32-.02.4-.07-.05.41-.19.72-.44.92-.24.21-.54.31-.88.31-.42,0-.73-.13-.92-.38Z"/>
    <path class="cls-2" d="m35.1,11.52c.17-.18.3-.34.4-.49.1-.15.14-.28.14-.37,0-.06-.02-.11-.05-.16-.04-.05-.09-.1-.16-.16-.11-.09-.2-.18-.26-.28-.06-.1-.1-.22-.1-.38,0-.25.08-.45.23-.61.15-.16.34-.23.58-.23.25,0,.45.08.61.23.16.16.23.36.23.61,0,.31-.13.65-.39,1.03-.26.37-.61.7-1.04.99l-.18-.18Z"/>
    <path class="cls-2" d="m37.03,17.57c-.2-.25-.29-.58-.29-.98,0-.21.02-.42.07-.64l.77-3.6h-.4l.1-.48h.4l.36-1.66,1.78-.24c-.07.3-.11.48-.12.54-.06.22-.15.68-.29,1.36h.72l-.1.48h-.72l-.77,3.6c-.04.18-.06.32-.06.42,0,.29.14.43.42.43.14,0,.25-.01.31-.04-.16.46-.35.78-.56.94s-.45.24-.71.24c-.41,0-.71-.12-.91-.37Z"/>
    <path class="cls-2" d="m13.63,29.58c-.24-.24-.35-.6-.35-1.08,0-.2.03-.46.1-.78l.82-3.85h1.73l-.86,4.08c-.02.1-.04.2-.04.3,0,.35.12.53.36.53.22,0,.42-.09.58-.28.16-.19.29-.45.38-.77l.82-3.85h1.73l-.86,4.08c-.04.2-.06.34-.06.43,0,.26.14.4.41.4.37,0,.71-.23,1.03-.7.32-.46.57-1.02.76-1.66.19-.64.29-1.19.29-1.66-.02.04-.07.07-.16.09-.09.02-.16.03-.23.03-.14,0-.24-.06-.32-.19-.08-.13-.11-.27-.11-.42,0-.19.06-.35.19-.47.12-.12.31-.18.56-.18.26,0,.46.1.58.29.12.2.18.45.18.75,0,.72-.12,1.49-.37,2.31s-.63,1.52-1.14,2.09c-.51.58-1.15.86-1.91.86-.39,0-.71-.08-.96-.25s-.41-.42-.48-.76c-.45.67-1.02,1.01-1.7,1.01-.38,0-.69-.12-.93-.36Z"/>
    <path class="cls-2" d="m21.61,29.47c-.3-.31-.46-.8-.46-1.46,0-.59.12-1.21.35-1.87.24-.65.59-1.2,1.06-1.66.47-.45,1.03-.68,1.67-.68.33,0,.57.06.73.17.16.11.24.26.24.44v.08l.13-.64h1.73l-.86,4.08c-.03.12-.05.25-.05.38,0,.34.16.52.49.52.22,0,.42-.1.58-.31s.29-.48.39-.82h.5c-.3.86-.66,1.45-1.1,1.76-.44.31-.87.46-1.31.46-.34,0-.61-.09-.81-.28-.2-.19-.33-.46-.37-.82-.23.33-.49.59-.77.8-.28.2-.62.31-1.01.31-.46,0-.84-.16-1.14-.47Zm2.51-.98c.2-.19.33-.45.4-.77l.58-2.71c0-.1-.04-.21-.12-.31-.08-.1-.2-.15-.37-.15-.32,0-.61.19-.86.56-.26.37-.46.82-.6,1.34-.14.52-.22.99-.22,1.39s.06.66.17.77c.12.11.26.17.43.17.2,0,.4-.09.59-.28Z"/>
    <path class="cls-2" d="m27.87,29.58c-.24-.24-.35-.6-.35-1.08,0-.2.03-.46.1-.78l.82-3.85h1.73l-.86,4.08c-.03.12-.05.25-.05.38,0,.16.04.27.11.34.08.07.2.1.38.1.23,0,.45-.1.65-.29.2-.2.34-.45.43-.76h.5c-.3.86-.68,1.45-1.14,1.76-.46.31-.92.46-1.38.46-.38,0-.69-.12-.93-.36Zm1.07-6.64c-.18-.18-.28-.41-.28-.67s.09-.49.28-.68c.18-.19.41-.28.67-.28s.49.09.68.28c.19.19.28.41.28.68s-.09.49-.28.67c-.19.18-.41.28-.68.28s-.49-.09-.67-.28Z"/>
    <path class="cls-2" d="m31.04,29.57c-.2-.25-.29-.58-.29-.98,0-.21.02-.42.07-.64l.77-3.6h-.4l.1-.48h.4l.36-1.66,1.78-.24c-.07.3-.11.48-.12.54-.06.22-.15.68-.29,1.36h.72l-.1.48h-.72l-.77,3.6c-.04.18-.06.32-.06.42,0,.29.14.43.42.43.14,0,.25-.01.31-.04-.16.46-.35.78-.56.94s-.45.24-.71.24c-.41,0-.71-.12-.91-.37Z"/>
    <path class="cls-2" d="m34.8,29.66c-.19-.19-.28-.41-.28-.68s.09-.49.28-.67c.19-.18.41-.28.68-.28s.49.09.67.28c.18.18.28.41.28.67s-.09.49-.28.68c-.18.19-.41.28-.67.28s-.49-.09-.68-.28Zm1.42-8.56l1.85-.25-1.74,6.25h-1.02l.91-6Z"/>
  </g>
</svg>