<?xml version="1.0" encoding="UTF-8"?>
<svg id="Icon" xmlns="http://www.w3.org/2000/svg" viewBox="0 0 40.73 36.5">
  <defs>
    <style>
      .cls-1 {
        fill: #fff;
      }

      .cls-2 {
        fill: #fbe407;
      }
    </style>
  </defs>
  <path class="cls-1" d="m20.36,32.58C9.13,32.58,0,25.27,0,16.29S9.13,0,20.36,0c11.23,0,20.36,7.31,20.36,16.29,0,4.92-2.75,9.52-7.56,12.64l-.77.5.18.9c.49,2.45,1.53,4.44,3.26,6.16-2.35-.49-5.61-2.12-8.6-4.36l-.51-.38-.62.15c-1.9.45-3.83.67-5.75.67Z"/>
  <g>
    <path class="cls-2" d="m18.41,5.59c-.61.2-1.08.53-1.41.99s-.5,1.03-.5,1.71c0,.3.03.51.08.62.06.11.08.18.08.2-.86,0-1.28-.36-1.28-1.09,0-.5.19-.99.57-1.49s.87-.91,1.46-1.22c.6-.32,1.19-.47,1.78-.47.3,0,.6.06.91.17l-.28,6.32,2.64-6.32h1.73l-1.26,8.83h-1.73l.77-5.39-2.26,5.39h-1.64l.24-5.41-2,5.41h-.96l3.05-8.24Z"/>
    <path class="cls-2" d="m24.33,13.44c-.33-.31-.49-.79-.49-1.45,0-.55.11-1.16.32-1.82.22-.66.57-1.24,1.06-1.72.49-.48,1.11-.73,1.86-.73.88,0,1.32.38,1.32,1.15,0,.45-.13.86-.38,1.24s-.6.68-1.02.91c-.42.23-.88.36-1.36.39-.02.18-.02.3-.02.36,0,.67.25,1,.74,1,.22,0,.46-.06.72-.18.26-.12.49-.27.7-.46-.22,1.18-.91,1.78-2.08,1.78-.58,0-1.04-.15-1.37-.46Zm2.25-2.91c.27-.19.48-.44.65-.74s.25-.61.25-.94-.1-.49-.3-.49c-.28,0-.56.25-.83.76-.28.51-.48,1.08-.62,1.71.3,0,.59-.11.86-.3Z"/>
    <path class="cls-2" d="m11.5,25.54c-.24-.24-.35-.6-.35-1.08,0-.2.03-.46.1-.78l.72-3.37h-.4l.1-.48h.4l.36-1.66,1.78-.24-.41,1.9h.72l-.1.48h-.72l-.77,3.6c-.03.12-.05.25-.05.38,0,.16.04.27.11.34.08.07.2.1.38.1.23,0,.45-.1.65-.29.2-.2.34-.45.43-.76h.5c-.3.86-.68,1.45-1.14,1.76-.46.31-.92.46-1.38.46-.38,0-.69-.12-.93-.36Z"/>
    <path class="cls-2" d="m14.79,25.42c-.34-.3-.52-.78-.52-1.44,0-.54.11-1.15.34-1.81.22-.66.58-1.24,1.08-1.72s1.12-.73,1.87-.73c1.02,0,1.54.64,1.54,1.92h0s.07.02.13.02c.26,0,.57-.07.91-.21.34-.14.66-.31.94-.51l.11.32c-.23.25-.53.46-.91.63s-.78.29-1.22.37c-.06.73-.23,1.36-.49,1.91s-.6.96-1.02,1.26c-.42.3-.87.44-1.36.44-.59,0-1.06-.15-1.4-.46Zm2.46-.95c.19-.22.36-.52.5-.9s.25-.8.31-1.27c-.22-.05-.32-.22-.32-.5,0-.33.12-.54.37-.65-.02-.26-.06-.45-.12-.55-.06-.1-.18-.15-.34-.15-.26,0-.52.19-.77.58-.25.38-.45.84-.6,1.38-.15.54-.23,1.01-.23,1.42,0,.38.04.64.13.77.09.13.25.2.48.2.19,0,.38-.11.58-.33Z"/>
    <path class="cls-2" d="m20.06,25.42c-.34-.3-.52-.78-.52-1.44,0-.55.11-1.16.32-1.82.22-.66.57-1.23,1.06-1.72s1.11-.73,1.87-.73c.94,0,1.45.54,1.52,1.62.18-.04.33-.14.47-.29s.26-.33.38-.53h.38c-.22.43-.41.77-.58,1.01s-.39.44-.66.59c-.05.75-.2,1.41-.46,1.98-.26.57-.6,1.01-1.01,1.31-.42.31-.88.46-1.38.46-.59,0-1.06-.15-1.4-.46Zm2.71-1.34c.26-.48.43-1.07.53-1.78-.19-.07-.29-.25-.29-.54,0-.31.11-.52.34-.62-.02-.26-.06-.43-.13-.53-.07-.1-.18-.15-.33-.15-.26,0-.52.19-.76.57s-.43.84-.58,1.38-.22,1.01-.22,1.42c0,.38.04.64.13.77.09.13.25.2.48.2.3,0,.57-.24.83-.72Z"/>
    <path class="cls-2" d="m26.22,25.62c-.19-.19-.28-.41-.28-.68s.09-.49.28-.67c.19-.18.41-.28.68-.28s.49.09.67.28.28.41.28.67-.09.49-.28.68c-.18.19-.41.28-.67.28s-.49-.09-.68-.28Zm1.42-8.56l1.85-.25-1.74,6.25h-1.02l.91-6Z"/>
    <path class="cls-2" d="m29.3,25.62c-.19-.19-.28-.41-.28-.68s.09-.49.28-.67c.19-.18.41-.28.68-.28s.49.09.67.28.28.41.28.67-.09.49-.28.68c-.18.19-.41.28-.67.28s-.49-.09-.68-.28Zm1.42-8.56l1.85-.25-1.74,6.25h-1.02l.91-6Z"/>
  </g>
</svg>