<?xml version="1.0" encoding="UTF-8"?>
<svg id="Icon" xmlns="http://www.w3.org/2000/svg" viewBox="0 0 50.59 45.34">
  <defs>
    <style>
      .cls-1 {
        fill: #fff;
      }

      .cls-2 {
        fill: #3ca73c;
      }
    </style>
  </defs>
  <path class="cls-1" d="m25.3,40.47C11.35,40.47,0,31.39,0,20.24,0,9.08,11.35,0,25.3,0c13.95,0,25.3,9.08,25.3,20.24,0,6.11-3.42,11.83-9.39,15.71l-.96.62.22,1.12c.61,3.05,1.91,5.52,4.04,7.66-2.92-.61-6.96-2.63-10.68-5.42l-.63-.47-.77.18c-2.36.55-4.76.84-7.14.84Z"/>
  <g>
    <path class="cls-2" d="m15.7,9.72c-.54.22-.95.55-1.24.99-.29.44-.44.99-.44,1.63,0,.3.03.5.08.62.06.12.08.18.08.2-.43,0-.75-.09-.97-.27-.21-.18-.32-.48-.32-.89,0-.51.21-1.01.63-1.49s.96-.88,1.61-1.18,1.31-.45,1.97-.45c.11,0,.27,0,.48.02l-1.91,8.98h-1.73l1.74-8.15Z"/>
    <path class="cls-2" d="m20.19,17.58c-.24-.24-.35-.6-.35-1.08,0-.2.03-.46.1-.78l1.28-6.01,1.78-.24-1.38,6.48c-.03.12-.05.25-.05.38,0,.16.04.27.11.34.08.07.2.1.38.1.23,0,.45-.1.65-.29.2-.2.34-.45.43-.76h.5c-.3.86-.68,1.45-1.14,1.76-.46.31-.92.46-1.38.46-.38,0-.69-.12-.93-.36Z"/>
    <path class="cls-2" d="m23.48,17.46c-.34-.3-.52-.78-.52-1.44,0-.54.11-1.15.34-1.81.22-.66.58-1.24,1.08-1.72s1.12-.73,1.87-.73c1.02,0,1.54.64,1.54,1.92h0s.07.02.13.02c.26,0,.57-.07.91-.21.34-.14.66-.31.94-.51l.11.32c-.23.25-.53.46-.91.63s-.78.29-1.22.37c-.06.73-.23,1.36-.49,1.91-.26.54-.6.96-1.02,1.26-.42.3-.87.44-1.36.44-.59,0-1.06-.15-1.4-.46Zm2.46-.95c.19-.22.36-.52.5-.9s.25-.8.31-1.27c-.22-.05-.32-.22-.32-.5,0-.33.12-.54.37-.65-.02-.26-.06-.45-.12-.55-.06-.1-.18-.15-.34-.15-.26,0-.52.19-.77.58-.25.38-.45.84-.6,1.38-.15.54-.23,1.01-.23,1.42,0,.38.04.64.13.77.09.13.25.2.48.2.19,0,.38-.11.58-.33Z"/>
    <path class="cls-2" d="m28.69,17.58c-.26-.24-.39-.59-.39-1.06,0-.19.02-.38.06-.58l.86-4.08h1.73l-.86,4.08c-.04.2-.06.34-.06.43,0,.26.14.4.41.4.37,0,.71-.23,1.03-.7s.57-1.02.76-1.66c.19-.64.29-1.19.29-1.66-.02.04-.07.07-.16.09-.09.02-.16.03-.23.03-.14,0-.24-.06-.32-.19s-.11-.27-.11-.42c0-.19.06-.35.19-.47.12-.12.31-.18.56-.18.26,0,.46.1.58.29.12.2.18.45.18.75,0,.72-.12,1.49-.37,2.31s-.63,1.52-1.14,2.09c-.51.58-1.15.86-1.91.86-.46,0-.83-.12-1.09-.35Z"/>
    <path class="cls-2" d="m33.7,17.48c-.33-.31-.49-.79-.49-1.45,0-.55.11-1.16.32-1.82s.57-1.24,1.06-1.72c.49-.48,1.11-.73,1.86-.73.88,0,1.32.38,1.32,1.15,0,.45-.13.86-.38,1.24-.26.38-.6.68-1.02.91-.42.23-.88.36-1.36.39-.02.18-.02.3-.02.36,0,.67.25,1,.74,1,.22,0,.46-.06.72-.18s.49-.27.7-.46c-.22,1.18-.91,1.78-2.08,1.78-.58,0-1.04-.15-1.37-.46Zm2.25-2.91c.27-.19.48-.44.65-.74.16-.3.25-.61.25-.94s-.1-.49-.3-.49c-.28,0-.56.25-.83.76-.28.51-.48,1.08-.62,1.71.3,0,.59-.11.86-.3Z"/>
    <path class="cls-2" d="m10.03,29.48c-.37-.4-.56-.9-.56-1.51,0-.43.09-.87.27-1.3.18-.44.44-.82.77-1.15s.73-.55,1.18-.66c-.25-.18-.43-.39-.55-.64-.12-.25-.18-.52-.18-.8,0-.42.11-.82.34-1.22.23-.4.54-.73.95-.98.4-.25.85-.38,1.34-.38s.92.13,1.24.4c.32.26.48.63.48,1.1,0,.35-.09.65-.26.89-.18.24-.38.36-.62.36-.22,0-.4-.11-.56-.32.14-.05.27-.18.37-.4s.16-.43.16-.65c0-.23-.06-.4-.19-.51-.13-.11-.28-.16-.47-.16-.23,0-.44.08-.63.25-.19.16-.33.38-.44.64-.1.26-.16.53-.16.81,0,.38.1.72.3,1.01.2.29.5.49.91.59-.41.09-.78.29-1.1.6-.33.31-.58.67-.77,1.09-.18.41-.28.81-.28,1.18s.09.65.28.88c.19.22.47.34.86.34s.82-.11,1.25-.33c.44-.22.76-.52.97-.89l.28.12c-.31.69-.79,1.24-1.44,1.64-.65.41-1.34.61-2.08.61s-1.28-.2-1.65-.6Z"/>
    <path class="cls-2" d="m15.2,29.47c-.3-.31-.46-.8-.46-1.46,0-.59.12-1.21.35-1.87.24-.65.59-1.2,1.06-1.66.47-.45,1.03-.68,1.67-.68.33,0,.57.06.73.17.16.11.24.26.24.44v.08l.13-.64h1.73l-.86,4.08c-.03.12-.05.25-.05.38,0,.34.16.52.49.52.22,0,.42-.1.58-.31s.29-.48.39-.82h.5c-.3.86-.66,1.45-1.1,1.76-.44.31-.87.46-1.31.46-.34,0-.61-.09-.81-.28-.2-.19-.33-.46-.37-.82-.23.33-.49.59-.77.8-.28.2-.62.31-1.01.31-.46,0-.84-.16-1.14-.47Zm2.51-.98c.2-.19.33-.45.4-.77l.58-2.71c0-.1-.04-.21-.12-.31-.08-.1-.2-.15-.37-.15-.32,0-.61.19-.86.56-.26.37-.46.82-.6,1.34-.14.52-.22.99-.22,1.39s.06.66.17.77c.12.11.26.17.43.17.2,0,.4-.09.59-.28Z"/>
    <path class="cls-2" d="m21.61,29.72c-.26-.15-.46-.34-.59-.58-.13-.24-.19-.48-.19-.74s.06-.49.19-.69c.12-.2.27-.34.45-.43.31-.56.58-1.13.82-1.7.23-.57.45-1.19.66-1.85l1.78-.24c.04,1.02.11,2.13.2,3.32.04.48.06.83.06,1.04,0,.18-.02.34-.05.46.38-.22.66-.42.86-.6h.5c-.51.59-1.12,1.09-1.84,1.5-.23.25-.52.43-.86.55-.34.12-.68.17-1.03.17-.38,0-.71-.07-.97-.22Zm1.33-.99c.2-.18.3-.46.3-.85,0-.24-.02-.58-.07-1.01-.08-.91-.13-1.52-.16-1.84-.19.63-.52,1.39-.97,2.27.18.1.28.24.28.42,0,.15-.05.29-.15.41-.1.12-.23.18-.38.18-.17,0-.28-.05-.32-.16,0,.29.06.5.17.64.12.14.3.2.56.2.3,0,.54-.09.74-.26Z"/>
    <path class="cls-2" d="m26.05,29.58c-.24-.24-.35-.6-.35-1.08,0-.2.03-.46.1-.78l.72-3.37h-.4l.1-.48h.4l.36-1.66,1.78-.24-.41,1.9h.72l-.1.48h-.72l-.77,3.6c-.03.12-.05.25-.05.38,0,.16.04.27.11.34.08.07.2.1.38.1.23,0,.45-.1.65-.29.2-.2.34-.45.43-.76h.5c-.3.86-.68,1.45-1.14,1.76-.46.31-.92.46-1.38.46-.38,0-.69-.12-.93-.36Z"/>
    <path class="cls-2" d="m29.33,29.48c-.33-.31-.49-.79-.49-1.45,0-.55.11-1.16.32-1.82s.57-1.24,1.06-1.72c.49-.48,1.11-.73,1.86-.73.88,0,1.32.38,1.32,1.15,0,.45-.13.86-.38,1.24-.26.38-.6.68-1.02.91-.42.23-.88.36-1.36.39-.02.24-.02.4-.02.48,0,.39.07.66.2.8.14.14.36.21.66.21.43,0,.8-.1,1.11-.3.31-.2.65-.5,1.01-.91h.41c-.89,1.48-1.99,2.22-3.3,2.22-.59,0-1.05-.15-1.38-.46Zm2.25-2.92c.27-.19.48-.44.65-.73s.25-.61.25-.94-.1-.49-.3-.49c-.29,0-.57.25-.85.76-.28.5-.47,1.08-.59,1.72.3-.02.58-.12.85-.31Z"/>
    <path class="cls-2" d="m34.42,23.87h1.73l-.16.74c.27-.24.52-.42.74-.55s.46-.19.71-.19.46.09.61.26c.15.18.22.39.22.64,0,.23-.08.44-.23.61-.15.18-.36.26-.64.26-.18,0-.29-.04-.35-.13s-.11-.21-.14-.37c-.02-.1-.05-.18-.07-.23s-.07-.07-.13-.07c-.17,0-.31.03-.43.1-.12.07-.27.19-.45.35l-.96,4.56h-1.73l1.27-6Z"/>
    <path class="cls-2" d="m38.78,29.66c-.19-.19-.28-.41-.28-.68s.09-.49.28-.67c.19-.18.41-.28.68-.28s.49.09.67.28c.18.18.28.41.28.67s-.09.49-.28.68c-.18.19-.41.28-.67.28s-.49-.09-.68-.28Zm1.42-8.56l1.85-.25-1.74,6.25h-1.02l.91-6Z"/>
  </g>
</svg>