<?xml version="1.0" encoding="UTF-8"?>
<svg id="seven" xmlns="http://www.w3.org/2000/svg" viewBox="0 0 63.37 143.84">
  <defs>
    <style>
      .cls-1 {
        fill: #eaeaea;
      }

      .cls-2 {
        fill: #f5eee4;
      }

      .cls-3 {
        fill: #b46f25;
      }

      .cls-4 {
        fill: #666;
      }

      .cls-5 {
        fill: #333;
      }
    </style>
  </defs>
  <path class="cls-2" d="m14.61,131.45c-18.34-16.1-7.61-44.66-4.56-52.44,1.73-7.64,2.2-12.68,4.27-17.71-5.28-10.45,4.62-19.77,3.98-23.66C5.78,39.05-3.57,20.04,1.53,9.34c6.11,5.23,22.26,9.74,25.47,21.94,2.38-.91,6.32-.79,8.4-.15.2-10.34,9.28-26.27,17.65-30.95,9.09,15.4,3.08,26.91-8.9,37.3-.13,3.68,10.64,14.04,4.93,23.65,2.68,4.84,4,10.39,6.46,17.51,3.89,8.5,17.08,37.57-3.6,53.74,2.97,4.13,2.45,9.73-.48,10.94-6.54,2.7-7.31-5.91-10.82-10.27-4.06.48-10.14.8-14.32.17-3.39,3.43-5,13.79-12.21,9.65-2.27-1.3-3.1-5.75.49-11.42h0Zm0,0"/>
  <path class="cls-5" d="m18.47,37.69C3.32,39.3-3.31,17.19,1.59,9.26c9.9,6.88,22.64,10.59,25.42,22-3.23,1.5-5.75,3.69-8.54,6.43h0Zm0,0"/>
  <path class="cls-5" d="m31.15,30.61c4.19,5.1,4.55,8.98,4.31,13.12,5.63,1.76,14.11,8.14,14.4,15.78,3.91-8.66-5.21-18.15-5.54-22.08C60.13,25.56,60.5,9.55,52.95,0c-8.79,5.93-17.66,19.3-17.66,31.05-.82-.23-2.66-.58-4.13-.44h0Zm0,0"/>
  <path class="cls-3" d="m31.08,30.64c-4.02,4.85-4.63,9.22-4.45,13.22-4.91,1.13-11.1,7.82-13.13,15.73-3.54-9.19,4.04-16.63,4.67-21.9,2.7-3.99,6.23-5.44,8.68-6.35.76-.41,2.73-.89,4.23-.7h0Zm0,0"/>
  <path class="cls-2" d="m26.64,82.99c-.35,4.91.74,7.4,3.67,10.6,1.86,2.02,3.31,4.14,2.24,5.82-3.09,4.84-9,1.09-11.35-1.34-4.46-4.66-5.89-8.45-6.6-12.84.47-6.23,10.33-9.93,12.04-2.24h0Zm0,0"/>
  <path class="cls-2" d="m39.21,82.57c.34,4.91-.56,7.73-3.49,10.93-1.86,2.04-3.32,4.16-2.25,5.82,3.09,4.84,9,1.09,11.35-1.35,4.47-4.66,5.9-8.44,6.6-12.83-2.77-4.88-8.09-6.56-12.21-2.58h0Zm0,0"/>
  <path class="cls-4" d="m26.62,82.55c-.22.01-.41.2-.41.42-.34,4.98.82,7.67,3.79,10.92.92,1,1.7,2.01,2.13,2.93.43.92.5,1.68.06,2.37-.73,1.14-1.59,1.71-2.51,1.98-.92.26-1.93.19-2.95-.11-2.05-.61-4.09-2.11-5.21-3.28-4.42-4.61-5.8-8.29-6.48-12.63-.04-.23-.27-.39-.5-.36s-.39.26-.36.49c.7,4.44,2.2,8.37,6.72,13.08,1.23,1.27,3.31,2.85,5.59,3.53,1.13.33,2.31.41,3.43.09,1.13-.31,2.18-1.06,2.99-2.35.63-.98.5-2.13,0-3.19-.49-1.07-1.34-2.12-2.29-3.16-2.89-3.16-3.89-5.43-3.55-10.27.04-.25-.2-.5-.45-.48h0Zm0,0"/>
  <path class="cls-4" d="m39.08,82.14c-.19.06-.32.26-.3.45.34,4.84-.51,7.48-3.38,10.63-.94,1.02-1.8,2.07-2.3,3.14-.5,1.06-.63,2.22,0,3.2.82,1.27,1.86,2.02,2.99,2.34,1.12.32,2.31.23,3.44-.11,2.26-.67,4.38-2.25,5.6-3.52,4.52-4.7,5.99-8.62,6.71-13.07.09-.24-.09-.54-.33-.57-.25-.05-.51.18-.5.43-.69,4.35-2.06,8.02-6.48,12.63-1.13,1.16-3.18,2.68-5.23,3.27-1.02.31-2.04.37-2.97.11-.93-.26-1.79-.84-2.5-1.97-.45-.7-.38-1.46.05-2.38.43-.92,1.24-1.93,2.16-2.93,2.99-3.26,3.95-6.29,3.61-11.25,0-.27-.31-.49-.56-.41h0Zm0,0"/>
  <path d="m21.46,41.88c0,1.26-.83,2.29-1.84,2.29s-1.85-1.02-1.85-2.29.82-2.29,1.85-2.29,1.84,1.02,1.84,2.29h0Zm0,0"/>
  <path d="m45.32,41.88c0,1.26-.82,2.29-1.85,2.29s-1.84-1.02-1.84-2.29.83-2.29,1.84-2.29,1.85,1.02,1.85,2.29h0Zm0,0"/>
  <path class="cls-4" d="m29.05,45.75c-.19.05-.34.23-.32.42.04,1.06.3,1.89.71,2.45.42.57,1,.89,1.61.88.59,0,1.18-.34,1.57-.91.39-.56.63-1.36.61-2.35,0-.23-.22-.41-.44-.41-.21.01-.42.23-.41.44.01.86-.19,1.47-.46,1.85-.26.38-.57.54-.87.54s-.62-.14-.92-.54c-.29-.39-.52-1.05-.56-1.98,0-.25-.28-.46-.52-.39h0Zm0,0"/>
  <path class="cls-4" d="m30.88,48.9c-.18.05-.32.24-.32.43v3.12c0,.23.2.43.43.43s.43-.2.43-.43v-3.12c.01-.26-.27-.5-.54-.43h0Zm0,0"/>
  <path class="cls-4" d="m27.67,51.8c-.19.05-.33.25-.32.45.05.67.24,1.16.59,1.47.36.32.85.37,1.27.3.7-.13,1.32-.56,1.82-1.09.49.56,1.11,1.01,1.81,1.14.43.08.91.02,1.27-.29.37-.31.55-.81.59-1.46.01-.23-.18-.44-.41-.45-.23-.02-.44.17-.45.39-.04.52-.17.77-.3.88-.12.11-.3.16-.56.11-.51-.09-1.25-.63-1.62-1.18-.17-.22-.54-.22-.7,0-.37.51-1.11,1.04-1.62,1.13-.26.04-.43,0-.56-.11-.13-.12-.26-.36-.3-.88-.01-.26-.29-.47-.54-.41h0Zm0,0"/>
  <path class="cls-1" d="m52.83,87.36c-1.56-2.1-3.8-8.23-4.93-11.59-7.67,8.28-6.14,22.11,6.16,19.33.77-2.32-.64-5.81-1.23-7.74h0Zm0,0"/>
  <path class="cls-3" d="m9.74,80.23c2.13,1.7,3.63,3.38,4.71,5.18,5.73,14.91-2.37,28.93,0,46.01-8.37-7.07-11.64-18.55-10.05-31.1.73-5.84,4.49-17.57,5.34-20.09h0Zm0,0"/>
  <path class="cls-5" d="m4.37,99.7c3.42,2.13,7.28,2.59,11.92,3.14.23-4.62,2.13-12.64-1.68-17.9-2-2.01-3.49-4.19-5.11-4.86-1.63,4.11-3.74,9.57-5.13,19.62h0Zm0,0"/>
  <path class="cls-3" d="m55.9,79.76c-1.86.88-3.11,2.81-4.36,5.44-4.35,11.89,3.95,27.88.66,46.99,18.81-14.27,9.42-42.05,3.7-52.43h0Zm0,0"/>
  <path class="cls-5" d="m62.55,98.95c-3.43,2.12-6.64,2.23-11.64,2.84-.33-3.64-1.83-11.43.43-16.75,1.29-3.26,3.1-4.84,4.63-5.59,3.24,6.86,5.62,13.46,6.57,19.49h0Zm0,0"/>
</svg>