<?xml version="1.0" encoding="UTF-8"?>
<svg id="ten" xmlns="http://www.w3.org/2000/svg" viewBox="0 0 97.78 166.48">
  <defs>
    <style>
      .cls-1 {
        fill: #fff;
      }

      .cls-2 {
        fill: #999;
      }

      .cls-3 {
        fill: #666;
      }

      .cls-4 {
        fill: #d40000;
      }
    </style>
  </defs>
  <path class="cls-1" d="m1.23,57.03c-2.49-7.47.91-14.62,9.67-8.75,5,6.25,8.95,11.8,17.98,16.32-7.66-11.3,4.79-23.19,4.04-26.67-1.86-11.04-1.52-17.18-.29-25.63.73-5.03,6.85-11.86,9.65-11.87,5.67,8,4.56,22.67,3.66,30.8.49-.5,2.49-.64,2.77,0-1.06-8.17-2.32-23.05,4.16-30.57,2.86-.12,8.27,5.54,8.98,10.84,1.32,9.75,2.63,14.62,2.07,26.66-1.17,2.25,14.44,13.82,4.61,26.73,10,.36,13.2-7.24,16.59-12.9,3.19-4.92,6.43-4.54,10.15-2.31,4.12,5.78,1.23,12.85-.46,15.68-4.11,9.17-11.25,12.59-16.13,18.44-8.27,12.35,14.37,51.74-2.52,64.82,2.21,6.03,11.34,14.41,2.02,17.11-9.3,2.69-14.08-10.01-14.47-13.88-11.02,1.08-17.89,1.87-28.82-.13.45,3.86-4.75,16.73-13.61,13.76-8.87-2.97-1.23-12.46,1.66-19.16-17.16-11.72,6.46-50.39-2.91-61.46-5.4-8.8-15.73-18.31-18.77-27.8h0Zm0,0"/>
  <path class="cls-2" d="m42.29,0c-.88,0-1.84.48-2.86,1.23-1.01.75-2.06,1.77-3.07,2.97-2,2.38-3.77,5.37-4.16,8.03-1.24,8.47-1.59,14.7.3,25.78v.02c.06.3,0,.8-.25,1.44-.24.64-.62,1.41-1.08,2.3-.94,1.76-2.22,3.97-3.27,6.4-1.93,4.51-2.93,9.97,0,15.34-8.03-4.34-11.91-9.55-16.67-15.5-.02-.04-.05-.06-.07-.08-2.24-1.49-4.17-2.17-5.8-2.22-1.62-.04-2.94.59-3.84,1.68-1.79,2.17-1.96,5.96-.69,9.77,0,.01-.01.02,0,.02,3.12,9.67,13.47,19.19,18.81,27.88,0,.02.03.04.05.06,2.22,2.61,2.52,6.98,1.89,12.29-.62,5.32-2.17,11.55-3.46,17.83-1.3,6.26-2.35,12.57-2,18.08.35,5.38,2.1,10.03,6.28,13.06-1.44,3.24-3.97,7.16-5.13,10.75-.59,1.84-.82,3.6-.29,5.15.54,1.55,1.86,2.8,4.16,3.57,2.32.77,4.43.52,6.24-.37,1.82-.89,3.33-2.41,4.54-4.11,1.21-1.72,2.09-3.62,2.67-5.37.5-1.5.71-2.79.69-3.84,10.55,1.88,17.51,1.16,28.12.11.3,2.14,1.5,5.97,3.85,9.21,1.23,1.69,2.76,3.19,4.62,4.11,1.85.91,4,1.2,6.42.5,2.41-.69,3.75-1.81,4.22-3.23.48-1.42.11-3-.61-4.64-1.41-3.19-4.12-6.68-5.23-9.55,4.12-3.36,5.88-8.28,6.26-13.95.39-5.8-.61-12.36-1.87-18.89-1.25-6.53-2.77-13-3.47-18.59-.69-5.58-.51-10.26,1.42-13.19.01-.01.01-.03.02-.05,4.8-5.72,11.98-9.2,16.14-18.44.01-.01.02-.01.04-.02,0-.01-.01-.02,0-.04.87-1.45,2-3.93,2.42-6.82.43-2.92.11-6.27-2.02-9.25-.02-.06-.06-.09-.11-.14-1.89-1.13-3.73-1.84-5.55-1.57-1.82.26-3.54,1.51-5.17,4.04-1.72,2.84-3.36,6.14-5.77,8.64-2.27,2.36-5.25,3.95-9.66,4,2.1-3.04,2.94-6.03,2.88-8.82-.07-3.03-1.1-5.81-2.37-8.25-1.29-2.43-2.83-4.51-3.98-6.11-.57-.8-1.04-1.49-1.31-2-.14-.26-.24-.46-.26-.62-.04-.16-.01-.21,0-.24.02-.06.05-.12.05-.19.55-12.07-.76-17.01-2.09-26.73-.37-2.77-1.94-5.57-3.79-7.68-.92-1.06-1.92-1.94-2.88-2.56-.96-.63-1.91-1-2.77-.97-.11.01-.21.07-.28.17-3.35,3.87-4.66,9.55-5.02,15.28-.34,5.39.18,10.74.69,14.78-.26-.06-.55-.08-.84-.08-.32.01-.66.05-.95.13.89-8.27,1.88-22.33-3.79-30.33-.08-.11-.21-.16-.34-.16h0Zm-.19.94c5.32,7.84,4.31,22.19,3.42,30.22-.04.34.46.59.71.36.02-.04.21-.13.43-.19.21-.06.49-.09.75-.11.26-.01.52.02.69.08.17.05.22.09.22.07.18.33.81.17.8-.21-.53-4.07-1.11-9.8-.75-15.44.36-5.55,1.64-10.96,4.67-14.6.56.02,1.27.25,2.08.77.88.57,1.82,1.39,2.69,2.41,1.76,2.01,3.26,4.7,3.61,7.23,1.32,9.75,2.62,14.6,2.07,26.6h.04c-.06.21-.11.43-.06.64.06.27.17.52.32.82.32.59.81,1.31,1.39,2.11,1.14,1.61,2.64,3.64,3.89,6,1.24,2.36,2.23,5.03,2.29,7.87.06,2.85-.76,5.89-3.17,9.04-.16.25.02.66.32.67,5.1.19,8.56-1.69,11.09-4.31,2.54-2.63,4.19-5.97,5.87-8.78,1.56-2.41,3.04-3.42,4.56-3.63,1.5-.22,3.12.38,4.91,1.44,1.93,2.75,2.25,5.8,1.84,8.54-.41,2.76-1.55,5.19-2.37,6.56-.01.01-.02.04-.04.05-4.05,9.05-11.09,12.4-16.05,18.33-.01.02-.02.03-.02.06-2.18,3.25-2.27,8.12-1.59,13.79.7,5.67,2.25,12.15,3.5,18.64,1.25,6.5,2.21,13.03,1.83,18.68-.37,5.66-2.08,10.43-6.18,13.61-.14.11-.2.31-.13.48,1.14,3.13,3.98,6.72,5.34,9.82.67,1.56.98,2.94.61,4.04-.37,1.09-1.41,2.04-3.66,2.69-2.23.64-4.13.34-5.81-.48-1.68-.84-3.12-2.23-4.3-3.85-2.34-3.24-3.63-7.37-3.81-9.17,0-.23-.23-.42-.45-.41-11.02,1.09-17.83,1.87-28.71-.13-.27-.06-.55.2-.51.48.09.84-.12,2.33-.67,4-.55,1.67-1.42,3.52-2.56,5.15-1.14,1.63-2.57,3.01-4.21,3.82-1.65.8-3.49,1.05-5.6.35-2.15-.72-3.19-1.76-3.63-3.05-.44-1.27-.25-2.87.32-4.61,1.13-3.49,3.74-7.54,5.21-10.93.07-.18.01-.39-.13-.51-4.17-2.85-5.86-7.3-6.2-12.67-.34-5.37.68-11.63,1.98-17.88,1.29-6.24,2.84-12.5,3.47-17.91.63-5.37.38-9.96-2.06-12.89,0-.01-.01-.04-.02-.05-5.46-8.87-15.72-18.35-18.7-27.64v-.02c-1.21-3.64-.93-7.16.56-8.97.74-.91,1.75-1.39,3.14-1.36,1.39.04,3.18.63,5.31,2.05.01.01.01.02.02.04,4.91,6.14,8.96,11.68,17.86,16.19.07.05.11.09.18.14.34.13.73-.31.54-.62-3.73-5.5-2.56-11.11-.54-15.88,1.02-2.38,2.26-4.53,3.2-6.32.48-.89.88-1.68,1.16-2.39.26-.7.41-1.32.29-1.89v-.04c-1.85-10.98-1.52-17.05-.29-25.48.34-2.37,2.01-5.3,3.94-7.6.96-1.14,1.99-2.13,2.93-2.83.87-.63,1.63-.93,2.17-.98h0Zm0,0"/>
  <path class="cls-4" d="m63.85,40.45s-.09.04-.11.05c-.43.2-2.86,1.14-3.71,3.72-.07.21.07.48.28.55.22.07.48-.07.55-.28.73-2.19,2.67-2.94,3.23-3.2.21-.06.36-.31.28-.52-.06-.23-.31-.36-.52-.3h0Zm0,0"/>
  <path class="cls-3" d="m46.23,48.64c-.24.05-.41.32-.32.56.53,1.61,1.62,2.54,2.77,2.54,1.16-.01,2.23-.94,2.77-2.52.07-.21-.06-.48-.27-.55-.23-.07-.48.06-.55.28-.48,1.35-1.25,1.92-1.95,1.92s-1.49-.56-1.94-1.95c-.06-.2-.3-.34-.51-.29h0Zm0,0"/>
  <path class="cls-4" d="m33.16,40.45c-.38.05-.44.7-.08.82.56.26,2.5,1.01,3.23,3.2.07.21.34.36.55.28.21-.07.34-.33.27-.55-.86-2.57-3.25-3.52-3.68-3.72-.09-.05-.19-.06-.29-.05h0Zm0,0"/>
  <path class="cls-3" d="m48.58,50.88c-.18.05-.32.24-.32.43v4.02c0,.23.2.43.43.43s.43-.2.43-.43v-4.02c.01-.26-.27-.5-.53-.43h0Zm0,0"/>
  <path class="cls-3" d="m42.68,55.1c-.16.04-.29.18-.32.34-.23,1.04-.06,1.91.43,2.5.5.61,1.26.88,2.06.88,1.39.01,2.94-.82,3.86-2.42.91,1.61,2.45,2.48,3.85,2.48.8,0,1.56-.28,2.05-.88.5-.59.67-1.46.43-2.51-.02-.24-.29-.42-.51-.37-.24.06-.39.33-.31.56.19.86.04,1.41-.27,1.78-.3.37-.77.56-1.38.56-1.2.01-2.75-.81-3.44-2.61-.12-.34-.68-.34-.8,0-.69,1.76-2.24,2.57-3.44,2.56-.61,0-1.11-.2-1.42-.56-.3-.37-.45-.93-.26-1.79.08-.29-.23-.61-.51-.54h0Zm0,0"/>
</svg>