<?xml version="1.0" encoding="UTF-8"?>
<svg id="Three" xmlns="http://www.w3.org/2000/svg" viewBox="0 0 90.8 228.43">
  <defs>
    <style>
      .cls-1 {
        fill: #666;
      }

      .cls-2 {
        fill: #333;
      }

      .cls-3 {
        fill: #c6c6c6;
      }
    </style>
  </defs>
  <path class="cls-1" d="m72.57,207.1c28.24-23.99,4.31-68.18.77-84.94-.53-14.4-8.42-25.61-9.67-29.69,10.36-11.08-1.54-26.12-.31-32.39,17.5-9.68,27.18-11.88,27.43-60.08-15.82,4.3-35.19,28.93-41.21,50.76-3.52-1.37-7.89-1.81-11.71-.21C30,28.64,11.61,4.86.06,0c-.71,43.58,5.04,49.94,23.89,58.8,1,6.57-10.8,22.53-2.88,32.44.39,5.46-7.77,16.58-7.53,30.83-2.14,17.63-27.96,62.88,1.52,87.4-1.14,5.38-8.23,14.77.44,18.38,8.43,3.52,13.87-10.02,16.05-16.59,6.98.46,16.31.92,23.27-.14,5.16,9.73,8.67,19.33,17.89,16.78,7.62-2.1,1.89-16.23-.16-20.81h0Zm0,0"/>
  <path class="cls-3" d="m26.26,222.95c-6.41-10.47-1.84-59.14-1.66-61.87.51-7.61,8.65-34.27,18.94-34.33,10.29-.06,16.68,26.25,17.21,33.86.25,3.52,7.3,56,1.81,63.67-4.17-5.78-5.84-10.11-7.81-13.26-7.77.64-14.9,1.08-23.18.28-1.08,3.38-3.42,8.09-5.31,11.64h0Zm0,0"/>
  <path class="cls-3" d="m46.96,98.95c6.42-.8,12.58-4.35,16.05-6.57-.87,4.91-10.64,8-16.05,6.57h0Zm0,0"/>
  <path class="cls-3" d="m61.12,61.99c-3.36.08-5.1,8.22.88,7.68,3.51-.32,3.42-7.8-.88-7.68h0Zm0,0"/>
  <path class="cls-3" d="m25.37,61.09c-3.34.16-4.39,7.92.89,7.68,3.72-.16,3.42-7.91-.89-7.68h0Zm0,0"/>
  <path class="cls-3" d="m38.23,98.42c-6.41-.81-13.02-4.92-16.48-7.12.87,4.91,11.09,8.55,16.48,7.12h0Zm0,0"/>
  <path class="cls-1" d="m24.49,112.14c5.24,5.16,11.52,9.66,16.35,21.15,1.25,2.95,5.47,9.59.13,11.84-4.74,2-9.43-4.23-12.34-7.02-3.96-3.82-8.81-6.13-11.98-10.27,1.69-6.68,2.67-11.4,7.84-15.71h0Zm0,0"/>
  <path class="cls-1" d="m62.88,111.84c-5.24,5.16-11.52,9.66-16.37,21.16-1.24,2.96-5.47,9.59-.12,11.84,4.74,2,9.43-4.22,12.33-7.02,3.97-3.81,8.82-6.14,11.98-10.25.87-6.52-2.84-12.14-7.82-15.73h0Zm0,0"/>
  <path d="m28.19,65.02c0,1.71-1.16,3.09-2.57,3.09s-2.57-1.38-2.57-3.09,1.16-3.1,2.57-3.1,2.57,1.38,2.57,3.1h0Zm0,0"/>
  <path d="m63.88,65.82c0,1.71-1.14,3.09-2.56,3.09s-2.57-1.38-2.57-3.09,1.16-3.1,2.57-3.1,2.56,1.38,2.56,3.1h0Zm0,0"/>
  <path class="cls-2" d="m38.88,71.94c-.19.05-.34.25-.32.45.09,2.3,1.52,3.88,3.18,4.09.84.09,1.73-.18,2.43-.86.69-.66,1.19-1.71,1.44-3.17.08-.24-.09-.52-.32-.57-.24-.05-.5.16-.51.41-.21,1.33-.69,2.21-1.23,2.73-.52.51-1.12.68-1.7.61-1.18-.13-2.37-1.3-2.43-3.25.01-.26-.27-.49-.53-.43h0Zm0,0"/>
  <path class="cls-2" d="m42.06,75.71c-.24,0-.44.23-.43.45v5.31c0,.23.2.43.43.43s.43-.2.43-.43v-5.31c.01-.23-.2-.45-.43-.45h0Zm0,0"/>
  <path class="cls-2" d="m42.03,81.23c-.85-.01-1.6.42-2.49,1.19-.34.3.22.96.56.67.83-.72,1.41-1.01,1.93-1.01.52,0,1.12.33,2,1.07.16.17.46.16.62-.01.16-.18.13-.49-.06-.63-.93-.79-1.73-1.26-2.56-1.27h0Zm0,0"/>
  <path class="cls-2" d="m24.48,111.7c-.36,0-.56.51-.3.74,5.28,5.19,11.47,9.62,16.27,21.03.66,1.52,1.99,3.88,2.52,6.1.26,1.12.3,2.18,0,3.05-.3.87-.92,1.61-2.16,2.13-1.1.47-2.16.43-3.24.11-1.07-.32-2.16-.98-3.19-1.79-2.08-1.62-3.97-3.83-5.44-5.25-4.04-3.88-8.84-6.21-11.93-10.22-.26-.37-.95.14-.69.5,3.25,4.23,8.14,6.58,12.03,10.33,1.43,1.37,3.32,3.64,5.5,5.34,1.09.84,2.27,1.56,3.49,1.92,1.23.37,2.51.38,3.79-.16,1.43-.59,2.3-1.55,2.67-2.64.38-1.09.29-2.29,0-3.49-.56-2.41-1.95-4.85-2.56-6.28-4.87-11.57-11.22-16.16-16.42-21.29-.09-.08-.2-.14-.32-.13h0Zm0,0"/>
  <path class="cls-2" d="m62.87,111.4c-.11,0-.21.06-.3.13-5.21,5.12-11.58,9.72-16.46,21.3-.6,1.43-1.97,3.87-2.54,6.27-.27,1.2-.37,2.41,0,3.5.38,1.1,1.23,2.04,2.64,2.63,1.29.55,2.59.53,3.82.16,1.21-.37,2.37-1.07,3.47-1.92,2.18-1.7,4.1-3.98,5.51-5.34,3.91-3.76,8.77-6.1,12.01-10.32.19-.17.18-.51-.02-.67-.19-.14-.52-.07-.64.16-3.09,4.03-7.89,6.34-11.92,10.22-1.48,1.43-3.36,3.64-5.44,5.25-1.04.81-2.12,1.46-3.2,1.79-1.07.33-2.13.33-3.23-.13-1.24-.52-1.88-1.23-2.18-2.11-.3-.87-.24-1.93.02-3.04.52-2.21,1.86-4.57,2.5-6.11,4.81-11.41,10.98-15.84,16.26-21.02.26-.24.05-.76-.3-.75h0Zm0,0"/>
</svg>