<?xml version="1.0" encoding="UTF-8"?>
<svg id="twelve" xmlns="http://www.w3.org/2000/svg" viewBox="0 0 59.89 145.81">
  <defs>
    <style>
      .cls-1 {
        fill: #ffceac;
      }

      .cls-2 {
        fill: #e6945f;
      }

      .cls-3 {
        fill: #666;
      }
    </style>
  </defs>
  <path class="cls-2" d="m49.39,134.38c19.6-14.12,6.49-42.45,2.46-53.37-1.45-7.24-2.21-14.53-4.13-18.74,5.19-12.17-6.21-20.39-4.81-24.85C48.1,32.17,59.38,13.91,50.62.02c-9.07,3.01-17.96,20.89-19.89,33.07-1.26-.74-2.43-.63-4.3-.25C25.95,21.36,16.42,2.99,6.18,0,.1,12.94,8.69,32.97,14.17,36.8c2.11,4.16-8.58,13.37-4.04,24.89-1.37,3.68-4.02,14.16-4.69,19.65-2.74,9.97-13.47,38.09,5.88,53.09-4.44,2.93-7.09,9.97-.39,11.01,7.46,1.16,10.93-5.65,12.85-9.34,3.99.27,10.32.42,14.32-.64,1.71,3.85,4.97,11.05,12.76,9.91,6.35-.93,2.57-9.77-1.46-10.98h0Zm0,0"/>
  <path class="cls-1" d="m49.43,134.3c-1.27-5.35,1.44-11.41-1.36-19.19-6.47-18.01-3.86-35.73-19.34-35.65-7.55.05-13.43,21.2-17.23,36.75-1.89,7.74.46,13.2.01,18.31-6.07,3.16-6.78,9.81-1.27,11,8.07,1.75,11.25-4.68,13.85-8.98,6.25.45,7.62.31,14.37-.54,2.07,6.6,6.41,9.65,11.09,9.4,8.72-.46,5.01-9.14-.11-11.1h0Zm0,0"/>
  <path class="cls-2" d="m11.5,82.06c1.13,8.81,3.57,13.82,7.73,17.97,2.67,2.67,6.21,3.74,8.82,0,1.44-2.06-.8-5.72-2.16-7.91-1.72-2.75-1.26-6.94-1.26-10.24-1.55-5.44-13.75-7.1-13.13.18h0Zm0,0"/>
  <path class="cls-2" d="m45.72,81.84c-1.13,8.8-3.57,13.82-7.73,17.98-2.67,2.67-6.21,3.74-8.82,0-1.44-2.06.8-5.73,2.16-7.91,1.71-2.76,1.26-6.96,1.26-10.24.39-6.85,17.81-9.35,13.13.18h0Zm0,0"/>
  <path class="cls-1" d="m16.16,39.87c-4.67,1.14-2.63,9.02,2.02,7.81,5-1.29,1.59-8.72-2.02-7.81h0Zm0,0"/>
  <path class="cls-1" d="m41.49,40c4.67,1.15,2.62,9.02-2.02,7.82-5-1.29-1.6-8.72,2.02-7.82h0Zm0,0"/>
  <path d="m19.47,43.91c0,1.58-1.06,2.86-2.36,2.86s-2.35-1.27-2.35-2.86,1.05-2.85,2.35-2.85,2.36,1.27,2.36,2.85h0Zm0,0"/>
  <path d="m42.86,44.18c0,1.58-1.06,2.86-2.36,2.86s-2.35-1.27-2.35-2.86,1.05-2.86,2.35-2.86,2.36,1.29,2.36,2.86h0Zm0,0"/>
  <path class="cls-3" d="m30.32,49.72c-.12.04-.21.11-.27.21-.2.36-.75.99-1.25,1.5-.48-.34-.99-.74-1.42-1.42-.11-.22-.41-.29-.61-.17-.19.13-.25.43-.11.62.58.93,1.31,1.54,1.92,1.92.16.11.39.08.53-.05.61-.58,1.34-1.39,1.68-1.98.19-.29-.14-.74-.48-.64h0Zm0,0"/>
  <path class="cls-3" d="m28.75,51.61c-.21.02-.39.24-.38.45l.11,3.2c0,.23.2.43.43.43s.43-.2.43-.43l-.11-3.23c0-.24-.24-.45-.48-.43h0Zm0,0"/>
  <path class="cls-3" d="m31.76,54.77c-.13.02-.24.12-.3.24-.23.43-.42.59-.56.63-.14.06-.31.06-.51-.02-.2-.07-.41-.23-.66-.37-.24-.14-.49-.3-.85-.3-.38,0-.61.19-.83.34-.23.17-.43.34-.61.43-.19.08-.29.09-.43.02-.14-.06-.39-.25-.67-.74-.08-.23-.39-.34-.59-.23-.21.12-.29.43-.16.62.32.6.67.98,1.07,1.16.4.17.83.09,1.14-.06.31-.14.55-.36.75-.5.2-.16.37-.19.34-.19,0,0,.18.06.41.19.21.12.48.3.8.41.31.13.7.19,1.09.04.39-.16.73-.5,1.01-1.05.17-.27-.13-.7-.45-.63h0Zm0,0"/>
  <path class="cls-3" d="m24.53,81.45c-.19.05-.33.23-.32.42,0,3.26-.54,7.54,1.3,10.49.69,1.09,1.58,2.53,2.11,3.92.54,1.39.68,2.67.08,3.52-1.24,1.77-2.61,2.33-4,2.21-1.39-.13-2.87-.99-4.16-2.27-4.1-4.1-6.49-8.99-7.61-17.73-.02-.23-.25-.41-.48-.38-.23.04-.4.26-.37.49,1.13,8.86,3.62,14,7.84,18.21,1.38,1.38,3.01,2.39,4.69,2.54,1.69.16,3.41-.63,4.78-2.59.86-1.21.61-2.8.04-4.3-.57-1.5-1.49-2.99-2.17-4.07-1.6-2.57-1.2-6.71-1.2-10.04.01-.26-.27-.49-.52-.42h0Zm0,0"/>
  <path class="cls-3" d="m32.5,81.24c-.19.04-.35.23-.35.42,0,3.34.43,7.47-1.16,10.04-.68,1.09-1.62,2.55-2.19,4.05-.57,1.5-.82,3.11.02,4.32,1.37,1.95,3.08,2.74,4.78,2.58,1.69-.14,3.32-1.15,4.69-2.52,4.23-4.23,6.72-9.36,7.85-18.22.02-.23-.15-.45-.37-.49-.23-.02-.45.15-.49.38-1.12,8.74-3.5,13.61-7.6,17.71-1.29,1.29-2.76,2.18-4.17,2.3-1.39.12-2.75-.46-4-2.25-.58-.85-.44-2.1.09-3.49.53-1.39,1.43-2.83,2.11-3.92,1.84-2.95,1.31-7.23,1.31-10.49,0-.25-.26-.47-.51-.42h0Zm0,0"/>
  <path class="cls-1" d="m14.99,94.21c4.01-1.38,7-3.61,9.92-3.99,1.94,3.42,4.7,7.96,2.24,11.04-5.02,3.81-10.42-4.14-12.16-7.05h0Zm0,0"/>
  <path class="cls-1" d="m42.34,94.17c-2.11-2.99-6.53-4.57-10.09-4.48-2.91,5.66-4.38,8.28-1.92,11.36,4.05,2.69,7.39-.62,12.01-6.89h0Zm0,0"/>
</svg>