<?xml version="1.0" encoding="utf-8"?>
<!-- Generator: Adobe Illustrator 27.2.0, SVG Export Plug-In . SVG Version: 6.00 Build 0)  -->
<svg version="1.1" id="face" xmlns="http://www.w3.org/2000/svg" xmlns:xlink="http://www.w3.org/1999/xlink" x="0px" y="0px"
	 viewBox="0 0 115 115" style="enable-background:new 0 0 115 115;" xml:space="preserve">
<style type="text/css">
	.st0{fill:#FFFFFF;}
	.st1{fill-rule:evenodd;clip-rule:evenodd;fill:#F4EDDA;}
	.st2{fill-rule:evenodd;clip-rule:evenodd;fill:#D86363;}
</style>
<circle class="st0" cx="58.1" cy="56.5" r="52"/>
<path class="st1" d="M57.5,0c15.9,0,30.2,6.4,40.7,16.8C108.5,27.2,115,41.6,115,57.5s-6.4,30.2-16.8,40.6
	C87.7,108.5,73.4,115,57.5,115s-30.2-6.4-40.7-16.8C6.4,87.7,0,73.3,0,57.5s6.4-30.2,16.8-40.6S41.6,0,57.5,0L57.5,0z M84.4,30.6
	C77.5,23.7,68,19.4,57.5,19.4s-20,4.3-26.9,11.1S19.4,47,19.4,57.5s4.3,20,11.1,26.9S47,95.6,57.5,95.6s20-4.3,26.9-11.2
	S95.6,68,95.6,57.5S91.3,37.5,84.4,30.6z"/>
<path class="st2" d="M111.5,37.8c4.7,12.8,4.7,26.5,0,39.3l-18.2-6.6c3-8.3,3-17.8,0-26.1L111.5,37.8
	C111.5,37.8,111.5,37.8,111.5,37.8z M37.9,3.5c12.8-4.7,26.5-4.7,39.3,0l-6.6,18.2c-8.3-3-17.8-3-26.1,0L37.9,3.5L37.9,3.5z
	 M21.7,44.4c-3,8.3-3,17.8,0,26.1L3.5,77.1c-4.7-12.8-4.7-26.5,0-39.3L21.7,44.4C21.7,44.4,21.7,44.4,21.7,44.4z M44.5,93.3
	c8.3,3,17.8,3,26.1,0l6.6,18.2c-12.8,4.7-26.5,4.7-39.3,0L44.5,93.3z"/>
</svg>
