<?xml version="1.0" encoding="utf-8"?>
<!-- Generator: Adobe Illustrator 27.3.0, SVG Export Plug-In . SVG Version: 6.00 Build 0)  -->
<svg version="1.1" id="Layer_12" xmlns="http://www.w3.org/2000/svg" xmlns:xlink="http://www.w3.org/1999/xlink" x="0px" y="0px"
	 width="300px" height="250px" viewBox="0 0 300 250" style="enable-background:new 0 0 300 250;" xml:space="preserve">
<style type="text/css">
	.st0{fill:none;}
	.st1{fill:#8DA65E;}
	.st2{fill:#FFD17C;}
	.st3{fill:#FFFFFF;}
	.st4{fill:#FAAB19;}
	.st5{fill:url(#SVGID_1_);}
</style>
<rect x="0" class="st0" width="299.9" height="250"/>
<path class="st1" d="M300,249.8H0v-43.5c0,0,23.9-8.1,45.8-7.6c28.9,0.7,50.2,25,113.6,7.6c17.4-2.9,62-13.7,98.9-11.4
	c26.4,1.7,41.6,0.8,41.6,0.8V249.8z"/>
<g>
	<g>
		<g>
			<polygon class="st2" points="232.5,201.6 234,187.5 234.3,187.5 232.8,201.7 			"/>
			<polygon class="st2" points="236.1,213 239.2,183.9 239.4,183.9 236.4,213.1 			"/>
			<path class="st3" d="M234.6,188.2c-1.5,0.4-2.2-2-0.6-2.4C235.6,185.5,236.2,187.9,234.6,188.2z"/>
			<path class="st3" d="M240.3,184c-0.9,1-2.6-0.5-1.6-1.5C239.6,181.5,241.3,183,240.3,184z"/>
			<polygon class="st2" points="222.8,186.8 223,186.7 225.6,237.2 225.3,237.3 			"/>
			<path class="st3" d="M223.9,186.5c-0.6,1.3-2.6,0.4-1.9-0.9C222.6,184.4,224.6,185.2,223.9,186.5z"/>
			<path class="st3" d="M237.7,189.7c-0.6,0.7-1.7-0.3-1-0.9C237.2,188.1,238.3,189.1,237.7,189.7z"/>
			<path class="st3" d="M228.9,195.6c-0.3,0.4-0.9-0.2-0.6-0.5C228.6,194.7,229.2,195.2,228.9,195.6z"/>
			<path class="st3" d="M227.4,190.2c-0.3,0.4-0.9-0.2-0.6-0.5C227.1,189.3,227.7,189.9,227.4,190.2z"/>
			<path class="st2" d="M237.7,215.1h-0.3c0-0.2,0.4-20.5,3.2-27.4l0.3,0.1C238.1,194.7,237.7,214.9,237.7,215.1z"/>
			<path class="st3" d="M241.4,187.9c-0.7,0.5-1.6-0.6-0.9-1.1C241.2,186.3,242.1,187.4,241.4,187.9L241.4,187.9z"/>
			<polygon class="st2" points="237.1,221.8 240.6,198.5 240.8,198.5 237.4,221.9 			"/>
			<path class="st3" d="M241.3,198.6c-0.6,0.7-1.7-0.3-1-0.9C240.8,197,241.9,198,241.3,198.6z"/>
		</g>
		<g>
			<polygon class="st2" points="277.1,199.6 279,181.4 279.3,181.4 277.4,199.6 			"/>
			<path class="st3" d="M279.8,182.3c-1.9,0.5-2.8-2.6-0.8-3C281,178.8,281.8,181.9,279.8,182.3z"/>
			<polygon class="st4" points="266.1,181.5 266.5,181.5 269.9,219.6 269.5,219.7 			"/>
			<path class="st3" d="M267.6,181.2c-0.8,1.6-3.3,0.6-2.5-1.1C266,178.4,268.5,179.5,267.6,181.2z"/>
			<path class="st3" d="M276,176.7c-0.4,0.5-1.2-0.2-0.7-0.7C275.7,175.6,276.4,176.3,276,176.7z"/>
			<path class="st3" d="M270.2,188.9c-0.4,0.5-1.2-0.2-0.7-0.7C269.9,187.7,270.7,188.4,270.2,188.9z"/>
			<path class="st3" d="M270.5,184.9c-0.4,0.5-1.2-0.2-0.7-0.7C270.1,183.8,270.9,184.4,270.5,184.9z"/>
		</g>
		<g>
			<path class="st2" d="M46.4,211.6c0,0,0-6.2,3.2-7.9C49.7,203.8,50.3,208.1,46.4,211.6z"/>
			<polygon class="st2" points="45.2,215.8 46.9,209.9 47.1,209.9 45.4,215.9 			"/>
		</g>
		<g>
			<path class="st2" d="M45.8,207c0,0-3-5.1-1.2-8.6C44.6,198.4,47.3,201.5,45.8,207z"/>
			<polygon class="st2" points="46.5,219 45.6,205.9 45.8,205.9 46.6,219 			"/>
		</g>
		<g>
			<path class="st2" d="M127.7,216.2c0,0,0-6.2,3.2-7.9C130.9,208.4,131.6,212.7,127.7,216.2z"/>
			<path class="st2" d="M124.9,219.7c0,0-3.3-3.2-2.4-6.4C122.5,213.3,125.1,215.1,124.9,219.7z"/>
			<path class="st2" d="M127,211.6c0,0-3-5.1-1.2-8.6C125.9,203,128.5,206.1,127,211.6z"/>
			<polygon class="st2" points="128.8,223.4 126.6,209.2 126.8,209.1 129,223.4 			"/>
			<polygon class="st2" points="126.8,224.9 124.6,219.1 124.7,219 127,224.8 			"/>
		</g>
		<g>
			<path class="st2" d="M220.3,196.1c0,0-4.5-3.3-3.9-7.4C216.4,188.7,219.9,190.3,220.3,196.1z"/>
			<path class="st2" d="M223.2,207.3c-1.3-10-3.7-12-3.7-12.1l0.2-0.3c0.1,0.1,2.5,2.1,3.8,12.3L223.2,207.3z"/>
		</g>
		<g>
			<polygon class="st2" points="220.1,188.1 220.4,188.1 222.6,206.2 222.3,206.2 			"/>
			<path class="st2" d="M220.4,189.8c0,0-4.5-9.2-0.9-14.8C219.5,175,223.6,180.7,220.4,189.8z"/>
		</g>
		<g>
			<g>
				<polygon class="st4" points="30.3,219.6 31.8,203.1 32.1,203.2 30.6,219.6 				"/>
				<polygon class="st2" points="32.3,233.5 34.9,204.9 35.1,204.9 32.6,233.6 				"/>
				<polygon class="st2" points="34,227.1 37.1,199.4 37.4,199.4 34.3,227.2 				"/>
				<path class="st3" d="M32.4,203.9c-1.6,0.4-2.2-2.1-0.6-2.4C33.4,201.1,34.1,203.6,32.4,203.9L32.4,203.9z"/>
				<path class="st3" d="M38.3,199.5c-0.9,1-2.7-0.5-1.7-1.5C37.6,196.9,39.3,198.5,38.3,199.5z"/>
				<path class="st3" d="M35.6,205.4c-0.6,0.7-1.7-0.3-1.1-1C35.1,203.8,36.2,204.8,35.6,205.4z"/>
				<path class="st3" d="M37.7,214.5c-0.6,0.7-1.7-0.3-1.1-1C37.3,212.8,38.3,213.8,37.7,214.5z"/>
				<path class="st4" d="M35.4,233.5h-0.3c0-0.2,0.6-23.1,3.5-30.1l0.3,0.1C36,210.5,35.4,233.3,35.4,233.5L35.4,233.5z"/>
				<path class="st3" d="M39.5,203.5c-0.6,0.7-1.7-0.3-1.1-1C39,201.8,40.1,202.8,39.5,203.5z"/>
				<polygon class="st2" points="35.2,234.1 38.6,214.5 38.9,214.6 35.5,234.1 				"/>
				<path class="st3" d="M39.3,214.6c-0.6,0.7-1.7-0.3-1.1-1C38.8,213,39.9,214,39.3,214.6z"/>
			</g>
			<path class="st3" d="M24.8,213.6c0,1.5-1.9,1.5-1.9,0C22.9,212.2,24.8,212.2,24.8,213.6z"/>
		</g>
		
			<linearGradient id="SVGID_1_" gradientUnits="userSpaceOnUse" x1="150.0127" y1="38.44" x2="150.0127" y2="0.98" gradientTransform="matrix(1 0 0 -1 0 250)">
			<stop  offset="0" style="stop-color:#F1C36B"/>
			<stop  offset="1" style="stop-color:#F0B11D"/>
		</linearGradient>
		<path class="st5" d="M300,203.8c0,0-0.4,5.9-1.6,8.6c-0.4-11-2.8-13.4-2.8-13.4c1.9,4.6,2.3,10.6,0,14.2c-1-0.7,0.5-10.9,0.5-12
			l-1.9,2.9l-2-9.2l-1.7,7.1c-0.9-4.4-2.5-7.4-2.5-7.4c1.4,2.8,1.6,6.3,1.4,9.2l-1.8-2.6l1.5,5.2l-1.1,2.1l-1.9-6.2
			c1-4.6,0.5-8,0.5-8c0.2,2-0.3,4.3-1,6.3l-1-3.2c0.1,1.2,1,4.8,0,5.7c-0.7-5.4-2.8-9.1-2.8-9.1c1.3,2.7,1.6,6,1.4,8.9l-1.3-3
			l0.3-3.7l-0.7,2.8l-2.7-6.3c0.1,0.9,2.4,10.2,1.5,10.8l-2-6.6c0.5,0.6,1.7,12.2,1,14.2l-0.9-12.2l-0.4,1.1l-0.6-9.3l-0.6,9.4
			c-0.5-8.5-2.7-10.5-2.7-10.5c1.9,4.5,2.2,10.2,0,14.1c-0.6-1.8-3.8-11.9-3.2-13.3c0.1,0.8-0.8,7.2-1.3,8.6l-1.2-3.4l-0.2,2.1
			c-0.9-3.6-2.2-6-2.2-6c1.9,4.6,2.3,10.6,0,14.2c-1-0.7,0.5-10.9,0.5-12l-1.9,7.3c-0.7-2-2.3-7.1-2-9.2l-1.7,7.1
			c-0.9-4.4-2.5-7.4-2.5-7.4c1.4,2.8,1.6,6.3,1.4,9.2l-1.8-2.6l1.5,5.2l-1.1,2.1l-1.9-6.2c1-4.6,0.5-8,0.5-8c0.2,2-0.3,4.3-1,6.3
			l-1-3.2c0.1,1.2,1,4.8,0,5.7c-0.7-5.4-2.8-13.4-2.8-13.4c1,5.9,1.6,10.3,1.4,13.2l-1.3-7.3l-0.4,3.4l-2.7-6.3
			c0.1,0.9,2.4,10.2,1.5,10.8l-2-6.6l-0.3,3.2l-0.6-5l-1,5.5c-0.9-4.1-2.4-6.7-2.4-6.7c1.8,3.7-0.3,15.1-0.3,15.1l-2.9-10
			c0.8,4,2,12-0.8,14.7l-1.7-11.1l-0.2,2.1c-0.9-3.6-2.2-3.2-2.2-3.2c0.7,0.7,3.5,8,0,14.2c-1-0.7,0.5-10.9,0.5-12l-1.9,7.3
			c-0.7-2-2.3-7.1-2-9.2l-1.7,7.1c-0.9-4.4-2.5-7.4-2.5-7.4c1.4,2.8,1.6,6.3,1.4,9.2l-1.8-7.3l0.4,12.1l-1.4-19
			c0.2,2-3.1,14.8-3.1,14.8c-0.9-3.1-3.3-9.1-4.7-12c0.1,0.9,2.4,10.2,1.5,10.8l-2-6.6l1.2,9.6l-2.1-11.4l-1,5.5
			c-1.1-4-2.4-4.7-2.4-4.7c2.9,4.6,0.4,9.3,0,14.1l-3.2-13.3c0.1,3-0.4,4.5-1.3,7l-1.2-3.4l-0.2,2.1c-0.9-3.6-2.2-6-2.2-6
			c1.9,3.9,1.5,9.2,1,12.5c-0.4,0.7-0.5-10.3-0.5-10.3l-1.9,4.6l-1.9-3.4l-0.1-3.1l-1.7,7.1c-0.9-4.4-2.5-7.4-2.5-7.4
			c1.4,2.8,1.6,6.3,1.4,9.2l-1.8-2.6l0.4,7.4l-1.9-6.2c1-4.6,0.5-8,0.5-8c0.2,2-0.3,4.3-1,6.3l-1-3.2c0.1,1.2,1,4.8,0,5.7
			c-0.7-5.4-2.8-9.1-2.8-9.1c1.3,2.7,1.6,6,1.4,8.9l-1.3-3l0.3-3.7l-0.7,2.8l-2.7-6.3c0.1,0.9,2.4,10.2,1.5,10.8l-2-6.6l-0.3,3.2
			l-0.6-5l-1,5.5c-0.9-4.1-2.4-6.7-2.4-6.7c1.9,4.5,2.2,10.2,0,14.1l-3.2-16.1c0.2,1.4-2.4,12.5-2.6,14.1c-0.9-3.6-2.2-6-2.2-6
			c1.9,4.6,2.3,10.6,0,14.2c-1-0.7,0.5-10.9,0.5-12l-1.9,7.3c-0.7-2-2.3-7.1-2-9.2l-1.7,7.1c-0.9-4.4-2.5-7.4-2.5-7.4
			c1.4,2.8,1.6,6.3,1.4,9.2l-1.8-2.6l1.5,5.2l-1.1,2.1l-1.9-6.2c1-4.6,0.5-8,0.5-8c0.2,2-0.3,4.3-1,6.3l-1-3.2c0.1,1.2,1,4.8,0,5.7
			c-0.7-5.4-2.8-9.1-2.8-9.1c1.3,2.7,1.6,6,1.4,8.9l-1.3-3l0.3-3.7l-0.7,2.8l-2.7-6.3c0.1,0.9,2.4,10.2,1.5,10.8l-2-6.6l-0.3,3.2
			l-0.6-5l-1,5.5c-0.9-4.1-2.4-6.7-2.4-6.7c1.9,4.5,2.2,10.2,0,14.1l-3.2-13.3c0.1,3-0.4,4.5-1.3,7l-1.2-3.4l-0.2,2.1
			c-0.9-3.6-2.2-6-2.2-6c1.9,4.6,2.3,10.6,0,14.2c-1-0.7,0.5-10.9,0.5-12l-1.9,7.3l-1.9-3.4l-0.1-3.1l-1.7,11.3
			c-0.9-4.4-2.5-7.4-2.5-7.4c1.4,2.8,1.6,6.3,1.4,9.2l-1.8-2.6l0.4,7.4l-1.4-14.2c0.2,2-0.3,4.3-1,6.3l-1-3.2c0,0,0.2,5.3,0,5.7
			c-0.7-5.4-2.8-4.9-2.8-4.9c1.3,2.7,1.6,6,1.4,8.9l-0.9-6.7l-0.7,2.8l-2.7-6.3c0.1,0.9,2.4,10.2,1.5,10.8l-2-6.6
			c0.1,0.8,0.1,2.5-0.3,3.2l-0.6-5l-1,5.5c-0.9-4.1-2.4-6.7-2.4-6.7c1.8,3.7,0,14.1,0,14.1c-0.6-1.8-3.8-11.9-3.2-13.3
			c-0.1,2.7-0.4,3.6-1.3,7l-1.2-3.4l-0.2,2.1c-0.9-3.6-2.2-6-2.2-6c1.9,3.9-0.5,12.6-0.5,12.6l1-10.4l-1.9,7.3l-1.9-10.4l-1.9,4
			c-0.9-4.4-2.5-7.4-2.5-7.4c1.4,2.8,1.6,6.3,1.4,9.2l-1.8-2.6l1.5,5.2l-1.1,2.1l-1.9-6.2c1-4.6,0.5-8,0.5-8c0.2,2-0.3,4.3-1,6.3
			l-1-3.2c0.1,1.2,1,4.8,0,5.7c-0.7-5.4-2.8-6.3-2.8-6.3c1.3,2.7,1.6,8.8,1.4,11.7c-0.6-1.8-1.4-5.4-1.7-7.2l0.1,4l-2.7-9.7
			c0.1,0.9,2.4,10.2,1.5,10.8l-2-6.6l-0.3,3.2l-0.6-5l-1,5.5c-0.9-4.1-2.4-6.7-2.4-6.7c1.8,3.7,1.6,8.6,1.1,11.9l-4.4-15.3
			c0.1,0.8-0.8,5.6-1.3,7l-1.2-3.4l-0.2,2.1c-0.9-3.6-2.2-6-2.2-6c1.9,4.6,2.3,10.6,0,14.2c-1-0.7,0.5-10.9,0.5-12l-1.9,7.3l-2-9.2
			l-1.7,7.1c-0.9-4.4-2.5-7.4-2.5-7.4c1.4,2.8,1.6,6.3,1.4,9.2l-1.8-2.6l1.5,5.2l-1.1,2.1l-1.9-6.2c1-4.6,0.5-8,0.5-8
			c0.2,2-0.3,4.3-1,6.3l-1-3.2c0.1,1.2,1,4.8,0,5.7c-0.7-5.4-2.8-9.1-2.8-9.1c1.3,2.7,1.6,6,1.4,8.9l-1.3-3l0.3-3.7l-0.7,2.8
			l-2.7-6.3c0.1,0.9,2.4,10.2,1.5,10.8l-2-6.6l-0.3,3.2l-0.6-5l-1,5.5c-0.9-4.1-2.4-6.7-2.4-6.7c1.9,4.5,2.2,10.2,0,14.1l-3.2-13.3
			c0.1,0.8-0.8,5.6-1.3,7l-1.2-3.4l-0.2,2.1c-0.9-3.6-2.2-6-2.2-6c1.9,4.6,2.3,10.6,0,14.2c-1-0.7,0.5-10.9,0.5-12l-1.9,7.3l-2-9.2
			l-1.7,7.1c-0.9-4.4-2.5-7.4-2.5-7.4c1.4,2.8,1.6,6.3,1.4,9.2l-1.8-2.6l1.5,5.2l-1.1,2.1l-1.9-6.2c1-4.6,0.5-8,0.5-8
			c0.2,2-0.3,4.3-1,6.3l-1-3.2c0.1,1.2,1,4.8,0,5.7c-0.7-5.4-2.8-6.3-2.8-6.3c1.3,2.7,1.6,6,1.4,8.9l-1.3-3l0.3-3.7l-0.7,2.8
			l-2.7-6.3c0.1,0.9,2.4,10.2,1.5,10.8c-0.5-1.4-2.1-7.2-2.9-8.4l-1,5.5c-0.9-4.1-2.4-6.7-2.4-6.7c1.8,3.7,0,14.1,0,14.1l-2.7-8.8
			c0.2-2.8,0-4.6,0-4.6c0.1,1.2,0,2.4-0.3,3.6l-0.4-1.4c0.5,1.9-0.1,3.8-0.8,5.5l-3.3-8c1.9,3.9-1.4,9.5-1.4,9.5l-1.9-6.1l-1.9,4
			c-0.9-4.4-2.5-7.4-2.5-7.4c1.4,2.8,1.6,6.3,1.4,9.2l-2.8-9.4c-0.2,0.8-0.3,1.5-1,3.6l-1-3.2c0.1,1.2,1,4.8,0,5.7
			c-0.7-5.4-2.8-9.1-2.8-9.1c1.3,2.7,1.6,6,1.4,8.9l-0.9-6.7l-0.7,2.8l-2.7-6.3c0.1,0.9,2.4,10.2,1.5,10.8l-2-6.6l1.2,9.6l-4.2-5
			l-1.3,6.4l-3.4-11.1l1.7,12.7L0,215.4v34.4h300L300,203.8L300,203.8z"/>
		<path class="st4" d="M165,211.7c0,0,2.7,10.7,1.4,16.6C166.4,228.3,165.9,221.7,165,211.7L165,211.7z"/>
		<path class="st4" d="M222.6,197.6c0,0,2.7,10.7,1.4,16.6C224,214.1,223.4,207.5,222.6,197.6z"/>
		<path class="st4" d="M222.6,204.6c0,0,2.7,10.7,1.4,16.6C224,221.2,223.4,214.5,222.6,204.6z"/>
		<path class="st4" d="M274.2,198.7c0,0,0.4,11.1-2.1,16.5C272.1,215.2,272.9,208.6,274.2,198.7z"/>
		<path class="st4" d="M276.7,192.9c0,0,0.4,11.1-2.1,16.5C274.6,209.3,275.4,202.7,276.7,192.9z"/>
		<path class="st4" d="M205.3,207.5c0,0,2.7,10.7,1.4,16.6C206.7,224.1,206.1,217.5,205.3,207.5L205.3,207.5z"/>
		<path class="st4" d="M202.4,197.7c0,0,2.7,10.7,1.4,16.6C203.8,214.2,203.3,207.6,202.4,197.7L202.4,197.7z"/>
		<path class="st4" d="M201.6,205.8c0,0,4.6,18,2.4,28C203.9,233.8,203,222.6,201.6,205.8z"/>
		<path class="st4" d="M195.4,200.3c0,0,2.1,18.7-1.5,28.1C193.9,228.4,194.5,217.1,195.4,200.3z"/>
		<path class="st4" d="M228.6,200.5c0,0,4.6,18,2.4,28C231,228.5,230,217.3,228.6,200.5z"/>
		<path class="st4" d="M230.8,198.2c0,0,6.1,17.4,4.8,27.6C235.6,225.8,233.7,214.8,230.8,198.2z"/>
		<path class="st4" d="M238.6,194.5c0,0,6.1,17.4,4.8,27.6C243.4,222.1,241.4,211.1,238.6,194.5z"/>
		<path class="st4" d="M256.4,191.8c0,0-2.1,10.9-5.7,15.2C250.6,207,252.9,200.9,256.4,191.8z"/>
		<path class="st4" d="M262,189c0,0-2.1,10.9-5.7,15.2C256.2,204.2,258.5,198.1,262,189z"/>
		<path class="st4" d="M248.2,179.7c0,0,4.2,10,3.7,16.1C251.9,195.7,250.4,189.3,248.2,179.7z"/>
		<path class="st2" d="M192.4,234.6c0,0-3.8-10.2,0.5-15.5C192.8,219.1,196.6,225.6,192.4,234.6z"/>
		<path class="st2" d="M183.8,234.7c0,0,0-6.2,3.2-7.9C187.1,226.8,187.8,231.2,183.8,234.7z"/>
		<path class="st2" d="M114.8,219.2c0,0,0-6.2,3.2-7.9C118.1,211.3,118.8,215.7,114.8,219.2z"/>
		<path class="st2" d="M255.3,190.9c0,0,0-6.2,3.2-7.9C258.6,183.1,259.3,187.4,255.3,190.9z"/>
		<path class="st2" d="M43.7,215.1c0,0-3.3-3.2-2.4-6.4C41.3,208.7,43.9,210.5,43.7,215.1z"/>
		<path class="st2" d="M179.4,231.6c0,0-4-4.1-2.9-8C176.6,223.5,179.8,225.8,179.4,231.6z"/>
		<path class="st2" d="M184.2,201c0,0-6.3,12.4-7,21C177.2,222,180,213.6,184.2,201z"/>
		<path class="st2" d="M188.2,211.1c0,0-5.8,12.8-6.1,21.4C182.1,232.5,184.6,224,188.2,211.1z"/>
		<path class="st2" d="M220.2,211.5c0,0-6.7,9.5-8.3,16.7C211.9,228.2,215.2,221.5,220.2,211.5z"/>
		<path class="st2" d="M218.9,208c0,0-5.4,10.6-6,18C212.9,226,215.4,218.8,218.9,208z"/>
		<path class="st4" d="M244,206.4c0,0-4.7,17.2-8.2,27.4C235.8,233.8,238.7,217.6,244,206.4z"/>
		<path class="st4" d="M245.5,191.6c0,0-4.7,17.2-8.2,27.4C237.3,219,240.2,202.8,245.5,191.6z"/>
		<path class="st2" d="M288.3,202.4c0,0-8.2,9.7-10.6,17.4C277.8,219.8,282,212.8,288.3,202.4z"/>
		<path class="st2" d="M289.2,218.3c0,0-8.2,9.7-10.6,17.4C278.7,235.8,282.9,228.8,289.2,218.3z"/>
		<path class="st2" d="M173.5,218.6c0,0-8.2,9.7-10.6,17.4C163,236,167.2,229.1,173.5,218.6z"/>
		<path class="st2" d="M195.6,204.3c0,0-8.2,9.7-10.6,17.4C185,221.8,189.3,214.8,195.6,204.3z"/>
		<g>
			<path class="st2" d="M270.3,210.1c0,0-8.2,9.7-10.6,17.4C259.7,227.6,264,220.6,270.3,210.1z"/>
			<path class="st2" d="M257.6,216.4c0,0-5.8,11.8-6.4,20C251.1,236.4,253.7,228.4,257.6,216.4z"/>
			<path class="st4" d="M266.2,190.8c-9.2,14.9-9.4,14.8-12.8,27.2C253.4,218,258.6,207.2,266.2,190.8z"/>
			<path class="st4" d="M255.3,205.5c-9.2,14.9-9.4,14.8-12.8,27.2C242.5,232.7,247.6,221.8,255.3,205.5z"/>
			<path class="st2" d="M276.2,217.7c0,0-8.2,9.7-10.6,17.4C265.6,235.1,269.9,228.2,276.2,217.7z"/>
			<path class="st2" d="M278.9,209.1c0,0-8.2,9.7-10.6,17.4C268.3,226.6,272.5,219.6,278.9,209.1z"/>
			<path class="st2" d="M272.4,196.3c0,0-8.2,9.7-10.6,17.4C261.9,213.8,266.1,206.8,272.4,196.3z"/>
			<path class="st2" d="M268,197c0,0-6.6,11.3-7.6,19.4C260.3,216.4,263.4,208.7,268,197z"/>
			<path class="st2" d="M273.7,215.2c0,0-8.2,9.7-10.6,17.4C263.1,232.6,267.4,225.7,273.7,215.2z"/>
			<path class="st2" d="M261.9,217.9c0,0-8.2,9.7-10.6,17.4C251.4,235.3,255.6,228.4,261.9,217.9z"/>
		</g>
		<g>
			<path class="st2" d="M202.6,210.2c0,0-6.1,11.7-6.8,19.9C195.8,230,198.5,222.1,202.6,210.2z"/>
			<path class="st2" d="M202.4,216.2c0,0-6.1,11.7-6.8,19.9C195.5,236.1,198.3,228.1,202.4,216.2z"/>
			<path class="st2" d="M209.8,215.9c0,0-6.1,11.7-6.8,19.9C203,235.8,205.7,227.8,209.8,215.9z"/>
			<path class="st2" d="M203.4,226.8c0,0-6.1,11.7-6.8,19.9C196.6,246.7,199.3,238.7,203.4,226.8z"/>
			<path class="st2" d="M174.2,225.6c0,0-6.1,11.7-6.8,19.9C167.4,245.4,170.1,237.5,174.2,225.6z"/>
			<path class="st2" d="M69.8,225.5c0,0,3.4,13.1,8.1,19.2C77.9,244.7,74.7,237,69.8,225.5z"/>
			<path class="st2" d="M210.7,206.8c0,0-6.1,11.7-6.8,19.9C203.9,226.7,206.6,218.7,210.7,206.8z"/>
			<path class="st2" d="M206.9,214.1c0,0-6.1,11.7-6.8,19.9C200.1,234,202.8,226.1,206.9,214.1z"/>
			<path class="st2" d="M199.1,215.3c0,0-6.1,11.7-6.8,19.9C192.2,235.1,195,227.2,199.1,215.3z"/>
		</g>
		<g>
			<path class="st2" d="M233.6,216.4c0,0-6,8.6-6.7,14.6C226.9,231,229.6,225.2,233.6,216.4z"/>
			<path class="st2" d="M241.7,213.9c0,0-6,8.6-6.7,14.6C235,228.6,237.7,222.7,241.7,213.9z"/>
			<path class="st2" d="M237.9,219.4c0,0-6,8.6-6.7,14.6C231.2,234,233.9,228.1,237.9,219.4z"/>
			<path class="st2" d="M230.1,220.1c0,0-6,8.6-6.7,14.6C223.3,234.8,226,228.9,230.1,220.1z"/>
		</g>
		<g>
			<path class="st2" d="M156.2,213.5c0,0-3,10.6-1.8,16.5C154.4,230,155.2,223.4,156.2,213.5z"/>
			<path class="st2" d="M163.6,215c0,0-5,9.5-5,15.6C158.5,230.5,160.6,224.3,163.6,215z"/>
			<path class="st2" d="M156.7,219.8c0,0-3,10.6-1.8,16.5C154.9,236.3,155.6,229.7,156.7,219.8z"/>
		</g>
		<path class="st2" d="M183.9,218.1c0,0-5,9.5-5,15.6C178.9,233.6,180.9,227.4,183.9,218.1z"/>
		<g>
			<path class="st2" d="M210.8,221.6c0,0-5,9.5-5,15.6C205.7,237.2,207.8,230.9,210.8,221.6z"/>
			<path class="st2" d="M218.5,217.9c0,0-5,9.5-5,15.6C213.5,233.5,215.5,227.3,218.5,217.9z"/>
		</g>
		<g>
			<path class="st2" d="M250,196.1c0,0-4,10.1-3.4,16.2C246.6,212.2,248,205.8,250,196.1z"/>
			<path class="st2" d="M250.9,215.2c0,0-4,10.1-3.4,16.2C247.5,231.4,248.9,224.9,250.9,215.2z"/>
			<path class="st2" d="M247.9,213.8c0,0-4,10.1-3.4,16.2C244.5,230,245.9,223.5,247.9,213.8z"/>
			<path class="st2" d="M248.9,204c0,0-4,10.1-3.4,16.2C245.6,220.1,246.9,213.7,248.9,204z"/>
		</g>
		<g>
			<path class="st2" d="M64.9,211.9c0,0,6.7,11.2,7.9,19.3C72.8,231.1,69.6,223.4,64.9,211.9z"/>
			<path class="st2" d="M59.6,211c0,0,6.7,11.2,7.9,19.3C67.5,230.3,64.3,222.6,59.6,211z"/>
			<path class="st2" d="M28.4,215.6c0,0,5,12.4,5,20.6C33.5,236.2,31.4,228,28.4,215.6z"/>
			<path class="st2" d="M31.2,214.9c0,0,4.5,12.6,4.2,20.8C35.4,235.7,33.7,227.4,31.2,214.9z"/>
			<path class="st2" d="M69.4,210.7c0,0,4.4,12.7,4,20.9C73.4,231.6,71.8,223.3,69.4,210.7z"/>
		</g>
		<g>
			<path class="st2" d="M92.7,216.6c0,0,4.5,9.8,4.3,15.9C97,232.4,95.3,226.1,92.7,216.6z"/>
			<path class="st2" d="M97.4,213.8c0,0,1.8,10.9,0,16.6C97.3,230.5,97.3,223.8,97.4,213.8z"/>
			<path class="st2" d="M91.2,213.5c0,0,0.5,11.1-2,16.5C89.2,230,90,223.4,91.2,213.5z"/>
		</g>
		<path class="st4" d="M66.2,217c0,0,2.7,10.7,1.4,16.6C67.6,233.6,67,226.9,66.2,217L66.2,217z"/>
		<path class="st4" d="M71.3,220.2c0,0,2.7,10.7,1.4,16.6C72.7,236.8,72.1,230.2,71.3,220.2z"/>
		<path class="st4" d="M64.8,219.4c0,0,2.7,10.7,1.4,16.6C66.2,236,65.6,229.3,64.8,219.4z"/>
		<path class="st4" d="M52.7,220.7c0,0,2.7,10.7,1.4,16.6C54.1,237.3,53.5,230.6,52.7,220.7z"/>
		<path class="st4" d="M54.1,217.8c0,0,2.7,10.7,1.4,16.6C55.5,234.3,54.9,227.7,54.1,217.8z"/>
		<path class="st4" d="M24.5,212.5c0,0,2.7,10.7,1.4,16.6C25.9,229.1,25.3,222.4,24.5,212.5z"/>
		<path class="st4" d="M104.1,217c0,0,2.7,10.7,1.4,16.6C105.5,233.5,104.9,226.9,104.1,217L104.1,217z"/>
		<path class="st4" d="M126.2,218.4c0,0,2.7,10.7,1.4,16.6C127.6,235,127,228.3,126.2,218.4z"/>
		<path class="st4" d="M127.8,218.5c0,0-0.3,11.1-3.2,16.2C124.6,234.7,125.9,228.2,127.8,218.5z"/>
		<path class="st4" d="M102.9,218.4c0,0,2.7,10.7,1.4,16.6C104.3,235,103.7,228.3,102.9,218.4z"/>
		<path class="st4" d="M146,212.2c0,0,2.7,10.7,1.4,16.6C147.4,228.8,146.9,222.2,146,212.2z"/>
		<path class="st4" d="M145.4,215.7c0,0,2.7,10.7,1.4,16.6C146.8,232.3,146.3,225.7,145.4,215.7z"/>
		<path class="st4" d="M170.4,204c0,0,2.7,10.7,1.4,16.6C171.8,220.5,171.2,213.9,170.4,204z"/>
		<path class="st4" d="M176.7,205.2c0,0-5,9.5-5,15.6C171.7,220.8,173.7,214.6,176.7,205.2z"/>
		<path class="st4" d="M141,214.2c0,0,2.7,10.7,1.4,16.6C142.4,230.8,141.9,224.1,141,214.2z"/>
		<path class="st4" d="M141.7,213c0,0,2.7,10.7,1.4,16.6C143.1,229.6,142.5,222.9,141.7,213L141.7,213z"/>
		<path class="st4" d="M156.4,195.7c0,0,2.7,10.7,1.4,16.6C157.8,212.2,157.3,205.6,156.4,195.7z"/>
		<path class="st4" d="M26.4,214.5c0,0,1.6,11-0.3,16.6C26,231.1,26.2,224.4,26.4,214.5z"/>
		<path class="st4" d="M29.5,204.3c0,0,1.6,11-0.3,16.6C29.2,221,29.3,214.3,29.5,204.3z"/>
		<path class="st2" d="M242.3,206.4c0,0-6.8,11.1-8.1,19.2C234.2,225.6,237.5,217.9,242.3,206.4z"/>
		<path class="st2" d="M27.6,221.7c0,0-6,8.6-6.7,14.6C20.9,236.3,23.6,230.5,27.6,221.7z"/>
		<path class="st2" d="M30.8,213.5c0,0-6,8.6-6.7,14.6C24,228.2,26.7,222.3,30.8,213.5z"/>
		<path class="st2" d="M25.7,219.6c0,0-4.5,9.8-4.3,15.9C21.5,235.4,23.2,229.1,25.7,219.6z"/>
		<path class="st2" d="M34.7,212.1c0,0-6.8,11.1-8.1,19.2C26.6,231.3,29.8,223.7,34.7,212.1z"/>
		<path class="st2" d="M53.5,206.3c0,0-6.8,11.1-8.1,19.2C45.4,225.5,48.7,217.8,53.5,206.3z"/>
		<path class="st2" d="M116.9,215.4c0,0-6.8,11.1-8.1,19.2C108.9,234.6,112.1,226.9,116.9,215.4z"/>
		<path class="st2" d="M137.9,235c0,0,0-6.2,3.2-7.8C141.2,227.2,141.8,231.5,137.9,235z"/>
		<path class="st2" d="M131.5,235.7c0,0-3.6-4.6-2.1-8.4C129.4,227.4,132.4,230,131.5,235.7z"/>
		<path class="st2" d="M51.9,234.3c0,0-3.6-4.6-2.1-8.4C49.8,226,52.8,228.6,51.9,234.3z"/>
		<path class="st2" d="M59.5,228.9c0,0-1.8-5.9,0.8-8.7C60.3,220.2,62.2,224.1,59.5,228.9z"/>
		<path class="st2" d="M219.5,230.6c0,0-1.8-5.9,0.8-8.7C220.3,221.9,222.2,225.7,219.5,230.6z"/>
		<path class="st2" d="M273.1,232.7c0,0,1.5-8.4,6.2-9.6C279.3,223.1,279.2,229.2,273.1,232.7z"/>
		<path class="st2" d="M274.2,225.3c0,0-1.9-8.3,1.9-11.8C276.1,213.5,278.3,219,274.2,225.3z"/>
	</g>
	<polygon class="st4" points="19.2,182.8 19.5,182.8 24.6,237.2 24.3,237.3 	"/>
	<g>
		<path class="st4" d="M27.3,192.8c0,0,1.4,1.6,1.3,3.6C28.5,196.4,26.9,195.3,27.3,192.8z"/>
		<path class="st4" d="M28.3,190.6c0,0,0.8,2.1,0.1,3.9C28.4,194.6,27.3,192.9,28.3,190.6z"/>
		<path class="st4" d="M29.4,192.5c0,0,0.4,2.2-0.7,3.8C28.7,196.4,27.9,194.4,29.4,192.5z"/>
		<path class="st4" d="M26.9,194.8c0,0,1.3,0.9,1.6,2.6C28.5,197.4,27.1,196.9,26.9,194.8z"/>
		<path class="st4" d="M26.6,195.9c0,0,1.5,1.1,1.8,2.9C28.5,198.9,26.9,198.4,26.6,195.9z"/>
		<path class="st4" d="M26.6,197.4c0,0,1.5,1.1,1.8,2.9C28.4,200.3,26.9,199.8,26.6,197.4z"/>
		<path class="st4" d="M26.8,198.9c0,0,1.5,1.1,1.8,2.9C28.6,201.8,27,201.3,26.8,198.9z"/>
		<path class="st4" d="M26.8,200.4c0,0,1.5,1.1,1.8,2.9C28.6,203.4,27,202.9,26.8,200.4z"/>
		<path class="st4" d="M26.9,202.1c0,0,1.5,1.1,1.8,2.9C28.7,205,27.1,204.5,26.9,202.1z"/>
		<path class="st4" d="M27,203.5c0,0,1.5,1.1,1.8,2.9C28.8,206.4,27.2,205.9,27,203.5z"/>
		<path class="st4" d="M29.8,194.6c0,0-1.3,1.1-1.4,2.8C28.3,197.4,29.7,196.8,29.8,194.6z"/>
		<path class="st4" d="M30.1,195.8c0,0-1.5,1.2-1.6,3.1C28.5,198.9,30,198.2,30.1,195.8z"/>
		<path class="st4" d="M30.2,197.2c0,0-1.5,1.2-1.6,3.1C28.6,200.3,30.1,199.7,30.2,197.2z"/>
		<path class="st4" d="M30.2,198.8c0,0-1.5,1.2-1.6,3.1C28.5,201.9,30.1,201.2,30.2,198.8z"/>
		<path class="st4" d="M30.2,200.3c0,0-1.5,1.2-1.6,3.1C28.6,203.4,30.1,202.7,30.2,200.3z"/>
		<path class="st4" d="M30.2,201.9c0,0-1.5,1.2-1.6,3.1C28.6,205,30.2,204.4,30.2,201.9z"/>
		<path class="st4" d="M30.2,203.4c0,0-1.5,1.2-1.6,3.1C28.6,206.5,30.2,205.8,30.2,203.4z"/>
		<polygon class="st4" points="29.6,237.3 28.2,193.1 28.4,193.1 29.8,237.2 		"/>
	</g>
	<path class="st2" d="M136.9,229.9c0,0-4.5-3.3-3.9-7.4C133,222.5,136.5,224.1,136.9,229.9z"/>
</g>
</svg>
