<?xml version="1.0" encoding="UTF-8"?><svg id="a" xmlns="http://www.w3.org/2000/svg" width="300" height="250" viewBox="0 0 300 250"><defs><style>.b,.c{fill:none;}.d{fill:#4597c9;}.c{stroke:#4597c9;stroke-miterlimit:10;stroke-width:1.44px;}</style></defs><rect class="b" width="300" height="250"/><path class="d" d="m120.15,92.31v-10.27h-3.67v-2.09h9.82v2.09h-3.66v10.27h-2.5Z"/><path class="d" d="m127.92,92.31v-12.36h5.25c1.32,0,2.28.11,2.88.33s1.08.62,1.44,1.18.54,1.22.54,1.95c0,.93-.27,1.69-.82,2.3s-1.36.98-2.44,1.14c.54.31.98.66,1.34,1.04s.82,1.05,1.42,2.01l1.51,2.41h-2.98l-1.8-2.69c-.64-.96-1.08-1.57-1.32-1.82s-.49-.42-.75-.51-.68-.14-1.26-.14h-.51v5.16h-2.5Zm2.5-7.13h1.85c1.2,0,1.94-.05,2.24-.15s.53-.28.7-.52.25-.56.25-.93c0-.42-.11-.75-.33-1.01s-.54-.42-.94-.48c-.2-.03-.81-.04-1.82-.04h-1.95v3.14Z"/><path class="d" d="m151.52,92.31h-2.71l-1.08-2.81h-4.94l-1.02,2.81h-2.65l4.81-12.36h2.64l4.95,12.36Zm-4.59-4.89l-1.7-4.59-1.67,4.59h3.37Z"/><path class="d" d="m154.72,92.31l-4.42-12.36h2.71l3.13,9.15,3.03-9.15h2.65l-4.43,12.36h-2.66Z"/><path class="d" d="m163.08,92.31v-12.36h9.16v2.09h-6.67v2.74h6.2v2.08h-6.2v3.36h6.9v2.08h-9.4Z"/><path class="d" d="m174.66,92.31v-12.26h2.5v10.17h6.2v2.08h-8.7Z"/><path class="d" d="m99.7,110.29v-12.36h2.5v12.36h-2.5Z"/><path class="d" d="m104.6,110.29v-12.36h2.43l5.06,8.25v-8.25h2.32v12.36h-2.5l-4.98-8.06v8.06h-2.32Z"/><path class="d" d="m116.41,106.27l2.43-.24c.15.81.44,1.41.89,1.8s1.05.57,1.81.57c.8,0,1.41-.17,1.82-.51s.61-.74.61-1.19c0-.29-.09-.54-.26-.75s-.47-.38-.9-.54c-.29-.1-.96-.28-2-.54-1.34-.33-2.28-.74-2.82-1.22-.76-.68-1.14-1.51-1.14-2.49,0-.63.18-1.22.54-1.77s.87-.97,1.54-1.25,1.48-.43,2.43-.43c1.55,0,2.72.34,3.5,1.02s1.2,1.59,1.23,2.72l-2.5.11c-.11-.64-.34-1.09-.69-1.37s-.88-.42-1.58-.42-1.29.15-1.7.45c-.26.19-.4.45-.4.77,0,.29.12.54.37.75.31.26,1.08.54,2.29.83s2.11.58,2.69.89,1.04.72,1.37,1.26.49,1.19.49,1.97c0,.71-.2,1.37-.59,1.99s-.95,1.08-1.67,1.38-1.62.45-2.69.45c-1.56,0-2.76-.36-3.6-1.08s-1.34-1.77-1.5-3.16Z"/><path class="d" d="m128.54,97.93h2.5v6.69c0,1.06.03,1.75.09,2.07.11.51.36.91.76,1.22s.95.46,1.65.46,1.24-.14,1.6-.43.58-.64.65-1.07.11-1.12.11-2.1v-6.84h2.5v6.49c0,1.48-.07,2.53-.2,3.14s-.38,1.13-.75,1.55-.85.76-1.45,1.01-1.4.38-2.38.38c-1.18,0-2.08-.14-2.68-.41s-1.09-.63-1.45-1.06-.59-.89-.7-1.37c-.16-.71-.24-1.75-.24-3.14v-6.59Z"/><path class="d" d="m141.04,110.29v-12.36h5.25c1.32,0,2.28.11,2.88.33s1.08.62,1.44,1.18.54,1.22.54,1.95c0,.93-.27,1.69-.82,2.3s-1.36.98-2.44,1.14c.54.31.98.66,1.34,1.04s.82,1.05,1.42,2.01l1.51,2.41h-2.98l-1.8-2.69c-.64-.96-1.08-1.57-1.32-1.82s-.49-.42-.75-.51-.68-.14-1.26-.14h-.51v5.16h-2.5Zm2.5-7.13h1.85c1.2,0,1.94-.05,2.24-.15s.53-.28.7-.52.25-.56.25-.93c0-.42-.11-.75-.33-1.01s-.54-.42-.94-.48c-.2-.03-.81-.04-1.82-.04h-1.95v3.14Z"/><path class="d" d="m164.64,110.29h-2.71l-1.08-2.81h-4.94l-1.02,2.81h-2.65l4.81-12.36h2.64l4.95,12.36Zm-4.59-4.89l-1.7-4.59-1.67,4.59h3.37Z"/><path class="d" d="m165.99,110.29v-12.36h2.43l5.06,8.25v-8.25h2.32v12.36h-2.5l-4.98-8.06v8.06h-2.32Z"/><path class="d" d="m186.34,105.75l2.42.77c-.37,1.35-.99,2.35-1.85,3.01s-1.96.98-3.28.98c-1.64,0-2.99-.56-4.05-1.68s-1.58-2.65-1.58-4.6c0-2.06.53-3.65,1.59-4.79s2.46-1.71,4.19-1.71c1.51,0,2.74.45,3.68,1.34.56.53.98,1.29,1.26,2.28l-2.47.59c-.15-.64-.45-1.15-.91-1.52s-1.03-.56-1.69-.56c-.92,0-1.66.33-2.23.99s-.86,1.72-.86,3.19c0,1.56.28,2.67.84,3.34s1.29.99,2.19.99c.66,0,1.23-.21,1.71-.63s.82-1.08,1.03-1.99Z"/><path class="d" d="m190.9,110.29v-12.36h9.16v2.09h-6.67v2.74h6.2v2.08h-6.2v3.36h6.9v2.08h-9.4Z"/><path class="c" d="m109.27,93.39c.96-21.66,18.83-38.93,40.73-38.93s39.17,16.69,40.67,37.85c.02.25.03.51.05.76"/><path class="c" d="m185.82,114.73c-.28.52-.58,1.03-.88,1.54-7.14,11.83-20.11,19.74-34.93,19.74s-28.62-8.42-35.6-20.88"/></svg>