<?xml version="1.0" encoding="UTF-8"?>
<svg id="Layer_1" data-name="Layer 1" xmlns="http://www.w3.org/2000/svg" width="188.91" height="203.29" viewBox="0 0 188.91 203.29">
  <path d="m188.91,51.28S52.34,93.58,9.06,125.81c20.23-12.1,121.11-54.52,179.86-74.54Z" style="fill-rule: evenodd;"/>
  <path d="m49.69.43s33.96,160.6,56.55,202.86C98.38,182.9,49.88,40.08,49.69.43Z" style="fill-rule: evenodd;"/>
  <path d="m137.24,121.21S47.09,79.31,0,77.38c20.32,3.55,105.12,19.67,137.24,43.83Z" style="fill-rule: evenodd;"/>
  <path d="m109.26,5.65S54.22,116.67,45.17,170.61c6.38-23.87,34.58-102.53,64.09-164.97Z" style="fill-rule: evenodd;"/>
  <path d="m58.76,98.67c.75-2.84.66-4.82-.15-7.58-1-3.39-.57-2.26,2.2-3.36,3.89-1.54,5.58-6.06,5.75-10.33-.45.18-.9.36-1.35.54,2.42,4.02,5.53,4.78,9.67,4.12,1.41-.22,1.11,1.52,1.72,2.36,1.21,1.7,2.22,2.47,4.02,3.27.21.09-1.33,5.41-1.04,7,.67,3.65-4.96,7.09-6.51,10.77-.72,1.7-.79,3.6-.82,5.44,0,.38-3.83-.4-4.17-.36-1.44.16-4.6,1.53-5.68.22-1.78-2.18-3.67-3.69-5.97-5.05-2.28-1.35-4.93-1.94-7.43-2.42-.78-.15.94-3.11,1.06-3.84.81-5.33-.62-9.79-3.56-13.97-.21.5-.42,1-.63,1.49,9.47-2.01,15.52-10.99,17.63-21.26-.47.19-.94.38-1.42.57,5.28,5.54,12.15,8.78,18.78,4.34-.45-.25-.9-.49-1.35-.74.1,6.55,3.07,11.26,8.61,13.18-.58-.2,2.56.13,2.45.77-.39,2.56-.69,5.11-.84,7.7-.21,3.6.42,6.75,1.9,9.87.22-.51.43-1.02.65-1.53-11.17,1.01-14.05,18.12-14.72,28.28.47-.19.94-.38,1.41-.57-3.1-2.54-6.4-4.18-10.07-5.34-4-1.27-9.39.53-12.02-3.45-4.43-6.68-13.98-6.62-20.41-8.45.17.54.34,1.07.5,1.61,5.51-9.23,5.73-19.54.41-28.95-.22.51-.43,1.02-.65,1.53,8.33-1.3,13.29-9.53,16.77-17.49,2.13-4.86,3.54-10.18,4.49-15.48.54-3.08,3.26.5,4.84,1.68,1.71,1.29,3.41,2.59,5.15,3.84,3.28,2.37,6.74,4.15,10.63,4.61,1.54.18,3-.2,4.47-.61.08-.02,1.67,5.72,1.77,5.99,3.29,9.19,12.67,12.98,20.73,11.57-.29-.47-.57-.93-.85-1.4-3.51,9.27-6.12,21.19-1.46,30.5.22-.51.43-1.02.65-1.53-15.94,2.68-20.55,27.9-20.92,42.93.48-.27.95-.55,1.43-.82-4.82-4.24-10.34-6.8-16.23-8.46-1.69-.47-17.31-.91-17.25-.68-3.13-13.37-16.35-22.37-27.8-23.55.17.54.34,1.07.5,1.61,4.14-6.8,5.26-14.51,3.88-22.58-.57-3.33-1.87-6.34-3.4-9.2-.91-1.7-2.16-3.1-3.39-4.48-.33-.36,4.26-3.4,4.69-3.71,14.55-10.62,25.97-27.75,29.39-47.12.11-.65,8.45,5.04,9.39,5.67,3.56,2.38,7.22,4.46,11.13,5.97,2.49.96,5.22,1.57,7.86,1.63,3.46.08,8.98-2.95,9.78,1.79,2.98,17.52,21.45,25.5,35.37,25.06-.24-.54-.48-1.08-.72-1.62-4.65,7.15-7.52,15.3-9,24-.68,4.04-.74,8.17-.47,12.25.28,4.19,2.94,7.74-.94,10.07-15.59,9.37-24.12,31.15-27.39,49.82.47-.19.94-.38,1.41-.57-6.98-5.14-14.78-7.18-23.04-7.44-4.47-.14-8.9.68-13.22,1.92-2.33.67-4.54,1.73-6.71,2.87-2.88,1.51-2.39.62-3.43-2.52-5.76-17.47-18.51-34.76-34.95-39.36-.03.65-.06,1.3-.09,1.95,4.58,0,2.97-12.99,2.82-15.79-.24-4.58-.73-9.14-1.54-13.64-.28-1.57-6.01-16-6.21-15.83C25.71,58.11,42.24,31.02,46.25,1.15c-.52.12-1.04.25-1.56.38,4.74,10.71,17.01,14.53,26.5,16.95,5.53,1.41,11.28,2.32,16.95,1.92,6.86-.47,13.07-5.22,19.48-7.59-.37-.36-.74-.72-1.11-1.08-1.15,11.26,4.53,22.17,9.74,31.25,2.92,5.09,6.08,10.05,10.17,14.01,5.19,5.03,12.03,7.79,18.14,10.99-.04-.56-.08-1.13-.12-1.69-7.19,4.11-10.57,11.79-13.25,19.98-3.31,10.13-5.42,20.66-3.75,31.41.19,1.24,1.92,1.1,1.73-.15-1.41-9.05.07-17.31,2.31-26.01,2.39-9.31,5.88-18.99,13.93-23.6.6-.35.42-1.41-.11-1.69-5.5-2.88-11.07-5.51-16.14-9.33-4.5-3.38-7.6-8.58-10.63-13.53-5.37-8.81-11.49-20.13-10.34-31.28.07-.71-.48-1.31-1.11-1.08-5.28,1.95-10.17,5.01-15.51,6.77-5.44,1.79-11.49.57-16.95-.5-9.88-1.93-23.59-5.76-28.49-16.84-.35-.79-1.45-.41-1.56.37C40.48,31.18,23.5,57.57,2.42,76.03c-.48.42-.48,1.08-.08,1.56,5.85,6.94,7.53,15.54,8.3,24.79.18,2.16,1.63,17.27-.98,17.28-1.03,0-1,1.69-.09,1.95,17.49,4.89,30.05,24.41,35.15,43.11.17.63.84.81,1.3.5,13-8.87,31.28-8.95,44.08.47.53.39,1.28.23,1.42-.57,3.5-20.01,12.76-41.38,29.83-50.32.41-.22.73-.72.53-1.25-5.12-14.27-.74-31.67,7.05-43.64.45-.7.06-1.64-.72-1.62-15.06.48-32.24-8.63-34.06-27.37-.06-.67-.6-1.01-1.15-.85-15,4.33-26.05-4.9-38.38-13.07-.48-.32-1.14.13-1.22.72-3.21,22.68-17.55,41.27-35,51.95-.5.31-.48,1.19-.08,1.56,9.05,8.5,10.65,23.79,4.02,34.7-.34.55-.22,1.53.5,1.61,12.04,1.25,23.7,10.42,26.89,24.04.12.52.68.76,1.1.61,10.71-3.99,23.73-.1,32.48,7.6.63.56,1.41.03,1.43-.82.35-13.92,4.58-38.34,19.33-40.82.67-.11.98-.87.65-1.53-4.32-8.63-1.64-20.03,1.6-28.57.24-.63-.18-1.52-.85-1.4-10.24,1.8-19.48-5.12-20.44-17.19-.05-.62-.62-1.08-1.15-.85-9.77,4.27-17.93-6.4-25.98-11-.48-.28-1.15.09-1.22.72-1.43,12.33-7.42,32.25-20.07,34.23-.65.1-1.02.88-.65,1.53,4.88,8.64,4.77,18.09-.29,26.57-.38.63-.18,1.41.5,1.61,7.72,2.19,16.84,1.97,21.16,10.91.14.29.5.48.78.43,6.99-1.14,14.01.75,19.75,5.45.48.39,1.36.24,1.41-.57.61-9.2,2.99-25.75,13.15-26.67.7-.06.95-.9.65-1.53-2.68-5.64-1.45-11.91-.54-17.84.1-.65-.36-1.17-.92-1.15-6.37.2-10.28-4.48-10.39-11.59-.01-.78-.82-1.09-1.35-.74-6.04,4.05-12.08.64-16.68-4.2-.51-.53-1.28-.12-1.42.57-1.91,9.31-7.38,17.84-16.05,19.71-.56.12-1.07.87-.63,1.49,3.59,5.07,5.04,11.19,1.32,16.85-.34.52-.19,1.45.48,1.52,6.04.64,11.75,2.82,15.34,8.68.19.3.6.52.92.35,3.26-1.75,6.37-1.87,9.77-.59.51.19,1.21-.14,1.11-.87-.84-6.37,2.32-11.46,7.31-14.03.38-.19.62-.62.47-1.09-1.16-3.65-.85-6.75,1.48-9.56.39-.47.11-1.29-.43-1.39-1.86-1.94-3.72-3.87-5.58-5.82-.04-.56-.53-.88-.98-.73-3.57,1.67-6.86.72-9.86-2.86-.46-.75-1.32-.26-1.35.54-.25,6.13-3.91,9.46-9.1,9.65-.47.02-.79.73-.49,1.16,2.03,2.93,3.05,6.44,2.15,10.11-.2.8.91,1.01,1.11.23h0Z"/>
</svg>