<?xml version="1.0" encoding="UTF-8"?>
<svg xmlns="http://www.w3.org/2000/svg" width="401.46" height="301.32" xmlns:xlink="http://www.w3.org/1999/xlink" viewBox="0 0 401.46 301.32">
  <defs>
    <linearGradient id="linear-gradient" x1="184.32" y1="4.98" x2="184.32" y2="293.53" gradientUnits="userSpaceOnUse">
      <stop offset="0" stop-color="#ffc93f"/>
      <stop offset="1" stop-color="#eb5d00"/>
    </linearGradient>
    <linearGradient id="linear-gradient-2" x1="184.32" y1="-129.02" x2="184.32" y2="256.44" gradientUnits="userSpaceOnUse">
      <stop offset="0" stop-color="#ffc93f"/>
      <stop offset="1" stop-color="#dc5d00"/>
    </linearGradient>
    <linearGradient id="linear-gradient-3" x1="286.74" y1="28.34" x2="233.81" y2="194.79" gradientUnits="userSpaceOnUse">
      <stop offset="0" stop-color="#ffe872"/>
      <stop offset="1" stop-color="#eb5d00"/>
    </linearGradient>
    <linearGradient id="linear-gradient-4" x1="205.49" y1="-50.03" x2="78.17" y2="350.37" xlink:href="#linear-gradient-3"/>
    <radialGradient id="radial-gradient" cx="44.82" cy="38.41" fx="44.82" fy="38.41" r="92.36" gradientUnits="userSpaceOnUse">
      <stop offset=".01" stop-color="#ffffcf"/>
      <stop offset=".72" stop-color="#fbe28c"/>
      <stop offset="1" stop-color="#fad772"/>
    </radialGradient>
    <radialGradient id="radial-gradient-2" cx="136.4" cy="-90" fx="136.4" fy="-90" r="190.68" xlink:href="#radial-gradient"/>
    <radialGradient id="radial-gradient-3" cx="-.54" cy="59.45" fx="-.54" fy="59.45" r="47.13" xlink:href="#radial-gradient"/>
    <radialGradient id="radial-gradient-4" cx="134.46" cy="134.46" fx="134.46" fy="134.46" r="30.12" gradientUnits="userSpaceOnUse">
      <stop offset="0" stop-color="#fff59f"/>
      <stop offset=".99" stop-color="#3a2b3d"/>
    </radialGradient>
    <linearGradient id="linear-gradient-5" x1="299.89" y1="66.14" x2="73.11" y2="312.15" xlink:href="#linear-gradient"/>
  </defs>
  <g id="background">
    <rect x="34.32" width="300" height="250" style="fill: url(#linear-gradient);"/>
  </g>
  <g id="could2">
    <path d="m334.28,89.29c-1.65-.95-6.8-8.58-6.89-8.59-9.11-1.33-20.11-5.55-29.06-1.39-5.91,2.75-7.92,6.88-14.19,7.18-11.16.53-22.74-.59-34.22.48-14.37,1.33-40.4-5.63-52.9,8.12,11.82,6.93,28.51,4.02,40.93,5.71,11.8,1.6,34.1,14.54,44.96,6.49-3.31-1.45-6.58-3.79-9.69-6.2,16.29-6.93,36.07-8.21,52.25-1.38-2.72,3.64-7.29,4.47-10.58,6.71,4.35.51,8.67,2,12.75,4.6-1.79,4.21-5.7,6.15-7.8,8.64,1.92.41,2.69,1.45,4.19,2.2-6.03,4.92-21.39,7.24-25.87,2.26-10.2,7.32-28.23,9.17-40.33,7.87-36.83-3.94-73.14-7.74-109.86-5.21-13.94.96-40.79-12.57-52.22,5.98,21.39,14.94,51.23,14.98,73.73,17.82-6.97,9.09-22.99,9.34-32.23,7.8-12.28-2.06-21.62-.2-33.95,3.17-22.18,6.05-68.97,5.92-68.97,5.92v82.55h300" style="fill: url(#linear-gradient-2);"/>
  </g>
  <g id="cloud1">
    <path d="m334.46,47.28c-13.29-.03-27.38-2.74-39.53,2.46,5.44,1.67,11.24,2.71,16.31,5.85-5.26,2.28-17.43.64-19.03,7.44-26.54,8.91-58.65-.12-84.7,12.01,27.64,2.63,56.15,1.68,83.56-4.11-3.18-.49-6.7-.17-9.88-.66,6.21-2.49,16.7-4.84,21.41,1.76-1.44,1.22-2.42,3.46-3.54,4.53,8.33,4.8,25.71,3.08,35.38,4.18v-33.46Z" style="fill: url(#linear-gradient-3);"/>
    <path d="m334.32,0H34.32l.11,68.5c44.57-2.13,73.75.42,118.36,2.06,13.24.49,28.92,4.25,41.98-.25-4.85-5.85-21.14-3.5-27.7-4.4,6.06-3.53,13.66-1.57,19.18-5.97-15.25-4.59-36.06,8.44-49.73.47,2.76-3.43,7.13-3.32,11.08-5.6-3.77-1.96-8.13-2.77-12.25-3.54,2.08-2.1,5.14-3.76,8.1-4.43-2.11-1.11-5.04-3.84-7.84-4.43,16.89-10.27,38.88,2.63,56.7-5.14-6.34-1.24-16.76-1.79-21.75-6.18,5.68-4.49,15.46-3.25,19.4-8.86-1.02-.88-1.98-2.12-3-2.96,24.5.03,49.47-6.01,73.93-3.24,11.56,1.31,21.93,3.21,33.71,2.18,11.94-1.04,24.17-2.84,35.7,2.55-3.03,2.08-6.64,3.18-9.96,4.06,1.91.4,3.9,1.77,5.86,2.16-2.7,1.38-5.81,2.7-8.69,3.7,4.61,2.81,11.07,3.07,16.63,3L334.32,0Z" style="fill: url(#linear-gradient-4);"/>
  </g>
  <g id="Moon">
    <g>
      <path d="m133.1,77.79c0-36.75-29.79-66.55-66.55-66.55S0,41.04,0,77.79s29.79,66.55,66.55,66.55,66.55-29.79,66.55-66.55Z" style="fill: url(#radial-gradient);"/>
      <path d="m126.42,50.83c-6.89-10.8-10.84-21.12-21.95-28.72-10.49-7.17-25.19-11.35-37.92-11.35-14.25,0-37.97,5.49-45.75,19.34,2.54-1.75,8.45-5.5,11.7-4.02,2.17.99,2.21,3.61,3.62,5.42-4.69,2.38-1.99,1.79-2.64,5.86-.19,1.19-1.59,1.05-1.75,2.33-.21,1.65.06,3.48-.07,5.17-1.93.39-3.22,1.71-3.66,3.66-.71-.36-2.12-.69-2.72-1.19,3.22,2.67,4.09,6.57.2,9.13-3.81,2.51-9.48-.49-4.83-4.16-4.41,2.05-2.99-4.31-2.25-6.49,3.34.37,1.53-2.18,1.92-3.73.5-1.94,2.04-3.28,3.97-3.68-2.12.05-5.27-.71-6.73,1.15.9.48.55.76,1.14,1.33-2.13,1.29-5.86,1.39-8.39,1.18,1.94.95,5.03.63,7.23.94-.91.43-2.46.59-3.64.8,1.03.32,2.09.74,3.04,1.22-1.89.86-3.77,1.94-5.45,3.11,1.6-.27,3.41-1.21,5.11-1.11-3.49-.2.32,6.91,1.16,7.65-2.58,2.4-3.72,6.88-4.64,10.25,1.73-1.08,3.46-3.59,5.67-3.71-.25.01,2.61,2.96,3.08,3.23.21-1.42,1.11-2.83,1.46-4.18,3.31,1.81,4.26,7.67,8.36,8.43-.96-3.47-6.37-12.53.61-12.9.85-.04-1.51-5.44-1.61-5.79,3.42-.17,5.82-.42,9.17,1-1.26-2.33-2.7-6-.76-8.02,1.48-1.54,3.45.4,3.72-3.29,2.77-.55,7.43,2.02,4.82,5.21,3.18-1.39,6.01-1.72,9.05.3.55-4.85,3.28-8.14,6.29-11.79,3.4-4.11,5.5-4.16,10.71-3.32,3.32.54,7.14-.85,10.14,0,2.7.76,6.22,4.79,4.25,7.55,4.3-1.29,2.38-7.13,5.95-7.77,4.41-.78,4.92,7.43-.26,7.29,1.11,1.51,2.64,2.86,4.25,3.69,1.34-5.64,6.42-7.09,10.95-4.15,6.66,4.32.9,7.36-3.37,10.29-1.87,1.28-6.55,2.36-7.86,3.81-1.41,1.56.17,4.69-2.05,6.16-2.69,1.78-4.45-.5-4.22-3.43-2.45,1.41-5.8,4.6-7.17,7.05,2.16-.8,4.31-1.82,6.1-3.23.76,2.43,1.22,5.6,3.81,6.89.21-1.66.74-2.67-.15-4.48,1.85,1.02,3.62,2.43,5.37,3.44.53-2.55-1.43-4.64-2.28-6.57,1.28.21,2.58-.63,3.58-.67-.78-.59-1.82-2.09-3.03-2.34,4.45-1.17,11.04.08,14.89-1.93,3.64-1.9,3.45-6.24,8.74-4.29-1.03-.48-1.49-1.22-2.2-1.75,4.01-1.04,5.51,2.36,7.29,5.16Z" style="fill: url(#radial-gradient-2);"/>
      <path d="m72.69,142.49c34.22-.82,60.41-32.9,60.41-65.73,0-7.43-.52-18.53-5.97-24.34,1.78,3.13-.56,13.11-.21,17.33-2.27.29-4.82.18-7.23.4,3.23,5.63,10.64,21.12,8.14,27.38-.49,1.23-3.93,1.49-4.99,3.02-1.64,2.35-1.42,5.95-3.14,8.53-4.72-5.95-5.87,1.77-7.53,5.7-8.48-.37,13.27-22.47,4.34-27.6.48,1.09.57,2.05-.14,2.99-.42-.08-5.55-3.77-3.98-4.36-3.16,1.18-5.95-.85-8.7-2.44,2.88,3.23,2.4,7.87-1.12,10.47-.69-1.4-1.61-.98-1.78-3.23-.65,2.2-2.04,2.77-3.34,4.45-1.33-1.72-2.18-3.94-2.4-6.23-2.83,4.01-4.02,9.3-9.56,10.25-5.77,1-14-4.83-13.86-10.89-.05.56-.12,1.43-.04,1.98.79-1.62,2.27-2.45,3.36-3.82,1.16,1.74,1.94,4.6,3.05,6.56.28-3.4,1.62-7.34.45-10.63,4.99,1.77,10.15,3.4,15.19,4.87-.69-3.99-4.07-6.81-7.3-9,1.72-1.98,4.58-2.32,6.68-4.04-1.01-.37-2.91-2.11-4.1-2.43,1.55-.71,3.39-1.81,5.18-2.11-3.43,1.31-7.16,1.52-10.87,1.25,6.42,5.39-13.78,14.22-13.92.98.62.02,1.47-.08,2.12-.1-1.91.27-3.55-.53-5.35-.96-.74-2.59-.21-5.1,2.08-6.48-3.78,2.65-3.43,9.84-9.24,9.17,1.1,2.37,8.48,7.89,8.12,10.02-.72,4.25-11.02,1.87-13.95,1.18,1.23,3.61-2.54,8.53-7.24,9.08,8.25-2.12,5.07,13.02-1.59,3.93.13.3.88,1.43,1.06,1.65-2.87-1.69-9.44-4.08-10.22-6.94.67.33,1.47.88,2.17,1.12-2.96-3.4-7.47-6.43-11.19-8.74,1.21,3.13,5.13,5.95,4.4,8.98,1.75.31,3.72,1.23,5.82,1.08-1.84,3.33-6.16,3.99-7.76,7.08,5.9,2.96,8.76.16,13.83.69,3.84.4,5.56,2.59,7.83,7.17-.57.11-.53-.5-1.23-.5,2.62,4.91,10.5,8.54,15.86,9.81,7.36,1.76,19.04-1.58,21.78,8.71,1.98,7.46-7.07,14.62-13.9,14.78Z" style="fill: url(#radial-gradient-3);"/>
    </g>
  </g>
  <g id="house">
    <g>
      <path d="m77.28,244.02c-.04-.15,3.19-1.28,3.38-1.93.21-.72-.5-1.42-.83-1.98-.47-.8-.68-1.54-.91-2.42-.29-1.1-.39-3.56.8-4.31-1.93,1.22-3.02,1.86-4.57-.06-1.35-1.66-3-3.39-3.62-5.48-.16-.55-.13-1.56-.56-1.98-.33-.32-.81-.08-1.19-.3-1.57-.91-1.53-3.51-1.59-5.06-.04-.91.09-1.82.05-2.73-.05-1.03-.69-2.21-.56-3.23.02-.12.62-1.55.94-.99-.29-.5-.67-.98-.65-1.58-.47.57-.44,1.36-1.19,1.71-1.3-1.54-.85-3.23-.47-4.9.2-.89.47-1.87,1.19-2.45.62-.5,1.37-.68,2.09-.98.5-.21.79-.83,1.27-.98.4-.12,1.56.34,1.99.44.81.2,1.6.53,2.42.68-.59-.74-2.16-1.01-3.06-1.14.38-.2.7-.46,1.06-.67-.45.28-1.28.74-1.84.47.44-.3.85-1.01,1.31-1.2.65-.27,1.86.6,2.46.85,1.31.55,2.52,2.06,3.95,2.12-.57-.46-1.17-.9-1.8-1.26-.27-.15-.46-.23-.66-.49.34-.25.8-.27,1.18-.44.64-.29,1.21-.71,1.79-1.09-.91.52-2.21,1.23-3.31,1.25-1.1,0-2.06-1.1-3.05-1.52.48-.64.58-1.2.57-1.99,0-.47.02-.67.29-1.09.44-.69,1.21-1.36,1.44-2.17.15-.51-.1-1.17-.27-1.69.18.82.18,1.26-.21,1.95-.4.72-1.05,1.31-1.37,2.08-.57-.73-.9-1.53-1.38-2.3.11.72.26,1.28.69,1.87.37.5.56.83.51,1.47-.11,1.48-1.22,2.13-2.26,2.96-.41-.66-.46-1.68-.3-2.41.25-1.11.32-2.46,0-3.6-.01.46.39,2.87.07,3.11-.28.21-1.12-.8-1.35-1,.83.93,1.66,2.79.95,4-.26.43-1.31,1.51-1.86,1.48-.54-.03-.53-1-.62-1.44-.04.4-.23,1.38.03,1.75-.46.29-2.1.83-1.7,1.57-.81-1.48-.73-3.47-1.13-5.09-.26-1.07,0-1.15.78-1.98,1.33-1.42,2.57-2.8,3.74-4.37.26-.36.67-1.23,1.07-1.38,1.24-.47,3.23.21,4.54.24-.14-.59.48-.79.87-1.05.99-.66,1.82-1.64,2.86-2.2-1.89.94-4.72,3.56-7.03,2.09-1.17-.74-.13-1.46.54-2.08.64-.59,1.45-3.33,2.52-2.93.16.06.49.65.66.79.45.36,1.04.56,1.52.88-.52-.6-1.11-1.15-1.71-1.66.62-.26,1.29-.39,1.88-.72,1.1-.62,2.06-1.68,2.68-2.79-.48.37-.8.95-1.28,1.34-.81.67-1.54,1.27-2.56,1.59-.52.16-1.83.74-2.36.27-.4-.37-.44-1.5-.58-1.99-.23-.83-.56-1.63-.99-2.39-.89-1.56-1.49-3.13-1.16-5.02.1.93-.08,1.83,0,2.73.1,1.22,1.1,2.17,1.21,3.38-.76-.5-1.56-1.11-2.14-1.82.94,1.48,2.44,2.48,2.93,4.27.39,1.42-.17,1.84-.82,2.85-.5.77-.91,1.61-1.42,2.37-.12-.44-.35-.82-.34-1.29.01-.73.63-1.31.59-2.03-.38.54-.71,1.32-1.16.71-.38-.52-.25-2.34-.36-3.01.03,1.55.29,3.04.66,4.55.24.97.62,1.77,0,2.54-.28.34-.74.57-1.03.93-.51.6-.88,1.32-1.31,1.97-.46.7-1.03,1.46-1.77,1.87-.12.06-1.95.67-1.9.75-.75-1.3-1.71-2.49-2.4-3.82-.47-.91-.31-1.36-.17-2.29.25-1.56.56-3.1.8-4.68-.19.54-.26,1.13-.44,1.67-.16.48-.58,1-.61,1.53.04-.77-.21-1.61-.52-2.32.43-.31.71-.72,1.15-1.02.83-.56,1.81-.91,2.58-1.56-.86.52-2.26,1.27-3.29,1.17-.27.6-.6,1.39-.63,2.05-.76-.93-2.15-2.35-2.26-3.62-.1-1.21,1.52-2.11,2.29-2.78-.37-.54-.91-.99-1.29-1.54.1.56.83,1.2.63,1.68-.15.37-1.2.91-1.54,1.23-1.02-1.43-.17-2.66-.17-4.16-.29.71-.59,1.56-.62,2.31-.02-.24-.07-.49-.12-.72.28,1.28.28,2.6.61,3.89-2.49-1.26-3.11-4.67-4.05-7.04.34,1.55.86,3.15,1.33,4.66.35,1.12,1.7,1.95,2.49,2.79.61.65.81,1.54,1.21,2.31-.35.04-1.21.26-1.51.14-.55-.23-.55-1.27-1.2-1.63.08.58.48,1.33.72,1.9-.54.61-1.4.86-2.06,1.32.91-.15,2.47-.73,3.06-1.5.54.21,1.17.18,1.74.14.14.56.46.88.77,1.34.59.9.36,2.04.12,3.06-.44-.29-1.32-1.26-1.84-1.23-.13.01.78.77.82.8.4.27.78.58,1.12.92.33.32.31.35.48.85.26.8,1.92,2.72,1.44,3.53-.39.66-2.01.78-2.69,1,.97-.32,2.64-1.19,3.51-.27.63.66.63,1.97.7,2.79.19,2.34.75,4.36-.95,6.21-.12.13-.03.19-.18.27-1.23.62-3.91-.67-4.16-2.08-.21-1.14-.15-1.62.54-2.53.56-.73.98-1.3,1.36-2.13-.41.9-1.28,1.34-1.77,2.13.02-.99.28-1.81-.36-2.7-.53-.74-.77-1.42-1.12-2.26-.03.52.17,1.02.46,1.42.41.57.72,1.17.99,1.86.21.54.18.67-.41.4-.68-.3-1.33-.9-1.83-1.45.36.49.71,1.12,1.23,1.43.43.25.6.08.63.68.03.67-.37,1.32-.36,2.01,0,.64.18,1.29.25,1.93-.94-.31-1.44-1.34-1.73-2.2-.34-1.02-.95-1.98-.85-3.09.15-1.75.8-3.51.27-5.3,0,1.63.14,3.18-.34,4.74-.09-.51-.3-1-.42-1.5-.11.67.31,1.57.38,2.27.08.75.28,1.5.32,2.25-2.46-2.83-6.93-6.12-5.19-10.42,1.05-2.61,3.44-4.26,4.08-7.1-1.24.9-1.27,3.09-2.48,4.05-.31-.66-.09-1.52-.47-2.16-.26.93.27,2,.04,2.84-.19.72-.89,1.99-1.57,2.27-.24-1.15-.28-2.32-.22-3.48.05-.99-.13-2.09.15-3.03.32-1.07.57-2.24.9-3.28-.24.75-.21,1.57-.8,2.15-.94-1.57-2.41-2.52-2.23-4.45-.04.43-.11.98-.48,1.2-.57-.56-1.29-1.06-1.21-1.9.04-.38.34-.76.38-1.18.08-.66-.04-1.39-.09-2.06-.11.53-.17,2.57-.65,2.79-.64.29-1.14-1.76-1.22-2.05-.33-1.3-.91-2.11-1.94-3.01.79.69,1.44,2.36,1.92,3.29.55,1.06.91,2.21,1.47,3.25.56,1.05,3.2,2.22,3.12,3.46-.09,1.37-3.21-1.05-3.59-1.41,1.7,1.62,4.36,2.37,3.91,5.07-.26,1.5-.23,3.22-.32,4.81-.87.06-1.3.34-2.05-.29-.31-.26-1.11-1.53-1.59-1.45.52-.09,1-1.06,1.12-1.5.23-.82-.24-1.25-.37-2.05.1.58.15,1.26.14,1.84-1.01-.96-1.58-2.76-2.21-3.98.46.99.96,1.95,1.34,2.98.16.43.41.95.37,1.42-.01.15-.48,1.12-.5,1.08-.98-1.47-2.1-2.8-3.1-4.28-.05.94.96,1.73,1.49,2.42.64.82,1.08,2.86,2.09,3.32-1.09-.5-2.02-.82-2.81-1.8-1.08-1.35-3.34-3.84-3.41-5.68.04,1,.5,2.23.96,3.12.46.89,1.39,1.49,1.78,2.38-.43.89-2.3-1.06-2.7-1.45,1.12,1.1,2.62,1.9,3.95,2.7,1.05.63,2.88,1.12,1.88,2.68-.53-.17-1.86-.36-2.29.04.85.28,2.06.32,2.89.44.04-.52.19-1.02.15-1.55,0,.09,2.22.15,2.48.43.34.37.26,1.05.41,1.51.61,1.9,1.48,4.17,2.98,5.56,1.11,1.03,1.99,1.48,2.49,3.06,0,0-1.63-.3-1.78-.36-.63-.22-1.21-.57-1.74-.99-1.12-.89-1.98-2.09-3.07-3.01.6.84,1.56,1.55,2.04,2.45-1.48.54-2.74-1.82-3.69-2.64.64.88,1.9,2.79,3.09,2.87,1.05.08,2.24.82,2.78,1.79-.89.42-2.41,1.65-3.42.97-.81-.55-.93-1.74-1.71-2.31.36.61,1.1,1.54,1.09,2.28-1.15-.31-1.63-.52-2.32-1.6-.33-.52-3.17-3.63-1.87-4.18.42-.18.9.16,1.38-.2-.3-.19-.75,0-1.09,0,.13-.48.51-.78.69-1.22.22-.55.09-1.3-.07-1.86.18,1.16-.74,4.2-2.33,2.73-.56-.52-.78-1.42-1.14-2.07-.64-1.13-1.46-2.18-2.21-3.23.22.27.16.52.26.82.11.35.33.63.5.95.6,1.11,1.49,2.06,2.03,3.21-.37-.34-.73-.72-1.06-1.11-.36-.44-.85-.66-1.21-1.07.12.69.9,1.25,1.36,1.72.62.63,1.33,1.17,1.92,1.83.35.4.38.89.67,1.33-.41-.01-1.56-1.04-1.79-1.41-.21-.34-.09-.74-.36-1.08.03.3.21.63.06.96-.39-.36-.75-.33-1.21-.46-.52-.15-.53-.3-.78-.81-.63-1.29-1.84-2.34-2.94-3.22.36.42,1.37,1.98,1.96,2.02-.41-.03-.92-.12-1.25.1.53.23,1.1.06,1.51.41.29.24.75.85.79,1.25-.54-.01-1.07-.2-1.59-.36-.63-.2-.84-.57-1.37-1-.73-.59-1.54-1.12-2.42-1.41.84.93,2.58,1.17,3.13,2.33-.63.06-1.33.11-1.91-.29.74.28,1.56.18,2.29.45.57.21,1.09.49,1.7.65.99.25,1.81.75,2.62,1.43.02.28-1.11.96-1.36.97-.51.02-1.5-.99-1.94-1.26-.29-.17-.59-.4-.93-.35.51.4,1.02.81,1.58,1.13.26.15.7.28.89.54.43.6-.13,1.58-.39,2.12.28-.35.67-.7.82-1.14.11-.32.03-.59.24-.86.33-.42,1.17-.82,1.71-.72.6.12.95.68,1.37,1.08.54.51,1.4,1.21,1.69,1.91-.3.41-1.01.69-1.47.91-.59-.68-1.52-1.21-2.25-1.72.32.71,1.26.94,1.58,1.63-.44.26-.9-.14-1.32.14.31.17.7.14,1.04.17-1.14.46-1.68.37-2.75-.17-.44-.22-.88-.34-1.28-.65-.64-.5-1.2-1.13-1.82-1.66.32.34,1.63,1.46.62,1.35-1.11-.13-2.29-1.15-3.32-1.61,1.13.76,2.28,1.55,3.56,2.01.63.23,1.72.3,2.19.86.53.63-.08,1.45-.39,2.01-.62,1.11-.96,2.16-.95,3.44,0-.38.94-2.41.8-2.58.33.41.84.65,1.2,1.05.16.17.27.4.46.55-.6-.71-.92-1.3-1.76-1.68,0,0,.59-.94.64-1.05.28-.57.41-.96,1.09-1.11.48-.1.97-.13,1.42-.28.48-.16.92-.36,1.43-.46.5.85-.99,3.21-1.5,3.86.59-.34.92-.85,1.17-1.46.27-.64.71-1.23.92-1.9.12-.39.15-.7.55-.9.77-.38,1.63.44,2.33.7.36.14,2.27.47,2.47.07-.36.76-.59,1.37-1.21,1.91-.37.32-1.9,1.43-1.74,1.9.46-.47,1.51-2.02,2.19-2.07.65-.05.79,1.5.94,2-.16-1.27-.96-2.93.34-3.75.87-.55,1.98-.52,2.96-.25,1.09.3,1.91,1.04,2.81,1.69.89.64.56,1.35-.25,1.81-1.07.61-2.7,1.89-4,1.76-.61-.06-1.46-.42-1.99-.76.36.6,1.49.64,1.68,1.19-.44.08-.95-.17-1.39-.26-.84-.16-1.67-.41-2.5-.63.92.28,1.91.5,2.81.88.48.21.69.31.4.77-.33.53-1.13.93-1.62,1.29-.54.4-1.09.8-1.64,1.19.6-.29,1.09-.77,1.67-1.1.82-.47,1.67-.9,2.42-1.48.74-.57,1.67-1.13,2.58-1.34.2.55-.49,1.66-.63,2.23-.19.73-.5,1.05-.87,1.64.58-.68,1.13-1.41,1.42-2.28.16-.49.02-1.12.24-1.56.37-.72,1.63-1.17,2.29-1.58,1.4-.88,3.52.53,4.57,1.49,1.1,1.01,1.39,2.66,2.07,3.93.4.74,1.73,2.55,1.19,3.46-.29.5-1.53.51-1.95.25.26.85.1,1.92-.46,2.62,2.22-1.05,2.72.14,3.31,2.15.71,2.43,1.76,4.9,2.73,7.23.61,1.47,1.66,2.78,2.23,4.25.25.65-.04,1.14.11,1.72.22.83,1.09,1.04,1.75,1.48,1.66,1.12,2.89,3.62,3.42,5.49Z"/>
      <path d="m191.46,238.19c1.77-1.66,3.91-2.69,5.84-3.71-.72-.11-1.08-.09-1.78-.29.47-1.38,1.58-1.78,3.2-2.22.8-.22,1.72-.44,2.65-.19.8.22,1.45.66,2.17,1.03.5.26,1.16.2,1.61.46.37.22.82,1.2,1.04,1.54.42.64.71,1.31,1.16,1.93.14-.71-.74-1.89-1.25-2.56.41.17.82.29,1.23.45-.52-.2-1.43-.57-1.62-1.06.52.18,1.34.17,1.8.4.65.33.84,1.51,1.06,2.03.49,1.12.19,2.56,1.14,3.56-.04-.58-.13-1.17-.3-1.75-.07-.24-.14-.41-.09-.65.42.13.75.43,1.15.63.65.32,1.37.54,2.04.78-1.01-.41-2.45-1.01-3.21-1.75-.77-.75-.6-1.86-.97-2.7.8.06,1.29-.09,1.88-.43.34-.2.51-.26,1.01-.24.82.02,1.85.27,2.61.1.48-.11.81-.55,1.07-.88-.48.46-.82.64-1.6.65-.82.02-1.7-.18-2.5-.09.15-.69.53-1.24.76-1.89-.46.37-.78.7-.91,1.24-.12.45-.24.72-.74.95-1.18.53-2.43.03-3.77-.33.21-.55.94-1,1.59-1.19,1-.28,2.06-.79,2.68-1.47-.35.18-1.87,1.44-2.28,1.31-.35-.11-.17-1.09-.19-1.33-.12.95-.94,2.27-2.33,2.28-.5,0-2.03-.28-2.39-.67-.35-.38.38-.77.64-1.01-.33.14-1.19.4-1.29.73-.53-.2-2.07-1.1-2.35-.52.55-1.15,2.09-1.91,3.02-2.84.61-.62.87-.46,2.01-.28,1.97.33,3.86.62,5.84.77.45.04,1.38-.05,1.77.16,1.2.65,2.07,2.29,2.95,3.2.34-.34.92,0,1.38.16,1.18.41,2.48.57,3.61,1.05-2-.9-5.92-1.77-6.4-3.95-.25-1.1,1-.68,1.93-.48.89.2,3.49-.36,3.92.53.07.13-.15.6-.13.77.04.46.3.94.39,1.4.09-.6.09-1.23.06-1.85.62.32,1.18.72,1.83.99,1.22.5,2.67.73,3.93.69-.6-.18-1.26-.16-1.88-.33-1.06-.28-2-.54-2.95-1.1-.48-.29-1.82-.95-1.82-1.5,0-.43.81-.92,1.09-1.21.46-.5.84-1.05,1.1-1.65.55-1.24,1.31-2.29,2.95-2.84-.62.45-1.42.69-2.04,1.11-.84.57-.87,1.64-1.69,2.21-.15-.72-.24-1.52-.12-2.2-.46,1.24-.17,2.68-1.17,3.74-.79.85-1.49.63-2.69.6-.92-.02-1.83.04-2.75,0,.25-.26.37-.57.73-.76.56-.29,1.42-.1,1.92-.43-.66-.04-1.48.05-1.33-.5.13-.48,1.57-1.13,1.99-1.47-1.14.65-2.07,1.44-2.95,2.3-.56.56-.9,1.14-1.89,1.04-.45-.05-.94-.27-1.41-.33-.8-.1-1.59-.06-2.37-.09-.84-.03-1.8-.11-2.61-.44-.13-.06-1.84-1.06-1.87-.99.45-1.04.68-2.18,1.2-3.2.35-.7.8-.77,1.59-1.05,1.34-.47,2.7-.88,4.05-1.37-.54.1-1.02.28-1.55.38-.47.09-1.15.01-1.56.21.61-.29,1.06-.8,1.37-1.3.53.17,1.03.19,1.55.37.99.34,1.92.86,2.94,1.12-.98-.37-2.5-1.03-3.14-1.77-.63.06-1.45.16-1.96.4.17-.9.27-2.43,1.15-3.02.83-.57,2.62.17,3.65.43.15-.47.11-1.02.26-1.51-.34.3-.32,1.06-.82,1.12-.38.05-1.51-.45-1.98-.55.36-1.28,1.87-1.2,2.99-1.81-.73.1-1.58.23-2.15.52.16-.11.32-.25.46-.38-.76.71-1.75,1.25-2.49,2-.78-2.21,1.34-4.03,2.47-5.64-.92.86-1.76,1.87-2.56,2.81-.59.7-.29,1.96-.37,2.84-.06.69-.59,1.18-.89,1.77-.27-.23-1.03-.72-1.14-.98-.21-.47.57-.89.39-1.48-.38.29-.66.87-.92,1.27-.83-.12-1.61-.61-2.4-.87.74.56,2.25,1.39,3.23,1.48.21.46.67.87,1.09,1.24-.32.32-.34.67-.47,1.07-.27.77-1.28,1.08-2.21,1.33-.09-.41.03-1.42-.35-1.76-.1-.09-.04.84-.03.89.08.38.1.77.08,1.14-.01.35-.04.36-.3.67-.41.51-.71,2.42-1.64,2.42-.76,0-1.96-1.06-2.6-1.43.9.53,2.7,1.32,2.62,2.29-.06.7-1.03,1.24-1.6,1.62-1.61,1.09-2.74,2.29-5.29,1.88-.18-.03-.17.06-.33-.01-1.31-.59-2.19-2.94-1.31-3.69.71-.6,1.11-.77,2.26-.66.93.08,1.64.14,2.53.06-.95.09-1.88-.33-2.81-.34.75-.39,1.54-.55,1.77-1.35.18-.67.53-1.1.92-1.69-.41.19-.64.53-.74.89-.15.51-.38.97-.7,1.44-.26.37-.37.4-.58-.11-.24-.59-.25-1.28-.18-1.85-.12.44-.35.94-.22,1.43.11.4.35.44-.07.7-.48.3-1.24.29-1.75.58-.47.27-.84.65-1.27.96-.42-.77,0-1.53.45-2.08.53-.65.82-1.45,1.72-1.84,1.41-.61,3.18-.88,4.14-1.98-1.22.66-2.28,1.39-3.78,1.7.32-.27.54-.61.83-.9-.57.2-.96.85-1.43,1.18-.51.36-.93.8-1.46,1.14.42-2.83-.2-7.23,4.2-7.8,2.67-.35,5.55.61,8.12-.11-1.53-.48-3.18.4-4.73-.04.28-.48,1.07-.68,1.29-1.2-.87.2-1.31,1-2.1,1.19-.67.16-2.1.21-2.78-.15.69-.64,1.54-1.14,2.45-1.57.77-.37,1.46-.94,2.37-1.13,1.02-.22,2.07-.53,3.07-.73-.72.14-1.31.5-2.15.33.53-1.28.22-2.67,1.78-3.34-.35.15-.8.32-1.23.16.02-.62-.1-1.32.58-1.6.31-.13.8-.08,1.15-.22.55-.22,1.01-.59,1.47-.9-.47.14-2.04.94-2.54.69-.66-.32.53-1.5.69-1.67.74-.76.95-1.48.91-2.56.03.82-.77,1.94-1.13,2.66-.41.81-1.02,1.52-1.42,2.33-.4.81.55,3.09-.44,3.54-1.08.5-1.43-2.62-1.42-3.03-.04,1.83,1.23,3.95-1.1,4.74-1.3.44-2.57,1.15-3.82,1.74-.64-.57-1.15-.75-1.2-1.51-.02-.32.38-1.39-.01-1.68.42.32,1.48.25,1.9.16.77-.18.77-.67,1.27-1.09-.36.3-.83.62-1.28.84.02-1.08.97-2.2,1.45-3.13-.42.72-.8,1.45-1.31,2.13-.21.29-.43.67-.8.84-.12.06-1.16.13-1.15.1.42-1.27.64-2.58,1.06-3.87-.74.35-.63,1.36-.78,2.01-.17.77-1.39,1.9-1.04,2.78-.38-.95-.78-1.72-.59-2.65.27-1.29.56-3.85,1.89-4.65-.72.43-1.32,1.25-1.67,1.93-.35.68-.15,1.55-.55,2.18-.96.07-.79-2.01-.77-2.43-.05,1.21.38,2.57.7,3.8.25.98,1.15,2.42-.71,2.38-.23-.43-1.01-1.41-1.61-1.55.38.69,1.18,1.53,1.66,2.15.42-.18.9-.29,1.26-.53-.07.04,1.42,1.58,1.39,1.87-.04.39-.61.61-.84.9-1,1.19-2.09,2.71-2.1,4.3,0,1.18.27,1.97-.57,2.95,0,0-.89-1.23-.96-1.36-.27-.52-.41-1.06-.46-1.6-.11-1.13.2-2.2.13-3.32-.22.75-.08,1.7-.42,2.4-1.43-.79-.53-2.62-.57-3.59-.21.8-.77,2.44-.02,3.28.66.75.93,1.87.58,2.63-.92-.44-2.89-.97-3.08-1.94-.15-.78.66-1.34.54-2.11-.21.5-.38,1.38-.95,1.67-.56-.91-.73-1.33-.4-2.23.16-.44.52-3.65,1.84-2.98.43.21.5.68,1.1.86-.06-.28-.52-.51-.74-.75.45-.11.94.03,1.39-.03.56-.07,1.03-.47,1.34-.81-.74.6-3.64,1.2-3.64-.48,0-.59.53-1.11.76-1.63.41-.9.62-1.88.89-2.83-.05.26-.28.33-.44.51-.18.22-.24.48-.36.73-.42.86-.51,1.86-1,2.7,0-.39.03-.8.1-1.17.08-.43-.09-.85-.04-1.26-.43.36-.32,1.12-.35,1.63-.04.68.04,1.38-.04,2.06-.05.4-.4.63-.53,1-.27-.28-.3-1.49-.18-1.8.11-.28.49-.36.56-.69-.21.15-.33.4-.68.43,0-.41-.28-.64-.49-1.01-.24-.42-.14-.49.06-.86.53-.96.49-2.21.38-3.32-.07.42-.53,1.75-.16,2.16-.26-.29-.54-.68-.94-.82.19.45.71.77.74,1.2.02.3-.12.86-.38,1.05-.36-.37-.59-.81-.82-1.23-.28-.51-.15-.81-.19-1.35-.06-.74-.23-1.51-.62-2.23-.11.95.9,2.24.42,3.09-.48-.41-1-.86-1.1-1.42.3.62.94,1.13,1.24,1.74.23.47.38.95.69,1.43.49.78.69,1.54.74,2.37-.2.13-1.48-.37-1.66-.53-.37-.34-.3-1.43-.4-1.84-.07-.27-.11-.56-.38-.78.05.51.1,1.02.24,1.54.07.24.28.59.21.83-.15.54-1.28.55-1.85.6.45.05.99.17,1.42.09.32-.06.46-.22.81-.19.54.05,1.42.46,1.71.87.33.46.14.93.14,1.38,0,.58.06,1.45-.26,1.93-.52-.04-1.21-.41-1.69-.64.1-.68-.14-1.53-.26-2.24-.3.51.17,1.25-.13,1.75-.5-.19-.51-.67-1.01-.84.08.28.37.53.59.78-1.13-.59-1.44-1-1.77-1.95-.14-.39-.35-.74-.39-1.14-.07-.64.02-1.28-.02-1.92-.04.36.03,1.71-.58.97-.67-.81-.72-2.03-1.09-2.92.21,1.08.41,2.19.95,3.25.27.53.97,1.3.87,1.85-.11.62-1.14.53-1.77.55-1.25.03-2.27.22-3.22.76.28-.16,2.45-.34,2.48-.51-.08.4.09.84.05,1.25-.02.18-.11.35-.09.54.11-.7.34-1.16.04-1.89,0,0,1.11.02,1.22.01.62-.04,1-.11,1.58.3.41.28.76.61,1.19.86.45.26.9.48,1.33.78-.29.69-3.08.64-3.92.55.66.26,1.27.28,1.9.2.67-.08,1.41-.01,2.05-.15.38-.08.62-.18,1.05.01.82.37.8,1.29,1.08,1.88.14.3,1.22,1.74,1.65,1.71-.81.06-1.42.15-2.26-.05-.49-.12-2.37-.71-2.62-.42.67.13,2.55.21,3.05.65.49.43-.57,1.15-.84,1.45.83-.63,1.52-1.85,3.03-1.3,1.01.37,1.76,1.14,2.22,1.92.52.87.54,1.73.68,2.61.14.87-.62.93-1.53.56-1.19-.48-3.27-1.07-4.07-2.02-.38-.45-.69-1.17-.8-1.67-.2.49.54,1.28.27,1.64-.36-.27-.52-.72-.76-1.05-.46-.64-.85-1.31-1.25-1.97.43.75.95,1.51,1.28,2.28.18.42.24.6-.3.59-.62-.01-1.48-.39-2.08-.58-.67-.21-1.35-.42-2.02-.64.63.29,1.32.43,1.97.69.92.37,1.82.78,2.78,1.05.93.27,1.99.68,2.78,1.21-.27.36-1.58.34-2.1.48-.67.17-1.13.08-1.83.07.91.12,1.83.2,2.68.04.48-.09.85-.44,1.33-.47.79-.04,2,.64,2.75.92,1.62.6,2.03,2.62,2.04,3.74.02,2.92-3.57,4.45-2.93,7.49Z"/>
      <path d="m27.35,265.58c6.87,1.23,10.77-2.73,16.42-5.6,5.57-2.83,15.49-3.27,19.92-6.51,6.63-4.86,4.49-10.5,13.92-15.19,2.7-1.34,29.26-20.99,15.6-24.79,3.5.98,6.61.56,7.92-2.88,1.69-4.44-1.21-16.57,2.62-18.04,2.12-.81,4.43.73,6.78-.57,1.56-.86.97-1.82,3.25-2.4,2.6-.67,5.25.33,7.62-1.43,1.36-1.01,2.1-2.84,3.39-3.99,2.59,1.73,3.39,4.14,6.54,5.25,4.66,1.63,10.07,1.56,14.9.89,1.11-.15,13.3-.96,13.3-.94-.3,7.91,5.69,5.63,11.25,7.35-2.17,1.83-1.53,4.37-.29,6.47.38.65,1.89,1,1.96,1.81.07.85-1.46,1.25-1.53,1.98-1.16,11.58,17.13,23.27,26.76,23.4-3.52,3.21-3.44,23.3-.21,27.46,3.98,5.13,12.37,4.06,17.3,7.83-7.14,4.96-18.48,1.27-26.5.96-13.25-.51-26.35,1.59-39.6,1.63-40.02.1-81.78,3.21-121.32-2.7Z"/>
      <path d="m61.3,258.17c-.51-.51-.59-1.64-.86-2.26-.27-.61-3.57-6.81-3.26-6.95.51-.22,1.03-.49,1.54-.69.06,1.43,1.12,2.95,1.77,4.21.9,1.74,2.63,2.97,3.87,4.52-.26-.33-2.79,1.03-3.06,1.17Z"/>
      <path d="m58.18,250.81c-.62.32-1.23.8-1.62,1.38-.18.27-.77,1.23-.66,1.54-.2-.58-.39-1.13-.67-1.68-.26-.5-.82-1.03-.94-1.52,1.7-.42,3.49-1.25,5.08-2.02.75-.37,2-.94,2.21-1.84-.02,1.08.26,2.59.82,3.54-1.15-.79-3.14.05-4.21.6Z"/>
      <path d="m53.96,245.28c.2-2.58,3.4-2.32,4.7-.75.73.88.55,1.61.54,2.63,0,.63.42,1.92-.05,2.47-.15.18-1.09.24-1.35.24-.2-1.07.4-2.4-.32-3.37-.33-.45-1.41-.81-1.5.09-.05.56,2,2.88,2.08,2.75-.31.49-.84.89-1.25,1.26-.3-.84-1.26-1.61-1.76-2.37-.63-.95-1.2-1.74-1.11-2.96Z"/>
      <path d="m73.71,247.31c-.77.48-1.79,3.03-2.7,2.85-.58-.11-1.28-1.18-1.7-1.6-.67-.68-1.22-1.48-1.59-2.35-.38-.88-1.24-3.33.24-3.68,1.95-.46,4.82,3.34,5.75,4.78Z"/>
      <path d="m147.27,225.84s-48.9,2.85-48.9,2.85c.12,0-.97-9.39-1.11-10.17-.42-2.35-2.35-3.81-4.33-4.85-1.99-1.04-4.36-2.53-6.57-2.99-.6-1.43-.19-3.37-.25-4.87-.1-2.47-.9-5.58-.26-7.99-.06-.05-.11-.1-.15-.15-.83.28-8.63-.47-8.64,0,.04-2.47.21-5.44-.54-7.78,1.02.03,2.02-.28,3.05-.2.04.88.12,1.85-.09,2.7.58-.27,1.22-.39,1.9-.37.11-.93-.04-1.8-.32-2.68.79-.04,1.58-.07,2.32-.18.2.83.2,1.65.23,2.51,1.89-.53,1.67-.93,1.83-2.69.4.04,1.41-.35,1.7-.18.74.44.64,1.94.69,2.67,2.58.68,2.38-6.31,2.26-7.56-.18-1.9.24-8.99-1.43-10.28-.58-.45-1.79.12-2.6-.39-.04-1.55.43-2,.9-3.53.57-1.84,1.48-3.57,1.98-5.43,1.01-3.74,1.76-7.97,3.52-11.43,2.3,3.77,3.05,7.88,4.72,11.9,1.19,2.88,1.47,4.78,2.56,7.71-1.15.89-1.58,1.16-2.87.99-.17,1.69,3.18,16.97,1.68,17.37.38-.1,7.68-2,7.68-2l-1.9-42.68-4.52-5.26.18-12.84-4.36.41s8.44-26.3,9.55-27c1.11-.7,10.51,26.38,10.51,26.38l-4.04.21.27,10.93s3.78,2.18,4.1,4.01c.32,1.83.46,9.47.46,9.47l2.73-.18c0-.07,0-.15,0-.22-.02-1.29-.03-2.57-.05-3.86-.04-2.85-.08-5.7-.11-8.55-.04-3.24-.09-6.48-.13-9.72-.04-2.72-.07-5.44-.11-8.17-.02-1.12-.03-2.24-.04-3.36-.53,0-5.22-1.39-4.91-1.83.62-.87,1.19-1.26,1.64-2.36,1.26-3.04,2.17-6.3,3.15-9.44,1.66-5.34,3.01-10.77,4.68-16.11.58-1.85,1.17-3.71,1.98-5.47.14-.3,1.04-2.42,1.47-2.41.36,0,1.25,1.84,1.41,2.13.73,1.34,1.3,2.76,1.85,4.18,1.79,4.63,3.25,9.38,4.69,14.12.87,2.86,1.68,5.74,2.56,8.6.59,1.9,1.08,4.15,2.21,5.83.25.36.75.66.63,1.03-.4,1.18-4.9,1.47-4.87,2.18l.3,9.97,5.01,9.4-5.07.3.76,26.15s4.28,1.06,4.37.27c.26-2.2-.15-5.9-.15-5.9,0,0-1.88.81-2.22-.29-.34-1.1,3.38-12.46,5.56-15.66,1.49-2.2,8.2,15.88,6.74,16.21-1.46.33-2.07.3-2.07.3.47.09.75,8.55.77,9.32.02.7.12,3.45.39,4.04.44.94,1.4.44,2.37.36.04-.84,0-1.71,0-2.55.53-.07,2.21-.25,2.73-.09,0,.77-.1,1.66-.06,2.43,1.17.05,2.45.46,3.59.37.05-.88,0-1.8.05-2.68,1.12-.11,2.3-.38,3.41-.36.06.97.06,1.91.23,2.86.72.03,1.45-.04,2.14.19.09-1.03.41-2,.41-3.05.76-.06,1.56-.05,2.32,0,.26,3.62.17,7.3.73,10.88,0,.05-2.99.95-3.14,1.05-1.22.85-1.22,2.78-1.35,4.12-.71,7.16-1.41,14.93,3.59,20.69-4.27,1.21-7.18,5.27-9.26,8.9.35-.62-.3-2.49-.77-2.92-.75-.68-1.38-.4-2.34-.14-2.91.8-4.92,3.25-6.47,5.67-.76,1.18-1.75,2.59-1.86,4.03-.05.58.43,3.19,1.32,3.18Z"/>
      <path d="m108.04,178.23c-.67.22-11.06,3.19-10.94,3.44-.12-.24-.23-.72-.26-.98,2.13-.32,21.63-6.67,21.55-7.05.07.34.05.64,0,.98-3.38.25-7.1,2.57-10.35,3.61Z"/>
      <path d="m100.64,191.27s-.47-9.61-.16-11.07c-1.79.56-.06,11.37-.44,11.38.23,0,.38-.08.6-.31Z"/>
      <path d="m102.78,191.25s-.4-10.13-.13-11.67c-1.51.6-.05,11.98-.37,12,.2-.01.32-.09.5-.33Z"/>
      <path d="m104.94,189.41s-.47-9.61-.16-11.07c-1.79.56-.06,11.37-.44,11.38.23-.01.38-.08.59-.32Z"/>
      <path d="m134.45,159.35c.47.16,7.68,2.42,7.59,2.6.08-.18.16-.55.18-.74-1.48-.24-15.01-5.05-14.96-5.33-.05.26-.03.49,0,.74,2.34.19,4.93,1.95,7.18,2.73Z"/>
      <path d="m139.58,169.22s.32-7.27.11-8.37c1.24.43.04,8.6.3,8.61-.16,0-.26-.06-.41-.24Z"/>
      <path d="m138.1,169.2s.28-7.67.09-8.83c1.05.45.03,9.07.26,9.08-.14,0-.22-.07-.35-.25Z"/>
      <path d="m136.6,167.81s.33-7.27.11-8.37c1.24.43.04,8.6.3,8.61-.16,0-.26-.06-.41-.24Z"/>
      <path d="m133.7,85.07s-.21-2.65-.07-3.05c-.8.16-.03,3.13-.19,3.14.1,0,.17-.02.27-.09Z"/>
      <path d="m134.69,85.07s-.21-2.65-.07-3.05c-.8.16-.03,3.13-.2,3.14.1,0,.17-.02.27-.09Z"/>
      <path d="m87.07,162.92c.5,1.23,2.83,1.44,3.87,2.14-.06-.36.21-2.01.77-2-1.57-.02-3.32.19-3.37-1.82-.05-1.58-.2-3.24-.45-4.81-.25-.06-.74-.07-.99,0,.04,1.23.17,2.45.23,3.68.04.72-.31,2.18-.05,2.83Z"/>
      <path d="m87.53,153.34c.1,1.04,1.34,1.59,1.81,2.41-1.21.15-2.73.67-3.92.21.38-.79,2.2-1.68,2.11-2.63Z"/>
      <path d="m133.33,92.31c-.56,1.16-2.13,1.27-2.81,2.36-.43-.73-.67-1.36-1.2-2.04.22-.12,2.65-.92,2.66-.9-.08-.19-.03-.44-.09-.61.14.12.41.19.53.29-.02-.09-.03-.2-.06-.3.36.04-.1-.05.18-.24.33-2.31.07-4.26.37-6.36.49,0,1.48,0,1.94-.12.06-1.73,1.03,9.45-.12,7.42-.25-.11-.49-.03-.74-.05-.03.12-.03.26,0,.38-.01-.04-.05-.06-.09-.06.04.17.03.45.07.62-.17-.22-.41-.27-.62-.4Z"/>
      <path d="m136.37,83.06c-.14-.2-2.52-2.29-2.55-2.28-.91.56-1.88,1.62-2.28,2.61.88.13,1.91-.11,2.8-.16.61-.04,1.48.12,2.02-.17Z"/>
      <path d="m143.85,161.07c.06-.86,1.06-1.5,1.06-1.5,0,0,.96.57,1.07,1.34.21,1.43.12,3.37.12,4.26-.6.05-1.19.09-1.78.23.01-.47-.59-2.76-.47-4.33Z" style="fill: #ffae3f;"/>
      <path d="m121.71,138.16c.06-.86,1.06-1.5,1.06-1.5,0,0,.96.57,1.08,1.34.21,1.43.12,3.37.11,4.26-.6.05-1.19.09-1.78.23.01-.47-.59-2.76-.47-4.33Z" style="fill: #ffae3f;"/>
      <path d="m130.27,150.06c.12-.85,1.16-1.43,1.16-1.43,0,0,.92.63.98,1.41.11,1.44-.1,3.37-.16,4.26-.6,0-1.2.02-1.79.11.04-.47-.41-2.8-.19-4.35Z" style="fill: #ffae3f;"/>
      <path d="m104.85,131.16c.16-1.12,1.51-1.87,1.51-1.87,0,0,1.21.82,1.29,1.84.15,1.88-.13,4.41-.22,5.56-.79.01-1.56.02-2.34.15.06-.62-.53-3.66-.25-5.69Z" style="fill: #ffae3f;"/>
      <path d="m107.78,152.49c.08-.58.78-.97.78-.97,0,0,.63.42.67.96.08.98-.07,2.29-.11,2.89-.41,0-.81.01-1.21.08.03-.32-.27-1.9-.13-2.95Z" style="fill: #ffae3f;"/>
      <path d="m116.73,170.28c.03-.79.92-1.41.92-1.41,0,0,.9.49,1.03,1.19.24,1.3.22,3.08.25,3.9-.55.06-1.09.13-1.62.27,0-.43-.63-2.51-.58-3.95Z" style="fill: #ffae3f;"/>
      <path d="m120.52,164.44c.12-.78,1.08-1.29,1.08-1.29,0,0,.84.59.88,1.3.09,1.32-.13,3.09-.2,3.9-.55,0-1.1,0-1.64.08.05-.43-.34-2.57-.12-3.99Z" style="fill: #ffae3f;"/>
      <path d="m91.46,176.14c.02-.54.63-.96.63-.96,0,0,.61.33.7.81.16.89.15,2.1.17,2.65-.37.04-.74.09-1.1.18,0-.3-.43-1.71-.39-2.69Z" style="fill: #ffae3f;"/>
      <path d="m95.56,184.93c.06-.53.7-.9.7-.9,0,0,.58.38.63.87.09.9-.02,2.1-.05,2.66-.38.01-.75.02-1.11.09.02-.29-.29-1.74-.17-2.71Z" style="fill: #ffae3f;"/>
      <path d="m156.98,183.43c.25-1.03,1.58-1.61,1.58-1.61,0,0,1.05.88,1.04,1.84-.03,1.78-.52,4.11-.71,5.19-.74-.06-1.46-.12-2.2-.07.11-.57-.16-3.47.29-5.34Z" style="fill: #ffae3f;"/>
      <path d="m125.42,122.38c.15-1.49,1.91-2.56,1.91-2.56,0,0,1.65,1.03,1.81,2.39.3,2.5.06,5.88,0,7.42-1.05.06-2.73-.09-3.75.11.04-.83-.24-4.64.03-7.36Z" style="fill: #ffae3f;"/>
      <path d="m126.97,133.17c-.02-.06.33-15.52.11-17.87,1.24.91.04,18.35.3,18.38-.16-.02-.26-.14-.41-.51Z"/>
      <path d="m118.38,118.16l.86,41.78s1.2-40.89-.86-41.78Z" style="fill: url(#radial-gradient-4);"/>
      <path d="m93.37,301.32c-7.6-7.25,21.44-18.03,23.89-22.73,5.01-9.6-28.34-11.4-6.8-18.17,12.67-3.98,25.82-6.26,38.5-10.25,7.64-2.4,20.61-4.64,24.89-11.99,2.7-4.63-24.05-11.89-28.94-13.41-11.91-3.71,9.17-10.95,13.77-11.62-1.46-.2-3.88.14-4.3.29-3.23,1.16-18.44,4.88-15.87,10.31,1.05,2.22,6.09,3.38,8.11,4.12,4.13,1.51,8.42,2.68,12.41,4.55,5.94,2.78,7.69,6.24,1.4,9.92-9.09,5.32-20.57,7.44-30.6,10.23-11.08,3.08-22.66,5.75-33.18,10.49-3.98,1.79-9.39,4.68-3.26,7.4,2.21.98,10.51,1.61,10.01,4.97-.64,4.29-16.7,8.56-19.91,9.88-8.84,3.62-28.26,6.77-32.72,16.01h42.57Z" style="fill: url(#linear-gradient-5);"/>
    </g>
  </g>
  <g id="pumpkin2">
    <path d="m328.61,204.29c-.48.31-1.07.36-1.58.54-.51.18-.99.41-1.46.62-.76.36-2.26.98-2.21,1.96.05.83,1.44,1.2,2.29,1.42.63.16,2.73.2,2.83.87.12.79-1.18,1.31-1.75,1.5-.41.14-.87.26-1.33.29-.51.03-1.04-.18-1.46.08.28,1.16,1.17,1.81,1.87,2.62.21.24.56.55.46.96-.33.29-.78,0-1.08-.13-1.63-.7-3-1.69-4.33-2.83-.44-.37-1.21-.98-1.33-1.5-.05-.21.03-.45,0-.66-.14-.86-1.17-1.31-1.08-2.37-.56,1.01-1.3,1.88-2,2.79-.66.86-1.6,1.8-1.37,3.25,2.27.17,3.91,1.12,5.04,2.5,1.09,1.33,2,3.17,1.87,5.54.74-.35.62-1.96.54-2.95.74-.41,1.93-.25,2.66.08.78.35,1.61,1.07,2.29,1.71.68.63,1.47,1.39,1.83,2.12.36.74.52,1.69.71,2.58.58,2.78.48,6.11-.21,8.82-.87,3.45-2.66,6.31-4.66,8.49-2.04,2.22-4.83,4.14-7.99,5.16-3.28,1.06-7.9,1.24-11.53.25,1.92-.13,3.36-.75,4.33-1.83-3.42.94-7.89,1.62-10.95.08-1.02-.51-2.07-.8-3.12-1.12-2.16-.67-4.1-1.59-5.58-2.96-3-2.76-3.41-8.14-2.87-13.73.25-2.63.62-5.03,1.37-7.16.7-1.98,1.6-4.01,2.79-5.74,1.13-1.64,2.72-3.27,5.08-3.45,1.12-.09,1.86.19,2.54.62-1.32,1.19-2.98,2.05-3.7,3.83.77-.6,1.45-1.37,2.29-2.04.79-.62,1.59-1.41,2.54-1.87,1.34-.66,3.53-.9,5.37-1,1.45-.08,5.21-.21,5.29,1.17.02.43-.46,1.06-.67,1.46-.73,1.38-1.38,2.89-1.91,4.37-.81,2.22-1.55,4.14-1.91,6.49.89-1.89,1.41-4.1,2.25-6.2.4-1.01.83-1.97,1.21-3,.53-1.44,1.08-2.83,2.46-3.37.63-.25,1.36-.23,1.79-.71.23-.26.27-.59.42-1-.46.03-.89.24-1.41.25-1.38.01-3.2-1.36-2.16-2.66.55-.69,2.01-.79,2.83-.33.48.27,1.01.98,1.5.92.79-.11.63-2.1.33-2.66-.85-1.61-4.25-2.79-6.74-1.91-.25.09-.87.31-.92.58-.07.42.76.99.75,1.62-.03,1.6-3.14,2.06-3.75.5-.18-.46-.07-.87.08-1.54-1.19-.01-2.05.72-3.04,1.21-1.81.89-4.01,1.86-6.28,2.25-4.34.74-7.18-1-6.78-5.87.24,1.31,1.23,2.22,2.21,2.95.79.59,1.77,1.35,2.83,1.21-.09-1.13-1.13-1.68-1.62-2.54,1.3,1,2.73,1.65,4.74,1.96.7.11,1.61.28,2.25.12.45-.11.9-.46,1.33-.71.43-.25.87-.5,1.29-.71.86-.42,1.98-.94,3.04-.96.31,0,.57.12.83.08.33-.04.71-.4,1.04-.58,1.03-.58,2.29-1.09,3.75-1.21,3.08-.24,4.89,1.14,6.08,2.91.3.45.68,1.7,1.16,1.79.49.09,1.09-.31,1.5-.58.46-.3.83-.72,1.21-.92.5-.25,1.2-.41,1.83-.58,1.8-.5,4.01-1.02,6.12-1.12Zm-27.42,20.14c.92.09,1.71-.13,2.46-.46-2.18-2.05-3.97-4.49-5.54-7.16-1.66,3.05-.04,7.3,3.08,7.62Zm10.82,3.29c.83,1.36,2.09,2.6,4.08,2.75,2.84.22,4.72-1.42,5.12-3.83,0-.02,0-.05-.04-.04-2.66.77-5.63,1.22-9.16,1.12Zm-19.48,2.58c.35-.09.61-.28.92-.42.5.93,1.18,2.37.37,3.45.89,1.42,1.67,2.97,2.62,4.33.61-.15,1.24-.29,1.87-.42.35.26.72.54,1.12.87.33.27.9.66.96,1.08.12.84-.69,1.39-.92,2.12,1.83,1.03,3.63,2.09,6.33,2.25.45-.69.79-1.49,1.25-2.16.78.43,1.85.46,2.41,1.08.42.46.37,1.13.37,2.08,1.61.03,2.59-.57,3.58-1.16.06-.89-.14-1.69.25-2.16.53-.64,1.81-.37,2.71-.71.31.67.61,1.36,1,1.96,2.22-1.32,3.93-3.15,5.2-5.41-2.34.65-5.52,1.51-8.36.75-.33.59-.61,1.22-1,1.75-.63-.21-1.33-.34-1.91-.58.18-.48.44-.89.58-1.42-1.62-.44-3.16-.95-4.54-1.62-.45.57-.93,1.13-1.41,1.66-.8-.45-2.93-.22-3.08-1.21-.07-.46.22-.77.37-1.12-1.14-.74-2.24-1.53-3.41-2.25-.53.56-.93,1.26-1.46,1.83-.48-.55-2.09-.75-2.21-1.58-.1-.71.54-1.23.75-1.87-2-1.27-3.92-2.86-5.29-4.62.31,1.16.64,2.3.92,3.5Z" style="fill-rule: evenodd;"/>
  </g>
  <g id="pumpkin1">
    <path d="m283.5,192.39c-.28.52-.81.95-1.25,1.46-.42.49-.95,1.02-.96,1.75.71.29,1.45-.18,2.04-.5,1.59-.85,3.64-2.24,4.41-3.87.12-.26.19-.55.21-.83.2,5.28-2.57,7.97-7.74,7.49-3.35-.31-6.27-1.52-8.78-2.79-1.33-.67-2.26-1.59-4.08-1.75.09.87.24,1.48-.08,2.08-.93,1.76-4.43,1.34-4.66-.5-.07-.54.22-.96.42-1.25.22-.32.69-.67.67-1-.04-.56-1.53-.9-2.16-1-2.87-.44-5.83.48-7.24,2-.46.49-.89,1.24-.92,2.08-.02.64.1,1.85.62,1.96.44.09,1.17-.57,1.5-.79.38-.26.93-.66,1.5-.75,1.49-.23,3.48.66,2.75,2.41-.6,1.45-2.89,2.17-4.83,1.37.03.88.47,1.56,1.25,1.87.74.29,1.51.3,2.16.75,1.03.71,1.53,2.1,1.96,3.37.44,1.31.92,2.75,1.37,3.95,1.04,2.74,1.5,5.64,2.46,8.2.07-1.5-.35-2.93-.71-4.29-.88-3.31-1.9-6.55-3.33-9.49-.25-.52-.76-1.27-.71-1.83.04-.46.52-.82.92-1,1.5-.67,3.84-.59,5.78-.5,1.92.09,3.93.43,5.49.83,1.69.44,2.8,1.45,3.95,2.37.59.47,1.21.94,1.71,1.46.52.54.91,1.22,1.58,1.58-.34-1.17-1.16-2.01-1.96-2.75-.4-.37-.82-.74-1.25-1.08-.43-.34-.93-.63-1.25-1.08,1.69-1.03,4.19-.86,6.03-.29,1.85.57,3.01,1.6,4.29,2.95,1.67,1.77,3.23,4.01,4.37,6.49.38.83,1,2.13.75,3.16-.09.39-.46.82-.71,1.25-2.57,4.45-4.39,9.63-4.24,16.81.03,1.72.14,3.61.33,5.41.06.58.23,1.37.12,1.79-.21.83-1.89,1.18-2.71,1.62-.97.52-1.96.99-2.95,1.33-2.23.76-4.92.86-6.91,1.66-1.04.42-1.97.94-3.12,1.16-3.85.74-8.1-.23-11.32-1.04,1.07,1.31,2.9,2.24,5.37,2.29-4.69,1.32-10.37,1.06-14.44-.25-4.06-1.3-7.25-3.45-9.95-6.49-3.63-4.09-6.66-10.49-5.7-18.6.14-1.15.41-2.31.71-3.41.32-1.18.6-2.51,1.21-3.41.66-.99,1.66-1.91,2.66-2.75.89-.75,2.07-1.78,3.33-2.08.65-.15,2.36-.39,2.7.08.31.43-.2,1.3-.17,2.04.04.84.23,1.35.71,1.75,0-3.11,1.41-5.52,2.95-7.2,1.51-1.65,3.59-2.79,6.37-2.91.35-.53.4-1.35.21-2.08-.56-2.13-2.7-3.67-4.12-4.87.44,1.56,1.12,3.28,1.37,5.16.08.61.17,1.38-.25,1.83-.4,0-.63-.54-.96-.75-.36-.23-.94-.44-1.41-.67-.47-.22-1.14-.57-1.62-.46-.72.17-.89,1.9-1.08,2.62-.28,1.03-.57,1.93-.87,2.83-.87-1.3-1.7-2.58-2.7-3.91-.22-.29-.66-1.16-.96-1.21-.54-.09-1.32.76-1.58,1.04-1.26,1.38-2.13,3.05-2.79,4.95-.05-2.09.67-4.38.5-6.74-1.97-.58-4.14.21-5.62.79.14-.26.7-.31,1-.46,1.02-.52,1.78-1.9,2.46-2.95.93-1.43,1.7-2.78,3.5-3.25-.57-1.57-1.98-2.45-3.45-3.12-.5-.23-1.03-.37-1.54-.62,2.04-.29,3.89-.64,5.87-.5,1.34.1,2.73.7,3.95,1.17.62.24,1.24.47,1.83.71.62.25,1.31.42,1.83.71.42.23.9.82,1.41,1.17.47.32,1.34.83,1.96.66.55-.14,1.05-1.51,1.41-2.04,1.35-1.97,3.4-3.65,6.53-3.87,2.62-.18,4.32.57,5.91,1.42.21.11.51.24.79.42.24.15.51.42.75.46.45.08.89-.11,1.33-.08,1.12.08,2.22.56,3.16,1,.59.28,1.24.61,1.83.96.57.33,1.27.95,1.91,1.04.88.12,1.85-.09,2.71-.21,2.51-.36,4.65-1.17,6.2-2.46Zm-15.61,24.26c.7.25,1.3.52,2.12.58,4.86.35,7.41-5.6,5.45-9.61,0-.03,0-.05-.04-.04-2.1,3.43-4.63,6.44-7.53,9.07Zm-22.56,3.29v.12c.47,3.09,2.69,5.06,6.28,4.79,2.2-.17,3.95-1.53,4.99-2.87.15-.19.41-.47.33-.62-4.36.17-8.23-.48-11.61-1.42Zm30.63,6.2c.24.75,1.04,1.51.79,2.37-.15.52-.88.79-1.37,1.04-.57.29-1.09.63-1.58.83-.55-.78-1.08-1.59-1.66-2.33-1.48.98-2.99,1.92-4.49,2.87.15.47.49.88.37,1.46-.25,1.25-3,.93-4.04,1.5-.56-.7-1.08-1.45-1.71-2.08-1.78.86-3.78,1.49-5.87,2.04.2.63.49,1.18.67,1.83-.84.21-1.62.49-2.5.67-.43-.68-.69-1.53-1.16-2.16-3.6.92-7.53-.14-10.53-.96,1.48,2.89,3.49,5.25,6.28,6.83.48-.83.91-1.7,1.42-2.5,1.08.52,3.02.07,3.45,1.21.24.62.07,1.56,0,2.41,1.2.82,2.53,1.52,4.54,1.54.04-1.15,0-2.04.54-2.62.75-.82,2.21-.84,3.25-1.42.43.96.92,1.85,1.37,2.79,3.45-.3,5.95-1.54,8.28-2.96-.48-.9-1.59-2.22-.75-3.16.29-.32.76-.58,1.25-.96.26-.21.91-.91,1.25-.96.34-.04.85.17,1.21.25.44.1.82.21,1.21.29,1.19-1.87,2.44-3.66,3.58-5.58-.98-1.44.08-3.21.75-4.25.39.13.69.37,1.08.5.46-1.48,1.05-3.06,1.41-4.49-1.86,2.49-4.51,4.18-7.03,5.99Z" style="fill-rule: evenodd;"/>
  </g>
</svg>