<?xml version="1.0" encoding="UTF-8"?>
<svg id="a" data-name="Layer 1" xmlns="http://www.w3.org/2000/svg" width="103.87" height="122.26" viewBox="0 0 103.87 122.26">
  <g>
    <path d="m51.93.54c16.13,0,31.75,3.32,46.42,9.86,3.05,12.42,4.97,25.37,5.02,33.85,0,.15,0,.31,0,.46,0,8.36-1.2,16.54-3.58,24.3-2.33,7.62-5.8,14.85-10.32,21.48-4.44,6.52-9.92,12.49-16.27,17.77-6.75,5.6-14.68,10.64-21.27,13.51-6.59-2.87-14.53-7.91-21.27-13.51-6.36-5.28-11.83-11.25-16.27-17.77-4.51-6.63-7.99-13.85-10.32-21.48C1.69,61.24.49,53.07.49,44.71v-.46c.04-8.48,1.97-21.44,5.02-33.85C20.19,3.86,35.8.54,51.93.54" style="fill: #fff;"/>
    <path d="m51.94,48.3c3.57,0,6.94.92,9.85,2.55h29.97c.06-2.09.02-4.45-.02-6.67-.18-9.18-2.84-24.67-5.46-35.42-10.63-3.44-22.04-5.46-34.33-5.46v45Z" style="fill: #ca0538;"/>
    <path d="m51.94,3.34c-12.02,0-23.09,1.79-34.31,5.4-2.76,11.14-5.04,25.89-5.38,32.97-.5,10.37.25,17.86,2.32,26.06,1.17,4.61,2.72,8.95,4.69,13.34,2.13-1.12,4.35-2.52,6.58-4.19,2.35-1.75,4.39-3.99,6.06-6.11-.09-.77-.14-1.54-.14-2.33,0-1.22.11-2.4.31-3.56-4.15.14-6.5.2-8.35.2-2.23,0-4.26-1.55-5.25-3.93h-1.04c-.79,0-2.12-.67-2.12-3.19s1.33-3.19,2.12-3.19h1.04c.99-2.39,3.02-3.94,5.25-3.94h18.38c2.91-1.63,6.27-2.56,9.84-2.56V3.34Z" style="fill: #e20613;"/>
    <path d="m33.69,104.3c-5.67-5.64-10.34-11.88-14.05-18.54-3.76-6.76-6.43-14.28-8-21.8-1.62-7.74-2.13-15.55-1.59-23.84.51-7.8,2.57-19.61,5.11-30.54-2.43.85-4.84,1.8-7.23,2.83-2.67,10.74-4.55,24.36-4.59,31.81-.04,8.3,1.14,16.34,3.45,23.91,2.43,7.93,5.64,14.38,9.95,20.71,4.29,6.29,9.58,12.08,15.74,17.18,5.75,4.77,12.31,8.97,19.45,12.51-6.79-4.17-12.95-8.94-18.24-14.22" style="fill: #003671;"/>
    <path d="m70.17,104.31c5.67-5.64,10.34-11.88,14.05-18.54,3.76-6.76,6.43-14.28,8-21.8,1.62-7.74,2.13-15.55,1.59-23.84-.51-7.8-2.58-19.63-5.12-30.55,2.43.86,4.86,1.8,7.24,2.83,2.67,10.74,4.54,24.36,4.58,31.81.04,8.3-1.14,16.34-3.45,23.91-2.25,7.35-5.6,14.32-9.95,20.71-4.29,6.29-9.58,12.08-15.74,17.18-5.75,4.77-12.31,8.97-19.45,12.51,0,0,0,0,0,0,6.79-4.17,12.95-8.95,18.24-14.22" style="fill: #003671;"/>
    <path d="m51.92,49.31c-10.59,0-19.17,8.58-19.17,19.17s8.58,19.18,19.17,19.18,19.17-8.58,19.17-19.18-8.58-19.17-19.17-19.17" style="fill: #a1853e;"/>
    <path d="m51.93,88.66c-6.52,0-12.32-3.09-16.01-7.88-4.5,2.57-9.24,4.6-13.76,5.99,3.57,6.28,8.02,12.16,13.35,17.53,4.82,4.85,10.33,9.28,16.42,13.23v-28.86Z" style="fill: #e20613;"/>
  </g>
  <g>
    <path d="m23.7,64.12c-2.07,0-3.85-1.63-4.55-3.93h-1.74c-.45,0-1.12-.54-1.12-2.19s.67-2.19,1.12-2.19h1.74c.7-2.3,2.48-3.94,4.55-3.94h16.77c-4.07,2.81-7.06,7.08-8.21,12.05-3.71.13-6.56.21-8.56.21" style="fill: #a1853e;"/>
    <path d="m98.78,9.99C84.54,3.62,68.87,0,51.94,0S19.33,3.62,5.09,9.99C1.8,23.29.04,36.18,0,44.2c-.05,8.58,1.16,16.95,3.6,24.9,2.35,7.67,5.84,14.94,10.38,21.61,4.46,6.55,9.97,12.57,16.36,17.87,6.02,4.99,14.16,10.47,21.59,13.67,7.43-3.2,15.57-8.68,21.59-13.67,6.39-5.31,11.9-11.32,16.36-17.87,4.54-6.67,8.04-13.94,10.38-21.61,2.43-7.95,3.64-16.32,3.6-24.9-.04-8.02-1.8-20.91-5.09-34.2m-11.66,78.83c-4.29,6.29-9.58,12.08-15.74,17.18-5.75,4.77-12.32,8.97-19.46,12.51-7.14-3.54-13.7-7.74-19.45-12.51-6.15-5.11-11.45-10.89-15.74-17.18-.34-.5-.67-1-1-1.51,6.27-1.06,13.19-3.72,19.58-7.36-1.59-2.3-2.73-4.94-3.25-7.8-1.6,1.97-3.51,3.97-5.69,5.59-3.53,2.64-7.8,5.26-12.42,6.68-3.02-5.15-5.43-10.61-7.17-16.31-2.31-7.56-3.5-15.6-3.45-23.9.04-7.45,1.92-21.07,4.59-31.81C21.86,6.4,36.65,3.34,51.94,3.34s30.08,3.06,44,9.06c2.67,10.74,4.55,24.36,4.59,31.81.01,2.58-.09,5.13-.31,7.65h-36.86c4.56,3.14,7.76,8.12,8.54,13.86l7.03-1.68c1.57-.35,2.22-1.41,2.38-2.38l17.68-1.2c-.51,2.6-1.15,5.15-1.92,7.64-2.25,7.35-5.6,14.32-9.95,20.71" style="fill: #a1853e;"/>
  </g>
  <g>
    <path d="m53.19,73.78v10.33c4.82-.39,9.03-2.96,11.63-6.72l-8.94-5.16c-.72.75-1.64,1.3-2.69,1.55" style="fill: #fff;"/>
    <path d="m50.65,52.85c-4.82.39-9.03,2.96-11.64,6.72l8.93,5.15c.72-.76,1.65-1.31,2.71-1.57v-10.3Z" style="fill: #fff;"/>
    <path d="m51.92,65.69c-1.54,0-2.79,1.25-2.79,2.79s1.25,2.79,2.79,2.79,2.79-1.25,2.79-2.79-1.25-2.79-2.79-2.79" style="fill: #fff;"/>
    <path d="m53.19,52.85v10.31c1.05.25,1.99.8,2.71,1.57l8.93-5.15c-2.6-3.76-6.81-6.33-11.64-6.72" style="fill: #fff;"/>
    <path d="m50.65,73.79c-.85-.2-1.62-.6-2.27-1.15-.15-.12-.29-.26-.42-.4l-8.94,5.16c.2.3.42.58.65.86,2.63,3.29,6.54,5.5,10.99,5.85v-10.33Z" style="fill: #fff;"/>
    <path d="m57.16,70.04l8.94,5.16c1.76-3.61,2.25-8.77,0-13.43l-8.93,5.15c.28.93.32,2.05,0,3.12" style="fill: #fff;"/>
    <path d="m40.5,59.28l7.29,4.2c.56-.46,1.18-.82,1.86-1.07v-8.41c-3.61.54-6.87,2.42-9.15,5.28" style="fill: #a1853e;"/>
    <path d="m54.21,54v8.43c.67.25,1.27.58,1.83,1.04l7.3-4.2c-2.28-2.86-5.52-4.73-9.13-5.27" style="fill: #a1853e;"/>
    <path d="m66.53,66.96c-.13-1.29-.44-2.54-.91-3.75l-7.31,4.2c.06.35.09.7.09,1.05,0,.14,0,.29-.02.43,2.07-.56,4.24-1.1,6.45-1.57.54-.11,1.11-.24,1.7-.37" style="fill: #a1853e;"/>
    <path d="m51.93,117.52c6.09-3.94,11.61-8.39,16.43-13.24,5.65-5.69,10.3-11.96,13.97-18.65,3.73-6.79,6.36-14.34,7.9-21.89.12-.58.23-1.14.34-1.72l-8.49.61c-.45,1.19-1.47,2.07-2.89,2.4h.01c-.06.01-3.17.78-7.19,1.71.05.58.08,1.16.08,1.75,0,11.14-9.02,20.18-20.16,20.18v28.86Z" style="fill: #ca0538;"/>
    <path d="m53.71,68.48c0-.99-.81-1.8-1.8-1.8s-1.8.81-1.8,1.8.81,1.8,1.8,1.8,1.8-.81,1.8-1.8" style="fill: #a1853e;"/>
    <path d="m54.19,82.97c3.6-.54,6.87-2.42,9.16-5.27l-7.34-4.22c-.55.46-1.15.82-1.82,1.06,0,0,.01,8.43,0,8.43" style="fill: #ca0538;"/>
    <path d="m40.51,77.69l7.3-4.23c.55.46,1.17.81,1.84,1.05l-.02,8.44c-3.6-.54-6.85-2.41-9.13-5.27" style="fill: #e20613;"/>
    <path d="m66.6,68.49c0-.2,0-.4-.01-.6-.55.12-1.08.24-1.58.34-2.23.47-4.39,1.02-6.31,1.54l6.91,3.99c.66-1.68,1-3.44,1-5.27" style="fill: #ca0538;"/>
    <path d="m37.73,61.78c-2.07,4.38-1.94,9.3.03,13.44l8.92-5.18c-.3-1-.32-2.09,0-3.13l-8.94-5.13Z" style="fill: #fff;"/>
    <path d="m38.25,73.79l7.27-4.23c-.13-.71-.12-1.43,0-2.15l-7.29-4.19c-1.33,3.4-1.32,7.16.02,10.56" style="fill: #a1853e;"/>
    <path d="m59.22,35.65c-.02.39-.12,1.72-.15,2.11h5.81c-.34-1.56-.48-3.71-.54-5.31,0,0-.09-3.35-.09-3.35-.01-.32.08-.58.26-.78.17-.18.4-.28.63-.28.27,0,.73-.01.76.94l.13,3.57c.06,1.6.08,3.86-.13,5.22h5.67c-.09-.49-.26-1.65-.29-1.98.71,1.51,2.23,2.28,4.27,2.28,1.21,0,2.15-.44,2.84-.87.02.05.29.56.29.56h10.46c-.47-1.57-.75-3.76-.94-5.38,0,0-1.43-11.72-1.43-11.72l-5.39-.87c.43,1.46.76,3.71.94,5.32,0,0,.81,7.49.81,7.49.15,1.36.29,2.83.28,4.3v.18s-.22-.53-.22-.53c-.37-.91-.61-2.2-.74-3.92,0-.01-.22-2.4-.22-2.4-.28-3.8-2.38-5.54-6.92-5.54-.78,0-2.7.19-3.88.53l.32,4.33,1.21-.74c.99-.61,1.79-.87,2.67-.87.72,0,1.19.27,1.41.76-.89.14-1.85.38-2.91.86-1.61.72-2.65,1.75-3.08,3,0-.04,0-.07,0-.11,0,0-.19-3.97-.19-3.97-.1-2.57-1.69-4.17-4.17-4.17-1.14,0-2.16.33-3.04.96-.05-.16-.1-.31-.16-.43l-.22-.46-4.65-.21c.21.84.5,3.17.56,4.09-.25-1.26-.91-2.61-2.16-3.48-.95-.66-2.14-1.01-3.45-1.01-1.73,0-3.47.73-4.66,1.94-1.18,1.2-1.83,2.84-1.89,4.78-.44-.48-1.02-.89-1.75-1.23l-2.14-1.02-.11-.05c-.51-.24-.53-.32-.52-.46.02-.22.51-.45,1.22-.45.88,0,2.15.44,3.18,1.1l.09-3.82c-.76-.34-1.82-.62-3.34-.62-.79,0-2.32.11-3.64.86-.36.2-.69.44-.98.7l.06-1.12c-1.24-.14-2.56-.18-4.19,1.32-.01-.11-.12-.63-.23-.93l-5.02.31c.37,1.35.42,3.39.32,5.21,0,0-.1,1.92-.1,1.92,0,0-.01.22-.01.22-.06,1-.11,2.03-.22,2.98-.42-1.3-.88-3.07-1.23-4.54l-2.48-11.17-7.09,1.01c.06.14.16.5.21.86.06.47.04,1.44-.63,3.4-1.14,3.31-2.77,8.21-4.34,11.58-.22.47-.59,1.25-.59,1.25h5.52c.07-.87.44-2.29.79-3.33.76-.02,2.76-.07,3.69-.1.17.8.4,1.94.45,2.6l.06.82h11.11c-.26-1.74-.16-4.15-.09-5.52.09-1.55.41-2.54,1.05-3.21.5-.52,1.09-.64,1.51-.65-.06,2.08,1.31,3.05,2.53,3.66l2.17,1.11c.78.41.77.62.76.76-.03.42-.66.58-1.24.57-1.13-.02-2.7-.81-4.46-2.63l-.09,4.95c1.4.79,3.09,1.07,4.64,1.07,2.52,0,5.22-1.1,5.95-3.44,1.24,2.37,3.72,3.46,6.16,3.46,2.18,0,3.81-.7,5.24-2.22m-38.07-4.95c.29-.82.51-1.48,1-2.89.3,1.4.45,2.14.6,2.84-.61.02-.89.03-1.6.05m31.02-1.24v-.04c0-1.68.63-2.34,1.22-2.4.18-.02.65-.06.87.73.08.31.12.54.12.71,0,.46-.25.55-.54.65h-.02s-.86.34-1.65.64c0-.1-.01-.19-.01-.29m5.78,3.44c-1.05.89-1.83,1.49-3.09,1.46-1-.02-1.61-.69-1.99-1.44,1.1-.41,5.18-1.95,6.34-2.38.01.85.03,2,.03,2h0c.02.69.03,1.35.02,2.01v.03l-1.31-1.67Zm18.91,1.59c-.97.04-1.17-.62-1.19-1.1,0-.5.17-1.24,1.71-1.65.04.53.08,1.05.08,1.05l.03.48c.02.34.04.65.08.98-.2.14-.44.23-.71.24" style="fill: #a1853e;"/>
    <path d="m46.12,25.13c-.49-.18-1.28-.35-2.47-.35-.98,0-2.22.19-3.21.74-1.13.64-1.92,1.65-1.99,2.73-.11,1.6.78,2.37,2.04,3,.85.43,1.67.84,2.18,1.11.69.36,1.29.8,1.23,1.6-.06.81-.81,1.36-2.09,1.36-1.06,0-2.6-.62-3.64-1.58l-.05,2.5c.91.46,2.4.73,3.75.73,2.34,0,5.23-1.07,5.28-3.8.04-1.94-1.39-2.75-2.23-3.14-.84-.39-1.73-.82-2.15-1.02-.38-.19-1.19-.49-1.12-1.37.07-.84,1.03-1.24,2.07-1.24.88,0,1.72.24,2.37.59l.03-1.85Z" style="fill: #fff;"/>
    <path d="m25.26,20.63l-5.35.77c.13.77-.07,2.1-.66,3.8-1.13,3.29-2.94,8.57-4.38,11.69h3.38c.16-1,.45-2.01.92-3.31l5.01-.13c.22.99.56,2.56.62,3.45h4.47c-.55-1.28-1.26-4.01-1.71-5.88l-2.31-10.37Zm-5.35,10.97l2.45-7.05,1.45,6.92-3.9.13Z" style="fill: #fff;"/>
    <path d="m38.17,25.15l-.12,2.37c-.79-.1-1.82.07-2.61.9-.73.76-1.19,1.87-1.29,3.76-.09,1.56-.14,3.27-.01,4.71h-3.83c.25-1.42.34-3.11.42-4.67l.1-1.91c.09-1.56.09-3.03-.14-4.45l3.34-.21c.15.56.23,1.31.2,2.14,1.46-2.19,2.89-2.69,3.95-2.64" style="fill: #fff;"/>
    <path d="m85.99,21.41l-3.45-.56c.34,1.44.47,2.59.65,4.14l.81,7.49c.18,1.56.3,2.98.29,4.4h3.73c-.33-1.42-.5-2.84-.68-4.4l-1.35-11.08Z" style="fill: #fff;"/>
    <path d="m70.55,36.89c-.23-1.42-.31-2.84-.37-4.4l-.19-3.97c-.08-2.1-1.29-3.35-3.32-3.35-1.11,0-2.43.36-3.56,1.78-.03-.3-.21-1.3-.42-1.74l-3.04-.14c.26,1.47.34,2.94.4,4.5l.05,2.92c.06,1.56.02,2.98-.1,4.4h3.83c-.23-1.42-.31-2.84-.37-4.4l-.09-3.36c-.04-1.19.85-1.95,1.77-1.96,1.06-.01,1.59.69,1.63,1.76l.13,3.57c.06,1.56.08,2.98-.04,4.4h3.68Z" style="fill: #fff;"/>
    <path d="m82.39,36.89c-.46-1.13-.69-2.62-.8-4.19l-.22-2.39c-.21-2.82-1.4-4.76-6.07-4.76-.81,0-1.99.13-2.94.34l.16,2.17c.95-.58,1.93-1,3.13-1s2.32.51,2.43,2.37c-1.21.13-2.34.34-3.6.91-1.42.64-2.89,1.79-2.75,3.74.15,2.16,1.79,3.11,3.84,3.11,1.55,0,2.63-.8,3.22-1.41.11.4.26.8.43,1.11h3.18Zm-5.54-1.55c-1.08.05-2.02-.52-2.05-1.91-.03-1.24.82-2.34,3.37-2.76l.15,2.04c.05.7.07,1.2.16,1.87-.37.44-.97.73-1.63.76" style="fill: #fff;"/>
    <path d="m56.52,25.48c-.84-.59-1.87-.85-2.95-.85-2.47,0-5.78,1.76-5.69,6.35.09,4.61,3.61,6.02,6.1,6.02,2.18,0,3.51-.77,4.58-1.92l-.77-.97c-.59.46-1.48,1.14-2.96,1.11-1.57-.03-2.6-1.2-3.11-2.82l6.87-2.58c-.21-2.27-.99-3.59-2.08-4.35m-2.38,4.44l-2.73,1.05c-.07-.49-.11-1-.11-1.51-.02-2.84,1.51-3.26,2.01-3.31.84-.08,1.52.39,1.79,1.37.3,1.11.23,1.98-.96,2.41" style="fill: #fff;"/>
  </g>
</svg>