<?xml version="1.0" encoding="UTF-8"?>
<svg id="a" data-name="Layer 1" xmlns="http://www.w3.org/2000/svg" width="146.44" height="222.07" viewBox="0 0 146.44 222.07">
  <path d="m145.8,100.99l-13.03-36.54c-1.38-3.87-4.78-6.66-8.83-7.27l-44.49-6.69c-2.03-.3-6.49.03-9.61,1.34l-6.98,2.93c-8.55,3.6-12.72,13.13-9.88,21.8l-9.79,11.64-30.71-3.72c-6.25-.74-11.67,3.61-12.4,9.71-.74,6.11,3.61,11.66,9.71,12.39l36.7,4.45c3.65.46,7.39-.96,9.88-3.89l6.21-7.4,11.19,26.58-18.47,13.2c-1.78,1.28-3.23,2.97-4.2,4.93l-28.96,58.31c-3.28,6.6-.58,14.63,6.03,17.91,6.58,3.26,14.62.62,17.93-6.03l22.55-45.42,39.83,48.01c4.69,5.64,13.1,6.47,18.82,1.75,5.69-4.72,6.47-13.14,1.75-18.83l-36.49-43.98,22.65-22.1c4.94-4.82,3.68-11.79.99-17.74l-16.99-40.35,14.82,2.22,10.79,30.25c2.08,5.84,8.5,8.82,14.23,6.75,5.79-2.06,8.81-8.43,6.75-14.22h0Zm0,0" style="fill: #92c5e7;"/>
  <path d="m72.48,39.5c10.47-4.39,15.37-16.44,10.97-26.92-4.4-10.45-16.45-15.38-26.91-10.97-10.47,4.4-15.4,16.46-11,26.94,4.42,10.45,16.48,15.38,26.94,10.95h0Zm0,0" style="fill: #92c5e7;"/>
</svg>