<?xml version="1.0" encoding="UTF-8"?>
<svg id="a" data-name="Layer 1" xmlns="http://www.w3.org/2000/svg" width="102.01" height="102.01" viewBox="0 0 102.01 102.01">
  <path d="m51,0C22.88,0,0,22.88,0,51s22.88,51.01,51,51.01,51.01-22.88,51.01-51.01S79.13,0,51,0" style="fill: #002a5a;"/>
  <path d="m96.7,51c0-25.24-20.46-45.69-45.7-45.69S5.3,25.77,5.3,51s20.46,45.7,45.7,45.7,45.7-20.46,45.7-45.7" style="fill: #fff;"/>
  <path d="m80.09,51c0-16.06-13.03-29.09-29.09-29.09s-29.08,13.02-29.08,29.09,13.02,29.09,29.08,29.09,29.09-13.02,29.09-29.09" style="fill: #7ab2e1;"/>
  <path d="m51,82.4c-17.31,0-31.39-14.08-31.39-31.4s14.08-31.39,31.39-31.39,31.4,14.08,31.4,31.39-14.08,31.4-31.4,31.4m0-61.03c-16.34,0-29.64,13.29-29.64,29.64s13.3,29.64,29.64,29.64,29.65-13.3,29.65-29.64-13.3-29.64-29.65-29.64" style="fill: #002a5a;"/>
  <path d="m51,99.92c-26.97,0-48.91-21.95-48.91-48.92S24.03,2.08,51,2.08s48.92,21.95,48.92,48.92-21.94,48.92-48.92,48.92m0-96.77C24.62,3.15,3.15,24.62,3.15,51s21.46,47.85,47.85,47.85,47.86-21.47,47.86-47.85S77.39,3.15,51,3.15" style="fill: #7ab2e1;"/>
  <polygon points="10.18 49.89 9.35 50.09 9.13 49.24 10.5 48.83 11.21 48.83 11.21 53.61 10.18 53.61 10.18 49.89" style="fill: #7ab2e1;"/>
  <path d="m12.4,52.31v-.02c0-.57.26-.91.77-1.14-.37-.23-.6-.53-.6-1.04h0c0-.74.66-1.31,1.66-1.31s1.67.57,1.67,1.3h0c0,.52-.24.82-.6,1.05.48.25.76.55.76,1.12h0c0,.89-.78,1.41-1.83,1.41s-1.83-.54-1.83-1.37m2.65-.08h0c0-.38-.34-.6-.82-.6s-.82.22-.82.58h0c0,.34.3.6.82.6s.82-.26.82-.59m-.14-2h0c0-.31-.25-.57-.68-.57s-.68.26-.68.55h0c0,.35.26.6.68.6s.68-.24.68-.57" style="fill: #7ab2e1;"/>
  <path d="m87.6,51.66c-.25.2-.56.32-.96.32-1.03,0-1.69-.57-1.69-1.53h0c0-.97.74-1.67,1.81-1.67.64,0,1.01.16,1.37.52.34.34.56.85.56,1.79h0c0,1.55-.72,2.6-2.07,2.6-.69,0-1.16-.23-1.56-.56l.55-.79c.35.28.64.41,1.04.41.72,0,.92-.67.96-1.08m.02-1.25h0c0-.43-.31-.74-.83-.74s-.81.3-.81.72h0c0,.43.31.72.83.72s.81-.3.81-.7" style="fill: #7ab2e1;"/>
  <path d="m92.01,52.58h-2.32l-.17-.74,2.6-3.02h.88v2.91h.64v.85h-.64v1.02h-.99v-1.02Zm0-.85v-1.48l-1.26,1.48h1.26Z" style="fill: #7ab2e1;"/>
  <path d="m51,80.65c-16.34,0-29.64-13.3-29.64-29.65s13.3-29.64,29.64-29.64,29.65,13.3,29.65,29.64-13.3,29.65-29.65,29.65m0-58.19c-15.74,0-28.55,12.81-28.55,28.54s12.81,28.55,28.55,28.55,28.55-12.81,28.55-28.55-12.81-28.54-28.55-28.54" style="fill: #fff;"/>
  <path d="m50.46,25.49c-14.63,0-23.07,1.92-23.07,1.92,0,0-3.37,12.82-1.45,29.25.8,6.89,6.41,21.73,24.99,26.79,18.58-5.06,24.18-19.9,24.98-26.79,1.92-16.43-1.45-29.25-1.45-29.25,0,0-8.44-1.92-23.07-1.92h-.92Z" style="fill: #002a5a; fill-rule: evenodd;"/>
  <path d="m73.35,52.83c-.17,4.98-.93,19.88-22.44,28.07-21.33-7.96-22.44-23.38-22.44-28.07h44.88Z" style="fill: #a6c8ea; fill-rule: evenodd;"/>
  <path d="m72.71,52c.58-12.34-1.52-22.36-1.52-22.36,0,0-8.02-1.53-20.25-1.53s-20.4,1.7-20.4,1.7c0,0-2.22,10.06-1.62,22.19h43.79Z" style="fill: #fff; fill-rule: evenodd;"/>
  <path d="m51.59,80.46l-22.68-27.42c-.83,5.65,3.76,22.31,22.68,27.42" style="fill: #7ab2e1;"/>
  <path d="m35.67,52.85l20.99,25.33c2.13-1.01,3.67-2.01,5.17-3.21l-18.33-22.12h-7.83Z" style="fill: #7ab2e1;"/>
  <path d="m50.24,52.87l15.5,18.7c1.52-1.73,2.81-3.28,3.72-4.93l-11.4-13.77h-7.83Z" style="fill: #7ab2e1;"/>
  <path d="m72.98,52.88l-7.75-.02,6.51,7.85c1.1-2.44,1.24-6.5,1.24-7.84" style="fill: #7ab2e1;"/>
  <path d="m60.09,63.15s0,0,0,0c-.06-.18-.2-.32-.38-.38l-1.29-.45c-.11-.04-.23-.04-.35,0-.1-.45-.36-.86-.73-1.13-.05-.04-.09-.07-.14-.1-.09-.06-.18-.11-.28-.15-.17-.07-.34-.12-.5-.18-.38-.12-.75-.24-1.23-.58-.44-.32-.65-.61-.84-.89-.05-.07-.09-.14-.14-.2-.13-.2-.29-.37-.48-.51-.33-.24-.71-.36-1.12-.36-.09,0-.18.02-.26.03,0,0,0,0,0-.02.02-.16-.01-.32-.11-.46l-.8-1.07c-.12-.16-.29-.25-.49-.25h0c-.19,0-.37.09-.48.23l-.84,1.08c-.1.14-.14.31-.11.48-.07,0-.13-.02-.2-.02-.4,0-.79.12-1.12.36-.05.03-.09.07-.13.11-.08.06-.16.13-.23.22-.12.14-.22.28-.32.42-.24.32-.46.63-.94.97-.44.32-.78.42-1.12.52-.08.02-.16.04-.23.07-.23.06-.45.16-.64.3-.39.27-.65.7-.74,1.16-.13-.05-.27-.06-.41-.02l-1.28.43c-.18.06-.32.2-.39.38t0,0c-.06.18-.03.38.08.53l.78,1.12c.09.13.22.21.37.24-.21.43-.24.93-.09,1.39.02.05.04.11.06.16.03.1.08.19.14.29.09.15.2.29.3.43.24.32.46.63.65,1.19.17.52.16.87.15,1.21,0,.08,0,.16,0,.24-.02.24.01.47.09.7.15.46.46.82.86,1.05-.05.09-.09.19-.08.29v1.34c.01.19.1.37.26.48,0,0,0,0,0,0,.15.11.35.15.53.09l1.31-.39c.12-.03.21-.11.28-.2.39.37.94.56,1.47.51.1,0,.21-.02.32-.04.18-.04.35-.09.51-.15.38-.12.75-.24,1.34-.24.55,0,.88.12,1.21.23.08.03.15.06.23.08.23.09.46.13.7.13.48,0,.95-.19,1.3-.52.08.09.16.16.27.2l1.29.4c.18.06.38.03.54-.08,0,0,0,0,0,0,.16-.11.25-.28.25-.48l.03-1.35c0-.11-.03-.21-.08-.3.4-.23.71-.59.86-1.05.02-.05.03-.11.05-.17.03-.1.05-.2.05-.31.02-.18.02-.36.02-.52,0-.4,0-.78.18-1.34.17-.52.38-.8.59-1.07.05-.06.1-.13.15-.19.15-.18.27-.39.34-.62.16-.47.11-1-.12-1.44.11-.04.22-.11.29-.2l.78-1.09c.11-.15.14-.35.09-.53" style="fill: #002a5a;"/>
  <path d="m50.22,66.04c0-.42.34-.75.76-.75s.76.34.76.75-.34.76-.76.76-.76-.34-.76-.76" style="fill: #fdca50;"/>
  <path d="m50.96,59.62c-.13-.46-.42-.86-.79-1.09l.79-1.01.76,1.01c-.38.26-.63.63-.76,1.09m-6.1,4.45c-.4-.26-.68-.62-.81-1.05l-1.21.4.73,1.05c.33-.28.8-.42,1.29-.4m2.36,7.05c-.38.3-.81.45-1.26.44v1.26s1.25-.36,1.25-.36c-.17-.4-.16-.89.01-1.34m7.48.01c.17.45.18.9.04,1.32l1.21.38.03-1.28c-.43.03-.9-.13-1.28-.43m2.3-7.05c.49-.02.92.11,1.28.37l.74-1.02-1.22-.43c-.1.42-.4.81-.8,1.08m-7.59,7.08c-.57,0-1.03-.46-1.03-1.02,0-.08-.07-.11-.12-.06-.36.45-.66.84-.67,1.33-.01.71.58,1.28,1.29,1.28.04,0,.09,0,.13,0,.06,0,.13,0,.21-.03.51-.12.94-.37,1.81-.37.72,0,1.1.19,1.48.31.15.06.32.1.49.1.72,0,1.31-.57,1.29-1.28,0-.49-.3-.88-.67-1.33-.04-.04-.09,0-.09.06,0,.56-.46,1.02-1.03,1.02-.43,0-.98-.36-1.52-.36-.5,0-1.17.36-1.59.36m-.68-1.4c0,.47.38.85.86.85.05,0,.1,0,.17-.02.02,0,.04-.01.07-.02.01,0,.02,0,.03,0,.29-.09.57-.23,1.08-.23s.78.15,1.07.22c.1.03.2.06.3.06.47,0,.86-.38.86-.85,0-.12-.03-.24-.07-.34-.02-.04-.05-.09-.07-.12,0,0-1.45-1.96-1.5-2.02-.07-.09-.16-.05-.23-.03-.07.02-.25.06-.36.06s-.26-.02-.36-.06c-.09-.04-.17-.07-.23.03-.05.08-1.09,1.48-1.42,1.94-.13.15-.21.34-.21.55m6.66-.65c-.17.54-.75.83-1.29.66-.08-.03-.13.03-.09.09.32.48.6.88,1.07,1.04.67.23,1.41-.15,1.63-.82.01-.04.02-.09.03-.13.02-.06.04-.13.04-.21.04-.52-.07-1,.2-1.82.22-.67.52-.97.75-1.29.11-.13.19-.27.25-.43.22-.68-.15-1.41-.83-1.61-.47-.14-.94.01-1.49.22-.05.02-.04.08.02.1.54.18.84.75.66,1.28-.14.4-.65.81-.82,1.32-.16.47-.01,1.21-.15,1.62m-1.55.21c.45.15.94-.1,1.08-.55.02-.05.03-.1.04-.17,0-.02,0-.05,0-.07,0,0,0-.02,0-.03,0-.31-.04-.62.11-1.1.17-.5.39-.7.54-.94.06-.08.11-.17.14-.27.15-.45-.1-.93-.55-1.08-.12-.03-.24-.05-.35-.03-.05,0-.1.01-.14.02,0,0-2.33.76-2.4.78-.11.04-.1.14-.1.21,0,.07-.01.25-.05.36-.04.11-.11.24-.18.31-.07.08-.11.14-.04.23.06.07,1.08,1.49,1.42,1.94.11.17.26.3.47.37m1.4-6.52c.46.33.56.97.23,1.42-.04.06,0,.13.07.11.56-.15,1.03-.3,1.33-.69.43-.56.29-1.37-.29-1.79-.04-.03-.07-.05-.11-.07-.05-.04-.11-.07-.19-.1-.48-.2-.98-.25-1.68-.75-.58-.41-.77-.79-1.01-1.11-.08-.13-.2-.26-.34-.36-.58-.41-1.4-.29-1.8.28-.28.4-.28.89-.25,1.46,0,.06.07.07.11.01.33-.46.98-.56,1.44-.23.35.25.57.86,1.01,1.18.4.29,1.16.38,1.5.63m-.28,1.53c.28-.38.2-.91-.19-1.19-.03-.03-.08-.06-.15-.09-.02,0-.05-.02-.07-.02-.01,0-.02,0-.03,0-.29-.1-.61-.15-1.02-.45-.43-.31-.55-.58-.73-.8-.06-.08-.12-.16-.21-.22-.38-.28-.92-.19-1.2.19-.08.1-.12.21-.15.32,0,.05-.02.1-.02.14,0,0,0,2.43.01,2.51,0,.12.1.14.17.16.06.02.24.09.33.16.1.07.2.18.25.26.05.08.1.15.21.11.09-.04,1.76-.56,2.3-.74.19-.05.37-.16.5-.33m-5.8-3.32c.46-.33,1.1-.23,1.44.23.04.06.12.05.12-.03.03-.58.03-1.07-.25-1.46-.41-.58-1.23-.7-1.8-.28-.04.03-.07.06-.11.08-.05.04-.1.08-.16.15-.34.39-.54.85-1.24,1.35-.58.42-1,.49-1.38.61-.16.04-.31.11-.46.21-.57.42-.71,1.22-.28,1.79.3.39.77.54,1.33.69.06.01.08-.05.05-.1-.33-.45-.23-1.09.23-1.42.35-.25,1.01-.27,1.44-.59.41-.29.73-.97,1.08-1.22m1.38.74c-.28-.38-.82-.46-1.2-.19-.04.03-.09.06-.13.11-.01.02-.03.04-.04.05,0,.01-.02.02-.02.03-.19.24-.33.52-.74.82-.43.31-.72.34-.99.45-.1.03-.19.07-.27.13-.38.27-.47.81-.19,1.19.07.1.17.18.27.24.04.02.08.04.13.06,0,0,2.34.75,2.41.77.12.03.17-.05.21-.11s.16-.19.25-.27c.1-.07.23-.13.33-.15.1-.03.18-.05.17-.16,0-.1,0-1.84,0-2.39.02-.2-.04-.4-.16-.57m-4.97,4.46c-.18-.54.12-1.11.66-1.28.07-.02.08-.1.01-.12-.54-.21-1.01-.36-1.48-.22-.68.21-1.05.94-.83,1.61.01.04.03.08.05.12.02.06.05.12.09.19.27.45.65.78.92,1.59.22.67.16,1.09.16,1.49-.01.16,0,.33.06.49.22.67.95,1.05,1.63.82.46-.16.75-.56,1.07-1.04.03-.05-.02-.09-.08-.07-.54.18-1.12-.12-1.29-.65-.13-.4.05-1.03-.12-1.54-.16-.47-.71-.99-.84-1.39m1.13-1.08c-.45.15-.7.63-.55,1.08,0,.05.03.1.06.16.01.02.03.04.04.06,0,0,0,.02.01.03.18.25.4.47.56.95.16.5.1.78.12,1.08,0,.1,0,.2.04.3.15.44.63.69,1.08.55.12-.04.22-.1.31-.18.04-.03.07-.06.1-.1,0,0,1.44-1.97,1.48-2.03.07-.1,0-.17-.04-.23-.04-.06-.14-.21-.18-.32-.04-.11-.05-.26-.05-.36.01-.1.01-.18-.1-.21-.1-.03-1.76-.57-2.3-.74-.19-.08-.39-.09-.6-.03" style="fill: #e42313;"/>
  <path d="m58.14,39.7l5.25-1.81s-.45,2.19-.32,3.88c.16,2.19,1.42,3.86,1.42,3.86l-6.47,2.24.12-8.17Z" style="fill: #fdca50;"/>
  <path d="m64.49,45.64s-1.15-1.65-1.35-3.56c-.15-1.43,0-2.68.24-4.18-.23,1-1.08,3.82-3.44,6.43-.96,1.06-1.37,1.97-1.55,2.6l-.11-12.38h0s0,0,0,0c0,0-1.24.44-1.37.48-.15.04-.21.14-.22.19,0,.08-.06.12-.15.14-.1.03-.82.29-1.33.46-.09.03-.06.12,0,.12.59-.03,1.44-.09,1.53-.1.11-.01.17-.08.19-.16,0,0,0,0,0-.01.02-.1.11-.16.2-.17.07,0,.52-.06.81-.09l-.13,13.32h.6s0-.95,0-.95l6.09-2.12Z" style="fill: #daa500;"/>
  <path d="m41.19,48.22s-.98-.73-1.24-2.08c-.26-1.38.42-2.2.42-2.2l6.37-2.19s-.39,1.26-.02,2.7c.47,1.83,1.45,3.05,1.45,3.05,0,0-2.33-.44-4.6-.16-2.15.27-2.38.88-2.38.88" style="fill: #fdca50;"/>
  <path d="m33.86,46.62s.79-2.16,3.12-4.53c1.76-1.79,2.92-2.32,2.92-2.32,0,0-1.03,1.46-1.45,3.88-.27,1.5.03,3.38.03,3.38,0,0-1.19-.25-2.56-.39-1.16-.12-2.06-.01-2.06-.01" style="fill: #fdca50;"/>
  <path d="m39.9,39.77s-1,1.46-1.43,3.89c-.26,1.5.03,3.38.03,3.38,0,0-.31-.06-.99-.21-2.85-.65,2.39-7.05,2.39-7.05" style="fill: #daa500;"/>
  <path d="m43.64,41.53l-.05-5.73h0s-.01,0-.01,0c-.13.05-1.24.43-1.36.46-.15.04-.22.15-.22.19,0,.07-.06.11-.15.14-.1.03-.82.29-1.33.46-.09.03-.06.13.01.12.59-.03,1.44-.09,1.53-.1.12-.01.17-.08.19-.16,0,0,0,0,0-.01.02-.1.1-.17.2-.17.07,0,.5-.05.79-.09l-.04,4.89h.45Z" style="fill: #daa500;"/>
  <path d="m51.07,36.35h.44v-5.51s0,0,0,0c0,0-1.25.44-1.37.47-.15.04-.22.15-.22.19,0,.08-.06.12-.15.15-.1.03-.82.28-1.33.46-.09.03-.06.12,0,.12.59-.03,1.44-.09,1.53-.1.12-.01.17-.08.19-.16,0,0,0,0,0-.01.02-.1.1-.17.2-.17.06,0,.48-.05.77-.08l-.05,4.65Z" style="fill: #daa500;"/>
  <path d="m49.94,32.12s.02,0,.03,0c.12-.01.17-.08.19-.16,0,0,0,0,0-.01.01-.07.06-.12.12-.15l-.16-.48c-.14.04-.2.14-.2.18,0,.07-.04.1-.12.13l.14.49Z" style="fill: #fdca50;"/>
  <path d="m42.02,37.07s.02,0,.03,0c.12-.01.17-.08.18-.16,0,0,0,0,0-.01.02-.07.06-.12.12-.15l-.16-.48c-.14.04-.2.14-.2.18,0,.06-.04.1-.12.13l.14.49Z" style="fill: #fdca50;"/>
  <path d="m56.71,35.83s.02,0,.03,0c.12-.01.17-.08.19-.16,0-.01,0,0,0-.01.02-.07.06-.12.12-.15l-.16-.48c-.14.05-.2.15-.2.18,0,.07-.04.1-.12.13l.14.49Z" style="fill: #fdca50;"/>
  <path d="m48.16,47.49s-1.03-1.49-1.42-3.08c-.34-1.36,0-2.66,0-2.66,0,0-.69,2.34-2.3,3.61-1.13.89-3.88,1.71-3.25,2.86.09-.16.37-.46,1.51-.72.14-.03.28-.06.42-.08v1.89s.59,0,.59,0v-1.97c2.09-.22,4.45.15,4.45.15" style="fill: #daa500;"/>
  <path d="m40.53,43.55s-.74-.44-.66-1.9c.09-1.5.84-2.14.85-2.18l4.95-1.7s-.36.74-.11,1.86c.31,1.36,1.18,2.12,1.18,2.12,0,0-2.49.03-4.73.8-1.1.38-1.49,1-1.49,1" style="fill: #fdca50;"/>
  <path d="m43.47,40.42c1.43-1.18,2.2-2.66,2.2-2.66,0,0-.2.95-.04,1.79.27,1.44,1.12,2.2,1.12,2.2,0,0-2.01.03-4.19.64-1.44.4-1.89.97-2.02,1.17-.47-1.08,1.48-1.93,2.94-3.13" style="fill: #daa500;"/>
  <path d="m49.13,48.61s-1.36-1.03-1.69-2.93c-.26-1.51.75-2.61.75-2.61l7.75-2.67s-.42,1.72-.03,3.35c.44,1.85,2.14,4.14,2.14,4.14,0,0-3.22-.93-6-.58-2.65.34-2.9,1.29-2.9,1.29" style="fill: #fdca50;"/>
  <path d="m47.54,36.31c-.06-1.17.76-2.11.81-2.16l5.57-1.93s-.36.88-.27,1.62c.17,1.43.98,2.17.98,2.17,0,0-2.19-.12-4.75.77-1.42.5-1.56,1.17-1.56,1.17,0,0-.7-.19-.77-1.65" style="fill: #fdca50;"/>
  <path d="m51.94,34.81c.99-.87,1.97-2.6,1.97-2.6,0,0-.36.87-.27,1.62.17,1.43.98,2.17.98,2.17,0,0-2.36-.03-4.63.76-.97.34-1.59.88-1.67,1.18-.34-1.1,2.26-1.94,3.64-3.15" style="fill: #daa500;"/>
  <path d="m48.34,42.73s-.8-.93-.96-2.35c-.16-1.49.73-2.1.8-2.13l6.43-2.23s-.18.47-.01,1.77c.14,1.09,1.21,2.58,1.21,2.58,0,0-3.43.09-5.56.91-1.34.52-1.91,1.46-1.91,1.46" style="fill: #fdca50;"/>
  <path d="m52.6,39c1.39-1.2,2.02-2.99,2.02-2.99,0,0-.17,1.02,0,1.81.33,1.4,1.31,2.57,1.31,2.57,0,0-2.99.04-5.17.77-1.41.47-2.29,1.31-2.42,1.56-.29-1.19,2.86-2.53,4.25-3.72" style="fill: #daa500;"/>
  <path d="m58.17,47.99s-1.75-2.26-2.26-4.26c-.33-1.32-.09-2.82.02-3.34-.19.7-.9,2.98-2.61,4.55-1.63,1.51-4.88,2.25-4.19,3.67.12-.23.49-.77,1.81-1.1l-.03,1.83h.62s0-1.95,0-1.95c2.87-.45,6.63.6,6.63.6" style="fill: #daa500;"/>
  <path d="m61.15,52.25c.4-.08.81-.16,1.41-.32-.04-.02-.07-.04-.09-.07-.66-.73-.54-1.5-.14-1.87,1.45-1.36,1.43-2.34,1.43-2.34,0,0-3.52.73-8.15.97-.3.02-1.38.49-1.69.5-.64.02-1.29.04-1.96.05-8.74.06-11.18-.54-14.05-1.07-2.9-.55-4.18-1.13-4.18-1.13l-.11.31s2.29.88,3.94,1.69c.34.17,1.71,2.22,2.16,2.91h-10.39c-.58-11.9,1.72-21.64,1.72-21.64,0,0,7.95-1.7,19.9-1.7v-1.27c-12.68,0-21.13,1.8-21.13,1.8,0,0-3.69,13.01-1.73,28.49.82,6.46,6.16,18.53,22.81,24.12l.73-1.02-.73-1.01c-15.68-5.27-20.26-15.88-21.06-21.96-.18-1.35-.31-2.68-.41-3.99h21.53v-1.82h-11.05c.24-.8,1.03-.99,1.98-.76,1,.24,1.98.49,2.93.44,2.36-.11,2.02-.75,2.23-.74,2.43.15,3.35.74,5.48.71,1.93-.03,2.61-.54,2.79-.54,2.36-.02,3.26,1.06,5.63,1.26.06,0,.12,0,.18.02" style="fill: #fdca50; fill-rule: evenodd;"/>
  <path d="m72.01,29.06s-8.41-1.8-21.1-1.8v1.27c11.96,0,19.87,1.7,19.87,1.7,0,0,2.3,9.74,1.72,21.64h-10.42c-.83-.79-.35-1.85-.08-2.1,1.23-1.1,1.23-1.84,1.23-1.84,0,0-2.82.7-7.44.9-.3.01-1.6.6-1.91.6-.64.02-1.55.04-2.22.04-6.03,0-8.98-.12-14.22-1.24.1.13.14.18.24.31.03.04,2.29.63,2.33.67.34.46.79.79,1.35,1.09.84.45,2.08.83,3.12.89,2.36.14,1.92-.74,2.13-.74,2.42-.04,3.98.83,6.1.79,1.94-.03,2-.64,2.18-.65,1.91-.11,3.86.73,5.53,1.26h-9.52v1.82h21.48c-.1,1.31-.23,2.65-.41,3.99-.8,6.08-5.39,16.69-21.08,21.96v2.03c16.66-5.59,22.01-17.67,22.83-24.12,1.96-15.48-1.73-28.49-1.73-28.49" style="fill: #daa500; fill-rule: evenodd;"/>
  <polygon points="12 34.67 12.88 33.01 16.81 32.73 14.82 29.33 15.69 27.67 22.69 31.35 21.89 32.88 17.32 30.48 19.27 34.02 19.25 34.06 15.26 34.45 19.8 36.84 19.01 38.35 12 34.67" style="fill: #002a5a;"/>
  <path d="m20.01,22.23l1.1-1.17,8.12,3-1.25,1.32-1.79-.69-2.29,2.44.79,1.74-1.22,1.29-3.47-7.93Zm4.64,1.86l-2.59-.99,1.15,2.52,1.44-1.53Z" style="fill: #002a5a;"/>
  <polygon points="26.29 16.47 27.66 15.64 33.35 17.88 30.83 13.72 32.3 12.82 36.4 19.59 35.13 20.36 29.25 18.04 31.86 22.34 30.39 23.23 26.29 16.47" style="fill: #002a5a;"/>
  <path d="m36.9,15.1v-.02c-.63-2.16.49-4.4,2.82-5.08,1.43-.41,2.43-.19,3.34.31l-.71,1.54c-.74-.36-1.43-.52-2.19-.3-1.28.37-1.9,1.7-1.52,3.01v.02c.38,1.3,1.6,2.13,2.9,1.75.87-.25,1.3-.75,1.74-1.47l1.37.77c-.54,1.06-1.26,1.83-2.72,2.26-2.24.65-4.4-.6-5.03-2.78" style="fill: #002a5a;"/>
  <polygon points="46.39 8.75 48.13 8.7 48.21 11.83 51.42 11.75 51.34 8.62 53.08 8.58 53.28 16.49 51.54 16.53 51.46 13.36 48.25 13.44 48.33 16.61 46.59 16.66 46.39 8.75" style="fill: #002a5a;"/>
  <path d="m63.32,17.57l1.45-.69c.4.83.92,1.48,1.74,1.86.65.3,1.16.22,1.35-.2v-.02c.2-.4.04-.72-1.02-1.58-1.27-1.04-2.02-1.87-1.36-3.3v-.02c.61-1.3,2.06-1.68,3.52-1,1.05.48,1.79,1.22,2.25,2.15l-1.37.81c-.43-.74-.94-1.29-1.54-1.57-.6-.28-1.05-.15-1.21.2v.02c-.23.47,0,.77,1.11,1.66,1.28,1.05,1.86,1.96,1.28,3.21v.02c-.67,1.43-2.13,1.72-3.68,1.01-1.09-.51-2.01-1.39-2.52-2.56" style="fill: #002a5a;"/>
  <polygon points="74.86 18.02 72.95 16.56 73.92 15.29 79.13 19.26 78.16 20.54 76.25 19.08 72.42 24.09 71.04 23.04 74.86 18.02" style="fill: #002a5a;"/>
  <path d="m87.38,29.26l1.63,3.23c.45.9.55,1.72.32,2.42-.2.59-.65,1.08-1.31,1.42h-.02c-1.14.58-2.17.33-2.96-.4l-1.66,3-.91-1.82,1.5-2.65-.62-1.22-2.26,1.14-.78-1.56,7.07-3.55Zm-1.86,4.86c.38.76,1.01.99,1.6.69h.02c.66-.34.77-.98.39-1.74l-.77-1.55-2.03,1.02.79,1.58Z" style="fill: #002a5a;"/>
  <polygon points="58.04 14.05 60.96 14.68 61.76 13.27 58.37 12.54 58.71 10.97 62.85 11.86 63.18 10.35 57.35 9.09 55.67 16.82 61.56 18.1 61.89 16.58 57.69 15.67 58.04 14.05" style="fill: #002a5a;"/>
  <polygon points="81.52 21.61 75.45 26.69 79.33 31.31 80.51 30.32 77.75 27.02 79.03 25.96 80.97 28.27 82.54 27.74 80.22 24.96 81.44 23.93 84.17 27.18 85.35 26.18 81.52 21.61" style="fill: #002a5a;"/>
  <path d="m37.58,89.06v-.02c0-2.29,1.72-4.17,4.2-4.17,1.52,0,2.43.51,3.18,1.24l-1.13,1.3c-.62-.56-1.25-.91-2.06-.91-1.36,0-2.34,1.13-2.34,2.51v.02c0,1.38.96,2.53,2.34,2.53.92,0,1.48-.37,2.12-.95l1.13,1.14c-.83.88-1.75,1.44-3.3,1.44-2.37,0-4.13-1.83-4.13-4.14" style="fill: #002a5a;"/>
  <rect x="46.74" y="85.01" width="1.77" height="8.05" style="fill: #002a5a;"/>
  <polygon points="52.63 86.64 50.18 86.64 50.18 85.01 56.85 85.01 56.85 86.64 54.4 86.64 54.4 93.06 52.63 93.06 52.63 86.64" style="fill: #002a5a;"/>
  <polygon points="60.7 89.89 57.61 85.01 59.68 85.01 61.6 88.24 63.56 85.01 65.57 85.01 62.48 89.85 62.48 93.06 60.7 93.06 60.7 89.89" style="fill: #002a5a;"/>
</svg>