<?xml version="1.0" encoding="UTF-8"?>
<svg id="a" data-name="Layer 1" xmlns="http://www.w3.org/2000/svg" width="179.91" height="179.82" viewBox="0 0 179.91 179.82">
  <path d="m165.67,57.37c-2.21-5.04-4.79-9.75-7.74-14.12-2.92-4.33-6.21-8.32-9.86-11.97-3.67-3.67-7.67-6.92-11.99-9.76-4.38-2.88-9.13-5.39-14.25-7.55-5.06-2.14-10.22-3.76-15.5-4.85-5.24-1.08-10.64-1.63-16.23-1.63h-1.03c-5.6,0-11.05.58-16.34,1.72-5.32,1.14-10.5,2.83-15.55,5.03-5.05,2.21-9.76,4.82-14.14,7.8-4.36,2.98-8.37,6.33-12.02,10.06-3.63,3.7-6.87,7.75-9.72,12.14-2.86,4.4-5.35,9.17-7.49,14.3-2.11,5.05-3.69,10.21-4.74,15.49-1.05,5.28-1.57,10.69-1.57,16.26v.47c0,5.57.55,10.99,1.66,16.26,1.11,5.3,2.78,10.48,4.99,15.52,2.19,4.99,4.77,9.64,7.71,13.97,2.97,4.37,6.3,8.38,9.98,12.03,3.69,3.67,7.71,6.92,12.06,9.79,4.38,2.88,9.11,5.38,14.18,7.52,5.1,2.16,10.29,3.78,15.59,4.87,5.25,1.08,10.66,1.62,16.24,1.62h.94c5.6,0,11.05-.58,16.35-1.72,5.36-1.14,10.57-2.83,15.64-5.03,5.07-2.2,9.78-4.81,14.16-7.81,4.35-2.98,8.33-6.33,11.99-10.05,3.63-3.7,6.88-7.75,9.74-12.13,2.88-4.41,5.37-9.17,7.47-14.29,2.04-4.97,3.59-10.06,4.64-15.31,1.04-5.2,1.57-10.52,1.57-15.98v-.94c0-5.5-.58-10.86-1.69-16.07-1.14-5.34-2.84-10.54-5.06-15.6h0Zm-1.54-18.31c3.17,4.7,5.96,9.8,8.38,15.31h0c2.43,5.51,4.28,11.21,5.53,17.06,1.23,5.76,1.86,11.64,1.86,17.62v.94c0,5.95-.58,11.75-1.72,17.44-1.13,5.65-2.83,11.2-5.08,16.69-2.28,5.56-4.99,10.73-8.12,15.52-3.14,4.82-6.7,9.25-10.68,13.3-4,4.07-8.36,7.74-13.1,10.99-4.71,3.23-9.84,6.06-15.42,8.48-5.58,2.42-11.26,4.26-17.05,5.5-5.84,1.25-11.81,1.89-17.9,1.89h-.94c-6.01,0-11.91-.6-17.73-1.8-5.78-1.18-11.43-2.96-16.99-5.31-5.48-2.31-10.61-5.03-15.38-8.17-4.8-3.16-9.21-6.73-13.23-10.72-4.02-4-7.66-8.37-10.89-13.11-3.19-4.69-6-9.76-8.39-15.2-2.42-5.51-4.24-11.18-5.46-16.98-1.22-5.82-1.83-11.76-1.83-17.78v-.47c0-6.03.57-11.92,1.72-17.69,1.15-5.77,2.87-11.4,5.18-16.92,2.31-5.52,5.01-10.68,8.14-15.5,3.13-4.82,6.68-9.26,10.66-13.31,4-4.08,8.38-7.75,13.13-11,4.74-3.24,9.86-6.06,15.37-8.48,5.52-2.41,11.18-4.26,16.98-5.5,5.83-1.25,11.8-1.89,17.89-1.89h1.03c6.01,0,11.91.61,17.72,1.81,5.76,1.19,11.39,2.96,16.91,5.29,5.52,2.33,10.67,5.05,15.44,8.19,4.83,3.18,9.23,6.74,13.19,10.7,3.98,3.98,7.57,8.34,10.77,13.09Z" style="fill: #fff;"/>
  <path d="m170.33,108.41c.36-1.53.67-3.08.93-4.63.77-4.48,1.16-9.07,1.16-13.77v-.94c0-4.91-.46-9.69-1.34-14.35-.33-1.75-.72-3.5-1.18-5.22l-8.73,18.53h0c-.21.45-.33.87-.38,1.25-.04.39-.02.76.07,1.13.04.17.09.34.17.53.04.1.09.2.14.28l.15.26,9.02,16.94h0Zm8.31-3.38c-.84,4.89-2.1,9.71-3.76,14.47l-2.82,8.05-4-7.52-13.22-24.85c-.31-.49-.56-1.01-.77-1.53-.18-.46-.33-.97-.46-1.5-.3-1.25-.38-2.49-.24-3.73.14-1.22.49-2.42,1.05-3.6h0s12.75-27.03,12.75-27.03l3.71-7.86,3.16,8.11c1.94,4.98,3.41,10.08,4.4,15.3.98,5.16,1.48,10.41,1.48,15.72v.94c0,5.09-.43,10.1-1.28,15.03Z" style="fill: #fff;"/>
  <path d="m132.74,19.48c-1.34-.81-2.7-1.59-4.1-2.33-4.03-2.14-8.27-3.95-12.71-5.42l-.89-.3c-4.66-1.54-9.35-2.61-14.03-3.23-1.77-.23-3.55-.41-5.34-.52l14.86,14.1c.35.33.7.58,1.06.75.33.15.7.25,1.1.28h0c.22.02.41.03.55.02.13,0,.24-.02.32-.04l.29-.07,18.9-3.25h0Zm-.59-8.94c4.34,2.3,8.52,5.01,12.55,8.11l6.76,5.2-8.4,1.45-27.97,4.81h0c-.5.11-.99.17-1.46.2-.56.03-1.07.02-1.56-.02h-.01c-1.25-.1-2.46-.42-3.61-.95-1.11-.51-2.13-1.22-3.08-2.12l-21.69-20.58-6.3-5.98,8.69-.46c5.31-.28,10.62-.08,15.9.62,5.22.69,10.37,1.86,15.41,3.52l.89.29c4.86,1.6,9.48,3.58,13.88,5.92Z" style="fill: #fff;"/>
  <path d="m34.93,28.5c-4.86,4.39-9.13,9.28-12.79,14.59-3.59,5.22-6.59,10.86-8.95,16.85l17.55-9.98h.01c.43-.26.77-.52,1.03-.81.23-.26.42-.58.57-.96.09-.23.15-.41.18-.51.03-.11.04-.22.05-.31v-.31s2.34-18.58,2.34-18.58h0Zm-18.94,10.35c5.8-8.43,13.05-15.88,21.61-22.13l6.99-5.1-1.08,8.57-3.49,27.8h0c-.04.5-.12.99-.24,1.46-.14.57-.3,1.07-.47,1.51-.46,1.16-1.11,2.22-1.98,3.19-.82.92-1.8,1.71-2.93,2.34h0s-25.98,14.76-25.98,14.76l-7.82,4.44,2.37-8.67c2.8-10.25,7.18-19.71,13-28.16Z" style="fill: #fff;"/>
  <path d="m14.67,123.58c.65,1.44,1.34,2.87,2.08,4.26,2.11,4.02,4.58,7.89,7.45,11.64l.57.75c3.03,3.96,6.39,7.64,10.05,10.97,1.26,1.15,2.56,2.25,3.88,3.31l-4.37-20.3h0c-.1-.48-.25-.88-.45-1.22-.19-.32-.44-.61-.75-.86-.12-.1-.27-.2-.44-.31-.12-.07-.22-.12-.29-.15l-.28-.12-17.46-7.98h0Zm-4.54,7.72c-2.33-4.44-4.26-9.03-5.81-13.77l-2.65-8.1,7.76,3.55,25.64,11.72c.54.21,1.04.45,1.49.72.42.26.86.57,1.29.92.98.8,1.8,1.73,2.45,2.82.63,1.05,1.08,2.22,1.35,3.5h0s6.37,29.58,6.37,29.58l1.83,8.49-7.43-4.52c-4.49-2.73-8.72-5.92-12.63-9.48-3.98-3.62-7.65-7.64-10.96-11.96l-.57-.75c-3.09-4.04-5.79-8.28-8.12-12.72Z" style="fill: #fff;"/>
  <path d="m95.3,172.02c1.57-.11,3.14-.26,4.71-.45,4.57-.57,9.08-1.52,13.51-2.87l.9-.27c4.67-1.41,9.12-3.24,13.34-5.45,1.58-.82,3.13-1.71,4.65-2.64l-20.25-2.99h-.01c-.5-.08-.94-.08-1.31-.01-.36.07-.71.2-1.05.4-.17.1-.32.2-.45.3h0c-.1.09-.19.16-.25.23l-.21.22-13.59,13.53h0Zm5.62,6.98c-4.9.61-9.87.81-14.91.59l-8.53-.36,6.04-6.02,20-19.92c.37-.42.76-.78,1.17-1.11h.01c.43-.34.86-.63,1.3-.89,1.09-.64,2.26-1.08,3.51-1.3,1.22-.22,2.47-.24,3.74-.05h0s29.57,4.36,29.57,4.36l8.62,1.27-6.85,5.37c-4.17,3.27-8.63,6.16-13.38,8.65-4.63,2.42-9.51,4.42-14.62,5.97l-.9.27c-4.94,1.5-9.86,2.55-14.77,3.16Z" style="fill: #fff;"/>
  <path d="m100.63,60.74c-.26-.34-.51-.58-.75-.71-.16-.09-.36-.13-.6-.13h0c-.16-.01-.31,0-.45.02-.1.02-.19.04-.28.08l-.32.13-32.8,10.75c-.53.17-.87.38-1.04.62-.2.28-.29.74-.28,1.37l.42,34.58c0,.53.15,1.02.42,1.38.14.2.33.34.55.39l.34.1,32.37,10.33.37.13c.06.03.14.05.25.07.13.02.28.03.46.03.26,0,.47-.04.63-.13.21-.11.44-.33.68-.65h.01s20.73-28.07,20.73-28.07c.19-.35.34-.69.44-1,.08-.24.12-.47.12-.67,0-.12-.03-.27-.1-.46-.1-.3-.24-.6-.41-.93l-20.75-27.23h-.01Zm2.79-7.29c1.2.64,2.26,1.57,3.18,2.78h0s20.87,27.39,20.87,27.39l.26.41c.5.87.89,1.69,1.16,2.48.33.97.51,1.92.51,2.86s-.16,1.91-.47,2.89c-.28.89-.68,1.79-1.2,2.67l-.23.35-20.87,28.25h0c-.91,1.24-1.98,2.17-3.2,2.82-1.3.7-2.69,1.04-4.15,1.04-.56,0-1.14-.04-1.75-.15-.58-.1-1.19-.27-1.81-.53l-31.86-10.17c-2.11-.47-3.8-1.68-4.98-3.3-1.15-1.59-1.79-3.6-1.82-5.68l-.42-34.58c-.03-2.22.5-4.12,1.6-5.7,1.13-1.63,2.75-2.79,4.87-3.49l32.8-10.75c.54-.21,1.07-.35,1.6-.45.6-.11,1.18-.15,1.76-.15v-.02c1.46,0,2.84.34,4.14,1.04Z" style="fill: #fff;"/>
  <polygon points="97.47 54.3 107.45 24.14 114.56 26.49 104.58 56.64 97.47 54.3" style="fill: #fff;"/>
  <polygon points="125.96 85.92 157.73 86.22 157.67 93.68 125.91 93.38 125.96 85.92" style="fill: #fff;"/>
  <polygon points="104.11 122.89 112.96 152.85 105.79 154.96 96.94 125 104.11 122.89" style="fill: #fff;"/>
  <rect x="33.33" y="117" width="31.86" height="7.48" transform="translate(-62.76 53.99) rotate(-37.02)" style="fill: #fff;"/>
  <rect x="43.79" y="44.26" width="7.48" height="31.77" transform="translate(-29 64.45) rotate(-54.91)" style="fill: #fff;"/>
</svg>