<?xml version="1.0" encoding="UTF-8"?>
<svg id="b" data-name="Layer 2" xmlns="http://www.w3.org/2000/svg" width="474.13" height="322.42" viewBox="0 0 474.13 322.42">
  <polygon points="9.48 .02 464.63 .02 474.13 .02 474.13 9.5 474.13 312.93 474.13 322.41 464.63 322.41 9.48 322.41 0 322.41 0 312.93 0 9.5 0 .02 9.48 .02" style="fill: #388e3c;"/>
  <path d="m9.48.02h15.47v322.4H0V.02h9.48ZM49.91.02h24.95v322.4h-24.95V.02ZM99.82.02h24.95v322.4h-24.95V.02ZM149.72.02h24.95v322.4h-24.95V.02ZM199.63.02h24.95v322.4h-24.95V.02ZM249.54.02h24.95v322.4h-24.95V.02ZM299.45.02h24.95v322.4h-24.95V.02ZM349.35.02h24.96v322.4h-24.96V.02ZM399.26.02h24.95v322.4h-24.95V.02ZM449.16.02h24.96v322.4h-24.96V.02Z" style="fill: #387d2e;"/>
  <path d="m15.43,15.46v291.53h443.25V15.46H15.43Zm-6.17,294.62V9.29h455.6v303.88H9.26v-3.09Z" style="fill: #f1f8e9;"/>
  <path d="m237.06,87.01c10.03,0,19.61,2,28.37,5.62,9.1,3.77,17.27,9.28,24.1,16.11,6.83,6.83,12.34,15.01,16.1,24.1,3.63,8.76,5.63,18.33,5.63,28.37s-2,19.61-5.63,28.36c-3.76,9.1-9.27,17.27-16.1,24.1-6.83,6.83-15.01,12.34-24.1,16.11-8.76,3.62-18.33,5.63-28.37,5.63s-19.61-2.01-28.37-5.63c-9.1-3.77-17.27-9.28-24.1-16.11-6.83-6.83-12.34-15-16.11-24.1-3.63-8.75-5.63-18.33-5.63-28.36s2-19.61,5.63-28.37c3.77-9.1,9.28-17.27,16.11-24.1,6.83-6.83,15-12.34,24.1-16.11,8.75-3.62,18.33-5.62,28.37-5.62Zm26.02,11.31c-8-3.31-16.79-5.14-26.02-5.14s-18.02,1.83-26.02,5.14c-8.31,3.44-15.79,8.5-22.08,14.78-6.29,6.29-11.34,13.78-14.78,22.08-3.32,8-5.15,16.79-5.15,26.02s1.83,18.02,5.15,26.02c3.44,8.31,8.5,15.79,14.78,22.08,6.29,6.29,13.77,11.34,22.08,14.78,8,3.32,16.79,5.15,26.02,5.15s18.02-1.83,26.02-5.15c8.31-3.44,15.8-8.5,22.08-14.78,6.29-6.29,11.34-13.77,14.78-22.08,3.31-8,5.14-16.79,5.14-26.02s-1.83-18.02-5.14-26.02c-3.44-8.31-8.5-15.8-14.78-22.08-6.29-6.29-13.78-11.34-22.08-14.78Z" style="fill: #f1f8e9;"/>
  <rect x="233.96" width="6.2" height="93.36" style="fill: #f1f8e9;"/>
  <rect x="233.96" y="229.05" width="6.2" height="93.36" style="fill: #f1f8e9;"/>
  <path d="m21.83,63.31h97.91v38.41c3.93,2.93,7.56,6.23,10.83,9.85,3.61,4,6.79,8.4,9.47,13.14,3.11,5.49,5.55,11.41,7.19,17.63,1.6,6.05,2.45,12.38,2.45,18.87s-.85,12.81-2.45,18.86c-1.64,6.22-4.07,12.14-7.19,17.63-2.68,4.74-5.87,9.15-9.47,13.14-3.27,3.62-6.89,6.92-10.83,9.85v38.41H9.26V63.31h12.57Zm85.34,6.17H15.43v183.47h98.13v-35.38l1.3-.93c4.05-2.89,7.78-6.21,11.12-9.91,3.33-3.69,6.25-7.73,8.7-12.06,2.85-5.03,5.08-10.45,6.59-16.17,1.45-5.52,2.23-11.31,2.23-17.3s-.78-11.79-2.23-17.3c-1.51-5.71-3.74-11.14-6.59-16.17-2.45-4.33-5.37-8.37-8.7-12.06-3.34-3.7-7.07-7.03-11.12-9.91l-1.3-.93v-35.38h-6.4Z" style="fill: #f1f8e9;"/>
  <rect x="113.57" y="89.14" width="5.74" height="144.16" style="fill: #f1f8e9;"/>
  <path d="m12.35,109.5h52.5v103.45H9.26v-103.45h3.09Zm46.33,6.17H15.43v91.1h43.24v-91.1Z" style="fill: #f1f8e9;"/>
  <path d="m452.29,69.49h-91.74v35.38l-1.3.92c-4.05,2.89-7.78,6.22-11.12,9.91-3.33,3.69-6.25,7.73-8.7,12.06-2.85,5.04-5.08,10.46-6.58,16.17-1.46,5.51-2.23,11.31-2.23,17.3s.78,11.79,2.23,17.3c1.5,5.71,3.73,11.13,6.58,16.17,2.45,4.32,5.37,8.37,8.7,12.06,3.33,3.7,7.06,7.03,11.12,9.91l1.3.92v35.38h98.13V69.49h-6.39Zm-85.34-6.17h97.91v195.82h-110.48v-38.41c-3.93-2.93-7.56-6.24-10.83-9.85-3.61-4-6.79-8.4-9.47-13.14-3.11-5.5-5.55-11.41-7.19-17.63-1.6-6.05-2.44-12.38-2.44-18.87s.85-12.81,2.44-18.86c1.64-6.22,4.07-12.14,7.19-17.64,2.68-4.74,5.86-9.15,9.47-13.14,3.27-3.62,6.89-6.92,10.83-9.85v-38.41h12.57Z" style="fill: #f1f8e9;"/>
  <rect x="354.82" y="89.14" width="5.73" height="144.16" style="fill: #f1f8e9;"/>
  <path d="m458.69,115.67h-43.24v91.11h43.24v-91.11Zm-46.32-6.17h52.5v103.46h-55.59v-103.46h3.09Z" style="fill: #f1f8e9;"/>
  <path d="m12.08,285.28c1.29-.58,2.63-1.02,4.02-1.32,1.38-.3,2.79-.44,4.18-.44,5.51,0,10.51,2.23,14.12,5.85s5.85,8.61,5.85,14.12c0,1.65-.21,3.3-.62,4.9h0c-.4,1.59-1.01,3.14-1.82,4.63l-5.4-2.94c.54-.98.95-2.06,1.24-3.19h0c.28-1.09.42-2.24.42-3.4,0-3.81-1.54-7.26-4.04-9.75-2.5-2.49-5.94-4.04-9.75-4.04-.99,0-1.97.11-2.91.3-.94.2-1.87.51-2.76.91l-2.53-5.62Z" style="fill: #f1f8e9;"/>
  <path d="m460.51,290.91c-.89-.4-1.82-.71-2.75-.91-.94-.2-1.91-.3-2.91-.3-3.81,0-7.26,1.55-9.75,4.04-2.49,2.49-4.04,5.95-4.04,9.75,0,1.16.14,2.3.42,3.4h0c.28,1.13.7,2.2,1.24,3.18l-5.4,2.95c-.81-1.49-1.41-3.04-1.82-4.61h0c-.41-1.62-.61-3.26-.61-4.92,0-5.52,2.23-10.5,5.85-14.12,3.62-3.62,8.6-5.85,14.12-5.85,1.4,0,2.8.15,4.19.45,1.38.3,2.73.74,4.01,1.32l-2.54,5.61h0Z" style="fill: #f1f8e9;"/>
  <path d="m14.61,32.98c.89.4,1.82.71,2.76.91.94.2,1.91.3,2.91.3,3.81,0,7.26-1.54,9.75-4.04,2.5-2.49,4.04-5.95,4.04-9.75,0-1.16-.14-2.3-.42-3.4h0c-.29-1.13-.7-2.2-1.24-3.19l5.4-2.94c.81,1.49,1.42,3.04,1.82,4.61h0c.41,1.62.62,3.26.62,4.92,0,5.52-2.24,10.5-5.85,14.12-3.62,3.62-8.61,5.85-14.12,5.85-1.39,0-2.8-.15-4.18-.44-1.38-.3-2.73-.74-4.01-1.32l2.53-5.62Z" style="fill: #f1f8e9;"/>
  <path d="m463.04,38.61c-1.29.58-2.63,1.02-4.01,1.31-1.39.3-2.79.45-4.19.45-5.52,0-10.5-2.24-14.12-5.85-3.62-3.62-5.85-8.61-5.85-14.12,0-1.65.2-3.3.61-4.9h0c.4-1.59,1.01-3.14,1.81-4.63l5.4,2.95c-.54.98-.95,2.05-1.24,3.18h0c-.28,1.09-.42,2.24-.42,3.4,0,3.81,1.55,7.25,4.04,9.75,2.49,2.49,5.95,4.04,9.75,4.04,1,0,1.97-.11,2.91-.3.94-.21,1.86-.51,2.75-.91l2.54,5.62Z" style="fill: #f1f8e9;"/>
</svg>