<?xml version="1.0" encoding="UTF-8"?>
<svg id="a" data-name="Layer 1" xmlns="http://www.w3.org/2000/svg" width="125.93" height="53.61" viewBox="0 0 125.93 53.61">
  <path d="m49.61,26.77V9h5.57c3.63,0,6.35,2.18,6.35,5.94s-2.68,6.02-6.35,6.02h-2.16v5.81h-3.41Zm3.41-9.12h1.99c1.73,0,2.98-.96,2.98-2.71s-1.25-2.66-2.98-2.66h-1.99v5.37Zm54.29,28.64c-2.55,0-5.66-1.4-5.66-5.76v-6.24h3.2v6.02c0,2.01.91,2.88,2.46,2.88,1.43,0,2.46-1,2.46-2.88v-6.02h3.2v6.24c0,4.37-3.15,5.76-5.66,5.76m-27.51,0c-3.07,0-5.74-2.84-5.74-6.16s2.68-6.02,5.74-6.02c1.73,0,2.89.61,3.58,1.7l.35-1.53h2.81v11.7h-2.81l-.35-1.48c-.69,1.05-1.99,1.79-3.58,1.79m.65-9.26c-1.73,0-3.02,1.31-3.02,3.1s1.3,3.06,3.02,3.06,2.98-1.35,2.98-3.06c0-1.79-1.3-3.1-2.98-3.1m20.95-21.96h3.2v11.7h-3.2v-11.7Zm1.64-1.57c-1.12,0-1.99-.87-1.99-1.96s.86-2.01,1.99-2.01,1.99.87,1.99,2.01-.86,1.96-1.99,1.96m-6.43,6.37c0-1.27-.69-2.05-1.77-2.05-1.25,0-1.9.79-1.9,2.1v6.85h-3.2v-6.9c0-1.27-.69-2.05-1.77-2.05-1.25,0-1.9.79-1.9,2.1v6.85h-3.2v-11.7h2.81l.35,1.53s.69-1.83,2.85-1.83c1.34,0,2.46.57,3.24,1.75l.09.13.09-.13c1.12-1.61,2.51-1.75,3.37-1.75,2.46,0,4.15,1.88,4.15,4.54v7.47h-3.2v-6.9Zm22.33,6.9v-11.7h2.76l.35,1.7c.52-1.09,1.55-1.83,2.94-1.83.3,0,.6.04.91.13v3.1c-.39-.09-.73-.13-1.12-.13-1.55,0-2.63.96-2.63,2.84v5.89h-3.2Zm-56.32,0v-11.7h2.76l.35,1.7c.52-1.09,1.55-1.83,2.94-1.83.3,0,.6.04.91.13v3.1c-.39-.09-.73-.13-1.12-.13-1.55,0-2.63.96-2.63,2.84v5.89h-3.2Zm-13,19.21v-17.33h3.41v14.06h7.43v3.27h-10.84Zm17.75.31c-3.58,0-6.22-2.49-6.22-6.11,0-3.27,2.37-6.2,6.13-6.2,2.81,0,5.7,2.14,5.7,6.11,0,.31,0,.7-.09,1.14h-8.46c.3,1.31,1.47,2.18,2.89,2.18,1.3,0,2.29-.48,3.11-1.35l1.94,2.01c-1.25,1.44-3.07,2.23-5.01,2.23m-.17-9.47c-1.34,0-2.46.79-2.72,2.05h5.36c-.26-1.22-1.34-2.05-2.63-2.05m53.12,9.47c-3.58,0-6.22-2.49-6.22-6.11,0-3.27,2.38-6.2,6.13-6.2,2.81,0,5.7,2.14,5.7,6.11,0,.31,0,.7-.09,1.14h-8.46c.3,1.31,1.47,2.18,2.89,2.18,1.3,0,2.29-.48,3.11-1.35l1.94,2.01c-1.25,1.44-3.07,2.23-5.01,2.23m-.17-9.47c-1.34,0-2.46.79-2.72,2.05h5.36c-.26-1.22-1.34-2.05-2.63-2.05m-8.08-9.74c-3.58,0-6.22-2.49-6.22-6.11,0-3.27,2.38-6.2,6.13-6.2,2.81,0,5.7,2.14,5.7,6.11,0,.31,0,.7-.09,1.13h-8.46c.3,1.31,1.47,2.18,2.89,2.18,1.3,0,2.29-.48,3.11-1.35l1.94,2.01c-1.25,1.44-3.07,2.23-5.01,2.23m-.17-9.47c-1.34,0-2.46.79-2.72,2.05h5.36c-.26-1.22-1.34-2.05-2.63-2.05m-35.89,9.47c-3.58,0-6.22-2.49-6.22-6.11,0-3.27,2.38-6.2,6.13-6.2,2.81,0,5.7,2.14,5.7,6.11,0,.31,0,.7-.09,1.13h-8.47c.3,1.31,1.47,2.18,2.89,2.18,1.3,0,2.29-.48,3.11-1.35l1.94,2.01c-1.25,1.44-3.07,2.23-5.01,2.23m-.17-9.47c-1.34,0-2.46.79-2.72,2.05h5.35c-.26-1.22-1.34-2.05-2.63-2.05m18.27,19.43c-1.68,0-3.02,1.31-3.02,3.1s1.34,3.06,3.02,3.06,3.02-1.35,3.02-3.06c0-1.79-1.34-3.1-3.02-3.1m2.85-1.27l.35-1.48h2.81v11.18c0,2.18-.6,3.71-2.03,4.85-1.08.83-2.55,1.44-4.32,1.44-2.42,0-4.15-.83-5.53-2.18l1.77-2.49c.86.83,2.03,1.57,3.54,1.57,2.38,0,3.41-1.18,3.41-2.92v-.83c-.95,1-2.07,1.4-3.33,1.4-3.28,0-5.87-2.71-5.87-6.16s2.68-6.02,5.96-6.02c1.34,0,2.55.65,3.24,1.66M9.01,4.4c2.3,1.07,3.78,2.42,4.05,2.62-.12-.6-.58-3.5-.84-5.3,1.34.94,4.46,3.13,5.48,3.84C18.13,4.26,19.58,0,19.58,0c0,0,2.61,4.28,3.06,4.98.55-.58,3.67-4.09,4.48-4.98.14,2.02.32,4.92.37,5.35.16-.22,1.36-1.91,3.36-3.48-.87,1.73-1.28,4.12-1.47,6.04-1.97-.56-4.05-.86-6.2-.86-4.12,0-7.99,1.1-11.34,3.02-.61-1.85-1.56-4.16-2.82-5.68m24.03,24.09v-2.98s-1.32-.43-2.73-1.53c-2.82.43-6.24,3.3-6.24,3.3,0,0,1.16,2.22,2.42,4.6,2.22.31,5.49-2.52,6.55-3.4m2.84,5.4s-.23-1.23-1.19-2.38l-2.2.06s-2.97,2.58-4.78,2.64c0,0,1,1.88,1.5,2.86,1-.22,2.75-1.02,3.46-1.85,0,0,.47,1.52.38,3.32.99-.59,2.36-2.16,2.84-4.64m.9-9.79c-1.11.95-2.05,1.47-2.05,1.47v2.99c.81.9,1.59,1.64,2.18,2.99,1.11-2.02.9-5-.12-7.45m.24-2.67l.17-1.36c.06-.75-.13-1.99-1.17-3.28-1.29-1.46-4.52-3.81-6.06-4.37,0,0-.13,1.5-.66,2.23-3.07-2.24-4.58-2.81-4.58-2.81-3.38.49-5.55,1.8-6.72,2.84l1.03.88c-2.03.63-3.36,2.4-3.36,2.4.01.03,1.82.29,1.82.29,0,0-.18,2.14,2.47,3.48,2.27,1.15,5.54-.28,8.61.97-2.02-2.36-3.42-3.42-3.42-3.42,0,0-.81-.17-1.37-.17-.71,0-1.76.15-2.91-.31-.55-.22-1.19-.6-1.7-.92,0,0,1.42-1.47,3.49-1.8,0,0,1.87.53,3.35,1.64.99-.97,2.01-.94,2.01-.94,0,0-1.02.96-.71,2.13,1.48,1.33,3.09,3.25,3.09,3.25,1.64-.91,5.19-.7,5.92.16-.93-1.21-2.26-2.23-3.29-3.09-.13-.45-1.25-2.04-1.44-2.19,0,0,1.07.33,2.03,1.2.28-.4.79-.8,1.49-.98.72.61.85,1.55.83,1.7-.33.39-.64.55-.64.55l1.73,1.9.17-1.36m1.55,2.47c2.64,4.93,3.28,10.84,1.45,16.73-.11-.12-1.51-1.7-2.09-2.35-.37,5.76-2.04,10.23-6.94,14.01,0,0-.46-1.81-.74-2.94-8.07,5.98-15,3.24-16.95,2.26,1.51-7,.34-11.02-.67-14.08-2.15,3.57-4.35,6.33-6.54,8.21-1.5-3.54-1.62-10.12-.4-14.01-.4.11-2.77.87-4.09,1.27.53-3.57,2.86-8.35,5.33-10.73-.43-.08-1.69-.26-2.69-.43.62-1.27,2.4-3.62,5.14-5.83-.08,1.56.49,3.41,2.23,4.3-1.1-1.96-1.24-4.37-.09-5.62,1.16-1.26,3.09-.83,4.33.15-.23-.68-.73-1.47-1.46-1.99,3.42-1.61,7.56-2.54,12.26-1.81.72.64,1.5,1.54,1.93,2.09.02-.4-.04-1.17-.16-1.75,1.92.46,3.93,1.2,6.01,2.29-3.7-3.73-11.2-4.85-17.46-3.04-1.47.42-2.86.99-4.17,1.65-1.38.02-2.27.87-2.78,1.63-4.01,2.69-6.94,6.22-8.36,9.18.31.07,1.26.19,2.14.34C2.19,24.66-.15,29.55,0,33.94c.41-.12,2.59-.8,3.67-1.15-.57,3.87-.41,10.37,2.08,14.09,3.13-2.24,4.94-4.59,6.45-6.72.39,1.91.77,5.31-.57,10.94,1.08.84,8.92,5.01,17.79-.43l.74,2.96.96-.63c5.4-3.54,7.47-8.33,8.19-12.23.25.28,1.23,1.36,1.58,1.73,1.35-3.74,4.06-12.72-2.14-19.93" style="fill: #fff;"/>
</svg>