<?xml version="1.0" encoding="UTF-8"?>
<svg id="a" data-name="Layer 1" xmlns="http://www.w3.org/2000/svg" width="188.6" height="234.21" viewBox="0 0 188.6 234.21">
  <path d="m169.09,39.7c9.16-8.92,9.33-23.58.42-32.71-8.92-9.15-23.55-9.36-32.69-.43-9.15,8.92-9.35,23.55-.42,32.69,8.89,9.16,23.55,9.34,32.69.45h0Zm0,0" style="fill: #fb041b;"/>
  <path d="m179.53,110.53l-33.44-9.58-5.05-16.36c6.72-7.74,6.6-19.41-.69-26.9l-5.93-6.08c-2.66-2.75-7.2-5.05-9.38-5.6l-49-12.57c-4.47-1.16-9.22.26-12.35,3.67l-29.49,32.14c-4.67,5.1-4.34,13.03.75,17.7,2.4,2.21,5.44,3.3,8.47,3.3,3.39,0,6.76-1.38,9.23-4.06l24.41-26.63,16.34,4.19-34.89,34c-5.36,4.58-10.2,11.86-7.13,19.18l13.79,32.8-57.05,29.58c-7.38,3.82-10.26,12.91-6.44,20.27,3.81,7.32,12.84,10.25,20.27,6.43l69.38-35.97c1.99-1.03,3.54-2.51,4.84-4.18l7.58,8.39-11.08,41.01c-2.16,8,2.58,16.26,10.59,18.42,8.09,2.16,16.28-2.65,18.42-10.59l13.23-48.92c1.32-4.93.07-10.19-3.36-13.98l-31.77-35.2,21.15-20.61,3.22,10.41c1.25,4.05,4.44,7.19,8.51,8.35l39.96,11.44c6.67,1.92,13.59-1.97,15.49-8.59,1.9-6.65-1.94-13.58-8.59-15.48h0Zm0,0" style="fill: #fb041b;"/>
</svg>